<?xml version="1.0" standalone="no"?>
<!DOCTYPE svg PUBLIC "-//W3C//DTD SVG 1.1//EN" "http://www.w3.org/Graphics/SVG/1.1/DTD/svg11.dtd" >
<svg xmlns="http://www.w3.org/2000/svg" xmlns:xlink="http://www.w3.org/1999/xlink" version="1.1">
<metadata>
Created by FontForge 20170731 at Fri Jan 20 03:52:34 2017
 By ,,,
Copyright (c) 2015 by Francesco Canovaro. All rights reserved.
</metadata>
<defs>
<font id="WOD-Black" horiz-adv-x="1222" >
  <font-face 
    font-family="WOD Black"
    font-weight="900"
    font-stretch="normal"
    units-per-em="2000"
    panose-1="2 0 5 3 2 0 0 2 0 4"
    ascent="1610"
    descent="-390"
    x-height="1050"
    cap-height="1433"
    bbox="-515 -517 2341 2075"
    underline-thickness="120"
    underline-position="-320"
    unicode-range="U+000D-FB06"
  />
<missing-glyph horiz-adv-x="1280" 
d="M638 138q-118 0 -224.5 45t-187.5 128q-79 82 -122 187t-43 218q0 118 45 224.5t127 188.5q82 79 187 123t218 44q120 0 226 -45.5t188 -130.5q78 -82 120.5 -186.5t42.5 -217.5q0 -101 -31.5 -192t-91.5 -164q-56 -71 -132.5 -122.5t-166.5 -78.5q-70 -21 -155 -21z
M638 1247q-108 0 -205.5 -42t-172.5 -118q-72 -75 -111.5 -171.5t-39.5 -199.5q0 -104 39.5 -200.5t112.5 -172.5q75 -78 171 -119t206 -41q105 0 202.5 40.5t172.5 114.5q75 75 115.5 172.5t40.5 205.5q0 92 -30 176.5t-85 154.5q-53 66 -123.5 112.5t-151.5 69.5
q-65 18 -141 18zM317 1073q136 121 321 121q90 0 171.5 -31.5t145.5 -89.5h-638zM1116 716q0 -87 -28 -165t-81 -141h-635l623 627q61 -70 88 -146q33 -79 33 -175zM280 395q-58 67 -88.5 149t-30.5 172q0 176 109 303h633zM959 358q-69 -59 -150.5 -90t-170.5 -31
q-179 0 -318 121h639z" />
    <glyph glyph-name=".notdef" horiz-adv-x="1280" 
d="M638 138q-118 0 -224.5 45t-187.5 128q-79 82 -122 187t-43 218q0 118 45 224.5t127 188.5q82 79 187 123t218 44q120 0 226 -45.5t188 -130.5q78 -82 120.5 -186.5t42.5 -217.5q0 -101 -31.5 -192t-91.5 -164q-56 -71 -132.5 -122.5t-166.5 -78.5q-70 -21 -155 -21z
M638 1247q-108 0 -205.5 -42t-172.5 -118q-72 -75 -111.5 -171.5t-39.5 -199.5q0 -104 39.5 -200.5t112.5 -172.5q75 -78 171 -119t206 -41q105 0 202.5 40.5t172.5 114.5q75 75 115.5 172.5t40.5 205.5q0 92 -30 176.5t-85 154.5q-53 66 -123.5 112.5t-151.5 69.5
q-65 18 -141 18zM317 1073q136 121 321 121q90 0 171.5 -31.5t145.5 -89.5h-638zM1116 716q0 -87 -28 -165t-81 -141h-635l623 627q61 -70 88 -146q33 -79 33 -175zM280 395q-58 67 -88.5 149t-30.5 172q0 176 109 303h633zM959 358q-69 -59 -150.5 -90t-170.5 -31
q-179 0 -318 121h639z" />
    <glyph glyph-name="uni0000" horiz-adv-x="0" 
 />
    <glyph glyph-name="uni0000" horiz-adv-x="0" 
 />
    <glyph glyph-name="uni000D" unicode="&#xd;" horiz-adv-x="0" 
 />
    <glyph glyph-name="space" unicode=" " horiz-adv-x="617" 
 />
    <glyph glyph-name="exclam" unicode="!" horiz-adv-x="744" 
d="M243 547v887h292v-887h-292zM559.5 97q-14.5 -34 -39.5 -59t-58.5 -38.5t-71.5 -13.5q-37 0 -71 13.5t-60 38.5q-26 24 -40.5 57t-14.5 71t14.5 71t40.5 57q26 25 60 38.5t71 13.5q38 0 71.5 -13.5t58.5 -38.5t39.5 -58.5t14.5 -69.5q0 -35 -14.5 -69z" />
    <glyph glyph-name="quotedbl" unicode="&#x22;" horiz-adv-x="841" 
d="M17 1433h292v-346q0 -37 -20.5 -67t-54.5 -47.5t-72 -17.5t-71.5 17.5t-53.5 47.5t-20 67v346zM463 1433h292v-346q0 -37 -20.5 -67t-54.5 -47.5t-72 -17.5t-71.5 17.5t-53.5 47.5t-20 67v346z" />
    <glyph glyph-name="numbersign" unicode="#" horiz-adv-x="1197" 
d="M729 1290q10 61 73 104q27 19 60 29t66 10h125l-77 -395h182l-30 -142q-15 -68 -63.5 -108.5t-116.5 -40.5h-30l-16 -94h198l-27 -130q-6 -32 -22 -61t-39 -51q-52 -49 -121 -49h-48l-43 -219q-14 -66 -60.5 -104.5t-112.5 -38.5h-152l72 362h-87l-43 -218
q-11 -62 -72 -105q-28 -19 -60.5 -29t-65.5 -10h-127l72 362h-170l29 143q13 67 61.5 107.5t117.5 40.5h19l6 33l11 61h-188l27 131q6 32 22.5 62t39.5 50q49 49 122 49h35l10 50l6 31q5 20 10 50l17 84l7 36q13 66 60 104.5t114 38.5h150l-77 -394h86zM516 653h87l6 28
l11 66h-85z" />
    <glyph glyph-name="dollar" unicode="$" horiz-adv-x="1096" 
d="M455 1582h145v-141q92 -15 186.5 -78.5t176.5 -161.5l-101 -85q-29 -26 -60.5 -37t-74.5 -11q-27 0 -49 6t-52 20q-40 16 -54.5 20.5t-33.5 4.5q-59 0 -97.5 -21.5t-38.5 -57.5q0 -30 15 -49t49 -33q32 -13 81 -27q126 -35 212 -76t148 -99q62 -59 93.5 -136t31.5 -163
q0 -89 -32.5 -167t-95.5 -141q-59 -60 -137.5 -99.5t-166.5 -53.5v-173h-145v166q-79 7 -151.5 35t-132.5 75q-60 45 -105.5 106t-71.5 132l104 60q52 31 111 31q35 0 65 -12t80 -45t80.5 -45t67.5 -12q33 0 68 9.5t64 27.5q70 42 70 106q0 30 -16 51.5t-52 39.5
q-16 8 -73 28q-169 52 -284.5 120.5t-168.5 171.5q-36 69 -36 172q0 79 30 149t85 125q52 50 120 82.5t146 43.5v142z" />
    <glyph glyph-name="percent" unicode="%" horiz-adv-x="1700" 
d="M100.5 1223.5q25.5 67.5 71.5 118.5q48 52 111.5 79.5t137.5 27.5q73 0 137 -27.5t113 -79.5q46 -51 71.5 -118.5t25.5 -141.5q0 -73 -25.5 -140t-71.5 -119q-49 -52 -113 -79.5t-137 -27.5q-74 0 -137.5 27.5t-111.5 79.5q-46 52 -71.5 119t-25.5 140q0 74 25.5 141.5z
M555 90q-67 -90 -176 -90h-256l1006 1343q68 90 176 90h256zM358 1013q24 -28 63 -28t63.5 27.5t24.5 70.5q0 42 -24.5 69.5t-63.5 27.5t-63 -27.5t-24 -69.5t24 -70zM949.5 493.5q25.5 67.5 71.5 118.5q48 52 111.5 79.5t137.5 27.5q73 0 137 -27.5t113 -79.5
q46 -51 71.5 -118.5t25.5 -141.5q0 -73 -25.5 -140t-71.5 -119q-49 -52 -113 -79.5t-137 -27.5q-74 0 -137.5 27.5t-111.5 79.5q-46 52 -71.5 119t-25.5 140q0 74 25.5 141.5zM1207 283q24 -28 63 -28t63.5 27.5t24.5 70.5q0 42 -24.5 69.5t-63.5 27.5t-63 -27.5t-24 -69.5
t24 -70z" />
    <glyph glyph-name="ampersand" unicode="&#x26;" horiz-adv-x="1466" 
d="M902 604l40 53q81 111 224 111h225l-277 -374l399 -394h-283q-80 0 -132.5 23t-108.5 79l-19 18q-76 -65 -185 -99t-231 -34q-104 0 -195.5 35.5t-161.5 101.5q-69 66 -107 153t-38 182q0 46 14 98.5t39 103.5q20 43 45 79.5t47 55.5l6 4q8 5 23 5q17 0 30 -4
q22 -9 49 -24q-48 45 -73 110t-25 129q0 90 33.5 170t95.5 140q60 58 136.5 89.5t158.5 31.5q141 0 244 -57q56 -30 107.5 -82t106.5 -134l-116 -62q-40 -21 -113 -21q-35 0 -64.5 7.5t-65.5 25.5q-48 20 -67 26t-42 6q-19 0 -40 -8t-38 -23q-43 -36 -43 -103q0 -22 5 -35.5
t20 -28.5q15 -18 74 -69q25 -21 36 -32q133 -118 249 -234zM677 416l-220 217q-48 -34 -80 -83t-32 -92q0 -57 30 -99t84 -63q51 -22 117 -22q103 0 185 57z" />
    <glyph glyph-name="quotesingle" unicode="'" horiz-adv-x="550" 
d="M120 1433h312l-30 -428q-5 -61 -39.5 -96.5t-87.5 -35.5t-86.5 35.5t-38.5 96.5z" />
    <glyph glyph-name="parenleft" unicode="(" horiz-adv-x="695" 
d="M541 75q18 -33 29 -78.5t11 -86.5q0 -53 -16 -103.5t-42 -71.5l-61 -45q-161 211 -253 456.5t-92 491.5q0 248 88.5 488t244.5 442l61 -46q28 -22 45 -78q12 -49 12 -97q0 -44 -11 -89.5t-29 -76.5q-55 -100 -83.5 -229t-36.5 -314q0 -319 133 -563z" />
    <glyph glyph-name="parenright" unicode=")" horiz-adv-x="658" 
d="M216 953q-29 131 -84 230q-18 31 -29 76.5t-11 89.5q0 56 15 105t42 70l61 46q157 -205 245.5 -444t88.5 -488q0 -246 -92 -491.5t-253 -456.5l-61 45q-26 21 -42 71.5t-16 103.5q0 41 11 86.5t29 78.5q133 244 133 563q-8 184 -37 315z" />
    <glyph glyph-name="asterisk" unicode="*" horiz-adv-x="800" 
d="M928 1174l-121 -207l-144 83q-23 13 -37 27q-7 7 -13 18q3 -7 5 -9q9 -15 9 -56v-167h-242v167q0 30 4 45q1 7 4 11q1 2 2 4.5t2 5.5q-4 -4 -6 -9q-17 -21 -44 -34l-144 -84l-120 209l143 83q27 15 49 19q3 1 19 1q13 0 15 1l-34 2q-20 1 -48 18l-145 85l121 212l144 -83
l23 -13q6 -4 17 -16l2 -4q-4 7 -4.5 12t-0.5 14q-1 2 -1 26v167h246v-193q0 -15 -4 -22l-7 -12q4 4 6 8l2 3q8 13 16 17l22 13l145 83l118 -214l-143 -83q-34 -18 -46 -19q-3 -1 -16 -1h-15q2 -1 16 -1q20 -1 36 -9l13 -6l12 -7z" />
    <glyph glyph-name="plus" unicode="+" horiz-adv-x="1178" 
d="M432 190v330h-330v291h330v333h291v-333h333v-291h-333v-330h-291z" />
    <glyph glyph-name="comma" unicode="," horiz-adv-x="424" 
d="M28.5 240q14.5 33 39.5 58t58.5 38.5t70.5 13.5q36 0 70 -14t59 -38q25 -25 39.5 -58t14.5 -68q0 -106 -57 -210.5t-168 -199.5l-43 41q-18 17 -25.5 34t-7.5 38q0 14 5 26.5t17 33.5q15 23 21 36.5t9 30.5q-57 24 -87 68t-30 102q0 35 14.5 68z" />
    <glyph glyph-name="hyphen" unicode="-" horiz-adv-x="790" 
d="M688 522h-595v291h595v-291z" />
    <glyph glyph-name="period" unicode="." horiz-adv-x="424" 
d="M369.5 96q-14.5 -34 -39.5 -59t-58.5 -38.5t-71.5 -13.5q-37 0 -71 13.5t-60 38.5q-26 24 -40.5 57t-14.5 71t14.5 71t40.5 57q26 25 60 38.5t71 13.5q38 0 71.5 -13.5t58.5 -38.5t39.5 -58.5t14.5 -69.5q0 -35 -14.5 -69z" />
    <glyph glyph-name="slash" unicode="/" horiz-adv-x="983" 
d="M618 1344q30 61 76 94.5t103 33.5h196l-629 -1435q-22 -55 -78 -91t-122 -36h-173z" />
    <glyph glyph-name="zero" unicode="0" horiz-adv-x="1213" 
d="M62 910q0 106 42 205t118 175q76 75 175 116t209 41q109 0 208 -40.5t177 -116.5q77 -75 118.5 -173t41.5 -207v-387q0 -108 -42 -207t-118 -172q-79 -75 -178 -116t-207 -41q-146 0 -271.5 71t-197.5 194q-75 123 -75 271v387zM389 524q0 -42 17 -80t48 -68t70.5 -46
t81.5 -16t82 16t71 45q66 63 66 148v387q0 41 -17.5 80t-48.5 69q-30 29 -70.5 45t-82.5 16t-81.5 -16t-69.5 -45q-31 -29 -48.5 -68t-18.5 -81z" />
    <glyph glyph-name="one" unicode="1" horiz-adv-x="848" 
d="M383 -1v1011q-24 -35 -56 -56.5t-57 -21.5q-30 0 -52.5 10.5t-47.5 35.5l-105 105l371 353h274v-1437h-327z" />
    <glyph glyph-name="two" unicode="2" horiz-adv-x="1211" 
d="M1110 0h-990v146q0 46 16 91.5t46 77.5l21 21q215 212 332 340q105 114 169 199q34 43 48.5 71.5t14.5 52.5q0 12 -3 22q-10 30 -36.5 52.5t-66.5 35.5q-38 12 -69 12q-68 0 -112 -38q-42 -38 -79.5 -54.5t-81.5 -16.5q-24 0 -45.5 7.5t-61.5 28.5l-111 57l26 47
q38 72 82 124q20 27 51 55q66 58 151 88.5t181 30.5q98 0 190 -33.5t162 -93.5q73 -64 112.5 -148.5t39.5 -180.5q0 -64 -17 -118.5t-56 -118.5q-48 -78 -143.5 -198.5t-172.5 -200.5q-30 -31 -65 -44q-19 -7 -31 -8h499v-306z" />
    <glyph glyph-name="three" unicode="3" horiz-adv-x="1171" 
d="M411 18.5q-88 31.5 -158 88.5q-40 36 -82.5 100t-78.5 137l109 53q52 31 111 31q42 0 80.5 -15t68.5 -44l15 -12q28 -24 64 -38t72 -14q33 0 62.5 13t50.5 36q45 50 45 121q0 35 -11.5 66.5t-33.5 55.5q-22 25 -53 39t-67 14h-162v273h175q22 0 42 8.5t35 23.5t24 34.5
t9 40.5t-9 41.5t-24 35.5t-35.5 24t-41.5 9q-25 0 -42.5 -5t-43.5 -20l-36 -22q-44 -28 -83 -42q-27 -8 -44 -8q-37 0 -73 16.5t-93 56.5l-75 54q229 277 459 277q87 0 166 -29t140 -81q61 -54 93.5 -126t32.5 -154q0 -129 -85 -244q83 -70 127 -159t44 -189
q0 -101 -36.5 -189t-104.5 -152q-70 -66 -165 -101.5t-205 -35.5q-95 0 -183 31.5z" />
    <glyph glyph-name="four" unicode="4" horiz-adv-x="1208" 
d="M650 0v300h-568v169q0 56 31 114q11 23 32 52l415 692q30 48 78 76t102 28h248v-825h172v-306h-172v-300h-338zM528 656q-7 -17 -23 -37q-7 -10 -12 -13h167v356z" />
    <glyph glyph-name="five" unicode="5" horiz-adv-x="1228" 
d="M1081 1127h-480l-5 -33l-3 -19l-2 -16q108 0 207 -36.5t175 -103.5q80 -72 123 -168t43 -206q0 -113 -43 -215.5t-122 -178.5q-79 -78 -182.5 -121t-216.5 -43q-118 0 -240 61.5t-222 170.5l86 85q37 37 75 54.5t82 17.5h4q24 0 44 -6t61 -24q35 -17 59 -24t51 -7
q45 0 88 17.5t77 48.5q33 30 51 72t18 89q0 45 -17.5 86.5t-49.5 72.5q-34 31 -76 48.5t-88 17.5q-19 0 -44.5 -5.5t-38.5 -11.5q-58 -18 -92 -18q-33 0 -62.5 13.5t-51.5 38.5q-48 58 -48 129q0 6 1 7l2 20l4 26l3 22l34 232l32 213h764v-306z" />
    <glyph glyph-name="six" unicode="6" horiz-adv-x="1173" 
d="M145 835l304 497q28 46 95 78q23 11 49 15t73 5l230 3l-232 -374q107 -16 199.5 -71t155.5 -140q51 -70 79 -154t28 -171q0 -22 -5 -74q-15 -107 -69.5 -199t-139.5 -156q-72 -52 -156 -80.5t-171 -28.5q-22 0 -74 5q-107 15 -199.5 70t-155.5 140q-52 72 -80.5 155.5
t-28.5 170.5q0 22 5 74q18 129 93 235zM385 458q11 -33 32 -60q30 -39 74 -61.5t94 -22.5q34 0 66.5 11t59.5 31q33 25 54.5 60.5t27.5 77.5l2 31q0 64 -32 112t-84 76q-43 22 -94 22q-62 0 -111 -32t-77 -84q-23 -48 -23 -94q0 -34 11 -67z" />
    <glyph glyph-name="seven" unicode="7" horiz-adv-x="1165" 
d="M119 1433h991v-146q0 -19 -11 -60q-9 -27 -10 -29l-199 -456l-267 -615q-27 -61 -80 -94t-121 -33h-213l464 1067q11 24 34 44q11 9 21 14h-609v308z" />
    <glyph glyph-name="eight" unicode="8" horiz-adv-x="1198" 
d="M132.5 665q46.5 89 134.5 157q-34 51 -53.5 111.5t-19.5 117.5q0 80 31.5 152t88.5 127q58 56 132.5 87t154.5 31q78 0 153 -31t134 -87q58 -55 90 -128t32 -151q0 -61 -21 -122.5t-57 -106.5q87 -67 133.5 -158.5t46.5 -197.5q0 -101 -36.5 -189.5t-104.5 -154.5
q-70 -67 -165 -103.5t-205 -36.5q-111 0 -206 35.5t-165 102.5q-70 66 -107 155.5t-37 194.5q0 106 46.5 195zM529.5 964.5q29.5 -29.5 73.5 -29.5q42 0 72.5 30t30.5 72t-30.5 72.5t-72.5 30.5t-72.5 -30.5t-30.5 -72.5q0 -43 29.5 -72.5zM483 354q22 -23 52.5 -36
t66.5 -13q33 0 62.5 13t50.5 36q45 50 45 121q0 34 -11 65.5t-31 55.5q-46 51 -116 51q-74 0 -120 -52q-22 -24 -33.5 -55.5t-11.5 -65.5q0 -70 46 -120z" />
    <glyph glyph-name="nine" unicode="9" horiz-adv-x="1239" 
d="M1157 860q-11 -130 -81 -239l-277 -513q-27 -51 -84 -80t-128 -29l-220 1l202 370q-107 10 -201.5 60t-161.5 132q-61 73 -93.5 162t-32.5 184l2 47q10 108 59.5 202.5t131.5 163.5q72 61 161.5 93.5t186.5 32.5l46 -2q107 -9 202 -58.5t164 -131.5q61 -72 93.5 -162
t32.5 -187zM819 980.5q-13 35.5 -36 63.5q-29 35 -71.5 55t-90.5 20q-66 0 -115.5 -33.5t-75.5 -87.5q-20 -46 -20 -90q0 -52 27.5 -101t74.5 -79q47 -31 109 -31q38 0 73 13t63 37q36 31 55.5 72t19.5 89q0 37 -13 72.5z" />
    <glyph glyph-name="colon" unicode=":" horiz-adv-x="424" 
d="M369.5 936q-14.5 -34 -39.5 -59t-58.5 -38.5t-71.5 -13.5q-37 0 -71 13.5t-60 38.5q-26 24 -40.5 57t-14.5 71t14.5 71t40.5 57q26 25 60 38.5t71 13.5q38 0 71.5 -13.5t58.5 -38.5t39.5 -58.5t14.5 -69.5q0 -35 -14.5 -69zM370.5 96q-14.5 -34 -39.5 -59t-58.5 -38.5
t-71.5 -13.5q-37 0 -71 13.5t-60 38.5q-26 24 -40.5 57t-14.5 71t14.5 71t40.5 57q26 25 60 38.5t71 13.5q38 0 71.5 -13.5t58.5 -38.5t39.5 -58.5t14.5 -69.5q0 -35 -14.5 -69z" />
    <glyph glyph-name="semicolon" unicode=";" horiz-adv-x="424" 
d="M371.5 943q-14.5 -34 -39.5 -59t-58.5 -38.5t-71.5 -13.5q-37 0 -71 13.5t-60 38.5q-26 24 -40.5 57t-14.5 71t14.5 71t40.5 57q26 25 60 38.5t71 13.5q38 0 71.5 -13.5t58.5 -38.5t39.5 -58.5t14.5 -69.5q0 -35 -14.5 -69zM28.5 238q14.5 33 39.5 58t58.5 38.5
t70.5 13.5q36 0 70 -14t59 -38q25 -25 39.5 -58t14.5 -68q0 -106 -57 -210.5t-168 -199.5l-43 41q-18 17 -25.5 34t-7.5 38q0 14 5 26.5t17 33.5q15 23 21 36.5t9 30.5q-57 24 -87 68t-30 102q0 35 14.5 68z" />
    <glyph glyph-name="less" unicode="&#x3c;" horiz-adv-x="1160" 
d="M119 726q0 112 131 178l758 327v-188q0 -41 -24 -83.5t-68 -77.5q-46 -36 -99 -55l-89 -35q-71 -29 -144 -62l-79 -35q-14 -8 -43 -15l-30 -8l30 -8l24 -7l18 -8l299 -131q205 -88 205 -216v-189l-758 327q-66 30 -98.5 73t-32.5 106v107z" />
    <glyph glyph-name="equal" unicode="=" horiz-adv-x="1160" 
d="M1006 773h-854v292h854v-292zM1006 269h-854v292h854v-292z" />
    <glyph glyph-name="greater" unicode="&#x3e;" horiz-adv-x="1160" 
d="M1035 619q0 -63 -32.5 -106t-98.5 -73l-758 -327v189q0 128 205 216l299 131q3 3 18.5 8t23.5 7l30 8q-26 6 -54 15q-15 5 -19 8l-29 13q-22 9 -49 22l-19 8q-91 40 -126 54l-89 35q-55 20 -98.5 55t-67.5 78q-25 41 -25 83v188l758 -327q131 -66 131 -178v-107z" />
    <glyph glyph-name="question" unicode="?" horiz-adv-x="888" 
d="M9 1138q75 153 182 229.5t267 76.5q225 0 338 -77q122 -87 122 -274q0 -162 -137 -281q-97 -85 -126 -122q-37 -46 -37 -88v-86h-292v58q0 159 76 259q21 29 45.5 51t76.5 60l5 4q4 2 6 4l8 5q41 30 58 53t17 51q0 31 -4 49.5t-15 33.5q-27 37 -112 37q-27 0 -69.5 -15.5
t-62.5 -33.5l-15 -14q-24 -26 -53.5 -40t-58.5 -14q-43 0 -103 21zM643.5 96q-14.5 -34 -39.5 -59t-58.5 -38.5t-71.5 -13.5q-37 0 -71 13.5t-60 38.5q-26 24 -40.5 57t-14.5 71t14.5 71t40.5 57q26 25 60 38.5t71 13.5q38 0 71.5 -13.5t58.5 -38.5t39.5 -58.5t14.5 -69.5
q0 -35 -14.5 -69z" />
    <glyph glyph-name="at" unicode="@" horiz-adv-x="1669" 
d="M1139 623l-6 -39l-10 -65l-6 -39l-4 -30q-1 -3 -1 -14q0 -12 -4 -13q51 0 96.5 23.5t79.5 66.5q30 38 46.5 82.5t16.5 83.5q0 133 -54 229t-160 147t-262 51q-152 0 -276.5 -77.5t-196.5 -211.5q-33 -60 -50 -126.5t-17 -133.5q0 -140 76 -264t203 -197q60 -35 126 -54
t132 -19q86 0 178.5 23.5t183.5 66.5q18 11 44 17t53 6q39 0 80 -23t65 -56l45 -60l-27 -21q-88 -63 -202.5 -114t-247.5 -78q-91 -17 -172 -17q-102 0 -201.5 27t-189.5 79t-164 123.5t-127 158.5q-55 91 -84.5 193t-29.5 209q0 221 114 408q53 89 127 162t164 125
q91 52 191.5 79.5t202.5 27.5q90 0 180 -22t172 -63q171 -89 272 -236q109 -163 109 -359q0 -98 -36 -192.5t-101 -169.5q-70 -81 -162.5 -124t-196.5 -43q-98 0 -152 56q-24 27 -32 56q-57 -43 -117.5 -68.5t-110.5 -25.5q-120 0 -184 72.5t-64 207.5q0 119 52.5 218
t149.5 165q82 57 193.5 87t242.5 30q65 0 101 -4zM886 577l33 141q-108 -22 -171 -96q-29 -32 -43 -73.5t-12 -82.5q1 -28 13 -43t31 -15q118 0 149 169z" />
    <glyph glyph-name="A" unicode="A" horiz-adv-x="1624" 
d="M671 1433h282l626 -1433h-211q-66 0 -121.5 35t-79.5 92l-70 159h-570l-68 -159q-22 -53 -80 -90t-122 -37h-212zM658 583h306l-125 300q-14 32 -22 71q-3 9 -5 30q-5 -36 -14 -63l-14 -38z" />
    <glyph glyph-name="B" unicode="B" horiz-adv-x="1374" 
d="M133 0v1433h634q89 0 170 -33.5t142 -93.5q61 -61 95 -141t34 -167q0 -30 -9.5 -68t-26.5 -70q-41 -86 -97 -97q82 -10 139 -114q26 -46 41 -100.5t15 -103.5q0 -90 -34.5 -172t-97.5 -143q-63 -62 -145 -95.5t-173 -33.5zM460 1106v-216h319q43 0 73 31t30 76
q0 22 -8 42t-22 35q-30 32 -73 32h-319zM832 327q29 0 55 16.5t41 44.5q15 27 15 58q0 48 -32.5 82t-77.5 34h-373v-235h372z" />
    <glyph glyph-name="C" unicode="C" horiz-adv-x="1409" 
d="M341 563.5q32 -73.5 90 -131.5q57 -57 131.5 -87.5t155.5 -30.5q119 0 226 72q53 36 120 36q49 0 86.5 -15.5t70.5 -48.5l85 -85q-130 -138 -281.5 -212t-306.5 -74q-98 0 -192.5 25.5t-178.5 74.5q-82 47 -149 113.5t-115 147.5q-49 82 -75 176.5t-26 192.5t26 192.5
t75 176.5q48 81 115 147.5t149 114.5q85 48 179 73.5t192 25.5q155 0 306.5 -74t281.5 -212l-85 -85q-65 -65 -157 -65q-68 0 -120 37q-107 72 -226 72q-80 0 -153.5 -30.5t-133.5 -87.5q-58 -58 -90 -131.5t-32 -153.5t32 -153.5z" />
    <glyph glyph-name="D" unicode="D" horiz-adv-x="1580" 
d="M174 0v1433h593q98 0 190.5 -25t173.5 -73q110 -65 190.5 -160.5t124.5 -213t44 -245.5q0 -194 -99 -361q-47 -80 -113.5 -145.5t-146.5 -111.5q-82 -48 -175 -73t-189 -25h-593zM767 328q77 0 148 29.5t129 84.5q57 55 87.5 126t30.5 148t-30.5 147.5t-87.5 127.5
q-55 54 -127 84t-150 30h-266v-777h266z" />
    <glyph glyph-name="E" unicode="E" horiz-adv-x="1233" 
d="M1128 0h-954v1433h954v-306h-627v-251h510v-306h-510v-264h627v-306z" />
    <glyph glyph-name="F" unicode="F" horiz-adv-x="1203" 
d="M1026 851v-306h-525v-545h-327v1433h954v-306h-627v-276h525z" />
    <glyph glyph-name="G" unicode="G" horiz-adv-x="1520" 
d="M1382 804v-623q-99 -102 -235 -148t-320 -46q-99 0 -193.5 25.5t-176.5 74.5q-168 99 -264 261q-49 82 -75 176.5t-26 192.5t26 192.5t75 176.5q47 80 114.5 147t149.5 115t176.5 73.5t193.5 25.5q155 0 309 -75t278 -210l-83 -86q-62 -65 -157 -65q-69 0 -121 37
q-110 72 -226 72q-80 0 -154 -30.5t-132 -87.5t-90 -131t-32 -154q0 -83 33 -157t94 -131q58 -55 133.5 -85t157.5 -30q58 0 115 11.5t102 32.5v138q-94 1 -156 57q-61 55 -61 136v115h545z" />
    <glyph glyph-name="H" unicode="H" horiz-adv-x="1639" 
d="M1464 0h-327v567h-637v-567h-326v1433h326v-560h637v560h327v-1433z" />
    <glyph glyph-name="I" unicode="I" horiz-adv-x="747" 
d="M538 0h-328v1433h328v-1433z" />
    <glyph glyph-name="J" unicode="J" horiz-adv-x="1084" 
d="M677 1433h327v-842q0 -413 -310 -539q-120 -47 -261 -47q-106 0 -202.5 42t-185.5 128l94 94q33 33 70.5 48t83.5 15q34 0 74 -15q41 -15 66 -15q97 0 160 54q84 74 84 235v842z" />
    <glyph glyph-name="K" unicode="K" horiz-adv-x="1516" 
d="M520 0h-327v1433h327v-1433zM1003 1322q33 49 79.5 80t91.5 31h294l-430 -653q-11 -16 -27 -27.5t-28 -15.5l8 -3q28 -16 47 -41l460 -693h-294q-54 0 -94 27t-79 86l-373 561q-21 32 -48 48l-12 7l-8 4q-8 3 -9 4l9 3q21 8 39.5 24.5t28.5 34.5z" />
    <glyph glyph-name="L" unicode="L" horiz-adv-x="1064" 
d="M111 0v1433h327v-1127h566v-306h-893z" />
    <glyph glyph-name="M" unicode="M" horiz-adv-x="2011" 
d="M1838 0h-327v956l-361 -956h-283l-368 956v-956h-327v1433h358q66 0 125 -35q27 -17 46.5 -41t29.5 -51l251 -717q7 -22 14 -56t11 -62q2 38 13 82q4 16 11 36l249 717q9 29 30 53.5t49 40.5q57 33 123 33h356v-1433z" />
    <glyph glyph-name="N" unicode="N" horiz-adv-x="1690" 
d="M1512 0h-325l-685 991v-991h-326v1433h322q103 0 142 -57l501 -734q14 -21 33 -70q6 -13 9 -29l3 -15v905h326v-1433z" />
    <glyph glyph-name="O" unicode="O" horiz-adv-x="1656" 
d="M118 909.5q26 94.5 75 176.5q48 81 115 147.5t149 114.5q85 48 179 73.5t192 25.5t192 -25.5t179 -73.5q82 -48 149 -114.5t115 -147.5q49 -82 75 -176.5t26 -192.5t-26 -192.5t-75 -176.5q-48 -81 -115 -147.5t-149 -113.5q-84 -49 -178.5 -74.5t-192.5 -25.5
q-202 0 -371 100q-82 47 -149 113.5t-115 147.5q-49 82 -75 176.5t-26 192.5t26 192.5zM451 563.5q32 -73.5 90 -131.5q57 -57 131.5 -87.5t155.5 -30.5t155.5 31t131.5 87q58 58 90 131.5t32 153.5t-32 153.5t-90 131.5q-58 55 -133.5 86.5t-153.5 31.5q-80 0 -153.5 -30.5
t-133.5 -87.5q-58 -58 -90 -131.5t-32 -153.5t32 -153.5z" />
    <glyph glyph-name="P" unicode="P" horiz-adv-x="1356" 
d="M527 0h-327v1433h578q96 0 185 -38.5t158 -110.5q67 -70 104 -161.5t37 -187.5t-37 -187t-104 -161q-69 -72 -158 -111t-185 -39h-251v-437zM779 765q56 0 108 54q22 25 34.5 55.5t12.5 60.5t-12.5 60.5t-34.5 55.5q-52 54 -108 54h-252v-340h252z" />
    <glyph glyph-name="Q" unicode="Q" horiz-adv-x="1656" 
d="M1042 22q-132 -35 -213 -35q-101 0 -195 25.5t-176 74.5q-82 47 -149.5 113.5t-115.5 147.5q-49 82 -75 176.5t-26 192.5t26 192.5t75 176.5q48 81 115.5 147.5t149.5 114.5t177 73.5t194 25.5q98 0 192 -25.5t179 -73.5q82 -48 149 -115t115 -147q100 -172 100 -369
q0 -126 -42 -244t-120 -214l393 -532h-269q-143 0 -223 111l-350 487q62 29 114.5 72.5t90.5 96.5q38 52 58.5 109.5t20.5 113.5q0 80 -32 153.5t-90 131.5q-60 57 -134 87.5t-152 30.5q-80 0 -154 -30.5t-134 -87.5q-58 -58 -90 -131.5t-32 -153.5t32 -153t90 -131
q58 -57 131.5 -88t154.5 -31z" />
    <glyph glyph-name="R" unicode="R" horiz-adv-x="1412" 
d="M520 0h-327v1433h562q147 0 263.5 -71t179.5 -194q57 -111 57 -232q0 -126 -57 -233t-169 -187l382 -516h-279q-36 0 -79 17q-68 29 -114 94l-240 325h-179v-436zM772 765q56 0 108 54q22 25 34.5 55.5t12.5 60.5t-12.5 60.5t-34.5 55.5q-52 54 -108 54h-252v-340h252z
" />
    <glyph glyph-name="S" unicode="S" horiz-adv-x="1171" 
d="M504.5 1097.5q-37.5 -21.5 -37.5 -58.5q0 -30 14.5 -48.5t50.5 -32.5q31 -13 81 -27q87 -25 150 -49t115 -55q139 -82 192 -218q27 -67 27 -152q0 -99 -41.5 -186t-119.5 -153q-75 -63 -171 -97t-198 -34q-85 0 -165.5 25.5t-147.5 73.5q-67 47 -117 111.5t-78 139.5
l104 60q52 31 111 31q35 0 65 -12t80 -45t80.5 -45t67.5 -12q33 0 68 9.5t64 27.5q70 42 70 106q0 30 -16 51.5t-52 39.5q-16 8 -73 28q-169 52 -284.5 120.5t-168.5 171.5q-36 69 -36 172q0 91 37 168t107 132q65 52 148.5 79.5t171.5 27.5q110 0 218.5 -64.5t206.5 -181.5
l-101 -85q-29 -26 -60.5 -37t-74.5 -11q-27 0 -49 6t-52 20q-40 16 -54.5 20.5t-33.5 4.5q-61 0 -98.5 -21.5z" />
    <glyph glyph-name="T" unicode="T" horiz-adv-x="1215" 
d="M44 1128v306h1124v-306h-398v-1128h-327v1128h-399z" />
    <glyph glyph-name="U" unicode="U" horiz-adv-x="1494" 
d="M483 577q0 -53 21 -101t60 -85q37 -37 86 -57.5t102 -20.5q52 0 100.5 20.5t88.5 57.5q39 37 60 85t21 101v856h327v-856q0 -120 -45.5 -228t-129.5 -190q-84 -84 -193 -128.5t-229 -44.5q-107 0 -205.5 36.5t-178 102.5t-131.5 154q-82 136 -82 298v856h328v-856z" />
    <glyph glyph-name="V" unicode="V" horiz-adv-x="1502" 
d="M1107 1306q25 59 79.5 93t121.5 34h212l-626 -1433h-282l-626 1433h211q62 0 120 -36.5t82 -90.5l326 -749q7 -16 12 -35q10 -44 15 -77q1 29 13 74q3 18 13 36z" />
    <glyph glyph-name="W" unicode="W" horiz-adv-x="2067" 
d="M1057 395l-172 -395h-284l-625 1433h210q63 0 120 -36.5t81 -90.5l332 -757q11 -27 19 -63q3 -10 5 -32q1 17 13 63q5 21 11 32l293 674l166 -442l93 -232q12 -27 17 -64q3 -16 3 -31q0 22 9 62q4 16 12 33l332 757q12 28 33 52t48 40q59 35 121 35h211l-625 -1433h-283z
" />
    <glyph glyph-name="X" unicode="X" horiz-adv-x="1612" 
d="M1055 773q-11 -17 -15 -32l-2 -13q0 -8 3 -17q7 -22 14 -31q60 -84 234 -317l20 -27q65 -89 129 -174l119 -162h-267q-140 0 -223 111l-233 314q-15 20 -29 64q-13 -43 -28 -64l-227 -312q-83 -113 -225 -113h-270l499 675q13 13 16 29q3 11 3 17v5q0 22 -20 51l-485 656
h270q72 0 129.5 -28.5t92.5 -82.5l218 -298q13 -19 21 -41l4 -9q1 -5 4 -11q22 55 26 61l217 296q74 113 225 113h268z" />
    <glyph glyph-name="Y" unicode="Y" horiz-adv-x="1505" 
d="M917 0h-327v608q0 17 -10 37.5t-33 52.5l-544 735h267q140 0 223 -111l227 -308q18 -27 26 -50l7 -23q12 44 33 73l226 306q74 113 224 113h269l-545 -737q-25 -33 -34 -51.5t-9 -36.5v-608z" />
    <glyph glyph-name="Z" unicode="Z" horiz-adv-x="1298" 
d="M526 269q37 37 82 37h603v-306h-1122v149q0 94 60 163l612 815h-637v307h1099v-149q0 -40 -12.5 -80t-35.5 -70z" />
    <glyph glyph-name="bracketleft" unicode="[" horiz-adv-x="793" 
d="M142 1533h495l-34 -291h-170v-1240h170l34 -291h-495v1822z" />
    <glyph glyph-name="backslash" unicode="\" horiz-adv-x="855" 
d="M984 -89h-173q-66 0 -121 35t-79 92l-629 1435h196q58 0 106 -34.5t73 -93.5z" />
    <glyph glyph-name="bracketright" unicode="]" horiz-adv-x="731" 
d="M591 -289h-495l34 291h170v1240h-170l-34 291h495v-1822z" />
    <glyph glyph-name="asciicircum" unicode="^" horiz-adv-x="1172" 
d="M598 1447q65 0 121 -36t80 -91l226 -526h-173q-88 0 -134 43q-23 18 -33 43q-8 10 -26 59q-14 37 -37 113l-14 44q-7 21 -7 25l-12 49l-12 -49l-7 -24q-12 -42 -31 -98.5t-33 -92.5q-7 -19 -12 -24q-23 -43 -65 -65.5t-93 -22.5h-184l227 526q24 57 79.5 92t121.5 35h18z
" />
    <glyph glyph-name="underscore" unicode="_" horiz-adv-x="788" 
d="M790 -345h-790v291h790v-291z" />
    <glyph glyph-name="grave" unicode="`" horiz-adv-x="813" 
d="M152 1522h249q116 0 167 -66l14 -20l28 -49l128 -227h-190q-115 0 -168 69z" />
    <glyph glyph-name="a" unicode="a" horiz-adv-x="1139" 
d="M174 848q35 53 76 97q21 21 47 40q122 80 283 80q176 0 276 -70t139 -210q28 -99 28 -261v-524h-259q-13 18 -21.5 47t-8.5 51q-49 -57 -111 -85t-128 -28q-83 0 -156.5 25t-127.5 71q-56 46 -86 110.5t-30 140.5q0 172 130 259t384 87q34 0 65 -11q11 -5 19 -11
q-2 69 -35.5 110.5t-87.5 41.5q-20 0 -38 -6t-53 -22q-34 -17 -53 -23t-41 -6q-55 0 -126 44zM595.5 271q51.5 13 100.5 39v156q-25 4 -90 4q-53 0 -100 -14.5t-75 -38.5q-28 -25 -28 -55q0 -18 6.5 -36.5t18.5 -33.5q27 -34 69 -34q47 0 98.5 13z" />
    <glyph glyph-name="b" unicode="b" horiz-adv-x="1285" 
d="M153 1433h327v-434q45 31 95 48.5t98 17.5q108 0 207.5 -41.5t174.5 -116.5t116.5 -174.5t41.5 -207.5q0 -107 -40.5 -205.5t-115.5 -174.5q-76 -76 -173.5 -118t-203.5 -42h-7q-65 0 -132 34q-31 14 -55 32t-37 36l-8 6q-4 -44 -17 -71q-6 -13 -12 -22h-259v1433z
M751.5 330q38.5 16 68.5 46t46 68t16 80t-16 80.5t-46 68.5t-68.5 46t-80.5 16q-61 0 -112 -33t-78 -89v-178q27 -55 78.5 -88t111.5 -33q42 0 80.5 16z" />
    <glyph glyph-name="c" unicode="c" horiz-adv-x="1087" 
d="M537.5 721.5q-38.5 -15.5 -68.5 -43.5q-33 -30 -50.5 -69t-17.5 -84t17.5 -84t50.5 -69q31 -28 70 -44t78 -16q24 0 44.5 5t60.5 19q34 13 58.5 18.5t51.5 5.5q81 0 148 -67l82 -83q-102 -109 -216.5 -167t-228.5 -58q-108 0 -206.5 41.5t-176.5 117.5q-76 76 -118 175
t-42 206t42 206.5t118 175.5t175 117t208 41q114 0 228.5 -58t216.5 -167l-82 -84q-61 -63 -153 -63q-48 0 -111 22q-36 12 -57.5 17t-41.5 5q-41 0 -79.5 -15.5z" />
    <glyph glyph-name="d" unicode="d" horiz-adv-x="1226" 
d="M1133 0h-259q-12 14 -20 42t-9 51l-8 -6q-13 -18 -37 -36t-54 -32q-68 -34 -133 -34h-7q-107 0 -205 42t-171 118q-75 76 -116 174.5t-41 205.5q0 108 41.5 207t117.5 175t174.5 117t206.5 41q48 0 98 -17.5t95 -48.5v434h327v-1433zM726.5 347q51.5 33 78.5 88v178
q-27 56 -78 89t-112 33q-87 0 -149 -62q-30 -30 -46 -68.5t-16 -80.5t16 -80t46 -68q65 -62 149 -62q60 0 111.5 33z" />
    <glyph glyph-name="e" unicode="e" 
d="M1078 446q-26 -20 -60 -30t-70 -10h-518q11 -35 33 -61t57 -47q35 -20 89 -20q23 0 40 5t68 24q40 16 63.5 22t49.5 6q45 0 80.5 -15t66.5 -46l83 -83q-93 -101 -207 -153.5t-238 -52.5q-108 0 -207.5 41.5t-175.5 117.5t-118 175t-42 206t42 206.5t118 175.5t175 117
t208 41q89 0 175.5 -32t159.5 -92q70 -58 120 -135t70 -160q5 -25 5 -65q0 -87 -67 -135zM809 640q-18 38 -43 64.5t-62 47.5q-38 20 -92 20q-93 0 -156 -75q-29 -40 -41 -74q28 17 50 17h344z" />
    <glyph glyph-name="f" unicode="f" horiz-adv-x="730" 
d="M173 0v745h-151v185q0 37 4.5 56t18.5 33q28 31 123 31h5v85q0 69 21.5 126.5t62.5 99.5q42 43 100 65.5t127 22.5q30 0 72 -11.5t86 -31.5q45 -20 85 -46t67 -53l-50 -82q-26 -42 -64 -61t-96 -19q-1 0 -26 5q-13 4 -29 4q-17 0 -24 -9.5t-7 -28.5v-21q0 -34 1 -43h194
v-307h-193v-745h-327z" />
    <glyph glyph-name="g" unicode="g" horiz-adv-x="1124" 
d="M1086 874q-47 -42 -103 -38q12 -39 22 -90t10 -82q0 -78 -30 -152.5t-84 -131.5q-58 -61 -135 -94.5t-163 -33.5q-45 0 -89.5 10t-80.5 28q-1 0 -9 -6q-17 -15 -29 -36.5t-12 -37.5q0 -20 16.5 -29t50.5 -9q36 0 112 10t133 10q93 0 178.5 -35t134.5 -97q60 -77 60 -186
q0 -56 -27.5 -119.5t-76.5 -117.5q-57 -63 -131.5 -97t-160.5 -34q-112 0 -297 59q-87 30 -149 54l-131 51l69 146q18 37 55.5 61t81.5 24q26 0 55 -7.5t93 -29.5q57 -20 95.5 -29t75.5 -9q53 0 90 22q16 10 25.5 22.5t9.5 25.5q0 23 -34 42q-34 18 -115 18q-41 0 -88 -3
q-46 -3 -92 -3q-261 0 -261 233q0 19 9.5 46t26.5 56q41 72 98 108q-50 68 -73 131t-23 129q0 83 30.5 158.5t87.5 132.5q55 58 130 89.5t159 31.5q101 0 205 -56q21 9 65 15t84 6q68 0 140 -25q32 -11 57 -24q-18 -65 -65 -107zM493 610q9 -21 25 -36q31 -34 80 -34
q47 0 81 34q16 15 25 36t9 44q0 24 -9 45.5t-25 37.5q-34 34 -81 34q-46 0 -80 -34q-16 -16 -25 -37.5t-9 -45.5q0 -23 9 -44z" />
    <glyph glyph-name="h" unicode="h" horiz-adv-x="1260" 
d="M407 1433q35 -35 56 -87q10 -21 10 -58v-320q15 20 42 38.5t60 31.5q73 27 121 27q93 0 170 -33.5t132 -96.5q55 -64 85 -153.5t30 -194.5v-587h-327v573q0 50 -14.5 89t-39.5 60t-56 21q-69 0 -134 -33q-31 -15 -49.5 -36t-19.5 -42v-632h-327v1433h261z" />
    <glyph glyph-name="i" unicode="i" horiz-adv-x="657" 
d="M151 1405q15 32 42 54q26 22 62 34t75 12t75 -12t62 -34q27 -22 42 -54t15 -70t-15 -70t-42 -54q-26 -22 -62 -34t-75 -12t-75 12t-62 34q-27 22 -42 54t-15 70t15 70zM494 1050v-1050h-328v1050h328z" />
    <glyph glyph-name="j" unicode="j" horiz-adv-x="653" 
d="M151 1405q15 32 42 54q26 22 62 34t75 12t75 -12t62 -34q27 -22 42 -54t15 -70t-15 -70t-42 -54q-26 -22 -62 -34t-75 -12t-75 12t-62 34q-27 22 -42 54t-15 70t15 70zM492 1050v-976q0 -150 -99 -267t-278 -190l-57 127q-7 16 -11.5 40t-4.5 44q0 24 10.5 48t34.5 54
l37 45q31 40 39 86l2 35v954h327z" />
    <glyph glyph-name="k" unicode="k" horiz-adv-x="1240" 
d="M479 0h-327v1433h327v-1433zM788 937q17 47 73.5 80t117.5 33h219l-242 -466q-17 -20 -36 -31l-16 -9l-10 -3l9 -3q34 -15 53 -40l267 -498h-219q-71 0 -120 28.5t-73 84.5l-200 366q-8 15 -28 33t-38 29q29 14 50 37q12 12 16 25z" />
    <glyph glyph-name="l" unicode="l" horiz-adv-x="661" 
d="M494 1433v-1433h-328v1433h328z" />
    <glyph glyph-name="m" unicode="m" horiz-adv-x="1791" 
d="M1484 1025q75 -38 124 -111q42 -62 64.5 -147t22.5 -182v-585h-330v574q0 76 -21.5 122t-64.5 46q-35 0 -70 -9t-63 -24q-30 -16 -46.5 -36t-16.5 -40v-633h-327v584q0 28 -5 56t-15 49q-23 51 -63 51q-35 0 -70.5 -8t-64.5 -23q-30 -16 -47 -35.5t-17 -40.5v-633h-327
v1050h257q12 -15 20.5 -43.5t9.5 -54.5q37 57 112.5 84t177.5 27q78 0 130 -25.5t102 -85.5q55 48 170 82q47 14 96.5 21.5t90.5 7.5q96 0 171 -38z" />
    <glyph glyph-name="n" unicode="n" horiz-adv-x="1260" 
d="M394 1050q20 -21 30.5 -56t10.5 -77q0 -22 -1 -26q12 33 41.5 65t69.5 56q43 25 90.5 39t93.5 14q92 0 166 -33t126 -97q51 -63 78 -151.5t27 -196.5v-587h-327v572q0 101 -37 141q-27 28 -71 28q-43 0 -82.5 -10t-69.5 -28q-66 -40 -66 -104v-599h-327v1050h248z" />
    <glyph glyph-name="o" unicode="o" horiz-adv-x="1226" 
d="M113.5 732q41.5 99 117.5 175t174.5 117t206.5 41t207.5 -41.5t174.5 -116.5t116.5 -174.5t41.5 -207.5t-41 -206.5t-117 -174.5t-175 -117.5t-207 -41.5q-107 0 -206 41.5t-175 117.5t-117.5 175t-41.5 206q0 108 41.5 207zM416 444q16 -38 46 -68t68 -46t80 -16
t80.5 16t68.5 46t46 68t16 80t-16 80.5t-46 68.5t-68.5 46t-80.5 16t-80 -16t-68 -46t-46 -68.5t-16 -80.5t16 -80z" />
    <glyph glyph-name="p" unicode="p" horiz-adv-x="1288" 
d="M153 1051h259q12 -18 20 -44.5t9 -48.5l8 6q17 24 55 48t83 39q47 15 86 15h7q106 0 203.5 -42t173.5 -118q75 -76 115.5 -174.5t40.5 -205.5q0 -108 -41 -206.5t-117 -174.5t-175 -117.5t-207 -41.5q-48 0 -98 17.5t-95 48.5v-392h-327v1391zM559.5 704
q-51.5 -33 -78.5 -88v-178q27 -56 78 -89t112 -33q42 0 80.5 16t68.5 46q62 62 62 149q0 42 -16 80.5t-46 68.5q-30 29 -68.5 45t-80.5 16q-60 0 -111.5 -33z" />
    <glyph glyph-name="q" unicode="q" horiz-adv-x="1294" 
d="M1133 -340h-327v392q-45 -31 -95 -48.5t-98 -17.5q-107 0 -206 41.5t-175 117.5t-117.5 175t-41.5 206t41 205.5t116 174.5q73 76 171 118t205 42h7q63 0 133 -33q65 -34 91 -69l8 -6q4 44 17 71q4 13 12 22h259v-1391zM466 676q-30 -30 -46 -68.5t-16 -80.5
q0 -57 28.5 -105t77.5 -77t105 -29q61 0 112 33t78 89v178q-27 55 -78.5 88t-111.5 33q-88 0 -149 -61z" />
    <glyph glyph-name="r" unicode="r" horiz-adv-x="894" 
d="M400 1050q21 -22 28 -62q5 -18 3 -36q26 51 91 81t131 30q83 0 219 -53l-23 -132q-12 -67 -64 -101t-133 -34q-67 0 -120 -32q-25 -15 -41 -34t-20 -37v-640h-327v1050h256z" />
    <glyph glyph-name="s" unicode="s" horiz-adv-x="914" 
d="M173 333q53 27 104 27q34 0 65 -22l69 -48q9 -6 22.5 -9.5t25.5 -3.5q25 0 46.5 17.5t21.5 40.5v5q-2 22 -23 35q-17 11 -82 35q-78 28 -126.5 53t-84.5 57q-98 86 -98 223q0 66 29 124.5t83 103.5q52 43 116.5 67.5t128.5 24.5q73 0 144.5 -33t146.5 -96l38 -37l18 -22
l-74 -79q-35 -28 -59 -39t-51 -11q-25 0 -49 12l-13 6q-25 10 -41.5 13.5t-42.5 3.5t-42.5 -15.5t-16.5 -37.5q0 -23 17.5 -36t52.5 -20q94 -24 155.5 -47t108 -60t67.5 -93q19 -47 19 -122q0 -71 -28.5 -137t-80.5 -117q-54 -52 -126.5 -80.5t-153.5 -28.5q-57 0 -114.5 20
t-109.5 57t-96.5 91t-77.5 120z" />
    <glyph glyph-name="t" unicode="t" horiz-adv-x="782" 
d="M505 744v-374q0 -34 14.5 -49.5t39.5 -15.5l20 2l15 2q88 0 160 -87q29 -35 50 -86q-59 -59 -155 -103q-47 -21 -88.5 -33.5t-70.5 -12.5q-141 0 -228 89q-41 42 -63 99.5t-22 125.5v443h-150v164q0 59 38 94.5t112 45.5v186q0 66 40 127q14 21 41 48h247v-358h250v-307
h-250z" />
    <glyph glyph-name="u" unicode="u" 
d="M1093 1050v-1050h-248q-20 21 -30.5 56t-10.5 77v13q0 10 1 12q-13 -34 -41.5 -65t-69.5 -56q-42 -25 -89.5 -38.5t-94.5 -13.5q-92 0 -166 33t-126 97q-51 63 -78 151.5t-27 196.5v587h327v-572q0 -99 38 -140q27 -29 70 -29t82.5 10t69.5 29q66 41 66 103v599h327z" />
    <glyph glyph-name="v" unicode="v" horiz-adv-x="1170" 
d="M-35 1050h210q63 0 117.5 -33.5t77.5 -89.5l191 -476q12 -30 15 -50q3 -19 3 -28v-5q1 16 6.5 42.5t11.5 40.5l193 477q24 56 77.5 89.5t117.5 33.5h208l-427 -1051h-375z" />
    <glyph glyph-name="w" unicode="w" horiz-adv-x="1813" 
d="M-25 1050h210q63 0 117.5 -33.5t77.5 -89.5l191 -476q12 -30 16 -52l2 -26q0 44 18 78l318 600l296 -600q12 -28 16 -52l2 -26q0 35 18 78l193 477q24 56 77.5 89.5t117.5 33.5h208l-427 -1051h-375l-126 399l-149 -399h-375z" />
    <glyph glyph-name="x" unicode="x" horiz-adv-x="1375" 
d="M1290 1050l-348 -475q-8 -13 -11 -20l-2 -10q0 -16 13 -32l378 -513h-298q-34 0 -64.5 15.5t-62.5 50.5q-31 33 -72 87t-112 155q-15 18 -20 39q-3 9 -3 16q0 -14 -4 -24t-19 -32q-87 -119 -116 -157q-82 -106 -137 -134q-31 -16 -65 -16h-292l375 509q13 21 14 24l2 10
q0 11 -6 21l-8 12l-3 4l-11 15l-30 42l-304 413h297q33 0 62.5 -15t62.5 -48q30 -30 68 -80t95 -137q9 -11 14 -26.5t5 -23.5q0 10 6 24.5t14 25.5q36 52 64 102q30 57 60.5 94t66.5 60q38 24 95 24h296z" />
    <glyph glyph-name="y" unicode="y" horiz-adv-x="1202" 
d="M15 1050h215q66 0 121.5 -35.5t73.5 -91.5l129 -328q28 -66 28 -123l-2 -24l-2 -8l189 486q23 57 76 90.5t118 33.5h217l-572 -1310q-22 -59 -77 -94q-26 -17 -57 -26t-62 -9h-216l223 515z" />
    <glyph glyph-name="z" unicode="z" horiz-adv-x="989" 
d="M515 277q17 12 45 24q17 5 24 5h345v-306h-859v143q0 90 57 157q107 142 171 233q85 124 153 211h-379v306h847v-142q0 -78 -48 -146z" />
    <glyph glyph-name="braceleft" unicode="{" horiz-adv-x="685" 
d="M86 753q36 0 66.5 14.5t39.5 40.5q10 26 10 61q0 22 -4.5 44t-17.5 70q-23 80 -23 141q0 119 43 208.5t130 145.5q56 36 107.5 51t114.5 15l12 -76l7 -45l3 -23v-13q0 -55 -40 -104q-12 -16 -33 -35q-18 -16 -28.5 -30t-16.5 -31q-13 -33 -13 -70q-1 -5 -1 -25
q0 -35 5.5 -58t23.5 -70q15 -41 21.5 -75t6.5 -83q0 -64 -10.5 -107.5t-34.5 -73.5q26 -31 36.5 -73.5t10.5 -104.5q0 -68 -15 -122q-6 -22 -14 -39q-14 -30 -21.5 -63.5t-7.5 -63.5q0 -98 31 -129q12 -12 28 -26q72 -62 72 -140v-13l-3 -24l-7 -45l-12 -74h-8q-14 0 -17 1
h-24q-66 17 -103 30.5t-70 35.5q-88 59 -130.5 146t-42.5 205q0 35 5.5 66.5t18.5 75.5q2 8 9 33t11 45q3 20 3 36q0 81 -64 105q-23 10 -54 10v256z" />
    <glyph glyph-name="bar" unicode="|" horiz-adv-x="600" 
d="M210 1578h290v-1866h-290v1866z" />
    <glyph glyph-name="braceright" unicode="}" horiz-adv-x="745" 
d="M624 497q-35 0 -66 -14.5t-40 -40.5q-12 -28 -12 -60q0 -19 5 -41q6 -27 19 -73q13 -48 18 -79t5 -63q0 -118 -42.5 -205t-130.5 -146q-33 -22 -70 -35.5t-103 -30.5h-25q-3 -1 -16 -1h-8l-12 74l-6 45q-3 16 -3 24q-1 2 -1 13q0 58 39 106q22 26 33 34q28 24 38 39
t15 44q6 36 6 72q0 46 -15 91q-12 33 -14 36q-14 28 -21.5 72.5t-7.5 88.5q0 62 10.5 104.5t36.5 73.5q-24 30 -34.5 73.5t-10.5 107.5q0 49 6.5 83t22.5 75q17 45 22.5 69t5.5 59q0 44 -7 74.5t-25 53.5q-6 9 -27 28q-36 31 -54.5 67.5t-18.5 71.5q0 11 1 13q0 7 3 23l6 45
l12 76q64 0 116.5 -15.5t106.5 -51.5q86 -56 129 -145.5t43 -207.5q0 -34 -5 -64.5t-17 -76.5q-13 -42 -18 -66.5t-5 -47.5q0 -42 13 -67t48 -39q24 -10 55 -10v-256z" />
    <glyph glyph-name="asciitilde" unicode="~" horiz-adv-x="1253" 
d="M110 516q36 78 101.5 151t144.5 110q50 23 107 27h17q42 0 84.5 -9.5t98.5 -30.5l21 -8q48 -18 73 -25q20 -7 42 -7q20 0 34 6t33 21q36 29 67 41t64 12h21l18 -1l42 -7l84 -15l-6 -28q-25 -86 -35 -111q-11 -32 -27 -56q-47 -76 -119.5 -115.5t-162.5 -39.5
q-39 0 -81.5 9t-99.5 30l-21 7q-45 15 -79 25q-25 6 -45 6q-17 0 -31.5 -7t-34.5 -24q-18 -17 -30 -25t-26 -13q-16 -6 -43 -6q-19 0 -23 1q-58 5 -204 46q7 19 16 36z" />
    <glyph glyph-name="exclamdown" unicode="&#xa1;" horiz-adv-x="766" 
d="M559.5 861q-14.5 -34 -39.5 -59t-58.5 -38.5t-71.5 -13.5q-37 0 -71 13.5t-60 38.5q-26 24 -40.5 57t-14.5 71t14.5 71t40.5 57q26 25 60 38.5t71 13.5q38 0 71.5 -13.5t58.5 -38.5t39.5 -58.5t14.5 -69.5q0 -35 -14.5 -69zM535 549v-887h-292v887h292z" />
    <glyph glyph-name="cent" unicode="&#xa2;" horiz-adv-x="1091" 
d="M507 1229h145v-169q108 -8 213.5 -65t196.5 -156l-82 -84q-61 -63 -153 -63q-48 0 -111 21q-62 21 -99 21q-41 0 -79.5 -15.5t-68.5 -42.5q-33 -30 -50.5 -69t-17.5 -83q0 -90 68 -152q30 -28 68.5 -43.5t79.5 -15.5q24 0 47 5t58 18q32 12 56.5 17.5t53.5 5.5
q81 0 148 -67l82 -83q-91 -99 -196.5 -156t-213.5 -65v-167h-145v176q-90 19 -170.5 67t-138.5 118q-60 72 -92 159.5t-32 182.5q0 94 32 182t92 160t139.5 119.5t169.5 65.5v178z" />
    <glyph glyph-name="sterling" unicode="&#xa3;" horiz-adv-x="1239" 
d="M889 747v-145h-340v-165q0 -87 -45 -131h643l32 -306h-1080v152q0 44 8.5 68t31.5 45q33 33 58 79.5t25 86.5v171h-132v145h132v225q0 96 37 183t105 154q66 66 154.5 102.5t186.5 36.5q68 0 135 -23t128 -66q123 -89 199 -233l-105 -56q-64 -34 -125 -34q-43 0 -79 14
t-71 42l-7 5q-35 23 -75 23q-30 0 -58 -11.5t-49 -31.5q-23 -22 -36 -49t-13 -56v-225h340z" />
    <glyph glyph-name="currency" unicode="&#xa4;" horiz-adv-x="1160" 
d="M208 773.5q17 54.5 48 109.5l-84 85l146 144l77 -80q49 25 108.5 41t109.5 16q91 0 215 -58l65 66l15 15l145 -145l-83 -85q28 -52 46.5 -110t18.5 -100q0 -48 -17.5 -109t-41.5 -105l80 -81l-144 -146l-82 81q-41 -22 -107.5 -39t-109.5 -17q-47 0 -110 17t-106 39
l-81 -82l-145 145l80 82q-25 47 -42.5 107.5t-17.5 107.5t17 101.5zM534 590.5q32 -33.5 79 -33.5q21 0 41.5 9t35.5 25q32 35 32 81q0 47 -32 82q-15 15 -35.5 24t-41.5 9q-46 0 -78.5 -33.5t-32.5 -81.5t32 -81.5z" />
    <glyph glyph-name="yen" unicode="&#xa5;" horiz-adv-x="1336" 
d="M325 544h181v64q0 17 -10 37.5t-33 52.5l-544 735h267q140 0 223 -111l227 -308q17 -24 24 -45l9 -27l8 26q6 17 25 46l226 306q74 113 224 113h269l-545 -737q-25 -33 -34 -51.5t-9 -36.5v-64h180v-145h-180v-66h180v-145h-180v-188h-327v188h-181v145h181v66h-181v145z
" />
    <glyph glyph-name="brokenbar" unicode="&#xa6;" horiz-adv-x="668" 
d="M210 1578h290v-798h-290v798zM210 510h290v-798h-290v798z" />
    <glyph glyph-name="section" unicode="&#xa7;" horiz-adv-x="1006" 
d="M918 515q-41 -76 -121 -107q102 -25 102 -198q0 -75 -30.5 -138.5t-87.5 -109.5q-53 -43 -121.5 -66t-141.5 -23q-97 0 -215 82q-48 33 -94 75.5t-79 84.5l64 49q27 22 61 35t67 13q26 0 48 -6.5t62 -24.5q40 -20 57 -26t37 -6q27 0 49.5 13t22.5 33q0 28 -39 52
q-39 23 -111 50l-26 10q-154 55 -228 141.5t-74 215.5q0 87 41.5 157.5t120.5 114.5q-55 19 -78.5 66.5t-23.5 122.5q0 74 30.5 138t87.5 110q53 43 121.5 66t141.5 23q47 0 103 -21.5t113 -61.5q96 -68 174 -161l-87 -63q-24 -19 -50.5 -26.5t-62.5 -7.5q-24 0 -45.5 7
t-53.5 23q-35 18 -52 24.5t-35 8.5h-11q-30 0 -50.5 -14t-20.5 -32q0 -15 8 -25.5t26 -19.5q25 -15 107 -42l33 -12q155 -57 228.5 -142.5t73.5 -215.5q0 -90 -41 -166zM500 752.5q-24 -6.5 -42 -18.5q-44 -29 -44 -73q0 -18 10.5 -32.5t28.5 -24.5q38 -21 82 -21q22 0 46 7
t42 19q43 26 43 74q0 31 -37 53.5t-83 22.5q-22 0 -46 -6.5z" />
    <glyph glyph-name="dieresis" unicode="&#xa8;" horiz-adv-x="853" 
d="M84.5 1372.5q11.5 27.5 31.5 47.5q42 42 102 42q30 0 57 -11t47 -31t31 -47t11 -57q0 -60 -42 -102q-20 -20 -47.5 -31.5t-56.5 -11.5q-59 0 -102 43t-43 102q0 29 11.5 56.5zM476.5 1372.5q11.5 27.5 31.5 47.5q42 42 102 42q30 0 57 -11t47 -31t31 -47t11 -57
q0 -60 -42 -102q-20 -20 -47.5 -31.5t-56.5 -11.5q-59 0 -102 43t-43 102q0 29 11.5 56.5z" />
    <glyph glyph-name="copyright" unicode="&#xa9;" horiz-adv-x="1606" 
d="M95 909.5q26 94.5 75 176.5q47 80 114.5 147t149.5 115t176.5 73.5t193.5 25.5q98 0 192 -25.5t179 -73.5q82 -48 149 -114.5t115 -147.5q49 -82 75 -176.5t26 -192.5t-26 -192.5t-75 -176.5q-48 -81 -115 -147.5t-149 -113.5q-84 -49 -178.5 -74.5t-192.5 -25.5
q-99 0 -193.5 25.5t-176.5 74.5q-168 99 -264 261q-49 82 -75 176.5t-26 192.5t26 192.5zM316 517.5q41 -95.5 117 -170.5q73 -73 170 -113.5t201 -40.5q105 0 202 40.5t170 113.5q75 73 116 169t41 201t-41 201t-116 169q-73 73 -170 113.5t-202 40.5q-104 0 -201 -40.5
t-170 -113.5q-76 -75 -117 -170.5t-41 -199.5t41 -199.5zM703 826q-24 -22 -37 -51.5t-13 -61.5q0 -66 50 -113q22 -21 51 -32.5t59 -11.5q27 0 61 12l18 5q28 10 44.5 13.5t37.5 3.5q61 0 110 -49l60 -62q-72 -79 -158 -122.5t-173 -43.5q-80 0 -154.5 31t-129.5 86
q-57 55 -88 128.5t-31 154.5t31 154.5t88 128.5q55 55 129.5 86t154.5 31q87 0 173 -43.5t158 -122.5l-60 -63q-49 -46 -115 -46q-38 0 -82 16q-1 1 -8 3l-20 5q-21 7 -46 7q-61 0 -110 -43z" />
    <glyph glyph-name="ordfeminine" unicode="&#xaa;" horiz-adv-x="817" 
d="M105 1440q24 38 58 75q17 17 36 29q95 62 218 62q134 0 211.5 -53t107.5 -160q22 -76 22 -201v-403h-205q-18 7 -24 32q-35 -19 -85 -30.5t-92 -11.5q-65 0 -121 19t-98 54q-43 36 -66 85t-23 108q0 138 108 209t316 71h13q13 0 16 -1q-6 39 -29 62t-59 23
q-15 0 -29.5 -4.5t-39.5 -17.5q-40 -23 -72 -23q-44 0 -99 34zM506 1028v88q-26 3 -70 3q-54 0 -99 -20q-19 -10 -29.5 -22t-10.5 -25q0 -26 15 -44t41 -18q75 0 153 38z" />
    <glyph glyph-name="guillemotleft" unicode="&#xab;" horiz-adv-x="1285" 
d="M289 879q24 56 80 91t120 35h168l-181 -441q-16 -24 -22 -29q-6 -6 -10 -7l13 -9q13 -13 19 -25l181 -441h-168q-62 0 -119 36t-81 91l-121 306q-10 25 -19 34l-11 9q8 5 17 19.5t13 27.5zM749 879q24 56 80 91t120 35h168l-181 -441q-16 -24 -22 -29q-6 -6 -10 -7l13 -9
q13 -13 19 -25l181 -441h-168q-62 0 -119 36t-81 91l-121 306q-10 25 -19 34l-11 9q8 5 17 19.5t13 27.5z" />
    <glyph glyph-name="logicalnot" unicode="&#xac;" horiz-adv-x="1234" 
d="M788 282v224h-638v291h929v-515h-291z" />
    <glyph glyph-name="uni00AD" unicode="&#xad;" horiz-adv-x="813" 
d="M708 452h-615v291h615v-291z" />
    <glyph glyph-name="registered" unicode="&#xae;" horiz-adv-x="1606" 
d="M95 909.5q26 94.5 75 176.5q47 80 114.5 147t149.5 115t176.5 73.5t193.5 25.5q98 0 192 -25.5t179 -73.5q82 -48 149 -114.5t115 -147.5q49 -82 75 -176.5t26 -192.5t-26 -192.5t-75 -176.5q-48 -81 -115 -147.5t-149 -113.5q-84 -49 -178.5 -74.5t-192.5 -25.5
q-99 0 -193.5 25.5t-176.5 74.5q-168 99 -264 261q-49 82 -75 176.5t-26 192.5t26 192.5zM733 317h-183v801h302q53 0 99.5 -19t81.5 -54t54.5 -82t19.5 -98q0 -65 -33 -121.5t-91 -92.5l211 -285q67 72 103 162.5t36 188.5q0 105 -41 201t-116 169q-73 73 -170 113.5
t-202 40.5q-104 0 -201 -40.5t-170 -113.5q-76 -75 -117 -170.5t-41 -199.5t41 -199.5t117 -170.5q73 -73 170 -113.5t201 -40.5q131 0 243 60l-270 363h-44v-299zM733 935v-137h126q27 0 46 19.5t19 47.5q0 29 -19 49.5t-46 20.5h-126z" />
    <glyph glyph-name="macron" unicode="&#xaf;" horiz-adv-x="694" 
d="M30 1493h624v-293h-624v293z" />
    <glyph glyph-name="degree" unicode="&#xb0;" horiz-adv-x="903" 
d="M103.5 1265q28.5 67 79.5 116q51 51 118.5 78.5t141.5 27.5t141.5 -27.5t118.5 -78.5q51 -49 79.5 -116t28.5 -141q0 -72 -28 -138.5t-80 -117.5q-51 -51 -118.5 -78.5t-141.5 -27.5t-141.5 27.5t-118.5 78.5q-52 51 -80 117.5t-28 138.5q0 74 28.5 141zM393 1073
q21 -21 50 -21q31 0 52 21t21 50q0 31 -21 52t-52 21q-29 0 -50 -21t-21 -52q0 -29 21 -50z" />
    <glyph glyph-name="plusminus" unicode="&#xb1;" horiz-adv-x="1160" 
d="M432 420v330h-330v291h330v333h291v-333h333v-291h-333v-330h-291zM102 92h953v289h-953v-289z" />
    <glyph glyph-name="uni00B2" unicode="&#xb2;" horiz-adv-x="780" 
d="M696 789h-605v86q0 42 5 62t21 41q10 13 77 79q44 43 106 108t86 95q44 56 44 72q0 20 -19 39q-20 17 -36 17q-29 0 -54 -16l-35 -23q-22 -16 -38 -23t-32 -7q-28 0 -50 13l-26 12l-71 38q19 49 49 94t67 79q92 83 196 83q60 0 116.5 -20.5t99.5 -57.5q45 -39 68.5 -90.5
t23.5 -111.5q0 -63 -52.5 -153.5t-129.5 -169.5h189v-246z" />
    <glyph glyph-name="uni00B3" unicode="&#xb3;" horiz-adv-x="664" 
d="M344 828q-82 0 -132.5 20t-86 64.5t-76.5 129.5l102 47q15 5 31 5q25 0 42.5 -5.5t32.5 -17.5l3 -2l2 -2q28 -25 59 -25q23 0 39.5 16t16.5 39q0 29 -13 48.5t-33 19.5h-100v163h100q19 0 33 17t14 43q0 20 -14 33t-33 13t-30 -9q-21 -18 -39.5 -25.5t-45.5 -7.5h-4
q-39 0 -77 29l-69 54q64 79 130.5 121.5t128.5 42.5q50 0 95 -18t79 -51q34 -34 53.5 -79t19.5 -93q0 -30 -14.5 -71.5t-35.5 -72.5q31 -34 49.5 -78.5t18.5 -88.5q0 -51 -18.5 -97t-52.5 -82q-33 -36 -78 -56.5t-96 -23.5h-1z" />
    <glyph glyph-name="acute" unicode="&#xb4;" horiz-adv-x="813" 
d="M470 1230q-53 -69 -168 -69h-150l15 27l60 106l42 73q16 28 20 34q5 10 9 14q51 66 167 66h209z" />
    <glyph glyph-name="uni00B5" unicode="&#xb5;" horiz-adv-x="1164" 
d="M123 1050h291v-666q4 -29 30.5 -53t65 -38t76.5 -15q29 1 59 9t53 22q56 32 63 75v666h290v-1050h-223q-15 10 -24 24q-3 3 -7 15q-35 -22 -96.5 -37t-112.5 -15q-117 0 -174 51v-378h-291v1390z" />
    <glyph glyph-name="paragraph" unicode="&#xb6;" horiz-adv-x="1368" 
d="M77 1134.5q37 88.5 106 157.5q67 67 157 104t188 37h803v-291h-187v-1340h-292v1340h-114v-1340h-291v671q-86 13 -161 54.5t-130 105.5q-56 64 -86 145t-30 172q0 96 37 184.5z" />
    <glyph glyph-name="periodcentered" unicode="&#xb7;" horiz-adv-x="686" 
d="M155 669.5q16 36.5 44 64.5q28 27 64.5 42t77.5 15t78 -15t65 -42q28 -28 43.5 -64t15.5 -75t-15.5 -75.5t-43.5 -63.5q-28 -28 -65 -43t-78 -15t-77.5 15t-64.5 43q-28 27 -44 63.5t-16 75.5q0 38 16 74.5z" />
    <glyph glyph-name="cedilla" unicode="&#xb8;" horiz-adv-x="703" 
d="M198 10h177l-1 -77q82 -16 132.5 -63.5t50.5 -110.5q0 -37 -15.5 -70t-45.5 -57q-68 -53 -186 -53q-58 0 -110 28q-25 12 -44 28v143q43 -31 102 -48q28 -9 62 -9q18 0 31 6q13 4 13 12q0 18 -14.5 27.5t-39.5 9.5h-7q-1 -1 -24 -1q-22 0 -35 3t-22 11q-24 19 -24 71v150
z" />
    <glyph glyph-name="uni00B9" unicode="&#xb9;" horiz-adv-x="817" 
d="M706 814h-515v255h134v247q-24 -8 -43 -8q-36 0 -64 28l-71 67l240 231h199v-565h120v-255z" />
    <glyph glyph-name="ordmasculine" unicode="&#xba;" horiz-adv-x="928" 
d="M85 1239q31 74 89 131q58 56 132.5 86.5t156.5 30.5t157 -30.5t133 -86.5q57 -57 88 -131.5t31 -155.5q0 -83 -30.5 -155.5t-88.5 -129.5q-56 -56 -131.5 -87t-158.5 -31t-157.5 30.5t-131.5 87.5t-88.5 131t-31.5 154q0 82 31 156zM372 990q18 -18 42 -28t51 -10
q35 0 65 17.5t48 47.5q17 31 17 65q0 27 -10 51t-28 42q-39 39 -92 39q-27 0 -51 -10.5t-42 -28.5t-28.5 -42t-10.5 -51q0 -53 39 -92z" />
    <glyph glyph-name="guillemotright" unicode="&#xbb;" horiz-adv-x="1225" 
d="M616 576q11 -28 21 -38q5 -6 9 -9l-10 -9q-9 -8 -20 -34l-121 -306q-24 -54 -81.5 -90.5t-118.5 -36.5h-168l181 441q5 11 11 17l8 8l13 9q-8 3 -18 14.5t-14 21.5l-181 441h168q62 0 119 -35.5t81 -90.5zM1076 576q11 -28 21 -38q5 -6 9 -9l-10 -9q-9 -8 -20 -34
l-121 -306q-24 -54 -81.5 -90.5t-118.5 -36.5h-168l181 441q5 11 11 17l8 8l13 9q-8 3 -18 14.5t-14 21.5l-181 441h168q62 0 119 -35.5t81 -90.5z" />
    <glyph glyph-name="onequarter" unicode="&#xbc;" horiz-adv-x="1424" 
d="M496 614h-515v255h134v247q-24 -8 -43 -8q-36 0 -64 28l-71 67l240 231h199v-565h120v-255zM893 1308v-2q58 127 178 127h207l-626 -1309q-26 -55 -81.5 -89.5t-118.5 -34.5h-183zM1143 0v141h-321v145q0 16 13 41q19 44 127 217l71 113l59 95q17 29 42.5 44.5t55.5 15.5
h158v-459h76v-212h-76v-141h-205zM1171 353v184l-110 -184h110z" />
    <glyph glyph-name="onehalf" unicode="&#xbd;" horiz-adv-x="1424" 
d="M496 614h-515v255h134v247q-24 -8 -43 -8q-36 0 -64 28l-71 67l240 231h199v-565h120v-255zM893 1308v-2q58 127 178 127h207l-626 -1309q-26 -55 -81.5 -89.5t-118.5 -34.5h-183zM1595 0h-605v86q0 42 5 62t21 41q10 13 77 79q44 43 106 108t86 95q44 56 44 72
q0 20 -19 39q-20 17 -36 17q-29 0 -54 -16l-35 -23q-22 -16 -38 -23t-32 -7q-28 0 -50 13l-26 12l-71 38q19 49 49 94t67 79q92 83 196 83q60 0 116.5 -20.5t99.5 -57.5q45 -39 68.5 -90.5t23.5 -111.5q0 -63 -52.5 -153.5t-129.5 -169.5h189v-246z" />
    <glyph glyph-name="threequarters" unicode="&#xbe;" horiz-adv-x="1426" 
d="M344 630q-82 0 -132.5 20t-86 64.5t-76.5 129.5l102 47q15 5 31 5q25 0 42.5 -5.5t32.5 -17.5l3 -2l2 -2q28 -25 59 -25q23 0 39.5 16t16.5 39q0 29 -13 48.5t-33 19.5h-100v163h100q19 0 33 17t14 43q0 20 -14 33t-33 13t-30 -9q-21 -18 -39.5 -25.5t-45.5 -7.5h-4
q-39 0 -77 29l-69 54q64 79 130.5 121.5t128.5 42.5q50 0 95 -18t79 -51q34 -34 53.5 -79t19.5 -93q0 -30 -14.5 -71.5t-35.5 -72.5q31 -34 49.5 -78.5t18.5 -88.5q0 -51 -18.5 -97t-52.5 -82q-33 -36 -78 -56.5t-96 -23.5h-1zM893 1308v-2q58 127 178 127h207l-626 -1309
q-26 -55 -81.5 -89.5t-118.5 -34.5h-183zM1143 0v141h-321v145q0 16 13 41q19 44 127 217l71 113l59 95q17 29 42.5 44.5t55.5 15.5h158v-459h76v-212h-76v-141h-205zM1171 353v184l-110 -184h110z" />
    <glyph glyph-name="questiondown" unicode="&#xbf;" horiz-adv-x="929" 
d="M293.5 993.5q14.5 33.5 39.5 58.5t58.5 38.5t71.5 13.5q37 0 71 -13.5t61 -38.5q26 -24 40 -57t14 -71t-14 -71t-40 -57q-27 -25 -61 -38.5t-71 -13.5q-38 0 -71.5 13.5t-58.5 38.5t-39.5 59t-14.5 69q0 36 14.5 69.5zM928 -49q-75 -152 -182.5 -229t-266.5 -77
q-232 0 -346 83t-114 268q0 85 33 152t104 129q93 80 127 122q19 24 27.5 44.5t8.5 43.5v86h292v-58q0 -157 -75 -258q-22 -30 -49.5 -54.5t-72.5 -56.5l-19 -14q-42 -30 -59 -52.5t-17 -51.5q0 -31 4 -49.5t15 -33.5q27 -37 112 -37q29 0 67.5 14t64.5 35l15 14
q54 54 112 54q43 0 103 -21z" />
    <glyph glyph-name="Agrave" unicode="&#xc0;" horiz-adv-x="1464" 
d="M671 1433h282l626 -1433h-211q-66 0 -121.5 35t-79.5 92l-70 159h-570l-68 -159q-22 -53 -80 -90t-122 -37h-212zM658 583h306l-125 300q-14 32 -22 71q-3 9 -5 30q-5 -36 -14 -63l-14 -38zM252 1907h249q116 0 167 -66l14 -20l28 -49l128 -227h-190q-115 0 -168 69z" />
    <glyph glyph-name="Aacute" unicode="&#xc1;" horiz-adv-x="1464" 
d="M671 1433h282l626 -1433h-211q-66 0 -121.5 35t-79.5 92l-70 159h-570l-68 -159q-22 -53 -80 -90t-122 -37h-212zM658 583h306l-125 300q-14 32 -22 71q-3 9 -5 30q-5 -36 -14 -63l-14 -38zM1026 1705q-52 -69 -168 -69h-190l128 227l29 49q12 19 13 20q51 66 167 66h249
z" />
    <glyph glyph-name="Acircumflex" unicode="&#xc2;" horiz-adv-x="1464" 
d="M671 1433h282l626 -1433h-211q-66 0 -121.5 35t-79.5 92l-70 159h-570l-68 -159q-22 -53 -80 -90t-122 -37h-212zM658 583h306l-125 300q-14 32 -22 71q-3 9 -5 30q-5 -36 -14 -63l-14 -38zM733 1709l-32 -39l-16 -19l-13 -16q-38 -47 -84 -70q-25 -13 -54 -13h-192
l202 295q47 69 167 69h46q116 0 164 -69l203 -295h-193q-44 0 -81.5 28t-84.5 89z" />
    <glyph glyph-name="Atilde" unicode="&#xc3;" horiz-adv-x="1464" 
d="M671 1433h282l626 -1433h-211q-66 0 -121.5 35t-79.5 92l-70 159h-570l-68 -159q-22 -53 -80 -90t-122 -37h-212zM658 583h306l-125 300q-14 32 -22 71q-3 9 -5 30q-5 -36 -14 -63l-14 -38zM802.5 1552q-22.5 7 -56.5 25q-37 19 -56.5 25.5t-42.5 6.5q-28 0 -28 -63h-223
q0 154 53.5 234.5t157.5 80.5q28 0 49.5 -6.5t52.5 -23.5q31 -18 48 -24.5t38 -6.5q37 0 37 54h239q-7 -91 -17 -140t-30 -84q-24 -43 -66.5 -64t-108.5 -21q-24 0 -46.5 7z" />
    <glyph glyph-name="Adieresis" unicode="&#xc4;" horiz-adv-x="1464" 
d="M671 1433h282l626 -1433h-211q-66 0 -121.5 35t-79.5 92l-70 159h-570l-68 -159q-22 -53 -80 -90t-122 -37h-212zM658 583h306l-125 300q-14 32 -22 71q-3 9 -5 30q-5 -36 -14 -63l-14 -38zM402.5 1733.5q11.5 27.5 31.5 47.5q42 42 102 42q30 0 57 -11t47 -31t31 -47
t11 -57q0 -60 -42 -102q-20 -20 -47.5 -31.5t-56.5 -11.5q-59 0 -102 43t-43 102q0 29 11.5 56.5zM794.5 1733.5q11.5 27.5 31.5 47.5q42 42 102 42q30 0 57 -11t47 -31t31 -47t11 -57q0 -60 -42 -102q-20 -20 -47.5 -31.5t-56.5 -11.5q-59 0 -102 43t-43 102
q0 29 11.5 56.5z" />
    <glyph glyph-name="Aring" unicode="&#xc5;" horiz-adv-x="1464" 
d="M671 1433h282l626 -1433h-211q-66 0 -121.5 35t-79.5 92l-70 159h-570l-68 -159q-22 -53 -80 -90t-122 -37h-212zM658 583h306l-125 300q-14 32 -22 71q-3 9 -5 30q-5 -36 -14 -63l-14 -38zM510.5 1839.5q18.5 43.5 51.5 76.5t76.5 51t92.5 18q48 0 92 -18t77 -51
t51.5 -76.5t18.5 -90.5t-18.5 -90.5t-51.5 -76.5q-32 -33 -76.5 -51.5t-92.5 -18.5t-91.5 18t-77.5 52q-33 33 -51.5 76.5t-18.5 90.5t18.5 90.5zM696 1714.5q14 -14.5 35 -14.5t35.5 14.5t14.5 34.5q0 21 -14.5 35.5t-35.5 14.5t-35 -14.5t-14 -35.5q0 -20 14 -34.5z" />
    <glyph glyph-name="AE" unicode="&#xc6;" horiz-adv-x="1904" 
d="M1739 0h-497q-69 0 -121 35t-74 98l-53 153h-546l-86 -164q-30 -56 -86.5 -89t-120.5 -33h-235l759 1433h1060v-328h-664l38 -107l39 -112h469v-328h-359l34 -97l24 -65l23 -68h396v-328zM780 913l-159 -299h262z" />
    <glyph glyph-name="Ccedilla" unicode="&#xc7;" horiz-adv-x="1498" 
d="M1150.5 406.5q37.5 -15.5 70.5 -48.5l85 -85q-129 -137 -275 -209q-88 -43 -175 -62l-1 -59q82 -16 132.5 -63.5t50.5 -110.5q0 -37 -15.5 -70t-45.5 -57q-68 -53 -186 -53q-58 0 -110 28q-25 12 -44 28v143q44 -32 102 -48q29 -9 62 -9q18 0 31 6q13 4 13 12
q0 18 -14.5 27.5t-39.5 9.5h-7q-1 -1 -24 -1q-22 0 -35 3t-22 11q-24 19 -24 71v118q-180 9 -332 99q-82 47 -149 113.5t-115 147.5q-49 82 -75 176.5t-26 192.5t26 192.5t75 176.5q48 81 115 147.5t149 114.5q85 48 179 73.5t192 25.5q155 0 306.5 -74t281.5 -212l-85 -85
q-65 -65 -157 -65q-68 0 -120 37q-107 72 -226 72q-80 0 -153.5 -30.5t-133.5 -87.5q-58 -58 -90 -131.5t-32 -153.5t32 -153.5t90 -131.5q57 -57 131.5 -87.5t155.5 -30.5q119 0 226 72q53 36 120 36q49 0 86.5 -15.5z" />
    <glyph glyph-name="Egrave" unicode="&#xc8;" horiz-adv-x="1233" 
d="M1128 0h-954v1433h954v-306h-627v-251h510v-306h-510v-264h627v-306zM239 1915h249q116 0 167 -66l14 -20l28 -49l128 -227h-190q-115 0 -168 69z" />
    <glyph glyph-name="Eacute" unicode="&#xc9;" horiz-adv-x="1233" 
d="M1128 0h-954v1433h954v-306h-627v-251h510v-306h-510v-264h627v-306zM817 1613q-52 -69 -168 -69h-190l128 227l29 49q12 19 13 20q51 66 167 66h249z" />
    <glyph glyph-name="Ecircumflex" unicode="&#xca;" horiz-adv-x="1233" 
d="M1128 0h-954v1433h954v-306h-627v-251h510v-306h-510v-264h627v-306zM662 1701l-32 -39l-16 -19l-13 -16q-38 -47 -84 -70q-25 -13 -54 -13h-192l202 295q47 69 167 69h46q116 0 164 -69l203 -295h-193q-44 0 -81.5 28t-84.5 89z" />
    <glyph glyph-name="Edieresis" unicode="&#xcb;" horiz-adv-x="1233" 
d="M1128 0h-954v1433h954v-306h-627v-251h510v-306h-510v-264h627v-306zM321.5 1735.5q11.5 27.5 31.5 47.5q42 42 102 42q30 0 57 -11t47 -31t31 -47t11 -57q0 -60 -42 -102q-20 -20 -47.5 -31.5t-56.5 -11.5q-59 0 -102 43t-43 102q0 29 11.5 56.5zM713.5 1735.5
q11.5 27.5 31.5 47.5q42 42 102 42q30 0 57 -11t47 -31t31 -47t11 -57q0 -60 -42 -102q-20 -20 -47.5 -31.5t-56.5 -11.5q-59 0 -102 43t-43 102q0 29 11.5 56.5z" />
    <glyph glyph-name="Igrave" unicode="&#xcc;" horiz-adv-x="747" 
d="M538 0h-328v1433h328v-1433zM-59 1909h249q116 0 167 -66l14 -20l28 -49l128 -227h-190q-115 0 -168 69z" />
    <glyph glyph-name="Iacute" unicode="&#xcd;" horiz-adv-x="747" 
d="M538 0h-328v1433h328v-1433zM601 1709q-52 -69 -168 -69h-190l128 227l29 49q12 19 13 20q51 66 167 66h249z" />
    <glyph glyph-name="Icircumflex" unicode="&#xce;" horiz-adv-x="747" 
d="M538 0h-328v1433h328v-1433zM374 1694l-32 -39l-16 -19l-13 -16q-38 -47 -84 -70q-25 -13 -54 -13h-192l202 295q47 69 167 69h46q116 0 164 -69l203 -295h-193q-44 0 -81.5 28t-84.5 89z" />
    <glyph glyph-name="Idieresis" unicode="&#xcf;" horiz-adv-x="761" 
d="M538 0h-328v1433h328v-1433zM44.5 1735.5q11.5 27.5 31.5 47.5q42 42 102 42q30 0 57 -11t47 -31t31 -47t11 -57q0 -60 -42 -102q-20 -20 -47.5 -31.5t-56.5 -11.5q-59 0 -102 43t-43 102q0 29 11.5 56.5zM436.5 1735.5q11.5 27.5 31.5 47.5q42 42 102 42q30 0 57 -11
t47 -31t31 -47t11 -57q0 -60 -42 -102q-20 -20 -47.5 -31.5t-56.5 -11.5q-59 0 -102 43t-43 102q0 29 11.5 56.5z" />
    <glyph glyph-name="Eth" unicode="&#xd0;" horiz-adv-x="1580" 
d="M1490 716q0 -194 -99 -361q-47 -80 -113.5 -145.5t-146.5 -111.5q-82 -48 -175 -73t-189 -25h-593v668h-131v193h131v572h593q98 0 190.5 -25t173.5 -73q165 -99 260 -257q99 -166 99 -362zM1131.5 568q30.5 71 30.5 148t-30.5 147.5t-87.5 127.5q-55 54 -127 84t-150 30
h-266v-244h224v-193h-224v-340h266q77 0 148 29.5t129 84.5q57 55 87.5 126z" />
    <glyph glyph-name="Ntilde" unicode="&#xd1;" horiz-adv-x="1690" 
d="M1512 0h-325l-685 991v-991h-326v1433h322q103 0 142 -57l501 -734q14 -21 33 -70q6 -13 9 -29l3 -15v905h326v-1433zM913.5 1554q-22.5 7 -56.5 25q-37 19 -56.5 25.5t-42.5 6.5q-28 0 -28 -63h-223q0 154 53.5 234.5t157.5 80.5q28 0 49.5 -6.5t52.5 -23.5
q31 -18 48 -24.5t38 -6.5q37 0 37 54h239q-7 -91 -17 -140t-30 -84q-24 -43 -66.5 -64t-108.5 -21q-24 0 -46.5 7z" />
    <glyph glyph-name="Ograve" unicode="&#xd2;" horiz-adv-x="1656" 
d="M118 909.5q26 94.5 75 176.5q48 81 115 147.5t149 114.5q85 48 179 73.5t192 25.5t192 -25.5t179 -73.5q82 -48 149 -114.5t115 -147.5q49 -82 75 -176.5t26 -192.5t-26 -192.5t-75 -176.5q-48 -81 -115 -147.5t-149 -113.5q-84 -49 -178.5 -74.5t-192.5 -25.5
q-202 0 -371 100q-82 47 -149 113.5t-115 147.5q-49 82 -75 176.5t-26 192.5t26 192.5zM451 563.5q32 -73.5 90 -131.5q57 -57 131.5 -87.5t155.5 -30.5t155.5 31t131.5 87q58 58 90 131.5t32 153.5t-32 153.5t-90 131.5q-58 55 -133.5 86.5t-153.5 31.5q-80 0 -153.5 -30.5
t-133.5 -87.5q-58 -58 -90 -131.5t-32 -153.5t32 -153.5zM313 1903h249q116 0 167 -66l14 -20l28 -49l128 -227h-190q-115 0 -168 69z" />
    <glyph glyph-name="Oacute" unicode="&#xd3;" horiz-adv-x="1656" 
d="M118 909.5q26 94.5 75 176.5q48 81 115 147.5t149 114.5q85 48 179 73.5t192 25.5t192 -25.5t179 -73.5q82 -48 149 -114.5t115 -147.5q49 -82 75 -176.5t26 -192.5t-26 -192.5t-75 -176.5q-48 -81 -115 -147.5t-149 -113.5q-84 -49 -178.5 -74.5t-192.5 -25.5
q-202 0 -371 100q-82 47 -149 113.5t-115 147.5q-49 82 -75 176.5t-26 192.5t26 192.5zM451 563.5q32 -73.5 90 -131.5q57 -57 131.5 -87.5t155.5 -30.5t155.5 31t131.5 87q58 58 90 131.5t32 153.5t-32 153.5t-90 131.5q-58 55 -133.5 86.5t-153.5 31.5q-80 0 -153.5 -30.5
t-133.5 -87.5q-58 -58 -90 -131.5t-32 -153.5t32 -153.5zM1105 1619q-52 -69 -168 -69h-190l128 227l29 49q12 19 13 20q51 66 167 66h249z" />
    <glyph glyph-name="Ocircumflex" unicode="&#xd4;" horiz-adv-x="1656" 
d="M118 909.5q26 94.5 75 176.5q48 81 115 147.5t149 114.5q85 48 179 73.5t192 25.5t192 -25.5t179 -73.5q82 -48 149 -114.5t115 -147.5q49 -82 75 -176.5t26 -192.5t-26 -192.5t-75 -176.5q-48 -81 -115 -147.5t-149 -113.5q-84 -49 -178.5 -74.5t-192.5 -25.5
q-202 0 -371 100q-82 47 -149 113.5t-115 147.5q-49 82 -75 176.5t-26 192.5t26 192.5zM451 563.5q32 -73.5 90 -131.5q57 -57 131.5 -87.5t155.5 -30.5t155.5 31t131.5 87q58 58 90 131.5t32 153.5t-32 153.5t-90 131.5q-58 55 -133.5 86.5t-153.5 31.5q-80 0 -153.5 -30.5
t-133.5 -87.5q-58 -58 -90 -131.5t-32 -153.5t32 -153.5zM840 1691l-32 -39l-16 -19l-13 -16q-38 -47 -84 -70q-25 -13 -54 -13h-192l202 295q47 69 167 69h46q116 0 164 -69l203 -295h-193q-44 0 -81.5 28t-84.5 89z" />
    <glyph glyph-name="Otilde" unicode="&#xd5;" horiz-adv-x="1656" 
d="M118 909.5q26 94.5 75 176.5q48 81 115 147.5t149 114.5q85 48 179 73.5t192 25.5t192 -25.5t179 -73.5q82 -48 149 -114.5t115 -147.5q49 -82 75 -176.5t26 -192.5t-26 -192.5t-75 -176.5q-48 -81 -115 -147.5t-149 -113.5q-84 -49 -178.5 -74.5t-192.5 -25.5
q-202 0 -371 100q-82 47 -149 113.5t-115 147.5q-49 82 -75 176.5t-26 192.5t26 192.5zM451 563.5q32 -73.5 90 -131.5q57 -57 131.5 -87.5t155.5 -30.5t155.5 31t131.5 87q58 58 90 131.5t32 153.5t-32 153.5t-90 131.5q-58 55 -133.5 86.5t-153.5 31.5q-80 0 -153.5 -30.5
t-133.5 -87.5q-58 -58 -90 -131.5t-32 -153.5t32 -153.5zM902.5 1542q-22.5 7 -56.5 25q-37 19 -56.5 25.5t-42.5 6.5q-28 0 -28 -63h-223q0 154 53.5 234.5t157.5 80.5q28 0 49.5 -6.5t52.5 -23.5q31 -18 48 -24.5t38 -6.5q37 0 37 54h239q-7 -91 -17 -140t-30 -84
q-24 -43 -66.5 -64t-108.5 -21q-24 0 -46.5 7z" />
    <glyph glyph-name="Odieresis" unicode="&#xd6;" horiz-adv-x="1656" 
d="M118 909.5q26 94.5 75 176.5q48 81 115 147.5t149 114.5q85 48 179 73.5t192 25.5t192 -25.5t179 -73.5q82 -48 149 -114.5t115 -147.5q49 -82 75 -176.5t26 -192.5t-26 -192.5t-75 -176.5q-48 -81 -115 -147.5t-149 -113.5q-84 -49 -178.5 -74.5t-192.5 -25.5
q-202 0 -371 100q-82 47 -149 113.5t-115 147.5q-49 82 -75 176.5t-26 192.5t26 192.5zM451 563.5q32 -73.5 90 -131.5q57 -57 131.5 -87.5t155.5 -30.5t155.5 31t131.5 87q58 58 90 131.5t32 153.5t-32 153.5t-90 131.5q-58 55 -133.5 86.5t-153.5 31.5q-80 0 -153.5 -30.5
t-133.5 -87.5q-58 -58 -90 -131.5t-32 -153.5t32 -153.5zM493.5 1729.5q11.5 27.5 31.5 47.5q42 42 102 42q30 0 57 -11t47 -31t31 -47t11 -57q0 -60 -42 -102q-20 -20 -47.5 -31.5t-56.5 -11.5q-59 0 -102 43t-43 102q0 29 11.5 56.5zM885.5 1729.5q11.5 27.5 31.5 47.5
q42 42 102 42q30 0 57 -11t47 -31t31 -47t11 -57q0 -60 -42 -102q-20 -20 -47.5 -31.5t-56.5 -11.5q-59 0 -102 43t-43 102q0 29 11.5 56.5z" />
    <glyph glyph-name="multiply" unicode="&#xd7;" horiz-adv-x="1210" 
d="M407 229l-25 -21q-24 -20 -56.5 -30.5t-66.5 -10.5q-44 0 -83 16.5t-70 47.5l-56 54l389 391l-384 399l51 50q65 65 154 65q77 0 124 -42l31 -29l205 -205l237 233q23 21 56.5 32t70.5 11q88 0 152 -64l56 -57l-391 -388l387 -398l-54 -53q-63 -63 -155 -63
q-74 0 -122 42l-30 27l-206 207z" />
    <glyph glyph-name="Oslash" unicode="&#xd8;" horiz-adv-x="1656" 
d="M118 909.5q26 94.5 75 176.5q48 81 115 147.5t149 114.5q85 48 179 73.5t192 25.5q186 0 348 -87l79 108q21 30 37.5 40t46.5 10h200l-202 -275q111 -108 169 -242t58 -284q0 -98 -26 -192.5t-75 -176.5q-48 -81 -115 -147.5t-149 -113.5q-84 -49 -178.5 -74.5
t-192.5 -25.5q-187 0 -349 87l-79 -108q-43 -55 -109 -55h-178l205 279q-109 103 -167.5 239.5t-58.5 287.5q0 98 26 192.5zM515 460l463 631q-76 29 -150 29q-80 0 -153.5 -30.5t-133.5 -87.5q-58 -58 -90 -131.5t-32 -153.5q0 -143 96 -257zM983.5 345q74.5 31 131.5 87
q58 58 90 131.5t32 153.5q0 142 -97 257l-463 -631q76 -29 151 -29q81 0 155.5 31z" />
    <glyph glyph-name="Ugrave" unicode="&#xd9;" horiz-adv-x="1494" 
d="M483 577q0 -53 21 -101t60 -85q37 -37 86 -57.5t102 -20.5q52 0 100.5 20.5t88.5 57.5q39 37 60 85t21 101v856h327v-856q0 -120 -45.5 -228t-129.5 -190q-84 -84 -193 -128.5t-229 -44.5q-107 0 -205.5 36.5t-178 102.5t-131.5 154q-82 136 -82 298v856h328v-856z
M318 1903h249q116 0 167 -66l14 -20l28 -49l128 -227h-190q-115 0 -168 69z" />
    <glyph glyph-name="Uacute" unicode="&#xda;" horiz-adv-x="1494" 
d="M483 577q0 -53 21 -101t60 -85q37 -37 86 -57.5t102 -20.5q52 0 100.5 20.5t88.5 57.5q39 37 60 85t21 101v856h327v-856q0 -120 -45.5 -228t-129.5 -190q-84 -84 -193 -128.5t-229 -44.5q-107 0 -205.5 36.5t-178 102.5t-131.5 154q-82 136 -82 298v856h328v-856z
M963 1625q-52 -69 -168 -69h-190l128 227l29 49q12 19 13 20q51 66 167 66h249z" />
    <glyph glyph-name="Ucircumflex" unicode="&#xdb;" horiz-adv-x="1494" 
d="M483 577q0 -53 21 -101t60 -85q37 -37 86 -57.5t102 -20.5q52 0 100.5 20.5t88.5 57.5q39 37 60 85t21 101v856h327v-856q0 -120 -45.5 -228t-129.5 -190q-84 -84 -193 -128.5t-229 -44.5q-107 0 -205.5 36.5t-178 102.5t-131.5 154q-82 136 -82 298v856h328v-856z
M757 1696l-32 -39l-16 -19l-13 -16q-38 -47 -84 -70q-25 -13 -54 -13h-192l202 295q47 69 167 69h46q116 0 164 -69l203 -295h-193q-44 0 -81.5 28t-84.5 89z" />
    <glyph glyph-name="Udieresis" unicode="&#xdc;" horiz-adv-x="1494" 
d="M483 577q0 -53 21 -101t60 -85q37 -37 86 -57.5t102 -20.5q52 0 100.5 20.5t88.5 57.5q39 37 60 85t21 101v856h327v-856q0 -120 -45.5 -228t-129.5 -190q-84 -84 -193 -128.5t-229 -44.5q-107 0 -205.5 36.5t-178 102.5t-131.5 154q-82 136 -82 298v856h328v-856z
M430.5 1733.5q11.5 27.5 31.5 47.5q42 42 102 42q30 0 57 -11t47 -31t31 -47t11 -57q0 -60 -42 -102q-20 -20 -47.5 -31.5t-56.5 -11.5q-59 0 -102 43t-43 102q0 29 11.5 56.5zM822.5 1733.5q11.5 27.5 31.5 47.5q42 42 102 42q30 0 57 -11t47 -31t31 -47t11 -57
q0 -60 -42 -102q-20 -20 -47.5 -31.5t-56.5 -11.5q-59 0 -102 43t-43 102q0 29 11.5 56.5z" />
    <glyph glyph-name="Yacute" unicode="&#xdd;" horiz-adv-x="1505" 
d="M917 0h-327v608q0 17 -10 37.5t-33 52.5l-544 735h267q140 0 223 -111l227 -308q18 -27 26 -50l7 -23q12 44 33 73l226 306q74 113 224 113h269l-545 -737q-25 -33 -34 -51.5t-9 -36.5v-608zM943 1617q-52 -69 -168 -69h-190l128 227l29 49q12 19 13 20q51 66 167 66h249
z" />
    <glyph glyph-name="Thorn" unicode="&#xde;" horiz-adv-x="1225" 
d="M194 1433h327v-223h212q97 0 186 -36.5t156 -103.5t104.5 -155.5t37.5 -183.5t-37.5 -183t-104.5 -155t-156 -103.5t-186 -36.5h-212v-253h-327v1433zM746 581q39 0 72 20.5t52.5 55t19.5 74.5q0 30 -11 57.5t-31 48.5t-46.5 32.5t-55.5 11.5h-225v-300h225z" />
    <glyph glyph-name="germandbls" unicode="&#xdf;" horiz-adv-x="1310" 
d="M110 0v814q0 153 43 285.5t123 229.5q78 94 180.5 144.5t216.5 50.5q96 0 181 -27.5t149 -79.5q67 -55 102.5 -131t35.5 -167q0 -94 -49 -164q-17 -24 -36 -43.5t-55 -50.5q-26 -25 -38 -40q-11 -14 -11 -29q0 -28 18 -53t62 -62q31 -26 74 -58q89 -70 126 -162
q18 -46 18 -105q0 -91 -39 -164t-109 -125q-110 -80 -250 -80q-128 0 -224 73q-72 55 -112 166l28 15l86 45l28 13l14 5q35 9 62 9q21 0 34 -7q26 -15 42 -20.5t37 -5.5q22 0 43 10.5t30 24.5q10 19 10 42q0 26 -12 44.5t-42 44.5q-29 26 -48 40l-23 19q-48 38 -78 66
t-53 58q-61 79 -61 177q0 81 53 152q21 29 47 52q59 51 83 79q14 20 14 37q0 36 -38.5 55.5t-98.5 19.5q-115 0 -181 -94q-73 -103 -73 -289v-814h-309z" />
    <glyph glyph-name="agrave" unicode="&#xe0;" horiz-adv-x="1139" 
d="M174 848q35 53 76 97q21 21 47 40q122 80 283 80q176 0 276 -70t139 -210q28 -99 28 -261v-524h-259q-13 18 -21.5 47t-8.5 51q-49 -57 -111 -85t-128 -28q-83 0 -156.5 25t-127.5 71q-56 46 -86 110.5t-30 140.5q0 172 130 259t384 87q34 0 65 -11q11 -5 19 -11
q-2 69 -35.5 110.5t-87.5 41.5q-20 0 -38 -6t-53 -22q-34 -17 -53 -23t-41 -6q-55 0 -126 44zM595.5 271q51.5 13 100.5 39v156q-25 4 -90 4q-53 0 -100 -14.5t-75 -38.5q-28 -25 -28 -55q0 -18 6.5 -36.5t18.5 -33.5q27 -34 69 -34q47 0 98.5 13zM181 1522h249
q116 0 167 -66l14 -20l28 -49l128 -227h-190q-115 0 -168 69z" />
    <glyph glyph-name="aacute" unicode="&#xe1;" horiz-adv-x="1139" 
d="M174 848q35 53 76 97q21 21 47 40q122 80 283 80q176 0 276 -70t139 -210q28 -99 28 -261v-524h-259q-13 18 -21.5 47t-8.5 51q-49 -57 -111 -85t-128 -28q-83 0 -156.5 25t-127.5 71q-56 46 -86 110.5t-30 140.5q0 172 130 259t384 87q34 0 65 -11q11 -5 19 -11
q-2 69 -35.5 110.5t-87.5 41.5q-20 0 -38 -6t-53 -22q-34 -17 -53 -23t-41 -6q-55 0 -126 44zM595.5 271q51.5 13 100.5 39v156q-25 4 -90 4q-53 0 -100 -14.5t-75 -38.5q-28 -25 -28 -55q0 -18 6.5 -36.5t18.5 -33.5q27 -34 69 -34q47 0 98.5 13zM768 1230
q-53 -69 -168 -69h-150l15 27l60 106l42 73q16 28 20 34q5 10 9 14q51 66 167 66h209z" />
    <glyph glyph-name="acircumflex" unicode="&#xe2;" horiz-adv-x="1139" 
d="M174 848q35 53 76 97q21 21 47 40q122 80 283 80q176 0 276 -70t139 -210q28 -99 28 -261v-524h-259q-13 18 -21.5 47t-8.5 51q-49 -57 -111 -85t-128 -28q-83 0 -156.5 25t-127.5 71q-56 46 -86 110.5t-30 140.5q0 172 130 259t384 87q34 0 65 -11q11 -5 19 -11
q-2 69 -35.5 110.5t-87.5 41.5q-20 0 -38 -6t-53 -22q-34 -17 -53 -23t-41 -6q-55 0 -126 44zM595.5 271q51.5 13 100.5 39v156q-25 4 -90 4q-53 0 -100 -14.5t-75 -38.5q-28 -25 -28 -55q0 -18 6.5 -36.5t18.5 -33.5q27 -34 69 -34q47 0 98.5 13zM434 1205
q-32 -44 -115 -44h-124l162 244q15 23 40 33.5t67 10.5h45q42 0 66 -10.5t39 -33.5l162 -244h-124q-83 0 -115 44l-42 83q-1 2 -2 4.5t-2 5.5l-4 10l-2 12l-5 -22q-1 -3 -2 -5.5t-2 -4.5z" />
    <glyph glyph-name="atilde" unicode="&#xe3;" horiz-adv-x="1139" 
d="M174 848q35 53 76 97q21 21 47 40q122 80 283 80q176 0 276 -70t139 -210q28 -99 28 -261v-524h-259q-13 18 -21.5 47t-8.5 51q-49 -57 -111 -85t-128 -28q-83 0 -156.5 25t-127.5 71q-56 46 -86 110.5t-30 140.5q0 172 130 259t384 87q34 0 65 -11q11 -5 19 -11
q-2 69 -35.5 110.5t-87.5 41.5q-20 0 -38 -6t-53 -22q-34 -17 -53 -23t-41 -6q-55 0 -126 44zM595.5 271q51.5 13 100.5 39v156q-25 4 -90 4q-53 0 -100 -14.5t-75 -38.5q-28 -25 -28 -55q0 -18 6.5 -36.5t18.5 -33.5q27 -34 69 -34q47 0 98.5 13zM638.5 1206
q-22.5 7 -56.5 25q-37 19 -56.5 25.5t-42.5 6.5q-28 0 -28 -63h-223q0 154 53.5 234.5t157.5 80.5q28 0 49.5 -6.5t52.5 -23.5q31 -18 48 -24.5t38 -6.5q37 0 37 54h239q-7 -91 -17 -140t-30 -84q-24 -43 -66.5 -64t-108.5 -21q-24 0 -46.5 7z" />
    <glyph glyph-name="adieresis" unicode="&#xe4;" horiz-adv-x="1139" 
d="M174 848q35 53 76 97q21 21 47 40q122 80 283 80q176 0 276 -70t139 -210q28 -99 28 -261v-524h-259q-13 18 -21.5 47t-8.5 51q-49 -57 -111 -85t-128 -28q-83 0 -156.5 25t-127.5 71q-56 46 -86 110.5t-30 140.5q0 172 130 259t384 87q34 0 65 -11q11 -5 19 -11
q-2 69 -35.5 110.5t-87.5 41.5q-20 0 -38 -6t-53 -22q-34 -17 -53 -23t-41 -6q-55 0 -126 44zM595.5 271q51.5 13 100.5 39v156q-25 4 -90 4q-53 0 -100 -14.5t-75 -38.5q-28 -25 -28 -55q0 -18 6.5 -36.5t18.5 -33.5q27 -34 69 -34q47 0 98.5 13zM239.5 1372.5
q11.5 27.5 31.5 47.5q42 42 102 42q30 0 57 -11t47 -31t31 -47t11 -57q0 -60 -42 -102q-20 -20 -47.5 -31.5t-56.5 -11.5q-59 0 -102 43t-43 102q0 29 11.5 56.5zM631.5 1372.5q11.5 27.5 31.5 47.5q42 42 102 42q30 0 57 -11t47 -31t31 -47t11 -57q0 -60 -42 -102
q-20 -20 -47.5 -31.5t-56.5 -11.5q-59 0 -102 43t-43 102q0 29 11.5 56.5z" />
    <glyph glyph-name="aring" unicode="&#xe5;" horiz-adv-x="1139" 
d="M174 848q35 53 76 97q21 21 47 40q122 80 283 80q176 0 276 -70t139 -210q28 -99 28 -261v-524h-259q-13 18 -21.5 47t-8.5 51q-49 -57 -111 -85t-128 -28q-83 0 -156.5 25t-127.5 71q-56 46 -86 110.5t-30 140.5q0 172 130 259t384 87q34 0 65 -11q11 -5 19 -11
q-2 69 -35.5 110.5t-87.5 41.5q-20 0 -38 -6t-53 -22q-34 -17 -53 -23t-41 -6q-55 0 -126 44zM595.5 271q51.5 13 100.5 39v156q-25 4 -90 4q-53 0 -100 -14.5t-75 -38.5q-28 -25 -28 -55q0 -18 6.5 -36.5t18.5 -33.5q27 -34 69 -34q47 0 98.5 13zM348.5 1457.5
q18.5 43.5 51.5 76.5t76.5 51t92.5 18q48 0 92 -18t77 -51t51.5 -76.5t18.5 -90.5t-18.5 -90.5t-51.5 -76.5q-32 -33 -76.5 -51.5t-92.5 -18.5t-91.5 18t-77.5 52q-33 33 -51.5 76.5t-18.5 90.5t18.5 90.5zM534 1332.5q14 -14.5 35 -14.5t35.5 14.5t14.5 34.5
q0 21 -14.5 35.5t-35.5 14.5t-35 -14.5t-14 -35.5q0 -20 14 -34.5z" />
    <glyph glyph-name="ae" unicode="&#xe6;" horiz-adv-x="1830" 
d="M174 846q35 53 76 97q21 21 47 40q122 80 283 80q91 0 179.5 -24.5t135.5 -61.5q3 -1 3 -7q0 -9 -7 -22q52 43 95 67t95 36t125 12q90 0 175.5 -30t157.5 -86q70 -55 119.5 -129t72.5 -158q6 -19 6 -37v-21q0 -87 -67 -133q-26 -20 -60 -30t-70 -10h-535q4 -16 19 -40.5
t35 -44.5q61 -64 147 -64q28 0 56.5 7.5t52.5 21.5q47 26 106 26q45 0 80.5 -15t66.5 -46l83 -83q-93 -99 -207.5 -151.5t-237.5 -52.5q-91 0 -155.5 21t-119.5 66q-25 19 -42 47q4 -19 3 -31q-2 -7 -5 -8q-71 -38 -185.5 -66.5t-206.5 -28.5q-84 0 -157 24.5t-127 70.5
q-55 46 -85.5 111t-30.5 139q0 180 140 273t411 93h17l21 -2q-5 48 -36.5 79t-77.5 31q-20 0 -38 -6t-53 -22q-34 -17 -53 -23t-41 -6q-55 0 -126 44zM1443 652q-21 46 -49.5 78t-69.5 56q-40 25 -96 25q-109 0 -176 -88q-30 -39 -47 -88q25 17 45 17h393zM603.5 273
q55.5 13 102.5 37l-1 7q-22 52 -33 111l-66 2q-74 0 -130 -27q-25 -12 -39 -28t-14 -33q0 -35 19.5 -58.5t54.5 -23.5q51 0 106.5 13z" />
    <glyph glyph-name="ccedilla" unicode="&#xe7;" horiz-adv-x="1087" 
d="M980 293l82 -83q-184 -196 -396 -222l-1 -59q82 -16 132.5 -63.5t50.5 -110.5q0 -37 -15.5 -70t-45.5 -57q-68 -53 -186 -53q-58 0 -110 28q-25 12 -44 28v143q44 -32 102 -48q29 -9 62 -9q17 0 31 6q13 4 13 12q0 18 -14.5 27.5t-39.5 9.5h-7q-1 -1 -24 -1q-22 0 -35 3
t-22 11q-24 19 -24 71v144q-131 32 -228 118t-145 200q-42 98 -42 207q0 107 42 206.5t118 175.5t175 117t208 41q114 0 228.5 -58t216.5 -167l-82 -84q-61 -63 -153 -63q-48 0 -111 22q-36 12 -57.5 17t-41.5 5q-41 0 -79.5 -15.5t-68.5 -43.5q-33 -30 -50.5 -69t-17.5 -84
t17.5 -84t50.5 -69q31 -28 70 -44t78 -16q24 0 44.5 5t60.5 19q34 13 58.5 18.5t51.5 5.5q81 0 148 -67z" />
    <glyph glyph-name="egrave" unicode="&#xe8;" 
d="M1078 446q-26 -20 -60 -30t-70 -10h-518q11 -35 33 -61t57 -47q35 -20 89 -20q23 0 40 5t68 24q40 16 63.5 22t49.5 6q45 0 80.5 -15t66.5 -46l83 -83q-93 -101 -207 -153.5t-238 -52.5q-108 0 -207.5 41.5t-175.5 117.5t-118 175t-42 206t42 206.5t118 175.5t175 117
t208 41q89 0 175.5 -32t159.5 -92q70 -58 120 -135t70 -160q5 -25 5 -65q0 -87 -67 -135zM809 640q-18 38 -43 64.5t-62 47.5q-38 20 -92 20q-93 0 -156 -75q-29 -40 -41 -74q28 17 50 17h344zM163 1520h249q116 0 167 -66l14 -20l28 -49l128 -227h-190q-115 0 -168 69z" />
    <glyph glyph-name="eacute" unicode="&#xe9;" 
d="M1078 446q-26 -20 -60 -30t-70 -10h-518q11 -35 33 -61t57 -47q35 -20 89 -20q23 0 40 5t68 24q40 16 63.5 22t49.5 6q45 0 80.5 -15t66.5 -46l83 -83q-93 -101 -207 -153.5t-238 -52.5q-108 0 -207.5 41.5t-175.5 117.5t-118 175t-42 206t42 206.5t118 175.5t175 117
t208 41q89 0 175.5 -32t159.5 -92q70 -58 120 -135t70 -160q5 -25 5 -65q0 -87 -67 -135zM809 640q-18 38 -43 64.5t-62 47.5q-38 20 -92 20q-93 0 -156 -75q-29 -40 -41 -74q28 17 50 17h344zM843 1222q-53 -69 -168 -69h-150l15 27l60 106l42 73q16 28 20 34q5 10 9 14
q51 66 167 66h209z" />
    <glyph glyph-name="ecircumflex" unicode="&#xea;" 
d="M1078 446q-26 -20 -60 -30t-70 -10h-518q11 -35 33 -61t57 -47q35 -20 89 -20q23 0 40 5t68 24q40 16 63.5 22t49.5 6q45 0 80.5 -15t66.5 -46l83 -83q-93 -101 -207 -153.5t-238 -52.5q-108 0 -207.5 41.5t-175.5 117.5t-118 175t-42 206t42 206.5t118 175.5t175 117
t208 41q89 0 175.5 -32t159.5 -92q70 -58 120 -135t70 -160q5 -25 5 -65q0 -87 -67 -135zM809 640q-18 38 -43 64.5t-62 47.5q-38 20 -92 20q-93 0 -156 -75q-29 -40 -41 -74q28 17 50 17h344zM461 1201q-32 -44 -115 -44h-124l162 244q15 23 40 33.5t67 10.5h45
q42 0 66 -10.5t39 -33.5l162 -244h-124q-83 0 -115 44l-42 83q-1 2 -2 4.5t-2 5.5l-4 10l-2 12l-5 -22q-1 -3 -2 -5.5t-2 -4.5z" />
    <glyph glyph-name="edieresis" unicode="&#xeb;" 
d="M1078 446q-26 -20 -60 -30t-70 -10h-518q11 -35 33 -61t57 -47q35 -20 89 -20q23 0 40 5t68 24q40 16 63.5 22t49.5 6q45 0 80.5 -15t66.5 -46l83 -83q-93 -101 -207 -153.5t-238 -52.5q-108 0 -207.5 41.5t-175.5 117.5t-118 175t-42 206t42 206.5t118 175.5t175 117
t208 41q89 0 175.5 -32t159.5 -92q70 -58 120 -135t70 -160q5 -25 5 -65q0 -87 -67 -135zM809 640q-18 38 -43 64.5t-62 47.5q-38 20 -92 20q-93 0 -156 -75q-29 -40 -41 -74q28 17 50 17h344zM291.5 1371.5q11.5 27.5 31.5 47.5q42 42 102 42q30 0 57 -11t47 -31t31 -47
t11 -57q0 -60 -42 -102q-20 -20 -47.5 -31.5t-56.5 -11.5q-59 0 -102 43t-43 102q0 29 11.5 56.5zM683.5 1371.5q11.5 27.5 31.5 47.5q42 42 102 42q30 0 57 -11t47 -31t31 -47t11 -57q0 -60 -42 -102q-20 -20 -47.5 -31.5t-56.5 -11.5q-59 0 -102 43t-43 102
q0 29 11.5 56.5z" />
    <glyph glyph-name="igrave" unicode="&#xec;" horiz-adv-x="657" 
d="M410 1018v-1018h-328v1018h328zM-184 1527h249q116 0 167 -66l14 -20l28 -49l128 -227h-190q-115 0 -168 69z" />
    <glyph glyph-name="iacute" unicode="&#xed;" horiz-adv-x="657" 
d="M410 1018v-1018h-328v1018h328zM464 1228q-53 -69 -168 -69h-150l15 27l60 106l42 73q16 28 20 34q5 10 9 14q51 66 167 66h209z" />
    <glyph glyph-name="icircumflex" unicode="&#xee;" horiz-adv-x="657" 
d="M410 1018v-1018h-328v1018h328zM218 1210q-32 -44 -115 -44h-124l162 244q15 23 40 33.5t67 10.5h45q42 0 66 -10.5t39 -33.5l162 -244h-124q-83 0 -115 44l-42 83q-1 2 -2 4.5t-2 5.5l-4 10l-2 12l-5 -22q-1 -3 -2 -5.5t-2 -4.5z" />
    <glyph glyph-name="idieresis" unicode="&#xef;" horiz-adv-x="657" 
d="M410 1018v-1018h-328v1018h328zM-69.5 1372.5q11.5 27.5 31.5 47.5q42 42 102 42q30 0 57 -11t47 -31t31 -47t11 -57q0 -60 -42 -102q-20 -20 -47.5 -31.5t-56.5 -11.5q-59 0 -102 43t-43 102q0 29 11.5 56.5zM322.5 1372.5q11.5 27.5 31.5 47.5q42 42 102 42
q30 0 57 -11t47 -31t31 -47t11 -57q0 -60 -42 -102q-20 -20 -47.5 -31.5t-56.5 -11.5q-59 0 -102 43t-43 102q0 29 11.5 56.5z" />
    <glyph glyph-name="eth" unicode="&#xf0;" horiz-adv-x="1264" 
d="M367 1172l14 53q-33 5 -55 6l-21 2l51 323q85 -8 110 -14l15 56l188 -50l-14 -52q223 -75 349.5 -229.5t169.5 -383.5q14 -75 20 -152t6 -180v-5q0 -113 -43 -216t-122 -179q-79 -78 -182.5 -121t-216.5 -43q-151 0 -281.5 75.5t-206.5 204.5q-75 128 -75 278
q0 108 41 208.5t116 178.5q73 76 171.5 121t206.5 50q65 1 130 -14q33 -8 58 -24q-88 73 -227 117l-16 -61zM425 456.5q18 -43.5 49 -77.5q31 -33 73 -51t89 -18t89.5 18t73.5 51q31 34 49 77.5t18 88.5q0 48 -17.5 91t-49.5 76q-31 33 -73.5 51t-89.5 18t-89 -18t-73 -51
q-32 -33 -49.5 -76t-17.5 -91q0 -45 18 -88.5z" />
    <glyph glyph-name="ntilde" unicode="&#xf1;" horiz-adv-x="1260" 
d="M394 1050q20 -21 30.5 -56t10.5 -77q0 -22 -1 -26q12 33 41.5 65t69.5 56q43 25 90.5 39t93.5 14q92 0 166 -33t126 -97q51 -63 78 -151.5t27 -196.5v-587h-327v572q0 101 -37 141q-27 28 -71 28q-43 0 -82.5 -10t-69.5 -28q-66 -40 -66 -104v-599h-327v1050h248z
M716.5 1206q-22.5 7 -56.5 25q-37 19 -56.5 25.5t-42.5 6.5q-28 0 -28 -63h-223q0 154 53.5 234.5t157.5 80.5q28 0 49.5 -6.5t52.5 -23.5q31 -18 48 -24.5t38 -6.5q37 0 37 54h239q-7 -91 -17 -140t-30 -84q-24 -43 -66.5 -64t-108.5 -21q-24 0 -46.5 7z" />
    <glyph glyph-name="ograve" unicode="&#xf2;" horiz-adv-x="1226" 
d="M113.5 732q41.5 99 117.5 175t174.5 117t206.5 41t207.5 -41.5t174.5 -116.5t116.5 -174.5t41.5 -207.5t-41 -206.5t-117 -174.5t-175 -117.5t-207 -41.5q-107 0 -206 41.5t-175 117.5t-117.5 175t-41.5 206q0 108 41.5 207zM416 444q16 -38 46 -68t68 -46t80 -16
t80.5 16t68.5 46t46 68t16 80t-16 80.5t-46 68.5t-68.5 46t-80.5 16t-80 -16t-68 -46t-46 -68.5t-16 -80.5t16 -80zM141 1526h249q116 0 167 -66l14 -20l28 -49l128 -227h-190q-115 0 -168 69z" />
    <glyph glyph-name="oacute" unicode="&#xf3;" horiz-adv-x="1226" 
d="M113.5 732q41.5 99 117.5 175t174.5 117t206.5 41t207.5 -41.5t174.5 -116.5t116.5 -174.5t41.5 -207.5t-41 -206.5t-117 -174.5t-175 -117.5t-207 -41.5q-107 0 -206 41.5t-175 117.5t-117.5 175t-41.5 206q0 108 41.5 207zM416 444q16 -38 46 -68t68 -46t80 -16
t80.5 16t68.5 46t46 68t16 80t-16 80.5t-46 68.5t-68.5 46t-80.5 16t-80 -16t-68 -46t-46 -68.5t-16 -80.5t16 -80zM830 1224q-53 -69 -168 -69h-150l15 27l60 106l42 73q16 28 20 34q5 10 9 14q51 66 167 66h209z" />
    <glyph glyph-name="ocircumflex" unicode="&#xf4;" horiz-adv-x="1226" 
d="M113.5 732q41.5 99 117.5 175t174.5 117t206.5 41t207.5 -41.5t174.5 -116.5t116.5 -174.5t41.5 -207.5t-41 -206.5t-117 -174.5t-175 -117.5t-207 -41.5q-107 0 -206 41.5t-175 117.5t-117.5 175t-41.5 206q0 108 41.5 207zM416 444q16 -38 46 -68t68 -46t80 -16
t80.5 16t68.5 46t46 68t16 80t-16 80.5t-46 68.5t-68.5 46t-80.5 16t-80 -16t-68 -46t-46 -68.5t-16 -80.5t16 -80zM461 1201q-32 -44 -115 -44h-124l162 244q15 23 40 33.5t67 10.5h45q42 0 66 -10.5t39 -33.5l162 -244h-124q-83 0 -115 44l-42 83q-1 2 -2 4.5t-2 5.5
l-4 10l-2 12l-5 -22q-1 -3 -2 -5.5t-2 -4.5z" />
    <glyph glyph-name="otilde" unicode="&#xf5;" horiz-adv-x="1226" 
d="M113.5 732q41.5 99 117.5 175t174.5 117t206.5 41t207.5 -41.5t174.5 -116.5t116.5 -174.5t41.5 -207.5t-41 -206.5t-117 -174.5t-175 -117.5t-207 -41.5q-107 0 -206 41.5t-175 117.5t-117.5 175t-41.5 206q0 108 41.5 207zM416 444q16 -38 46 -68t68 -46t80 -16
t80.5 16t68.5 46t46 68t16 80t-16 80.5t-46 68.5t-68.5 46t-80.5 16t-80 -16t-68 -46t-46 -68.5t-16 -80.5t16 -80zM691.5 1202q-22.5 7 -56.5 25q-37 19 -56.5 25.5t-42.5 6.5q-28 0 -28 -63h-223q0 154 53.5 234.5t157.5 80.5q28 0 49.5 -6.5t52.5 -23.5q31 -18 48 -24.5
t38 -6.5q37 0 37 54h239q-7 -91 -17 -140t-30 -84q-24 -43 -66.5 -64t-108.5 -21q-24 0 -46.5 7z" />
    <glyph glyph-name="odieresis" unicode="&#xf6;" horiz-adv-x="1226" 
d="M113.5 732q41.5 99 117.5 175t174.5 117t206.5 41t207.5 -41.5t174.5 -116.5t116.5 -174.5t41.5 -207.5t-41 -206.5t-117 -174.5t-175 -117.5t-207 -41.5q-107 0 -206 41.5t-175 117.5t-117.5 175t-41.5 206q0 108 41.5 207zM416 444q16 -38 46 -68t68 -46t80 -16
t80.5 16t68.5 46t46 68t16 80t-16 80.5t-46 68.5t-68.5 46t-80.5 16t-80 -16t-68 -46t-46 -68.5t-16 -80.5t16 -80zM284.5 1370.5q11.5 27.5 31.5 47.5q42 42 102 42q30 0 57 -11t47 -31t31 -47t11 -57q0 -60 -42 -102q-20 -20 -47.5 -31.5t-56.5 -11.5q-59 0 -102 43
t-43 102q0 29 11.5 56.5zM676.5 1370.5q11.5 27.5 31.5 47.5q42 42 102 42q30 0 57 -11t47 -31t31 -47t11 -57q0 -60 -42 -102q-20 -20 -47.5 -31.5t-56.5 -11.5q-59 0 -102 43t-43 102q0 29 11.5 56.5z" />
    <glyph glyph-name="divide" unicode="&#xf7;" horiz-adv-x="1160" 
d="M777.5 1029q-14.5 -34 -39.5 -59t-58.5 -38.5t-71.5 -13.5q-37 0 -71 13.5t-60 38.5q-26 24 -40.5 57t-14.5 71t14.5 71t40.5 57q26 25 60 38.5t71 13.5q38 0 71.5 -13.5t58.5 -38.5t39.5 -59t14.5 -69t-14.5 -69zM1119 523h-1017v291h1017v-291zM777.5 170
q-14.5 -34 -39.5 -59t-58.5 -38.5t-71.5 -13.5q-37 0 -71 13.5t-60 38.5q-26 24 -40.5 57t-14.5 71t14.5 71t40.5 57q26 25 60 38.5t71 13.5q38 0 71.5 -13.5t58.5 -38.5t39.5 -59t14.5 -69t-14.5 -69z" />
    <glyph glyph-name="oslash" unicode="&#xf8;" horiz-adv-x="1226" 
d="M1000 901q73 -75 112.5 -172.5t39.5 -203.5q0 -108 -41 -206.5t-117 -174.5t-175 -117.5t-207 -41.5q-130 0 -242 58l-71 -97q-43 -55 -109 -55h-148l187 255q-75 76 -116 174t-41 205q0 108 41.5 207t117.5 175t174.5 117t206.5 41q131 0 247 -59l74 101q21 30 37.5 40
t46.5 10h170zM429 419l228 311q-32 5 -47 5q-42 0 -80 -16t-68 -46t-46 -68.5t-16 -80.5q0 -55 29 -105zM796 624l-224 -306q13 -4 38 -4q42 0 80.5 16t68.5 46t46 68t16 80q0 54 -25 100z" />
    <glyph glyph-name="ugrave" unicode="&#xf9;" 
d="M1093 1050v-1050h-248q-20 21 -30.5 56t-10.5 77v13q0 10 1 12q-13 -34 -41.5 -65t-69.5 -56q-42 -25 -89.5 -38.5t-94.5 -13.5q-92 0 -166 33t-126 97q-51 63 -78 151.5t-27 196.5v587h327v-572q0 -99 38 -140q27 -29 70 -29t82.5 10t69.5 29q66 41 66 103v599h327z
M146 1524h249q116 0 167 -66l14 -20l28 -49l128 -227h-190q-115 0 -168 69z" />
    <glyph glyph-name="uacute" unicode="&#xfa;" 
d="M1093 1050v-1050h-248q-20 21 -30.5 56t-10.5 77v13q0 10 1 12q-13 -34 -41.5 -65t-69.5 -56q-42 -25 -89.5 -38.5t-94.5 -13.5q-92 0 -166 33t-126 97q-51 63 -78 151.5t-27 196.5v587h327v-572q0 -99 38 -140q27 -29 70 -29t82.5 10t69.5 29q66 41 66 103v599h327z
M795 1236q-53 -69 -168 -69h-150l15 27l60 106l42 73q16 28 20 34q5 10 9 14q51 66 167 66h209z" />
    <glyph glyph-name="ucircumflex" unicode="&#xfb;" 
d="M1093 1050v-1050h-248q-20 21 -30.5 56t-10.5 77v13q0 10 1 12q-13 -34 -41.5 -65t-69.5 -56q-42 -25 -89.5 -38.5t-94.5 -13.5q-92 0 -166 33t-126 97q-51 63 -78 151.5t-27 196.5v587h327v-572q0 -99 38 -140q27 -29 70 -29t82.5 10t69.5 29q66 41 66 103v599h327z
M430 1203q-32 -44 -115 -44h-124l162 244q15 23 40 33.5t67 10.5h45q42 0 66 -10.5t39 -33.5l162 -244h-124q-83 0 -115 44l-42 83q-1 2 -2 4.5t-2 5.5l-4 10l-2 12l-5 -22q-1 -3 -2 -5.5t-2 -4.5z" />
    <glyph glyph-name="udieresis" unicode="&#xfc;" 
d="M1093 1050v-1050h-248q-20 21 -30.5 56t-10.5 77v13q0 10 1 12q-13 -34 -41.5 -65t-69.5 -56q-42 -25 -89.5 -38.5t-94.5 -13.5q-92 0 -166 33t-126 97q-51 63 -78 151.5t-27 196.5v587h327v-572q0 -99 38 -140q27 -29 70 -29t82.5 10t69.5 29q66 41 66 103v599h327z
M253.5 1372.5q11.5 27.5 31.5 47.5q42 42 102 42q30 0 57 -11t47 -31t31 -47t11 -57q0 -60 -42 -102q-20 -20 -47.5 -31.5t-56.5 -11.5q-59 0 -102 43t-43 102q0 29 11.5 56.5zM645.5 1372.5q11.5 27.5 31.5 47.5q42 42 102 42q30 0 57 -11t47 -31t31 -47t11 -57
q0 -60 -42 -102q-20 -20 -47.5 -31.5t-56.5 -11.5q-59 0 -102 43t-43 102q0 29 11.5 56.5z" />
    <glyph glyph-name="yacute" unicode="&#xfd;" horiz-adv-x="1202" 
d="M15 1050h215q66 0 121.5 -35.5t73.5 -91.5l129 -328q28 -66 28 -123l-2 -24l-2 -8l189 486q23 57 76 90.5t118 33.5h217l-572 -1310q-22 -59 -77 -94q-26 -17 -57 -26t-62 -9h-216l223 515zM793 1236q-53 -69 -168 -69h-150l15 27l60 106l42 73q16 28 20 34q5 10 9 14
q51 66 167 66h209z" />
    <glyph glyph-name="thorn" unicode="&#xfe;" horiz-adv-x="1232" 
d="M474 1432v-396q81 27 157 27q108 0 205.5 -41t170.5 -117q72 -75 111 -173.5t39 -206.5t-39 -206.5t-111 -173.5q-73 -76 -170.5 -117t-205.5 -41q-89 0 -157 27v-352h-328v1770h328zM779 379q55 57 55 146q0 45 -15 84.5t-42 67.5q-58 58 -146 58q-92 0 -158 -57v-308
q33 -26 75 -41t83 -15q93 8 148 65z" />
    <glyph glyph-name="ydieresis" unicode="&#xff;" horiz-adv-x="1202" 
d="M15 1050h215q66 0 121.5 -35.5t73.5 -91.5l129 -328q28 -66 28 -123l-2 -24l-2 -8l189 486q23 57 76 90.5t118 33.5h217l-572 -1310q-22 -59 -77 -94q-26 -17 -57 -26t-62 -9h-216l223 515zM275.5 1370.5q11.5 27.5 31.5 47.5q42 42 102 42q30 0 57 -11t47 -31t31 -47
t11 -57q0 -60 -42 -102q-20 -20 -47.5 -31.5t-56.5 -11.5q-59 0 -102 43t-43 102q0 29 11.5 56.5zM667.5 1370.5q11.5 27.5 31.5 47.5q42 42 102 42q30 0 57 -11t47 -31t31 -47t11 -57q0 -60 -42 -102q-20 -20 -47.5 -31.5t-56.5 -11.5q-59 0 -102 43t-43 102
q0 29 11.5 56.5z" />
    <glyph glyph-name="Amacron" unicode="&#x100;" horiz-adv-x="1464" 
d="M671 1433h282l626 -1433h-211q-66 0 -121.5 35t-79.5 92l-70 159h-570l-68 -159q-22 -53 -80 -90t-122 -37h-212zM658 583h306l-125 300q-14 32 -22 71q-3 9 -5 30q-5 -36 -14 -63l-14 -38zM419 1857h624v-293h-624v293z" />
    <glyph glyph-name="amacron" unicode="&#x101;" horiz-adv-x="1139" 
d="M174 848q35 53 76 97q21 21 47 40q122 80 283 80q176 0 276 -70t139 -210q28 -99 28 -261v-524h-259q-13 18 -21.5 47t-8.5 51q-49 -57 -111 -85t-128 -28q-83 0 -156.5 25t-127.5 71q-56 46 -86 110.5t-30 140.5q0 172 130 259t384 87q34 0 65 -11q11 -5 19 -11
q-2 69 -35.5 110.5t-87.5 41.5q-20 0 -38 -6t-53 -22q-34 -17 -53 -23t-41 -6q-55 0 -126 44zM595.5 271q51.5 13 100.5 39v156q-25 4 -90 4q-53 0 -100 -14.5t-75 -38.5q-28 -25 -28 -55q0 -18 6.5 -36.5t18.5 -33.5q27 -34 69 -34q47 0 98.5 13zM257 1493h624v-293h-624
v293z" />
    <glyph glyph-name="Abreve" unicode="&#x102;" horiz-adv-x="1464" 
d="M671 1433h282l626 -1433h-211q-66 0 -121.5 35t-79.5 92l-70 159h-570l-68 -159q-22 -53 -80 -90t-122 -37h-212zM658 583h306l-125 300q-14 32 -22 71q-3 9 -5 30q-5 -36 -14 -63l-14 -38zM1080 1920q0 -74 -29.5 -140t-83.5 -117q-51 -48 -113.5 -74.5t-125.5 -26.5
q-62 0 -124.5 26.5t-112.5 74.5q-54 51 -83.5 117t-29.5 140h80q99 0 152 -50q28 -25 55.5 -36.5t62.5 -11.5q38 0 62.5 10t55.5 38q31 26 67.5 38t86.5 12h80z" />
    <glyph glyph-name="abreve" unicode="&#x103;" horiz-adv-x="1139" 
d="M174 848q35 53 76 97q21 21 47 40q122 80 283 80q176 0 276 -70t139 -210q28 -99 28 -261v-524h-259q-13 18 -21.5 47t-8.5 51q-49 -57 -111 -85t-128 -28q-83 0 -156.5 25t-127.5 71q-56 46 -86 110.5t-30 140.5q0 172 130 259t384 87q34 0 65 -11q11 -5 19 -11
q-2 69 -35.5 110.5t-87.5 41.5q-20 0 -38 -6t-53 -22q-34 -17 -53 -23t-41 -6q-55 0 -126 44zM595.5 271q51.5 13 100.5 39v156q-25 4 -90 4q-53 0 -100 -14.5t-75 -38.5q-28 -25 -28 -55q0 -18 6.5 -36.5t18.5 -33.5q27 -34 69 -34q47 0 98.5 13zM809 1437l-3 -45
q-5 -49 -28 -92.5t-61 -77.5q-82 -68 -186 -68h-10q-56 2 -104.5 23t-84.5 57q-37 36 -57.5 84.5t-20.5 102.5h1v16h63q74 0 120 -40q22 -22 41.5 -31t51.5 -9q28 0 47 8.5t47 31.5q24 21 53 30.5t68 9.5h63z" />
    <glyph glyph-name="Aogonek" unicode="&#x104;" horiz-adv-x="1464" 
d="M1611 -331q-65 -43 -136 -68t-134 -25q-81 0 -142.5 25.5t-94.5 72.5q-34 46 -34 109q0 58 55.5 119t151.5 117q-14 5 -29 15q-57 36 -81 93l-70 159h-570l-68 -159q-22 -53 -80 -90t-122 -37h-212l626 1433h282l626 -1433h-117q-94 -53 -125 -96q-22 -31 -22 -67
q0 -25 18 -32q7 -4 14 -4h10q18 1 41 8q32 5 42 5q54 0 87 -16t50 -54zM964 583l-125 300q-14 32 -22 71q-3 9 -5 30q-5 -36 -14 -63l-14 -38l-126 -300h306z" />
    <glyph glyph-name="aogonek" unicode="&#x105;" horiz-adv-x="1139" 
d="M1151 -336q-65 -43 -136 -68t-134 -25q-81 0 -142.5 25.5t-94.5 72.5q-34 46 -34 109q0 56 47.5 110t136.5 112h-30q-13 18 -21.5 47t-8.5 51q-49 -57 -111 -85t-128 -28q-83 0 -156.5 25t-127.5 71q-56 46 -86 110.5t-30 140.5q0 172 130 259t384 87q34 0 65 -11
q11 -5 19 -11q-2 69 -35.5 110.5t-87.5 41.5q-20 0 -38 -6t-53 -22q-34 -17 -53 -23t-41 -6q-55 0 -126 44l-85 53q35 53 76 97q21 21 47 40q122 80 283 80q176 0 276 -70t139 -210q28 -99 28 -261v-524h-13q-98 -56 -133 -101q-22 -31 -22 -67q0 -25 18 -32q7 -4 14 -4h10
q18 1 41 8q32 5 42 5q54 0 87 -16t50 -54zM696 466q-25 4 -90 4q-53 0 -100 -14.5t-75 -38.5q-28 -25 -28 -55q0 -18 6.5 -36.5t18.5 -33.5q27 -34 69 -34q47 0 98.5 13t100.5 39v156z" />
    <glyph glyph-name="Cacute" unicode="&#x106;" horiz-adv-x="1498" 
d="M341 563.5q32 -73.5 90 -131.5q57 -57 131.5 -87.5t155.5 -30.5q119 0 226 72q53 36 120 36q49 0 86.5 -15.5t70.5 -48.5l85 -85q-130 -138 -281.5 -212t-306.5 -74q-98 0 -192.5 25.5t-178.5 74.5q-82 47 -149 113.5t-115 147.5q-49 82 -75 176.5t-26 192.5t26 192.5
t75 176.5q48 81 115 147.5t149 114.5q85 48 179 73.5t192 25.5q155 0 306.5 -74t281.5 -212l-85 -85q-65 -65 -157 -65q-68 0 -120 37q-107 72 -226 72q-80 0 -153.5 -30.5t-133.5 -87.5q-58 -58 -90 -131.5t-32 -153.5t32 -153.5zM933 1613q-52 -69 -168 -69h-190l128 227
l29 49q12 19 13 20q51 66 167 66h249z" />
    <glyph glyph-name="cacute" unicode="&#x107;" horiz-adv-x="1087" 
d="M537.5 721.5q-38.5 -15.5 -68.5 -43.5q-33 -30 -50.5 -69t-17.5 -84t17.5 -84t50.5 -69q31 -28 70 -44t78 -16q24 0 44.5 5t60.5 19q34 13 58.5 18.5t51.5 5.5q81 0 148 -67l82 -83q-102 -109 -216.5 -167t-228.5 -58q-108 0 -206.5 41.5t-176.5 117.5q-76 76 -118 175
t-42 206t42 206.5t118 175.5t175 117t208 41q114 0 228.5 -58t216.5 -167l-82 -84q-61 -63 -153 -63q-48 0 -111 22q-36 12 -57.5 17t-41.5 5q-41 0 -79.5 -15.5zM752 1230q-53 -69 -168 -69h-150l15 27l60 106l42 73q16 28 20 34q5 10 9 14q51 66 167 66h209z" />
    <glyph glyph-name="Ccircumflex" unicode="&#x108;" horiz-adv-x="1498" 
d="M341 563.5q32 -73.5 90 -131.5q57 -57 131.5 -87.5t155.5 -30.5q119 0 226 72q53 36 120 36q49 0 86.5 -15.5t70.5 -48.5l85 -85q-130 -138 -281.5 -212t-306.5 -74q-98 0 -192.5 25.5t-178.5 74.5q-82 47 -149 113.5t-115 147.5q-49 82 -75 176.5t-26 192.5t26 192.5
t75 176.5q48 81 115 147.5t149 114.5q85 48 179 73.5t192 25.5q155 0 306.5 -74t281.5 -212l-85 -85q-65 -65 -157 -65q-68 0 -120 37q-107 72 -226 72q-80 0 -153.5 -30.5t-133.5 -87.5q-58 -58 -90 -131.5t-32 -153.5t32 -153.5zM830 1692l-32 -39l-16 -19l-13 -16
q-38 -47 -84 -70q-25 -13 -54 -13h-192l202 295q47 69 167 69h46q116 0 164 -69l203 -295h-193q-44 0 -81.5 28t-84.5 89z" />
    <glyph glyph-name="ccircumflex" unicode="&#x109;" horiz-adv-x="1087" 
d="M537.5 721.5q-38.5 -15.5 -68.5 -43.5q-33 -30 -50.5 -69t-17.5 -84t17.5 -84t50.5 -69q31 -28 70 -44t78 -16q24 0 44.5 5t60.5 19q34 13 58.5 18.5t51.5 5.5q81 0 148 -67l82 -83q-102 -109 -216.5 -167t-228.5 -58q-108 0 -206.5 41.5t-176.5 117.5q-76 76 -118 175
t-42 206t42 206.5t118 175.5t175 117t208 41q114 0 228.5 -58t216.5 -167l-82 -84q-61 -63 -153 -63q-48 0 -111 22q-36 12 -57.5 17t-41.5 5q-41 0 -79.5 -15.5zM462 1205q-32 -44 -115 -44h-124l162 244q15 23 40 33.5t67 10.5h45q42 0 66 -10.5t39 -33.5l162 -244h-124
q-83 0 -115 44l-42 83q-1 2 -2 4.5t-2 5.5l-4 10l-2 12l-5 -22q-1 -3 -2 -5.5t-2 -4.5z" />
    <glyph glyph-name="Cdotaccent" unicode="&#x10a;" horiz-adv-x="1498" 
d="M341 563.5q32 -73.5 90 -131.5q57 -57 131.5 -87.5t155.5 -30.5q119 0 226 72q53 36 120 36q49 0 86.5 -15.5t70.5 -48.5l85 -85q-130 -138 -281.5 -212t-306.5 -74q-98 0 -192.5 25.5t-178.5 74.5q-82 47 -149 113.5t-115 147.5q-49 82 -75 176.5t-26 192.5t26 192.5
t75 176.5q48 81 115 147.5t149 114.5q85 48 179 73.5t192 25.5q155 0 306.5 -74t281.5 -212l-85 -85q-65 -65 -157 -65q-68 0 -120 37q-107 72 -226 72q-80 0 -153.5 -30.5t-133.5 -87.5q-58 -58 -90 -131.5t-32 -153.5t32 -153.5zM706 1839q24 24 55.5 37t67.5 13t68.5 -13
t56.5 -37q51 -51 51 -121t-51 -121q-24 -24 -56.5 -37t-68.5 -13t-67.5 13t-55.5 37q-25 25 -38.5 56t-13.5 65q0 72 52 121z" />
    <glyph glyph-name="cdotaccent" unicode="&#x10b;" horiz-adv-x="1087" 
d="M537.5 721.5q-38.5 -15.5 -68.5 -43.5q-33 -30 -50.5 -69t-17.5 -84t17.5 -84t50.5 -69q31 -28 70 -44t78 -16q24 0 44.5 5t60.5 19q34 13 58.5 18.5t51.5 5.5q81 0 148 -67l82 -83q-102 -109 -216.5 -167t-228.5 -58q-108 0 -206.5 41.5t-176.5 117.5q-76 76 -118 175
t-42 206t42 206.5t118 175.5t175 117t208 41q114 0 228.5 -58t216.5 -167l-82 -84q-61 -63 -153 -63q-48 0 -111 22q-36 12 -57.5 17t-41.5 5q-41 0 -79.5 -15.5zM484 1445q24 24 55.5 37t67.5 13t68.5 -13t56.5 -37q51 -51 51 -121t-51 -121q-24 -24 -56.5 -37t-68.5 -13
t-67.5 13t-55.5 37q-25 25 -38.5 56t-13.5 65q0 72 52 121z" />
    <glyph glyph-name="Ccaron" unicode="&#x10c;" horiz-adv-x="1498" 
d="M341 563.5q32 -73.5 90 -131.5q57 -57 131.5 -87.5t155.5 -30.5q119 0 226 72q53 36 120 36q49 0 86.5 -15.5t70.5 -48.5l85 -85q-130 -138 -281.5 -212t-306.5 -74q-98 0 -192.5 25.5t-178.5 74.5q-82 47 -149 113.5t-115 147.5q-49 82 -75 176.5t-26 192.5t26 192.5
t75 176.5q48 81 115 147.5t149 114.5q85 48 179 73.5t192 25.5q155 0 306.5 -74t281.5 -212l-85 -85q-65 -65 -157 -65q-68 0 -120 37q-107 72 -226 72q-80 0 -153.5 -30.5t-133.5 -87.5q-58 -58 -90 -131.5t-32 -153.5t32 -153.5zM610 1875q70 0 144 -89l23 -29l32 -39
l32 40l23 29q72 88 143 88h193l-203 -264q-23 -34 -65 -52t-99 -18h-46q-119 0 -167 70l-202 264h192z" />
    <glyph glyph-name="ccaron" unicode="&#x10d;" horiz-adv-x="1087" 
d="M537.5 721.5q-38.5 -15.5 -68.5 -43.5q-33 -30 -50.5 -69t-17.5 -84t17.5 -84t50.5 -69q31 -28 70 -44t78 -16q24 0 44.5 5t60.5 19q34 13 58.5 18.5t51.5 5.5q81 0 148 -67l82 -83q-102 -109 -216.5 -167t-228.5 -58q-108 0 -206.5 41.5t-176.5 117.5q-76 76 -118 175
t-42 206t42 206.5t118 175.5t175 117t208 41q114 0 228.5 -58t216.5 -167l-82 -84q-61 -63 -153 -63q-48 0 -111 22q-36 12 -57.5 17t-41.5 5q-41 0 -79.5 -15.5zM401 1493q70 0 144 -89l23 -29l32 -39l32 40l23 29q72 88 143 88h193l-203 -264q-23 -34 -65 -52t-99 -18h-46
q-119 0 -167 70l-202 264h192z" />
    <glyph glyph-name="Dcaron" unicode="&#x10e;" horiz-adv-x="1580" 
d="M174 0v1433h593q98 0 190.5 -25t173.5 -73q110 -65 190.5 -160.5t124.5 -213t44 -245.5q0 -194 -99 -361q-47 -80 -113.5 -145.5t-146.5 -111.5q-82 -48 -175 -73t-189 -25h-593zM767 328q77 0 148 29.5t129 84.5q57 55 87.5 126t30.5 148t-30.5 147.5t-87.5 127.5
q-55 54 -127 84t-150 30h-266v-777h266zM617 1875q70 0 144 -89l23 -29l32 -39l32 40l23 29q72 88 143 88h193l-203 -264q-23 -34 -65 -52t-99 -18h-46q-119 0 -167 70l-202 264h192z" />
    <glyph glyph-name="dcaron" unicode="&#x10f;" horiz-adv-x="1357" 
d="M1133 0h-259q-12 14 -20 42t-9 51l-8 -6q-13 -18 -37 -36t-54 -32q-68 -34 -133 -34h-7q-107 0 -205 42t-171 118q-75 76 -116 174.5t-41 205.5q0 108 41.5 207t117.5 175t174.5 117t206.5 41q48 0 98 -17.5t95 -48.5v434h327v-1433zM726.5 347q51.5 33 78.5 88v178
q-27 56 -78 89t-112 33q-87 0 -149 -62q-30 -30 -46 -68.5t-16 -80.5t16 -80t46 -68q65 -62 149 -62q60 0 111.5 33zM1185 1507h151q57 0 85 -30t28 -82q0 -18 -1 -21l-19 -121q-8 -46 -42.5 -75.5t-81.5 -29.5h-120v359z" />
    <glyph glyph-name="Dcroat" unicode="&#x110;" horiz-adv-x="1580" 
d="M1490 716q0 -194 -99 -361q-47 -80 -113.5 -145.5t-146.5 -111.5q-82 -48 -175 -73t-189 -25h-593v571h-91v293h91v569h593q98 0 190.5 -25t173.5 -73q165 -99 260 -257q99 -166 99 -362zM1131.5 568q30.5 71 30.5 148t-30.5 147.5t-87.5 127.5q-55 54 -127 84t-150 30
h-266v-241h206v-293h-206v-243h266q77 0 148 29.5t129 84.5q57 55 87.5 126z" />
    <glyph glyph-name="dcroat" unicode="&#x111;" horiz-adv-x="1226" 
d="M1133 0h-259q-12 14 -20 42t-9 51l-8 -6q-13 -18 -37 -36t-54 -32q-68 -34 -133 -34h-7q-107 0 -205 42t-171 118q-75 76 -116 174.5t-41 205.5q0 108 41.5 207t117.5 175t174.5 117t206.5 41q48 0 98 -17.5t95 -48.5v146h-202v190h202v98h327v-98h95v-190h-95v-1145z
M726.5 347q51.5 33 78.5 88v178q-27 56 -78 89t-112 33q-87 0 -149 -62q-30 -30 -46 -68.5t-16 -80.5t16 -80t46 -68q65 -62 149 -62q60 0 111.5 33z" />
    <glyph glyph-name="Emacron" unicode="&#x112;" horiz-adv-x="1233" 
d="M1128 0h-954v1433h954v-306h-627v-251h510v-306h-510v-264h627v-306zM348 1833h624v-293h-624v293z" />
    <glyph glyph-name="emacron" unicode="&#x113;" 
d="M1078 446q-26 -20 -60 -30t-70 -10h-518q11 -35 33 -61t57 -47q35 -20 89 -20q23 0 40 5t68 24q40 16 63.5 22t49.5 6q45 0 80.5 -15t66.5 -46l83 -83q-93 -101 -207 -153.5t-238 -52.5q-108 0 -207.5 41.5t-175.5 117.5t-118 175t-42 206t42 206.5t118 175.5t175 117
t208 41q89 0 175.5 -32t159.5 -92q70 -58 120 -135t70 -160q5 -25 5 -65q0 -87 -67 -135zM809 640q-18 38 -43 64.5t-62 47.5q-38 20 -92 20q-93 0 -156 -75q-29 -40 -41 -74q28 17 50 17h344zM299 1493h624v-293h-624v293z" />
    <glyph glyph-name="Ebreve" unicode="&#x114;" horiz-adv-x="1233" 
d="M1128 0h-954v1433h954v-306h-627v-251h510v-306h-510v-264h627v-306zM1025 1883q0 -74 -29.5 -140t-83.5 -117q-51 -48 -113.5 -74.5t-125.5 -26.5q-62 0 -124.5 26.5t-112.5 74.5q-54 51 -83.5 117t-29.5 140h80q99 0 152 -50q28 -25 55.5 -36.5t62.5 -11.5
q38 0 62.5 10t55.5 38q31 26 67.5 38t86.5 12h80z" />
    <glyph glyph-name="ebreve" unicode="&#x115;" 
d="M1078 446q-26 -20 -60 -30t-70 -10h-518q11 -35 33 -61t57 -47q35 -20 89 -20q23 0 40 5t68 24q40 16 63.5 22t49.5 6q45 0 80.5 -15t66.5 -46l83 -83q-93 -101 -207 -153.5t-238 -52.5q-108 0 -207.5 41.5t-175.5 117.5t-118 175t-42 206t42 206.5t118 175.5t175 117
t208 41q89 0 175.5 -32t159.5 -92q70 -58 120 -135t70 -160q5 -25 5 -65q0 -87 -67 -135zM809 640q-18 38 -43 64.5t-62 47.5q-38 20 -92 20q-93 0 -156 -75q-29 -40 -41 -74q28 17 50 17h344zM816 1437l-3 -45q-5 -49 -28 -92.5t-61 -77.5q-82 -68 -186 -68h-10
q-56 2 -104.5 23t-84.5 57q-37 36 -57.5 84.5t-20.5 102.5h1v16h63q74 0 120 -40q22 -22 41.5 -31t51.5 -9q28 0 47 8.5t47 31.5q24 21 53 30.5t68 9.5h63z" />
    <glyph glyph-name="Edotaccent" unicode="&#x116;" horiz-adv-x="1233" 
d="M1128 0h-954v1433h954v-306h-627v-251h510v-306h-510v-264h627v-306zM536 1825q24 24 55.5 37t67.5 13t68.5 -13t56.5 -37q51 -51 51 -121t-51 -121q-24 -24 -56.5 -37t-68.5 -13t-67.5 13t-55.5 37q-25 25 -38.5 56t-13.5 65q0 72 52 121z" />
    <glyph glyph-name="edotaccent" unicode="&#x117;" 
d="M1078 446q-26 -20 -60 -30t-70 -10h-518q11 -35 33 -61t57 -47q35 -20 89 -20q23 0 40 5t68 24q40 16 63.5 22t49.5 6q45 0 80.5 -15t66.5 -46l83 -83q-93 -101 -207 -153.5t-238 -52.5q-108 0 -207.5 41.5t-175.5 117.5t-118 175t-42 206t42 206.5t118 175.5t175 117
t208 41q89 0 175.5 -32t159.5 -92q70 -58 120 -135t70 -160q5 -25 5 -65q0 -87 -67 -135zM809 640q-18 38 -43 64.5t-62 47.5q-38 20 -92 20q-93 0 -156 -75q-29 -40 -41 -74q28 17 50 17h344zM487 1445q24 24 55.5 37t67.5 13t68.5 -13t56.5 -37q51 -51 51 -121t-51 -121
q-24 -24 -56.5 -37t-68.5 -13t-67.5 13t-55.5 37q-25 25 -38.5 56t-13.5 65q0 72 52 121z" />
    <glyph glyph-name="Eogonek" unicode="&#x118;" horiz-adv-x="1233" 
d="M1168 -341q-65 -43 -136 -68t-134 -25q-81 0 -142.5 25.5t-94.5 72.5q-34 46 -34 109q0 105 192 227h-645v1433h954v-306h-627v-251h510v-306h-510v-264h627v-306h-127l28 -4q-102 -58 -135 -102q-22 -31 -22 -67q0 -25 18 -32q7 -4 14 -4h10q18 1 41 8q32 5 42 5
q54 0 87 -16t50 -54z" />
    <glyph glyph-name="eogonek" unicode="&#x119;" 
d="M1145 581q0 -87 -67 -135q-26 -20 -60 -30t-70 -10h-518q11 -35 33 -61t57 -47q35 -20 89 -20q23 0 40 5t68 24q40 16 63.5 22t49.5 6q45 0 80.5 -15t66.5 -46l83 -83q-74 -80 -161.5 -130t-183.5 -67q-84 -49 -116 -91q-22 -31 -22 -67q0 -25 18 -32q7 -4 14 -4h10
q18 1 41 8q32 5 42 5q54 0 87 -16t50 -54l34 -75q-65 -43 -136 -68t-134 -25q-81 0 -142.5 25.5t-94.5 72.5q-34 46 -34 109q0 101 173 214q-77 16 -147 54t-126 94q-76 76 -118 175t-42 206t42 206.5t118 175.5t175 117t208 41q89 0 175.5 -32t159.5 -92q70 -58 120 -135
t70 -160q5 -25 5 -65zM809 640q-18 38 -43 64.5t-62 47.5q-38 20 -92 20q-93 0 -156 -75q-29 -40 -41 -74q28 17 50 17h344z" />
    <glyph glyph-name="Ecaron" unicode="&#x11a;" horiz-adv-x="1233" 
d="M1128 0h-954v1433h954v-306h-627v-251h510v-306h-510v-264h627v-306zM441 1875q70 0 144 -89l23 -29l32 -39l32 40l23 29q72 88 143 88h193l-203 -264q-23 -34 -65 -52t-99 -18h-46q-119 0 -167 70l-202 264h192z" />
    <glyph glyph-name="ecaron" unicode="&#x11b;" 
d="M1078 446q-26 -20 -60 -30t-70 -10h-518q11 -35 33 -61t57 -47q35 -20 89 -20q23 0 40 5t68 24q40 16 63.5 22t49.5 6q45 0 80.5 -15t66.5 -46l83 -83q-93 -101 -207 -153.5t-238 -52.5q-108 0 -207.5 41.5t-175.5 117.5t-118 175t-42 206t42 206.5t118 175.5t175 117
t208 41q89 0 175.5 -32t159.5 -92q70 -58 120 -135t70 -160q5 -25 5 -65q0 -87 -67 -135zM809 640q-18 38 -43 64.5t-62 47.5q-38 20 -92 20q-93 0 -156 -75q-29 -40 -41 -74q28 17 50 17h344zM412 1493q70 0 144 -89l23 -29l32 -39l32 40l23 29q72 88 143 88h193l-203 -264
q-23 -34 -65 -52t-99 -18h-46q-119 0 -167 70l-202 264h192z" />
    <glyph glyph-name="Gcircumflex" unicode="&#x11c;" horiz-adv-x="1520" 
d="M1382 804v-623q-99 -102 -235 -148t-320 -46q-99 0 -193.5 25.5t-176.5 74.5q-168 99 -264 261q-49 82 -75 176.5t-26 192.5t26 192.5t75 176.5q47 80 114.5 147t149.5 115t176.5 73.5t193.5 25.5q155 0 309 -75t278 -210l-83 -86q-62 -65 -157 -65q-69 0 -121 37
q-110 72 -226 72q-80 0 -154 -30.5t-132 -87.5t-90 -131t-32 -154q0 -83 33 -157t94 -131q58 -55 133.5 -85t157.5 -30q58 0 115 11.5t102 32.5v138q-94 1 -156 57q-61 55 -61 136v115h545zM830 1707l-32 -39l-16 -19l-13 -16q-38 -47 -84 -70q-25 -13 -54 -13h-192l202 295
q47 69 167 69h46q116 0 164 -69l203 -295h-193q-44 0 -81.5 28t-84.5 89z" />
    <glyph glyph-name="gcircumflex" unicode="&#x11d;" horiz-adv-x="1124" 
d="M1086 874q-47 -42 -103 -38q12 -39 22 -90t10 -82q0 -78 -30 -152.5t-84 -131.5q-58 -61 -135 -94.5t-163 -33.5q-45 0 -89.5 10t-80.5 28q-1 0 -9 -6q-17 -15 -29 -36.5t-12 -37.5q0 -20 16.5 -29t50.5 -9q36 0 112 10t133 10q93 0 178.5 -35t134.5 -97q60 -77 60 -186
q0 -56 -27.5 -119.5t-76.5 -117.5q-57 -63 -131.5 -97t-160.5 -34q-112 0 -297 59q-87 30 -149 54l-131 51l69 146q18 37 55.5 61t81.5 24q26 0 55 -7.5t93 -29.5q57 -20 95.5 -29t75.5 -9q53 0 90 22q16 10 25.5 22.5t9.5 25.5q0 23 -34 42q-34 18 -115 18q-41 0 -88 -3
q-46 -3 -92 -3q-261 0 -261 233q0 19 9.5 46t26.5 56q41 72 98 108q-50 68 -73 131t-23 129q0 83 30.5 158.5t87.5 132.5q55 58 130 89.5t159 31.5q101 0 205 -56q21 9 65 15t84 6q68 0 140 -25q32 -11 57 -24q-18 -65 -65 -107zM493 610q9 -21 25 -36q31 -34 80 -34
q47 0 81 34q16 15 25 36t9 44q0 24 -9 45.5t-25 37.5q-34 34 -81 34q-46 0 -80 -34q-16 -16 -25 -37.5t-9 -45.5q0 -23 9 -44zM481 1205q-32 -44 -115 -44h-124l162 244q15 23 40 33.5t67 10.5h45q42 0 66 -10.5t39 -33.5l162 -244h-124q-83 0 -115 44l-42 83q-1 2 -2 4.5
t-2 5.5l-4 10l-2 12l-5 -22q-1 -3 -2 -5.5t-2 -4.5z" />
    <glyph glyph-name="Gbreve" unicode="&#x11e;" horiz-adv-x="1520" 
d="M1382 804v-623q-99 -102 -235 -148t-320 -46q-99 0 -193.5 25.5t-176.5 74.5q-168 99 -264 261q-49 82 -75 176.5t-26 192.5t26 192.5t75 176.5q47 80 114.5 147t149.5 115t176.5 73.5t193.5 25.5q155 0 309 -75t278 -210l-83 -86q-62 -65 -157 -65q-69 0 -121 37
q-110 72 -226 72q-80 0 -154 -30.5t-132 -87.5t-90 -131t-32 -154q0 -83 33 -157t94 -131q58 -55 133.5 -85t157.5 -30q58 0 115 11.5t102 32.5v138q-94 1 -156 57q-61 55 -61 136v115h545zM1167 1890q0 -74 -29.5 -140t-83.5 -117q-51 -48 -113.5 -74.5t-125.5 -26.5
q-62 0 -124.5 26.5t-112.5 74.5q-54 51 -83.5 117t-29.5 140h80q99 0 152 -50q28 -25 55.5 -36.5t62.5 -11.5q38 0 62.5 10t55.5 38q31 26 67.5 38t86.5 12h80z" />
    <glyph glyph-name="gbreve" unicode="&#x11f;" horiz-adv-x="1124" 
d="M1086 874q-47 -42 -103 -38q12 -39 22 -90t10 -82q0 -78 -30 -152.5t-84 -131.5q-58 -61 -135 -94.5t-163 -33.5q-45 0 -89.5 10t-80.5 28q-1 0 -9 -6q-17 -15 -29 -36.5t-12 -37.5q0 -20 16.5 -29t50.5 -9q36 0 112 10t133 10q93 0 178.5 -35t134.5 -97q60 -77 60 -186
q0 -56 -27.5 -119.5t-76.5 -117.5q-57 -63 -131.5 -97t-160.5 -34q-112 0 -297 59q-87 30 -149 54l-131 51l69 146q18 37 55.5 61t81.5 24q26 0 55 -7.5t93 -29.5q57 -20 95.5 -29t75.5 -9q53 0 90 22q16 10 25.5 22.5t9.5 25.5q0 23 -34 42q-34 18 -115 18q-41 0 -88 -3
q-46 -3 -92 -3q-261 0 -261 233q0 19 9.5 46t26.5 56q41 72 98 108q-50 68 -73 131t-23 129q0 83 30.5 158.5t87.5 132.5q55 58 130 89.5t159 31.5q101 0 205 -56q21 9 65 15t84 6q68 0 140 -25q32 -11 57 -24q-18 -65 -65 -107zM493 610q9 -21 25 -36q31 -34 80 -34
q47 0 81 34q16 15 25 36t9 44q0 24 -9 45.5t-25 37.5q-34 34 -81 34q-46 0 -80 -34q-16 -16 -25 -37.5t-9 -45.5q0 -23 9 -44zM838 1437l-3 -45q-5 -49 -28 -92.5t-61 -77.5q-82 -68 -186 -68h-10q-56 2 -104.5 23t-84.5 57q-37 36 -57.5 84.5t-20.5 102.5h1v16h63
q74 0 120 -40q22 -22 41.5 -31t51.5 -9q28 0 47 8.5t47 31.5q24 21 53 30.5t68 9.5h63z" />
    <glyph glyph-name="Gdotaccent" unicode="&#x120;" horiz-adv-x="1520" 
d="M1382 804v-623q-99 -102 -235 -148t-320 -46q-99 0 -193.5 25.5t-176.5 74.5q-168 99 -264 261q-49 82 -75 176.5t-26 192.5t26 192.5t75 176.5q47 80 114.5 147t149.5 115t176.5 73.5t193.5 25.5q155 0 309 -75t278 -210l-83 -86q-62 -65 -157 -65q-69 0 -121 37
q-110 72 -226 72q-80 0 -154 -30.5t-132 -87.5t-90 -131t-32 -154q0 -83 33 -157t94 -131q58 -55 133.5 -85t157.5 -30q58 0 115 11.5t102 32.5v138q-94 1 -156 57q-61 55 -61 136v115h545zM635 1825q24 24 55.5 37t67.5 13t68.5 -13t56.5 -37q51 -51 51 -121t-51 -121
q-24 -24 -56.5 -37t-68.5 -13t-67.5 13t-55.5 37q-25 25 -38.5 56t-13.5 65q0 72 52 121z" />
    <glyph glyph-name="gdotaccent" unicode="&#x121;" horiz-adv-x="1124" 
d="M1086 874q-47 -42 -103 -38q12 -39 22 -90t10 -82q0 -78 -30 -152.5t-84 -131.5q-58 -61 -135 -94.5t-163 -33.5q-45 0 -89.5 10t-80.5 28q-1 0 -9 -6q-17 -15 -29 -36.5t-12 -37.5q0 -20 16.5 -29t50.5 -9q36 0 112 10t133 10q93 0 178.5 -35t134.5 -97q60 -77 60 -186
q0 -56 -27.5 -119.5t-76.5 -117.5q-57 -63 -131.5 -97t-160.5 -34q-112 0 -297 59q-87 30 -149 54l-131 51l69 146q18 37 55.5 61t81.5 24q26 0 55 -7.5t93 -29.5q57 -20 95.5 -29t75.5 -9q53 0 90 22q16 10 25.5 22.5t9.5 25.5q0 23 -34 42q-34 18 -115 18q-41 0 -88 -3
q-46 -3 -92 -3q-261 0 -261 233q0 19 9.5 46t26.5 56q41 72 98 108q-50 68 -73 131t-23 129q0 83 30.5 158.5t87.5 132.5q55 58 130 89.5t159 31.5q101 0 205 -56q21 9 65 15t84 6q68 0 140 -25q32 -11 57 -24q-18 -65 -65 -107zM493 610q9 -21 25 -36q31 -34 80 -34
q47 0 81 34q16 15 25 36t9 44q0 24 -9 45.5t-25 37.5q-34 34 -81 34q-46 0 -80 -34q-16 -16 -25 -37.5t-9 -45.5q0 -23 9 -44zM509 1445q24 24 55.5 37t67.5 13t68.5 -13t56.5 -37q51 -51 51 -121t-51 -121q-24 -24 -56.5 -37t-68.5 -13t-67.5 13t-55.5 37q-25 25 -38.5 56
t-13.5 65q0 72 52 121z" />
    <glyph glyph-name="Gcommaaccent" unicode="&#x122;" horiz-adv-x="1520" 
d="M1382 804v-623q-99 -102 -235 -148t-320 -46q-99 0 -193.5 25.5t-176.5 74.5q-168 99 -264 261q-49 82 -75 176.5t-26 192.5t26 192.5t75 176.5q47 80 114.5 147t149.5 115t176.5 73.5t193.5 25.5q155 0 309 -75t278 -210l-83 -86q-62 -65 -157 -65q-69 0 -121 37
q-110 72 -226 72q-80 0 -154 -30.5t-132 -87.5t-90 -131t-32 -154q0 -83 33 -157t94 -131q58 -55 133.5 -85t157.5 -30q58 0 115 11.5t102 32.5v138q-94 1 -156 57q-61 55 -61 136v115h545zM684 -134h151q57 0 85 -30t28 -82q0 -18 -1 -21l-19 -121q-8 -46 -42.5 -75.5
t-81.5 -29.5h-120v359z" />
    <glyph glyph-name="gcommaaccent" unicode="&#x123;" horiz-adv-x="1124" 
d="M1086 874q-47 -42 -103 -38q12 -39 22 -90t10 -82q0 -78 -30 -152.5t-84 -131.5q-58 -61 -135 -94.5t-163 -33.5q-45 0 -89.5 10t-80.5 28q-1 0 -9 -6q-17 -15 -29 -36.5t-12 -37.5q0 -20 16.5 -29t50.5 -9q36 0 112 10t133 10q93 0 178.5 -35t134.5 -97q60 -77 60 -186
q0 -56 -27.5 -119.5t-76.5 -117.5q-57 -63 -131.5 -97t-160.5 -34q-112 0 -297 59q-87 30 -149 54l-131 51l69 146q18 37 55.5 61t81.5 24q26 0 55 -7.5t93 -29.5q57 -20 95.5 -29t75.5 -9q53 0 90 22q16 10 25.5 22.5t9.5 25.5q0 23 -34 42q-34 18 -115 18q-41 0 -88 -3
q-46 -3 -92 -3q-261 0 -261 233q0 19 9.5 46t26.5 56q41 72 98 108q-50 68 -73 131t-23 129q0 83 30.5 158.5t87.5 132.5q55 58 130 89.5t159 31.5q101 0 205 -56q21 9 65 15t84 6q68 0 140 -25q32 -11 57 -24q-18 -65 -65 -107zM493 610q9 -21 25 -36q31 -34 80 -34
q47 0 81 34q16 15 25 36t9 44q0 24 -9 45.5t-25 37.5q-34 34 -81 34q-46 0 -80 -34q-16 -16 -25 -37.5t-9 -45.5q0 -23 9 -44zM550 1372l-21 37q-38 70 -59 146t-21 138q0 94 73 200q54 76 160 182l50 -43q40 -34 57.5 -64t17.5 -62q0 -41 -20 -86l-11 -26
q-15 -35 -20.5 -58.5t-5.5 -52.5q-1 -3 -1 -17q0 -76 68 -150z" />
    <glyph glyph-name="Hcircumflex" unicode="&#x124;" horiz-adv-x="1690" 
d="M1464 0h-327v567h-637v-567h-326v1433h326v-560h637v560h327v-1433zM819 1693l-32 -39l-16 -19l-13 -16q-38 -47 -84 -70q-25 -13 -54 -13h-192l202 295q47 69 167 69h46q116 0 164 -69l203 -295h-193q-44 0 -81.5 28t-84.5 89z" />
    <glyph glyph-name="hcircumflex" unicode="&#x125;" horiz-adv-x="1260" 
d="M407 1433q35 -35 56 -87q10 -21 10 -58v-320q15 20 42 38.5t60 31.5q73 27 121 27q93 0 170 -33.5t132 -96.5q55 -64 85 -153.5t30 -194.5v-587h-327v573q0 50 -14.5 89t-39.5 60t-56 21q-69 0 -134 -33q-31 -15 -49.5 -36t-19.5 -42v-632h-327v1433h261zM546 1552
q-32 -44 -115 -44h-124l162 244q15 23 40 33.5t67 10.5h45q42 0 66 -10.5t39 -33.5l162 -244h-124q-83 0 -115 44l-42 83q-1 2 -2 4.5t-2 5.5l-4 10l-2 12l-5 -22q-1 -3 -2 -5.5t-2 -4.5z" />
    <glyph glyph-name="Hbar" unicode="&#x126;" horiz-adv-x="1639" 
d="M1464 1433v-1433h-327v567h-637v-567h-326v1433h326v-212h637v212h327zM1137 873v156h-637v-156h637z" />
    <glyph glyph-name="hbar" unicode="&#x127;" horiz-adv-x="1359" 
d="M1083 781.5q30 -89.5 30 -194.5v-587h-327v573q0 50 -14.5 89t-39.5 60t-56 21q-69 0 -134 -33q-31 -15 -49.5 -36t-19.5 -42v-632h-327v1433h261q35 -35 56 -87l5 -16h303v-191h-298v-171q15 20 42 38.5t60 31.5q73 27 121 27q93 0 170 -33.5t132 -96.5
q55 -64 85 -153.5z" />
    <glyph glyph-name="Itilde" unicode="&#x128;" horiz-adv-x="747" 
d="M538 0h-328v1433h328v-1433zM438.5 1543q-22.5 7 -56.5 25q-37 19 -56.5 25.5t-42.5 6.5q-28 0 -28 -63h-223q0 154 53.5 234.5t157.5 80.5q28 0 49.5 -6.5t52.5 -23.5q31 -18 48 -24.5t38 -6.5q37 0 37 54h239q-7 -91 -17 -140t-30 -84q-24 -43 -66.5 -64t-108.5 -21
q-24 0 -46.5 7z" />
    <glyph glyph-name="itilde" unicode="&#x129;" horiz-adv-x="657" 
d="M410 1018v-1018h-328v1018h328zM335.5 1206q-22.5 7 -56.5 25q-37 19 -56.5 25.5t-42.5 6.5q-28 0 -28 -63h-223q0 154 53.5 234.5t157.5 80.5q28 0 49.5 -6.5t52.5 -23.5q31 -18 48 -24.5t38 -6.5q37 0 37 54h239q-7 -91 -17 -140t-30 -84q-24 -43 -66.5 -64t-108.5 -21
q-24 0 -46.5 7z" />
    <glyph glyph-name="Imacron" unicode="&#x12a;" horiz-adv-x="747" 
d="M538 0h-328v1433h328v-1433zM57 1875h624v-293h-624v293z" />
    <glyph glyph-name="imacron" unicode="&#x12b;" horiz-adv-x="657" 
d="M410 1018v-1018h-328v1018h328zM-46 1493h624v-293h-624v293z" />
    <glyph glyph-name="Ibreve" unicode="&#x12c;" horiz-adv-x="747" 
d="M538 0h-328v1433h328v-1433zM720 1897q0 -74 -29.5 -140t-83.5 -117q-51 -48 -113.5 -74.5t-125.5 -26.5q-62 0 -124.5 26.5t-112.5 74.5q-54 51 -83.5 117t-29.5 140h80q99 0 152 -50q28 -25 55.5 -36.5t62.5 -11.5q38 0 62.5 10t55.5 38q31 26 67.5 38t86.5 12h80z" />
    <glyph glyph-name="ibreve" unicode="&#x12d;" horiz-adv-x="657" 
d="M410 1018v-1018h-328v1018h328zM471 1437l-3 -45q-5 -49 -28 -92.5t-61 -77.5q-82 -68 -186 -68h-10q-56 2 -104.5 23t-84.5 57q-37 36 -57.5 84.5t-20.5 102.5h1v16h63q74 0 120 -40q22 -22 41.5 -31t51.5 -9q28 0 47 8.5t47 31.5q24 21 53 30.5t68 9.5h63z" />
    <glyph glyph-name="Iogonek" unicode="&#x12e;" horiz-adv-x="739" 
d="M627 -341q-65 -43 -136 -68t-134 -25q-81 0 -142.5 25.5t-94.5 72.5q-34 46 -34 109q0 105 192 227h-68v1433h328v-1433h-78l28 -4q-102 -59 -135 -102q-22 -31 -22 -67q0 -25 18 -32q7 -4 14 -4h10q18 1 41 8q32 5 42 5q54 0 87 -16t50 -54z" />
    <glyph glyph-name="iogonek" unicode="&#x12f;" horiz-adv-x="662" 
d="M151 1265q-15 32 -15 70t15 70t42 54q26 22 62 34t75 12t75 -12t62 -34q27 -22 42 -54t15 -70t-15 -70t-42 -54q-26 -22 -62 -34t-75 -12t-75 12t-62 34q-27 22 -42 54zM602 -341q-65 -43 -136 -68t-134 -25q-81 0 -142.5 25.5t-94.5 72.5q-34 46 -34 109q0 105 192 227
h-87v1050h328v-1050h-59l28 -4q-102 -59 -135 -102q-22 -31 -22 -67q0 -25 18 -32q7 -4 14 -4h10q18 1 41 8q32 5 42 5q54 0 87 -16t50 -54z" />
    <glyph glyph-name="Idotaccent" unicode="&#x130;" horiz-adv-x="747" 
d="M538 0h-328v1433h328v-1433zM246 1825q24 24 55.5 37t67.5 13t68.5 -13t56.5 -37q51 -51 51 -121t-51 -121q-24 -24 -56.5 -37t-68.5 -13t-67.5 13t-55.5 37q-25 25 -38.5 56t-13.5 65q0 72 52 121z" />
    <glyph glyph-name="dotlessi" unicode="&#x131;" horiz-adv-x="657" 
d="M410 1018v-1018h-328v1018h328z" />
    <glyph glyph-name="IJ" unicode="&#x132;" horiz-adv-x="1831" 
d="M538 0h-328v1433h328v-1433zM1424 1433h327v-842q0 -413 -310 -539q-120 -47 -261 -47q-106 0 -202.5 42t-185.5 128l94 94q33 33 70.5 48t83.5 15q34 0 74 -15q41 -15 66 -15q97 0 160 54q84 74 84 235v842z" />
    <glyph glyph-name="ij" unicode="&#x133;" horiz-adv-x="1310" 
d="M151 1405q15 32 42 54q26 22 62 34t75 12t75 -12t62 -34q27 -22 42 -54t15 -70t-15 -70t-42 -54q-26 -22 -62 -34t-75 -12t-75 12t-62 34q-27 22 -42 54t-15 70t15 70zM494 1050v-1050h-328v1050h328zM808 1405q15 32 42 54q26 22 62 34t75 12t75 -12t62 -34
q27 -22 42 -54t15 -70t-15 -70t-42 -54q-26 -22 -62 -34t-75 -12t-75 12t-62 34q-27 22 -42 54t-15 70t15 70zM1149 1050v-976q0 -150 -99 -267t-278 -190l-57 127q-7 16 -11.5 40t-4.5 44q0 24 10.5 48t34.5 54l37 45q31 40 39 86l2 35v954h327z" />
    <glyph glyph-name="Jcircumflex" unicode="&#x134;" horiz-adv-x="887" 
d="M677 1433h327v-842q0 -413 -310 -539q-120 -47 -261 -47q-106 0 -202.5 42t-185.5 128l94 94q33 33 70.5 48t83.5 15q34 0 74 -15q41 -15 66 -15q97 0 160 54q84 74 84 235v842zM526 1699l-32 -39l-16 -19l-13 -16q-38 -47 -84 -70q-25 -13 -54 -13h-192l202 295
q47 69 167 69h46q116 0 164 -69l203 -295h-193q-44 0 -81.5 28t-84.5 89z" />
    <glyph glyph-name="jcircumflex" unicode="&#x135;" horiz-adv-x="653" 
d="M254 1205q-32 -44 -115 -44h-124l162 244q15 23 40 33.5t67 10.5h45q42 0 66 -10.5t39 -33.5l162 -244h-124q-83 0 -115 44l-42 83q-1 2 -2 4.5t-2 5.5l-4 10l-2 12l-5 -22q-1 -3 -2 -5.5t-2 -4.5zM492 998v-924q0 -71 -28.5 -139.5t-83.5 -131.5q-50 -59 -118.5 -107
t-146.5 -79l-57 127q-7 16 -11.5 40t-4.5 44q0 30 10.5 55t34.5 56l37 46q31 40 39 86l2 35v892h327z" />
    <glyph glyph-name="Kcommaaccent" unicode="&#x136;" horiz-adv-x="1516" 
d="M520 0h-327v1433h327v-1433zM1003 1322q33 49 79.5 80t91.5 31h294l-430 -653q-11 -16 -27 -27.5t-28 -15.5l8 -3q28 -16 47 -41l460 -693h-294q-54 0 -94 27t-79 86l-373 561q-21 32 -48 48l-12 7l-8 4q-8 3 -9 4l9 3q21 8 39.5 24.5t28.5 34.5zM672 -148h151
q57 0 85 -30t28 -82q0 -18 -1 -21l-19 -121q-8 -46 -42.5 -75.5t-81.5 -29.5h-120v359z" />
    <glyph glyph-name="kcommaaccent" unicode="&#x137;" horiz-adv-x="1240" 
d="M479 0h-327v1433h327v-1433zM788 937q17 47 73.5 80t117.5 33h219l-242 -466q-17 -20 -36 -31l-16 -9l-10 -3l9 -3q34 -15 53 -40l267 -498h-219q-71 0 -120 28.5t-73 84.5l-200 366q-8 15 -28 33t-38 29q29 14 50 37q12 12 16 25zM586 -129h151q57 0 85 -30t28 -82
q0 -18 -1 -21l-19 -121q-8 -46 -42.5 -75.5t-81.5 -29.5h-120v359z" />
    <glyph glyph-name="kgreenlandic" unicode="&#x138;" horiz-adv-x="1240" 
d="M479 0h-327v1050h327v-1050zM779 937q17 47 73.5 80t117.5 33h219l-242 -466q-17 -20 -36 -31l-16 -9l-10 -3l9 -3q34 -15 53 -40l267 -498h-219q-71 0 -120 28.5t-73 84.5l-200 366q-8 15 -28 33t-38 29q29 14 50 37q12 12 16 25z" />
    <glyph glyph-name="Lacute" unicode="&#x139;" horiz-adv-x="1108" 
d="M111 0v1433h327v-1127h566v-306h-893zM549 1613q-52 -69 -168 -69h-190l128 227l29 49q12 19 13 20q51 66 167 66h249z" />
    <glyph glyph-name="lacute" unicode="&#x13a;" horiz-adv-x="661" 
d="M494 1433v-1433h-328v1433h328zM507 1624q-53 -69 -168 -69h-150l15 27l60 106l42 73q16 28 20 34q5 10 9 14q51 66 167 66h209z" />
    <glyph glyph-name="Lcommaaccent" unicode="&#x13b;" horiz-adv-x="1108" 
d="M111 0v1433h327v-1127h566v-306h-893zM616 -132h151q57 0 85 -30t28 -82q0 -18 -1 -21l-19 -121q-8 -46 -42.5 -75.5t-81.5 -29.5h-120v359z" />
    <glyph glyph-name="lcommaaccent" unicode="&#x13c;" horiz-adv-x="661" 
d="M494 1433v-1433h-328v1433h328zM202 -149h151q57 0 85 -30t28 -82q0 -18 -1 -21l-19 -121q-8 -46 -42.5 -75.5t-81.5 -29.5h-120v359z" />
    <glyph glyph-name="Lcaron" unicode="&#x13d;" horiz-adv-x="1108" 
d="M111 0v1433h327v-1127h566v-306h-893zM681 1448h151q57 0 85 -30t28 -82q0 -18 -1 -21l-19 -121q-8 -46 -42.5 -75.5t-81.5 -29.5h-120v359z" />
    <glyph glyph-name="lcaron" unicode="&#x13e;" horiz-adv-x="1233" 
d="M494 1433v-1433h-328v1433h328zM656 1500h151q57 0 85 -30t28 -82q0 -18 -1 -21l-19 -121q-8 -46 -42.5 -75.5t-81.5 -29.5h-120v359z" />
    <glyph glyph-name="Ldot" unicode="&#x13f;" horiz-adv-x="1108" 
d="M111 0v1433h327v-1127h566v-306h-893zM703 775.5q16 36.5 44 64.5q28 27 64.5 42t77.5 15t78 -15t65 -42q28 -28 43.5 -64t15.5 -75t-15.5 -75.5t-43.5 -63.5q-28 -28 -65 -43t-78 -15t-77.5 15t-64.5 43q-28 27 -44 63.5t-16 75.5q0 38 16 74.5z" />
    <glyph glyph-name="ldot" unicode="&#x140;" horiz-adv-x="1339" 
d="M494 1433v-1433h-328v1433h328zM603 669.5q16 36.5 44 64.5q28 27 64.5 42t77.5 15t78 -15t65 -42q28 -28 43.5 -64t15.5 -75t-15.5 -75.5t-43.5 -63.5q-28 -28 -65 -43t-78 -15t-77.5 15t-64.5 43q-28 27 -44 63.5t-16 75.5q0 38 16 74.5z" />
    <glyph glyph-name="Lslash" unicode="&#x141;" horiz-adv-x="1108" 
d="M171 2v513l-175 -128v152q0 33 14 62t40 49l121 89v696h327v-456l195 144v-166q0 -35 -12 -56t-40 -40h1l-144 -106v-447h566v-306h-893z" />
    <glyph glyph-name="lslash" unicode="&#x142;" horiz-adv-x="532" 
d="M434 641v-641h-328v301q-16 -2 -26 -2h-216l242 329v805h328v-448q3 1 19 1h236z" />
    <glyph glyph-name="Nacute" unicode="&#x143;" horiz-adv-x="1690" 
d="M1512 0h-325l-685 991v-991h-326v1433h322q103 0 142 -57l501 -734q14 -21 33 -70q6 -13 9 -29l3 -15v905h326v-1433zM1100 1613q-52 -69 -168 -69h-190l128 227l29 49q12 19 13 20q51 66 167 66h249z" />
    <glyph glyph-name="nacute" unicode="&#x144;" horiz-adv-x="1260" 
d="M394 1050q20 -21 30.5 -56t10.5 -77q0 -22 -1 -26q12 33 41.5 65t69.5 56q43 25 90.5 39t93.5 14q92 0 166 -33t126 -97q51 -63 78 -151.5t27 -196.5v-587h-327v572q0 101 -37 141q-27 28 -71 28q-43 0 -82.5 -10t-69.5 -28q-66 -40 -66 -104v-599h-327v1050h248z
M818 1230q-53 -69 -168 -69h-150l15 27l60 106l42 73q16 28 20 34q5 10 9 14q51 66 167 66h209z" />
    <glyph glyph-name="Ncommaaccent" unicode="&#x145;" horiz-adv-x="1690" 
d="M1512 0h-325l-685 991v-991h-326v1433h322q103 0 142 -57l501 -734q14 -21 33 -70q6 -13 9 -29l3 -15v905h326v-1433zM740 -138h151q57 0 85 -30t28 -82q0 -18 -1 -21l-19 -121q-8 -46 -42.5 -75.5t-81.5 -29.5h-120v359z" />
    <glyph glyph-name="ncommaaccent" unicode="&#x146;" horiz-adv-x="1260" 
d="M394 1050q20 -21 30.5 -56t10.5 -77q0 -22 -1 -26q12 33 41.5 65t69.5 56q43 25 90.5 39t93.5 14q92 0 166 -33t126 -97q51 -63 78 -151.5t27 -196.5v-587h-327v572q0 101 -37 141q-27 28 -71 28q-43 0 -82.5 -10t-69.5 -28q-66 -40 -66 -104v-599h-327v1050h248z
M481 -111h151q57 0 85 -30t28 -82q0 -18 -1 -21l-19 -121q-8 -46 -42.5 -75.5t-81.5 -29.5h-120v359z" />
    <glyph glyph-name="Ncaron" unicode="&#x147;" horiz-adv-x="1690" 
d="M1512 0h-325l-685 991v-991h-326v1433h322q103 0 142 -57l501 -734q14 -21 33 -70q6 -13 9 -29l3 -15v905h326v-1433zM646 1875q70 0 144 -89l23 -29l32 -39l32 40l23 29q72 88 143 88h193l-203 -264q-23 -34 -65 -52t-99 -18h-46q-119 0 -167 70l-202 264h192z" />
    <glyph glyph-name="ncaron" unicode="&#x148;" horiz-adv-x="1260" 
d="M394 1050q20 -21 30.5 -56t10.5 -77q0 -22 -1 -26q12 33 41.5 65t69.5 56q43 25 90.5 39t93.5 14q92 0 166 -33t126 -97q51 -63 78 -151.5t27 -196.5v-587h-327v572q0 101 -37 141q-27 28 -71 28q-43 0 -82.5 -10t-69.5 -28q-66 -40 -66 -104v-599h-327v1050h248z
M417 1493q70 0 144 -89l23 -29l32 -39l32 40l23 29q72 88 143 88h193l-203 -264q-23 -34 -65 -52t-99 -18h-46q-119 0 -167 70l-202 264h192z" />
    <glyph glyph-name="napostrophe" unicode="&#x149;" horiz-adv-x="1263" 
d="M394 1050q20 -21 30.5 -56t10.5 -77q0 -22 -1 -26q12 33 41.5 65t69.5 56q43 25 90.5 39t93.5 14q92 0 166 -33t126 -97q51 -63 78 -151.5t27 -196.5v-587h-327v572q0 101 -37 141q-27 28 -71 28q-43 0 -82.5 -10t-69.5 -28q-66 -40 -66 -104v-599h-327v1050h248z
M146 1541h151q57 0 85 -30t28 -82q0 -18 -1 -21l-19 -121q-8 -46 -42.5 -75.5t-81.5 -29.5h-120v359z" />
    <glyph glyph-name="Eng" unicode="&#x14a;" horiz-adv-x="1690" 
d="M1185 1433h327v-1252q0 -413 -310 -539q-121 -47 -261 -47q-106 0 -202.5 42t-185.5 128l94 94q33 33 70.5 48t83.5 15q34 0 74 -15q41 -15 66 -15q79 0 136 35.5t85 108.5l-660 955v-991h-326v1433h322q103 0 142 -57l501 -734q15 -21 24.5 -44.5t19.5 -64.5v900z" />
    <glyph glyph-name="eng" unicode="&#x14b;" horiz-adv-x="1260" 
d="M1099 783.5q27 -88.5 27 -196.5v-513q0 -150 -99 -267t-278 -190l-57 127q-7 16 -11.5 40t-4.5 44q0 24 10.5 48t34.5 54l37 45q31 40 39 86l2 35v476q0 101 -37 141q-27 28 -71 28q-43 0 -82.5 -10t-69.5 -28q-66 -40 -66 -104v-599h-327v1050h248q20 -21 30.5 -56.5
t10.5 -77.5v-12q0 -10 -1 -12q13 33 42 64.5t69 55.5q43 25 90.5 39t93.5 14q92 0 166 -33t126 -97q51 -63 78 -151.5z" />
    <glyph glyph-name="Omacron" unicode="&#x14c;" horiz-adv-x="1656" 
d="M118 909.5q26 94.5 75 176.5q48 81 115 147.5t149 114.5q85 48 179 73.5t192 25.5t192 -25.5t179 -73.5q82 -48 149 -114.5t115 -147.5q49 -82 75 -176.5t26 -192.5t-26 -192.5t-75 -176.5q-48 -81 -115 -147.5t-149 -113.5q-84 -49 -178.5 -74.5t-192.5 -25.5
q-202 0 -371 100q-82 47 -149 113.5t-115 147.5q-49 82 -75 176.5t-26 192.5t26 192.5zM451 563.5q32 -73.5 90 -131.5q57 -57 131.5 -87.5t155.5 -30.5t155.5 31t131.5 87q58 58 90 131.5t32 153.5t-32 153.5t-90 131.5q-58 55 -133.5 86.5t-153.5 31.5q-80 0 -153.5 -30.5
t-133.5 -87.5q-58 -58 -90 -131.5t-32 -153.5t32 -153.5zM516 1836h624v-293h-624v293z" />
    <glyph glyph-name="omacron" unicode="&#x14d;" horiz-adv-x="1226" 
d="M113.5 732q41.5 99 117.5 175t174.5 117t206.5 41t207.5 -41.5t174.5 -116.5t116.5 -174.5t41.5 -207.5t-41 -206.5t-117 -174.5t-175 -117.5t-207 -41.5q-107 0 -206 41.5t-175 117.5t-117.5 175t-41.5 206q0 108 41.5 207zM416 444q16 -38 46 -68t68 -46t80 -16
t80.5 16t68.5 46t46 68t16 80t-16 80.5t-46 68.5t-68.5 46t-80.5 16t-80 -16t-68 -46t-46 -68.5t-16 -80.5t16 -80zM301 1493h624v-293h-624v293z" />
    <glyph glyph-name="Obreve" unicode="&#x14e;" horiz-adv-x="1656" 
d="M118 909.5q26 94.5 75 176.5q48 81 115 147.5t149 114.5q85 48 179 73.5t192 25.5t192 -25.5t179 -73.5q82 -48 149 -114.5t115 -147.5q49 -82 75 -176.5t26 -192.5t-26 -192.5t-75 -176.5q-48 -81 -115 -147.5t-149 -113.5q-84 -49 -178.5 -74.5t-192.5 -25.5
q-202 0 -371 100q-82 47 -149 113.5t-115 147.5q-49 82 -75 176.5t-26 192.5t26 192.5zM451 563.5q32 -73.5 90 -131.5q57 -57 131.5 -87.5t155.5 -30.5t155.5 31t131.5 87q58 58 90 131.5t32 153.5t-32 153.5t-90 131.5q-58 55 -133.5 86.5t-153.5 31.5q-80 0 -153.5 -30.5
t-133.5 -87.5q-58 -58 -90 -131.5t-32 -153.5t32 -153.5zM1179 1904q0 -74 -29.5 -140t-83.5 -117q-51 -48 -113.5 -74.5t-125.5 -26.5q-62 0 -124.5 26.5t-112.5 74.5q-54 51 -83.5 117t-29.5 140h80q99 0 152 -50q28 -25 55.5 -36.5t62.5 -11.5q38 0 62.5 10t55.5 38
q31 26 67.5 38t86.5 12h80z" />
    <glyph glyph-name="obreve" unicode="&#x14f;" horiz-adv-x="1226" 
d="M113.5 732q41.5 99 117.5 175t174.5 117t206.5 41t207.5 -41.5t174.5 -116.5t116.5 -174.5t41.5 -207.5t-41 -206.5t-117 -174.5t-175 -117.5t-207 -41.5q-107 0 -206 41.5t-175 117.5t-117.5 175t-41.5 206q0 108 41.5 207zM416 444q16 -38 46 -68t68 -46t80 -16
t80.5 16t68.5 46t46 68t16 80t-16 80.5t-46 68.5t-68.5 46t-80.5 16t-80 -16t-68 -46t-46 -68.5t-16 -80.5t16 -80zM818 1437l-3 -45q-5 -49 -28 -92.5t-61 -77.5q-82 -68 -186 -68h-10q-56 2 -104.5 23t-84.5 57q-37 36 -57.5 84.5t-20.5 102.5h1v16h63q74 0 120 -40
q22 -22 41.5 -31t51.5 -9q28 0 47 8.5t47 31.5q24 21 53 30.5t68 9.5h63z" />
    <glyph glyph-name="Ohungarumlaut" unicode="&#x150;" horiz-adv-x="1656" 
d="M118 909.5q26 94.5 75 176.5q48 81 115 147.5t149 114.5q85 48 179 73.5t192 25.5t192 -25.5t179 -73.5q82 -48 149 -114.5t115 -147.5q49 -82 75 -176.5t26 -192.5t-26 -192.5t-75 -176.5q-48 -81 -115 -147.5t-149 -113.5q-84 -49 -178.5 -74.5t-192.5 -25.5
q-202 0 -371 100q-82 47 -149 113.5t-115 147.5q-49 82 -75 176.5t-26 192.5t26 192.5zM451 563.5q32 -73.5 90 -131.5q57 -57 131.5 -87.5t155.5 -30.5t155.5 31t131.5 87q58 58 90 131.5t32 153.5t-32 153.5t-90 131.5q-58 55 -133.5 86.5t-153.5 31.5q-80 0 -153.5 -30.5
t-133.5 -87.5q-58 -58 -90 -131.5t-32 -153.5t32 -153.5zM1247 1600l-1 1q-51 -58 -144 -58h-221l213 302q22 31 55 46t83 15h280zM821 1612q-52 -69 -168 -69h-190l128 227l29 49q12 19 13 20q51 66 167 66h249z" />
    <glyph glyph-name="ohungarumlaut" unicode="&#x151;" horiz-adv-x="1226" 
d="M113.5 732q41.5 99 117.5 175t174.5 117t206.5 41t207.5 -41.5t174.5 -116.5t116.5 -174.5t41.5 -207.5t-41 -206.5t-117 -174.5t-175 -117.5t-207 -41.5q-107 0 -206 41.5t-175 117.5t-117.5 175t-41.5 206q0 108 41.5 207zM416 444q16 -38 46 -68t68 -46t80 -16
t80.5 16t68.5 46t46 68t16 80t-16 80.5t-46 68.5t-68.5 46t-80.5 16t-80 -16t-68 -46t-46 -68.5t-16 -80.5t16 -80zM1008 1218l-1 1q-51 -58 -144 -58h-221l213 302q22 31 55 46t83 15h280zM582 1230q-52 -69 -168 -69h-190l128 227l29 49q12 19 13 20q51 66 167 66h249z
" />
    <glyph glyph-name="OE" unicode="&#x152;" horiz-adv-x="2192" 
d="M84 909.5q26 94.5 75 176.5q48 81 115 147.5t149 114.5q85 48 179 73.5t192 25.5q66 0 145 -14h1157v-328h-678q66 -103 93 -219h468v-328h-465q-28 -124 -95 -230h677v-328h-1160q-51 -13 -142 -13q-202 0 -371 100q-82 47 -149 113.5t-115 147.5q-49 82 -75 176.5
t-26 192.5t26 192.5zM427.5 563.5q30.5 -73.5 85.5 -131.5q55 -57 127.5 -87.5t153.5 -30.5q80 0 153 31t128 87q55 58 85.5 131.5t30.5 153.5t-30.5 153.5t-85.5 131.5q-56 56 -129.5 87t-151.5 31q-80 0 -152 -30.5t-129 -87.5q-55 -58 -85.5 -131.5t-30.5 -153.5
t30.5 -153.5z" />
    <glyph glyph-name="oe" unicode="&#x153;" horiz-adv-x="2098" 
d="M113.5 732q41.5 99 117.5 175t174.5 117t206.5 41q122 0 230.5 -52t184.5 -145q76 93 186 145t233 52q89 0 175.5 -32t159.5 -92q70 -58 120 -135t70 -160q5 -25 5 -65q0 -87 -67 -135q-26 -20 -60 -30t-70 -10h-518q11 -35 33 -61t57 -47q35 -20 89 -20q23 0 40 5t68 24
q40 16 63.5 22t49.5 6q45 0 80.5 -15t66.5 -46l83 -83q-93 -101 -207 -153.5t-238 -52.5t-233.5 51.5t-185.5 144.5q-76 -93 -184 -144.5t-231 -51.5q-107 0 -206 41.5t-175 117.5t-117.5 175t-41.5 206q0 108 41.5 207zM1640 640q-18 38 -43 64.5t-62 47.5q-38 20 -92 20
q-93 0 -156 -75q-29 -40 -41 -74q28 17 50 17h344zM416 444q16 -38 46 -68t68 -46t80 -16t80.5 16t68.5 46t46 68t16 80t-16 80.5t-46 68.5t-68.5 46t-80.5 16t-80 -16t-68 -46t-46 -68.5t-16 -80.5t16 -80z" />
    <glyph glyph-name="Racute" unicode="&#x154;" horiz-adv-x="1412" 
d="M520 0h-327v1433h562q147 0 263.5 -71t179.5 -194q57 -111 57 -232q0 -126 -57 -233t-169 -187l382 -516h-279q-36 0 -79 17q-68 29 -114 94l-240 325h-179v-436zM772 765q56 0 108 54q22 25 34.5 55.5t12.5 60.5t-12.5 60.5t-34.5 55.5q-52 54 -108 54h-252v-340h252z
M771 1613q-52 -69 -168 -69h-190l128 227l29 49q12 19 13 20q51 66 167 66h249z" />
    <glyph glyph-name="racute" unicode="&#x155;" horiz-adv-x="780" 
d="M400 1050q21 -22 28 -62q5 -18 3 -36q26 51 91 81t131 30q83 0 219 -53l-23 -132q-12 -67 -64 -101t-133 -34q-67 0 -120 -32q-25 -15 -41 -34t-20 -37v-640h-327v1050h256zM415 1230q-53 -69 -168 -69h-150l15 27l60 106l42 73q16 28 20 34q5 10 9 14q51 66 167 66h209z
" />
    <glyph glyph-name="Rcommaaccent" unicode="&#x156;" horiz-adv-x="1412" 
d="M520 0h-327v1433h562q147 0 263.5 -71t179.5 -194q57 -111 57 -232q0 -126 -57 -233t-169 -187l382 -516h-279q-36 0 -79 17q-68 29 -114 94l-240 325h-179v-436zM772 765q56 0 108 54q22 25 34.5 55.5t12.5 60.5t-12.5 60.5t-34.5 55.5q-52 54 -108 54h-252v-340h252z
M571 -145h151q57 0 85 -30t28 -82q0 -18 -1 -21l-19 -121q-8 -46 -42.5 -75.5t-81.5 -29.5h-120v359z" />
    <glyph glyph-name="rcommaaccent" unicode="&#x157;" horiz-adv-x="780" 
d="M400 1050q21 -22 28 -62q5 -18 3 -36q26 51 91 81t131 30q83 0 219 -53l-23 -132q-12 -67 -64 -101t-133 -34q-67 0 -120 -32q-25 -15 -41 -34t-20 -37v-640h-327v1050h256zM166 -142h151q57 0 85 -30t28 -82q0 -18 -1 -21l-19 -121q-8 -46 -42.5 -75.5t-81.5 -29.5h-120
v359z" />
    <glyph glyph-name="Rcaron" unicode="&#x158;" horiz-adv-x="1412" 
d="M520 0h-327v1433h562q147 0 263.5 -71t179.5 -194q57 -111 57 -232q0 -126 -57 -233t-169 -187l382 -516h-279q-36 0 -79 17q-68 29 -114 94l-240 325h-179v-436zM772 765q56 0 108 54q22 25 34.5 55.5t12.5 60.5t-12.5 60.5t-34.5 55.5q-52 54 -108 54h-252v-340h252z
M507 1875q70 0 144 -89l23 -29l32 -39l32 40l23 29q72 88 143 88h193l-203 -264q-23 -34 -65 -52t-99 -18h-46q-119 0 -167 70l-202 264h192z" />
    <glyph glyph-name="rcaron" unicode="&#x159;" horiz-adv-x="780" 
d="M400 1050q21 -22 28 -62q5 -18 3 -36q26 51 91 81t131 30q83 0 219 -53l-23 -132q-12 -67 -64 -101t-133 -34q-67 0 -120 -32q-25 -15 -41 -34t-20 -37v-640h-327v1050h256zM191 1493q70 0 144 -89l23 -29l32 -39l32 40l23 29q72 88 143 88h193l-203 -264
q-23 -34 -65 -52t-99 -18h-46q-119 0 -167 70l-202 264h192z" />
    <glyph glyph-name="Sacute" unicode="&#x15a;" horiz-adv-x="1171" 
d="M504.5 1097.5q-37.5 -21.5 -37.5 -58.5q0 -30 14.5 -48.5t50.5 -32.5q31 -13 81 -27q87 -25 150 -49t115 -55q139 -82 192 -218q27 -67 27 -152q0 -99 -41.5 -186t-119.5 -153q-75 -63 -171 -97t-198 -34q-85 0 -165.5 25.5t-147.5 73.5q-67 47 -117 111.5t-78 139.5
l104 60q52 31 111 31q35 0 65 -12t80 -45t80.5 -45t67.5 -12q33 0 68 9.5t64 27.5q70 42 70 106q0 30 -16 51.5t-52 39.5q-16 8 -73 28q-169 52 -284.5 120.5t-168.5 171.5q-36 69 -36 172q0 91 37 168t107 132q65 52 148.5 79.5t171.5 27.5q110 0 218.5 -64.5t206.5 -181.5
l-101 -85q-29 -26 -60.5 -37t-74.5 -11q-27 0 -49 6t-52 20q-40 16 -54.5 20.5t-33.5 4.5q-61 0 -98.5 -21.5zM812 1606q-52 -69 -168 -69h-190l128 227l29 49q12 19 13 20q51 66 167 66h249z" />
    <glyph glyph-name="sacute" unicode="&#x15b;" horiz-adv-x="914" 
d="M173 333q53 27 104 27q34 0 65 -22l69 -48q9 -6 22.5 -9.5t25.5 -3.5q25 0 46.5 17.5t21.5 40.5v5q-2 22 -23 35q-17 11 -82 35q-78 28 -126.5 53t-84.5 57q-98 86 -98 223q0 66 29 124.5t83 103.5q52 43 116.5 67.5t128.5 24.5q73 0 144.5 -33t146.5 -96l38 -37l18 -22
l-74 -79q-35 -28 -59 -39t-51 -11q-25 0 -49 12l-13 6q-25 10 -41.5 13.5t-42.5 3.5t-42.5 -15.5t-16.5 -37.5q0 -23 17.5 -36t52.5 -20q94 -24 155.5 -47t108 -60t67.5 -93q19 -47 19 -122q0 -71 -28.5 -137t-80.5 -117q-54 -52 -126.5 -80.5t-153.5 -28.5q-57 0 -114.5 20
t-109.5 57t-96.5 91t-77.5 120zM652 1230q-53 -69 -168 -69h-150l15 27l60 106l42 73q16 28 20 34q5 10 9 14q51 66 167 66h209z" />
    <glyph glyph-name="Scircumflex" unicode="&#x15c;" horiz-adv-x="1171" 
d="M504.5 1097.5q-37.5 -21.5 -37.5 -58.5q0 -30 14.5 -48.5t50.5 -32.5q31 -13 81 -27q87 -25 150 -49t115 -55q139 -82 192 -218q27 -67 27 -152q0 -99 -41.5 -186t-119.5 -153q-75 -63 -171 -97t-198 -34q-85 0 -165.5 25.5t-147.5 73.5q-67 47 -117 111.5t-78 139.5
l104 60q52 31 111 31q35 0 65 -12t80 -45t80.5 -45t67.5 -12q33 0 68 9.5t64 27.5q70 42 70 106q0 30 -16 51.5t-52 39.5q-16 8 -73 28q-169 52 -284.5 120.5t-168.5 171.5q-36 69 -36 172q0 91 37 168t107 132q65 52 148.5 79.5t171.5 27.5q110 0 218.5 -64.5t206.5 -181.5
l-101 -85q-29 -26 -60.5 -37t-74.5 -11q-27 0 -49 6t-52 20q-40 16 -54.5 20.5t-33.5 4.5q-61 0 -98.5 -21.5zM585 1700l-32 -39l-16 -19l-13 -16q-38 -47 -84 -70q-25 -13 -54 -13h-192l202 295q47 69 167 69h46q116 0 164 -69l203 -295h-193q-44 0 -81.5 28t-84.5 89z" />
    <glyph glyph-name="scircumflex" unicode="&#x15d;" horiz-adv-x="914" 
d="M173 333q53 27 104 27q34 0 65 -22l69 -48q9 -6 22.5 -9.5t25.5 -3.5q25 0 46.5 17.5t21.5 40.5v5q-2 22 -23 35q-17 11 -82 35q-78 28 -126.5 53t-84.5 57q-98 86 -98 223q0 66 29 124.5t83 103.5q52 43 116.5 67.5t128.5 24.5q73 0 144.5 -33t146.5 -96l38 -37l18 -22
l-74 -79q-35 -28 -59 -39t-51 -11q-25 0 -49 12l-13 6q-25 10 -41.5 13.5t-42.5 3.5t-42.5 -15.5t-16.5 -37.5q0 -23 17.5 -36t52.5 -20q94 -24 155.5 -47t108 -60t67.5 -93q19 -47 19 -122q0 -71 -28.5 -137t-80.5 -117q-54 -52 -126.5 -80.5t-153.5 -28.5q-57 0 -114.5 20
t-109.5 57t-96.5 91t-77.5 120zM305 1205q-32 -44 -115 -44h-124l162 244q15 23 40 33.5t67 10.5h45q42 0 66 -10.5t39 -33.5l162 -244h-124q-83 0 -115 44l-42 83q-1 2 -2 4.5t-2 5.5l-4 10l-2 12l-5 -22q-1 -3 -2 -5.5t-2 -4.5z" />
    <glyph glyph-name="Scedilla" unicode="&#x15e;" horiz-adv-x="1171" 
d="M1097 457q0 -99 -41.5 -186t-119.5 -153q-58 -49 -130.5 -81t-151.5 -44l-1 -60q82 -16 132.5 -63.5t50.5 -110.5q0 -37 -15.5 -70t-45.5 -57q-68 -53 -186 -53q-58 0 -110 28q-25 12 -44 28v143q44 -32 102 -48q29 -9 62 -9q18 0 31 6q13 4 13 12q0 18 -14.5 27.5
t-39.5 9.5h-7q-1 -1 -24 -1q-22 0 -35 3t-22 11q-24 19 -24 71v134q-108 18 -193.5 71.5t-146.5 132.5q-49 63 -78 139l104 60q52 31 111 31q35 0 65 -12t80 -45t80.5 -45t67.5 -12q33 0 68 9.5t64 27.5q70 42 70 106q0 30 -16 51.5t-52 39.5q-16 8 -73 28
q-169 52 -284.5 120.5t-168.5 171.5q-36 69 -36 172q0 91 37 168t107 132q65 52 148.5 79.5t171.5 27.5q110 0 218.5 -64.5t206.5 -181.5l-101 -85q-29 -26 -60.5 -37t-74.5 -11q-27 0 -49 6t-52 20q-40 16 -54.5 20.5t-33.5 4.5q-61 0 -98.5 -21.5t-37.5 -58.5
q0 -30 14.5 -48.5t50.5 -32.5q31 -13 81 -27q87 -25 150 -49t115 -55q139 -82 192 -218q27 -67 27 -152z" />
    <glyph glyph-name="scedilla" unicode="&#x15f;" horiz-adv-x="914" 
d="M756 -241q0 -37 -15.5 -70t-45.5 -57q-68 -53 -186 -53q-58 0 -110 28q-25 12 -44 28v143q44 -32 102 -48q28 -9 62 -9q18 0 31 6q13 4 13 12q0 18 -14.5 27.5t-39.5 9.5h-7q-1 -1 -24 -1q-22 0 -35 3t-22 11q-24 19 -24 71v133q-150 30 -258 162q-45 54 -78 120l112 58
q53 27 104 27q34 0 65 -22l69 -48q9 -6 22.5 -9.5t25.5 -3.5q25 0 46.5 17.5t21.5 40.5v5q-2 22 -23 35q-17 11 -82 35q-78 28 -126.5 53t-84.5 57q-98 86 -98 223q0 66 29 124.5t83 103.5q52 43 116.5 67.5t128.5 24.5q73 0 144.5 -33t146.5 -96l38 -37l18 -22l-74 -79
q-35 -28 -59 -39t-51 -11q-25 0 -49 12l-13 6q-25 10 -41.5 13.5t-42.5 3.5t-42.5 -15.5t-16.5 -37.5q0 -23 17.5 -36t52.5 -20q94 -24 155.5 -47t108 -60t67.5 -93q19 -47 19 -122q0 -71 -28.5 -137t-80.5 -117q-69 -66 -165 -93l-1 -70q83 -17 131 -62q52 -49 52 -112z
" />
    <glyph glyph-name="Scaron" unicode="&#x160;" horiz-adv-x="1171" 
d="M504.5 1097.5q-37.5 -21.5 -37.5 -58.5q0 -30 14.5 -48.5t50.5 -32.5q31 -13 81 -27q87 -25 150 -49t115 -55q139 -82 192 -218q27 -67 27 -152q0 -99 -41.5 -186t-119.5 -153q-75 -63 -171 -97t-198 -34q-85 0 -165.5 25.5t-147.5 73.5q-67 47 -117 111.5t-78 139.5
l104 60q52 31 111 31q35 0 65 -12t80 -45t80.5 -45t67.5 -12q33 0 68 9.5t64 27.5q70 42 70 106q0 30 -16 51.5t-52 39.5q-16 8 -73 28q-169 52 -284.5 120.5t-168.5 171.5q-36 69 -36 172q0 91 37 168t107 132q65 52 148.5 79.5t171.5 27.5q110 0 218.5 -64.5t206.5 -181.5
l-101 -85q-29 -26 -60.5 -37t-74.5 -11q-27 0 -49 6t-52 20q-40 16 -54.5 20.5t-33.5 4.5q-61 0 -98.5 -21.5zM357 1875q70 0 144 -89l23 -29l32 -39l32 40l23 29q72 88 143 88h193l-203 -264q-23 -34 -65 -52t-99 -18h-46q-119 0 -167 70l-202 264h192z" />
    <glyph glyph-name="scaron" unicode="&#x161;" horiz-adv-x="914" 
d="M173 333q53 27 104 27q34 0 65 -22l69 -48q9 -6 22.5 -9.5t25.5 -3.5q25 0 46.5 17.5t21.5 40.5v5q-2 22 -23 35q-17 11 -82 35q-78 28 -126.5 53t-84.5 57q-98 86 -98 223q0 66 29 124.5t83 103.5q52 43 116.5 67.5t128.5 24.5q73 0 144.5 -33t146.5 -96l38 -37l18 -22
l-74 -79q-35 -28 -59 -39t-51 -11q-25 0 -49 12l-13 6q-25 10 -41.5 13.5t-42.5 3.5t-42.5 -15.5t-16.5 -37.5q0 -23 17.5 -36t52.5 -20q94 -24 155.5 -47t108 -60t67.5 -93q19 -47 19 -122q0 -71 -28.5 -137t-80.5 -117q-54 -52 -126.5 -80.5t-153.5 -28.5q-57 0 -114.5 20
t-109.5 57t-96.5 91t-77.5 120zM238 1487q70 0 144 -89l23 -29l32 -39l32 40l23 29q72 88 143 88h193l-203 -264q-23 -34 -65 -52t-99 -18h-46q-119 0 -167 70l-202 264h192z" />
    <glyph glyph-name="uni0162" unicode="&#x162;" horiz-adv-x="1215" 
d="M44 1128v306h1124v-306h-398v-1128h-327v1128h-399zM476 -158h151q57 0 85 -30t28 -82q0 -18 -1 -21l-19 -121q-8 -46 -42.5 -75.5t-81.5 -29.5h-120v359z" />
    <glyph glyph-name="uni0163" unicode="&#x163;" horiz-adv-x="782" 
d="M505 744v-374q0 -34 14.5 -49.5t39.5 -15.5l20 2l15 2q88 0 160 -87q29 -35 50 -86q-59 -59 -155 -103q-47 -21 -88.5 -33.5t-70.5 -12.5q-141 0 -228 89q-41 42 -63 99.5t-22 125.5v443h-150v164q0 59 38 94.5t112 45.5v186q0 66 40 127q14 21 41 48h247v-358h250v-307
h-250zM276 -153h151q57 0 85 -30t28 -82q0 -18 -1 -21l-19 -121q-8 -46 -42.5 -75.5t-81.5 -29.5h-120v359z" />
    <glyph glyph-name="Tcaron" unicode="&#x164;" horiz-adv-x="1215" 
d="M44 1128v306h1124v-306h-398v-1128h-327v1128h-399zM412 1875q70 0 144 -89l23 -29l32 -39l32 40l23 29q72 88 143 88h193l-203 -264q-23 -34 -65 -52t-99 -18h-46q-119 0 -167 70l-202 264h192z" />
    <glyph glyph-name="tcaron" unicode="&#x165;" horiz-adv-x="782" 
d="M505 744v-374q0 -34 14.5 -49.5t39.5 -15.5l20 2l15 2q88 0 160 -87q29 -35 50 -86q-59 -59 -155 -103q-47 -21 -88.5 -33.5t-70.5 -12.5q-141 0 -228 89q-41 42 -63 99.5t-22 125.5v443h-150v164q0 59 38 94.5t112 45.5v186q0 66 40 127q14 21 41 48h247v-358h250v-307
h-250zM782 1500h151q57 0 85 -30t28 -82q0 -18 -1 -21l-19 -121q-8 -46 -42.5 -75.5t-81.5 -29.5h-120v359z" />
    <glyph glyph-name="Tbar" unicode="&#x166;" horiz-adv-x="1215" 
d="M770 1128v-264h297v-293h-297v-571h-327v1128h-399v306h1124v-306h-398z" />
    <glyph glyph-name="tbar" unicode="&#x167;" horiz-adv-x="782" 
d="M27 662h150v82h-150v164q0 69 23 104.5t91 35.5h36v196q0 66 40 127q14 21 41 48h247v-368h250v-307h-250v-82h250v-191h-250v-121q0 -24 8 -34.5t26 -10.5l20 2l15 2q88 0 170 -87q35 -38 60 -86q-59 -59 -155 -103q-47 -21 -88.5 -33.5t-70.5 -12.5q-141 0 -228 89
q-41 42 -63 99.5t-22 125.5v170h-150v191z" />
    <glyph glyph-name="Utilde" unicode="&#x168;" horiz-adv-x="1494" 
d="M483 577q0 -53 21 -101t60 -85q37 -37 86 -57.5t102 -20.5q52 0 100.5 20.5t88.5 57.5q39 37 60 85t21 101v856h327v-856q0 -120 -45.5 -228t-129.5 -190q-84 -84 -193 -128.5t-229 -44.5q-107 0 -205.5 36.5t-178 102.5t-131.5 154q-82 136 -82 298v856h328v-856z
M815.5 1536q-22.5 7 -56.5 25q-37 19 -56.5 25.5t-42.5 6.5q-28 0 -28 -63h-223q0 154 53.5 234.5t157.5 80.5q28 0 49.5 -6.5t52.5 -23.5q31 -18 48 -24.5t38 -6.5q37 0 37 54h239q-7 -91 -17 -140t-30 -84q-24 -43 -66.5 -64t-108.5 -21q-24 0 -46.5 7z" />
    <glyph glyph-name="utilde" unicode="&#x169;" 
d="M1093 1050v-1050h-248q-20 21 -30.5 56t-10.5 77v13q0 10 1 12q-13 -34 -41.5 -65t-69.5 -56q-42 -25 -89.5 -38.5t-94.5 -13.5q-92 0 -166 33t-126 97q-51 63 -78 151.5t-27 196.5v587h327v-572q0 -99 38 -140q27 -29 70 -29t82.5 10t69.5 29q66 41 66 103v599h327z
M679.5 1206q-22.5 7 -56.5 25q-37 19 -56.5 25.5t-42.5 6.5q-28 0 -28 -63h-223q0 154 53.5 234.5t157.5 80.5q28 0 49.5 -6.5t52.5 -23.5q31 -18 48 -24.5t38 -6.5q37 0 37 54h239q-7 -91 -17 -140t-30 -84q-24 -43 -66.5 -64t-108.5 -21q-24 0 -46.5 7z" />
    <glyph glyph-name="Umacron" unicode="&#x16a;" horiz-adv-x="1494" 
d="M483 577q0 -53 21 -101t60 -85q37 -37 86 -57.5t102 -20.5q52 0 100.5 20.5t88.5 57.5q39 37 60 85t21 101v856h327v-856q0 -120 -45.5 -228t-129.5 -190q-84 -84 -193 -128.5t-229 -44.5q-107 0 -205.5 36.5t-178 102.5t-131.5 154q-82 136 -82 298v856h328v-856z
M455 1836h624v-293h-624v293z" />
    <glyph glyph-name="umacron" unicode="&#x16b;" 
d="M1093 1050v-1050h-248q-20 21 -30.5 56t-10.5 77v13q0 10 1 12q-13 -34 -41.5 -65t-69.5 -56q-42 -25 -89.5 -38.5t-94.5 -13.5q-92 0 -166 33t-126 97q-51 63 -78 151.5t-27 196.5v587h327v-572q0 -99 38 -140q27 -29 70 -29t82.5 10t69.5 29q66 41 66 103v599h327z
M299 1493h624v-293h-624v293z" />
    <glyph glyph-name="Ubreve" unicode="&#x16c;" horiz-adv-x="1494" 
d="M483 577q0 -53 21 -101t60 -85q37 -37 86 -57.5t102 -20.5q52 0 100.5 20.5t88.5 57.5q39 37 60 85t21 101v856h327v-856q0 -120 -45.5 -228t-129.5 -190q-84 -84 -193 -128.5t-229 -44.5q-107 0 -205.5 36.5t-178 102.5t-131.5 154q-82 136 -82 298v856h328v-856z
M1105 1897q0 -74 -29.5 -140t-83.5 -117q-51 -48 -113.5 -74.5t-125.5 -26.5q-62 0 -124.5 26.5t-112.5 74.5q-54 51 -83.5 117t-29.5 140h80q99 0 152 -50q28 -25 55.5 -36.5t62.5 -11.5q38 0 62.5 10t55.5 38q31 26 67.5 38t86.5 12h80z" />
    <glyph glyph-name="ubreve" unicode="&#x16d;" 
d="M1093 1050v-1050h-248q-20 21 -30.5 56t-10.5 77v13q0 10 1 12q-13 -34 -41.5 -65t-69.5 -56q-42 -25 -89.5 -38.5t-94.5 -13.5q-92 0 -166 33t-126 97q-51 63 -78 151.5t-27 196.5v587h327v-572q0 -99 38 -140q27 -29 70 -29t82.5 10t69.5 29q66 41 66 103v599h327z
M816 1437l-3 -45q-5 -49 -28 -92.5t-61 -77.5q-82 -68 -186 -68h-10q-56 2 -104.5 23t-84.5 57q-37 36 -57.5 84.5t-20.5 102.5h1v16h63q74 0 120 -40q22 -22 41.5 -31t51.5 -9q28 0 47 8.5t47 31.5q24 21 53 30.5t68 9.5h63z" />
    <glyph glyph-name="Uring" unicode="&#x16e;" horiz-adv-x="1494" 
d="M483 577q0 -53 21 -101t60 -85q37 -37 86 -57.5t102 -20.5q52 0 100.5 20.5t88.5 57.5q39 37 60 85t21 101v856h327v-856q0 -120 -45.5 -228t-129.5 -190q-84 -84 -193 -128.5t-229 -44.5q-107 0 -205.5 36.5t-178 102.5t-131.5 154q-82 136 -82 298v856h328v-856z
M536.5 1839.5q18.5 43.5 51.5 76.5t76.5 51t92.5 18q48 0 92 -18t77 -51t51.5 -76.5t18.5 -90.5t-18.5 -90.5t-51.5 -76.5q-32 -33 -76.5 -51.5t-92.5 -18.5t-91.5 18t-77.5 52q-33 33 -51.5 76.5t-18.5 90.5t18.5 90.5zM722 1714.5q14 -14.5 35 -14.5t35.5 14.5t14.5 34.5
q0 21 -14.5 35.5t-35.5 14.5t-35 -14.5t-14 -35.5q0 -20 14 -34.5z" />
    <glyph glyph-name="uring" unicode="&#x16f;" 
d="M1093 1050v-1050h-248q-20 21 -30.5 56t-10.5 77v13q0 10 1 12q-13 -34 -41.5 -65t-69.5 -56q-42 -25 -89.5 -38.5t-94.5 -13.5q-92 0 -166 33t-126 97q-51 63 -78 151.5t-27 196.5v587h327v-572q0 -99 38 -140q27 -29 70 -29t82.5 10t69.5 29q66 41 66 103v599h327z
M390.5 1457.5q18.5 43.5 51.5 76.5t76.5 51t92.5 18q48 0 92 -18t77 -51t51.5 -76.5t18.5 -90.5t-18.5 -90.5t-51.5 -76.5q-32 -33 -76.5 -51.5t-92.5 -18.5t-91.5 18t-77.5 52q-33 33 -51.5 76.5t-18.5 90.5t18.5 90.5zM576 1332.5q14 -14.5 35 -14.5t35.5 14.5t14.5 34.5
q0 21 -14.5 35.5t-35.5 14.5t-35 -14.5t-14 -35.5q0 -20 14 -34.5z" />
    <glyph glyph-name="Uhungarumlaut" unicode="&#x170;" horiz-adv-x="1494" 
d="M483 577q0 -53 21 -101t60 -85q37 -37 86 -57.5t102 -20.5q52 0 100.5 20.5t88.5 57.5q39 37 60 85t21 101v856h327v-856q0 -120 -45.5 -228t-129.5 -190q-84 -84 -193 -128.5t-229 -44.5q-107 0 -205.5 36.5t-178 102.5t-131.5 154q-82 136 -82 298v856h328v-856z
M1186 1600l-1 1q-51 -58 -144 -58h-221l213 302q22 31 55 46t83 15h280zM760 1612q-52 -69 -168 -69h-190l128 227l29 49q12 19 13 20q51 66 167 66h249z" />
    <glyph glyph-name="uhungarumlaut" unicode="&#x171;" 
d="M1093 1050v-1050h-248q-20 21 -30.5 56t-10.5 77v13q0 10 1 12q-13 -34 -41.5 -65t-69.5 -56q-42 -25 -89.5 -38.5t-94.5 -13.5q-92 0 -166 33t-126 97q-51 63 -78 151.5t-27 196.5v587h327v-572q0 -99 38 -140q27 -29 70 -29t82.5 10t69.5 29q66 41 66 103v599h327z
M1021 1218l-1 1q-51 -58 -144 -58h-221l213 302q22 31 55 46t83 15h280zM595 1230q-52 -69 -168 -69h-190l128 227l29 49q12 19 13 20q51 66 167 66h249z" />
    <glyph glyph-name="Uogonek" unicode="&#x172;" horiz-adv-x="1494" 
d="M1349 1433v-856q0 -120 -45.5 -228t-129.5 -190q-61 -61 -139 -102.5t-165 -58.5q-73 -45 -100 -82q-22 -31 -22 -67q0 -25 18 -32q7 -4 14 -4h10q18 1 41 8q32 5 42 5q54 0 87 -16t50 -54l34 -75q-65 -43 -136 -68t-134 -25q-81 0 -142.5 25.5t-94.5 72.5
q-34 46 -34 109q0 54 40 102.5t110 96.5q-186 32 -322 166q-52 49 -94 119q-82 136 -82 298v856h328v-856q0 -53 21 -101t60 -85q37 -37 86 -57.5t102 -20.5q52 0 100.5 20.5t88.5 57.5q39 37 60 85t21 101v856h327z" />
    <glyph glyph-name="uogonek" unicode="&#x173;" 
d="M1199 -337q-65 -43 -136 -68t-134 -25q-81 0 -142.5 25.5t-94.5 72.5q-34 46 -34 109q0 108 187 223q-20 21 -30.5 56t-10.5 77v13q0 10 1 12q-13 -34 -41.5 -65t-69.5 -56q-42 -25 -89.5 -38.5t-94.5 -13.5q-92 0 -166 33t-126 97q-51 63 -78 151.5t-27 196.5v587h327
v-572q0 -99 38 -140q27 -29 70 -29t82.5 10t69.5 29q66 41 66 103v599h327v-1050h-33q-102 -58 -135 -102q-22 -31 -22 -67q0 -25 18 -32q7 -4 14 -4h10q18 1 41 8q32 5 42 5q54 0 87 -16t50 -54z" />
    <glyph glyph-name="Wcircumflex" unicode="&#x174;" horiz-adv-x="2067" 
d="M1057 395l-172 -395h-284l-625 1433h210q63 0 120 -36.5t81 -90.5l332 -757q11 -27 19 -63q3 -10 5 -32q1 17 13 63q5 21 11 32l293 674l166 -442l93 -232q12 -27 17 -64q3 -16 3 -31q0 22 9 62q4 16 12 33l332 757q12 28 33 52t48 40q59 35 121 35h211l-625 -1433h-283z
M1147 1693l-32 -39l-16 -19l-13 -16q-38 -47 -84 -70q-25 -13 -54 -13h-192l202 295q47 69 167 69h46q116 0 164 -69l203 -295h-193q-44 0 -81.5 28t-84.5 89z" />
    <glyph glyph-name="wcircumflex" unicode="&#x175;" horiz-adv-x="1813" 
d="M-25 1050h210q63 0 117.5 -33.5t77.5 -89.5l191 -476q12 -30 16 -52l2 -26q0 44 18 78l318 600l296 -600q12 -28 16 -52l2 -26q0 35 18 78l193 477q24 56 77.5 89.5t117.5 33.5h208l-427 -1051h-375l-126 399l-149 -399h-375zM798 1205q-32 -44 -115 -44h-124l162 244
q15 23 40 33.5t67 10.5h45q42 0 66 -10.5t39 -33.5l162 -244h-124q-83 0 -115 44l-42 83q-1 2 -2 4.5t-2 5.5l-4 10l-2 12l-5 -22q-1 -3 -2 -5.5t-2 -4.5z" />
    <glyph glyph-name="Ycircumflex" unicode="&#x176;" horiz-adv-x="1505" 
d="M917 0h-327v608q0 17 -10 37.5t-33 52.5l-544 735h267q140 0 223 -111l227 -308q18 -27 26 -50l7 -23q12 44 33 73l226 306q74 113 224 113h269l-545 -737q-25 -33 -34 -51.5t-9 -36.5v-608zM752 1700l-32 -39l-16 -19l-13 -16q-38 -47 -84 -70q-25 -13 -54 -13h-192
l202 295q47 69 167 69h46q116 0 164 -69l203 -295h-193q-44 0 -81.5 28t-84.5 89z" />
    <glyph glyph-name="ycircumflex" unicode="&#x177;" horiz-adv-x="1202" 
d="M15 1050h215q66 0 121.5 -35.5t73.5 -91.5l129 -328q28 -66 28 -123l-2 -24l-2 -8l189 486q23 57 76 90.5t118 33.5h217l-572 -1310q-22 -59 -77 -94q-26 -17 -57 -26t-62 -9h-216l223 515zM447 1205q-32 -44 -115 -44h-124l162 244q15 23 40 33.5t67 10.5h45
q42 0 66 -10.5t39 -33.5l162 -244h-124q-83 0 -115 44l-42 83q-1 2 -2 4.5t-2 5.5l-4 10l-2 12l-5 -22q-1 -3 -2 -5.5t-2 -4.5z" />
    <glyph glyph-name="Ydieresis" unicode="&#x178;" horiz-adv-x="1505" 
d="M917 0h-327v608q0 17 -10 37.5t-33 52.5l-544 735h267q140 0 223 -111l227 -308q18 -27 26 -50l7 -23q12 44 33 73l226 306q74 113 224 113h269l-545 -737q-25 -33 -34 -51.5t-9 -36.5v-608zM429.5 1735.5q11.5 27.5 31.5 47.5q42 42 102 42q30 0 57 -11t47 -31t31 -47
t11 -57q0 -60 -42 -102q-20 -20 -47.5 -31.5t-56.5 -11.5q-59 0 -102 43t-43 102q0 29 11.5 56.5zM821.5 1735.5q11.5 27.5 31.5 47.5q42 42 102 42q30 0 57 -11t47 -31t31 -47t11 -57q0 -60 -42 -102q-20 -20 -47.5 -31.5t-56.5 -11.5q-59 0 -102 43t-43 102
q0 29 11.5 56.5z" />
    <glyph glyph-name="Zacute" unicode="&#x179;" horiz-adv-x="1298" 
d="M526 269q37 37 82 37h603v-306h-1122v149q0 94 60 163l612 815h-637v307h1099v-149q0 -40 -12.5 -80t-35.5 -70zM894 1613q-52 -69 -168 -69h-190l128 227l29 49q12 19 13 20q51 66 167 66h249z" />
    <glyph glyph-name="zacute" unicode="&#x17a;" horiz-adv-x="989" 
d="M515 277q17 12 45 24q17 5 24 5h345v-306h-859v143q0 90 57 157q107 142 171 233q85 124 153 211h-379v306h847v-142q0 -78 -48 -146zM551 1230q-53 -69 -168 -69h-150l15 27l60 106l42 73q16 28 20 34q5 10 9 14q51 66 167 66h209z" />
    <glyph glyph-name="Zdotaccent" unicode="&#x17b;" horiz-adv-x="1298" 
d="M526 269q37 37 82 37h603v-306h-1122v149q0 94 60 163l612 815h-637v307h1099v-149q0 -40 -12.5 -80t-35.5 -70zM525 1825q24 24 55.5 37t67.5 13t68.5 -13t56.5 -37q51 -51 51 -121t-51 -121q-24 -24 -56.5 -37t-68.5 -13t-67.5 13t-55.5 37q-25 25 -38.5 56t-13.5 65
q0 72 52 121z" />
    <glyph glyph-name="zdotaccent" unicode="&#x17c;" horiz-adv-x="989" 
d="M515 277q17 12 45 24q17 5 24 5h345v-306h-859v143q0 90 57 157q107 142 171 233q85 124 153 211h-379v306h847v-142q0 -78 -48 -146zM371 1445q24 24 55.5 37t67.5 13t68.5 -13t56.5 -37q51 -51 51 -121t-51 -121q-24 -24 -56.5 -37t-68.5 -13t-67.5 13t-55.5 37
q-25 25 -38.5 56t-13.5 65q0 72 52 121z" />
    <glyph glyph-name="Zcaron" unicode="&#x17d;" horiz-adv-x="1298" 
d="M526 269q37 37 82 37h603v-306h-1122v149q0 94 60 163l612 815h-637v307h1099v-149q0 -40 -12.5 -80t-35.5 -70zM496 1883q70 0 144 -89l23 -29l32 -39l32 40l23 29q72 88 143 88h193l-203 -264q-23 -34 -65 -52t-99 -18h-46q-119 0 -167 70l-202 264h192z" />
    <glyph glyph-name="zcaron" unicode="&#x17e;" horiz-adv-x="989" 
d="M515 277q17 12 45 24q17 5 24 5h345v-306h-859v143q0 90 57 157q107 142 171 233q85 124 153 211h-379v306h847v-142q0 -78 -48 -146zM318 1490q70 0 144 -89l23 -29l32 -39l32 40l23 29q72 88 143 88h193l-203 -264q-23 -34 -65 -52t-99 -18h-46q-119 0 -167 70
l-202 264h192z" />
    <glyph glyph-name="longs" unicode="&#x17f;" horiz-adv-x="655" 
d="M162 0v713h-151v185q0 37 4.5 56t18.5 33q28 31 123 31h5v108q0 69 21.5 126.5t62.5 99.5q42 43 100 65.5t127 22.5q30 0 72 -11.5t86 -31.5q45 -20 85 -46t67 -53l-50 -82q-27 -45 -73 -71t-102 -26l-18 2l-22 2q-17 0 -24 -9.5t-7 -28.5v-1085h-325z" />
    <glyph glyph-name="florin" unicode="&#x192;" horiz-adv-x="755" 
d="M11 715v164q0 75 38 105q15 14 40 21.5t72 13.5v106q0 69 21.5 126.5t62.5 99.5q42 43 100 65.5t128 22.5q30 0 71 -11.5t86 -32.5q97 -45 151 -99l-50 -81q-60 -97 -163 -97q-7 0 -21 3l-19 2q-40 0 -40 -37v-65h234v-306h-234v-741q0 -68 -21.5 -126t-61.5 -100
t-98.5 -65t-129.5 -23q-39 0 -99 21t-119 55q-59 33 -92 68l42 69h-1q27 45 54.5 61t78.5 16q18 0 36 -6l16 -4q18 -5 29 -5q15 0 26 9t13 24v747h-150z" />
    <glyph glyph-name="AEacute" unicode="&#x1fc;" horiz-adv-x="1904" 
d="M1739 0h-497q-69 0 -121 35t-74 98l-53 153h-546l-86 -164q-30 -56 -86.5 -89t-120.5 -33h-235l759 1433h1060v-328h-664l38 -107l39 -112h469v-328h-359l34 -97l24 -65l23 -68h396v-328zM780 913l-159 -299h262zM1133 1614q-52 -69 -168 -69h-190l128 227l29 49
q12 19 13 20q51 66 167 66h249z" />
    <glyph glyph-name="aeacute" unicode="&#x1fd;" horiz-adv-x="1830" 
d="M174 846q35 53 76 97q21 21 47 40q122 80 283 80q91 0 179.5 -24.5t135.5 -61.5q3 -1 3 -7q0 -9 -7 -22q52 43 95 67t95 36t125 12q90 0 175.5 -30t157.5 -86q70 -55 119.5 -129t72.5 -158q6 -19 6 -37v-21q0 -87 -67 -133q-26 -20 -60 -30t-70 -10h-535q4 -16 19 -40.5
t35 -44.5q61 -64 147 -64q28 0 56.5 7.5t52.5 21.5q47 26 106 26q45 0 80.5 -15t66.5 -46l83 -83q-93 -99 -207.5 -151.5t-237.5 -52.5q-91 0 -155.5 21t-119.5 66q-25 19 -42 47q4 -19 3 -31q-2 -7 -5 -8q-71 -38 -185.5 -66.5t-206.5 -28.5q-84 0 -157 24.5t-127 70.5
q-55 46 -85.5 111t-30.5 139q0 180 140 273t411 93h17l21 -2q-5 48 -36.5 79t-77.5 31q-20 0 -38 -6t-53 -22q-34 -17 -53 -23t-41 -6q-55 0 -126 44zM1443 652q-21 46 -49.5 78t-69.5 56q-40 25 -96 25q-109 0 -176 -88q-30 -39 -47 -88q25 17 45 17h393zM603.5 273
q55.5 13 102.5 37l-1 7q-22 52 -33 111l-66 2q-74 0 -130 -27q-25 -12 -39 -28t-14 -33q0 -35 19.5 -58.5t54.5 -23.5q51 0 106.5 13zM940 1230q-53 -69 -168 -69h-150l15 27l60 106l42 73q16 28 20 34q5 10 9 14q51 66 167 66h209z" />
    <glyph glyph-name="Oslashacute" unicode="&#x1fe;" horiz-adv-x="1648" 
d="M1010 1613q-52 -69 -168 -69h-190l128 227l29 49q12 19 13 20q51 66 167 66h249zM118 909.5q26 94.5 75 176.5q48 81 115 147.5t149 114.5q85 48 179 73.5t192 25.5q186 0 348 -87l79 108q21 30 37.5 40t46.5 10h200l-202 -275q111 -108 169 -242t58 -284
q0 -98 -26 -192.5t-75 -176.5q-48 -81 -115 -147.5t-149 -113.5q-84 -49 -178.5 -74.5t-192.5 -25.5q-187 0 -349 87l-79 -108q-43 -55 -109 -55h-178l205 279q-109 103 -167.5 239.5t-58.5 287.5q0 98 26 192.5zM515 460l463 631q-76 29 -150 29q-80 0 -153.5 -30.5
t-133.5 -87.5q-58 -58 -90 -131.5t-32 -153.5q0 -143 96 -257zM983.5 345q74.5 31 131.5 87q58 58 90 131.5t32 153.5q0 142 -97 257l-463 -631q76 -29 151 -29q81 0 155.5 31z" />
    <glyph glyph-name="oslashacute" unicode="&#x1ff;" horiz-adv-x="1226" 
d="M785 1230q-53 -69 -168 -69h-150l15 27l60 106l42 73q16 28 20 34q5 10 9 14q51 66 167 66h209zM1000 901q73 -75 112.5 -172.5t39.5 -203.5q0 -108 -41 -206.5t-117 -174.5t-175 -117.5t-207 -41.5q-130 0 -242 58l-71 -97q-43 -55 -109 -55h-148l187 255
q-75 76 -116 174t-41 205q0 108 41.5 207t117.5 175t174.5 117t206.5 41q131 0 247 -59l74 101q21 30 37.5 40t46.5 10h170zM429 419l228 311q-32 5 -47 5q-42 0 -80 -16t-68 -46t-46 -68.5t-16 -80.5q0 -55 29 -105zM796 624l-224 -306q13 -4 38 -4q42 0 80.5 16t68.5 46
t46 68t16 80q0 54 -25 100z" />
    <glyph glyph-name="Scommaaccent" unicode="&#x218;" horiz-adv-x="1171" 
d="M504.5 1097.5q-37.5 -21.5 -37.5 -58.5q0 -30 14.5 -48.5t50.5 -32.5q31 -13 81 -27q87 -25 150 -49t115 -55q139 -82 192 -218q27 -67 27 -152q0 -99 -41.5 -186t-119.5 -153q-75 -63 -171 -97t-198 -34q-85 0 -165.5 25.5t-147.5 73.5q-67 47 -117 111.5t-78 139.5
l104 60q52 31 111 31q35 0 65 -12t80 -45t80.5 -45t67.5 -12q33 0 68 9.5t64 27.5q70 42 70 106q0 30 -16 51.5t-52 39.5q-16 8 -73 28q-169 52 -284.5 120.5t-168.5 171.5q-36 69 -36 172q0 91 37 168t107 132q65 52 148.5 79.5t171.5 27.5q110 0 218.5 -64.5t206.5 -181.5
l-101 -85q-29 -26 -60.5 -37t-74.5 -11q-27 0 -49 6t-52 20q-40 16 -54.5 20.5t-33.5 4.5q-61 0 -98.5 -21.5zM459 -148h151q57 0 85 -30t28 -82q0 -18 -1 -21l-19 -121q-8 -46 -42.5 -75.5t-81.5 -29.5h-120v359z" />
    <glyph glyph-name="scommaaccent" unicode="&#x219;" horiz-adv-x="914" 
d="M173 333q53 27 104 27q34 0 65 -22l69 -48q9 -6 22.5 -9.5t25.5 -3.5q25 0 46.5 17.5t21.5 40.5v5q-2 22 -23 35q-17 11 -82 35q-78 28 -126.5 53t-84.5 57q-98 86 -98 223q0 66 29 124.5t83 103.5q52 43 116.5 67.5t128.5 24.5q73 0 144.5 -33t146.5 -96l38 -37l18 -22
l-74 -79q-35 -28 -59 -39t-51 -11q-25 0 -49 12l-13 6q-25 10 -41.5 13.5t-42.5 3.5t-42.5 -15.5t-16.5 -37.5q0 -23 17.5 -36t52.5 -20q94 -24 155.5 -47t108 -60t67.5 -93q19 -47 19 -122q0 -71 -28.5 -137t-80.5 -117q-54 -52 -126.5 -80.5t-153.5 -28.5q-57 0 -114.5 20
t-109.5 57t-96.5 91t-77.5 120zM332 -120h151q57 0 85 -30t28 -82q0 -18 -1 -21l-19 -121q-8 -46 -42.5 -75.5t-81.5 -29.5h-120v359z" />
    <glyph glyph-name="circumflex" unicode="&#x2c6;" horiz-adv-x="605" 
d="M249 1205q-32 -44 -115 -44h-124l162 244q15 23 40 33.5t67 10.5h45q42 0 66 -10.5t39 -33.5l162 -244h-124q-83 0 -115 44l-42 83q-1 2 -2 4.5t-2 5.5l-4 10l-2 12l-5 -22q-1 -3 -2 -5.5t-2 -4.5z" />
    <glyph glyph-name="caron" unicode="&#x2c7;" horiz-adv-x="605" 
d="M291 1322l4 -10q3 -8 5 -22l2 12l4 10l4 10l42 83q32 44 115 44h124l-162 -244q-15 -23 -39 -33.5t-66 -10.5h-45q-42 0 -67 10.5t-40 33.5l-162 244h124q83 0 115 -44z" />
    <glyph glyph-name="uni02C9" unicode="&#x2c9;" horiz-adv-x="614" 
d="M30 1415h623v-306h-623v306z" />
    <glyph glyph-name="breve" unicode="&#x2d8;" horiz-adv-x="759" 
d="M584 1437l-3 -45q-5 -49 -28 -92.5t-61 -77.5q-82 -68 -186 -68h-10q-56 2 -104.5 23t-84.5 57q-37 36 -57.5 84.5t-20.5 102.5h1v16h63q74 0 120 -40q22 -22 41.5 -31t51.5 -9q28 0 47 8.5t47 31.5q24 21 53 30.5t68 9.5h63z" />
    <glyph glyph-name="dotaccent" unicode="&#x2d9;" horiz-adv-x="667" 
d="M223 1445q24 24 55.5 37t67.5 13t68.5 -13t56.5 -37q51 -51 51 -121t-51 -121q-24 -24 -56.5 -37t-68.5 -13t-67.5 13t-55.5 37q-25 25 -38.5 56t-13.5 65q0 72 52 121z" />
    <glyph glyph-name="ring" unicode="&#x2da;" horiz-adv-x="722" 
d="M138.5 1457.5q18.5 43.5 51.5 76.5t76.5 51t92.5 18q48 0 92 -18t77 -51t51.5 -76.5t18.5 -90.5t-18.5 -90.5t-51.5 -76.5q-32 -33 -76.5 -51.5t-92.5 -18.5t-91.5 18t-77.5 52q-33 33 -51.5 76.5t-18.5 90.5t18.5 90.5zM324 1332.5q14 -14.5 35 -14.5t35.5 14.5
t14.5 34.5q0 21 -14.5 35.5t-35.5 14.5t-35 -14.5t-14 -35.5q0 -20 14 -34.5z" />
    <glyph glyph-name="ogonek" unicode="&#x2db;" horiz-adv-x="750" 
d="M507 -4q-102 -59 -135 -102q-22 -31 -22 -67q0 -25 18 -32q7 -4 14 -4h10q18 1 41 8q32 5 42 5q54 0 87 -16t50 -54l34 -75q-65 -43 -136 -68t-134 -25q-81 0 -142.5 25.5t-94.5 72.5q-34 46 -34 109q0 114 227 248z" />
    <glyph glyph-name="tilde" unicode="&#x2dc;" horiz-adv-x="614" 
d="M368.5 1206q-22.5 7 -56.5 25q-37 19 -56.5 25.5t-42.5 6.5q-28 0 -28 -63h-223q0 154 53.5 234.5t157.5 80.5q28 0 49.5 -6.5t52.5 -23.5q31 -18 48 -24.5t38 -6.5q37 0 37 54h239q-7 -91 -17 -140t-30 -84q-24 -43 -66.5 -64t-108.5 -21q-24 0 -46.5 7z" />
    <glyph glyph-name="hungarumlaut" unicode="&#x2dd;" horiz-adv-x="1024" 
d="M878 1218l-1 1q-51 -58 -144 -58h-221l213 302q22 31 55 46t83 15h280zM452 1230q-52 -69 -168 -69h-190l128 227l29 49q12 19 13 20q51 66 167 66h249z" />
    <glyph glyph-name="Beta" unicode="&#x392;" horiz-adv-x="1418" 
 />
    <glyph glyph-name="pi" unicode="&#x3c0;" horiz-adv-x="1310" 
d="M57 745v306h1092v-306h-169l-12 -74q-45 -226 -45 -313q0 -61 19 -71q10 -7 30 -7q19 0 51 6q19 2 20 1q44 -5 68.5 -22t59.5 -68l-14 -90q-54 -54 -120.5 -87t-123.5 -33q-89 0 -152.5 43t-94.5 121q-31 75 -31 177q0 72 9 168t29 249h-168v-745h-306v745h-142z" />
    <glyph glyph-name="Wgrave" unicode="&#x1e80;" horiz-adv-x="2067" 
d="M1057 395l-172 -395h-284l-625 1433h210q63 0 120 -36.5t81 -90.5l332 -757q11 -27 19 -63q3 -10 5 -32q1 17 13 63q5 21 11 32l293 674l166 -442l93 -232q12 -27 17 -64q3 -16 3 -31q0 22 9 62q4 16 12 33l332 757q12 28 33 52t48 40q59 35 121 35h211l-625 -1433h-283z
M748 1905h249q116 0 167 -66l14 -20l28 -49l128 -227h-190q-115 0 -168 69z" />
    <glyph glyph-name="wgrave" unicode="&#x1e81;" horiz-adv-x="1813" 
d="M-25 1050h210q63 0 117.5 -33.5t77.5 -89.5l191 -476q12 -30 16 -52l2 -26q0 44 18 78l318 600l296 -600q12 -28 16 -52l2 -26q0 35 18 78l193 477q24 56 77.5 89.5t117.5 33.5h208l-427 -1051h-375l-126 399l-149 -399h-375zM567 1522h249q116 0 167 -66l14 -20l28 -49
l128 -227h-190q-115 0 -168 69z" />
    <glyph glyph-name="Wacute" unicode="&#x1e82;" horiz-adv-x="2067" 
d="M1057 395l-172 -395h-284l-625 1433h210q63 0 120 -36.5t81 -90.5l332 -757q11 -27 19 -63q3 -10 5 -32q1 17 13 63q5 21 11 32l293 674l166 -442l93 -232q12 -27 17 -64q3 -16 3 -31q0 22 9 62q4 16 12 33l332 757q12 28 33 52t48 40q59 35 121 35h211l-625 -1433h-283z
M1106 1613q-52 -69 -168 -69h-190l128 227l29 49q12 19 13 20q51 66 167 66h249z" />
    <glyph glyph-name="wacute" unicode="&#x1e83;" horiz-adv-x="1813" 
d="M-25 1050h210q63 0 117.5 -33.5t77.5 -89.5l191 -476q12 -30 16 -52l2 -26q0 44 18 78l318 600l296 -600q12 -28 16 -52l2 -26q0 35 18 78l193 477q24 56 77.5 89.5t117.5 33.5h208l-427 -1051h-375l-126 399l-149 -399h-375zM1005 1230q-53 -69 -168 -69h-150l15 27
l60 106l42 73q16 28 20 34q5 10 9 14q51 66 167 66h209z" />
    <glyph glyph-name="Wdieresis" unicode="&#x1e84;" horiz-adv-x="2067" 
d="M1057 395l-172 -395h-284l-625 1433h210q63 0 120 -36.5t81 -90.5l332 -757q11 -27 19 -63q3 -10 5 -32q1 17 13 63q5 21 11 32l293 674l166 -442l93 -232q12 -27 17 -64q3 -16 3 -31q0 22 9 62q4 16 12 33l332 757q12 28 33 52t48 40q59 35 121 35h211l-625 -1433h-283z
M710.5 1737.5q11.5 27.5 31.5 47.5q42 42 102 42q30 0 57 -11t47 -31t31 -47t11 -57q0 -60 -42 -102q-20 -20 -47.5 -31.5t-56.5 -11.5q-59 0 -102 43t-43 102q0 29 11.5 56.5zM1102.5 1737.5q11.5 27.5 31.5 47.5q42 42 102 42q30 0 57 -11t47 -31t31 -47t11 -57
q0 -60 -42 -102q-20 -20 -47.5 -31.5t-56.5 -11.5q-59 0 -102 43t-43 102q0 29 11.5 56.5z" />
    <glyph glyph-name="wdieresis" unicode="&#x1e85;" horiz-adv-x="1813" 
d="M-25 1050h210q63 0 117.5 -33.5t77.5 -89.5l191 -476q12 -30 16 -52l2 -26q0 44 18 78l318 600l296 -600q12 -28 16 -52l2 -26q0 35 18 78l193 477q24 56 77.5 89.5t117.5 33.5h208l-427 -1051h-375l-126 399l-149 -399h-375zM640.5 1372.5q11.5 27.5 31.5 47.5
q42 42 102 42q30 0 57 -11t47 -31t31 -47t11 -57q0 -60 -42 -102q-20 -20 -47.5 -31.5t-56.5 -11.5q-59 0 -102 43t-43 102q0 29 11.5 56.5zM1032.5 1372.5q11.5 27.5 31.5 47.5q42 42 102 42q30 0 57 -11t47 -31t31 -47t11 -57q0 -60 -42 -102q-20 -20 -47.5 -31.5
t-56.5 -11.5q-59 0 -102 43t-43 102q0 29 11.5 56.5z" />
    <glyph glyph-name="Ygrave" unicode="&#x1ef2;" horiz-adv-x="1505" 
d="M917 0h-327v608q0 17 -10 37.5t-33 52.5l-544 735h267q140 0 223 -111l227 -308q18 -27 26 -50l7 -23q12 44 33 73l226 306q74 113 224 113h269l-545 -737q-25 -33 -34 -51.5t-9 -36.5v-608zM309 1898h249q116 0 167 -66l14 -20l28 -49l128 -227h-190q-115 0 -168 69z
" />
    <glyph glyph-name="ygrave" unicode="&#x1ef3;" horiz-adv-x="1202" 
d="M15 1050h215q66 0 121.5 -35.5t73.5 -91.5l129 -328q28 -66 28 -123l-2 -24l-2 -8l189 486q23 57 76 90.5t118 33.5h217l-572 -1310q-22 -59 -77 -94q-26 -17 -57 -26t-62 -9h-216l223 515zM196 1522h249q116 0 167 -66l14 -20l28 -49l128 -227h-190q-115 0 -168 69z" />
    <glyph glyph-name="endash" unicode="&#x2013;" horiz-adv-x="1199" 
d="M1034 518h-879v293h879v-293z" />
    <glyph glyph-name="emdash" unicode="&#x2014;" horiz-adv-x="1722" 
d="M1574 518h-1419v293h1419v-293z" />
    <glyph glyph-name="quoteleft" unicode="&#x2018;" horiz-adv-x="595" 
d="M180 990l-21 37q-38 70 -59 146t-21 138q0 94 73 200q54 76 160 182l50 -43q40 -34 57.5 -64t17.5 -62q0 -41 -20 -86l-11 -26q-15 -35 -20.5 -58.5t-5.5 -52.5q-1 -3 -1 -17q0 -76 68 -150z" />
    <glyph glyph-name="quoteright" unicode="&#x2019;" horiz-adv-x="580" 
d="M363 1666l21 -36q37 -67 58.5 -146t21.5 -139q0 -49 -18 -97t-55 -103q-55 -77 -160 -182l-50 43q-40 34 -57.5 64t-17.5 62q0 41 20 87l11 25q15 35 20.5 58.5t5.5 52.5q1 3 1 17q0 73 -68 150z" />
    <glyph glyph-name="quotesinglbase" unicode="&#x201a;" horiz-adv-x="569" 
d="M363 410l21 -36q37 -67 58.5 -146t21.5 -139q0 -49 -18 -97t-55 -103q-55 -77 -160 -182l-50 43q-40 34 -57.5 64t-17.5 62q0 41 20 87l11 25q15 35 20.5 58.5t5.5 52.5q1 3 1 17q0 73 -68 150z" />
    <glyph glyph-name="quotedblleft" unicode="&#x201c;" horiz-adv-x="1046" 
d="M162 990l-21 37q-38 70 -59 146t-21 138q0 94 73 200q54 76 160 182l50 -43q40 -34 57.5 -64t17.5 -62q0 -41 -20 -86l-11 -26q-15 -35 -20.5 -58.5t-5.5 -52.5q-1 -3 -1 -17q0 -76 68 -150zM592 990l-21 37q-38 70 -59 146t-21 138q0 94 73 200q54 76 160 182l50 -43
q40 -34 57.5 -64t17.5 -62q0 -41 -20 -86l-11 -26q-15 -35 -20.5 -58.5t-5.5 -52.5q-1 -3 -1 -17q0 -76 68 -150z" />
    <glyph glyph-name="quotedblright" unicode="&#x201d;" horiz-adv-x="1050" 
d="M358 1693l21 -36q37 -67 58.5 -146t21.5 -139q0 -49 -18 -97t-55 -103q-55 -77 -160 -182l-50 43q-40 34 -57.5 64t-17.5 62q0 41 20 87l11 25q15 35 20.5 58.5t5.5 52.5q1 3 1 17q0 73 -68 150zM788 1693l21 -36q37 -67 58.5 -146t21.5 -139q0 -49 -18 -97t-55 -103
q-55 -77 -160 -182l-50 43q-40 34 -57.5 64t-17.5 62q0 41 20 87l11 25q15 35 20.5 58.5t5.5 52.5q1 3 1 17q0 73 -68 150z" />
    <glyph glyph-name="quotedblbase" unicode="&#x201e;" horiz-adv-x="1096" 
d="M363 410l21 -36q37 -67 58.5 -146t21.5 -139q0 -49 -18 -97t-55 -103q-55 -77 -160 -182l-50 43q-40 34 -57.5 64t-17.5 62q0 41 20 87l11 25q15 35 20.5 58.5t5.5 52.5q1 3 1 17q0 73 -68 150zM803 410l21 -36q37 -67 58.5 -146t21.5 -139q0 -49 -18 -97t-55 -103
q-55 -77 -160 -182l-50 43q-40 34 -57.5 64t-17.5 62q0 41 20 87l11 25q15 35 20.5 58.5t5.5 52.5q1 3 1 17q0 73 -68 150z" />
    <glyph glyph-name="dagger" unicode="&#x2020;" horiz-adv-x="1160" 
d="M467 542l25 280h-354v238h354v373h238v-373h358v-238h-356l26 -280v-885h-291v885z" />
    <glyph glyph-name="daggerdbl" unicode="&#x2021;" horiz-adv-x="1239" 
d="M468 586l25 236h-354v238h354v373h238v-373h358v-238h-356l25 -236v-71l-25 -246h356v-238h-358v-373h-238v373h-354v238h354l-25 246v71z" />
    <glyph glyph-name="bullet" unicode="&#x2022;" horiz-adv-x="1282" 
d="M270.5 781.5q29.5 69.5 83.5 123.5q55 53 124.5 81.5t146.5 28.5q76 0 146.5 -29t125.5 -81q54 -54 83.5 -123.5t29.5 -144.5q0 -77 -29.5 -146.5t-83.5 -121.5q-52 -52 -123.5 -81.5t-148.5 -29.5q-78 0 -147.5 28.5t-123.5 82.5q-54 52 -83.5 121.5t-29.5 146.5
q0 75 29.5 144.5z" />
    <glyph glyph-name="ellipsis" unicode="&#x2026;" horiz-adv-x="1614" 
d="M98.5 260q15.5 36 43.5 63q27 27 64 41.5t78 14.5t78 -14.5t65 -41.5q28 -28 43.5 -64.5t15.5 -75.5t-15.5 -75.5t-43.5 -63.5t-64.5 -42t-78.5 -15t-78.5 15t-63.5 42q-59 59 -59 139q0 41 15.5 77zM610 258.5q16 36.5 44 64.5q27 27 64 41.5t78 14.5t78 -14.5t65 -41.5
q28 -28 43.5 -64.5t15.5 -75.5t-15.5 -75.5t-43.5 -63.5t-64.5 -42t-78.5 -15t-78.5 15t-63.5 42q-28 27 -44 63.5t-16 75.5t16 75.5zM1122 258.5q16 36.5 44 64.5q27 27 64 41.5t78 14.5t78 -14.5t65 -41.5q28 -28 43.5 -64.5t15.5 -75.5t-15.5 -75.5t-43.5 -63.5
t-64.5 -42t-78.5 -15t-78.5 15t-63.5 42q-28 27 -44 63.5t-16 75.5t16 75.5z" />
    <glyph glyph-name="perthousand" unicode="&#x2030;" horiz-adv-x="2414" 
d="M96.5 1223.5q25.5 67.5 71.5 118.5q48 52 111.5 79.5t137.5 27.5q73 0 137 -27.5t113 -79.5q46 -51 71.5 -118.5t25.5 -141.5q0 -73 -25.5 -140t-71.5 -119q-49 -52 -113 -79.5t-137 -27.5q-74 0 -137.5 27.5t-111.5 79.5q-46 52 -71.5 119t-25.5 140q0 74 25.5 141.5z
M551 90q-67 -90 -176 -90h-256l1006 1343q68 90 176 90h256zM354 1013q24 -28 63 -28t63.5 27.5t24.5 70.5q0 42 -24.5 69.5t-63.5 27.5t-63 -27.5t-24 -69.5t24 -70zM945.5 493.5q25.5 67.5 71.5 118.5q48 52 111.5 79.5t137.5 27.5q73 0 137 -27.5t113 -79.5
q46 -51 71.5 -118.5t25.5 -141.5q0 -73 -25.5 -140t-71.5 -119q-49 -52 -113 -79.5t-137 -27.5q-74 0 -137.5 27.5t-111.5 79.5q-46 52 -71.5 119t-25.5 140q0 74 25.5 141.5zM1673.5 493.5q25.5 67.5 71.5 118.5q48 52 111.5 79.5t137.5 27.5q73 0 137 -27.5t113 -79.5
q46 -51 71.5 -118.5t25.5 -141.5q0 -73 -25.5 -140t-71.5 -119q-49 -52 -113 -79.5t-137 -27.5q-74 0 -137.5 27.5t-111.5 79.5q-46 52 -71.5 119t-25.5 140q0 74 25.5 141.5zM1203 283q24 -28 63 -28t63.5 27.5t24.5 70.5q0 42 -24.5 69.5t-63.5 27.5t-63 -27.5t-24 -69.5
t24 -70zM1931 283q24 -28 63 -28t63.5 27.5t24.5 70.5q0 42 -24.5 69.5t-63.5 27.5t-63 -27.5t-24 -69.5t24 -70z" />
    <glyph glyph-name="guilsinglleft" unicode="&#x2039;" horiz-adv-x="804" 
d="M289 879q24 56 80 91t120 35h168l-181 -441q-16 -24 -22 -29q-6 -6 -10 -7l13 -9q13 -13 19 -25l181 -441h-168q-62 0 -119 36t-81 91l-121 306q-10 25 -19 34l-11 9q8 5 17 19.5t13 27.5z" />
    <glyph glyph-name="guilsinglright" unicode="&#x203a;" horiz-adv-x="790" 
d="M616 576q11 -28 21 -38q5 -6 9 -9l-10 -9q-9 -8 -20 -34l-121 -306q-24 -54 -81.5 -90.5t-118.5 -36.5h-168l181 441q5 11 11 17l8 8l13 9q-8 3 -18 14.5t-14 21.5l-181 441h168q62 0 119 -35.5t81 -90.5z" />
    <glyph glyph-name="fraction" unicode="&#x2044;" horiz-adv-x="576" 
d="M383 1308v-2q58 127 178 127h207l-626 -1309q-26 -55 -81.5 -89.5t-118.5 -34.5h-183z" />
    <glyph glyph-name="Euro" unicode="&#x20ac;" horiz-adv-x="1537" 
d="M14 891h122q30 119 96 220.5t162 177.5q97 76 214.5 117t242.5 41q155 0 306.5 -74t281.5 -212l-85 -85q-65 -65 -157 -65q-68 0 -120 37q-107 72 -226 72q-118 0 -218 -64q-49 -30 -87 -72.5t-63 -92.5h219v-146h-259q-1 -2 -1 -14v-33l2 -20h258v-146h-213
q54 -99 152.5 -158.5t209.5 -59.5q120 0 226 72q53 36 120 36q49 0 86.5 -15.5t70.5 -48.5l85 -85q-130 -138 -281.5 -212t-306.5 -74q-125 0 -240.5 40t-212.5 115q-95 73 -161.5 173t-97.5 217h-125v146h102q-1 3 -1 20v47h-101v146z" />
    <glyph glyph-name="trademark" unicode="&#x2122;" horiz-adv-x="1624" 
d="M29 1252v182h575v-183h-197v-447h-182v447zM1462 804h-183v271l-66 -136l-67 -135h-145l-132 266v-266h-183v630h121q29 0 61 -21t45 -46l160 -285l163 285q15 30 44 48.5t61 18.5h121v-630z" />
    <glyph glyph-name="uni2126" unicode="&#x2126;" horiz-adv-x="1454" 
d="M686 0h-598v306h291q-135 98 -211.5 233t-76.5 282q0 173 87 317q43 71 101 128t126 96q148 85 318 85q126 0 242.5 -48t204.5 -135q88 -88 136.5 -203t48.5 -240q0 -149 -78 -284t-213 -231h291v-306h-599v514q59 6 112.5 35t96.5 78q40 47 62 97t22 97
q0 61 -24.5 118.5t-68.5 103.5q-46 46 -106 72t-124 26q-68 0 -127.5 -25t-107.5 -73q-45 -46 -69.5 -103t-24.5 -119q0 -53 23.5 -106.5t65.5 -96.5q43 -43 95 -70.5t105 -33.5v-514z" />
    <glyph glyph-name="partialdiff" unicode="&#x2202;" horiz-adv-x="1261" 
d="M114 753.5q41 100.5 116 178.5q73 76 171.5 121t206.5 50q65 1 130 -14q33 -8 58 -24q-59 50 -135.5 83.5t-177.5 57.5q-89 20 -178 27l51 323q284 -24 474 -139q152 -94 237 -238t115 -341q18 -118 18 -287v-5q0 -113 -43 -216t-122 -179q-79 -78 -182.5 -121
t-216.5 -43q-151 0 -281.5 75.5t-206.5 204.5q-75 128 -75 278q0 108 41 208.5zM425 456.5q18 -43.5 49 -77.5q31 -33 73 -51t89 -18t89.5 18t73.5 51q31 34 49 77.5t18 88.5q0 48 -17.5 91t-49.5 76q-31 33 -73.5 51t-89.5 18t-89 -18t-73 -51q-32 -33 -49.5 -76t-17.5 -91
q0 -45 18 -88.5z" />
    <glyph glyph-name="uni2206" unicode="&#x2206;" horiz-adv-x="1464" 
d="M591 1433h283l625 -1433h-1534zM748 952q-6 13 -13 41l-3 16q-1 -12 -8 -34l-8 -23l-282 -644h596z" />
    <glyph glyph-name="product" unicode="&#x220f;" horiz-adv-x="1368" 
d="M63 1127v306h1243v-306h-154v-1467h-327v1467h-284v-1467h-328v1467h-150z" />
    <glyph glyph-name="summation" unicode="&#x2211;" horiz-adv-x="1368" 
d="M909 563l-435 -599h809v-306h-1252v149q0 39 13.5 78t37.5 72h-1q110 151 211 304q91 138 210 302l-421 571q-24 31 -37 70t-13 80v149h1252v-306h-790z" />
    <glyph glyph-name="minus" unicode="&#x2212;" horiz-adv-x="1223" 
d="M1117 513h-1015v293h1015v-293z" />
    <glyph glyph-name="radical" unicode="&#x221a;" horiz-adv-x="1393" 
d="M289 573h-45q-98 0 -151 66q-23 26 -34.5 62.5t-11.5 76.5v116h458l152 -456q4 -13 6 -26l3 -20l2 -18l2 18q1 17 9 46l276 1084q13 50 46.5 86t77 54.5t87.5 18.5h153l-421 -1613q-14 -54 -72.5 -81t-147.5 -27q-81 0 -144.5 27.5t-79.5 80.5z" />
    <glyph glyph-name="infinity" unicode="&#x221e;" horiz-adv-x="1531" 
d="M1418.5 824q29.5 -71 29.5 -150q0 -77 -30 -147.5t-85 -125.5t-127 -85t-150 -30q-72 0 -143 34.5t-134 97.5l-25 30l-29 -34q-60 -60 -131 -94t-142 -34q-78 0 -150.5 30t-127.5 85t-85 125.5t-30 147.5t30.5 148.5t85.5 125.5q54 54 126.5 84t150.5 30
q72 0 142.5 -34.5t135.5 -99.5l24 -29l24 29q65 65 135.5 99.5t142.5 34.5q79 0 150.5 -29t126.5 -84q56 -54 85.5 -125zM461 595q33 11 72 33.5t66 45.5q-53 40 -102 62q-16 7 -37 15l-20 5q-32 0 -54 -24.5t-22 -57.5t22 -58q10 -12 24 -19t30 -7zM1066 590q16 0 30 7
t24 19q22 25 22 58t-22 57.5t-54 24.5l-20 -5q-35 -12 -73 -33.5t-66 -43.5q52 -43 101 -65q16 -7 38 -14z" />
    <glyph glyph-name="integral" unicode="&#x222b;" horiz-adv-x="836" 
d="M261 1135q0 70 20 132.5t59 109.5q39 49 97.5 75.5t130.5 26.5q30 0 73.5 -12t88.5 -32q101 -48 157 -104l-51 -84q-30 -49 -66.5 -70t-92.5 -21l-16 2l-28 6q-11 4 -30 4q-7 0 -15 -2q-16 -6 -20 -22l-2 -9v-1162q0 -71 -20 -133t-58 -109q-40 -49 -98.5 -75.5
t-129.5 -26.5q-32 0 -75 12t-88 33q-101 45 -156 104l50 81q30 48 68 70t92 22q15 0 30 -4l14 -4q11 -4 28 -4q32 0 38 25q1 2 1 9z" />
    <glyph glyph-name="approxequal" unicode="&#x2248;" horiz-adv-x="1249" 
d="M724.5 661q-38.5 10 -103.5 36q-68 27 -101.5 36.5t-69.5 9.5q-67 0 -151 -31q-34 -12 -60 -24q-8 -4 -39 -19v325q22 7 55 18q56 23 102.5 32.5t92.5 9.5q48 0 94.5 -10.5t103.5 -34.5q70 -28 98 -36.5t57 -8.5l24 -2q33 0 88 8.5t114 23.5v-287q-63 -31 -144 -47
q-41 -9 -82 -9q-40 0 -78.5 10zM724.5 234q-38.5 10 -103.5 36q-68 27 -101.5 36.5t-69.5 9.5q-67 0 -151 -31q-34 -12 -60 -24q-8 -4 -39 -19v325q22 7 55 18q56 23 102.5 32.5t92.5 9.5q48 0 94.5 -10.5t103.5 -34.5q70 -28 98 -36.5t57 -8.5l24 -2q33 0 88 8.5t114 23.5
v-287q-63 -31 -144 -47q-40 -9 -82 -9q-40 0 -78.5 10z" />
    <glyph glyph-name="notequal" unicode="&#x2260;" horiz-adv-x="1224" 
d="M668 1175l139 -36l-34 -129h305v-291h-386l-25 -94h411v-291h-486l-47 -180l-143 37l38 143h-288v291h364l25 94h-389v291h470z" />
    <glyph glyph-name="lessequal" unicode="&#x2264;" horiz-adv-x="1160" 
d="M119 955q0 112 131 178l758 327v-188q0 -41 -24 -83.5t-68 -77.5q-46 -36 -99 -55l-30 -12l-62 -23l-138 -54q-7 -2 -21 -8l-21 -9q-53 -21 -61 -26q-14 -8 -43 -15l-30 -8l30 -8l24 -7l18 -8q89 -38 160 -66l28 -11q129 -50 191 -82.5t97 -72.5q49 -55 49 -115v-189
l-758 327q-66 30 -98.5 73t-32.5 106v107zM119 602l758 -329q67 -27 99 -67t32 -98v-208l-758 327q-67 30 -99 72.5t-32 105.5v197z" />
    <glyph glyph-name="greaterequal" unicode="&#x2265;" horiz-adv-x="1160" 
d="M1036 848q0 -63 -32.5 -106t-98.5 -73l-758 -327v189q0 69 44 117t104.5 77t155.5 64q12 4 27.5 9.5t33.5 13.5q71 28 160 66q3 3 18.5 8t23.5 7l30 8q-25 6 -54 15q-15 5 -19 8q-90 39 -159 66l-81 31q-73 25 -108 40.5t-63 34.5q-70 47 -99 113q-14 36 -14 63v188
l758 -327q131 -66 131 -178v-107zM1037 376q0 -119 -131 -178l-759 -327v208q0 57 37 111.5t95 84.5l758 329v-228z" />
    <glyph glyph-name="lozenge" unicode="&#x25ca;" horiz-adv-x="1160" 
d="M1140 672l-372 -871h-282l-372 871l372 862h282zM647 1033q-9 19 -15 44l-4 20q-1 -9 -8 -32t-12 -32l-158 -361l159 -370q15 -35 17 -48l2 -14q1 8 10 39l8 23l163 369z" />
    <glyph glyph-name="uniF6C3" unicode="&#xf6c3;" horiz-adv-x="0" 
d="M-515 1901h151q57 0 85 -30t28 -82q0 -18 -1 -21l-19 -121q-8 -46 -42.5 -75.5t-81.5 -29.5h-120v359z" />
    <glyph glyph-name="ff" unicode="&#xfb00;" horiz-adv-x="1460" 
d="M903 0v745h-403v-745h-327v745h-151v185q0 37 4.5 56t18.5 33q28 31 123 31h5v85q0 69 21.5 126.5t62.5 99.5q42 43 100 65.5t127 22.5q30 0 72 -11.5t86 -31.5q45 -20 85 -46t67 -53l-50 -82q-26 -42 -64 -61t-96 -19q-1 0 -26 5q-13 4 -29 4q-17 0 -24 -9.5t-7 -28.5
v-21q0 -34 1 -43h404v83q0 69 21.5 126.5t62.5 99.5q42 43 100 65.5t127 22.5q30 0 72 -11.5t86 -31.5q45 -20 85 -46t67 -53l-50 -82q-26 -42 -64 -61t-96 -19q-1 0 -26 5q-13 4 -29 4q-17 0 -24 -9.5t-7 -28.5v-21q0 -34 1 -43h194v-307h-193v-745h-327z" />
    <glyph glyph-name="fi" unicode="&#xfb01;" horiz-adv-x="1387" 
d="M881 1405q15 32 42 54q26 22 62 34t75 12t75 -12t62 -34q27 -22 42 -54t15 -70t-15 -70t-42 -54q-26 -22 -62 -34t-75 -12t-75 12t-62 34q-27 22 -42 54t-15 70t15 70zM1224 1050v-1050h-328v745h-396v-745h-327v745h-151v185q0 37 4.5 56t18.5 33q28 31 123 31h5v85
q0 69 21.5 126.5t62.5 99.5q42 43 100 65.5t127 22.5q30 0 72 -11.5t86 -31.5q45 -20 85 -46t67 -53l-50 -82q-26 -42 -64 -61t-96 -19q-1 0 -26 5q-13 4 -29 4q-17 0 -24 -9.5t-7 -28.5v-21q0 -34 1 -43z" />
    <glyph glyph-name="fl" unicode="&#xfb02;" horiz-adv-x="1391" 
d="M173 0v745h-151v185q0 37 4.5 56t18.5 33q28 31 123 31h5v85q0 69 21.5 126.5t62.5 99.5q42 43 100 65.5t127 22.5q30 0 72 -11.5t86 -31.5q45 -20 85 -46t67 -53l-50 -82q-26 -42 -64 -61t-96 -19q-1 0 -26 5q-13 4 -29 4q-17 0 -24 -9.5t-7 -28.5v-21q0 -34 1 -43h194
v-307h-193v-745h-327zM1224 1433v-1433h-328v1433h328z" />
    <glyph glyph-name="ffi" unicode="&#xfb03;" horiz-adv-x="2117" 
d="M1611 1405q15 32 42 54q26 22 62 34t75 12t75 -12t62 -34q27 -22 42 -54t15 -70t-15 -70t-42 -54q-26 -22 -62 -34t-75 -12t-75 12t-62 34q-27 22 -42 54t-15 70t15 70zM1954 1050v-1050h-328v745h-396v-745h-327v745h-403v-745h-327v745h-151v185q0 37 4.5 56t18.5 33
q28 31 123 31h5v85q0 69 21.5 126.5t62.5 99.5q42 43 100 65.5t127 22.5q30 0 72 -11.5t86 -31.5q45 -20 85 -46t67 -53l-50 -82q-26 -42 -64 -61t-96 -19q-1 0 -26 5q-13 4 -29 4q-17 0 -24 -9.5t-7 -28.5v-21q0 -34 1 -43h404v83q0 69 21.5 126.5t62.5 99.5
q42 43 100 65.5t127 22.5q30 0 72 -11.5t86 -31.5q45 -20 85 -46t67 -53l-50 -82q-26 -42 -64 -61t-96 -19q-1 0 -26 5q-13 4 -29 4q-17 0 -24 -9.5t-7 -28.5v-21q0 -34 1 -43z" />
    <glyph glyph-name="ffl" unicode="&#xfb04;" horiz-adv-x="2121" 
d="M903 0v745h-403v-745h-327v745h-151v185q0 37 4.5 56t18.5 33q28 31 123 31h5v85q0 69 21.5 126.5t62.5 99.5q42 43 100 65.5t127 22.5q30 0 72 -11.5t86 -31.5q45 -20 85 -46t67 -53l-50 -82q-26 -42 -64 -61t-96 -19q-1 0 -26 5q-13 4 -29 4q-17 0 -24 -9.5t-7 -28.5
v-21q0 -34 1 -43h404v83q0 69 21.5 126.5t62.5 99.5q42 43 100 65.5t127 22.5q30 0 72 -11.5t86 -31.5q45 -20 85 -46t67 -53l-50 -82q-26 -42 -64 -61t-96 -19q-1 0 -26 5q-13 4 -29 4q-17 0 -24 -9.5t-7 -28.5v-21q0 -34 1 -43h194v-307h-193v-745h-327zM1954 1433v-1433
h-328v1433h328z" />
    <glyph glyph-name="s_t" unicode="&#xfb06;" horiz-adv-x="1696" 
d="M173 333q53 27 104 27q34 0 65 -22l69 -48q9 -6 22.5 -9.5t25.5 -3.5q25 0 46.5 17.5t21.5 40.5v5q-2 22 -23 35q-17 11 -82 35q-78 28 -126.5 53t-84.5 57q-98 86 -98 223q0 66 29 124.5t83 103.5q52 43 116.5 67.5t128.5 24.5q73 0 144.5 -33t146.5 -96l38 -37l18 -22
l-74 -79q-35 -28 -59 -39t-51 -11q-25 0 -49 12l-13 6q-25 10 -41.5 13.5t-42.5 3.5t-42.5 -15.5t-16.5 -37.5q0 -23 17.5 -36t52.5 -20q94 -24 155.5 -47t108 -60t67.5 -93q19 -47 19 -122q0 -71 -28.5 -137t-80.5 -117q-54 -52 -126.5 -80.5t-153.5 -28.5q-57 0 -114.5 20
t-109.5 57t-96.5 91t-77.5 120zM1419 744v-374q0 -34 14.5 -49.5t39.5 -15.5l20 2l15 2q88 0 160 -87q29 -35 50 -86q-59 -59 -155 -103q-47 -21 -88.5 -33.5t-70.5 -12.5q-141 0 -228 89q-41 42 -63 99.5t-22 125.5v443h-150v164q0 59 38 94.5t112 45.5v186q0 66 40 127
q14 21 41 48h247v-358h250v-307h-250z" />
    <glyph glyph-name="zero.001" horiz-adv-x="1377" 
d="M144 910q0 106 42 205t118 175q76 75 175 116t209 41q109 0 208 -40.5t177 -116.5q77 -75 118.5 -173t41.5 -207v-387q0 -108 -42 -207t-118 -172q-79 -75 -178 -116t-207 -41q-146 0 -271.5 71t-197.5 194q-75 123 -75 271v387zM471 524q0 -42 17 -80t48 -68t70.5 -46
t81.5 -16t82 16t71 45q66 63 66 148v387q0 41 -17.5 80t-48.5 69q-30 29 -70.5 45t-82.5 16t-81.5 -16t-69.5 -45q-31 -29 -48.5 -68t-18.5 -81z" />
    <glyph glyph-name="caron.001" horiz-adv-x="811" 
d="M203 1493q70 0 144 -89l23 -29l32 -39l32 40l23 29q72 88 143 88h193l-203 -264q-23 -34 -65 -52t-99 -18h-46q-119 0 -167 70l-202 264h192z" />
    <glyph glyph-name="undercommaaccent" horiz-adv-x="701" 
d="M225 -78h147q52 0 81.5 -27.5t30.5 -78.5q-1 -1 -1 -8q0 -14 -1 -16l-19 -118q-8 -46 -41 -74.5t-80 -28.5h-117v351z" />
    <glyph glyph-name="breve.case" horiz-adv-x="614" 
d="M657 1826q0 -74 -29.5 -140t-83.5 -117q-51 -48 -113.5 -74.5t-125.5 -26.5q-62 0 -124.5 26.5t-112.5 74.5q-54 51 -83.5 117t-29.5 140h80q99 0 152 -50q28 -25 55.5 -36.5t62.5 -11.5q38 0 62.5 10t55.5 38q31 26 67.5 38t86.5 12h80z" />
    <glyph glyph-name="ring.case" horiz-adv-x="614" 
d="M85.5 1755.5q18.5 43.5 51.5 76.5t76.5 51t92.5 18q48 0 92 -18t77 -51t51.5 -76.5t18.5 -90.5t-18.5 -90.5t-51.5 -76.5q-32 -33 -76.5 -51.5t-92.5 -18.5t-91.5 18t-77.5 52q-33 33 -51.5 76.5t-18.5 90.5t18.5 90.5zM271 1630.5q14 -14.5 35 -14.5t35.5 14.5
t14.5 34.5q0 21 -14.5 35.5t-35.5 14.5t-35 -14.5t-14 -35.5q0 -20 14 -34.5z" />
    <glyph glyph-name="tilde.case" horiz-adv-x="614" 
d="M368.5 1422q-22.5 7 -56.5 25q-37 19 -56.5 25.5t-42.5 6.5q-28 0 -28 -63h-223q0 154 53.5 234.5t157.5 80.5q28 0 49.5 -6.5t52.5 -23.5q31 -18 48 -24.5t38 -6.5q37 0 37 54h239q-7 -91 -17 -140t-30 -84q-24 -43 -66.5 -64t-108.5 -21q-24 0 -46.5 7z" />
    <glyph glyph-name="hungarumlaut.case" horiz-adv-x="1010" 
d="M847 1602l-1 1q-51 -58 -144 -58h-221l213 302q22 31 55 46t83 15h280zM421 1614q-52 -69 -168 -69h-190l128 227l29 49q12 19 13 20q51 66 167 66h249z" />
    <glyph glyph-name="uni0326.case" horiz-adv-x="0" 
d="M-387 1500h151q57 0 85 -30t28 -82q0 -18 -1 -21l-19 -121q-8 -46 -42.5 -75.5t-81.5 -29.5h-120v359z" />
    <glyph glyph-name="grave.case" horiz-adv-x="614" 
d="M105 1905h249q116 0 167 -66l14 -20l28 -49l128 -227h-190q-115 0 -168 69z" />
    <glyph glyph-name="acute.case" horiz-adv-x="800" 
d="M464 1613q-52 -69 -168 -69h-190l128 227l29 49q12 19 13 20q51 66 167 66h249z" />
    <glyph glyph-name="dotaccent.case" horiz-adv-x="698" 
d="M223 1825q24 24 55.5 37t67.5 13t68.5 -13t56.5 -37q51 -51 51 -121t-51 -121q-24 -24 -56.5 -37t-68.5 -13t-67.5 13t-55.5 37q-25 25 -38.5 56t-13.5 65q0 72 52 121z" />
    <glyph glyph-name="dieresis.case" horiz-adv-x="614" 
d="M-23.5 1737.5q11.5 27.5 31.5 47.5q42 42 102 42q30 0 57 -11t47 -31t31 -47t11 -57q0 -60 -42 -102q-20 -20 -47.5 -31.5t-56.5 -11.5q-59 0 -102 43t-43 102q0 29 11.5 56.5zM368.5 1737.5q11.5 27.5 31.5 47.5q42 42 102 42q30 0 57 -11t47 -31t31 -47t11 -57
q0 -60 -42 -102q-20 -20 -47.5 -31.5t-56.5 -11.5q-59 0 -102 43t-43 102q0 29 11.5 56.5z" />
    <glyph glyph-name="macron.case" horiz-adv-x="614" 
d="M30 1779h624v-293h-624v293z" />
    <glyph glyph-name="circumflex.case" horiz-adv-x="848" 
d="M410 1579l-32 -39l-16 -19l-13 -16q-38 -47 -84 -70q-25 -13 -54 -13h-192l202 295q47 69 167 69h46q116 0 164 -69l203 -295h-193q-44 0 -81.5 28t-84.5 89z" />
    <glyph glyph-name="caron.case" horiz-adv-x="846" 
d="M438 1669q47 61 84.5 89t81.5 28h193l-203 -295q-48 -69 -164 -69h-46q-120 0 -167 69l-202 295h192q51 0 100 -43l38 -39q20 -27 29 -36l32 -39z" />
    <glyph glyph-name="zero.taboldstyle" horiz-adv-x="1216" 
d="M62 910q0 106 42 205t118 175q76 75 175 116t209 41q109 0 208 -40.5t177 -116.5q77 -75 118.5 -173t41.5 -207v-387q0 -108 -42 -207t-118 -172q-79 -75 -178 -116t-207 -41q-146 0 -271.5 71t-197.5 194q-75 123 -75 271v387zM389 524q0 -42 17 -80t48 -68t70.5 -46
t81.5 -16t82 16t71 45q66 63 66 148v387q0 41 -17.5 80t-48.5 69q-30 29 -70.5 45t-82.5 16t-81.5 -16t-69.5 -45q-31 -29 -48.5 -68t-18.5 -81z" />
    <glyph glyph-name="one.taboldstyle" horiz-adv-x="1251" 
d="M1135 0h-854v306h276v704q-24 -35 -56 -56.5t-57 -21.5q-30 0 -52.5 10.5t-47.5 35.5l-105 105l371 353h274v-1130h251v-306z" />
    <glyph glyph-name="two.taboldstyle" horiz-adv-x="1211" 
d="M1110 0h-990v146q0 46 16 91.5t46 77.5l21 21q215 212 332 340q105 114 169 199q34 43 48.5 71.5t14.5 52.5q0 12 -3 22q-10 30 -36.5 52.5t-66.5 35.5q-38 12 -69 12q-68 0 -112 -38q-42 -38 -79.5 -54.5t-81.5 -16.5q-24 0 -45.5 7.5t-61.5 28.5l-111 57l26 47
q38 72 82 124q20 27 51 55q66 58 151 88.5t181 30.5q98 0 190 -33.5t162 -93.5q73 -64 112.5 -148.5t39.5 -180.5q0 -64 -17 -118.5t-56 -118.5q-48 -78 -143.5 -198.5t-172.5 -200.5q-30 -31 -65 -44q-19 -7 -31 -8h499v-306z" />
    <glyph glyph-name="three.taboldstyle" horiz-adv-x="1171" 
d="M1030.5 272.5q-36.5 -85.5 -102.5 -149.5q-67 -65 -153 -100.5t-180 -35.5q-95 0 -183.5 31.5t-158.5 88.5q-40 36 -82.5 100t-78.5 137l109 53q52 31 111 31q42 0 80.5 -15t68.5 -44l15 -12q30 -23 57.5 -33t61.5 -10q26 0 53 11.5t49 30.5q21 19 33 44t12 51
q0 29 -12 58t-33 53t-48 38t-54 14h-162v273h162q39 0 76 46q33 46 33 87q0 30 -21.5 55.5t-50.5 37.5q-26 8 -45 8q-9 0 -23 -6q-15 -6 -42 -21v1q-51 -29 -82 -40.5t-66 -11.5q-39 0 -80.5 18t-90.5 55l-75 54q229 277 459 277q89 0 169.5 -32t141.5 -90q63 -60 96.5 -139
t33.5 -166q0 -66 -28.5 -133.5t-79.5 -121.5q66 -66 106.5 -151t40.5 -163q0 -93 -36.5 -178.5z" />
    <glyph glyph-name="four.taboldstyle" horiz-adv-x="1208" 
d="M650 0v300h-568v169q0 56 31 114q11 23 32 52l415 692q30 48 78 76t102 28h248v-825h172v-306h-172v-300h-338zM528 656q-7 -17 -23 -37q-7 -10 -12 -13h167v356z" />
    <glyph glyph-name="five.taboldstyle" horiz-adv-x="1228" 
d="M1081 1127h-480l-5 -33l-3 -19l-2 -16q108 0 207 -36.5t175 -103.5q80 -72 123 -168t43 -206q0 -113 -43 -215.5t-122 -178.5q-79 -78 -182.5 -121t-216.5 -43q-118 0 -240 61.5t-222 170.5l86 85q37 37 75 54.5t82 17.5h4q24 0 44 -6t61 -24q35 -17 59 -24t51 -7
q45 0 88 17.5t77 48.5q33 30 51 72t18 89q0 45 -17.5 86.5t-49.5 72.5q-34 31 -76 48.5t-88 17.5q-19 0 -44.5 -5.5t-38.5 -11.5q-58 -18 -92 -18q-33 0 -62.5 13.5t-51.5 38.5q-48 58 -48 129q0 6 1 7l2 20l4 26l3 22l34 232l32 213h764v-306z" />
    <glyph glyph-name="six.taboldstyle" horiz-adv-x="1065" 
d="M443 1306q25 54 82 90.5t119 36.5h212l-208 -474q-19 -44 -54 -70q-19 -13 -31 -18q53 12 101 12q101 0 187 -49.5t144 -151.5q29 -50 44 -110t15 -121q0 -93 -36 -179t-102 -150q-66 -65 -152 -100.5t-180 -35.5t-180.5 35.5t-152.5 100.5q-66 64 -102.5 150t-36.5 179
q0 100 43 192v-1zM709.5 510.5q-10.5 26.5 -29.5 46.5q-38 41 -96 41q-38 0 -69.5 -19.5t-49.5 -52t-18 -70.5t18.5 -70t50.5 -52t68 -20q27 0 52 11t44 31q40 43 40 100q0 28 -10.5 54.5z" />
    <glyph glyph-name="seven.taboldstyle" horiz-adv-x="1165" 
d="M119 1433h991v-146q0 -19 -11 -60q-9 -27 -10 -29l-199 -456l-267 -615q-27 -61 -80 -94t-121 -33h-213l464 1067q11 24 34 44q11 9 21 14h-609v308z" />
    <glyph glyph-name="eight.taboldstyle" horiz-adv-x="1129" 
d="M160 1184q33 78 94 138t140 92.5t165 32.5q87 0 166.5 -32.5t139.5 -92.5t93 -138.5t33 -163.5q0 -65 -29 -132.5t-78 -122.5q66 -66 106 -150.5t40 -163.5q0 -93 -36 -178.5t-102 -149.5q-66 -65 -152.5 -100.5t-180.5 -35.5t-180 35.5t-152 100.5q-66 64 -102 149.5
t-36 178.5q0 77 40.5 163t105.5 151q-49 52 -78.5 121t-29.5 134q0 86 33 164zM490 947q13 -14 31 -22t38 -8q42 0 70.5 30t28.5 73q0 44 -28.5 73.5t-70.5 29.5q-41 0 -69 -29.5t-28 -73.5q0 -42 28 -73zM464 352q18 -20 43 -31t52 -11t52.5 11t44.5 31q40 40 40 99
t-40 102q-19 20 -44 30.5t-53 10.5t-52.5 -10.5t-42.5 -30.5q-40 -43 -40 -102t40 -99z" />
    <glyph glyph-name="nine.taboldstyle" horiz-adv-x="1177" 
d="M752 128q-25 -53 -83 -90t-118 -37h-212l208 474q18 43 54 70q19 13 31 18q-52 -12 -101 -12q-91 0 -161 37q-51 24 -94.5 66.5t-74.5 98.5q-60 105 -60 230q0 93 36 179t102 150q66 65 152 100.5t180 35.5t180.5 -35.5t152.5 -100.5q66 -64 102.5 -150t36.5 -179
q0 -100 -43 -192v1zM516 878q18 -20 43 -31t52 -11t52.5 11t44.5 31q40 40 40 100q0 58 -40 101q-19 20 -44 30.5t-53 10.5t-52.5 -10.5t-42.5 -30.5q-41 -44 -41 -101q0 -56 41 -100z" />
    <glyph glyph-name="f_j" horiz-adv-x="1383" 
d="M881 1405q15 32 42 54q26 22 62 34t75 12t75 -12t62 -34q27 -22 42 -54t15 -70t-15 -70t-42 -54q-26 -22 -62 -34t-75 -12t-75 12t-62 34q-27 22 -42 54t-15 70t15 70zM1222 1050v-976q0 -150 -99 -267t-278 -190l-57 127q-7 16 -11.5 40t-4.5 44q0 24 10.5 48t34.5 54
l37 45q31 40 39 86l2 35v649h-395v-745h-327v745h-151v185q0 37 4.5 56t18.5 33q28 31 123 31h5v85q0 69 21.5 126.5t62.5 99.5q42 43 100 65.5t127 22.5q30 0 72 -11.5t86 -31.5q45 -20 85 -46t67 -53l-50 -82q-26 -42 -64 -61t-96 -19q-1 0 -26 5q-13 4 -29 4
q-17 0 -24 -9.5t-7 -28.5v-21q0 -34 1 -43z" />
    <glyph glyph-name="f_f_j" horiz-adv-x="2113" 
d="M1611 1405q15 32 42 54q26 22 62 34t75 12t75 -12t62 -34q27 -22 42 -54t15 -70t-15 -70t-42 -54q-26 -22 -62 -34t-75 -12t-75 12t-62 34q-27 22 -42 54t-15 70t15 70zM1952 1050v-976q0 -150 -99 -267t-278 -190l-57 127q-7 16 -11.5 40t-4.5 44q0 24 10.5 48t34.5 54
l37 45q31 40 39 86l2 35v649h-395v-745h-327v745h-403v-745h-327v745h-151v185q0 37 4.5 56t18.5 33q28 31 123 31h5v85q0 69 21.5 126.5t62.5 99.5q42 43 100 65.5t127 22.5q30 0 72 -11.5t86 -31.5q45 -20 85 -46t67 -53l-50 -82q-26 -42 -64 -61t-96 -19q-1 0 -26 5
q-13 4 -29 4q-17 0 -24 -9.5t-7 -28.5v-21q0 -34 1 -43h404v83q0 69 21.5 126.5t62.5 99.5q42 43 100 65.5t127 22.5q30 0 72 -11.5t86 -31.5q45 -20 85 -46t67 -53l-50 -82q-26 -42 -64 -61t-96 -19q-1 0 -26 5q-13 4 -29 4q-17 0 -24 -9.5t-7 -28.5v-21q0 -34 1 -43z" />
    </font>
</defs>
</svg>
