<?xml version="1.0" standalone="no"?>
<!DOCTYPE svg PUBLIC "-//W3C//DTD SVG 1.1//EN" "http://www.w3.org/Graphics/SVG/1.1/DTD/svg11.dtd" >
<svg xmlns="http://www.w3.org/2000/svg" xmlns:xlink="http://www.w3.org/1999/xlink" version="1.1">
<metadata>
Created by FontForge 20170731 at Fri Jan 20 04:06:18 2017
 By ,,,
Copyright (c) 2015 by Francesco Canovaro. All rights reserved.
</metadata>
<defs>
<font id="WOD-Bold" horiz-adv-x="1160" >
  <font-face 
    font-family="WOD Bold"
    font-weight="700"
    font-stretch="normal"
    units-per-em="2000"
    panose-1="2 0 5 3 2 0 0 2 0 4"
    ascent="1610"
    descent="-390"
    x-height="1050"
    cap-height="1433"
    bbox="-446 -471 2283 2013"
    underline-thickness="120"
    underline-position="-320"
    unicode-range="U+000D-FB06"
  />
<missing-glyph horiz-adv-x="1289" 
d="M638 138q-118 0 -224.5 45t-187.5 128q-79 82 -122 187t-43 218q0 116 45 223.5t127 189.5q82 79 188 123t217 44q119 0 225.5 -45.5t188.5 -130.5q78 -82 120.5 -186.5t42.5 -217.5q0 -101 -31.5 -192t-91.5 -164q-56 -71 -132.5 -122.5t-166.5 -78.5q-70 -21 -155 -21z
M638 1247q-105 0 -203.5 -42t-174.5 -118q-72 -75 -111.5 -171.5t-39.5 -199.5q0 -104 39.5 -200.5t112.5 -172.5q75 -78 171 -119t206 -41q105 0 202.5 40.5t172.5 114.5q75 75 115.5 172.5t40.5 205.5q0 89 -30 173.5t-85 157.5q-53 66 -123.5 112.5t-151.5 69.5
q-65 18 -141 18zM317 1073q136 121 321 121q89 0 171 -31.5t146 -89.5h-638zM1116 716q0 -87 -28 -165t-81 -141h-635l623 627q61 -70 88 -146q33 -79 33 -175zM280 395q-58 67 -88.5 149t-30.5 172q0 176 109 303h633zM959 358q-69 -59 -150.5 -90t-170.5 -31
q-179 0 -318 121h639z" />
    <glyph glyph-name=".notdef" horiz-adv-x="1289" 
d="M638 138q-118 0 -224.5 45t-187.5 128q-79 82 -122 187t-43 218q0 116 45 223.5t127 189.5q82 79 188 123t217 44q119 0 225.5 -45.5t188.5 -130.5q78 -82 120.5 -186.5t42.5 -217.5q0 -101 -31.5 -192t-91.5 -164q-56 -71 -132.5 -122.5t-166.5 -78.5q-70 -21 -155 -21z
M638 1247q-105 0 -203.5 -42t-174.5 -118q-72 -75 -111.5 -171.5t-39.5 -199.5q0 -104 39.5 -200.5t112.5 -172.5q75 -78 171 -119t206 -41q105 0 202.5 40.5t172.5 114.5q75 75 115.5 172.5t40.5 205.5q0 89 -30 173.5t-85 157.5q-53 66 -123.5 112.5t-151.5 69.5
q-65 18 -141 18zM317 1073q136 121 321 121q89 0 171 -31.5t146 -89.5h-638zM1116 716q0 -87 -28 -165t-81 -141h-635l623 627q61 -70 88 -146q33 -79 33 -175zM280 395q-58 67 -88.5 149t-30.5 172q0 176 109 303h633zM959 358q-69 -59 -150.5 -90t-170.5 -31
q-179 0 -318 121h639z" />
    <glyph glyph-name="uni0000" horiz-adv-x="0" 
 />
    <glyph glyph-name="uni0000" horiz-adv-x="0" 
 />
    <glyph glyph-name="uni000D" unicode="&#xd;" horiz-adv-x="0" 
 />
    <glyph glyph-name="space" unicode=" " horiz-adv-x="617" 
 />
    <glyph glyph-name="exclam" unicode="!" horiz-adv-x="715" 
d="M243 500v934h245v-934h-245zM513 82q-12 -29 -34 -51t-51.5 -34t-61.5 -12t-62 12.5t-52 33.5t-34.5 50.5t-12.5 61.5t12.5 61t34.5 51q22 21 51.5 33t62.5 12t62 -12t51 -33q22 -22 34 -51t12 -61t-12 -61z" />
    <glyph glyph-name="quotedbl" unicode="&#x22;" horiz-adv-x="817" 
d="M74 1433h235v-366q0 -48 -36 -81q-15 -15 -37.5 -23t-44.5 -8q-48 0 -82.5 32.5t-34.5 79.5v366zM463 1433h234v-366q0 -48 -36 -81q-15 -15 -37.5 -23t-44.5 -8q-48 0 -82 32.5t-34 79.5v366z" />
    <glyph glyph-name="numbersign" unicode="#" horiz-adv-x="1178" 
d="M771 1315q9 51 57 84.5t109 33.5h93l-82 -419h192l-21 -100q-13 -59 -53 -94.5t-95 -35.5h-69l-32 -171h210l-19 -94q-13 -60 -54 -98t-95 -38h-88l-52 -266q-12 -54 -54 -85.5t-99 -31.5h-107l76 383h-156l-52 -265q-11 -52 -58 -85t-107 -33h-94l75 383h-179l20 101
q13 58 53 94t94 36h57q2 2 6 25l20 109l7 36h-199l20 95q11 58 54 97t96 39h75l17 87l13 63l12 63l11 54l6 33q11 54 53.5 86t100.5 32h106l-82 -418h154zM477 614h155q2 2 6 25l20 106l7 39h-154z" />
    <glyph glyph-name="dollar" unicode="$" horiz-adv-x="1080" 
d="M476 -10q-88 11 -165.5 46.5t-134.5 91.5q-77 71 -117 171l39 22q38 23 77 33q38 5 44 5q27 0 61 -9.5t64 -25.5q63 -43 103.5 -59.5t87.5 -16.5q42 0 85 13t79 37q41 28 62.5 64.5t21.5 79.5q0 40 -20 70.5t-61 55.5q-37 21 -83 37q-153 53 -218.5 83t-126.5 76
q-75 54 -111 126.5t-36 168.5q0 72 26.5 137.5t75.5 117.5q47 48 111 81t136 47v140h123v-138q101 -5 200 -63.5t180 -160.5l-51 -40q-29 -26 -69 -41t-77 -15q-39 0 -93 24l-77 31q-35 5 -39 5q-76 0 -127 -33q-27 -17 -41.5 -41.5t-14.5 -51.5q0 -36 15 -60.5t47 -43.5
q36 -22 159 -63l39 -13l47 -18q177 -63 263 -166t86 -252q0 -90 -33.5 -169.5t-97.5 -142.5q-61 -59 -142.5 -95t-173.5 -44v-168h-123v167z" />
    <glyph glyph-name="percent" unicode="%" horiz-adv-x="1636" 
d="M99.5 1223.5q25.5 67.5 71.5 118.5q48 52 111.5 79.5t137.5 27.5q73 0 137 -27.5t113 -79.5q46 -51 71.5 -118.5t25.5 -141.5q0 -72 -25.5 -139.5t-71.5 -119.5q-49 -52 -113 -79.5t-137 -27.5q-74 0 -137.5 27.5t-111.5 79.5q-46 52 -71.5 119.5t-25.5 139.5
q0 74 25.5 141.5zM494 90q-67 -90 -176 -90h-196l1006 1343q68 90 176 90h196zM307.5 1029q8.5 -25 24.5 -43q15 -19 38 -29.5t50 -10.5t50.5 10.5t39.5 29.5q15 18 23.5 43t8.5 53t-8.5 53t-23.5 44q-16 18 -39.5 28.5t-50.5 10.5t-50 -10.5t-38 -28.5q-16 -19 -24.5 -44
t-8.5 -53t8.5 -53zM888.5 493.5q25.5 67.5 71.5 118.5q48 52 111.5 79.5t137.5 27.5q73 0 137 -27.5t113 -79.5q46 -51 71.5 -118.5t25.5 -141.5q0 -72 -25.5 -139.5t-71.5 -119.5q-49 -52 -113 -79.5t-137 -27.5q-74 0 -137.5 27.5t-111.5 79.5q-46 52 -71.5 119.5
t-25.5 139.5q0 74 25.5 141.5zM1096.5 299q8.5 -25 24.5 -43q15 -19 38 -29.5t50 -10.5t50.5 10.5t39.5 29.5q15 18 23.5 43t8.5 53t-8.5 53t-23.5 44q-16 18 -39.5 28.5t-50.5 10.5t-50 -10.5t-38 -28.5q-16 -19 -24.5 -44t-8.5 -53t8.5 -53z" />
    <glyph glyph-name="ampersand" unicode="&#x26;" horiz-adv-x="1436" 
d="M927 530l73 98q74 101 200 101h181l-278 -374l359 -355h-171q-111 0 -171 24q-27 11 -49.5 27.5t-50.5 44.5l-50 49q-83 -77 -191 -118t-227 -41q-100 0 -189.5 34.5t-156.5 98.5t-103.5 148t-36.5 177q0 50 13 103.5t37 101.5q49 101 117 144q10 7 27 7l28 -5
q18 -5 49 -24q-50 48 -78.5 118t-28.5 144q0 84 32.5 162.5t90.5 136.5q57 55 130.5 85.5t150.5 30.5q280 0 446 -256l-62 -26q-63 -27 -111 -27q-36 0 -53 7l-20 6l-9 2q-26 6 -50 15q-45 17 -94 28l-48 5q-48 0 -88 -25.5t-58 -64.5q-15 -34 -15 -76q0 -33 10.5 -59
t34.5 -50q57 -57 99 -95l43 -41l20 -20q145 -138 191 -184zM688 428l-229 226q-66 -31 -109 -90t-43 -121q0 -53 20.5 -95.5t58.5 -70.5q71 -53 177 -53q130 0 235 93z" />
    <glyph glyph-name="quotesingle" unicode="'" horiz-adv-x="505" 
d="M120 1433h264l-25 -407q-3 -50 -33 -81t-75 -31t-74.5 31t-31.5 81z" />
    <glyph glyph-name="parenleft" unicode="(" horiz-adv-x="647" 
d="M504 17q16 -30 26 -73t10 -82q0 -45 -12.5 -83t-32.5 -53l-49 -36q-158 208 -243.5 452t-85.5 491q0 249 84.5 492.5t238.5 442.5l49 -37q21 -18 33 -54.5t12 -81.5q0 -36 -10.5 -78.5t-26.5 -77.5q-67 -124 -101.5 -273.5t-38.5 -332.5q0 -346 147 -616z" />
    <glyph glyph-name="parenright" unicode=")" horiz-adv-x="629" 
d="M228 963.5q-35 149.5 -102 276.5q-16 36 -26 78t-10 78q0 47 11.5 83t32.5 53l49 37q154 -199 239 -443.5t85 -492.5q0 -247 -85.5 -491t-243.5 -452l-49 36q-21 17 -33 54t-12 82q0 39 10 82t26 73q147 270 147 616q-4 181 -39 330.5z" />
    <glyph glyph-name="asterisk" unicode="*" horiz-adv-x="800" 
d="M180 962l-99 173l126 73q33 20 76 24l20 1q-38 0 -61 10q-15 4 -34 14l-128 75l100 174l128 -73q26 -17 38 -29l12 -14l12 -17q-12 22 -16 38.5t-4 44.5v148h202v-148q0 -30 -4 -46t-16 -38l13 17q14 24 50 43l128 74l98 -176l-127 -73q-23 -14 -41 -18.5t-51 -5.5
q29 -3 49 -8.5t43 -17.5l127 -75l-100 -172l-127 74q-22 12 -35.5 25t-29.5 37q13 -27 17.5 -45t4.5 -41v-148h-200v148q0 26 4 42t16 44q-16 -23 -29 -35.5t-35 -24.5z" />
    <glyph glyph-name="plus" unicode="+" horiz-adv-x="1169" 
d="M458 190v356h-356v240h356v358h240v-358h358v-240h-358v-356h-240z" />
    <glyph glyph-name="comma" unicode="," horiz-adv-x="424" 
d="M60.5 207q12.5 29 34.5 50q47 45 112 45q33 0 62 -12t51 -33q22 -22 34 -50.5t12 -60.5q0 -109 -48 -203.5t-149 -180.5q-33 33 -42 48q-10 13 -10 35q0 18 6 33.5t21 36.5q14 22 21 39.5t9 39.5q-60 19 -93 58.5t-33 93.5q0 32 12.5 61z" />
    <glyph glyph-name="hyphen" unicode="-" horiz-adv-x="742" 
d="M643 547h-550v240h550v-240z" />
    <glyph glyph-name="period" unicode="." horiz-adv-x="488" 
d="M390.5 81q-12.5 -29 -34.5 -50q-22 -22 -51 -34t-62 -12t-62 12t-51 34q-22 21 -34.5 50t-12.5 61t12.5 61.5t34.5 50.5q22 22 51.5 34t61.5 12t61.5 -12t51.5 -34q22 -21 34.5 -50.5t12.5 -61.5t-12.5 -61z" />
    <glyph glyph-name="slash" unicode="/" horiz-adv-x="917" 
d="M625 1362q24 51 66.5 80.5t93.5 29.5h140l-635 -1453q-21 -49 -68 -79t-103 -30h-128z" />
    <glyph glyph-name="zero" unicode="0" horiz-adv-x="1351" 
d="M144 921q0 105 40.5 201.5t115.5 171.5t171.5 114.5t203.5 39.5t205 -40.5t171 -113.5q75 -75 115.5 -171.5t40.5 -201.5v-410q0 -106 -40.5 -202t-115.5 -169q-76 -73 -174 -113.5t-202 -40.5q-108 0 -204.5 40t-170.5 114q-75 73 -115.5 169t-40.5 203v409zM405 513
q0 -54 21 -103t59 -86q37 -37 86.5 -57.5t103.5 -20.5t104 20.5t87 56.5q39 37 60 86t21 103v409q0 54 -21 103.5t-59 85.5q-39 37 -89 57.5t-103 20.5q-54 0 -104 -20.5t-87 -57.5q-80 -80 -80 -189z" />
    <glyph glyph-name="one" unicode="1" horiz-adv-x="777" 
d="M339 -1v1094q-36 -54 -73 -80t-78 -26q-26 0 -46 8.5t-39 27.5l-81 81l349 332h230v-1437h-262z" />
    <glyph glyph-name="two" unicode="2" horiz-adv-x="1185" 
d="M1068 0h-958v103q0 57 14.5 96t50.5 75l53 52q111 111 170 175l37 38q107 110 230 254q69 82 96.5 131.5t27.5 94.5q0 38 -19.5 70.5t-56.5 56.5q-32 21 -72 33t-77 12q-91 0 -148 -51q-42 -35 -74.5 -50t-66.5 -15q-39 0 -92 29l-78 41l18 33l33 55q49 72 104 117.5
t127 71.5q89 29 177 29q97 0 185.5 -31.5t156.5 -90.5q70 -61 108.5 -144t38.5 -175q0 -60 -15.5 -108t-55.5 -121q-83 -136 -297 -362l-65 -70q-55 -58 -71 -68q-27 -19 -48 -25l-13 -4h580v-252z" />
    <glyph glyph-name="three" unicode="3" horiz-adv-x="1116" 
d="M572 -13q-1 -1 -8 -1q-97 1 -182.5 31t-149.5 86q-42 39 -89 108q-22 34 -34 59l-18 33l79 39q47 27 95 27q35 0 71.5 -16t61.5 -41l8 -6q28 -28 75 -46.5t92 -18.5q41 0 78.5 16t64.5 44t42.5 66t15.5 80q0 41 -15 78.5t-43 67.5t-66 46.5t-80 16.5h-127v233h133
q32 0 60.5 12t49.5 33q22 21 34 49t12 59q0 64 -46 110q-21 21 -49.5 33t-60.5 12q-24 0 -47 -9t-69 -36q-45 -27 -70.5 -36.5t-54.5 -9.5q-52 0 -108 32q-11 5 -44 30l-50 37q201 243 423 243q85 0 161 -29t134 -82q58 -54 90 -127t32 -154q0 -68 -36 -143t-91 -124
q83 -56 136 -150q26 -47 40 -100.5t14 -107.5q0 -90 -34.5 -170.5t-97.5 -140.5q-63 -61 -146.5 -95.5t-178.5 -37.5h-7z" />
    <glyph glyph-name="four" unicode="4" horiz-adv-x="1184" 
d="M682 0v317h-601v137q0 51 28 103q11 23 29 46l30 49l42 70l164 275l207 344q26 42 66 66t85 24h218v-862h182v-252h-182v-317h-268zM687 1069l-19 -45l-21 -46l-193 -350q-12 -21 -27 -38t-25 -21h285v500z" />
    <glyph glyph-name="five" unicode="5" horiz-adv-x="1194" 
d="M1032 1181h-497l-10 -65q-12 -73 -15 -102q48 16 99 16h15q13 0 14 -1q92 -10 175 -49.5t146 -103.5q66 -67 100.5 -154.5t34.5 -186.5q0 -111 -42 -211.5t-120 -176.5q-76 -76 -178 -118.5t-212 -42.5q-116 0 -227 52.5t-202 149.5l62 62q23 23 54 23q38 36 81 36
q20 0 39 -10q23 -5 47 -15q72 -28 94 -32q24 -6 52 -6q56 0 109 22t96 62q40 40 62.5 93t22.5 110q0 54 -22.5 104.5t-62.5 87.5q-39 36 -91.5 55t-112.5 19q-18 0 -33 -3l-59 -17q-38 -12 -57.5 -16t-37.5 -4q-23 0 -46 11t-41 30t-28.5 46t-10.5 57v8q0 10 1 11l13 83
q10 73 36 247l28 181h724v-252z" />
    <glyph glyph-name="six" unicode="6" horiz-adv-x="1174" 
d="M184 831l331 519q23 37 75.5 59t111.5 22h176l-212 -331q-21 -33 -40 -52q-14 -14 -36 -40q36 1 87 -5q98 -14 182 -67t142 -136q47 -65 71.5 -143t24.5 -157q0 -38 -6 -77q-16 -99 -70 -186.5t-136 -147.5q-66 -48 -143.5 -73t-158.5 -25q-40 0 -79 6q-100 16 -187 69
t-145 133q-95 134 -95 304q0 40 3 66t12 58q26 113 92 204zM330 505q0 -71 33.5 -127t87.5 -89q42 -27 92 -35q20 -3 39 -3q71 0 127 33.5t89 87.5q26 42 34 92q3 20 3 39q0 72 -33 128t-86 88q-45 26 -93 34q-21 3 -42 3q-69 0 -124 -33.5t-90 -87.5q-27 -43 -34 -92
q-3 -19 -3 -38z" />
    <glyph glyph-name="seven" unicode="7" horiz-adv-x="1136" 
d="M119 1433h959v-76q0 -67 -16 -105l-16 -40l-16 -35l-464 -1068q-23 -53 -68.5 -81t-103.5 -28h-163l482 1110q13 33 61 70h-655v253z" />
    <glyph glyph-name="eight" unicode="8" horiz-adv-x="1169" 
d="M136 661.5q50 95.5 143 164.5q-44 49 -69.5 115.5t-25.5 134.5q0 76 30 146.5t85 125.5q55 54 126.5 84t149.5 30t149.5 -30t126.5 -84q55 -55 85 -125.5t30 -146.5q0 -71 -26 -136.5t-72 -113.5q93 -67 143.5 -163t50.5 -209q0 -98 -36 -184.5t-102 -150.5
q-70 -67 -159.5 -102.5t-189.5 -35.5q-102 0 -192 35.5t-157 101.5q-67 64 -103.5 151.5t-36.5 186.5q0 110 50 205.5zM450.5 996q19.5 -33 53.5 -53q35 -20 72 -20q29 0 56.5 11.5t47.5 31.5q42 42 42 102q0 61 -42 104q-20 20 -47 31.5t-57 11.5q-41 0 -74 -19.5
t-52 -53.5t-19 -74q0 -39 19.5 -72zM417 300q31 -31 72.5 -48.5t85.5 -17.5q45 0 86 17.5t71 48.5q31 31 47.5 72t16.5 88q0 45 -16.5 86.5t-46.5 72.5q-31 33 -72 50.5t-86 17.5q-47 0 -87.5 -17.5t-71.5 -50.5q-30 -31 -47 -73t-17 -87q0 -88 65 -159z" />
    <glyph glyph-name="nine" unicode="9" horiz-adv-x="1174" 
d="M995 609l-321 -525q-26 -41 -74 -62.5t-111 -21.5h-176l205 331q20 33 40 53q13 12 35 40q-5 -1 -30 -1q-37 0 -57 4q-98 14 -183.5 65.5t-144.5 132.5q-49 67 -75 145t-26 159q0 21 5 71q14 99 66 186.5t134 151.5q65 51 144.5 78t163.5 27q21 0 71 -5
q101 -14 187.5 -65t147.5 -132q50 -65 75.5 -144.5t25.5 -167.5q0 -36 -2.5 -61t-10.5 -54q-25 -114 -89 -205zM844 932q0 71 -34.5 127t-89.5 88q-41 24 -94 32l-33 2q-74 0 -131 -34.5t-89 -88.5q-24 -41 -32 -94q-2 -18 -2 -34q0 -71 34.5 -128t88.5 -90q43 -25 94 -33
q22 -2 35 -2q73 0 130 34.5t88 89.5q24 41 32 93q3 20 3 38z" />
    <glyph glyph-name="colon" unicode=":" horiz-adv-x="559" 
d="M422.5 876q-12.5 -29 -34.5 -50q-22 -22 -51 -34t-62 -12t-62 12t-51 34q-22 21 -34.5 50t-12.5 61t12.5 61.5t34.5 50.5q22 22 51.5 34t61.5 12t61.5 -12t51.5 -34q22 -21 34.5 -50.5t12.5 -61.5t-12.5 -61zM423 81.5q-12 -28.5 -34 -50.5t-51 -34t-62 -12t-62.5 12
t-51.5 34q-22 21 -34.5 50t-12.5 61t12.5 61.5t34.5 50.5t52 33.5t62 12.5t61.5 -12t51.5 -34q22 -21 34 -50.5t12 -61.5t-12 -60.5z" />
    <glyph glyph-name="semicolon" unicode=";" horiz-adv-x="545" 
d="M423.5 879.5q-12.5 -29.5 -34.5 -50.5q-22 -22 -51.5 -34t-61.5 -12t-61.5 12t-51.5 34q-22 21 -34.5 50.5t-12.5 61.5t12.5 61t34.5 51q22 21 51 33t62 12t62 -12t51 -33q22 -22 34.5 -51t12.5 -61t-12.5 -61.5zM127.5 206q12.5 29 34.5 50q21 21 50 33t62 12
q65 0 112 -45q22 -21 34.5 -50t12.5 -61q0 -109 -48.5 -203.5t-149.5 -180.5l-21 23q-20 18 -27 37q-4 7 -4 23q0 18 5.5 32t22.5 38q14 22 21 39.5t9 39.5q-61 18 -93.5 57t-32.5 95q0 32 12.5 61z" />
    <glyph glyph-name="less" unicode="&#x3c;" 
d="M119 726q0 51 27 87t84 63l740 319v-144q0 -124 -181 -196l-200 -84l-193 -85q-4 -4 -30 -10l-14 -4q-7 -2 -9 -3q27 -7 45 -14l47 -19l307 -134q74 -34 105.5 -51t55.5 -37q67 -55 67 -126v-145l-740 319q-111 50 -111 151v113z" />
    <glyph glyph-name="equal" unicode="=" 
d="M1006 773h-854v240h854v-240zM1006 321h-854v240h854v-240z" />
    <glyph glyph-name="greater" unicode="&#x3e;" 
d="M1035 613q0 -102 -112 -151l-739 -319v145q0 54 38 100.5t110 78.5l426 186q4 4 29 10l23 6l-23 7l-30 10l-47 21l-333 144l-52 21q-63 25 -102 74t-39 105v144l739 -319q58 -28 85 -64t27 -86v-113z" />
    <glyph glyph-name="question" unicode="?" horiz-adv-x="880" 
d="M9 1172q67 138 171 205.5t254 67.5q214 0 328 -94.5t114 -274.5q0 -70 -25 -128t-79 -115l-73 -73q-87 -82 -121 -136q-21 -31 -21 -61v-82h-240v68q0 132 82 238q23 31 75 80q55 46 84 73.5t50 53.5q23 32 23 66q0 82 -43 120t-139 38q-41 0 -81.5 -13t-67.5 -34
l-16 -13q-24 -20 -50.5 -30.5t-51.5 -10.5q-42 0 -90 18zM586.5 81q-12.5 -29 -34.5 -50q-22 -22 -51 -34t-62 -12t-62 12t-51 34q-22 21 -34.5 50t-12.5 61t12.5 61.5t34.5 50.5q22 22 51.5 34t61.5 12t61.5 -12t51.5 -34q22 -21 34.5 -50.5t12.5 -61.5t-12.5 -61z" />
    <glyph glyph-name="at" unicode="@" horiz-adv-x="1667" 
d="M1182 921l-4 -20l-29 -148l-27 -135q-22 -110 -27 -146l-5 -30q-1 -1 -1 -16q0 -50 31 -50q122 0 209 107q33 41 51.5 94t18.5 104q0 111 -42.5 201.5t-124.5 156.5q-72 56 -164.5 85.5t-194.5 29.5q-164 0 -301 -83t-218 -231q-36 -67 -55 -140.5t-19 -147.5
q0 -105 38 -201.5t109 -174.5q84 -95 199.5 -149t245.5 -54q94 0 198 27.5t202 76.5q37 19 78 19q33 0 66 -16.5t55 -43.5l37 -47l-26 -20q-88 -66 -202 -114.5t-236 -71.5q-65 -16 -172 -16q-103 0 -203 26.5t-190 77.5q-89 50 -163.5 121t-128.5 158q-115 181 -115 402
t114 411q53 90 127 163t164 125q95 52 196 80t200 28q90 0 180 -22t172 -63q114 -58 200 -148t134 -204q47 -115 47 -241q0 -63 -16 -127t-45 -121q-31 -59 -74 -109t-95 -85q-115 -78 -254 -78q-80 0 -136 45q-21 18 -33.5 39.5t-12.5 39.5q-39 -48 -107.5 -77.5
t-143.5 -29.5q-72 0 -126 31t-83 90q-30 59 -30 139q0 120 50 216t146 163q90 63 211.5 96t259.5 33q33 0 69 -3zM913 588l39 160q-93 -15 -161 -56.5t-104 -103.5q-36 -61 -36 -136q0 -41 16 -63t44 -22q153 1 202 221z" />
    <glyph glyph-name="A" unicode="A" horiz-adv-x="1577" 
d="M670 1433h237l626 -1433h-163q-56 0 -102 29t-69 80l-85 194h-651l-84 -194q-19 -48 -68 -78.5t-104 -30.5h-163zM579 566h419l-187 434q-20 56 -23 93q-1 -18 -7 -43.5t-16 -49.5z" />
    <glyph glyph-name="B" unicode="B" horiz-adv-x="1367" 
d="M586 1q-7 -1 -174 -1h-239v1433h598q83 0 161 -32t138 -90q58 -58 90.5 -136t32.5 -161q0 -37 -11.5 -80.5t-31.5 -81.5q-22 -43 -49.5 -68.5t-56.5 -29.5q38 -3 77 -33t70 -80q31 -54 49 -109.5t18 -102.5q0 -86 -33 -164.5t-93 -138.5q-61 -60 -139.5 -92.5
t-165.5 -32.5h-241zM435 1170v-312h342q31 0 59 12t50 34q45 45 45 109q0 32 -12 60.5t-33 50.5q-22 22 -50 34t-59 12h-342zM833 263q32 0 61.5 13t52.5 37t36 54.5t13 62.5q0 30 -13 61t-35 56q-22 23 -51.5 35.5t-62.5 12.5h-399v-332h398z" />
    <glyph glyph-name="C" unicode="C" horiz-adv-x="1470" 
d="M388.5 536q36.5 -86 103.5 -150q67 -66 153 -102t179 -36q142 0 265 84q47 30 101 30q42 0 74.5 -13.5t60.5 -41.5l61 -61q-117 -125 -262.5 -192.5t-299.5 -67.5q-147 0 -281.5 55.5t-237.5 158.5t-159 237t-56 280q0 99 25.5 193t74.5 176q48 81 115 148t149 115
t176.5 73.5t193.5 25.5q154 0 299.5 -67.5t262.5 -192.5l-61 -61q-57 -57 -135 -57q-54 0 -101 32q-125 83 -265 83q-94 0 -179.5 -35.5t-152.5 -101.5t-103.5 -152t-36.5 -179q0 -95 36.5 -181z" />
    <glyph glyph-name="D" unicode="D" horiz-adv-x="1549" 
d="M174 0v1433h565q129 0 247 -43t215 -124q123 -104 190.5 -245.5t67.5 -304.5q0 -127 -43.5 -245t-125.5 -215q-74 -86 -166 -144.5t-197 -86.5q-85 -25 -188 -25h-565zM739 263q90 0 174.5 35t147.5 98q64 64 99.5 147.5t35.5 172.5t-35.5 173t-99.5 148
q-63 63 -147.5 98t-174.5 35h-303v-907h303z" />
    <glyph glyph-name="E" unicode="E" horiz-adv-x="1199" 
d="M1094 0h-920v1433h920v-252h-658v-332h534v-252h-534v-345h658v-252z" />
    <glyph glyph-name="F" unicode="F" horiz-adv-x="1169" 
d="M989 822v-252h-553v-570h-262v1433h920v-252h-658v-359h553z" />
    <glyph glyph-name="G" unicode="G" horiz-adv-x="1506" 
d="M1368 767v-601q-94 -94 -224.5 -137t-318.5 -43q-147 0 -281 55.5t-237 158.5t-159 237t-56 280q0 99 25.5 193t74.5 176q48 81 115 148t149 115t176 73.5t193 25.5q154 0 299.5 -67.5t262.5 -192.5l-60 -61q-28 -29 -60.5 -43t-74.5 -14q-55 0 -102 32q-122 83 -265 83
q-93 0 -179.5 -36t-152.5 -101q-66 -66 -102.5 -152t-36.5 -179q0 -95 37.5 -181t106.5 -152q67 -64 155.5 -100t181.5 -36q89 2 183 27q47 13 86 37v202l-82 2q-75 0 -108.5 40.5t-33.5 130.5v80h488z" />
    <glyph glyph-name="H" unicode="H" horiz-adv-x="1580" 
d="M1403 0h-263v594h-704v-594h-262v1433h262v-587h704v587h263v-1433z" />
    <glyph glyph-name="I" unicode="I" horiz-adv-x="682" 
d="M473 0h-263v1433h263v-1433z" />
    <glyph glyph-name="J" unicode="J" horiz-adv-x="976" 
d="M626 1433h262v-931q0 -99 -33 -189.5t-95 -160.5q-67 -75 -162.5 -114.5t-209.5 -39.5q-121 0 -210.5 31t-155.5 97l76 82q50 54 132 54q31 -2 80 -17q50 -15 78 -15q60 0 107 23t78 66q26 36 39.5 83.5t13.5 99.5v931z" />
    <glyph glyph-name="K" unicode="K" horiz-adv-x="1430" 
d="M456 0h-263v1433h263v-1433zM989 1332q30 48 75 74.5t98 26.5h219l-460 -661q-8 -12 -26 -25l-17 -10l17 -10q14 -9 26 -26l491 -701h-219q-108 0 -173 101l-402 574q-22 30 -49 47l-18 11q-8 3 -9 4l9 3q18 8 36 24t31 35z" />
    <glyph glyph-name="L" unicode="L" horiz-adv-x="984" 
d="M88 0v1433h262v-1181h593v-252h-855z" />
    <glyph glyph-name="M" unicode="M" horiz-adv-x="1952" 
d="M1779 0h-262v1048q-15 -38 -22 -66q-10 -35 -25 -73l-186 -454l-83 -201l-77 -185l-28 -69h-238l-377 909q-14 30 -24 68l-22 65v-1042h-262v1433h261q57 0 104 -30.5t67 -79.5q53 -135 175 -435q65 -159 174 -436q6 -18 14 -54.5t8 -48.5q0 22 6.5 55.5t14.5 47.5
l45 103l303 768q18 50 66 80t106 30h262v-1433z" />
    <glyph glyph-name="N" unicode="N" horiz-adv-x="1624" 
d="M1448 0h-243l-684 956q-17 20 -27 44l-18 32l-20 36l-18 29v-1097h-262v1433h231q101 0 142 -57l598 -846q14 -20 25 -50.5t14 -55.5v1009h262v-1433z" />
    <glyph glyph-name="O" unicode="O" horiz-adv-x="1652" 
d="M117.5 910q25.5 94 74.5 176q48 81 115 148t149 115t176.5 73.5t193.5 25.5q199 0 370 -99q81 -48 148.5 -115t115.5 -148q100 -172 100 -369t-100 -369q-48 -81 -115.5 -148t-148.5 -114q-169 -100 -370 -100q-147 0 -281.5 55.5t-237.5 158.5t-159 237t-56 280
q0 99 25.5 193zM390.5 536q36.5 -86 103.5 -150q67 -66 153 -102t179 -36t179.5 36t152.5 102q66 64 102.5 150.5t36.5 180.5q0 93 -36.5 179t-102.5 152q-66 65 -152.5 101t-179.5 36q-94 0 -179.5 -35.5t-152.5 -101.5t-103.5 -152t-36.5 -179q0 -95 36.5 -181z" />
    <glyph glyph-name="P" unicode="P" horiz-adv-x="1306" 
d="M462 0h-262v1433h545q93 0 179 -36.5t152 -103.5q65 -67 100.5 -153.5t35.5 -180.5q0 -92 -36 -179t-100 -154q-67 -67 -153 -104t-178 -37h-283v-485zM745 748q41 0 78.5 17t65.5 47q28 31 44 69.5t16 77.5t-16 77.5t-44 69.5q-28 30 -65.5 47t-78.5 17h-283v-422h283z
" />
    <glyph glyph-name="Q" unicode="Q" horiz-adv-x="1652" 
d="M991 147l84 -115q-122 -46 -249 -46q-147 0 -281.5 55.5t-237.5 158.5t-159 237t-56 280q0 99 25.5 193t74.5 176q48 81 115 148t149 115t176.5 73.5t193.5 25.5q195 0 371 -99q81 -48 148 -115t115 -148q49 -82 74.5 -176t25.5 -193q0 -136 -47.5 -260t-136.5 -223
l387 -523h-202q-65 0 -116 26t-84 75l-172 237q-86 118 -174 237q123 61 204 181q38 57 58 121t20 129q0 93 -36.5 179t-102.5 152q-66 65 -152.5 101t-179.5 36q-94 0 -179.5 -35.5t-152.5 -101.5t-103.5 -152t-36.5 -179q0 -96 37 -181t106 -149q66 -63 154 -97t184 -34
q19 0 71 5q60 -79 85 -114z" />
    <glyph glyph-name="R" unicode="R" horiz-adv-x="1352" 
d="M455 0h-262v1433h538q99 0 184.5 -36.5t148.5 -105.5q60 -66 93 -148t33 -168q0 -129 -69 -239t-189 -170l322 -436l97 -130h-205q-45 0 -107 38q-71 47 -127 126l-261 352h-196v-516zM739 779q76 0 133 59q26 27 40.5 62.5t14.5 73.5t-14.5 74t-40.5 63q-57 59 -133 59
h-284v-391h284z" />
    <glyph glyph-name="S" unicode="S" horiz-adv-x="1118" 
d="M446 1151q-27 -17 -41.5 -41.5t-14.5 -51.5q0 -36 15 -60.5t47 -43.5q36 -22 159 -63l39 -13l47 -18q177 -63 263 -166t86 -252q0 -96 -40 -181t-115 -148q-73 -60 -165.5 -93.5t-190.5 -33.5q-104 0 -195.5 36.5t-163.5 105.5q-77 71 -117 171l39 22q38 23 77 33
q38 5 44 5q27 0 61 -9.5t64 -25.5q63 -43 103.5 -59.5t87.5 -16.5q42 0 85 13t79 37q41 28 62.5 64.5t21.5 79.5q0 40 -20 70.5t-61 55.5q-37 21 -83 37q-153 53 -218.5 83t-126.5 76q-75 54 -111 126.5t-36 168.5q0 87 36 161t103 126q60 49 140.5 75.5t166.5 26.5
q103 0 212 -61.5t194 -166.5l-51 -40q-29 -26 -69 -41t-77 -15q-39 0 -93 24l-77 31q-35 5 -39 5q-76 0 -127 -33z" />
    <glyph glyph-name="T" unicode="T" horiz-adv-x="1166" 
d="M36 1181v253h1106v-253h-421v-1181h-263v1181h-422z" />
    <glyph glyph-name="U" unicode="U" horiz-adv-x="1474" 
d="M418 568q0 -65 25 -123t71 -103q45 -45 104.5 -70t122.5 -25q65 0 124 25t104 70q46 45 71 104t25 122v865h263v-865q0 -156 -77.5 -290t-212.5 -213q-140 -80 -297 -80q-117 0 -224 44.5t-189 126.5t-127.5 190t-45.5 222v865h263v-865z" />
    <glyph glyph-name="V" unicode="V" horiz-adv-x="1442" 
d="M798 552q270 619 337 771q22 51 68 80.5t103 29.5h163l-625 -1433h-238l-625 1433h162q55 0 104 -31.5t68 -78.5l387 -887q8 -15 15 -49t7 -51q0 23 6 51t17 48z" />
    <glyph glyph-name="W" unicode="W" horiz-adv-x="2074" 
d="M603 0l-625 1433h162q57 0 104 -30.5t68 -79.5l100 -228l31 -71l36 -82q5 -15 12 -26l13 -32l198 -452q17 -47 20 -92q1 23 9 49q20 65 38 107q20 42 58 138q20 44 63 150l139 342l302 -694q20 -45 21 -91q1 21 6.5 46t14.5 45l390 891q20 48 67.5 79t103.5 31h162
l-625 -1433h-238l-207 463l-185 -463h-238z" />
    <glyph glyph-name="X" unicode="X" horiz-adv-x="1528" 
d="M966 767q-16 -16 -14 -41q0 -23 13 -39q135 -184 255 -345q64 -89 129 -174l124 -168h-157q-56 0 -96 8.5t-71 26.5q-29 17 -54 41.5t-52 61.5l-257 348q-12 19 -16 35l-7 21l-1 -5q-3 -13 -9.5 -29t-11.5 -22l-254 -347q-37 -47 -63 -71t-55 -39q-30 -16 -66 -22.5
t-90 -6.5h-158l475 643q21 27 34 51q11 20 11 32q0 21 -14 41l-492 666h158q69 0 116.5 -13.5t83.5 -43.5q35 -29 71 -80l244 -331q11 -20 17 -37q4 -10 5 -20q0 9 6 25.5t15 31.5l243 330q54 78 113.5 108t158.5 30h158z" />
    <glyph glyph-name="Y" unicode="Y" horiz-adv-x="1420" 
d="M843 0h-263v607q0 27 -10 49t-41 65l-526 712h201q65 0 116 -26t84 -75l283 -383q10 -14 16.5 -31.5t7.5 -29.5q0 10 7 28.5t18 32.5l282 382q66 102 200 102h203l-527 -713q-30 -39 -40.5 -62.5t-10.5 -50.5v-607z" />
    <glyph glyph-name="Z" unicode="Z" horiz-adv-x="1273" 
d="M441 225q27 27 61 27h683v-252h-1098v78q0 74 27 135q12 25 28 49.5t45 62.5l633 856h-696v253h1068v-116q0 -81 -42 -134z" />
    <glyph glyph-name="bracketleft" unicode="[" horiz-adv-x="696" 
d="M142 1533h428l-27 -235h-167v-1353h167l27 -234h-428v1822z" />
    <glyph glyph-name="backslash" unicode="\" horiz-adv-x="855" 
d="M916 -90h-128q-56 0 -103 30t-68 80l-635 1452h140q52 0 95 -30t65 -80z" />
    <glyph glyph-name="bracketright" unicode="]" horiz-adv-x="665" 
d="M524 -289h-428l27 234h167v1353h-167l-27 235h428v-1822z" />
    <glyph glyph-name="asciicircum" unicode="^" horiz-adv-x="1103" 
d="M557 1448q56 0 103 -30t68 -80l214 -498h-93q-89 0 -136 35q-27 18 -47 54q-20 41 -73 180q-18 47 -30 86l-16 46l-11 -41q-17 -36 -32 -82q-17 -49 -52 -136q-12 -32 -22 -50t-25 -36q-29 -30 -65.5 -43t-90.5 -13h-97l214 498q18 46 68.5 78t103.5 32h19z" />
    <glyph glyph-name="underscore" unicode="_" horiz-adv-x="788" 
d="M790 -345h-790v239h790v-239z" />
    <glyph glyph-name="grave" unicode="`" horiz-adv-x="690" 
d="M87 1485h182q99 0 141 -55l13 -20q35 -56 75 -129l29 -51l39 -70h-132q-99 0 -142 57z" />
    <glyph glyph-name="a" unicode="a" horiz-adv-x="1109" 
d="M207 848l-36 23q28 41 65 78q19 19 45 35q122 80 283 80q163 0 261.5 -69.5t135.5 -209.5q28 -94 28 -261v-524h-214q-10 12 -19 34.5t-11 41.5q-51 -39 -129 -64.5t-144 -25.5q-81 0 -150 23.5t-120 67.5q-107 93 -107 240q0 171 132.5 262t383.5 91q61 0 111 -8
q-7 81 -48 125t-112 44q-35 0 -62 -5.5t-59 -17.5l-21 -9q-33 -15 -66 -15q-51 0 -112 40zM604.5 236q68.5 19 125.5 54v146l-138 5q-106 0 -172 -32.5t-66 -86.5q0 -48 31.5 -76.5t87.5 -28.5q63 0 131.5 19z" />
    <glyph glyph-name="b" unicode="b" horiz-adv-x="1272" 
d="M160 1433h263v-455q47 42 107 64t126 22q108 0 206 -41.5t171 -116.5q73 -76 113 -175.5t40 -206.5q0 -108 -39.5 -206t-112.5 -174q-76 -76 -173 -117.5t-201 -41.5h-4q-66 0 -135.5 29.5t-117.5 77.5q-1 -35 -15 -67q-5 -12 -9 -18l-5 -7h-214v1433zM760.5 266.5
q49.5 21.5 86.5 60.5t57 90t20 107t-20 107t-57 90t-86.5 60.5t-105.5 21.5q-69 0 -131 -31.5t-101 -86.5v-322q39 -55 101 -86.5t131 -31.5q56 0 105.5 21.5z" />
    <glyph glyph-name="c" unicode="c" horiz-adv-x="1057" 
d="M508.5 782.5q-50.5 -20.5 -89.5 -59.5q-41 -40 -63 -90.5t-22 -107.5t22 -107.5t63 -90.5q39 -38 90.5 -59.5t105.5 -21.5q45 0 97 15l47 15l56 17q15 3 29 3l20 -2q54 -11 100 -44q17 -12 32 -27l39 -39q-88 -94 -197.5 -146t-222.5 -52q-144 0 -269 72t-197 195
q-75 125 -75 272q0 144 72 268t197 197q128 74 272 74q113 0 222.5 -52t197.5 -146l-39 -40q-32 -32 -76 -50.5t-86 -18.5q-14 0 -29 3l-92 25l-50 13l-48 5q-56 0 -106.5 -20.5z" />
    <glyph glyph-name="d" unicode="d" horiz-adv-x="1239" 
d="M1098 0h-213q-3 3 -13 25q-12 23 -17 67q-48 -48 -117.5 -77.5t-135.5 -29.5h-3q-104 0 -201 41.5t-173 117.5q-73 76 -113 174.5t-40 205.5q0 109 40 207.5t114 174.5q73 76 170.5 117t205.5 41q67 0 126.5 -21.5t107.5 -64.5v455h262v-1433zM734 277q62 32 101 86v322
q-39 54 -101 86t-131 32q-56 0 -105.5 -21.5t-86.5 -60.5t-57 -90t-20 -107t20 -107t57 -90t86.5 -60.5t105.5 -21.5q69 0 131 32z" />
    <glyph glyph-name="e" unicode="e" horiz-adv-x="1216" 
d="M1119 524q-23 -37 -62 -58q-40 -20 -83 -20h-624q6 -35 27 -72.5t51 -66.5q78 -78 185 -78q36 0 72 9.5t67 26.5q41 24 94 24q73 0 127 -54l60 -61q-85 -91 -193 -139.5t-227 -48.5q-107 0 -206.5 41.5t-175.5 116.5t-117.5 174t-41.5 207t41.5 207t117.5 174
t175.5 116.5t206.5 41.5q90 0 175.5 -30t157.5 -86q69 -55 118.5 -129t72.5 -159q4 -7 4 -27q0 -24 1 -25q0 -47 -23 -84zM866 669q-30 69 -97 110.5t-151 41.5q-63 0 -119 -24.5t-95 -67.5q-36 -38 -50 -85q13 13 25.5 19t29.5 6h457z" />
    <glyph glyph-name="f" unicode="f" horiz-adv-x="748" 
d="M179 0v803h-163v146q0 55 34.5 78.5t115.5 23.5h13v96q0 64 20.5 119t58.5 95q39 40 93 61.5t119 21.5q31 0 70.5 -9.5t74.5 -26.5q38 -15 74 -37t59 -45l-36 -59q-47 -74 -136 -74q-20 0 -44 3q-4 0 -16 3q-13 3 -23 3q-24 0 -38 -18t-14 -47v-86h233v-248h-232v-803
h-263z" />
    <glyph glyph-name="g" unicode="g" horiz-adv-x="1053" 
d="M1036 988q-19 -62 -38.5 -96t-47.5 -52q-31 -19 -79 -19q28 -74 28 -153q0 -75 -31 -149t-86 -132q-55 -57 -129 -88t-155 -31q-87 0 -174 36q-47 -30 -47 -54q0 -9 4 -13l9 -8q20 -17 66 -22q68 -5 139 -5q31 0 32 1h32q71 0 117.5 -6t87.5 -21q75 -26 116.5 -87.5
t41.5 -145.5q0 -60 -23.5 -111.5t-69.5 -90.5q-99 -84 -276 -84q-107 0 -216.5 27t-300.5 99l13 33q27 70 60.5 99.5t92.5 29.5q43 0 84 -16q42 -15 45 -16q110 -42 206 -42q65 0 108.5 20.5t43.5 53.5q0 20 -18 34q-18 12 -66.5 19.5t-109.5 8.5q-122 0 -190.5 8t-119.5 29
q-114 47 -114 164q0 19 8.5 43t24.5 47q34 52 99 91q-111 125 -111 274q0 80 31 153.5t88 130.5q60 56 134 86.5t152 30.5q114 0 218 -65q22 11 62.5 19t79.5 8q48 0 106 -15l42 -12zM351.5 580q22.5 -38 61.5 -61q38 -23 83 -23q34 0 64.5 13t53.5 36q49 49 49 118
q0 33 -13 63.5t-36 54.5q-23 23 -53.5 36t-64.5 13q-69 0 -118 -49q-23 -23 -36 -53.5t-13 -64.5q0 -45 22.5 -83z" />
    <glyph glyph-name="h" unicode="h" horiz-adv-x="1192" 
d="M360 1433q48 -57 48 -115v-373q15 27 44 50t68 39q66 31 151 31q90 0 165 -33t129 -95q54 -63 83 -151.5t29 -193.5v-592h-263v585q0 105 -40.5 165t-112.5 60q-46 0 -90.5 -11.5t-80.5 -32.5t-58 -48t-24 -54v-664h-262v1433h214z" />
    <glyph glyph-name="i" unicode="i" horiz-adv-x="597" 
d="M155 1402q22 35 60 55t83 20q34 0 64 -11.5t52 -31.5q48 -43 48 -110q0 -66 -48 -110q-22 -20 -52 -31t-64 -11q-45 0 -83 19.5t-60 54.5q-22 34 -22 78q0 43 22 78zM429 1050v-1050h-263v1050h263z" />
    <glyph glyph-name="j" unicode="j" horiz-adv-x="591" 
d="M155 1402q22 35 60 55t83 20q34 0 64 -11.5t52 -31.5q48 -43 48 -110q0 -66 -48 -110q-22 -20 -52 -31t-64 -11q-45 0 -83 19.5t-60 54.5q-22 34 -22 78q0 43 22 78zM428 1050v-995q-2 -150 -97 -269q-94 -114 -232 -169l-13 29q-26 57 -35.5 86.5t-9.5 56.5q0 25 10 48
t33 52l36 44q35 44 42 91q3 23 3 43v983h263z" />
    <glyph glyph-name="k" unicode="k" 
d="M414 0h-262v1433h262v-1433zM768 948q23 46 73 74t110 28h178l-298 -473q-16 -19 -28 -26l-19 -10l19 -9q12 -7 28 -26l324 -506h-178q-64 0 -111 25.5t-73 75.5l-245 378q-17 25 -43 45l-18 13q-7 4 -9 4q2 0 9 4q18 9 35 25.5t26 32.5z" />
    <glyph glyph-name="l" unicode="l" horiz-adv-x="592" 
d="M429 1433v-1433h-263v1433h263z" />
    <glyph glyph-name="m" unicode="m" horiz-adv-x="1719" 
d="M1561 917q41 -60 62.5 -144t21.5 -183v-590h-266v584q0 103 -33.5 163t-92.5 60q-111 0 -169 -53t-58 -155v-599h-264v589q0 63 -15.5 112t-43.5 77t-66 28q-112 0 -170 -53t-58 -154v-599h-263v1050h213q12 -16 21 -48t9 -64q33 59 108.5 92.5t172.5 33.5
q95 0 155.5 -37t102.5 -121q47 74 154 120q45 18 96 28t99 10q184 0 284 -147z" />
    <glyph glyph-name="n" unicode="n" horiz-adv-x="1192" 
d="M354 1050q16 -22 25.5 -55.5t9.5 -71.5v-16q28 67 116 114q40 21 87.5 32.5t95.5 11.5q89 0 163 -32.5t126 -93.5q51 -61 78.5 -150t27.5 -197v-592h-262v584q0 66 -18.5 117t-53.5 80q-34 28 -80 28q-50 0 -97 -12t-83 -33q-38 -22 -59 -51.5t-22 -61.5v-651h-262v1050
h208z" />
    <glyph glyph-name="o" unicode="o" horiz-adv-x="1226" 
d="M113.5 732q41.5 99 117.5 175t174.5 117t206.5 41t207.5 -41.5t174.5 -116.5t116.5 -174.5t41.5 -207.5t-41 -206.5t-117 -174.5t-175 -117.5t-207 -41.5q-107 0 -206 41.5t-175 117.5t-117.5 175t-41.5 206q0 108 41.5 207zM353.5 417q21.5 -51 60.5 -89
q40 -39 91 -60.5t106 -21.5t106 21.5t91 60.5q39 38 60.5 89t21.5 107t-21.5 107t-60.5 90t-90 60.5t-107 21.5t-107 -21.5t-90 -60.5t-60.5 -90t-21.5 -107t21.5 -107z" />
    <glyph glyph-name="p" unicode="p" horiz-adv-x="1256" 
d="M149 1050h214q5 0 15 -27q10 -28 18 -79q23 80 178 113q54 8 71 8h4q104 0 201 -41.5t173 -117.5q73 -76 112.5 -174.5t39.5 -206.5t-40 -207t-113 -174q-76 -76 -173.5 -117t-203.5 -41q-66 0 -126 21.5t-107 63.5v-410h-263v1389zM513 772.5q-62 -31.5 -101 -85.5v-322
q39 -55 101 -86.5t131 -31.5q56 0 105.5 21.5t86.5 60.5t57 89.5t20 107.5q0 55 -20 106t-57 91q-37 39 -86.5 60t-105.5 21q-69 0 -131 -31.5z" />
    <glyph glyph-name="q" unicode="q" horiz-adv-x="1249" 
d="M1098 -340h-262v411q-48 -42 -108 -63.5t-126 -21.5q-107 0 -204 41t-172 117q-74 75 -114 173.5t-40 207.5q0 108 40.5 206.5t114.5 174.5q76 76 173.5 117.5t201.5 41.5q65 0 136 -30.5t117 -76.5q5 34 16 66q11 24 14 26h213v-1390zM497.5 783q-49.5 -21 -86.5 -60
q-37 -40 -57 -91t-20 -106q0 -57 20 -107.5t57 -89.5t86.5 -60.5t105.5 -21.5q69 0 131 32t101 86v322q-38 54 -100 85.5t-132 31.5q-56 0 -105.5 -21z" />
    <glyph glyph-name="r" unicode="r" horiz-adv-x="831" 
d="M344 1050l12 -19q11 -21 13 -40l1 -24v-21q46 54 115 86t142 32q74 0 186 -41l-9 -54q-8 -44 -14 -66q-4 -20 -14 -36q-26 -41 -76 -57q-37 -8 -51 -8q-6 0 -7 1h-17q-73 0 -137.5 -32.5t-89.5 -81.5q-13 -33 -14 -72v-617h-262v1050h222z" />
    <glyph glyph-name="s" unicode="s" horiz-adv-x="883" 
d="M144 279q46 24 92 25q23 0 45.5 -9.5t50.5 -30.5q53 -38 99 -38q30 0 58 13t46 37q17 23 17 52q0 20 -6.5 34.5t-22.5 26.5q-27 20 -115 51q-160 52 -232 127.5t-72 193.5q0 61 28 117t79 99q48 41 109 64t124 23q109 0 218 -78q45 -34 67 -59l30 -35l-60 -60
q-30 -23 -54 -33t-50 -10q-24 0 -49 13l-14 7q-25 10 -42 14.5t-37 4.5t-42.5 -11.5t-37.5 -29.5q-16 -16 -16 -34q0 -34 26 -54t94 -39q87 -24 140 -47t91 -54q99 -79 99 -224q0 -69 -27 -133t-77 -112q-52 -50 -121.5 -77t-148.5 -27q-116 0 -214 66t-158 184z" />
    <glyph glyph-name="t" unicode="t" horiz-adv-x="770" 
d="M453 801v-494q0 -30 14.5 -49t38.5 -19l36 5q9 4 31 4q68 0 123 -54q13 -13 39 -47l27 -39q-43 -45 -134 -85q-39 -17 -78 -27t-68 -10q-67 0 -121 21.5t-92 62.5q-38 39 -58.5 94t-20.5 119v518h-163v166q0 41 26 61.5t75 20.5h62v207q0 58 32 117q11 23 32 46h199v-369
h270v-249h-270z" />
    <glyph glyph-name="u" unicode="u" horiz-adv-x="1198" 
d="M1055 1050v-1050h-208q-15 15 -25.5 46t-10.5 62v18v13q-18 -42 -63 -77t-109 -56q-61 -21 -126 -21q-89 0 -163 33t-126 96t-79.5 151t-27.5 193v592h263v-585q0 -224 152 -224q51 0 98 12t83 34q79 48 79 115v648h263z" />
    <glyph glyph-name="v" unicode="v" horiz-adv-x="1141" 
d="M247 415l-46 110l-221 525h162q56 0 103 -30.5t65 -77.5q58 -140 186 -443l22 -52q17 -41 27.5 -75t18.5 -76q0 25 7 46q10 39 39 106q66 150 105 247l104 248q21 50 67 79t101 29h161l-442 -1051h-284z" />
    <glyph glyph-name="w" unicode="w" horiz-adv-x="1721" 
d="M136 1051q51 0 101 -32.5t67 -75.5l213 -506q25 -60 34 -92q7 -25 8 -45q2 30 12.5 64t36.5 90l11 24l271 573l285 -614q38 -81 42 -141q2 50 18 87l69 165q27 57 49 115l117 279q19 48 65.5 78t103.5 30h161l-441 -1050h-284l-193 453l-181 -453h-284l-442 1051h161z
" />
    <glyph glyph-name="x" unicode="x" horiz-adv-x="1302" 
d="M876 987q20 26 44 39.5t59 18.5q42 5 95 5h142l-175 -237l-174 -238q-10 -13 -10 -29q0 -18 11 -32l379 -514h-174q-49 0 -79.5 6.5t-58.5 21.5q-25 15 -43 37q-36 39 -65 77q-39 50 -108 146l-48 67q-13 16 -16 33l-4 19q-1 -1 -4 -19q-3 -16 -15 -33l-64 -86l-15 -21
q-89 -122 -106 -139q-20 -25 -39 -44q-33 -38 -71.5 -51.5t-113.5 -13.5h-168l377 512q13 16 13 33q0 14 -10 30l-1 1l-348 474h173q70 0 109.5 -13.5t71.5 -51.5l192 -255q13 -16 16 -32q2 -16 3 -18q2 2 3 18q1 15 15 32z" />
    <glyph glyph-name="y" unicode="y" horiz-adv-x="1179" 
d="M28 1050h164q56 0 103.5 -30.5t65.5 -79.5l180 -430q30 -67 30 -121q0 -23 -6 -46l143 346l95 226l12 27q22 50 67 79.5t101 28.5h165l-578 -1326q-18 -50 -65.5 -81.5t-104.5 -31.5h-165l105 241l104 241z" />
    <glyph glyph-name="z" unicode="z" horiz-adv-x="970" 
d="M423 230q31 22 62 22h410v-252h-825v112q0 82 51 143q127 168 207 277q113 153 198 266h-444v252h814v-112q0 -75 -42 -132z" />
    <glyph glyph-name="braceleft" unicode="{" horiz-adv-x="642" 
d="M86 724q56 0 85.5 36t29.5 102q0 31 -4 57t-16 74q-11 46 -15.5 79.5t-4.5 74.5q0 103 35 184.5t103 135.5q47 37 104 59t102 22q13 -78 14 -91l2 -30q0 -54 -36 -101q-9 -11 -30 -32q-19 -18 -28 -29.5t-15 -26.5q-13 -27 -16 -73l-2 -33q0 -35 4.5 -64t18.5 -83
q13 -50 18 -86.5t5 -80.5q0 -73 -23 -124t-67 -74q44 -23 67.5 -74.5t23.5 -123.5q0 -50 -5 -87.5t-18 -86.5q-15 -58 -19.5 -82t-4.5 -57q0 -98 37 -138l24 -23q35 -33 50.5 -65t15.5 -69l-2 -30q-10 -70 -14 -90h-6l-22 2q-8 0 -9 1q-149 35 -227.5 137.5t-78.5 260.5
q0 39 5 74t16 80q12 39 16.5 70t4.5 66q0 59 -31.5 93.5t-86.5 37.5v208z" />
    <glyph glyph-name="bar" unicode="|" horiz-adv-x="600" 
d="M210 1578h234v-1866h-234v1866z" />
    <glyph glyph-name="braceright" unicode="}" horiz-adv-x="672" 
d="M571 516q-57 -3 -86.5 -39t-29.5 -102q0 -38 14 -96l4 -18l3 -14q11 -49 15.5 -82t4.5 -72q0 -102 -35 -183t-103 -135q-65 -50 -131 -69q-39 -12 -75 -12q-4 23 -4 25l-5 35q-1 10 -4 30l-3 30q0 57 36 102q15 17 30 31t24 24q37 40 37 138q0 39 -5 68.5t-19 77.5
q-13 51 -18.5 87t-5.5 80q0 70 24 122t68 76q-44 23 -67.5 74.5t-23.5 123.5q0 47 5.5 83.5t18.5 90.5q13 42 18 73.5t5 66.5q0 44 -9.5 80.5t-27.5 57.5q-9 10 -24 24q-32 27 -49 62t-17 71l3 30l13 91q34 -1 75 -13t79 -33q96 -56 142.5 -144t46.5 -214q0 -40 -4.5 -73.5
t-15.5 -79.5q-13 -48 -18 -87q-3 -25 -3 -49q0 -63 31 -97t86 -34v-208z" />
    <glyph glyph-name="asciitilde" unicode="~" horiz-adv-x="1206" 
d="M108 523q37 83 93 144t126 93q44 22 111 22q85 0 187 -46q68 -29 96.5 -37.5t59.5 -8.5q29 0 60 30l19 18q33 26 57 36.5t54 10.5l24 -3q79 -12 123 -21l-5 -21q-29 -119 -91.5 -189.5t-155.5 -91.5q-30 -10 -79 -10q-46 0 -91 10.5t-102 33.5l-48 18l-43 17q-32 8 -51 8
q-21 0 -38 -8.5t-48 -33.5q-28 -25 -46.5 -34t-41.5 -9q-9 0 -62 8l-122 32z" />
    <glyph glyph-name="exclamdown" unicode="&#xa1;" horiz-adv-x="726" 
d="M513 891.5q-12 -28.5 -34 -50.5t-51 -34t-62 -12t-62.5 12t-51.5 34q-22 21 -34.5 50t-12.5 61t12.5 61.5t34.5 50.5t52 33.5t62 12.5t61.5 -12t51.5 -34q22 -21 34 -50.5t12 -61.5t-12 -60.5zM488 595v-933h-245v933h245z" />
    <glyph glyph-name="cent" unicode="&#xa2;" horiz-adv-x="1059" 
d="M518 -5q-94 17 -175 64.5t-141 119.5q-62 74 -95 162.5t-33 183.5q0 94 33 183t95 164q60 72 141.5 119t174.5 64v174h123v-166q108 -6 209 -56.5t185 -140.5l-39 -40q-32 -32 -76 -50.5t-86 -18.5q-14 0 -29 3l-92 25l-50 13l-48 5q-56 0 -106.5 -20.5t-89.5 -59.5
q-41 -40 -63 -90.5t-22 -107.5t22 -107.5t63 -90.5q39 -38 90.5 -59.5t105.5 -21.5q45 0 97 15l47 15l56 17q15 3 29 3l20 -2q54 -11 100 -44q17 -12 32 -27l39 -39q-82 -90 -183 -140.5t-211 -56.5v-166h-123v174z" />
    <glyph glyph-name="sterling" unicode="&#xa3;" horiz-adv-x="1199" 
d="M845 735v-124h-353v-191q0 -57 -18 -96.5t-60 -72.5h707l26 -251h-1048v130q0 39 5.5 56.5t22.5 32.5q6 5 23 23q35 38 57 86t22 86v197h-139v124h139v252q0 93 35.5 178t101.5 149q64 64 150 99.5t179 35.5q66 0 129.5 -20t119.5 -58q113 -76 180 -204l-73 -39
q-58 -31 -106 -31q-36 0 -67 12t-76 43q-18 12 -50 22t-54 10q-39 0 -76.5 -15t-66.5 -41q-30 -27 -46.5 -63.5t-16.5 -77.5v-252h353z" />
    <glyph glyph-name="currency" unicode="&#xa4;" 
d="M210 783q19 58 52 107l-83 83l109 109l79 -81q49 31 110 49.5t115 18.5q51 0 111 -19t113 -50l42 43l25 24l14 15l109 -109l-83 -84q33 -52 52 -109.5t19 -110.5q0 -56 -17.5 -113.5t-50.5 -108.5l82 -83l-109 -110l-83 83q-49 -30 -109.5 -48t-114.5 -18
q-56 0 -114.5 17.5t-107.5 48.5l-83 -83l-109 109l81 83q-32 52 -50 110t-18 113q0 56 19 114zM477 554q22 -23 52 -36t63 -13q32 0 62 13t52 36q47 50 47 115q0 33 -12.5 63.5t-34.5 52.5t-52 35t-62 13t-62.5 -13t-52.5 -35t-34.5 -52.5t-12.5 -63.5q0 -65 47 -115z" />
    <glyph glyph-name="yen" unicode="&#xa5;" horiz-adv-x="1336" 
d="M325 574h213v33q0 27 -10 49t-41 65l-526 712h168q85 0 145 -31.5t112 -102.5l259 -350q14 -17 18 -35l6 -25q0 8 7.5 27t17.5 33l258 349q52 79 124 109q32 14 70.5 20t96.5 6h136l-527 -713q-30 -40 -40.5 -63t-10.5 -50v-33h212v-125h-212v-76h212v-125h-212v-248
h-263v248h-213v125h213v76h-213v125z" />
    <glyph glyph-name="brokenbar" unicode="&#xa6;" horiz-adv-x="634" 
d="M210 1578h234v-798h-234v798zM210 510h234v-798h-234v798z" />
    <glyph glyph-name="section" unicode="&#xa7;" horiz-adv-x="1006" 
d="M894.5 558q-22.5 -59 -63.5 -103q-42 -43 -95 -63q56 -15 87 -70t31 -137q0 -69 -28.5 -128t-82.5 -102q-51 -40 -115.5 -62t-131.5 -22q-91 0 -197 70q-73 42 -152 136l56 42q22 18 49.5 28.5t54.5 10.5q23 0 44.5 -6.5t59.5 -25.5l24 -12q38 -20 65 -20q16 0 36 5.5
t38 15.5q44 26 44 63q0 24 -11 41.5t-35 33.5q-21 13 -53.5 27t-95.5 37l-13 5q-148 52 -219 134t-71 204q0 91 48 168.5t134 122.5q-57 15 -87 67.5t-30 134.5q0 69 28.5 127.5t82.5 100.5q50 40 114 61t131 21q81 0 177.5 -57.5t172.5 -150.5l-33 -24q-31 -24 -47.5 -34
t-35.5 -15q-17 -7 -48 -7q-23 0 -45 7t-56 25q-14 9 -57 26q-28 5 -29 5q-32 0 -60 -12t-44 -31t-16 -40q0 -24 10.5 -41t33.5 -31q16 -10 45 -21q34 -14 83 -31l9 -3q2 -1 4.5 -2t5.5 -2l17 -6q150 -54 219.5 -135.5t69.5 -203.5q0 -62 -22.5 -121zM463 787q-30 -9 -54 -26
q-27 -19 -42 -45.5t-15 -56.5q0 -26 13.5 -48.5t37.5 -37.5q47 -32 111 -32q69 0 115 36q27 18 42 44.5t15 58.5q0 24 -14 46t-38 38q-23 15 -52 23.5t-58 8.5q-31 0 -61 -9z" />
    <glyph glyph-name="dieresis" unicode="&#xa8;" horiz-adv-x="733" 
d="M55 1354.5q10 24.5 28 42.5q39 39 94 39q27 0 51.5 -10.5t42.5 -28.5t28.5 -42.5t10.5 -51.5q0 -55 -39 -94q-18 -18 -42.5 -28t-51.5 -10q-56 0 -94 38t-38 94q0 27 10 51.5zM420.5 1354.5q10.5 24.5 28.5 42.5t42 28.5t51 10.5q55 0 94 -39q18 -18 28.5 -42.5
t10.5 -51.5q0 -36 -17.5 -66.5t-47.5 -47.5q-31 -18 -68 -18q-27 0 -51 10t-42 28q-39 39 -39 94q0 27 10.5 51.5z" />
    <glyph glyph-name="copyright" unicode="&#xa9;" horiz-adv-x="1601" 
d="M94.5 910q25.5 94 74.5 176q48 81 115 148t149 115t176 73.5t193 25.5q195 0 371 -99q81 -48 148 -115t115 -148q49 -82 74.5 -176t25.5 -193q0 -146 -56 -280t-159 -237t-237.5 -158.5t-281.5 -55.5t-281 55.5t-237 158.5t-159 237t-56 280q0 99 25.5 193zM267.5 496
q44.5 -105 126.5 -186q82 -82 187 -126t221 -44t222 44.5t187 125.5q82 81 126.5 186t44.5 221t-44.5 221t-126.5 187q-81 81 -187 125t-222 44t-221.5 -44t-186.5 -125q-82 -82 -126.5 -187t-44.5 -221t44.5 -221zM538.5 598q22.5 -54 65.5 -96q40 -38 92 -58.5t109 -20.5
q78 0 155 50q15 10 37 16.5t40 6.5q61 0 92 -34l33 -35q-73 -81 -166 -125t-191 -44q-92 0 -176 35t-148 99q-65 65 -100 148t-35 175q0 90 35.5 174t99.5 148t148 99t176 35q98 0 191 -44t166 -125l-33 -34q-38 -35 -92 -35q-18 0 -40 6.5t-37 16.5q-77 50 -155 50
q-57 0 -109 -21t-92 -60q-42 -39 -65 -93.5t-23 -116.5q0 -63 22.5 -117z" />
    <glyph glyph-name="ordfeminine" unicode="&#xaa;" horiz-adv-x="771" 
d="M101 1463q30 40 48 58q13 12 33 26q46 30 96.5 44.5t112.5 14.5q239 0 294 -205q21 -79 21 -194v-388h-160q-15 21 -23 49q-35 -27 -90 -43t-109 -16q-124 0 -200 67q-39 33 -59.5 79t-20.5 100q0 126 97.5 193t285.5 67q48 0 80 -5q-3 57 -33.5 89.5t-83.5 32.5
q-27 0 -47 -4t-42 -13l-30 -11q-14 -6 -34 -6q-21 0 -39.5 7t-44.5 23zM422 995.5q50 13.5 90 39.5v103q-10 3 -38.5 5t-61.5 2q-78 0 -126 -23.5t-48 -63.5q0 -34 22.5 -55t63.5 -21q48 0 98 13.5z" />
    <glyph glyph-name="guillemotleft" unicode="&#xab;" horiz-adv-x="1105" 
d="M279 845q27 63 83.5 99.5t126.5 36.5h87l-166 -397q-19 -40 -52 -56q37 -21 52 -54l166 -397h-87q-78 0 -129 33.5t-81 102.5l-118 286q-7 18 -14 23l-10 7q2 0 9 7q8 6 15 25zM656 845q27 63 83.5 99.5t126.5 36.5h87l-166 -397q-19 -40 -52 -56q37 -21 52 -54l166 -397
h-87q-78 0 -129 33.5t-81 102.5l-118 286q-7 18 -14 23l-10 7q2 0 9 7q8 6 15 25z" />
    <glyph glyph-name="logicalnot" unicode="&#xac;" horiz-adv-x="1197" 
d="M803 299v221h-653v240h893v-461h-240z" />
    <glyph glyph-name="uni00AD" unicode="&#xad;" horiz-adv-x="753" 
d="M653 478h-560v240h560v-240z" />
    <glyph glyph-name="registered" unicode="&#xae;" horiz-adv-x="1596" 
d="M94.5 910q25.5 94 74.5 176q48 81 115 148t149 115t176 73.5t193 25.5q195 0 371 -99q81 -48 148 -115t115 -148q49 -82 74.5 -176t25.5 -193q0 -146 -56 -280t-159 -237t-237.5 -158.5t-281.5 -55.5t-281 55.5t-237 158.5t-159 237t-56 280q0 99 25.5 193zM690 287h-155
v859h316q53 0 100.5 -19.5t84.5 -55.5q36 -37 56 -84.5t20 -100.5q0 -76 -42.5 -140t-112.5 -95l253 -342q82 82 127 188t45 220q0 116 -44.5 221t-126.5 187q-81 81 -187 125t-222 44t-221.5 -44t-186.5 -125q-82 -82 -126.5 -187t-44.5 -221t44.5 -221t126.5 -186
q82 -82 187 -126t221 -44q153 0 284 75l-306 412h-90v-340zM685 992v-210h164q43 0 73 30t30 74q0 43 -30.5 74.5t-72.5 31.5h-164z" />
    <glyph glyph-name="macron" unicode="&#xaf;" horiz-adv-x="654" 
d="M30 1420h589v-220h-589v220z" />
    <glyph glyph-name="degree" unicode="&#xb0;" horiz-adv-x="848" 
d="M101.5 1257.5q26.5 62.5 74.5 110.5t111.5 74t132.5 26t131.5 -26t111.5 -74q48 -48 74.5 -110.5t26.5 -131.5q0 -68 -26.5 -130.5t-74.5 -110.5t-111 -74.5t-132 -26.5t-132.5 26.5t-111.5 74.5t-74.5 110.5t-26.5 130.5q0 69 26.5 131.5zM307 1060q18 -30 48 -48
t65 -18q27 0 51 10.5t42 28.5q39 39 39 92q0 27 -10.5 51t-28.5 42t-42 28.5t-51 10.5q-53 0 -92 -39q-18 -18 -28.5 -42t-10.5 -51q0 -35 18 -65z" />
    <glyph glyph-name="plusminus" unicode="&#xb1;" 
d="M458 420v331h-356v240h356v358h240v-358h358v-240h-358v-331h-240zM102 381h953v-239h-953v239z" />
    <glyph glyph-name="uni00B2" unicode="&#xb2;" horiz-adv-x="722" 
d="M641 835h-550v74q0 44 16 69q1 10 21 31l25 27l39 38q100 97 173 183q72 86 72 114q0 32 -26 52.5t-65 20.5q-27 0 -53 -14l-27 -17q-21 -15 -48 -26q-22 -5 -26 -5q-13 0 -24.5 3.5t-31.5 14.5l-57 29q31 78 100 141q80 68 174 68q56 0 107 -18.5t90 -51.5
q40 -37 62 -84t22 -100q0 -45 -35 -111t-99 -142q-54 -62 -95 -103h236v-193z" />
    <glyph glyph-name="uni00B3" unicode="&#xb3;" horiz-adv-x="664" 
d="M153 915q-20 18 -42.5 53t-38.5 73l58 27q15 10 33 14l20 2q42 0 70 -25q1 -4 7 -6q32 -27 71 -27q32 0 54.5 22t22.5 54q0 34 -21 59.5t-51 25.5h-83v149h83q27 0 45 19.5t18 49.5q0 26 -19 44.5t-44 18.5q-13 0 -17 -4l-13 -9l-17 -7q-24 -14 -39 -19t-33 -5h-4
q-32 0 -67 26l-55 42q122 146 239 146q45 0 87.5 -17t75.5 -48q70 -67 70 -163q0 -30 -18 -74q-23 -48 -41 -69q35 -33 56.5 -79t21.5 -91q0 -49 -17.5 -92.5t-49.5 -77.5q-33 -34 -76 -53.5t-90 -22.5q-120 0 -196 64z" />
    <glyph glyph-name="acute" unicode="&#xb4;" horiz-adv-x="713" 
d="M393 1217q-42 -56 -142 -56h-132l115 202l28 48l13 20q42 55 141 55h182z" />
    <glyph glyph-name="uni00B5" unicode="&#xb5;" horiz-adv-x="1164" 
d="M122 1050h245v-681q5 -46 40 -80.5t91 -50.5q41 -11 79 -13q83 2 146 44q29 19 46.5 44.5t20.5 55.5v681h244v-1050h-196q-12 7 -21 32t-9 51q-36 -45 -97.5 -71t-131.5 -26q-145 0 -212 96v-422h-245v1390z" />
    <glyph glyph-name="paragraph" unicode="&#xb6;" horiz-adv-x="1353" 
d="M76 1144q36 86 102 152t152 101.5t181 35.5h805v-235h-198v-1396h-235v1396h-178v-1396h-234v695q-90 6 -168.5 43.5t-138.5 103.5q-59 63 -91.5 146t-32.5 173q0 95 36 181z" />
    <glyph glyph-name="periodcentered" unicode="&#xb7;" horiz-adv-x="616" 
d="M152 659.5q13 30.5 36 52.5q51 48 119 48t119 -48q23 -22 36.5 -53t13.5 -64q0 -44 -22.5 -81.5t-62.5 -61.5q-41 -23 -84 -23q-45 0 -83.5 22t-61.5 60t-23 84q0 34 13 64.5z" />
    <glyph glyph-name="cedilla" unicode="&#xb8;" horiz-adv-x="658" 
d="M199 10h142l-1 -77q40 -5 74.5 -19.5t59.5 -35.5q25 -22 39.5 -49.5t14.5 -56.5q0 -45 -29.5 -82.5t-82.5 -59.5q-57 -23 -122 -23q-46 0 -96 24q-16 7 -42 25v108q47 -24 90 -34q26 -6 53 -6t46.5 11.5t19.5 26.5q0 21 -20.5 34.5t-50.5 13.5h-11q-1 -1 -21 -1
q-35 0 -49 14.5t-14 52.5v134z" />
    <glyph glyph-name="uni00B9" unicode="&#xb9;" horiz-adv-x="740" 
d="M645 849h-468v197h141v326q-25 -13 -50 -13q-17 0 -36.5 5.5t-26.5 12.5l-57 54l211 203h159v-588h127v-197z" />
    <glyph glyph-name="ordmasculine" unicode="&#xba;" horiz-adv-x="902" 
d="M83.5 1230.5q29.5 70.5 84.5 125.5q54 54 124.5 83t148.5 29q80 0 150.5 -29t124.5 -83t83.5 -125t29.5 -149t-29.5 -148t-83.5 -124t-125.5 -83t-149.5 -29t-148 29t-125 83t-84.5 124t-29.5 148t29.5 148.5zM308.5 1005.5q20.5 -34.5 56.5 -54.5q34 -21 77 -21
q30 0 58.5 12t49.5 33q44 44 44 107q0 62 -44 109q-21 21 -49.5 33t-58.5 12q-42 0 -77.5 -20.5t-55.5 -55.5q-21 -36 -21 -78t20.5 -76.5z" />
    <glyph glyph-name="guillemotright" unicode="&#xbb;" horiz-adv-x="1075" 
d="M541 561q7 -18 16 -25q7 -6 7 -8l-2 -2l-6 -4q-7 -6 -15 -23l-129 -312q-24 -51 -70 -80.5t-101 -29.5h-114l166 397q6 17 21 32t31 22q-33 16 -52 56l-166 397h114q53 0 100.5 -30t70.5 -79zM918 561q7 -18 16 -25q7 -6 7 -8l-2 -2l-6 -4q-7 -6 -15 -23l-129 -312
q-24 -51 -70 -80.5t-101 -29.5h-114l166 397q6 17 21 32t31 22q-33 16 -52 56l-166 397h114q53 0 100.5 -30t70.5 -79z" />
    <glyph glyph-name="onequarter" unicode="&#xbc;" horiz-adv-x="1424" 
d="M532 846l2 -197h-470v197h141v326q-25 -13 -50 -13q-17 0 -36.5 5.5t-26.5 12.5l-57 54l211 203h159v-588h127zM942 1324v-1q22 52 64 81t96 29h134l-633 -1325q-24 -49 -70.5 -78.5t-100.5 -29.5h-122zM1147 0v153h-317v109q0 15 8 36t17 33l82 138l18 30l140 227
q33 53 88 53h135v-452h85v-174h-85v-153h-171zM1161 327v199l-120 -199h120z" />
    <glyph glyph-name="onehalf" unicode="&#xbd;" horiz-adv-x="1424" 
d="M532 846l2 -197h-470v197h141v326q-25 -13 -50 -13q-17 0 -36.5 5.5t-26.5 12.5l-57 54l211 203h159v-588h127zM942 1324v-1q22 52 64 81t96 29h134l-633 -1325q-24 -49 -70.5 -78.5t-100.5 -29.5h-122zM1481 0h-550v73q0 47 16 69q1 10 21 31q9 12 45 48l19 18
q142 142 202 220q43 55 43 76q0 30 -26 52t-62 22q-30 0 -56 -14l-27 -17q-25 -18 -48 -27q-22 -5 -26 -5q-22 0 -56 18l-57 30q31 78 100 141q80 68 174 68q56 0 107 -18.5t90 -52.5q40 -37 62 -84t22 -100q0 -63 -59 -154t-170 -202h236v-192z" />
    <glyph glyph-name="threequarters" unicode="&#xbe;" horiz-adv-x="1426" 
d="M153 718q-21 18 -44.5 54.5t-36.5 70.5q43 24 68 34t43 10q43 0 77 -31q12 -12 31.5 -20t39.5 -8q32 0 54.5 22.5t22.5 54.5q0 34 -21 59.5t-51 25.5h-83v148h83q22 0 40.5 17t18.5 40q0 31 -17.5 53t-44.5 22q-12 0 -19 -3l-30 -18q-15 -12 -30.5 -17t-36.5 -5
q-40 0 -71 25l-55 43q123 145 239 145q45 0 87.5 -17t75.5 -48t51.5 -73t18.5 -89q0 -31 -18 -75q-23 -48 -41 -69q34 -31 56 -78t22 -91q0 -49 -17.5 -92.5t-49.5 -77.5q-33 -34 -76 -54t-90 -22q-123 0 -196 64zM942 1324v-1q22 52 64 81t96 29h134l-633 -1325
q-24 -49 -70.5 -78.5t-100.5 -29.5h-122zM1147 0v153h-317v109q0 15 8 36t17 33l82 138l18 30l140 227q33 53 88 53h135v-452h85v-174h-85v-153h-171zM1161 327v199l-120 -199h120z" />
    <glyph glyph-name="questiondown" unicode="&#xbf;" horiz-adv-x="885" 
d="M308.5 1008.5q12.5 29.5 34.5 50.5q22 22 51.5 34t61.5 12t61.5 -12t51.5 -34q22 -21 34.5 -50.5t12.5 -61.5t-12.5 -61t-34.5 -50q-22 -22 -51 -34t-62 -12t-62 12t-51 34q-22 21 -34.5 50t-12.5 61t12.5 61.5zM886 -83q-66 -138 -170.5 -205t-254.5 -67
q-217 0 -329.5 93.5t-112.5 275.5q0 69 25 127t79 115q4 8 54 55l19 19q87 84 122 136q20 32 20 61v82h240v-68q0 -68 -19.5 -125.5t-61.5 -112.5q-32 -41 -76 -79q-90 -76 -133 -127q-24 -31 -24 -67q0 -81 44.5 -120t137.5 -39q40 0 80.5 13t68.5 35l16 13q20 20 47 30.5
t55 10.5q38 0 90 -18z" />
    <glyph glyph-name="Agrave" unicode="&#xc0;" horiz-adv-x="1419" 
d="M670 1433h237l626 -1433h-163q-56 0 -102 29t-69 80l-85 194h-651l-84 -194q-19 -48 -68 -78.5t-104 -30.5h-163zM579 566h419l-187 434q-20 56 -23 93q-1 -18 -7 -43.5t-16 -49.5zM313 1843h181q101 0 141 -55l13 -18l55 -93l5 -8l9 -16l64 -110h-132q-99 0 -141 57z
" />
    <glyph glyph-name="Aacute" unicode="&#xc1;" horiz-adv-x="1419" 
d="M670 1433h237l626 -1433h-163q-56 0 -102 29t-69 80l-85 194h-651l-84 -194q-19 -48 -68 -78.5t-104 -30.5h-163zM579 566h419l-187 434q-20 56 -23 93q-1 -18 -7 -43.5t-16 -49.5zM894 1600q-42 -56 -142 -56h-132l25 43l82 141l27 43l12 18q42 55 141 55h182z" />
    <glyph glyph-name="Acircumflex" unicode="&#xc2;" horiz-adv-x="1419" 
d="M670 1433h237l626 -1433h-163q-56 0 -102 29t-69 80l-85 194h-651l-84 -194q-19 -48 -68 -78.5t-104 -30.5h-163zM579 566h419l-187 434q-20 56 -23 93q-1 -18 -7 -43.5t-16 -49.5zM733 1607q-8 8 -12 17q-5 9 -9 15l-9 -15q-5 -9 -12 -16l-15 -16l-30 -33
q-57 -69 -120 -75q-17 -4 -70 -4h-85l182 250q39 56 141 56h37q98 0 139 -56l183 -250h-86q-49 0 -74.5 4t-45.5 15q-41 22 -81 71z" />
    <glyph glyph-name="Atilde" unicode="&#xc3;" horiz-adv-x="1419" 
d="M670 1433h237l626 -1433h-163q-56 0 -102 29t-69 80l-85 194h-651l-84 -194q-19 -48 -68 -78.5t-104 -30.5h-163zM579 566h419l-187 434q-20 56 -23 93q-1 -18 -7 -43.5t-16 -49.5zM776 1520q-28 9 -65 30l-28 15q-44 23 -71 23q-39 0 -39 -71h-176q0 123 51 192.5
t144 69.5q26 0 49.5 -8t66.5 -30q46 -25 66 -32q16 -6 32 -6q25 0 35.5 14.5t10.5 47.5h184q-6 -71 -16 -113t-28 -71q-22 -33 -60.5 -50.5t-98.5 -19.5q-29 0 -57 9z" />
    <glyph glyph-name="Adieresis" unicode="&#xc4;" horiz-adv-x="1419" 
d="M670 1433h237l626 -1433h-163q-56 0 -102 29t-69 80l-85 194h-651l-84 -194q-19 -48 -68 -78.5t-104 -30.5h-163zM579 566h419l-187 434q-20 56 -23 93q-1 -18 -7 -43.5t-16 -49.5zM407 1719.5q10 24.5 28 42.5q39 39 94 39q27 0 51.5 -10.5t42.5 -28.5t28.5 -42.5
t10.5 -51.5q0 -55 -39 -94q-18 -18 -42.5 -28t-51.5 -10q-56 0 -94 38t-38 94q0 27 10 51.5zM772.5 1719.5q10.5 24.5 28.5 42.5t42 28.5t51 10.5q55 0 94 -39q18 -18 28.5 -42.5t10.5 -51.5q0 -36 -17.5 -66.5t-47.5 -47.5q-31 -18 -68 -18q-27 0 -51 10t-42 28
q-39 39 -39 94q0 27 10.5 51.5z" />
    <glyph glyph-name="Aring" unicode="&#xc5;" horiz-adv-x="1419" 
d="M670 1433h237l626 -1433h-163q-56 0 -102 29t-69 80l-85 194h-651l-84 -194q-19 -48 -68 -78.5t-104 -30.5h-163zM579 566h419l-187 434q-20 56 -23 93q-1 -18 -7 -43.5t-16 -49.5zM515 1822.5q16 38.5 46 68.5q62 62 151 62q88 0 150 -62q30 -30 46 -68.5t16 -80.5
q0 -57 -28 -105.5t-77 -77.5q-50 -29 -107 -29t-106 28.5t-78 77.5q-29 50 -29 106q0 42 16 80.5zM668 1698q18 -18 44 -18t44 18t18 44t-18 44t-44 18t-44 -18t-18 -44t18 -44z" />
    <glyph glyph-name="AE" unicode="&#xc6;" horiz-adv-x="1904" 
d="M1830 0h-541q-58 0 -102 29.5t-62 82.5l-66 191h-639l-24 -45l-21 -43q-32 -65 -52.5 -99.5t-40.5 -55t-49 -36.5q-43 -24 -95 -24h-175l759 1433h1108v-263h-779l110 -316h544v-263h-456l9 -25l38 -109l50 -146l17 -48h467v-263zM829 998q-6 15 -14 50q-4 12 -4 21
q-1 -13 -5 -22q-4 -21 -20 -48l-226 -433h410z" />
    <glyph glyph-name="Ccedilla" unicode="&#xc7;" horiz-adv-x="1470" 
d="M1264.5 348.5q32.5 -13.5 60.5 -41.5l61 -61q-107 -116 -240 -182.5t-274 -75.5l-1 -55q40 -5 74.5 -19.5t59.5 -35.5q25 -22 39.5 -49.5t14.5 -56.5q0 -45 -29.5 -82.5t-82.5 -59.5q-57 -23 -122 -23q-46 0 -96 24q-16 7 -42 25v108q47 -24 90 -34q26 -6 53 -6
t46.5 11.5t19.5 26.5q0 21 -20.5 34.5t-50.5 13.5h-11q-1 -1 -21 -1q-35 0 -49 14.5t-14 52.5v116q-122 16 -231 69.5t-194 138.5q-103 103 -159 237t-56 280q0 99 25.5 193t74.5 176q48 81 115 148t149 115t176.5 73.5t193.5 25.5q154 0 299.5 -67.5t262.5 -192.5l-61 -61
q-57 -57 -135 -57q-54 0 -101 32q-125 83 -265 83q-94 0 -179.5 -35.5t-152.5 -101.5t-103.5 -152t-36.5 -179q0 -95 36.5 -181t103.5 -150q67 -66 153 -102t179 -36q142 0 265 84q47 30 101 30q42 0 74.5 -13.5z" />
    <glyph glyph-name="Egrave" unicode="&#xc8;" horiz-adv-x="1199" 
d="M1094 0h-920v1433h920v-252h-658v-332h534v-252h-534v-345h658v-252zM288 1843h181q101 0 141 -55l13 -18l55 -93l5 -8l9 -16l64 -110h-132q-99 0 -141 57z" />
    <glyph glyph-name="Eacute" unicode="&#xc9;" horiz-adv-x="1199" 
d="M1094 0h-920v1433h920v-252h-658v-332h534v-252h-534v-345h658v-252zM794 1600q-42 -56 -142 -56h-132l25 43l82 141l27 43l12 18q42 55 141 55h182z" />
    <glyph glyph-name="Ecircumflex" unicode="&#xca;" horiz-adv-x="1199" 
d="M1094 0h-920v1433h920v-252h-658v-332h534v-252h-534v-345h658v-252zM670 1623q-8 8 -12 17q-5 9 -9 15l-9 -15q-5 -9 -12 -16l-15 -16l-30 -33q-57 -69 -120 -75q-17 -4 -70 -4h-85l182 250q39 56 141 56h37q98 0 139 -56l183 -250h-86q-49 0 -74.5 4t-45.5 15
q-41 22 -81 71z" />
    <glyph glyph-name="Edieresis" unicode="&#xcb;" horiz-adv-x="1199" 
d="M1094 0h-920v1433h920v-252h-658v-332h534v-252h-534v-345h658v-252zM349 1719.5q10 24.5 28 42.5q39 39 94 39q27 0 51.5 -10.5t42.5 -28.5t28.5 -42.5t10.5 -51.5q0 -55 -39 -94q-18 -18 -42.5 -28t-51.5 -10q-56 0 -94 38t-38 94q0 27 10 51.5zM714.5 1719.5
q10.5 24.5 28.5 42.5t42 28.5t51 10.5q55 0 94 -39q18 -18 28.5 -42.5t10.5 -51.5q0 -36 -17.5 -66.5t-47.5 -47.5q-31 -18 -68 -18q-27 0 -51 10t-42 28q-39 39 -39 94q0 27 10.5 51.5z" />
    <glyph glyph-name="Igrave" unicode="&#xcc;" horiz-adv-x="682" 
d="M473 0h-263v1433h263v-1433zM9 1843h181q101 0 141 -55l13 -18l55 -93l5 -8l9 -16l64 -110h-132q-99 0 -141 57z" />
    <glyph glyph-name="Iacute" unicode="&#xcd;" horiz-adv-x="682" 
d="M473 0h-263v1433h263v-1433zM492 1600q-42 -56 -142 -56h-132l25 43l82 141l27 43l12 18q42 55 141 55h182z" />
    <glyph glyph-name="Icircumflex" unicode="&#xce;" horiz-adv-x="682" 
d="M473 0h-263v1433h263v-1433zM360 1607q-8 8 -12 17q-5 9 -9 15l-9 -15q-5 -9 -12 -16l-15 -16l-30 -33q-57 -69 -120 -75q-17 -4 -70 -4h-85l182 250q39 56 141 56h37q98 0 139 -56l183 -250h-86q-49 0 -74.5 4t-45.5 15q-41 22 -81 71z" />
    <glyph glyph-name="Idieresis" unicode="&#xcf;" horiz-adv-x="678" 
d="M473 0h-263v1433h263v-1433zM34 1719.5q10 24.5 28 42.5q39 39 94 39q27 0 51.5 -10.5t42.5 -28.5t28.5 -42.5t10.5 -51.5q0 -55 -39 -94q-18 -18 -42.5 -28t-51.5 -10q-56 0 -94 38t-38 94q0 27 10 51.5zM399.5 1719.5q10.5 24.5 28.5 42.5t42 28.5t51 10.5q55 0 94 -39
q18 -18 28.5 -42.5t10.5 -51.5q0 -36 -17.5 -66.5t-47.5 -47.5q-31 -18 -68 -18q-27 0 -51 10t-42 28q-39 39 -39 94q0 27 10.5 51.5z" />
    <glyph glyph-name="Eth" unicode="&#xd0;" horiz-adv-x="1576" 
d="M1459 716q0 -127 -43.5 -245t-125.5 -215q-74 -86 -166 -144.5t-197 -86.5q-85 -25 -188 -25h-565v592h-113v240h113v601h565q129 0 247 -43t215 -124q96 -80 159 -188q99 -166 99 -362zM1160.5 543.5q35.5 83.5 35.5 172.5t-35.5 173t-99.5 148q-63 63 -147.5 98
t-174.5 35h-303v-338h175v-240h-175v-329h303q90 0 174.5 35t147.5 98q64 64 99.5 147.5z" />
    <glyph glyph-name="Ntilde" unicode="&#xd1;" horiz-adv-x="1624" 
d="M1448 0h-243l-684 956q-17 20 -27 44l-18 32l-20 36l-18 29v-1097h-262v1433h231q101 0 142 -57l598 -846q14 -20 25 -50.5t14 -55.5v1009h262v-1433zM879 1554q-28 9 -65 30l-28 15q-44 23 -71 23q-39 0 -39 -71h-176q0 123 51 192.5t144 69.5q26 0 49.5 -8t66.5 -30
q46 -25 66 -32q16 -6 32 -6q25 0 35.5 14.5t10.5 47.5h184q-6 -71 -16 -113t-28 -71q-22 -33 -60.5 -50.5t-98.5 -19.5q-29 0 -57 9z" />
    <glyph glyph-name="Ograve" unicode="&#xd2;" horiz-adv-x="1652" 
d="M117.5 910q25.5 94 74.5 176q48 81 115 148t149 115t176.5 73.5t193.5 25.5q199 0 370 -99q81 -48 148.5 -115t115.5 -148q100 -172 100 -369t-100 -369q-48 -81 -115.5 -148t-148.5 -114q-169 -100 -370 -100q-147 0 -281.5 55.5t-237.5 158.5t-159 237t-56 280
q0 99 25.5 193zM390.5 536q36.5 -86 103.5 -150q67 -66 153 -102t179 -36t179.5 36t152.5 102q66 64 102.5 150.5t36.5 180.5q0 93 -36.5 179t-102.5 152q-66 65 -152.5 101t-179.5 36q-94 0 -179.5 -35.5t-152.5 -101.5t-103.5 -152t-36.5 -179q0 -95 36.5 -181zM437 1843
h181q101 0 141 -55l13 -18l55 -93l5 -8l9 -16l64 -110h-132q-99 0 -141 57z" />
    <glyph glyph-name="Oacute" unicode="&#xd3;" horiz-adv-x="1652" 
d="M117.5 910q25.5 94 74.5 176q48 81 115 148t149 115t176.5 73.5t193.5 25.5q199 0 370 -99q81 -48 148.5 -115t115.5 -148q100 -172 100 -369t-100 -369q-48 -81 -115.5 -148t-148.5 -114q-169 -100 -370 -100q-147 0 -281.5 55.5t-237.5 158.5t-159 237t-56 280
q0 99 25.5 193zM390.5 536q36.5 -86 103.5 -150q67 -66 153 -102t179 -36t179.5 36t152.5 102q66 64 102.5 150.5t36.5 180.5q0 93 -36.5 179t-102.5 152q-66 65 -152.5 101t-179.5 36q-94 0 -179.5 -35.5t-152.5 -101.5t-103.5 -152t-36.5 -179q0 -95 36.5 -181zM1014 1600
q-42 -56 -142 -56h-132l25 43l82 141l27 43l12 18q42 55 141 55h182z" />
    <glyph glyph-name="Ocircumflex" unicode="&#xd4;" horiz-adv-x="1652" 
d="M117.5 910q25.5 94 74.5 176q48 81 115 148t149 115t176.5 73.5t193.5 25.5q199 0 370 -99q81 -48 148.5 -115t115.5 -148q100 -172 100 -369t-100 -369q-48 -81 -115.5 -148t-148.5 -114q-169 -100 -370 -100q-147 0 -281.5 55.5t-237.5 158.5t-159 237t-56 280
q0 99 25.5 193zM390.5 536q36.5 -86 103.5 -150q67 -66 153 -102t179 -36t179.5 36t152.5 102q66 64 102.5 150.5t36.5 180.5q0 93 -36.5 179t-102.5 152q-66 65 -152.5 101t-179.5 36q-94 0 -179.5 -35.5t-152.5 -101.5t-103.5 -152t-36.5 -179q0 -95 36.5 -181zM847 1633
q-8 8 -12 17q-5 9 -9 15l-9 -15q-5 -9 -12 -16l-15 -16l-30 -33q-57 -69 -120 -75q-17 -4 -70 -4h-85l182 250q39 56 141 56h37q98 0 139 -56l183 -250h-86q-49 0 -74.5 4t-45.5 15q-41 22 -81 71z" />
    <glyph glyph-name="Otilde" unicode="&#xd5;" horiz-adv-x="1652" 
d="M117.5 910q25.5 94 74.5 176q48 81 115 148t149 115t176.5 73.5t193.5 25.5q199 0 370 -99q81 -48 148.5 -115t115.5 -148q100 -172 100 -369t-100 -369q-48 -81 -115.5 -148t-148.5 -114q-169 -100 -370 -100q-147 0 -281.5 55.5t-237.5 158.5t-159 237t-56 280
q0 99 25.5 193zM390.5 536q36.5 -86 103.5 -150q67 -66 153 -102t179 -36t179.5 36t152.5 102q66 64 102.5 150.5t36.5 180.5q0 93 -36.5 179t-102.5 152q-66 65 -152.5 101t-179.5 36q-94 0 -179.5 -35.5t-152.5 -101.5t-103.5 -152t-36.5 -179q0 -95 36.5 -181zM885 1547
q-28 9 -65 30l-28 15q-44 23 -71 23q-39 0 -39 -71h-176q0 123 51 192.5t144 69.5q26 0 49.5 -8t66.5 -30q46 -25 66 -32q16 -6 32 -6q25 0 35.5 14.5t10.5 47.5h184q-6 -71 -16 -113t-28 -71q-22 -33 -60.5 -50.5t-98.5 -19.5q-29 0 -57 9z" />
    <glyph glyph-name="Odieresis" unicode="&#xd6;" horiz-adv-x="1652" 
d="M117.5 910q25.5 94 74.5 176q48 81 115 148t149 115t176.5 73.5t193.5 25.5q199 0 370 -99q81 -48 148.5 -115t115.5 -148q100 -172 100 -369t-100 -369q-48 -81 -115.5 -148t-148.5 -114q-169 -100 -370 -100q-147 0 -281.5 55.5t-237.5 158.5t-159 237t-56 280
q0 99 25.5 193zM390.5 536q36.5 -86 103.5 -150q67 -66 153 -102t179 -36t179.5 36t152.5 102q66 64 102.5 150.5t36.5 180.5q0 93 -36.5 179t-102.5 152q-66 65 -152.5 101t-179.5 36q-94 0 -179.5 -35.5t-152.5 -101.5t-103.5 -152t-36.5 -179q0 -95 36.5 -181z
M521 1719.5q10 24.5 28 42.5q39 39 94 39q27 0 51.5 -10.5t42.5 -28.5t28.5 -42.5t10.5 -51.5q0 -55 -39 -94q-18 -18 -42.5 -28t-51.5 -10q-56 0 -94 38t-38 94q0 27 10 51.5zM886.5 1719.5q10.5 24.5 28.5 42.5t42 28.5t51 10.5q55 0 94 -39q18 -18 28.5 -42.5t10.5 -51.5
q0 -36 -17.5 -66.5t-47.5 -47.5q-31 -18 -68 -18q-27 0 -51 10t-42 28q-39 39 -39 94q0 27 10.5 51.5z" />
    <glyph glyph-name="multiply" unicode="&#xd7;" horiz-adv-x="1210" 
d="M380 260q-43 -49 -93 -70q-28 -12 -59 -12q-79 0 -133 54l-45 44l398 399q-180 180 -267 270q-63 63 -73 75l-55 57q54 57 86.5 76t77.5 19q34 0 70 -12.5t57 -32.5l264 -263l265 262q18 18 55 33t61 15q57 0 104 -30q20 -14 38 -32l37 -38l-399 -397l268 -269l73 -75
l18 -19q25 -25 37 -39l-44 -44q-51 -51 -122 -51q-46 0 -85.5 19.5t-80.5 63.5l-224 225z" />
    <glyph glyph-name="Oslash" unicode="&#xd8;" horiz-adv-x="1648" 
d="M93.5 910q25.5 94 74.5 176q48 81 115 148t149 115t176 73.5t193 25.5q95 0 186 -24t170 -69l34 50q39 56 77 77q24 12 56 12h171l-185 -252q111 -103 168.5 -236.5t57.5 -288.5q0 -197 -100 -369q-48 -81 -115.5 -148t-148.5 -114q-84 -49 -178.5 -74.5t-192.5 -25.5
q-184 0 -348 89l-81 -111q-24 -32 -59 -49t-77 -18h-150l212 288q-111 105 -170.5 242t-59.5 290q0 99 25.5 193zM368 548.5q32 -81.5 90 -144.5l539 735q-91 46 -196 46q-92 0 -176.5 -35.5t-150.5 -101.5t-102 -152t-36 -179q0 -87 32 -168.5zM980.5 284
q85.5 36 149.5 102q64 64 99 150t35 180q0 173 -115 306l-538 -730q100 -44 190 -44q94 0 179.5 36z" />
    <glyph glyph-name="Ugrave" unicode="&#xd9;" horiz-adv-x="1474" 
d="M418 568q0 -65 25 -123t71 -103q45 -45 104.5 -70t122.5 -25q65 0 124 25t104 70q46 45 71 104t25 122v865h263v-865q0 -156 -77.5 -290t-212.5 -213q-140 -80 -297 -80q-117 0 -224 44.5t-189 126.5t-127.5 190t-45.5 222v865h263v-865zM354 1843h181q101 0 141 -55
l13 -18l55 -93l5 -8l9 -16l64 -110h-132q-99 0 -141 57z" />
    <glyph glyph-name="Uacute" unicode="&#xda;" horiz-adv-x="1474" 
d="M418 568q0 -65 25 -123t71 -103q45 -45 104.5 -70t122.5 -25q65 0 124 25t104 70q46 45 71 104t25 122v865h263v-865q0 -156 -77.5 -290t-212.5 -213q-140 -80 -297 -80q-117 0 -224 44.5t-189 126.5t-127.5 190t-45.5 222v865h263v-865zM928 1600q-42 -56 -142 -56h-132
l25 43l82 141l27 43l12 18q42 55 141 55h182z" />
    <glyph glyph-name="Ucircumflex" unicode="&#xdb;" horiz-adv-x="1474" 
d="M418 568q0 -65 25 -123t71 -103q45 -45 104.5 -70t122.5 -25q65 0 124 25t104 70q46 45 71 104t25 122v865h263v-865q0 -156 -77.5 -290t-212.5 -213q-140 -80 -297 -80q-117 0 -224 44.5t-189 126.5t-127.5 190t-45.5 222v865h263v-865zM758 1634q-8 8 -12 17
q-5 9 -9 15l-9 -15q-5 -9 -12 -16l-15 -16l-30 -33q-57 -69 -120 -75q-17 -4 -70 -4h-85l182 250q39 56 141 56h37q98 0 139 -56l183 -250h-86q-49 0 -74.5 4t-45.5 15q-41 22 -81 71z" />
    <glyph glyph-name="Udieresis" unicode="&#xdc;" horiz-adv-x="1474" 
d="M418 568q0 -65 25 -123t71 -103q45 -45 104.5 -70t122.5 -25q65 0 124 25t104 70q46 45 71 104t25 122v865h263v-865q0 -156 -77.5 -290t-212.5 -213q-140 -80 -297 -80q-117 0 -224 44.5t-189 126.5t-127.5 190t-45.5 222v865h263v-865zM432 1719.5q10 24.5 28 42.5
q39 39 94 39q27 0 51.5 -10.5t42.5 -28.5t28.5 -42.5t10.5 -51.5q0 -55 -39 -94q-18 -18 -42.5 -28t-51.5 -10q-56 0 -94 38t-38 94q0 27 10 51.5zM797.5 1719.5q10.5 24.5 28.5 42.5t42 28.5t51 10.5q55 0 94 -39q18 -18 28.5 -42.5t10.5 -51.5q0 -36 -17.5 -66.5
t-47.5 -47.5q-31 -18 -68 -18q-27 0 -51 10t-42 28q-39 39 -39 94q0 27 10.5 51.5z" />
    <glyph glyph-name="Yacute" unicode="&#xdd;" horiz-adv-x="1420" 
d="M843 0h-263v607q0 27 -10 49t-41 65l-526 712h201q65 0 116 -26t84 -75l283 -383q10 -14 16.5 -31.5t7.5 -29.5q0 10 7 28.5t18 32.5l282 382q66 102 200 102h203l-527 -713q-30 -39 -40.5 -62.5t-10.5 -50.5v-607zM866 1600q-42 -56 -142 -56h-132l25 43l82 141l27 43
l12 18q42 55 141 55h182z" />
    <glyph glyph-name="Thorn" unicode="&#xde;" horiz-adv-x="1225" 
d="M194 1433h262v-237h263q94 0 179.5 -35.5t151.5 -100.5q64 -64 100 -150t36 -178t-36 -178t-100 -150q-66 -65 -151.5 -100.5t-179.5 -35.5h-263v-268h-262v1433zM726 531q39 0 75.5 15.5t64.5 43.5t43 64.5t15 77.5t-15 78t-43 64q-28 28 -64.5 43.5t-75.5 15.5h-270
v-402h270z" />
    <glyph glyph-name="germandbls" unicode="&#xdf;" horiz-adv-x="1260" 
d="M144 0v756q0 199 52.5 350.5t153.5 240.5q112 100 284 100q92 0 165.5 -22t124.5 -64q48 -39 72.5 -93.5t24.5 -118.5q0 -94 -53 -183q-18 -31 -39 -58t-59 -68q-30 -33 -40 -48q-13 -16 -13 -31q0 -33 19.5 -53.5t65.5 -39.5l94 -54q114 -65 164 -158q28 -52 28 -128
q0 -72 -29 -135.5t-82 -109.5q-53 -47 -121.5 -72.5t-144.5 -25.5q-114 0 -202.5 57t-135.5 162q7 2 23 11q81 48 118 49q1 1 25 1q47 0 78 -19q24 -15 45 -21t47 -6q56 0 89 31t33 83q0 19 -7 34t-22 30q-14 14 -34 26l-20 11q-10 5 -22.5 12t-28.5 15
q-127 61 -185.5 133.5t-58.5 170.5q0 71 56 148q27 37 51 61q73 79 91 106q16 22 16 48q0 67 -133 67q-242 0 -242 -379v-816h-248z" />
    <glyph glyph-name="agrave" unicode="&#xe0;" horiz-adv-x="1109" 
d="M207 848l-36 23q28 41 65 78q19 19 45 35q122 80 283 80q163 0 261.5 -69.5t135.5 -209.5q28 -94 28 -261v-524h-214q-10 12 -19 34.5t-11 41.5q-51 -39 -129 -64.5t-144 -25.5q-81 0 -150 23.5t-120 67.5q-107 93 -107 240q0 171 132.5 262t383.5 91q61 0 111 -8
q-7 81 -48 125t-112 44q-35 0 -62 -5.5t-59 -17.5l-21 -9q-33 -15 -66 -15q-51 0 -112 40zM604.5 236q68.5 19 125.5 54v146l-138 5q-106 0 -172 -32.5t-66 -86.5q0 -48 31.5 -76.5t87.5 -28.5q63 0 131.5 19zM187 1485h182q99 0 141 -55l13 -20q35 -56 75 -129l29 -51
l39 -70h-132q-99 0 -142 57z" />
    <glyph glyph-name="aacute" unicode="&#xe1;" horiz-adv-x="1109" 
d="M207 848l-36 23q28 41 65 78q19 19 45 35q122 80 283 80q163 0 261.5 -69.5t135.5 -209.5q28 -94 28 -261v-524h-214q-10 12 -19 34.5t-11 41.5q-51 -39 -129 -64.5t-144 -25.5q-81 0 -150 23.5t-120 67.5q-107 93 -107 240q0 171 132.5 262t383.5 91q61 0 111 -8
q-7 81 -48 125t-112 44q-35 0 -62 -5.5t-59 -17.5l-21 -9q-33 -15 -66 -15q-51 0 -112 40zM604.5 236q68.5 19 125.5 54v146l-138 5q-106 0 -172 -32.5t-66 -86.5q0 -48 31.5 -76.5t87.5 -28.5q63 0 131.5 19zM723 1217q-42 -56 -142 -56h-132l115 202l28 48l13 20
q42 55 141 55h182z" />
    <glyph glyph-name="acircumflex" unicode="&#xe2;" horiz-adv-x="1109" 
d="M207 848l-36 23q28 41 65 78q19 19 45 35q122 80 283 80q163 0 261.5 -69.5t135.5 -209.5q28 -94 28 -261v-524h-214q-10 12 -19 34.5t-11 41.5q-51 -39 -129 -64.5t-144 -25.5q-81 0 -150 23.5t-120 67.5q-107 93 -107 240q0 171 132.5 262t383.5 91q61 0 111 -8
q-7 81 -48 125t-112 44q-35 0 -62 -5.5t-59 -17.5l-21 -9q-33 -15 -66 -15q-51 0 -112 40zM604.5 236q68.5 19 125.5 54v146l-138 5q-106 0 -172 -32.5t-66 -86.5q0 -48 31.5 -76.5t87.5 -28.5q63 0 131.5 19zM575 1298q-8 8 -12 17l-9 14l-10 -14q-6 -12 -11 -17l-15 -19
l-30 -36q-27 -35 -49 -52t-50 -23q-24 -7 -91 -7h-85q144 204 179 249q42 62 144 62h37q93 0 143 -62q35 -45 179 -249h-86l-73 2q-45 4 -94 53q-19 19 -36 42z" />
    <glyph glyph-name="atilde" unicode="&#xe3;" horiz-adv-x="1109" 
d="M207 848l-36 23q28 41 65 78q19 19 45 35q122 80 283 80q163 0 261.5 -69.5t135.5 -209.5q28 -94 28 -261v-524h-214q-10 12 -19 34.5t-11 41.5q-51 -39 -129 -64.5t-144 -25.5q-81 0 -150 23.5t-120 67.5q-107 93 -107 240q0 171 132.5 262t383.5 91q61 0 111 -8
q-7 81 -48 125t-112 44q-35 0 -62 -5.5t-59 -17.5l-21 -9q-33 -15 -66 -15q-51 0 -112 40zM604.5 236q68.5 19 125.5 54v146l-138 5q-106 0 -172 -32.5t-66 -86.5q0 -48 31.5 -76.5t87.5 -28.5q63 0 131.5 19zM613.5 1209q-27.5 9 -64.5 30q-44 25 -68 33l-32 5
q-38 0 -38 -76h-176q0 126 50.5 196.5t143.5 70.5q26 0 49.5 -8t66.5 -30q46 -25 66 -32q16 -6 32 -6q46 0 46 67h185q-6 -74 -16 -116.5t-29 -71.5q-24 -36 -62 -53.5t-97 -17.5q-29 0 -56.5 9z" />
    <glyph glyph-name="adieresis" unicode="&#xe4;" horiz-adv-x="1109" 
d="M207 848l-36 23q28 41 65 78q19 19 45 35q122 80 283 80q163 0 261.5 -69.5t135.5 -209.5q28 -94 28 -261v-524h-214q-10 12 -19 34.5t-11 41.5q-51 -39 -129 -64.5t-144 -25.5q-81 0 -150 23.5t-120 67.5q-107 93 -107 240q0 171 132.5 262t383.5 91q61 0 111 -8
q-7 81 -48 125t-112 44q-35 0 -62 -5.5t-59 -17.5l-21 -9q-33 -15 -66 -15q-51 0 -112 40zM604.5 236q68.5 19 125.5 54v146l-138 5q-106 0 -172 -32.5t-66 -86.5q0 -48 31.5 -76.5t87.5 -28.5q63 0 131.5 19zM249 1354.5q10 24.5 28 42.5q39 39 94 39q27 0 51.5 -10.5
t42.5 -28.5t28.5 -42.5t10.5 -51.5q0 -55 -39 -94q-18 -18 -42.5 -28t-51.5 -10q-56 0 -94 38t-38 94q0 27 10 51.5zM614.5 1354.5q10.5 24.5 28.5 42.5t42 28.5t51 10.5q55 0 94 -39q18 -18 28.5 -42.5t10.5 -51.5q0 -36 -17.5 -66.5t-47.5 -47.5q-31 -18 -68 -18
q-27 0 -51 10t-42 28q-39 39 -39 94q0 27 10.5 51.5z" />
    <glyph glyph-name="aring" unicode="&#xe5;" horiz-adv-x="1109" 
d="M207 848l-36 23q28 41 65 78q19 19 45 35q122 80 283 80q163 0 261.5 -69.5t135.5 -209.5q28 -94 28 -261v-524h-214q-10 12 -19 34.5t-11 41.5q-51 -39 -129 -64.5t-144 -25.5q-81 0 -150 23.5t-120 67.5q-107 93 -107 240q0 171 132.5 262t383.5 91q61 0 111 -8
q-7 81 -48 125t-112 44q-35 0 -62 -5.5t-59 -17.5l-21 -9q-33 -15 -66 -15q-51 0 -112 40zM604.5 236q68.5 19 125.5 54v146l-138 5q-106 0 -172 -32.5t-66 -86.5q0 -48 31.5 -76.5t87.5 -28.5q63 0 131.5 19zM358 1422.5q16 38.5 46 68.5q62 62 151 62q88 0 150 -62
q30 -30 46 -68.5t16 -80.5q0 -57 -28 -105.5t-77 -77.5q-50 -29 -107 -29t-106 28.5t-78 77.5q-29 50 -29 106q0 42 16 80.5zM511 1298q18 -18 44 -18t44 18t18 44t-18 44t-44 18t-44 -18t-18 -44t18 -44z" />
    <glyph glyph-name="ae" unicode="&#xe6;" horiz-adv-x="1852" 
d="M178 871q26 42 65 78q16 16 44 35q122 80 283 80q108 0 195.5 -33.5t132.5 -91.5q3 -3 3 -7q0 -9 -9 -24q91 85 173 119.5t193 34.5q60 0 121.5 -16t118.5 -45q124 -66 197.5 -171.5t73.5 -221.5q0 -47 -22.5 -84t-61.5 -58q-40 -20 -83 -20h-570q-35 0 -35 -19
q0 -1 1 -1v-2q10 -34 32.5 -68t52.5 -60q76 -67 173 -67q72 0 139 36q41 24 93 24q73 0 127 -54l61 -61q-85 -91 -193.5 -139.5t-226.5 -48.5q-76 0 -148 21t-126 57t-81 78q6 -15 6 -28q0 -12 -7 -16q-90 -49 -207.5 -80t-215.5 -31q-81 0 -151.5 23t-121.5 66
q-54 45 -82 106t-28 135q0 177 139.5 264.5t421.5 87.5l76 -6q-11 90 -52 133.5t-114 43.5q-28 0 -51 -6t-57 -22q-31 -17 -51 -22.5t-46 -5.5q-56 0 -111 40zM1520 654q-34 84 -103 135.5t-150 51.5q-116 0 -195 -79q-30 -29 -52 -64.5t-31 -68.5q13 13 25.5 19t29.5 6h476
zM612.5 239.5q76.5 22.5 149.5 61.5q-17 44 -26 73t-14 58l-15 2l-28 3q-33 3 -72 3q-115 0 -184.5 -32t-69.5 -86q0 -46 34 -75.5t90 -29.5q59 0 135.5 22.5z" />
    <glyph glyph-name="ccedilla" unicode="&#xe7;" horiz-adv-x="1057" 
d="M996 223l39 -39q-73 -81 -164.5 -131t-189.5 -63l-1 -57q40 -5 74.5 -19.5t59.5 -35.5q25 -22 39.5 -49.5t14.5 -56.5q0 -45 -29.5 -82.5t-82.5 -59.5q-57 -23 -122 -23q-46 0 -96 24q-16 7 -42 25v108q47 -24 90 -34q26 -6 53 -6t46.5 11.5t19.5 26.5q0 21 -20.5 34.5
t-50.5 13.5h-11q-1 -1 -21 -1q-35 0 -49 14.5t-14 52.5v115q-120 16 -223.5 85t-166.5 177q-75 125 -75 272q0 144 72 268t197 197q128 74 272 74q113 0 222.5 -52t197.5 -146l-39 -40q-32 -32 -76 -50.5t-86 -18.5q-14 0 -29 3l-92 25l-50 13l-48 5q-56 0 -106.5 -20.5
t-89.5 -59.5q-41 -40 -63 -90.5t-22 -107.5t22 -107.5t63 -90.5q39 -38 90.5 -59.5t105.5 -21.5q45 0 97 15l47 15l56 17q15 3 29 3l20 -2q54 -11 100 -44q17 -12 32 -27z" />
    <glyph glyph-name="egrave" unicode="&#xe8;" horiz-adv-x="1216" 
d="M1119 524q-23 -37 -62 -58q-40 -20 -83 -20h-624q6 -35 27 -72.5t51 -66.5q78 -78 185 -78q36 0 72 9.5t67 26.5q41 24 94 24q73 0 127 -54l60 -61q-85 -91 -193 -139.5t-227 -48.5q-107 0 -206.5 41.5t-175.5 116.5t-117.5 174t-41.5 207t41.5 207t117.5 174
t175.5 116.5t206.5 41.5q90 0 175.5 -30t157.5 -86q69 -55 118.5 -129t72.5 -159q4 -7 4 -27q0 -24 1 -25q0 -47 -23 -84zM866 669q-30 69 -97 110.5t-151 41.5q-63 0 -119 -24.5t-95 -67.5q-36 -38 -50 -85q13 13 25.5 19t29.5 6h457zM234 1485h182q99 0 141 -55l13 -20
q35 -56 75 -129l29 -51l39 -70h-132q-99 0 -142 57z" />
    <glyph glyph-name="eacute" unicode="&#xe9;" horiz-adv-x="1216" 
d="M1119 524q-23 -37 -62 -58q-40 -20 -83 -20h-624q6 -35 27 -72.5t51 -66.5q78 -78 185 -78q36 0 72 9.5t67 26.5q41 24 94 24q73 0 127 -54l60 -61q-85 -91 -193 -139.5t-227 -48.5q-107 0 -206.5 41.5t-175.5 116.5t-117.5 174t-41.5 207t41.5 207t117.5 174
t175.5 116.5t206.5 41.5q90 0 175.5 -30t157.5 -86q69 -55 118.5 -129t72.5 -159q4 -7 4 -27q0 -24 1 -25q0 -47 -23 -84zM866 669q-30 69 -97 110.5t-151 41.5q-63 0 -119 -24.5t-95 -67.5q-36 -38 -50 -85q13 13 25.5 19t29.5 6h457zM786 1217q-42 -56 -142 -56h-132
l115 202l28 48l13 20q42 55 141 55h182z" />
    <glyph glyph-name="ecircumflex" unicode="&#xea;" horiz-adv-x="1216" 
d="M1119 524q-23 -37 -62 -58q-40 -20 -83 -20h-624q6 -35 27 -72.5t51 -66.5q78 -78 185 -78q36 0 72 9.5t67 26.5q41 24 94 24q73 0 127 -54l60 -61q-85 -91 -193 -139.5t-227 -48.5q-107 0 -206.5 41.5t-175.5 116.5t-117.5 174t-41.5 207t41.5 207t117.5 174
t175.5 116.5t206.5 41.5q90 0 175.5 -30t157.5 -86q69 -55 118.5 -129t72.5 -159q4 -7 4 -27q0 -24 1 -25q0 -47 -23 -84zM866 669q-30 69 -97 110.5t-151 41.5q-63 0 -119 -24.5t-95 -67.5q-36 -38 -50 -85q13 13 25.5 19t29.5 6h457zM629 1298q-8 8 -12 17l-9 14l-10 -14
q-6 -12 -11 -17l-15 -19l-30 -36q-27 -35 -49 -52t-50 -23q-24 -7 -91 -7h-85q144 204 179 249q42 62 144 62h37q93 0 143 -62q35 -45 179 -249h-86l-73 2q-45 4 -94 53q-19 19 -36 42z" />
    <glyph glyph-name="edieresis" unicode="&#xeb;" horiz-adv-x="1216" 
d="M1119 524q-23 -37 -62 -58q-40 -20 -83 -20h-624q6 -35 27 -72.5t51 -66.5q78 -78 185 -78q36 0 72 9.5t67 26.5q41 24 94 24q73 0 127 -54l60 -61q-85 -91 -193 -139.5t-227 -48.5q-107 0 -206.5 41.5t-175.5 116.5t-117.5 174t-41.5 207t41.5 207t117.5 174
t175.5 116.5t206.5 41.5q90 0 175.5 -30t157.5 -86q69 -55 118.5 -129t72.5 -159q4 -7 4 -27q0 -24 1 -25q0 -47 -23 -84zM866 669q-30 69 -97 110.5t-151 41.5q-63 0 -119 -24.5t-95 -67.5q-36 -38 -50 -85q13 13 25.5 19t29.5 6h457zM303 1354.5q10 24.5 28 42.5
q39 39 94 39q27 0 51.5 -10.5t42.5 -28.5t28.5 -42.5t10.5 -51.5q0 -55 -39 -94q-18 -18 -42.5 -28t-51.5 -10q-56 0 -94 38t-38 94q0 27 10 51.5zM668.5 1354.5q10.5 24.5 28.5 42.5t42 28.5t51 10.5q55 0 94 -39q18 -18 28.5 -42.5t10.5 -51.5q0 -36 -17.5 -66.5
t-47.5 -47.5q-31 -18 -68 -18q-27 0 -51 10t-42 28q-39 39 -39 94q0 27 10.5 51.5z" />
    <glyph glyph-name="igrave" unicode="&#xec;" horiz-adv-x="597" 
d="M387 1015v-1015h-263v1015h263zM-85 1485h182q99 0 141 -55l13 -20q35 -56 75 -129l29 -51l39 -70h-132q-99 0 -142 57z" />
    <glyph glyph-name="iacute" unicode="&#xed;" horiz-adv-x="597" 
d="M387 1015v-1015h-263v1015h263zM403 1217q-42 -56 -142 -56h-132l115 202l28 48l13 20q42 55 141 55h182z" />
    <glyph glyph-name="icircumflex" unicode="&#xee;" horiz-adv-x="597" 
d="M387 1015v-1015h-263v1015h263zM287 1298q-8 8 -12 17l-9 14l-10 -14q-6 -12 -11 -17l-15 -19l-30 -36q-27 -35 -49 -52t-50 -23q-24 -7 -91 -7h-85q144 204 179 249q42 62 144 62h37q93 0 143 -62q35 -45 179 -249h-86l-73 2q-45 4 -94 53q-19 19 -36 42z" />
    <glyph glyph-name="idieresis" unicode="&#xef;" horiz-adv-x="597" 
d="M387 1015v-1015h-263v1015h263zM-39 1354.5q10 24.5 28 42.5q39 39 94 39q27 0 51.5 -10.5t42.5 -28.5t28.5 -42.5t10.5 -51.5q0 -55 -39 -94q-18 -18 -42.5 -28t-51.5 -10q-56 0 -94 38t-38 94q0 27 10 51.5zM326.5 1354.5q10.5 24.5 28.5 42.5t42 28.5t51 10.5
q55 0 94 -39q18 -18 28.5 -42.5t10.5 -51.5q0 -36 -17.5 -66.5t-47.5 -47.5q-31 -18 -68 -18q-27 0 -51 10t-42 28q-39 39 -39 94q0 27 10.5 51.5z" />
    <glyph glyph-name="eth" unicode="&#xf0;" horiz-adv-x="1241" 
d="M592 1110q-53 24 -94 41l38 66q-53 24 -89 34l-76 26l51 242q128 -26 212 -74l18 31q1 1 3.5 5t7.5 15q11 16 14 22q53 -21 113 -48l22 -10l-21 -35l-22 -35q209 -104 308 -311.5t99 -539.5v-3q0 -111 -42 -211t-120 -178q-76 -76 -178 -118.5t-212 -42.5t-212 42.5
t-178 118.5q-78 76 -120 176.5t-42 211.5q0 146 71.5 271.5t195.5 198.5q122 74 271 79q25 0 62 -7.5t71 -19.5q39 -13 71.5 -33.5t50.5 -44.5q-71 116 -193 186q-11 -20 -41 -72zM358 423q22 -53 62 -93q40 -41 92.5 -63.5t111.5 -22.5t111.5 22.5t92.5 63.5q40 40 62 93
t22 112t-22 112.5t-62 93.5t-93.5 62.5t-110.5 22.5t-110.5 -22.5t-93.5 -62.5t-62 -93.5t-22 -112.5t22 -112z" />
    <glyph glyph-name="ntilde" unicode="&#xf1;" horiz-adv-x="1192" 
d="M354 1050q16 -22 25.5 -55.5t9.5 -71.5v-16q28 67 116 114q40 21 87.5 32.5t95.5 11.5q89 0 163 -32.5t126 -93.5q51 -61 78.5 -150t27.5 -197v-592h-262v584q0 66 -18.5 117t-53.5 80q-34 28 -80 28q-50 0 -97 -12t-83 -33q-38 -22 -59 -51.5t-22 -61.5v-651h-262v1050
h208zM711.5 1166q-27.5 9 -64.5 30q-44 25 -68 33l-32 5q-38 0 -38 -76h-176q0 126 50.5 196.5t143.5 70.5q26 0 49.5 -8t66.5 -30q46 -25 66 -32q16 -6 32 -6q46 0 46 67h185q-6 -74 -16 -116.5t-29 -71.5q-24 -36 -62 -53.5t-97 -17.5q-29 0 -56.5 9z" />
    <glyph glyph-name="ograve" unicode="&#xf2;" horiz-adv-x="1226" 
d="M113.5 732q41.5 99 117.5 175t174.5 117t206.5 41t207.5 -41.5t174.5 -116.5t116.5 -174.5t41.5 -207.5t-41 -206.5t-117 -174.5t-175 -117.5t-207 -41.5q-107 0 -206 41.5t-175 117.5t-117.5 175t-41.5 206q0 108 41.5 207zM353.5 417q21.5 -51 60.5 -89
q40 -39 91 -60.5t106 -21.5t106 21.5t91 60.5q39 38 60.5 89t21.5 107t-21.5 107t-60.5 90t-90 60.5t-107 21.5t-107 -21.5t-90 -60.5t-60.5 -90t-21.5 -107t21.5 -107zM245 1485h182q99 0 141 -55l13 -20q35 -56 75 -129l29 -51l39 -70h-132q-99 0 -142 57z" />
    <glyph glyph-name="oacute" unicode="&#xf3;" horiz-adv-x="1226" 
d="M113.5 732q41.5 99 117.5 175t174.5 117t206.5 41t207.5 -41.5t174.5 -116.5t116.5 -174.5t41.5 -207.5t-41 -206.5t-117 -174.5t-175 -117.5t-207 -41.5q-107 0 -206 41.5t-175 117.5t-117.5 175t-41.5 206q0 108 41.5 207zM353.5 417q21.5 -51 60.5 -89
q40 -39 91 -60.5t106 -21.5t106 21.5t91 60.5q39 38 60.5 89t21.5 107t-21.5 107t-60.5 90t-90 60.5t-107 21.5t-107 -21.5t-90 -60.5t-60.5 -90t-21.5 -107t21.5 -107zM794 1217q-42 -56 -142 -56h-132l115 202l28 48l13 20q42 55 141 55h182z" />
    <glyph glyph-name="ocircumflex" unicode="&#xf4;" horiz-adv-x="1226" 
d="M113.5 732q41.5 99 117.5 175t174.5 117t206.5 41t207.5 -41.5t174.5 -116.5t116.5 -174.5t41.5 -207.5t-41 -206.5t-117 -174.5t-175 -117.5t-207 -41.5q-107 0 -206 41.5t-175 117.5t-117.5 175t-41.5 206q0 108 41.5 207zM353.5 417q21.5 -51 60.5 -89
q40 -39 91 -60.5t106 -21.5t106 21.5t91 60.5q39 38 60.5 89t21.5 107t-21.5 107t-60.5 90t-90 60.5t-107 21.5t-107 -21.5t-90 -60.5t-60.5 -90t-21.5 -107t21.5 -107zM634 1298q-8 8 -12 17l-9 14l-10 -14q-6 -12 -11 -17l-15 -19l-30 -36q-27 -35 -49 -52t-50 -23
q-24 -7 -91 -7h-85q144 204 179 249q42 62 144 62h37q93 0 143 -62q35 -45 179 -249h-86l-73 2q-45 4 -94 53q-19 19 -36 42z" />
    <glyph glyph-name="otilde" unicode="&#xf5;" horiz-adv-x="1226" 
d="M113.5 732q41.5 99 117.5 175t174.5 117t206.5 41t207.5 -41.5t174.5 -116.5t116.5 -174.5t41.5 -207.5t-41 -206.5t-117 -174.5t-175 -117.5t-207 -41.5q-107 0 -206 41.5t-175 117.5t-117.5 175t-41.5 206q0 108 41.5 207zM353.5 417q21.5 -51 60.5 -89
q40 -39 91 -60.5t106 -21.5t106 21.5t91 60.5q39 38 60.5 89t21.5 107t-21.5 107t-60.5 90t-90 60.5t-107 21.5t-107 -21.5t-90 -60.5t-60.5 -90t-21.5 -107t21.5 -107zM671.5 1209q-27.5 9 -64.5 30q-44 25 -68 33l-32 5q-38 0 -38 -76h-176q0 126 50.5 196.5t143.5 70.5
q26 0 49.5 -8t66.5 -30q46 -25 66 -32q16 -6 32 -6q46 0 46 67h185q-6 -74 -16 -116.5t-29 -71.5q-24 -36 -62 -53.5t-97 -17.5q-29 0 -56.5 9z" />
    <glyph glyph-name="odieresis" unicode="&#xf6;" horiz-adv-x="1226" 
d="M113.5 732q41.5 99 117.5 175t174.5 117t206.5 41t207.5 -41.5t174.5 -116.5t116.5 -174.5t41.5 -207.5t-41 -206.5t-117 -174.5t-175 -117.5t-207 -41.5q-107 0 -206 41.5t-175 117.5t-117.5 175t-41.5 206q0 108 41.5 207zM353.5 417q21.5 -51 60.5 -89
q40 -39 91 -60.5t106 -21.5t106 21.5t91 60.5q39 38 60.5 89t21.5 107t-21.5 107t-60.5 90t-90 60.5t-107 21.5t-107 -21.5t-90 -60.5t-60.5 -90t-21.5 -107t21.5 -107zM308 1354.5q10 24.5 28 42.5q39 39 94 39q27 0 51.5 -10.5t42.5 -28.5t28.5 -42.5t10.5 -51.5
q0 -55 -39 -94q-18 -18 -42.5 -28t-51.5 -10q-56 0 -94 38t-38 94q0 27 10 51.5zM673.5 1354.5q10.5 24.5 28.5 42.5t42 28.5t51 10.5q55 0 94 -39q18 -18 28.5 -42.5t10.5 -51.5q0 -36 -17.5 -66.5t-47.5 -47.5q-31 -18 -68 -18q-27 0 -51 10t-42 28q-39 39 -39 94
q0 27 10.5 51.5z" />
    <glyph glyph-name="divide" unicode="&#xf7;" 
d="M743.5 991q-12.5 -30 -35.5 -52q-53 -47 -116 -47q-65 0 -115 47q-23 22 -36 52t-13 63q0 32 13 62t36 52q50 47 115 47q63 0 116 -47q23 -22 35.5 -51.5t12.5 -62.5t-12.5 -63zM1088 549h-987v239h987v-239zM743.5 220.5q-12.5 -29.5 -35.5 -51.5q-53 -47 -116 -47
q-65 0 -115 47q-23 22 -36 52t-13 62q0 33 13 63t36 52q50 47 115 47q63 0 116 -47q23 -22 35.5 -52t12.5 -63t-12.5 -62.5z" />
    <glyph glyph-name="oslash" unicode="&#xf8;" horiz-adv-x="1226" 
d="M1110.5 732.5q41.5 -99.5 41.5 -207.5t-41 -206.5t-117 -174.5t-175 -117.5t-207 -41.5q-60 0 -104 10l-57 -130q-21 -49 -68 -79t-103 -30h-128l145 332q-32 22 -66 56q-76 76 -117.5 175t-41.5 206q0 108 41.5 207t117.5 175t174.5 117t206.5 41q36 0 107 -11l67 154
q24 51 66.5 80.5t93.5 29.5h140l-156 -356q33 -24 64 -55q75 -75 116.5 -174.5zM351.5 422.5q19.5 -48.5 54.5 -85.5l203 466q-56 -1 -106 -22t-89 -60t-60.5 -90t-21.5 -107q0 -53 19.5 -101.5zM868.5 417q21.5 51 21.5 107q0 52 -18 99.5t-52 85.5l-202 -463q53 1 102 22
t88 60q39 38 60.5 89z" />
    <glyph glyph-name="ugrave" unicode="&#xf9;" horiz-adv-x="1198" 
d="M1055 1050v-1050h-208q-15 15 -25.5 46t-10.5 62v18v13q-18 -42 -63 -77t-109 -56q-61 -21 -126 -21q-89 0 -163 33t-126 96t-79.5 151t-27.5 193v592h263v-585q0 -224 152 -224q51 0 98 12t83 34q79 48 79 115v648h263zM186 1485h182q99 0 141 -55l13 -20
q35 -56 75 -129l29 -51l39 -70h-132q-99 0 -142 57z" />
    <glyph glyph-name="uacute" unicode="&#xfa;" horiz-adv-x="1198" 
d="M1055 1050v-1050h-208q-15 15 -25.5 46t-10.5 62v18v13q-18 -42 -63 -77t-109 -56q-61 -21 -126 -21q-89 0 -163 33t-126 96t-79.5 151t-27.5 193v592h263v-585q0 -224 152 -224q51 0 98 12t83 34q79 48 79 115v648h263zM757 1217q-42 -56 -142 -56h-132l115 202l28 48
l13 20q42 55 141 55h182z" />
    <glyph glyph-name="ucircumflex" unicode="&#xfb;" horiz-adv-x="1198" 
d="M1055 1050v-1050h-208q-15 15 -25.5 46t-10.5 62v18v13q-18 -42 -63 -77t-109 -56q-61 -21 -126 -21q-89 0 -163 33t-126 96t-79.5 151t-27.5 193v592h263v-585q0 -224 152 -224q51 0 98 12t83 34q79 48 79 115v648h263zM617 1298q-8 8 -12 17l-9 14l-10 -14
q-6 -12 -11 -17l-15 -19l-30 -36q-27 -35 -49 -52t-50 -23q-24 -7 -91 -7h-85q144 204 179 249q42 62 144 62h37q93 0 143 -62q35 -45 179 -249h-86l-73 2q-45 4 -94 53q-19 19 -36 42z" />
    <glyph glyph-name="udieresis" unicode="&#xfc;" horiz-adv-x="1198" 
d="M1055 1050v-1050h-208q-15 15 -25.5 46t-10.5 62v18v13q-18 -42 -63 -77t-109 -56q-61 -21 -126 -21q-89 0 -163 33t-126 96t-79.5 151t-27.5 193v592h263v-585q0 -224 152 -224q51 0 98 12t83 34q79 48 79 115v648h263zM291 1354.5q10 24.5 28 42.5q39 39 94 39
q27 0 51.5 -10.5t42.5 -28.5t28.5 -42.5t10.5 -51.5q0 -55 -39 -94q-18 -18 -42.5 -28t-51.5 -10q-56 0 -94 38t-38 94q0 27 10 51.5zM656.5 1354.5q10.5 24.5 28.5 42.5t42 28.5t51 10.5q55 0 94 -39q18 -18 28.5 -42.5t10.5 -51.5q0 -36 -17.5 -66.5t-47.5 -47.5
q-31 -18 -68 -18q-27 0 -51 10t-42 28q-39 39 -39 94q0 27 10.5 51.5z" />
    <glyph glyph-name="yacute" unicode="&#xfd;" horiz-adv-x="1179" 
d="M28 1050h164q56 0 103.5 -30.5t65.5 -79.5l180 -430q30 -67 30 -121q0 -23 -6 -46l143 346l95 226l12 27q22 50 67 79.5t101 28.5h165l-578 -1326q-18 -50 -65.5 -81.5t-104.5 -31.5h-165l105 241l104 241zM741 1217q-42 -56 -142 -56h-132l115 202l28 48l13 20
q42 55 141 55h182z" />
    <glyph glyph-name="thorn" unicode="&#xfe;" horiz-adv-x="1217" 
d="M409 1432v-452q20 38 80.5 61t134.5 23q108 0 204.5 -41t169.5 -117q72 -75 110.5 -173t38.5 -208t-38.5 -208t-110.5 -173q-73 -76 -169.5 -117t-204.5 -41q-131 0 -215 66v-390h-263v1770h263zM729 269.5q49 21.5 86 58.5q36 37 55 87.5t19 109.5q0 118 -74 198
q-37 39 -86 59.5t-105 20.5q-61 0 -117 -22t-99 -63v-387q43 -39 100 -62t116 -23q56 2 105 23.5z" />
    <glyph glyph-name="ydieresis" unicode="&#xff;" horiz-adv-x="1179" 
d="M28 1050h164q56 0 103.5 -30.5t65.5 -79.5l180 -430q30 -67 30 -121q0 -23 -6 -46l143 346l95 226l12 27q22 50 67 79.5t101 28.5h165l-578 -1326q-18 -50 -65.5 -81.5t-104.5 -31.5h-165l105 241l104 241zM284 1354.5q10 24.5 28 42.5q39 39 94 39q27 0 51.5 -10.5
t42.5 -28.5t28.5 -42.5t10.5 -51.5q0 -55 -39 -94q-18 -18 -42.5 -28t-51.5 -10q-56 0 -94 38t-38 94q0 27 10 51.5zM649.5 1354.5q10.5 24.5 28.5 42.5t42 28.5t51 10.5q55 0 94 -39q18 -18 28.5 -42.5t10.5 -51.5q0 -36 -17.5 -66.5t-47.5 -47.5q-31 -18 -68 -18
q-27 0 -51 10t-42 28q-39 39 -39 94q0 27 10.5 51.5z" />
    <glyph glyph-name="Amacron" unicode="&#x100;" horiz-adv-x="1419" 
d="M670 1433h237l626 -1433h-163q-56 0 -102 29t-69 80l-85 194h-651l-84 -194q-19 -48 -68 -78.5t-104 -30.5h-163zM579 566h419l-187 434q-20 56 -23 93q-1 -18 -7 -43.5t-16 -49.5zM417 1743h589v-220h-589v220z" />
    <glyph glyph-name="amacron" unicode="&#x101;" horiz-adv-x="1109" 
d="M207 848l-36 23q28 41 65 78q19 19 45 35q122 80 283 80q163 0 261.5 -69.5t135.5 -209.5q28 -94 28 -261v-524h-214q-10 12 -19 34.5t-11 41.5q-51 -39 -129 -64.5t-144 -25.5q-81 0 -150 23.5t-120 67.5q-107 93 -107 240q0 171 132.5 262t383.5 91q61 0 111 -8
q-7 81 -48 125t-112 44q-35 0 -62 -5.5t-59 -17.5l-21 -9q-33 -15 -66 -15q-51 0 -112 40zM604.5 236q68.5 19 125.5 54v146l-138 5q-106 0 -172 -32.5t-66 -86.5q0 -48 31.5 -76.5t87.5 -28.5q63 0 131.5 19zM260 1420h589v-220h-589v220z" />
    <glyph glyph-name="Abreve" unicode="&#x102;" horiz-adv-x="1419" 
d="M670 1433h237l626 -1433h-163q-56 0 -102 29t-69 80l-85 194h-651l-84 -194q-19 -48 -68 -78.5t-104 -30.5h-163zM579 566h419l-187 434q-20 56 -23 93q-1 -18 -7 -43.5t-16 -49.5zM1026 1803q0 -130 -97 -221q-45 -41 -101.5 -63.5t-116.5 -22.5t-116 22.5t-100 63.5
q-97 91 -97 221h66q37 0 69 -14.5t50 -40.5q44 -59 128 -59q43 0 73.5 14t54.5 45q40 55 121 55h66z" />
    <glyph glyph-name="abreve" unicode="&#x103;" horiz-adv-x="1109" 
d="M207 848l-36 23q28 41 65 78q19 19 45 35q122 80 283 80q163 0 261.5 -69.5t135.5 -209.5q28 -94 28 -261v-524h-214q-10 12 -19 34.5t-11 41.5q-51 -39 -129 -64.5t-144 -25.5q-81 0 -150 23.5t-120 67.5q-107 93 -107 240q0 171 132.5 262t383.5 91q61 0 111 -8
q-7 81 -48 125t-112 44q-35 0 -62 -5.5t-59 -17.5l-21 -9q-33 -15 -66 -15q-51 0 -112 40zM604.5 236q68.5 19 125.5 54v146l-138 5q-106 0 -172 -32.5t-66 -86.5q0 -48 31.5 -76.5t87.5 -28.5q63 0 131.5 19zM868 1467q0 -65 -25.5 -123t-71.5 -101q-46 -42 -102 -65.5
t-115 -23.5t-115 23.5t-102 65.5q-46 43 -71.5 101t-25.5 123h66q38 0 69.5 -14.5t50.5 -41.5q17 -24 55.5 -41.5t72.5 -17.5q37 0 71.5 16t55.5 43q42 56 121 56h66z" />
    <glyph glyph-name="Aogonek" unicode="&#x104;" horiz-adv-x="1419" 
d="M1561 -314q-49 -34 -113.5 -54.5t-123.5 -20.5q-115 0 -181.5 49t-66.5 132q0 104 174 212q-43 9 -77 36.5t-53 68.5l-85 194h-651l-84 -194q-19 -48 -68 -78.5t-104 -30.5h-163l626 1433h237l626 -1433h-55l16 -2q-72 -41 -104.5 -78t-32.5 -77q0 -30 19.5 -46t55.5 -16
q18 2 40 6q21 3 40 3q80 0 104 -52zM919 566l-187 434q-20 56 -23 93q-1 -18 -7 -43.5t-16 -49.5l-186 -434h419z" />
    <glyph glyph-name="aogonek" unicode="&#x105;" horiz-adv-x="1232" 
d="M1112 -314q-49 -34 -113.5 -54.5t-123.5 -20.5q-115 0 -181.5 49t-66.5 132q0 101 168 208h-20q-10 12 -19 34.5t-11 41.5q-51 -39 -129 -64.5t-144 -25.5q-81 0 -150 23.5t-120 67.5q-107 93 -107 240q0 171 132.5 262t383.5 91q61 0 111 -8q-7 81 -48 125t-112 44
q-35 0 -62 -5.5t-59 -17.5l-21 -9q-33 -15 -66 -15q-51 0 -112 40l-35 24l-36 23q28 41 65 78q19 19 45 35q122 80 283 80q163 0 261.5 -69.5t135.5 -209.5q28 -94 28 -261v-524h-39l16 -2q-72 -41 -104.5 -78t-32.5 -77q0 -30 19.5 -46t55.5 -16q18 2 40 6q21 3 40 3
q80 0 104 -52zM730 436l-138 5q-106 0 -172 -32.5t-66 -86.5q0 -48 31.5 -76.5t87.5 -28.5q63 0 131.5 19t125.5 54v146z" />
    <glyph glyph-name="Cacute" unicode="&#x106;" horiz-adv-x="1470" 
d="M388.5 536q36.5 -86 103.5 -150q67 -66 153 -102t179 -36q142 0 265 84q47 30 101 30q42 0 74.5 -13.5t60.5 -41.5l61 -61q-117 -125 -262.5 -192.5t-299.5 -67.5q-147 0 -281.5 55.5t-237.5 158.5t-159 237t-56 280q0 99 25.5 193t74.5 176q48 81 115 148t149 115
t176.5 73.5t193.5 25.5q154 0 299.5 -67.5t262.5 -192.5l-61 -61q-57 -57 -135 -57q-54 0 -101 32q-125 83 -265 83q-94 0 -179.5 -35.5t-152.5 -101.5t-103.5 -152t-36.5 -179q0 -95 36.5 -181zM973 1600q-42 -56 -142 -56h-132l25 43l82 141l27 43l12 18q42 55 141 55h182
z" />
    <glyph glyph-name="cacute" unicode="&#x107;" horiz-adv-x="1057" 
d="M508.5 782.5q-50.5 -20.5 -89.5 -59.5q-41 -40 -63 -90.5t-22 -107.5t22 -107.5t63 -90.5q39 -38 90.5 -59.5t105.5 -21.5q45 0 97 15l47 15l56 17q15 3 29 3l20 -2q54 -11 100 -44q17 -12 32 -27l39 -39q-88 -94 -197.5 -146t-222.5 -52q-144 0 -269 72t-197 195
q-75 125 -75 272q0 144 72 268t197 197q128 74 272 74q113 0 222.5 -52t197.5 -146l-39 -40q-32 -32 -76 -50.5t-86 -18.5q-14 0 -29 3l-92 25l-50 13l-48 5q-56 0 -106.5 -20.5zM799 1217q-42 -56 -142 -56h-132l115 202l28 48l13 20q42 55 141 55h182z" />
    <glyph glyph-name="Ccircumflex" unicode="&#x108;" horiz-adv-x="1470" 
d="M388.5 536q36.5 -86 103.5 -150q67 -66 153 -102t179 -36q142 0 265 84q47 30 101 30q42 0 74.5 -13.5t60.5 -41.5l61 -61q-117 -125 -262.5 -192.5t-299.5 -67.5q-147 0 -281.5 55.5t-237.5 158.5t-159 237t-56 280q0 99 25.5 193t74.5 176q48 81 115 148t149 115
t176.5 73.5t193.5 25.5q154 0 299.5 -67.5t262.5 -192.5l-61 -61q-57 -57 -135 -57q-54 0 -101 32q-125 83 -265 83q-94 0 -179.5 -35.5t-152.5 -101.5t-103.5 -152t-36.5 -179q0 -95 36.5 -181zM835 1607q-8 8 -12 17q-5 9 -9 15l-9 -15q-5 -9 -12 -16l-15 -16l-30 -33
q-57 -69 -120 -75q-17 -4 -70 -4h-85l182 250q39 56 141 56h37q98 0 139 -56l183 -250h-86q-49 0 -74.5 4t-45.5 15q-41 22 -81 71z" />
    <glyph glyph-name="ccircumflex" unicode="&#x109;" horiz-adv-x="1057" 
d="M508.5 782.5q-50.5 -20.5 -89.5 -59.5q-41 -40 -63 -90.5t-22 -107.5t22 -107.5t63 -90.5q39 -38 90.5 -59.5t105.5 -21.5q45 0 97 15l47 15l56 17q15 3 29 3l20 -2q54 -11 100 -44q17 -12 32 -27l39 -39q-88 -94 -197.5 -146t-222.5 -52q-144 0 -269 72t-197 195
q-75 125 -75 272q0 144 72 268t197 197q128 74 272 74q113 0 222.5 -52t197.5 -146l-39 -40q-32 -32 -76 -50.5t-86 -18.5q-14 0 -29 3l-92 25l-50 13l-48 5q-56 0 -106.5 -20.5zM644 1298q-8 8 -12 17l-9 14l-10 -14q-6 -12 -11 -17l-15 -19l-30 -36q-27 -35 -49 -52
t-50 -23q-24 -7 -91 -7h-85q144 204 179 249q42 62 144 62h37q93 0 143 -62q35 -45 179 -249h-86l-73 2q-45 4 -94 53q-19 19 -36 42z" />
    <glyph glyph-name="Cdotaccent" unicode="&#x10a;" horiz-adv-x="1470" 
d="M388.5 536q36.5 -86 103.5 -150q67 -66 153 -102t179 -36q142 0 265 84q47 30 101 30q42 0 74.5 -13.5t60.5 -41.5l61 -61q-117 -125 -262.5 -192.5t-299.5 -67.5q-147 0 -281.5 55.5t-237.5 158.5t-159 237t-56 280q0 99 25.5 193t74.5 176q48 81 115 148t149 115
t176.5 73.5t193.5 25.5q154 0 299.5 -67.5t262.5 -192.5l-61 -61q-57 -57 -135 -57q-54 0 -101 32q-125 83 -265 83q-94 0 -179.5 -35.5t-152.5 -101.5t-103.5 -152t-36.5 -179q0 -95 36.5 -181zM688 1744.5q12 28.5 33 49.5q47 44 109 44q32 0 60.5 -11.5t49.5 -32.5
t33 -49.5t12 -58.5q0 -63 -45 -108q-21 -21 -49.5 -33t-60.5 -12q-42 0 -77.5 20.5t-55.5 56.5q-21 35 -21 76q0 30 12 58.5z" />
    <glyph glyph-name="cdotaccent" unicode="&#x10b;" horiz-adv-x="1057" 
d="M508.5 782.5q-50.5 -20.5 -89.5 -59.5q-41 -40 -63 -90.5t-22 -107.5t22 -107.5t63 -90.5q39 -38 90.5 -59.5t105.5 -21.5q45 0 97 15l47 15l56 17q15 3 29 3l20 -2q54 -11 100 -44q17 -12 32 -27l39 -39q-88 -94 -197.5 -146t-222.5 -52q-144 0 -269 72t-197 195
q-75 125 -75 272q0 144 72 268t197 197q128 74 272 74q113 0 222.5 -52t197.5 -146l-39 -40q-32 -32 -76 -50.5t-86 -18.5q-14 0 -29 3l-92 25l-50 13l-48 5q-56 0 -106.5 -20.5zM481 1382q21 35 57 56q35 20 76 20q32 0 60.5 -11.5t49.5 -32.5q45 -45 45 -109
q0 -63 -45 -107q-21 -21 -49.5 -33t-60.5 -12q-42 0 -77.5 20.5t-55.5 55.5q-21 35 -21 76q0 42 21 77z" />
    <glyph glyph-name="Ccaron" unicode="&#x10c;" horiz-adv-x="1470" 
d="M388.5 536q36.5 -86 103.5 -150q67 -66 153 -102t179 -36q142 0 265 84q47 30 101 30q42 0 74.5 -13.5t60.5 -41.5l61 -61q-117 -125 -262.5 -192.5t-299.5 -67.5q-147 0 -281.5 55.5t-237.5 158.5t-159 237t-56 280q0 99 25.5 193t74.5 176q48 81 115 148t149 115
t176.5 73.5t193.5 25.5q154 0 299.5 -67.5t262.5 -192.5l-61 -61q-57 -57 -135 -57q-54 0 -101 32q-125 83 -265 83q-94 0 -179.5 -35.5t-152.5 -101.5t-103.5 -152t-36.5 -179q0 -95 36.5 -181zM581 1871q43 0 65.5 -4t42.5 -16q40 -24 79 -76l32 -42q5 -5 11 -17
q4 -9 9 -14l16 22q38 50 59 75t38 39q22 18 51 25.5t76 7.5h101q-125 -182 -182 -254q-40 -57 -140 -57h-36q-101 0 -141 57l-12 16q-21 27 -34 47l-12 19l-5 6l-26 35l-93 131h101z" />
    <glyph glyph-name="ccaron" unicode="&#x10d;" horiz-adv-x="1057" 
d="M508.5 782.5q-50.5 -20.5 -89.5 -59.5q-41 -40 -63 -90.5t-22 -107.5t22 -107.5t63 -90.5q39 -38 90.5 -59.5t105.5 -21.5q45 0 97 15l47 15l56 17q15 3 29 3l20 -2q54 -11 100 -44q17 -12 32 -27l39 -39q-88 -94 -197.5 -146t-222.5 -52q-144 0 -269 72t-197 195
q-75 125 -75 272q0 144 72 268t197 197q128 74 272 74q113 0 222.5 -52t197.5 -146l-39 -40q-32 -32 -76 -50.5t-86 -18.5q-14 0 -29 3l-92 25l-50 13l-48 5q-56 0 -106.5 -20.5zM396 1471q43 0 65.5 -4t42.5 -16q40 -24 79 -76l32 -42q5 -5 11 -17q4 -9 9 -14l16 22
q38 50 59 75t38 39q22 18 51 25.5t76 7.5h101q-125 -182 -182 -254q-40 -57 -140 -57h-36q-101 0 -141 57l-12 16q-21 27 -34 47l-12 19l-5 6l-26 35l-93 131h101z" />
    <glyph glyph-name="Dcaron" unicode="&#x10e;" horiz-adv-x="1549" 
d="M174 0v1433h565q129 0 247 -43t215 -124q123 -104 190.5 -245.5t67.5 -304.5q0 -127 -43.5 -245t-125.5 -215q-74 -86 -166 -144.5t-197 -86.5q-85 -25 -188 -25h-565zM739 263q90 0 174.5 35t147.5 98q64 64 99.5 147.5t35.5 172.5t-35.5 173t-99.5 148
q-63 63 -147.5 98t-174.5 35h-303v-907h303zM516 1871q43 0 65.5 -4t42.5 -16q40 -24 79 -76l32 -42q5 -5 11 -17q4 -9 9 -14l16 22q38 50 59 75t38 39q22 18 51 25.5t76 7.5h101q-125 -182 -182 -254q-40 -57 -140 -57h-36q-101 0 -141 57l-12 16q-21 27 -34 47l-12 19
l-5 6l-26 35l-93 131h101z" />
    <glyph glyph-name="dcaron" unicode="&#x10f;" horiz-adv-x="1239" 
d="M1098 0h-213q-3 3 -13 25q-12 23 -17 67q-48 -48 -117.5 -77.5t-135.5 -29.5h-3q-104 0 -201 41.5t-173 117.5q-73 76 -113 174.5t-40 205.5q0 109 40 207.5t114 174.5q73 76 170.5 117t205.5 41q67 0 126.5 -21.5t107.5 -64.5v455h262v-1433zM734 277q62 32 101 86v322
q-39 54 -101 86t-131 32q-56 0 -105.5 -21.5t-86.5 -60.5t-57 -90t-20 -107t20 -107t57 -90t86.5 -60.5t105.5 -21.5q69 0 131 32zM1219 1450h114q44 0 67.5 -24t23.5 -66q0 -8 1 -9l-2 -10l-19 -125q-6 -38 -34.5 -62.5t-68.5 -24.5h-82v321z" />
    <glyph glyph-name="Dcroat" unicode="&#x110;" horiz-adv-x="1576" 
d="M1459 716q0 -127 -43.5 -245t-125.5 -215q-74 -86 -166 -144.5t-197 -86.5q-85 -25 -188 -25h-565v610h-79v220h79v603h565q129 0 247 -43t215 -124q96 -80 159 -188q99 -166 99 -362zM1160.5 543.5q35.5 83.5 35.5 172.5t-35.5 173t-99.5 148q-63 63 -147.5 98
t-174.5 35h-303v-340h248v-220h-248v-347h303q90 0 174.5 35t147.5 98q64 64 99.5 147.5z" />
    <glyph glyph-name="dcroat" unicode="&#x111;" horiz-adv-x="1239" 
d="M603 1360h208v73h262v-73h95v-189h-95v-1171h-217q-12 9 -18 24t-9 42q-91 -81 -234 -81q-107 0 -204 41t-169 117q-72 75 -111 174t-39 207t39 207t111 174q72 76 169 117t204 41q124 0 216 -72v180h-208v189zM490 781.5q-48 -20.5 -84 -59.5q-35 -38 -54 -89t-19 -109
t19 -109t54 -89q36 -39 84.5 -60t104.5 -21q59 0 116 23t100 62v387q-43 39 -100 62t-116 23q-57 0 -105 -20.5z" />
    <glyph glyph-name="Emacron" unicode="&#x112;" horiz-adv-x="1199" 
d="M1094 0h-920v1433h920v-252h-658v-332h534v-252h-534v-345h658v-252zM349 1743h589v-220h-589v220z" />
    <glyph glyph-name="emacron" unicode="&#x113;" horiz-adv-x="1216" 
d="M1119 524q-23 -37 -62 -58q-40 -20 -83 -20h-624q6 -35 27 -72.5t51 -66.5q78 -78 185 -78q36 0 72 9.5t67 26.5q41 24 94 24q73 0 127 -54l60 -61q-85 -91 -193 -139.5t-227 -48.5q-107 0 -206.5 41.5t-175.5 116.5t-117.5 174t-41.5 207t41.5 207t117.5 174
t175.5 116.5t206.5 41.5q90 0 175.5 -30t157.5 -86q69 -55 118.5 -129t72.5 -159q4 -7 4 -27q0 -24 1 -25q0 -47 -23 -84zM866 669q-30 69 -97 110.5t-151 41.5q-63 0 -119 -24.5t-95 -67.5q-36 -38 -50 -85q13 13 25.5 19t29.5 6h457zM313 1420h589v-220h-589v220z" />
    <glyph glyph-name="Ebreve" unicode="&#x114;" horiz-adv-x="1199" 
d="M1094 0h-920v1433h920v-252h-658v-332h534v-252h-534v-345h658v-252zM969 1803q0 -130 -97 -221q-45 -41 -101.5 -63.5t-116.5 -22.5t-116 22.5t-100 63.5q-97 91 -97 221h66q37 0 69 -14.5t50 -40.5q44 -59 128 -59q43 0 73.5 14t54.5 45q40 55 121 55h66z" />
    <glyph glyph-name="ebreve" unicode="&#x115;" horiz-adv-x="1216" 
d="M1119 524q-23 -37 -62 -58q-40 -20 -83 -20h-624q6 -35 27 -72.5t51 -66.5q78 -78 185 -78q36 0 72 9.5t67 26.5q41 24 94 24q73 0 127 -54l60 -61q-85 -91 -193 -139.5t-227 -48.5q-107 0 -206.5 41.5t-175.5 116.5t-117.5 174t-41.5 207t41.5 207t117.5 174
t175.5 116.5t206.5 41.5q90 0 175.5 -30t157.5 -86q69 -55 118.5 -129t72.5 -159q4 -7 4 -27q0 -24 1 -25q0 -47 -23 -84zM866 669q-30 69 -97 110.5t-151 41.5q-63 0 -119 -24.5t-95 -67.5q-36 -38 -50 -85q13 13 25.5 19t29.5 6h457zM922 1467q0 -65 -25.5 -123
t-71.5 -101q-46 -42 -102 -65.5t-115 -23.5t-115 23.5t-102 65.5q-46 43 -71.5 101t-25.5 123h66q38 0 69.5 -14.5t50.5 -41.5q17 -24 55.5 -41.5t72.5 -17.5q37 0 71.5 16t55.5 43q42 56 121 56h66z" />
    <glyph glyph-name="Edotaccent" unicode="&#x116;" horiz-adv-x="1199" 
d="M1094 0h-920v1433h920v-252h-658v-332h534v-252h-534v-345h658v-252zM506 1744.5q12 28.5 33 49.5q47 44 109 44q32 0 60.5 -11.5t49.5 -32.5t33 -49.5t12 -58.5q0 -63 -45 -108q-21 -21 -49.5 -33t-60.5 -12q-42 0 -77.5 20.5t-55.5 56.5q-21 35 -21 76q0 30 12 58.5z
" />
    <glyph glyph-name="edotaccent" unicode="&#x117;" horiz-adv-x="1216" 
d="M1119 524q-23 -37 -62 -58q-40 -20 -83 -20h-624q6 -35 27 -72.5t51 -66.5q78 -78 185 -78q36 0 72 9.5t67 26.5q41 24 94 24q73 0 127 -54l60 -61q-85 -91 -193 -139.5t-227 -48.5q-107 0 -206.5 41.5t-175.5 116.5t-117.5 174t-41.5 207t41.5 207t117.5 174
t175.5 116.5t206.5 41.5q90 0 175.5 -30t157.5 -86q69 -55 118.5 -129t72.5 -159q4 -7 4 -27q0 -24 1 -25q0 -47 -23 -84zM866 669q-30 69 -97 110.5t-151 41.5q-63 0 -119 -24.5t-95 -67.5q-36 -38 -50 -85q13 13 25.5 19t29.5 6h457zM474 1382q21 35 57 56q35 20 76 20
q32 0 60.5 -11.5t49.5 -32.5q45 -45 45 -109q0 -63 -45 -107q-21 -21 -49.5 -33t-60.5 -12q-42 0 -77.5 20.5t-55.5 55.5q-21 35 -21 76q0 42 21 77z" />
    <glyph glyph-name="Eogonek" unicode="&#x118;" horiz-adv-x="1199" 
d="M436 1181v-332h534v-252h-534v-345h658v-252h-162l16 -2q-72 -41 -104.5 -78t-32.5 -77q0 -30 19.5 -46t55.5 -16q18 2 40 6q21 3 40 3q80 0 104 -52l24 -52q-49 -34 -113 -54.5t-124 -20.5q-115 0 -181.5 49t-66.5 132q0 101 168 208h-603v1433h920v-252h-658z" />
    <glyph glyph-name="eogonek" unicode="&#x119;" horiz-adv-x="1216" 
d="M1142 608q0 -47 -23 -84t-62 -58q-40 -20 -83 -20h-624q6 -35 27 -72.5t51 -66.5q78 -78 185 -78q36 0 72 9.5t67 26.5q41 24 94 24q73 0 127 -54l60 -61q-72 -77 -161 -124t-188 -59q-124 -73 -124 -148q0 -30 19.5 -46t55.5 -16q18 2 40 6q21 3 40 3q80 0 104 -52
l24 -52q-49 -34 -113 -54.5t-124 -20.5q-115 0 -181.5 49t-66.5 132q0 101 159 203q-78 14 -151.5 52.5t-134.5 96.5q-76 75 -117.5 174t-41.5 207t41.5 207t117.5 174t175.5 116.5t206.5 41.5q90 0 175.5 -30t157.5 -86q69 -55 118.5 -129t72.5 -159q4 -7 4 -27
q0 -24 1 -25zM866 669q-30 69 -97 110.5t-151 41.5q-63 0 -119 -24.5t-95 -67.5q-36 -38 -50 -85q13 13 25.5 19t29.5 6h457z" />
    <glyph glyph-name="Ecaron" unicode="&#x11a;" horiz-adv-x="1199" 
d="M1094 0h-920v1433h920v-252h-658v-332h534v-252h-534v-345h658v-252zM415 1871q43 0 65.5 -4t42.5 -16q40 -24 79 -76l32 -42q5 -5 11 -17q4 -9 9 -14l16 22q38 50 59 75t38 39q22 18 51 25.5t76 7.5h101q-125 -182 -182 -254q-40 -57 -140 -57h-36q-101 0 -141 57
l-12 16q-21 27 -34 47l-12 19l-5 6l-26 35l-93 131h101z" />
    <glyph glyph-name="ecaron" unicode="&#x11b;" horiz-adv-x="1216" 
d="M1119 524q-23 -37 -62 -58q-40 -20 -83 -20h-624q6 -35 27 -72.5t51 -66.5q78 -78 185 -78q36 0 72 9.5t67 26.5q41 24 94 24q73 0 127 -54l60 -61q-85 -91 -193 -139.5t-227 -48.5q-107 0 -206.5 41.5t-175.5 116.5t-117.5 174t-41.5 207t41.5 207t117.5 174
t175.5 116.5t206.5 41.5q90 0 175.5 -30t157.5 -86q69 -55 118.5 -129t72.5 -159q4 -7 4 -27q0 -24 1 -25q0 -47 -23 -84zM866 669q-30 69 -97 110.5t-151 41.5q-63 0 -119 -24.5t-95 -67.5q-36 -38 -50 -85q13 13 25.5 19t29.5 6h457zM368 1471q43 0 65.5 -4t42.5 -16
q40 -24 79 -76l32 -42q5 -5 11 -17q4 -9 9 -14l16 22q38 50 59 75t38 39q22 18 51 25.5t76 7.5h101q-125 -182 -182 -254q-40 -57 -140 -57h-36q-101 0 -141 57l-12 16q-21 27 -34 47l-12 19l-5 6l-26 35l-93 131h101z" />
    <glyph glyph-name="Gcircumflex" unicode="&#x11c;" horiz-adv-x="1506" 
d="M1368 767v-601q-94 -94 -224.5 -137t-318.5 -43q-147 0 -281 55.5t-237 158.5t-159 237t-56 280q0 99 25.5 193t74.5 176q48 81 115 148t149 115t176 73.5t193 25.5q154 0 299.5 -67.5t262.5 -192.5l-60 -61q-28 -29 -60.5 -43t-74.5 -14q-55 0 -102 32q-122 83 -265 83
q-93 0 -179.5 -36t-152.5 -101q-66 -66 -102.5 -152t-36.5 -179q0 -95 37.5 -181t106.5 -152q67 -64 155.5 -100t181.5 -36q89 2 183 27q47 13 86 37v202l-82 2q-75 0 -108.5 40.5t-33.5 130.5v80h488zM864 1607q-8 8 -12 17q-5 9 -9 15l-9 -15q-5 -9 -12 -16l-15 -16
l-30 -33q-57 -69 -120 -75q-17 -4 -70 -4h-85l182 250q39 56 141 56h37q98 0 139 -56l183 -250h-86q-49 0 -74.5 4t-45.5 15q-41 22 -81 71z" />
    <glyph glyph-name="gcircumflex" unicode="&#x11d;" horiz-adv-x="1053" 
d="M1036 988q-19 -62 -38.5 -96t-47.5 -52q-31 -19 -79 -19q28 -74 28 -153q0 -75 -31 -149t-86 -132q-55 -57 -129 -88t-155 -31q-87 0 -174 36q-47 -30 -47 -54q0 -9 4 -13l9 -8q20 -17 66 -22q68 -5 139 -5q31 0 32 1h32q71 0 117.5 -6t87.5 -21q75 -26 116.5 -87.5
t41.5 -145.5q0 -60 -23.5 -111.5t-69.5 -90.5q-99 -84 -276 -84q-107 0 -216.5 27t-300.5 99l13 33q27 70 60.5 99.5t92.5 29.5q43 0 84 -16q42 -15 45 -16q110 -42 206 -42q65 0 108.5 20.5t43.5 53.5q0 20 -18 34q-18 12 -66.5 19.5t-109.5 8.5q-122 0 -190.5 8t-119.5 29
q-114 47 -114 164q0 19 8.5 43t24.5 47q34 52 99 91q-111 125 -111 274q0 80 31 153.5t88 130.5q60 56 134 86.5t152 30.5q114 0 218 -65q22 11 62.5 19t79.5 8q48 0 106 -15l42 -12zM351.5 580q22.5 -38 61.5 -61q38 -23 83 -23q34 0 64.5 13t53.5 36q49 49 49 118
q0 33 -13 63.5t-36 54.5q-23 23 -53.5 36t-64.5 13q-69 0 -118 -49q-23 -23 -36 -53.5t-13 -64.5q0 -45 22.5 -83zM520 1298q-8 8 -12 17l-9 14l-10 -14q-6 -12 -11 -17l-15 -19l-30 -36q-27 -35 -49 -52t-50 -23q-24 -7 -91 -7h-85q144 204 179 249q42 62 144 62h37
q93 0 143 -62q35 -45 179 -249h-86l-73 2q-45 4 -94 53q-19 19 -36 42z" />
    <glyph glyph-name="Gbreve" unicode="&#x11e;" horiz-adv-x="1506" 
d="M1368 767v-601q-94 -94 -224.5 -137t-318.5 -43q-147 0 -281 55.5t-237 158.5t-159 237t-56 280q0 99 25.5 193t74.5 176q48 81 115 148t149 115t176 73.5t193 25.5q154 0 299.5 -67.5t262.5 -192.5l-60 -61q-28 -29 -60.5 -43t-74.5 -14q-55 0 -102 32q-122 83 -265 83
q-93 0 -179.5 -36t-152.5 -101q-66 -66 -102.5 -152t-36.5 -179q0 -95 37.5 -181t106.5 -152q67 -64 155.5 -100t181.5 -36q89 2 183 27q47 13 86 37v202l-82 2q-75 0 -108.5 40.5t-33.5 130.5v80h488zM1152 1803q0 -130 -97 -221q-45 -41 -101.5 -63.5t-116.5 -22.5
t-116 22.5t-100 63.5q-97 91 -97 221h66q37 0 69 -14.5t50 -40.5q44 -59 128 -59q43 0 73.5 14t54.5 45q40 55 121 55h66z" />
    <glyph glyph-name="gbreve" unicode="&#x11f;" horiz-adv-x="1053" 
d="M1036 988q-19 -62 -38.5 -96t-47.5 -52q-31 -19 -79 -19q28 -74 28 -153q0 -75 -31 -149t-86 -132q-55 -57 -129 -88t-155 -31q-87 0 -174 36q-47 -30 -47 -54q0 -9 4 -13l9 -8q20 -17 66 -22q68 -5 139 -5q31 0 32 1h32q71 0 117.5 -6t87.5 -21q75 -26 116.5 -87.5
t41.5 -145.5q0 -60 -23.5 -111.5t-69.5 -90.5q-99 -84 -276 -84q-107 0 -216.5 27t-300.5 99l13 33q27 70 60.5 99.5t92.5 29.5q43 0 84 -16q42 -15 45 -16q110 -42 206 -42q65 0 108.5 20.5t43.5 53.5q0 20 -18 34q-18 12 -66.5 19.5t-109.5 8.5q-122 0 -190.5 8t-119.5 29
q-114 47 -114 164q0 19 8.5 43t24.5 47q34 52 99 91q-111 125 -111 274q0 80 31 153.5t88 130.5q60 56 134 86.5t152 30.5q114 0 218 -65q22 11 62.5 19t79.5 8q48 0 106 -15l42 -12zM351.5 580q22.5 -38 61.5 -61q38 -23 83 -23q34 0 64.5 13t53.5 36q49 49 49 118
q0 33 -13 63.5t-36 54.5q-23 23 -53.5 36t-64.5 13q-69 0 -118 -49q-23 -23 -36 -53.5t-13 -64.5q0 -45 22.5 -83zM808 1467q0 -65 -25.5 -123t-71.5 -101q-46 -42 -102 -65.5t-115 -23.5t-115 23.5t-102 65.5q-46 43 -71.5 101t-25.5 123h66q38 0 69.5 -14.5t50.5 -41.5
q17 -24 55.5 -41.5t72.5 -17.5q37 0 71.5 16t55.5 43q42 56 121 56h66z" />
    <glyph glyph-name="Gdotaccent" unicode="&#x120;" horiz-adv-x="1506" 
d="M1368 767v-601q-94 -94 -224.5 -137t-318.5 -43q-147 0 -281 55.5t-237 158.5t-159 237t-56 280q0 99 25.5 193t74.5 176q48 81 115 148t149 115t176 73.5t193 25.5q154 0 299.5 -67.5t262.5 -192.5l-60 -61q-28 -29 -60.5 -43t-74.5 -14q-55 0 -102 32q-122 83 -265 83
q-93 0 -179.5 -36t-152.5 -101q-66 -66 -102.5 -152t-36.5 -179q0 -95 37.5 -181t106.5 -152q67 -64 155.5 -100t181.5 -36q89 2 183 27q47 13 86 37v202l-82 2q-75 0 -108.5 40.5t-33.5 130.5v80h488zM695 1744.5q12 28.5 33 49.5q47 44 109 44q32 0 60.5 -11.5t49.5 -32.5
t33 -49.5t12 -58.5q0 -63 -45 -108q-21 -21 -49.5 -33t-60.5 -12q-42 0 -77.5 20.5t-55.5 56.5q-21 35 -21 76q0 30 12 58.5z" />
    <glyph glyph-name="gdotaccent" unicode="&#x121;" horiz-adv-x="1053" 
d="M1036 988q-19 -62 -38.5 -96t-47.5 -52q-31 -19 -79 -19q28 -74 28 -153q0 -75 -31 -149t-86 -132q-55 -57 -129 -88t-155 -31q-87 0 -174 36q-47 -30 -47 -54q0 -9 4 -13l9 -8q20 -17 66 -22q68 -5 139 -5q31 0 32 1h32q71 0 117.5 -6t87.5 -21q75 -26 116.5 -87.5
t41.5 -145.5q0 -60 -23.5 -111.5t-69.5 -90.5q-99 -84 -276 -84q-107 0 -216.5 27t-300.5 99l13 33q27 70 60.5 99.5t92.5 29.5q43 0 84 -16q42 -15 45 -16q110 -42 206 -42q65 0 108.5 20.5t43.5 53.5q0 20 -18 34q-18 12 -66.5 19.5t-109.5 8.5q-122 0 -190.5 8t-119.5 29
q-114 47 -114 164q0 19 8.5 43t24.5 47q34 52 99 91q-111 125 -111 274q0 80 31 153.5t88 130.5q60 56 134 86.5t152 30.5q114 0 218 -65q22 11 62.5 19t79.5 8q48 0 106 -15l42 -12zM351.5 580q22.5 -38 61.5 -61q38 -23 83 -23q34 0 64.5 13t53.5 36q49 49 49 118
q0 33 -13 63.5t-36 54.5q-23 23 -53.5 36t-64.5 13q-69 0 -118 -49q-23 -23 -36 -53.5t-13 -64.5q0 -45 22.5 -83zM366 1382q21 35 57 56q35 20 76 20q32 0 60.5 -11.5t49.5 -32.5q45 -45 45 -109q0 -63 -45 -107q-21 -21 -49.5 -33t-60.5 -12q-42 0 -77.5 20.5t-55.5 55.5
q-21 35 -21 76q0 42 21 77z" />
    <glyph glyph-name="Gcommaaccent" unicode="&#x122;" horiz-adv-x="1506" 
d="M1368 767v-601q-94 -94 -224.5 -137t-318.5 -43q-147 0 -281 55.5t-237 158.5t-159 237t-56 280q0 99 25.5 193t74.5 176q48 81 115 148t149 115t176 73.5t193 25.5q154 0 299.5 -67.5t262.5 -192.5l-60 -61q-28 -29 -60.5 -43t-74.5 -14q-55 0 -102 32q-122 83 -265 83
q-93 0 -179.5 -36t-152.5 -101q-66 -66 -102.5 -152t-36.5 -179q0 -95 37.5 -181t106.5 -152q67 -64 155.5 -100t181.5 -36q89 2 183 27q47 13 86 37v202l-82 2q-75 0 -108.5 40.5t-33.5 130.5v80h488zM709 -148h114q44 0 67.5 -24t23.5 -66q0 -8 1 -9l-2 -10l-19 -125
q-6 -38 -34.5 -62.5t-68.5 -24.5h-82v321z" />
    <glyph glyph-name="gcommaaccent" unicode="&#x123;" horiz-adv-x="1053" 
d="M1036 988q-19 -62 -38.5 -96t-47.5 -52q-31 -19 -79 -19q28 -74 28 -153q0 -75 -31 -149t-86 -132q-55 -57 -129 -88t-155 -31q-87 0 -174 36q-47 -30 -47 -54q0 -9 4 -13l9 -8q20 -17 66 -22q68 -5 139 -5q31 0 32 1h32q71 0 117.5 -6t87.5 -21q75 -26 116.5 -87.5
t41.5 -145.5q0 -60 -23.5 -111.5t-69.5 -90.5q-99 -84 -276 -84q-107 0 -216.5 27t-300.5 99l13 33q27 70 60.5 99.5t92.5 29.5q43 0 84 -16q42 -15 45 -16q110 -42 206 -42q65 0 108.5 20.5t43.5 53.5q0 20 -18 34q-18 12 -66.5 19.5t-109.5 8.5q-122 0 -190.5 8t-119.5 29
q-114 47 -114 164q0 19 8.5 43t24.5 47q34 52 99 91q-111 125 -111 274q0 80 31 153.5t88 130.5q60 56 134 86.5t152 30.5q114 0 218 -65q22 11 62.5 19t79.5 8q48 0 106 -15l42 -12zM351.5 580q22.5 -38 61.5 -61q38 -23 83 -23q34 0 64.5 13t53.5 36q49 49 49 118
q0 33 -13 63.5t-36 54.5q-23 23 -53.5 36t-64.5 13q-69 0 -118 -49q-23 -23 -36 -53.5t-13 -64.5q0 -45 22.5 -83zM456 1390l-16 30q-27 50 -44.5 121t-17.5 131q0 88 62 183q21 33 50.5 67t86.5 91l36 -34q29 -27 42 -52.5t13 -55.5q0 -37 -18 -78l-11 -25
q-17 -41 -21.5 -59t-4.5 -42q-4 -54 29 -113q12 -21 23 -33l10 -12z" />
    <glyph glyph-name="Hcircumflex" unicode="&#x124;" horiz-adv-x="1624" 
d="M1403 0h-263v594h-704v-594h-262v1433h262v-587h704v587h263v-1433zM811 1634q-8 8 -12 17q-5 9 -9 15l-9 -15q-5 -9 -12 -16l-15 -16l-30 -33q-57 -69 -120 -75q-17 -4 -70 -4h-85l182 250q39 56 141 56h37q98 0 139 -56l183 -250h-86q-49 0 -74.5 4t-45.5 15
q-41 22 -81 71z" />
    <glyph glyph-name="hcircumflex" unicode="&#x125;" horiz-adv-x="1192" 
d="M360 1433q48 -57 48 -115v-373q15 27 44 50t68 39q66 31 151 31q90 0 165 -33t129 -95q54 -63 83 -151.5t29 -193.5v-592h-263v585q0 105 -40.5 165t-112.5 60q-46 0 -90.5 -11.5t-80.5 -32.5t-58 -48t-24 -54v-664h-262v1433h214zM723 1642q-8 8 -12 17l-9 14l-10 -14
q-6 -12 -11 -17l-15 -19l-30 -36q-27 -35 -49 -52t-50 -23q-24 -7 -91 -7h-85q144 204 179 249q42 62 144 62h37q93 0 143 -62q35 -45 179 -249h-86l-73 2q-45 4 -94 53q-19 19 -36 42z" />
    <glyph glyph-name="Hbar" unicode="&#x126;" horiz-adv-x="1580" 
d="M1403 1433v-1433h-263v594h-704v-594h-262v1433h262v-168h704v168h263zM1140 846v203h-704v-203h704z" />
    <glyph glyph-name="hbar" unicode="&#x127;" horiz-adv-x="1192" 
d="M1048 785.5q29 -88.5 29 -193.5v-592h-263v585q0 105 -40.5 165t-112.5 60q-46 0 -90.5 -11.5t-80.5 -32.5t-58 -48t-24 -54v-664h-262v1152h-81v220h81v61h214q24 -29 38 -61h256v-220h-246v-207q15 27 44 50t68 39q66 31 151 31q90 0 165 -33t129 -95q54 -63 83 -151.5
z" />
    <glyph glyph-name="Itilde" unicode="&#x128;" horiz-adv-x="682" 
d="M473 0h-263v1433h263v-1433zM398 1520q-28 9 -65 30l-28 15q-44 23 -71 23q-39 0 -39 -71h-176q0 123 51 192.5t144 69.5q26 0 49.5 -8t66.5 -30q46 -25 66 -32q16 -6 32 -6q25 0 35.5 14.5t10.5 47.5h184q-6 -71 -16 -113t-28 -71q-22 -33 -60.5 -50.5t-98.5 -19.5
q-29 0 -57 9z" />
    <glyph glyph-name="itilde" unicode="&#x129;" horiz-adv-x="597" 
d="M387 1015v-1015h-263v1015h263zM325.5 1209q-27.5 9 -64.5 30q-44 25 -68 33l-32 5q-38 0 -38 -76h-176q0 126 50.5 196.5t143.5 70.5q26 0 49.5 -8t66.5 -30q46 -25 66 -32q16 -6 32 -6q46 0 46 67h185q-6 -74 -16 -116.5t-29 -71.5q-24 -36 -62 -53.5t-97 -17.5
q-29 0 -56.5 9z" />
    <glyph glyph-name="Imacron" unicode="&#x12a;" horiz-adv-x="682" 
d="M473 0h-263v1433h263v-1433zM44 1820h589v-220h-589v220z" />
    <glyph glyph-name="imacron" unicode="&#x12b;" horiz-adv-x="597" 
d="M387 1015v-1015h-263v1015h263zM-28 1420h589v-220h-589v220z" />
    <glyph glyph-name="Ibreve" unicode="&#x12c;" horiz-adv-x="682" 
d="M473 0h-263v1433h263v-1433zM653 1803q0 -130 -97 -221q-45 -41 -101.5 -63.5t-116.5 -22.5t-116 22.5t-100 63.5q-97 91 -97 221h66q37 0 69 -14.5t50 -40.5q44 -59 128 -59q43 0 73.5 14t54.5 45q40 55 121 55h66z" />
    <glyph glyph-name="ibreve" unicode="&#x12d;" horiz-adv-x="597" 
d="M387 1015v-1015h-263v1015h263zM580 1467q0 -65 -25.5 -123t-71.5 -101q-46 -42 -102 -65.5t-115 -23.5t-115 23.5t-102 65.5q-46 43 -71.5 101t-25.5 123h66q38 0 69.5 -14.5t50.5 -41.5q17 -24 55.5 -41.5t72.5 -17.5q37 0 71.5 16t55.5 43q42 56 121 56h66z" />
    <glyph glyph-name="Iogonek" unicode="&#x12e;" horiz-adv-x="678" 
d="M553 -314q-49 -34 -113.5 -54.5t-123.5 -20.5q-115 0 -181.5 49t-66.5 132q0 101 168 208h-26v1433h263v-1433h-82l16 -2q-72 -41 -104.5 -78t-32.5 -77q0 -30 19.5 -46t55.5 -16q18 2 40 6q21 3 40 3q80 0 104 -52z" />
    <glyph glyph-name="iogonek" unicode="&#x12f;" horiz-adv-x="597" 
d="M133 1324q0 43 22 78t60 55t83 20q34 0 64 -11.5t52 -31.5q48 -43 48 -110q0 -66 -48 -110q-22 -20 -52 -31t-64 -11q-68 0 -116 42q-49 43 -49 110zM541 -314q-49 -34 -113.5 -54.5t-123.5 -20.5q-115 0 -181.5 49t-66.5 132q0 101 168 208h-58v1050h263v-1050h-50
l16 -2q-72 -41 -104.5 -78t-32.5 -77q0 -30 19.5 -46t55.5 -16q18 2 40 6q21 3 40 3q80 0 104 -52z" />
    <glyph glyph-name="Idotaccent" unicode="&#x130;" horiz-adv-x="682" 
d="M473 0h-263v1433h263v-1433zM196 1744.5q12 28.5 33 49.5q47 44 109 44q32 0 60.5 -11.5t49.5 -32.5t33 -49.5t12 -58.5q0 -63 -45 -108q-21 -21 -49.5 -33t-60.5 -12q-42 0 -77.5 20.5t-55.5 56.5q-21 35 -21 76q0 30 12 58.5z" />
    <glyph glyph-name="dotlessi" unicode="&#x131;" horiz-adv-x="597" 
d="M387 1015v-1015h-263v1015h263z" />
    <glyph glyph-name="IJ" unicode="&#x132;" horiz-adv-x="1658" 
d="M473 0h-263v1433h263v-1433zM1308 1433h262v-931q0 -99 -33 -189.5t-95 -160.5q-67 -75 -162.5 -114.5t-209.5 -39.5q-121 0 -210.5 31t-155.5 97l76 82q50 54 132 54q31 -2 80 -17q50 -15 78 -15q60 0 107 23t78 66q26 36 39.5 83.5t13.5 99.5v931z" />
    <glyph glyph-name="ij" unicode="&#x133;" horiz-adv-x="1188" 
d="M155 1402q22 35 60 55t83 20q34 0 64 -11.5t52 -31.5q48 -43 48 -110q0 -66 -48 -110q-22 -20 -52 -31t-64 -11q-45 0 -83 19.5t-60 54.5q-22 34 -22 78q0 43 22 78zM429 1050v-1050h-263v1050h263zM752 1402q22 35 60 55t83 20q34 0 64 -11.5t52 -31.5q48 -43 48 -110
q0 -66 -48 -110q-22 -20 -52 -31t-64 -11q-45 0 -83 19.5t-60 54.5q-22 34 -22 78q0 43 22 78zM1025 1050v-995q-2 -150 -97 -269q-94 -114 -232 -169l-13 29q-26 57 -35.5 86.5t-9.5 56.5q0 25 10 48t33 52l36 44q35 44 42 91q3 23 3 43v983h263z" />
    <glyph glyph-name="Jcircumflex" unicode="&#x134;" horiz-adv-x="818" 
d="M626 1433h262v-931q0 -99 -33 -189.5t-95 -160.5q-67 -75 -162.5 -114.5t-209.5 -39.5q-121 0 -210.5 31t-155.5 97l76 82q50 54 132 54q31 -2 80 -17q50 -15 78 -15q60 0 107 23t78 66q26 36 39.5 83.5t13.5 99.5v931zM497 1634q-8 8 -12 17q-5 9 -9 15l-9 -15
q-5 -9 -12 -16l-15 -16l-30 -33q-57 -69 -120 -75q-17 -4 -70 -4h-85l182 250q39 56 141 56h37q98 0 139 -56l183 -250h-86q-49 0 -74.5 4t-45.5 15q-41 22 -81 71z" />
    <glyph glyph-name="jcircumflex" unicode="&#x135;" horiz-adv-x="591" 
d="M403 1298q-8 8 -12 17l-9 14l-10 -14q-6 -12 -11 -17l-15 -19l-30 -36q-27 -35 -49 -52t-50 -23q-24 -7 -91 -7h-85q144 204 179 249q42 62 144 62h37q93 0 143 -62q35 -45 179 -249h-86l-73 2q-45 4 -94 53q-20 20 -36 42zM514 1024v-969q0 -27 -7 -48
q-16 -125 -108 -235q-43 -50 -98 -90t-116 -65l-13 29q-26 57 -35.5 86.5t-9.5 56.5q0 28 10 52t33 53l36 44q34 40 42 91q3 23 3 43v952h263z" />
    <glyph glyph-name="Kcommaaccent" unicode="&#x136;" horiz-adv-x="1457" 
d="M456 0h-263v1433h263v-1433zM989 1332q30 48 75 74.5t98 26.5h219l-460 -661q-8 -12 -26 -25l-17 -10l17 -10q14 -9 26 -26l491 -701h-219q-108 0 -173 101l-402 574q-22 30 -49 47l-18 11q-8 3 -9 4l9 3q18 8 36 24t31 35zM625 -123h114q44 0 67.5 -24t23.5 -66
q0 -8 1 -9l-2 -10l-19 -125q-6 -38 -34.5 -62.5t-68.5 -24.5h-82v321z" />
    <glyph glyph-name="kcommaaccent" unicode="&#x137;" 
d="M414 0h-262v1433h262v-1433zM768 948q23 46 73 74t110 28h178l-298 -473q-16 -19 -28 -26l-19 -10l19 -9q12 -7 28 -26l324 -506h-178q-64 0 -111 25.5t-73 75.5l-245 378q-17 25 -43 45l-18 13q-7 4 -9 4q2 0 9 4q18 9 35 25.5t26 32.5zM519 -144h114q44 0 67.5 -24
t23.5 -66q0 -8 1 -9l-2 -10l-19 -125q-6 -38 -34.5 -62.5t-68.5 -24.5h-82v321z" />
    <glyph glyph-name="kgreenlandic" unicode="&#x138;" 
d="M414 0h-262v1050h262v-1050zM763 948q24 47 74 74.5t110 27.5h177l-298 -473q-16 -19 -28 -26l-18 -10l18 -9q12 -7 28 -26l324 -506h-177q-132 0 -185 101l-245 378q-17 25 -43 45l-18 13q-7 4 -9 4q2 0 9 4q18 9 35 25.5t26 32.5z" />
    <glyph glyph-name="Lacute" unicode="&#x139;" horiz-adv-x="1070" 
d="M88 0v1433h262v-1181h593v-252h-855zM476 1600q-42 -56 -142 -56h-132l25 43l82 141l27 43l12 18q42 55 141 55h182z" />
    <glyph glyph-name="lacute" unicode="&#x13a;" horiz-adv-x="592" 
d="M429 1433v-1433h-263v1433h263zM469 1617q-42 -56 -142 -56h-132l115 202l28 48l13 20q42 55 141 55h182z" />
    <glyph glyph-name="Lcommaaccent" unicode="&#x13b;" horiz-adv-x="1070" 
d="M88 0v1433h262v-1181h593v-252h-855zM527 -141h114q44 0 67.5 -24t23.5 -66q0 -8 1 -9l-2 -10l-19 -125q-6 -38 -34.5 -62.5t-68.5 -24.5h-82v321z" />
    <glyph glyph-name="lcommaaccent" unicode="&#x13c;" horiz-adv-x="592" 
d="M429 1433v-1433h-263v1433h263zM193 -143h114q44 0 67.5 -24t23.5 -66q0 -8 1 -9l-2 -10l-19 -125q-6 -38 -34.5 -62.5t-68.5 -24.5h-82v321z" />
    <glyph glyph-name="Lcaron" unicode="&#x13d;" horiz-adv-x="1070" 
d="M88 0v1433h262v-1181h593v-252h-855zM555 1450h114q44 0 67.5 -24t23.5 -66q0 -8 1 -9l-2 -10l-19 -125q-6 -38 -34.5 -62.5t-68.5 -24.5h-82v321z" />
    <glyph glyph-name="lcaron" unicode="&#x13e;" horiz-adv-x="1094" 
d="M429 1433v-1433h-263v1433h263zM549 1462h114q44 0 67.5 -24t23.5 -66q0 -8 1 -9l-2 -10l-19 -125q-6 -38 -34.5 -62.5t-68.5 -24.5h-82v321z" />
    <glyph glyph-name="Ldot" unicode="&#x13f;" horiz-adv-x="1070" 
d="M88 0v1433h262v-1181h593v-252h-855zM581 659.5q13 30.5 36 52.5q51 48 119 48t119 -48q23 -22 36.5 -53t13.5 -64q0 -44 -22.5 -81.5t-62.5 -61.5q-41 -23 -84 -23q-45 0 -83.5 22t-61.5 60t-23 84q0 34 13 64.5z" />
    <glyph glyph-name="ldot" unicode="&#x140;" horiz-adv-x="1208" 
d="M429 1433v-1433h-263v1433h263zM535 659.5q13 30.5 36 52.5q51 48 119 48t119 -48q23 -22 36.5 -53t13.5 -64q0 -44 -22.5 -81.5t-62.5 -61.5q-41 -23 -84 -23q-45 0 -83.5 22t-61.5 60t-23 84q0 34 13 64.5z" />
    <glyph glyph-name="Lslash" unicode="&#x141;" horiz-adv-x="1070" 
d="M173 0v425l-171 -125v132q0 33 14 62t40 49l117 86v804h262v-633l184 136v-146q0 -35 -12 -56t-40 -40h1l-133 -98v-344h593v-252h-855z" />
    <glyph glyph-name="lslash" unicode="&#x142;" horiz-adv-x="532" 
d="M409 676v-676h-263v343q-38 -20 -82 -20h-147l229 311v799h263v-462q19 10 57 10h168z" />
    <glyph glyph-name="Nacute" unicode="&#x143;" horiz-adv-x="1624" 
d="M1448 0h-243l-684 956q-17 20 -27 44l-18 32l-20 36l-18 29v-1097h-262v1433h231q101 0 142 -57l598 -846q14 -20 25 -50.5t14 -55.5v1009h262v-1433zM964 1600q-42 -56 -142 -56h-132l25 43l82 141l27 43l12 18q42 55 141 55h182z" />
    <glyph glyph-name="nacute" unicode="&#x144;" horiz-adv-x="1192" 
d="M354 1050q16 -22 25.5 -55.5t9.5 -71.5v-16q28 67 116 114q40 21 87.5 32.5t95.5 11.5q89 0 163 -32.5t126 -93.5q51 -61 78.5 -150t27.5 -197v-592h-262v584q0 66 -18.5 117t-53.5 80q-34 28 -80 28q-50 0 -97 -12t-83 -33q-38 -22 -59 -51.5t-22 -61.5v-651h-262v1050
h208zM771 1217q-42 -56 -142 -56h-132l115 202l28 48l13 20q42 55 141 55h182z" />
    <glyph glyph-name="Ncommaaccent" unicode="&#x145;" horiz-adv-x="1624" 
d="M1448 0h-243l-684 956q-17 20 -27 44l-18 32l-20 36l-18 29v-1097h-262v1433h231q101 0 142 -57l598 -846q14 -20 25 -50.5t14 -55.5v1009h262v-1433zM709 -117h114q44 0 67.5 -24t23.5 -66q0 -8 1 -9l-2 -10l-19 -125q-6 -38 -34.5 -62.5t-68.5 -24.5h-82v321z" />
    <glyph glyph-name="ncommaaccent" unicode="&#x146;" horiz-adv-x="1192" 
d="M354 1050q16 -22 25.5 -55.5t9.5 -71.5v-16q28 67 116 114q40 21 87.5 32.5t95.5 11.5q89 0 163 -32.5t126 -93.5q51 -61 78.5 -150t27.5 -197v-592h-262v584q0 66 -18.5 117t-53.5 80q-34 28 -80 28q-50 0 -97 -12t-83 -33q-38 -22 -59 -51.5t-22 -61.5v-651h-262v1050
h208zM496 -139h114q44 0 67.5 -24t23.5 -66q0 -8 1 -9l-2 -10l-19 -125q-6 -38 -34.5 -62.5t-68.5 -24.5h-82v321z" />
    <glyph glyph-name="Ncaron" unicode="&#x147;" horiz-adv-x="1624" 
d="M1448 0h-243l-684 956q-17 20 -27 44l-18 32l-20 36l-18 29v-1097h-262v1433h231q101 0 142 -57l598 -846q14 -20 25 -50.5t14 -55.5v1009h262v-1433zM604 1871q43 0 65.5 -4t42.5 -16q40 -24 79 -76l32 -42q5 -5 11 -17q4 -9 9 -14l16 22q38 50 59 75t38 39
q22 18 51 25.5t76 7.5h101q-125 -182 -182 -254q-40 -57 -140 -57h-36q-101 0 -141 57l-12 16q-21 27 -34 47l-12 19l-5 6l-26 35l-93 131h101z" />
    <glyph glyph-name="ncaron" unicode="&#x148;" horiz-adv-x="1192" 
d="M354 1050q16 -22 25.5 -55.5t9.5 -71.5v-16q28 67 116 114q40 21 87.5 32.5t95.5 11.5q89 0 163 -32.5t126 -93.5q51 -61 78.5 -150t27.5 -197v-592h-262v584q0 66 -18.5 117t-53.5 80q-34 28 -80 28q-50 0 -97 -12t-83 -33q-38 -22 -59 -51.5t-22 -61.5v-651h-262v1050
h208zM391 1471q43 0 65.5 -4t42.5 -16q40 -24 79 -76l32 -42q5 -5 11 -17q4 -9 9 -14l16 22q38 50 59 75t38 39q22 18 51 25.5t76 7.5h101q-125 -182 -182 -254q-40 -57 -140 -57h-36q-101 0 -141 57l-12 16q-21 27 -34 47l-12 19l-5 6l-26 35l-93 131h101z" />
    <glyph glyph-name="napostrophe" unicode="&#x149;" horiz-adv-x="1198" 
d="M354 1050q16 -22 25.5 -55.5t9.5 -71.5v-16q28 67 116 114q40 21 87.5 32.5t95.5 11.5q89 0 163 -32.5t126 -93.5q51 -61 78.5 -150t27.5 -197v-592h-262v584q0 66 -18.5 117t-53.5 80q-34 28 -80 28q-50 0 -97 -12t-83 -33q-38 -22 -59 -51.5t-22 -61.5v-651h-262v1050
h208zM146 1475h114q44 0 67.5 -24t23.5 -66q0 -8 1 -9l-2 -10l-19 -125q-6 -38 -34.5 -62.5t-68.5 -24.5h-82v321z" />
    <glyph glyph-name="Eng" unicode="&#x14a;" horiz-adv-x="1624" 
d="M1147 530q13 -20 24.5 -51.5t14.5 -53.5v1008h262v-1271q0 -100 -33 -190.5t-95 -159.5q-67 -75 -162.5 -114.5t-209.5 -39.5q-121 0 -210.5 31t-155.5 97l76 82q50 54 132 54q31 -2 80 -17t78 -15q79 0 136 42t84 119l-647 905q-17 20 -27 44l-18 32l-20 36l-18 29
v-1097h-262v1433h231q101 0 142 -57z" />
    <glyph glyph-name="eng" unicode="&#x14b;" horiz-adv-x="1192" 
d="M794 471v114q0 105 -38 160.5t-112 55.5q-95 0 -159 -34q-34 -17 -54 -40t-23 -49v-678h-262v1050h214q4 -1 15 -25t15 -58q45 46 114.5 71.5t146.5 25.5q90 0 165 -33t129 -95q54 -63 83 -151.5t29 -192.5v-451l-1 -86q-1 -138 -100 -264q-45 -57 -104 -101.5
t-125 -72.5l-13 29q-26 57 -35.5 86.5t-9.5 56.5q0 28 10 52t33 53l36 44q34 40 42 91q3 23 3 43v399h1z" />
    <glyph glyph-name="Omacron" unicode="&#x14c;" horiz-adv-x="1652" 
d="M117.5 910q25.5 94 74.5 176q48 81 115 148t149 115t176.5 73.5t193.5 25.5q199 0 370 -99q81 -48 148.5 -115t115.5 -148q100 -172 100 -369t-100 -369q-48 -81 -115.5 -148t-148.5 -114q-169 -100 -370 -100q-147 0 -281.5 55.5t-237.5 158.5t-159 237t-56 280
q0 99 25.5 193zM390.5 536q36.5 -86 103.5 -150q67 -66 153 -102t179 -36t179.5 36t152.5 102q66 64 102.5 150.5t36.5 180.5q0 93 -36.5 179t-102.5 152q-66 65 -152.5 101t-179.5 36q-94 0 -179.5 -35.5t-152.5 -101.5t-103.5 -152t-36.5 -179q0 -95 36.5 -181zM531 1743
h589v-220h-589v220z" />
    <glyph glyph-name="omacron" unicode="&#x14d;" horiz-adv-x="1226" 
d="M113.5 732q41.5 99 117.5 175t174.5 117t206.5 41t207.5 -41.5t174.5 -116.5t116.5 -174.5t41.5 -207.5t-41 -206.5t-117 -174.5t-175 -117.5t-207 -41.5q-107 0 -206 41.5t-175 117.5t-117.5 175t-41.5 206q0 108 41.5 207zM353.5 417q21.5 -51 60.5 -89
q40 -39 91 -60.5t106 -21.5t106 21.5t91 60.5q39 38 60.5 89t21.5 107t-21.5 107t-60.5 90t-90 60.5t-107 21.5t-107 -21.5t-90 -60.5t-60.5 -90t-21.5 -107t21.5 -107zM318 1420h589v-220h-589v220z" />
    <glyph glyph-name="Obreve" unicode="&#x14e;" horiz-adv-x="1652" 
d="M117.5 910q25.5 94 74.5 176q48 81 115 148t149 115t176.5 73.5t193.5 25.5q199 0 370 -99q81 -48 148.5 -115t115.5 -148q100 -172 100 -369t-100 -369q-48 -81 -115.5 -148t-148.5 -114q-169 -100 -370 -100q-147 0 -281.5 55.5t-237.5 158.5t-159 237t-56 280
q0 99 25.5 193zM390.5 536q36.5 -86 103.5 -150q67 -66 153 -102t179 -36t179.5 36t152.5 102q66 64 102.5 150.5t36.5 180.5q0 93 -36.5 179t-102.5 152q-66 65 -152.5 101t-179.5 36q-94 0 -179.5 -35.5t-152.5 -101.5t-103.5 -152t-36.5 -179q0 -95 36.5 -181zM1140 1830
q0 -130 -97 -221q-45 -41 -101.5 -63.5t-116.5 -22.5t-116 22.5t-100 63.5q-97 91 -97 221h66q37 0 69 -14.5t50 -40.5q44 -59 128 -59q43 0 73.5 14t54.5 45q40 55 121 55h66z" />
    <glyph glyph-name="obreve" unicode="&#x14f;" horiz-adv-x="1226" 
d="M113.5 732q41.5 99 117.5 175t174.5 117t206.5 41t207.5 -41.5t174.5 -116.5t116.5 -174.5t41.5 -207.5t-41 -206.5t-117 -174.5t-175 -117.5t-207 -41.5q-107 0 -206 41.5t-175 117.5t-117.5 175t-41.5 206q0 108 41.5 207zM353.5 417q21.5 -51 60.5 -89
q40 -39 91 -60.5t106 -21.5t106 21.5t91 60.5q39 38 60.5 89t21.5 107t-21.5 107t-60.5 90t-90 60.5t-107 21.5t-107 -21.5t-90 -60.5t-60.5 -90t-21.5 -107t21.5 -107zM927 1467q0 -65 -25.5 -123t-71.5 -101q-46 -42 -102 -65.5t-115 -23.5t-115 23.5t-102 65.5
q-46 43 -71.5 101t-25.5 123h66q38 0 69.5 -14.5t50.5 -41.5q17 -24 55.5 -41.5t72.5 -17.5q37 0 71.5 16t55.5 43q42 56 121 56h66z" />
    <glyph glyph-name="Ohungarumlaut" unicode="&#x150;" horiz-adv-x="1652" 
d="M117.5 910q25.5 94 74.5 176q48 81 115 148t149 115t176.5 73.5t193.5 25.5q199 0 370 -99q81 -48 148.5 -115t115.5 -148q100 -172 100 -369t-100 -369q-48 -81 -115.5 -148t-148.5 -114q-169 -100 -370 -100q-147 0 -281.5 55.5t-237.5 158.5t-159 237t-56 280
q0 99 25.5 193zM390.5 536q36.5 -86 103.5 -150q67 -66 153 -102t179 -36t179.5 36t152.5 102q66 64 102.5 150.5t36.5 180.5q0 93 -36.5 179t-102.5 152q-66 65 -152.5 101t-179.5 36q-94 0 -179.5 -35.5t-152.5 -101.5t-103.5 -152t-36.5 -179q0 -95 36.5 -181zM923 1617
q-24 -32 -64.5 -44t-124.5 -12h-74l115 202l28 48l13 20q24 32 67 43.5t136 11.5h109zM1259 1611l-1 1q-24 -30 -62.5 -40.5t-122.5 -10.5h-87l193 273q22 31 74 45q20 5 44 6q5 1 78 1h122z" />
    <glyph glyph-name="ohungarumlaut" unicode="&#x151;" horiz-adv-x="1226" 
d="M113.5 732q41.5 99 117.5 175t174.5 117t206.5 41t207.5 -41.5t174.5 -116.5t116.5 -174.5t41.5 -207.5t-41 -206.5t-117 -174.5t-175 -117.5t-207 -41.5q-107 0 -206 41.5t-175 117.5t-117.5 175t-41.5 206q0 108 41.5 207zM353.5 417q21.5 -51 60.5 -89
q40 -39 91 -60.5t106 -21.5t106 21.5t91 60.5q39 38 60.5 89t21.5 107t-21.5 107t-60.5 90t-90 60.5t-107 21.5t-107 -21.5t-90 -60.5t-60.5 -90t-21.5 -107t21.5 -107zM682 1217q-24 -32 -64.5 -44t-124.5 -12h-74l115 202l28 48l13 20q24 32 67 43.5t136 11.5h109z
M1018 1211l-1 1q-24 -30 -62.5 -40.5t-122.5 -10.5h-87l193 273q22 31 74 45q20 5 44 6q5 1 78 1h122z" />
    <glyph glyph-name="OE" unicode="&#x152;" horiz-adv-x="2192" 
d="M100.5 910q25.5 94 74.5 176q48 81 115 148t149 115t176.5 73.5t193.5 25.5q70 0 148 -15h1150v-263h-728q58 -67 96.5 -148t53.5 -168h454v-263h-451q-28 -185 -153 -328h728v-263h-1154q-73 -14 -144 -14q-147 0 -281.5 55.5t-237.5 158.5t-159 237t-56 280
q0 99 25.5 193zM379 537q36 -87 100 -151q64 -66 149.5 -102t180.5 -36q93 0 179 36t150 102q64 64 100 151t36 180q0 94 -35.5 179.5t-100.5 151.5q-66 66 -151 101.5t-178 35.5t-178.5 -35.5t-151.5 -101.5q-65 -66 -100.5 -151.5t-35.5 -179.5q0 -93 36 -180z" />
    <glyph glyph-name="oe" unicode="&#x153;" horiz-adv-x="2098" 
d="M113.5 732q41.5 99 117.5 175t174.5 117t206.5 41q120 0 230.5 -52.5t182.5 -144.5q22 -27 33 -60q2 12 11.5 30t17.5 28q76 93 186 145.5t232 52.5q90 0 175.5 -30t157.5 -86q69 -55 118.5 -129t72.5 -159q5 -35 5 -52q0 -47 -23 -84t-62 -58q-40 -20 -83 -20h-639
q4 -31 27 -69t58 -70q40 -37 90 -57.5t103 -20.5q36 0 72 9.5t67 26.5q41 24 94 24q73 0 127 -54l60 -61q-85 -91 -193 -139.5t-227 -48.5q-125 0 -239 56t-189 153q-15 29 -19 45q-2 -12 -8 -25.5t-12 -19.5q-75 -98 -188 -154t-238 -56q-107 0 -206 41.5t-175 117.5
t-117.5 175t-41.5 206q0 108 41.5 207zM1778 654q-13 31 -36.5 62t-52.5 55q-79 70 -179 70q-111 0 -193 -79q-30 -29 -52.5 -64.5t-32.5 -68.5q13 13 25.5 19t29.5 6h491zM353.5 417q21.5 -51 60.5 -89q40 -39 91 -60.5t106 -21.5q53 0 102.5 20t88.5 56t61.5 84t25.5 101
v9q-1 1 -1 8q0 8 1 9v8q-3 53 -25.5 101t-61.5 85q-39 36 -88.5 56t-102.5 20q-56 0 -107 -21.5t-90 -60.5t-60.5 -90t-21.5 -107t21.5 -107z" />
    <glyph glyph-name="Racute" unicode="&#x154;" horiz-adv-x="1352" 
d="M455 0h-262v1433h538q99 0 184.5 -36.5t148.5 -105.5q60 -66 93 -148t33 -168q0 -129 -69 -239t-189 -170l322 -436l97 -130h-205q-45 0 -107 38q-71 47 -127 126l-261 352h-196v-516zM739 779q76 0 133 59q26 27 40.5 62.5t14.5 73.5t-14.5 74t-40.5 63q-57 59 -133 59
h-284v-391h284zM752 1600q-42 -56 -142 -56h-132l25 43l82 141l27 43l12 18q42 55 141 55h182z" />
    <glyph glyph-name="racute" unicode="&#x155;" horiz-adv-x="852" 
d="M344 1050l12 -19q11 -21 13 -40l1 -24v-21q46 54 115 86t142 32q74 0 186 -41l-9 -54q-8 -44 -14 -66q-4 -20 -14 -36q-26 -41 -76 -57q-37 -8 -51 -8q-6 0 -7 1h-17q-73 0 -137.5 -32.5t-89.5 -81.5q-13 -33 -14 -72v-617h-262v1050h222zM417 1217q-42 -56 -142 -56
h-132l115 202l28 48l13 20q42 55 141 55h182z" />
    <glyph glyph-name="Rcommaaccent" unicode="&#x156;" horiz-adv-x="1352" 
d="M455 0h-262v1433h538q99 0 184.5 -36.5t148.5 -105.5q60 -66 93 -148t33 -168q0 -129 -69 -239t-189 -170l322 -436l97 -130h-205q-45 0 -107 38q-71 47 -127 126l-261 352h-196v-516zM739 779q76 0 133 59q26 27 40.5 62.5t14.5 73.5t-14.5 74t-40.5 63q-57 59 -133 59
h-284v-391h284zM593 -113h114q44 0 67.5 -24t23.5 -66q0 -8 1 -9l-2 -10l-19 -125q-6 -38 -34.5 -62.5t-68.5 -24.5h-82v321z" />
    <glyph glyph-name="rcommaaccent" unicode="&#x157;" horiz-adv-x="852" 
d="M344 1050l12 -19q11 -21 13 -40l1 -24v-21q46 54 115 86t142 32q74 0 186 -41l-9 -54q-8 -44 -14 -66q-4 -20 -14 -36q-26 -41 -76 -57q-37 -8 -51 -8q-6 0 -7 1h-17q-73 0 -137.5 -32.5t-89.5 -81.5q-13 -33 -14 -72v-617h-262v1050h222zM172 -115h114q44 0 67.5 -24
t23.5 -66q0 -8 1 -9l-2 -10l-19 -125q-6 -38 -34.5 -62.5t-68.5 -24.5h-82v321z" />
    <glyph glyph-name="Rcaron" unicode="&#x158;" horiz-adv-x="1352" 
d="M455 0h-262v1433h538q99 0 184.5 -36.5t148.5 -105.5q60 -66 93 -148t33 -168q0 -129 -69 -239t-189 -170l322 -436l97 -130h-205q-45 0 -107 38q-71 47 -127 126l-261 352h-196v-516zM739 779q76 0 133 59q26 27 40.5 62.5t14.5 73.5t-14.5 74t-40.5 63q-57 59 -133 59
h-284v-391h284zM436 1871q43 0 65.5 -4t42.5 -16q40 -24 79 -76l32 -42q5 -5 11 -17q4 -9 9 -14l16 22q38 50 59 75t38 39q22 18 51 25.5t76 7.5h101q-125 -182 -182 -254q-40 -57 -140 -57h-36q-101 0 -141 57l-12 16q-21 27 -34 47l-12 19l-5 6l-26 35l-93 131h101z" />
    <glyph glyph-name="rcaron" unicode="&#x159;" horiz-adv-x="852" 
d="M344 1050l12 -19q11 -21 13 -40l1 -24v-21q46 54 115 86t142 32q74 0 186 -41l-9 -54q-8 -44 -14 -66q-4 -20 -14 -36q-26 -41 -76 -57q-37 -8 -51 -8q-6 0 -7 1h-17q-73 0 -137.5 -32.5t-89.5 -81.5q-13 -33 -14 -72v-617h-262v1050h222zM244 1471q43 0 65.5 -4
t42.5 -16q40 -24 79 -76l32 -42q5 -5 11 -17q4 -9 9 -14l16 22q38 50 59 75t38 39q22 18 51 25.5t76 7.5h101q-125 -182 -182 -254q-40 -57 -140 -57h-36q-101 0 -141 57l-12 16q-21 27 -34 47l-12 19l-5 6l-26 35l-93 131h101z" />
    <glyph glyph-name="Sacute" unicode="&#x15a;" horiz-adv-x="1118" 
d="M446 1151q-27 -17 -41.5 -41.5t-14.5 -51.5q0 -36 15 -60.5t47 -43.5q36 -22 159 -63l39 -13l47 -18q177 -63 263 -166t86 -252q0 -96 -40 -181t-115 -148q-73 -60 -165.5 -93.5t-190.5 -33.5q-104 0 -195.5 36.5t-163.5 105.5q-77 71 -117 171l39 22q38 23 77 33
q38 5 44 5q27 0 61 -9.5t64 -25.5q63 -43 103.5 -59.5t87.5 -16.5q42 0 85 13t79 37q41 28 62.5 64.5t21.5 79.5q0 40 -20 70.5t-61 55.5q-37 21 -83 37q-153 53 -218.5 83t-126.5 76q-75 54 -111 126.5t-36 168.5q0 87 36 161t103 126q60 49 140.5 75.5t166.5 26.5
q103 0 212 -61.5t194 -166.5l-51 -40q-29 -26 -69 -41t-77 -15q-39 0 -93 24l-77 31q-35 5 -39 5q-76 0 -127 -33zM742 1600q-42 -56 -142 -56h-132l25 43l82 141l27 43l12 18q42 55 141 55h182z" />
    <glyph glyph-name="sacute" unicode="&#x15b;" horiz-adv-x="883" 
d="M144 279q46 24 92 25q23 0 45.5 -9.5t50.5 -30.5q53 -38 99 -38q30 0 58 13t46 37q17 23 17 52q0 20 -6.5 34.5t-22.5 26.5q-27 20 -115 51q-160 52 -232 127.5t-72 193.5q0 61 28 117t79 99q48 41 109 64t124 23q109 0 218 -78q45 -34 67 -59l30 -35l-60 -60
q-30 -23 -54 -33t-50 -10q-24 0 -49 13l-14 7q-25 10 -42 14.5t-37 4.5t-42.5 -11.5t-37.5 -29.5q-16 -16 -16 -34q0 -34 26 -54t94 -39q87 -24 140 -47t91 -54q99 -79 99 -224q0 -69 -27 -133t-77 -112q-52 -50 -121.5 -77t-148.5 -27q-116 0 -214 66t-158 184zM616 1217
q-42 -56 -142 -56h-132l115 202l28 48l13 20q42 55 141 55h182z" />
    <glyph glyph-name="Scircumflex" unicode="&#x15c;" horiz-adv-x="1118" 
d="M446 1151q-27 -17 -41.5 -41.5t-14.5 -51.5q0 -36 15 -60.5t47 -43.5q36 -22 159 -63l39 -13l47 -18q177 -63 263 -166t86 -252q0 -96 -40 -181t-115 -148q-73 -60 -165.5 -93.5t-190.5 -33.5q-104 0 -195.5 36.5t-163.5 105.5q-77 71 -117 171l39 22q38 23 77 33
q38 5 44 5q27 0 61 -9.5t64 -25.5q63 -43 103.5 -59.5t87.5 -16.5q42 0 85 13t79 37q41 28 62.5 64.5t21.5 79.5q0 40 -20 70.5t-61 55.5q-37 21 -83 37q-153 53 -218.5 83t-126.5 76q-75 54 -111 126.5t-36 168.5q0 87 36 161t103 126q60 49 140.5 75.5t166.5 26.5
q103 0 212 -61.5t194 -166.5l-51 -40q-29 -26 -69 -41t-77 -15q-39 0 -93 24l-77 31q-35 5 -39 5q-76 0 -127 -33zM580 1607q-8 8 -12 17q-5 9 -9 15l-9 -15q-5 -9 -12 -16l-15 -16l-30 -33q-57 -69 -120 -75q-17 -4 -70 -4h-85l182 250q39 56 141 56h37q98 0 139 -56
l183 -250h-86q-49 0 -74.5 4t-45.5 15q-41 22 -81 71z" />
    <glyph glyph-name="scircumflex" unicode="&#x15d;" horiz-adv-x="883" 
d="M144 279q46 24 92 25q23 0 45.5 -9.5t50.5 -30.5q53 -38 99 -38q30 0 58 13t46 37q17 23 17 52q0 20 -6.5 34.5t-22.5 26.5q-27 20 -115 51q-160 52 -232 127.5t-72 193.5q0 61 28 117t79 99q48 41 109 64t124 23q109 0 218 -78q45 -34 67 -59l30 -35l-60 -60
q-30 -23 -54 -33t-50 -10q-24 0 -49 13l-14 7q-25 10 -42 14.5t-37 4.5t-42.5 -11.5t-37.5 -29.5q-16 -16 -16 -34q0 -34 26 -54t94 -39q87 -24 140 -47t91 -54q99 -79 99 -224q0 -69 -27 -133t-77 -112q-52 -50 -121.5 -77t-148.5 -27q-116 0 -214 66t-158 184zM462 1298
q-8 8 -12 17l-9 14l-10 -14q-6 -12 -11 -17l-15 -19l-30 -36q-27 -35 -49 -52t-50 -23q-24 -7 -91 -7h-85q144 204 179 249q42 62 144 62h37q93 0 143 -62q35 -45 179 -249h-86l-73 2q-45 4 -94 53q-19 19 -36 42z" />
    <glyph glyph-name="Scedilla" unicode="&#x15e;" horiz-adv-x="1118" 
d="M1046 442q0 -96 -40 -181t-115 -148q-54 -47 -124 -78t-146 -42l-1 -60q40 -5 74.5 -19.5t59.5 -35.5q25 -22 39.5 -49.5t14.5 -56.5q0 -45 -29.5 -82.5t-82.5 -59.5q-57 -23 -122 -23q-46 0 -96 24q-16 7 -42 25v108q47 -24 90 -34q26 -6 53 -6t46.5 11.5t19.5 26.5
q0 21 -20.5 34.5t-50.5 13.5h-11q-1 -1 -21 -1q-35 0 -49 14.5t-14 52.5v113q-88 8 -165 43.5t-138 95.5q-77 71 -117 171l39 22q38 23 77 33q38 5 44 5q27 0 61 -9.5t64 -25.5q63 -43 103.5 -59.5t87.5 -16.5q42 0 85 13t79 37q41 28 62.5 64.5t21.5 79.5q0 40 -20 70.5
t-61 55.5q-37 21 -83 37q-153 53 -218.5 83t-126.5 76q-75 54 -111 126.5t-36 168.5q0 87 36 161t103 126q60 49 140.5 75.5t166.5 26.5q103 0 212 -61.5t194 -166.5l-51 -40q-29 -26 -69 -41t-77 -15q-39 0 -93 24l-77 31q-35 5 -39 5q-76 0 -127 -33q-27 -17 -41.5 -41.5
t-14.5 -51.5q0 -36 15 -60.5t47 -43.5q36 -22 159 -63l39 -13l47 -18q171 -62 255 -158q94 -106 94 -260z" />
    <glyph glyph-name="scedilla" unicode="&#x15f;" horiz-adv-x="883" 
d="M807 335q0 -69 -27 -133t-77 -112q-40 -39 -93.5 -65t-115.5 -35l-1 -57q40 -5 74.5 -19.5t59.5 -35.5q25 -22 39.5 -49.5t14.5 -56.5q0 -45 -29.5 -82.5t-82.5 -59.5q-57 -23 -122 -23q-46 0 -96 24q-16 7 -42 25v108q47 -24 90 -34q26 -6 53 -6t46.5 11.5t19.5 26.5
q0 21 -20.5 34.5t-50.5 13.5h-11q-1 -1 -21 -1q-35 0 -49 14.5t-14 52.5v119q-90 21 -165.5 83t-125.5 158l83 43q46 24 92 25q23 0 45.5 -9.5t50.5 -30.5q53 -38 99 -38q30 0 58 13t46 37q17 23 17 52q0 20 -6.5 34.5t-22.5 26.5q-27 20 -115 51q-160 52 -232 127.5
t-72 193.5q0 61 28 117t79 99q48 41 109 64t124 23q109 0 218 -78q45 -34 67 -59l30 -35l-60 -60q-30 -23 -54 -33t-50 -10q-24 0 -49 13l-14 7q-25 10 -42 14.5t-37 4.5t-42.5 -11.5t-37.5 -29.5q-16 -16 -16 -34q0 -34 26 -54t94 -39q87 -24 140 -47t91 -54
q99 -79 99 -224z" />
    <glyph glyph-name="Scaron" unicode="&#x160;" horiz-adv-x="1118" 
d="M446 1151q-27 -17 -41.5 -41.5t-14.5 -51.5q0 -36 15 -60.5t47 -43.5q36 -22 159 -63l39 -13l47 -18q177 -63 263 -166t86 -252q0 -96 -40 -181t-115 -148q-73 -60 -165.5 -93.5t-190.5 -33.5q-104 0 -195.5 36.5t-163.5 105.5q-77 71 -117 171l39 22q38 23 77 33
q38 5 44 5q27 0 61 -9.5t64 -25.5q63 -43 103.5 -59.5t87.5 -16.5q42 0 85 13t79 37q41 28 62.5 64.5t21.5 79.5q0 40 -20 70.5t-61 55.5q-37 21 -83 37q-153 53 -218.5 83t-126.5 76q-75 54 -111 126.5t-36 168.5q0 87 36 161t103 126q60 49 140.5 75.5t166.5 26.5
q103 0 212 -61.5t194 -166.5l-51 -40q-29 -26 -69 -41t-77 -15q-39 0 -93 24l-77 31q-35 5 -39 5q-76 0 -127 -33zM319 1871q43 0 65.5 -4t42.5 -16q40 -24 79 -76l32 -42q5 -5 11 -17q4 -9 9 -14l16 22q38 50 59 75t38 39q22 18 51 25.5t76 7.5h101q-125 -182 -182 -254
q-40 -57 -140 -57h-36q-101 0 -141 57l-12 16q-21 27 -34 47l-12 19l-5 6l-26 35l-93 131h101z" />
    <glyph glyph-name="scaron" unicode="&#x161;" horiz-adv-x="883" 
d="M144 279q46 24 92 25q23 0 45.5 -9.5t50.5 -30.5q53 -38 99 -38q30 0 58 13t46 37q17 23 17 52q0 20 -6.5 34.5t-22.5 26.5q-27 20 -115 51q-160 52 -232 127.5t-72 193.5q0 61 28 117t79 99q48 41 109 64t124 23q109 0 218 -78q45 -34 67 -59l30 -35l-60 -60
q-30 -23 -54 -33t-50 -10q-24 0 -49 13l-14 7q-25 10 -42 14.5t-37 4.5t-42.5 -11.5t-37.5 -29.5q-16 -16 -16 -34q0 -34 26 -54t94 -39q87 -24 140 -47t91 -54q99 -79 99 -224q0 -69 -27 -133t-77 -112q-52 -50 -121.5 -77t-148.5 -27q-116 0 -214 66t-158 184zM202 1471
q43 0 65.5 -4t42.5 -16q40 -24 79 -76l32 -42q5 -5 11 -17q4 -9 9 -14l16 22q38 50 59 75t38 39q22 18 51 25.5t76 7.5h101q-125 -182 -182 -254q-40 -57 -140 -57h-36q-101 0 -141 57l-12 16q-21 27 -34 47l-12 19l-5 6l-26 35l-93 131h101z" />
    <glyph glyph-name="uni0162" unicode="&#x162;" horiz-adv-x="1166" 
d="M36 1181v253h1106v-253h-421v-1181h-263v1181h-422zM480 -122h114q44 0 67.5 -24t23.5 -66q0 -8 1 -9l-2 -10l-19 -125q-6 -38 -34.5 -62.5t-68.5 -24.5h-82v321z" />
    <glyph glyph-name="uni0163" unicode="&#x163;" horiz-adv-x="770" 
d="M453 801v-494q0 -30 14.5 -49t38.5 -19l36 5q9 4 31 4q68 0 123 -54q13 -13 39 -47l27 -39q-43 -45 -134 -85q-39 -17 -78 -27t-68 -10q-67 0 -121 21.5t-92 62.5q-38 39 -58.5 94t-20.5 119v518h-163v166q0 41 26 61.5t75 20.5h62v207q0 58 32 117q11 23 32 46h199v-369
h270v-249h-270zM322 -146h114q44 0 67.5 -24t23.5 -66q0 -8 1 -9l-2 -10l-19 -125q-6 -38 -34.5 -62.5t-68.5 -24.5h-82v321z" />
    <glyph glyph-name="Tcaron" unicode="&#x164;" horiz-adv-x="1166" 
d="M36 1181v253h1106v-253h-421v-1181h-263v1181h-422zM343 1871q43 0 65.5 -4t42.5 -16q40 -24 79 -76l32 -42q5 -5 11 -17q4 -9 9 -14l16 22q38 50 59 75t38 39q22 18 51 25.5t76 7.5h101q-125 -182 -182 -254q-40 -57 -140 -57h-36q-101 0 -141 57l-12 16q-21 27 -34 47
l-12 19l-5 6l-26 35l-93 131h101z" />
    <glyph glyph-name="tcaron" unicode="&#x165;" horiz-adv-x="770" 
d="M453 801v-494q0 -30 14.5 -49t38.5 -19l36 5q9 4 31 4q68 0 123 -54q13 -13 39 -47l27 -39q-43 -45 -134 -85q-39 -17 -78 -27t-68 -10q-67 0 -121 21.5t-92 62.5q-38 39 -58.5 94t-20.5 119v518h-163v166q0 41 26 61.5t75 20.5h62v207q0 58 32 117q11 23 32 46h199v-369
h270v-249h-270zM758 1462h114q44 0 67.5 -24t23.5 -66q0 -8 1 -9l-2 -10l-19 -125q-6 -38 -34.5 -62.5t-68.5 -24.5h-82v321z" />
    <glyph glyph-name="Tbar" unicode="&#x166;" horiz-adv-x="1166" 
d="M721 1181v-319h156v-220h-156v-642h-263v642h-170v220h170v319h-422v253h1106v-253h-421z" />
    <glyph glyph-name="tbar" unicode="&#x167;" horiz-adv-x="770" 
d="M762 108q-43 -45 -134 -85q-39 -17 -78 -27t-68 -10q-67 0 -121 21.5t-92 62.5q-38 39 -58.5 94t-20.5 119v134h-118v220h118v164h-163v166q0 41 26 61.5t75 20.5h62v207q0 58 32 117q11 23 32 46h199v-369h270v-249h-270v-164h208v-220h-208v-110q0 -30 14.5 -49
t38.5 -19l36 5q9 4 31 4q68 0 123 -54q13 -13 39 -47z" />
    <glyph glyph-name="Utilde" unicode="&#x168;" horiz-adv-x="1474" 
d="M418 568q0 -65 25 -123t71 -103q45 -45 104.5 -70t122.5 -25q65 0 124 25t104 70q46 45 71 104t25 122v865h263v-865q0 -156 -77.5 -290t-212.5 -213q-140 -80 -297 -80q-117 0 -224 44.5t-189 126.5t-127.5 190t-45.5 222v865h263v-865zM796 1531q-28 9 -65 30l-28 15
q-44 23 -71 23q-39 0 -39 -71h-176q0 123 51 192.5t144 69.5q26 0 49.5 -8t66.5 -30q46 -25 66 -32q16 -6 32 -6q25 0 35.5 14.5t10.5 47.5h184q-6 -71 -16 -113t-28 -71q-22 -33 -60.5 -50.5t-98.5 -19.5q-29 0 -57 9z" />
    <glyph glyph-name="utilde" unicode="&#x169;" horiz-adv-x="1198" 
d="M1055 1050v-1050h-208q-15 15 -25.5 46t-10.5 62v18v13q-18 -42 -63 -77t-109 -56q-61 -21 -126 -21q-89 0 -163 33t-126 96t-79.5 151t-27.5 193v592h263v-585q0 -224 152 -224q51 0 98 12t83 34q79 48 79 115v648h263zM655.5 1209q-27.5 9 -64.5 30q-44 25 -68 33
l-32 5q-38 0 -38 -76h-176q0 126 50.5 196.5t143.5 70.5q26 0 49.5 -8t66.5 -30q46 -25 66 -32q16 -6 32 -6q46 0 46 67h185q-6 -74 -16 -116.5t-29 -71.5q-24 -36 -62 -53.5t-97 -17.5q-29 0 -56.5 9z" />
    <glyph glyph-name="Umacron" unicode="&#x16a;" horiz-adv-x="1474" 
d="M418 568q0 -65 25 -123t71 -103q45 -45 104.5 -70t122.5 -25q65 0 124 25t104 70q46 45 71 104t25 122v865h263v-865q0 -156 -77.5 -290t-212.5 -213q-140 -80 -297 -80q-117 0 -224 44.5t-189 126.5t-127.5 190t-45.5 222v865h263v-865zM442 1743h589v-220h-589v220z
" />
    <glyph glyph-name="umacron" unicode="&#x16b;" horiz-adv-x="1198" 
d="M1055 1050v-1050h-208q-15 15 -25.5 46t-10.5 62v18v13q-18 -42 -63 -77t-109 -56q-61 -21 -126 -21q-89 0 -163 33t-126 96t-79.5 151t-27.5 193v592h263v-585q0 -224 152 -224q51 0 98 12t83 34q79 48 79 115v648h263zM302 1420h589v-220h-589v220z" />
    <glyph glyph-name="Ubreve" unicode="&#x16c;" horiz-adv-x="1474" 
d="M418 568q0 -65 25 -123t71 -103q45 -45 104.5 -70t122.5 -25q65 0 124 25t104 70q46 45 71 104t25 122v865h263v-865q0 -156 -77.5 -290t-212.5 -213q-140 -80 -297 -80q-117 0 -224 44.5t-189 126.5t-127.5 190t-45.5 222v865h263v-865zM1051 1803q0 -130 -97 -221
q-45 -41 -101.5 -63.5t-116.5 -22.5t-116 22.5t-100 63.5q-97 91 -97 221h66q37 0 69 -14.5t50 -40.5q44 -59 128 -59q43 0 73.5 14t54.5 45q40 55 121 55h66z" />
    <glyph glyph-name="ubreve" unicode="&#x16d;" horiz-adv-x="1198" 
d="M1055 1050v-1050h-208q-15 15 -25.5 46t-10.5 62v18v13q-18 -42 -63 -77t-109 -56q-61 -21 -126 -21q-89 0 -163 33t-126 96t-79.5 151t-27.5 193v592h263v-585q0 -224 152 -224q51 0 98 12t83 34q79 48 79 115v648h263zM910 1467q0 -65 -25.5 -123t-71.5 -101
q-46 -42 -102 -65.5t-115 -23.5t-115 23.5t-102 65.5q-46 43 -71.5 101t-25.5 123h66q38 0 69.5 -14.5t50.5 -41.5q17 -24 55.5 -41.5t72.5 -17.5q37 0 71.5 16t55.5 43q42 56 121 56h66z" />
    <glyph glyph-name="Uring" unicode="&#x16e;" horiz-adv-x="1474" 
d="M418 568q0 -65 25 -123t71 -103q45 -45 104.5 -70t122.5 -25q65 0 124 25t104 70q46 45 71 104t25 122v865h263v-865q0 -156 -77.5 -290t-212.5 -213q-140 -80 -297 -80q-117 0 -224 44.5t-189 126.5t-127.5 190t-45.5 222v865h263v-865zM540 1822.5q16 38.5 46 68.5
q62 62 151 62q88 0 150 -62q30 -30 46 -68.5t16 -80.5q0 -57 -28 -105.5t-77 -77.5q-50 -29 -107 -29t-106 28.5t-78 77.5q-29 50 -29 106q0 42 16 80.5zM693 1698q18 -18 44 -18t44 18t18 44t-18 44t-44 18t-44 -18t-18 -44t18 -44z" />
    <glyph glyph-name="uring" unicode="&#x16f;" horiz-adv-x="1198" 
d="M1055 1050v-1050h-208q-15 15 -25.5 46t-10.5 62v18v13q-18 -42 -63 -77t-109 -56q-61 -21 -126 -21q-89 0 -163 33t-126 96t-79.5 151t-27.5 193v592h263v-585q0 -224 152 -224q51 0 98 12t83 34q79 48 79 115v648h263zM400 1422.5q16 38.5 46 68.5q62 62 151 62
q88 0 150 -62q30 -30 46 -68.5t16 -80.5q0 -57 -28 -105.5t-77 -77.5q-50 -29 -107 -29t-106 28.5t-78 77.5q-29 50 -29 106q0 42 16 80.5zM553 1298q18 -18 44 -18t44 18t18 44t-18 44t-44 18t-44 -18t-18 -44t18 -44z" />
    <glyph glyph-name="Uhungarumlaut" unicode="&#x170;" horiz-adv-x="1474" 
d="M418 568q0 -65 25 -123t71 -103q45 -45 104.5 -70t122.5 -25q65 0 124 25t104 70q46 45 71 104t25 122v865h263v-865q0 -156 -77.5 -290t-212.5 -213q-140 -80 -297 -80q-117 0 -224 44.5t-189 126.5t-127.5 190t-45.5 222v865h263v-865zM845 1617q-24 -32 -64.5 -44
t-124.5 -12h-74l115 202l28 48l13 20q24 32 67 43.5t136 11.5h109zM1181 1611l-1 1q-24 -30 -62.5 -40.5t-122.5 -10.5h-87l193 273q22 31 74 45q20 5 44 6q5 1 78 1h122z" />
    <glyph glyph-name="uhungarumlaut" unicode="&#x171;" horiz-adv-x="1198" 
d="M1055 1050v-1050h-208q-15 15 -25.5 46t-10.5 62v18v13q-18 -42 -63 -77t-109 -56q-61 -21 -126 -21q-89 0 -163 33t-126 96t-79.5 151t-27.5 193v592h263v-585q0 -224 152 -224q51 0 98 12t83 34q79 48 79 115v648h263zM605 1217q-24 -32 -64.5 -44t-124.5 -12h-74
l115 202l28 48l13 20q24 32 67 43.5t136 11.5h109zM941 1211l-1 1q-24 -30 -62.5 -40.5t-122.5 -10.5h-87l193 273q22 31 74 45q20 5 44 6q5 1 78 1h122z" />
    <glyph glyph-name="Uogonek" unicode="&#x172;" horiz-adv-x="1474" 
d="M1328 1433v-865q0 -156 -77.5 -290t-212.5 -213q-90 -52 -197 -72q-68 -39 -98.5 -75t-30.5 -75q0 -30 19.5 -46t55.5 -16q18 2 40 6q21 3 40 3q80 0 104 -52l24 -52q-49 -34 -113.5 -54.5t-123.5 -20.5q-115 0 -181.5 49t-66.5 132q0 99 153 198q-95 13 -180.5 55.5
t-154.5 110.5q-82 82 -127.5 190t-45.5 222v865h263v-865q0 -65 25 -123t71 -103q45 -45 104.5 -70t122.5 -25q65 0 124 25t104 70q46 45 71 104t25 122v865h263z" />
    <glyph glyph-name="uogonek" unicode="&#x173;" horiz-adv-x="1193" 
d="M1168 -311q-49 -34 -113 -54.5t-124 -20.5q-115 0 -181.5 49t-66.5 132q0 50 42.5 103t121.5 102q-15 16 -25.5 47t-10.5 61v18v13q-18 -42 -63 -77t-109 -56q-61 -21 -126 -21q-89 0 -163 33t-126 96t-79.5 151t-27.5 193v592h263v-585q0 -224 152 -224q51 0 98 12
t83 34q79 48 79 115v648h263v-1050h-35q-70 -41 -102.5 -78t-32.5 -76q0 -30 19.5 -46t55.5 -16q18 2 40 6q21 3 40 3q80 0 104 -52z" />
    <glyph glyph-name="Wcircumflex" unicode="&#x174;" horiz-adv-x="2074" 
d="M603 0l-625 1433h162q57 0 104 -30.5t68 -79.5l100 -228l31 -71l36 -82q5 -15 12 -26l13 -32l198 -452q17 -47 20 -92q1 23 9 49q20 65 38 107q20 42 58 138q20 44 63 150l139 342l302 -694q20 -45 21 -91q1 21 6.5 46t14.5 45l390 891q20 48 67.5 79t103.5 31h162
l-625 -1433h-238l-207 463l-185 -463h-238zM1143 1638q-8 8 -12 17q-5 9 -9 15l-9 -15q-5 -9 -12 -16l-15 -16l-30 -33q-57 -69 -120 -75q-17 -4 -70 -4h-85l182 250q39 56 141 56h37q98 0 139 -56l183 -250h-86q-49 0 -74.5 4t-45.5 15q-41 22 -81 71z" />
    <glyph glyph-name="wcircumflex" unicode="&#x175;" horiz-adv-x="1721" 
d="M136 1051q51 0 101 -32.5t67 -75.5l213 -506q25 -60 34 -92q7 -25 8 -45q2 30 12.5 64t36.5 90l11 24l271 573l285 -614q38 -81 42 -141q2 50 18 87l69 165q27 57 49 115l117 279q19 48 65.5 78t103.5 30h161l-441 -1050h-284l-193 453l-181 -453h-284l-442 1051h161z
M950 1298q-8 8 -12 17l-9 14l-10 -14q-6 -12 -11 -17l-15 -19l-30 -36q-27 -35 -49 -52t-50 -23q-24 -7 -91 -7h-85q144 204 179 249q42 62 144 62h37q93 0 143 -62q35 -45 179 -249h-86l-73 2q-45 4 -94 53q-19 19 -36 42z" />
    <glyph glyph-name="Ycircumflex" unicode="&#x176;" horiz-adv-x="1420" 
d="M843 0h-263v607q0 27 -10 49t-41 65l-526 712h201q65 0 116 -26t84 -75l283 -383q10 -14 16.5 -31.5t7.5 -29.5q0 10 7 28.5t18 32.5l282 382q66 102 200 102h203l-527 -713q-30 -39 -40.5 -62.5t-10.5 -50.5v-607zM731 1607q-8 8 -12 17q-5 9 -9 15l-9 -15
q-5 -9 -12 -16l-15 -16l-30 -33q-57 -69 -120 -75q-17 -4 -70 -4h-85l182 250q39 56 141 56h37q98 0 139 -56l183 -250h-86q-49 0 -74.5 4t-45.5 15q-41 22 -81 71z" />
    <glyph glyph-name="ycircumflex" unicode="&#x177;" horiz-adv-x="1179" 
d="M28 1050h164q56 0 103.5 -30.5t65.5 -79.5l180 -430q30 -67 30 -121q0 -23 -6 -46l143 346l95 226l12 27q22 50 67 79.5t101 28.5h165l-578 -1326q-18 -50 -65.5 -81.5t-104.5 -31.5h-165l105 241l104 241zM637 1298q-8 8 -12 17l-9 14l-10 -14q-6 -12 -11 -17l-15 -19
l-30 -36q-27 -35 -49 -52t-50 -23q-24 -7 -91 -7h-85q144 204 179 249q42 62 144 62h37q93 0 143 -62q35 -45 179 -249h-86l-73 2q-45 4 -94 53q-19 19 -36 42z" />
    <glyph glyph-name="Ydieresis" unicode="&#x178;" horiz-adv-x="1420" 
d="M843 0h-263v607q0 27 -10 49t-41 65l-526 712h201q65 0 116 -26t84 -75l283 -383q10 -14 16.5 -31.5t7.5 -29.5q0 10 7 28.5t18 32.5l282 382q66 102 200 102h203l-527 -713q-30 -39 -40.5 -62.5t-10.5 -50.5v-607zM405 1719.5q10 24.5 28 42.5q39 39 94 39
q27 0 51.5 -10.5t42.5 -28.5t28.5 -42.5t10.5 -51.5q0 -55 -39 -94q-18 -18 -42.5 -28t-51.5 -10q-56 0 -94 38t-38 94q0 27 10 51.5zM770.5 1719.5q10.5 24.5 28.5 42.5t42 28.5t51 10.5q55 0 94 -39q18 -18 28.5 -42.5t10.5 -51.5q0 -36 -17.5 -66.5t-47.5 -47.5
q-31 -18 -68 -18q-27 0 -51 10t-42 28q-39 39 -39 94q0 27 10.5 51.5z" />
    <glyph glyph-name="Zacute" unicode="&#x179;" horiz-adv-x="1273" 
d="M441 225q27 27 61 27h683v-252h-1098v78q0 74 27 135q12 25 28 49.5t45 62.5l633 856h-696v253h1068v-116q0 -81 -42 -134zM825 1600q-42 -56 -142 -56h-132l25 43l82 141l27 43l12 18q42 55 141 55h182z" />
    <glyph glyph-name="zacute" unicode="&#x17a;" horiz-adv-x="970" 
d="M423 230q31 22 62 22h410v-252h-825v112q0 82 51 143q127 168 207 277q113 153 198 266h-444v252h814v-112q0 -75 -42 -132zM652 1217q-42 -56 -142 -56h-132l115 202l28 48l13 20q42 55 141 55h182z" />
    <glyph glyph-name="Zdotaccent" unicode="&#x17b;" horiz-adv-x="1273" 
d="M441 225q27 27 61 27h683v-252h-1098v78q0 74 27 135q12 25 28 49.5t45 62.5l633 856h-696v253h1068v-116q0 -81 -42 -134zM547 1744.5q12 28.5 33 49.5q47 44 109 44q32 0 60.5 -11.5t49.5 -32.5t33 -49.5t12 -58.5q0 -63 -45 -108q-21 -21 -49.5 -33t-60.5 -12
q-42 0 -77.5 20.5t-55.5 56.5q-21 35 -21 76q0 30 12 58.5z" />
    <glyph glyph-name="zdotaccent" unicode="&#x17c;" horiz-adv-x="970" 
d="M423 230q31 22 62 22h410v-252h-825v112q0 82 51 143q127 168 207 277q113 153 198 266h-444v252h814v-112q0 -75 -42 -132zM372 1382q21 35 57 56q35 20 76 20q32 0 60.5 -11.5t49.5 -32.5q45 -45 45 -109q0 -63 -45 -107q-21 -21 -49.5 -33t-60.5 -12q-42 0 -77.5 20.5
t-55.5 55.5q-21 35 -21 76q0 42 21 77z" />
    <glyph glyph-name="Zcaron" unicode="&#x17d;" horiz-adv-x="1273" 
d="M441 225q27 27 61 27h683v-252h-1098v78q0 74 27 135q12 25 28 49.5t45 62.5l633 856h-696v253h1068v-116q0 -81 -42 -134zM440 1871q43 0 65.5 -4t42.5 -16q40 -24 79 -76l32 -42q5 -5 11 -17q4 -9 9 -14l16 22q38 50 59 75t38 39q22 18 51 25.5t76 7.5h101
q-125 -182 -182 -254q-40 -57 -140 -57h-36q-101 0 -141 57l-12 16q-21 27 -34 47l-12 19l-5 6l-26 35l-93 131h101z" />
    <glyph glyph-name="zcaron" unicode="&#x17e;" horiz-adv-x="970" 
d="M423 230q31 22 62 22h410v-252h-825v112q0 82 51 143q127 168 207 277q113 153 198 266h-444v252h814v-112q0 -75 -42 -132zM245 1471q43 0 65.5 -4t42.5 -16q40 -24 79 -76l32 -42q5 -5 11 -17q4 -9 9 -14l16 22q38 50 59 75t38 39q22 18 51 25.5t76 7.5h101
q-125 -182 -182 -254q-40 -57 -140 -57h-36q-101 0 -141 57l-12 16q-21 27 -34 47l-12 19l-5 6l-26 35l-93 131h101z" />
    <glyph glyph-name="longs" unicode="&#x17f;" horiz-adv-x="655" 
d="M174 0v753h-163v147q0 55 34 78t115 23h14v141q0 65 20 119.5t58 94.5q81 83 213 83q52 0 145 -35q88 -38 133 -83l-19 -29l-18 -30q-24 -39 -62 -60.5t-86 -21.5q-17 0 -28 4q-15 3 -43 3q-24 0 -38 -18t-14 -47v-1122h-261z" />
    <glyph glyph-name="florin" unicode="&#x192;" horiz-adv-x="720" 
d="M173 788h-162v136q0 53 36 77.5t126 33.5v107q0 64 20.5 118.5t58.5 94.5q40 40 95 62t118 22q28 0 66 -10t78 -27q85 -37 133 -82l-16 -24q-36 -57 -54 -75.5t-50 -30.5q-20 -10 -60 -10l-25 2l-41 2q-31 0 -45.5 -18.5t-14.5 -59.5v-71h252v-247h-252v-789
q0 -64 -7 -105.5t-25 -79.5q-22 -48 -59.5 -82.5t-87.5 -52.5q-44 -19 -112 -19q-27 0 -65 10t-78 27q-90 37 -135 82l33 52h-1q25 40 54 57.5t74 17.5q30 0 43 -7t44 -7q27 0 43 18.5t16 46.5v831z" />
    <glyph glyph-name="AEacute" unicode="&#x1fc;" horiz-adv-x="1904" 
d="M1830 0h-541q-58 0 -102 29.5t-62 82.5l-66 191h-639l-24 -45l-21 -43q-32 -65 -52.5 -99.5t-40.5 -55t-49 -36.5q-43 -24 -95 -24h-175l759 1433h1108v-263h-779l110 -316h544v-263h-456l9 -25l38 -109l50 -146l17 -48h467v-263zM829 998q-6 15 -14 50q-4 12 -4 21
q-1 -13 -5 -22q-4 -21 -20 -48l-226 -433h410zM1039 1600q-42 -56 -142 -56h-132l25 43l82 141l27 43l12 18q42 55 141 55h182z" />
    <glyph glyph-name="aeacute" unicode="&#x1fd;" horiz-adv-x="1852" 
d="M178 871q26 42 65 78q16 16 44 35q122 80 283 80q108 0 195.5 -33.5t132.5 -91.5q3 -3 3 -7q0 -9 -9 -24q91 85 173 119.5t193 34.5q60 0 121.5 -16t118.5 -45q124 -66 197.5 -171.5t73.5 -221.5q0 -47 -22.5 -84t-61.5 -58q-40 -20 -83 -20h-570q-35 0 -35 -19
q0 -1 1 -1v-2q10 -34 32.5 -68t52.5 -60q76 -67 173 -67q72 0 139 36q41 24 93 24q73 0 127 -54l61 -61q-85 -91 -193.5 -139.5t-226.5 -48.5q-76 0 -148 21t-126 57t-81 78q6 -15 6 -28q0 -12 -7 -16q-90 -49 -207.5 -80t-215.5 -31q-81 0 -151.5 23t-121.5 66
q-54 45 -82 106t-28 135q0 177 139.5 264.5t421.5 87.5l76 -6q-11 90 -52 133.5t-114 43.5q-28 0 -51 -6t-57 -22q-31 -17 -51 -22.5t-46 -5.5q-56 0 -111 40zM1520 654q-34 84 -103 135.5t-150 51.5q-116 0 -195 -79q-30 -29 -52 -64.5t-31 -68.5q13 13 25.5 19t29.5 6h476
zM612.5 239.5q76.5 22.5 149.5 61.5q-17 44 -26 73t-14 58l-15 2l-28 3q-33 3 -72 3q-115 0 -184.5 -32t-69.5 -86q0 -46 34 -75.5t90 -29.5q59 0 135.5 22.5zM1141 1217q-42 -56 -142 -56h-132l115 202l28 48l13 20q42 55 141 55h182z" />
    <glyph glyph-name="Oslashacute" unicode="&#x1fe;" horiz-adv-x="1648" 
d="M93.5 910q25.5 94 74.5 176q48 81 115 148t149 115t176 73.5t193 25.5q95 0 186 -24t170 -69l34 50q39 56 77 77q24 12 56 12h171l-185 -252q111 -103 168.5 -236.5t57.5 -288.5q0 -197 -100 -369q-48 -81 -115.5 -148t-148.5 -114q-84 -49 -178.5 -74.5t-192.5 -25.5
q-184 0 -348 89l-81 -111q-24 -32 -59 -49t-77 -18h-150l212 288q-111 105 -170.5 242t-59.5 290q0 99 25.5 193zM368 548.5q32 -81.5 90 -144.5l539 735q-91 46 -196 46q-92 0 -176.5 -35.5t-150.5 -101.5t-102 -152t-36 -179q0 -87 32 -168.5zM980.5 284
q85.5 36 149.5 102q64 64 99 150t35 180q0 173 -115 306l-538 -730q100 -44 190 -44q94 0 179.5 36zM985 1600q-42 -56 -142 -56h-132l25 43l82 141l27 43l12 18q42 55 141 55h182z" />
    <glyph glyph-name="oslashacute" unicode="&#x1ff;" horiz-adv-x="1226" 
d="M647 1217q-42 -56 -142 -56h-132l115 202l28 48l13 20q42 55 141 55h182zM1110.5 732.5q41.5 -99.5 41.5 -207.5t-41 -206.5t-117 -174.5t-175 -117.5t-207 -41.5q-67 0 -103 10l-64 -146q-21 -49 -68 -79t-103 -30h-128l152 347q-32 22 -67 57q-76 76 -117.5 175
t-41.5 206q0 108 41.5 207t117.5 175t174.5 117t206.5 41q37 0 108 -11l60 138q24 51 66.5 80.5t93.5 29.5h140l-149 -341q33 -24 63 -54q75 -75 116.5 -174.5zM351.5 422q19.5 -49 54.5 -86l204 467q-56 0 -106.5 -21.5t-89.5 -60.5t-60.5 -90t-21.5 -107q0 -53 19.5 -102z
M868.5 417q21.5 51 21.5 107q0 105 -70 184l-201 -462q52 1 101 22.5t88 59.5t60.5 89z" />
    <glyph glyph-name="Scommaaccent" unicode="&#x218;" horiz-adv-x="1118" 
d="M446 1151q-27 -17 -41.5 -41.5t-14.5 -51.5q0 -36 15 -60.5t47 -43.5q36 -22 159 -63l39 -13l47 -18q177 -63 263 -166t86 -252q0 -96 -40 -181t-115 -148q-73 -60 -165.5 -93.5t-190.5 -33.5q-104 0 -195.5 36.5t-163.5 105.5q-77 71 -117 171l39 22q38 23 77 33
q38 5 44 5q27 0 61 -9.5t64 -25.5q63 -43 103.5 -59.5t87.5 -16.5q42 0 85 13t79 37q41 28 62.5 64.5t21.5 79.5q0 40 -20 70.5t-61 55.5q-37 21 -83 37q-153 53 -218.5 83t-126.5 76q-75 54 -111 126.5t-36 168.5q0 87 36 161t103 126q60 49 140.5 75.5t166.5 26.5
q103 0 212 -61.5t194 -166.5l-51 -40q-29 -26 -69 -41t-77 -15q-39 0 -93 24l-77 31q-35 5 -39 5q-76 0 -127 -33zM470 -113h114q44 0 67.5 -24t23.5 -66q0 -8 1 -9l-2 -10l-19 -125q-6 -38 -34.5 -62.5t-68.5 -24.5h-82v321z" />
    <glyph glyph-name="scommaaccent" unicode="&#x219;" horiz-adv-x="883" 
d="M144 279q46 24 92 25q23 0 45.5 -9.5t50.5 -30.5q53 -38 99 -38q30 0 58 13t46 37q17 23 17 52q0 20 -6.5 34.5t-22.5 26.5q-27 20 -115 51q-160 52 -232 127.5t-72 193.5q0 61 28 117t79 99q48 41 109 64t124 23q109 0 218 -78q45 -34 67 -59l30 -35l-60 -60
q-30 -23 -54 -33t-50 -10q-24 0 -49 13l-14 7q-25 10 -42 14.5t-37 4.5t-42.5 -11.5t-37.5 -29.5q-16 -16 -16 -34q0 -34 26 -54t94 -39q87 -24 140 -47t91 -54q99 -79 99 -224q0 -69 -27 -133t-77 -112q-52 -50 -121.5 -77t-148.5 -27q-116 0 -214 66t-158 184zM338 -150
h114q44 0 67.5 -24t23.5 -66q0 -8 1 -9l-2 -10l-19 -125q-6 -38 -34.5 -62.5t-68.5 -24.5h-82v321z" />
    <glyph glyph-name="circumflex" unicode="&#x2c6;" horiz-adv-x="714" 
d="M372 1298q-8 8 -12 17l-9 14l-10 -14q-6 -12 -11 -17l-15 -19l-30 -36q-27 -35 -49 -52t-50 -23q-24 -7 -91 -7h-85q144 204 179 249q42 62 144 62h37q93 0 143 -62q35 -45 179 -249h-86l-73 2q-45 4 -94 53q-19 19 -36 42z" />
    <glyph glyph-name="caron" unicode="&#x2c7;" horiz-adv-x="712" 
d="M112 1471q43 0 65.5 -4t42.5 -16q40 -24 79 -76l32 -42q5 -5 11 -17q4 -9 9 -14l16 22q38 50 59 75t38 39q22 18 51 25.5t76 7.5h101q-125 -182 -182 -254q-40 -57 -140 -57h-36q-101 0 -141 57l-12 16q-21 27 -34 47l-12 19l-5 6l-26 35l-93 131h101z" />
    <glyph glyph-name="breve" unicode="&#x2d8;" horiz-adv-x="686" 
d="M656 1467q0 -65 -25.5 -123t-71.5 -101q-46 -42 -102 -65.5t-115 -23.5t-115 23.5t-102 65.5q-46 43 -71.5 101t-25.5 123h66q38 0 69.5 -14.5t50.5 -41.5q17 -24 55.5 -41.5t72.5 -17.5q37 0 71.5 16t55.5 43q42 56 121 56h66z" />
    <glyph glyph-name="dotaccent" unicode="&#x2d9;" horiz-adv-x="640" 
d="M192 1382q21 35 57 56q35 20 76 20q32 0 60.5 -11.5t49.5 -32.5q45 -45 45 -109q0 -63 -45 -107q-21 -21 -49.5 -33t-60.5 -12q-42 0 -77.5 20.5t-55.5 55.5q-21 35 -21 76q0 42 21 77z" />
    <glyph glyph-name="ring" unicode="&#x2da;" horiz-adv-x="668" 
d="M136 1422.5q16 38.5 46 68.5q62 62 151 62q88 0 150 -62q30 -30 46 -68.5t16 -80.5q0 -57 -28 -105.5t-77 -77.5q-50 -29 -107 -29t-106 28.5t-78 77.5q-29 50 -29 106q0 42 16 80.5zM289 1298q18 -18 44 -18t44 18t18 44t-18 44t-44 18t-44 -18t-18 -44t18 -44z" />
    <glyph glyph-name="ogonek" unicode="&#x2db;" horiz-adv-x="682" 
d="M444 -2q-72 -41 -104.5 -78t-32.5 -77q0 -30 19.5 -46t55.5 -16q18 2 40 6q21 3 40 3q80 0 104 -52l24 -52q-49 -34 -113 -54.5t-124 -20.5q-115 0 -181.5 49t-66.5 132q0 108 194 224z" />
    <glyph glyph-name="tilde" unicode="&#x2dc;" horiz-adv-x="614" 
d="M363.5 1209q-27.5 9 -64.5 30q-44 25 -68 33l-32 5q-38 0 -38 -76h-176q0 126 50.5 196.5t143.5 70.5q26 0 49.5 -8t66.5 -30q46 -25 66 -32q16 -6 32 -6q46 0 46 67h185q-6 -74 -16 -116.5t-29 -71.5q-24 -36 -62 -53.5t-97 -17.5q-29 0 -56.5 9z" />
    <glyph glyph-name="hungarumlaut" unicode="&#x2dd;" horiz-adv-x="819" 
d="M357 1217q-24 -32 -64.5 -44t-124.5 -12h-74l115 202l28 48l13 20q24 32 67 43.5t136 11.5h109zM693 1211l-1 1q-24 -30 -62.5 -40.5t-122.5 -10.5h-87l193 273q22 31 74 45q20 5 44 6q5 1 78 1h122z" />
    <glyph glyph-name="pi" unicode="&#x3c0;" horiz-adv-x="1310" 
d="M57 799v252h1089v-252h-178l-9 -66l-5 -33q-24 -159 -33 -259q-7 -46 -7 -121q0 -31 1 -42q1 -15 6 -23q12 -29 42 -29l40 5l34 5q41 0 70.5 -18.5t60.5 -62.5l-10 -63q-49 -49 -108.5 -77.5t-113.5 -28.5q-81 0 -140.5 37.5t-91.5 107.5q-32 72 -32 165q0 128 44 503
h-254v-799h-252v799h-153z" />
    <glyph glyph-name="Wgrave" unicode="&#x1e80;" horiz-adv-x="2074" 
d="M603 0l-625 1433h162q57 0 104 -30.5t68 -79.5l100 -228l31 -71l36 -82q5 -15 12 -26l13 -32l198 -452q17 -47 20 -92q1 23 9 49q20 65 38 107q20 42 58 138q20 44 63 150l139 342l302 -694q20 -45 21 -91q1 21 6.5 46t14.5 45l390 891q20 48 67.5 79t103.5 31h162
l-625 -1433h-238l-207 463l-185 -463h-238zM697 1843h181q101 0 141 -55l13 -18l55 -93l5 -8l9 -16l64 -110h-132q-99 0 -141 57z" />
    <glyph glyph-name="wgrave" unicode="&#x1e81;" horiz-adv-x="1721" 
d="M136 1051q51 0 101 -32.5t67 -75.5l213 -506q25 -60 34 -92q7 -25 8 -45q2 30 12.5 64t36.5 90l11 24l271 573l285 -614q38 -81 42 -141q2 50 18 87l69 165q27 57 49 115l117 279q19 48 65.5 78t103.5 30h161l-441 -1050h-284l-193 453l-181 -453h-284l-442 1051h161z
M508 1485h182q99 0 141 -55l13 -20q35 -56 75 -129l29 -51l39 -70h-132q-99 0 -142 57z" />
    <glyph glyph-name="Wacute" unicode="&#x1e82;" horiz-adv-x="2074" 
d="M603 0l-625 1433h162q57 0 104 -30.5t68 -79.5l100 -228l31 -71l36 -82q5 -15 12 -26l13 -32l198 -452q17 -47 20 -92q1 23 9 49q20 65 38 107q20 42 58 138q20 44 63 150l139 342l302 -694q20 -45 21 -91q1 21 6.5 46t14.5 45l390 891q20 48 67.5 79t103.5 31h162
l-625 -1433h-238l-207 463l-185 -463h-238zM1268 1600q-42 -56 -142 -56h-132l25 43l82 141l27 43l12 18q42 55 141 55h182z" />
    <glyph glyph-name="wacute" unicode="&#x1e83;" horiz-adv-x="1721" 
d="M136 1051q51 0 101 -32.5t67 -75.5l213 -506q25 -60 34 -92q7 -25 8 -45q2 30 12.5 64t36.5 90l11 24l271 573l285 -614q38 -81 42 -141q2 50 18 87l69 165q27 57 49 115l117 279q19 48 65.5 78t103.5 30h161l-441 -1050h-284l-193 453l-181 -453h-284l-442 1051h161z
M981 1217q-42 -56 -142 -56h-132l115 202l28 48l13 20q42 55 141 55h182z" />
    <glyph glyph-name="Wdieresis" unicode="&#x1e84;" horiz-adv-x="2074" 
d="M603 0l-625 1433h162q57 0 104 -30.5t68 -79.5l100 -228l31 -71l36 -82q5 -15 12 -26l13 -32l198 -452q17 -47 20 -92q1 23 9 49q20 65 38 107q20 42 58 138q20 44 63 150l139 342l302 -694q20 -45 21 -91q1 21 6.5 46t14.5 45l390 891q20 48 67.5 79t103.5 31h162
l-625 -1433h-238l-207 463l-185 -463h-238zM732 1719.5q10 24.5 28 42.5q39 39 94 39q27 0 51.5 -10.5t42.5 -28.5t28.5 -42.5t10.5 -51.5q0 -55 -39 -94q-18 -18 -42.5 -28t-51.5 -10q-56 0 -94 38t-38 94q0 27 10 51.5zM1097.5 1719.5q10.5 24.5 28.5 42.5t42 28.5
t51 10.5q55 0 94 -39q18 -18 28.5 -42.5t10.5 -51.5q0 -36 -17.5 -66.5t-47.5 -47.5q-31 -18 -68 -18q-27 0 -51 10t-42 28q-39 39 -39 94q0 27 10.5 51.5z" />
    <glyph glyph-name="wdieresis" unicode="&#x1e85;" horiz-adv-x="1721" 
d="M136 1051q51 0 101 -32.5t67 -75.5l213 -506q25 -60 34 -92q7 -25 8 -45q2 30 12.5 64t36.5 90l11 24l271 573l285 -614q38 -81 42 -141q2 50 18 87l69 165q27 57 49 115l117 279q19 48 65.5 78t103.5 30h161l-441 -1050h-284l-193 453l-181 -453h-284l-442 1051h161z
M613 1354.5q10 24.5 28 42.5q39 39 94 39q27 0 51.5 -10.5t42.5 -28.5t28.5 -42.5t10.5 -51.5q0 -55 -39 -94q-18 -18 -42.5 -28t-51.5 -10q-56 0 -94 38t-38 94q0 27 10 51.5zM978.5 1354.5q10.5 24.5 28.5 42.5t42 28.5t51 10.5q55 0 94 -39q18 -18 28.5 -42.5t10.5 -51.5
q0 -36 -17.5 -66.5t-47.5 -47.5q-31 -18 -68 -18q-27 0 -51 10t-42 28q-39 39 -39 94q0 27 10.5 51.5z" />
    <glyph glyph-name="Ygrave" unicode="&#x1ef2;" horiz-adv-x="1420" 
d="M843 0h-263v607q0 27 -10 49t-41 65l-526 712h201q65 0 116 -26t84 -75l283 -383q10 -14 16.5 -31.5t7.5 -29.5q0 10 7 28.5t18 32.5l282 382q66 102 200 102h203l-527 -713q-30 -39 -40.5 -62.5t-10.5 -50.5v-607zM359 1843h181q101 0 141 -55l13 -18l55 -93l5 -8l9 -16
l64 -110h-132q-99 0 -141 57z" />
    <glyph glyph-name="ygrave" unicode="&#x1ef3;" horiz-adv-x="1179" 
d="M28 1050h164q56 0 103.5 -30.5t65.5 -79.5l180 -430q30 -67 30 -121q0 -23 -6 -46l143 346l95 226l12 27q22 50 67 79.5t101 28.5h165l-578 -1326q-18 -50 -65.5 -81.5t-104.5 -31.5h-165l105 241l104 241zM233 1485h182q99 0 141 -55l13 -20q35 -56 75 -129l29 -51
l39 -70h-132q-99 0 -142 57z" />
    <glyph glyph-name="endash" unicode="&#x2013;" horiz-adv-x="1155" 
d="M995 545h-840v241h840v-241z" />
    <glyph glyph-name="emdash" unicode="&#x2014;" horiz-adv-x="1682" 
d="M1530 545h-1375v241h1375v-241z" />
    <glyph glyph-name="quoteleft" unicode="&#x2018;" horiz-adv-x="509" 
d="M157 990l-16 30q-27 50 -44.5 121t-17.5 131q0 88 62 183q21 33 50.5 67t86.5 91l36 -34q29 -27 42 -52.5t13 -55.5q0 -37 -18 -78l-11 -25q-17 -41 -21.5 -59t-4.5 -42q-4 -54 29 -113q12 -21 23 -33l10 -12z" />
    <glyph glyph-name="quoteright" unicode="&#x2019;" horiz-adv-x="502" 
d="M316 1587l16 -29q28 -53 45 -123.5t17 -129.5q0 -88 -62 -183q-21 -33 -50.5 -67t-86.5 -91l-36 34q-29 27 -42 52.5t-13 55.5q0 17 4 33t15 45l10 25q17 41 21.5 59.5t4.5 41.5q4 54 -29 113l-22 33l-11 12z" />
    <glyph glyph-name="quotesinglbase" unicode="&#x201a;" horiz-adv-x="496" 
d="M314 331l7 -11l10 -18q29 -57 45.5 -124.5t16.5 -128.5q0 -89 -63 -183q-21 -33 -50.5 -67t-86.5 -91l-35 34q-32 30 -44.5 56t-10.5 56q1 24 5.5 41t22.5 58q17 41 21.5 59.5t4.5 41.5q4 54 -29 113q-14 26 -32 45z" />
    <glyph glyph-name="quotedblleft" unicode="&#x201c;" horiz-adv-x="887" 
d="M140 992l-16 29q-29 51 -46 121.5t-17 131.5q0 89 63 183q21 33 50.5 67t86.5 91l35 -34q32 -30 44.5 -56.5t10.5 -56.5q-1 -23 -6 -41t-22 -57q-15 -33 -20.5 -55t-5.5 -46q-4 -55 29 -114q14 -26 32 -45zM505 992l-16 29q-29 51 -46 121.5t-17 131.5q0 89 63 183
q21 33 50.5 67t86.5 91l35 -34q32 -30 44.5 -56.5t10.5 -56.5q-1 -23 -6 -41t-22 -57q-15 -33 -20.5 -55t-5.5 -46q-4 -55 29 -114q14 -26 32 -45z" />
    <glyph glyph-name="quotedblright" unicode="&#x201d;" horiz-adv-x="889" 
d="M314 1600l16 -29q27 -51 44.5 -123t17.5 -130q0 -88 -62 -183q-21 -33 -50.5 -67t-86.5 -91l-36 34q-29 29 -42 55t-13 54q0 40 19 81l10 22q15 38 20.5 57.5t5.5 42.5q4 55 -29 114l-22 33l-11 12zM679 1600l16 -29q27 -51 44.5 -123t17.5 -130q0 -88 -62 -183
q-21 -33 -50.5 -67t-86.5 -91l-36 34q-29 29 -42 55t-13 54q0 40 19 81l10 22q15 38 20.5 57.5t5.5 42.5q4 55 -29 114l-22 33l-11 12z" />
    <glyph glyph-name="quotedblbase" unicode="&#x201e;" horiz-adv-x="912" 
d="M316 329l16 -29q28 -53 45 -123.5t17 -129.5q0 -88 -62 -183q-21 -33 -50.5 -67t-86.5 -91l-36 34q-29 27 -42 52.5t-13 55.5q0 17 4 33t15 45l10 25q17 41 21.5 59.5t4.5 41.5q4 54 -29 113l-22 33l-11 12zM686 329l16 -29q28 -53 45 -123.5t17 -129.5q0 -88 -62 -183
q-21 -33 -50.5 -67t-86.5 -91l-36 34q-29 27 -42 52.5t-13 55.5q0 17 4 33t15 45l10 25q17 41 21.5 59.5t4.5 41.5q4 54 -29 113l-22 33l-11 12z" />
    <glyph glyph-name="dagger" unicode="&#x2020;" 
d="M480 541l23 294h-365v188h365v410h187v-410h367v-188h-366l23 -294v-884h-234v884z" />
    <glyph glyph-name="daggerdbl" unicode="&#x2021;" horiz-adv-x="1199" 
d="M480 576l23 259h-365v188h365v410h187v-410h367v-188h-366l23 -259v-56l-23 -265h366v-188h-367v-410h-187v410h-365v188h365l-23 265v56z" />
    <glyph glyph-name="bullet" unicode="&#x2022;" horiz-adv-x="1221" 
d="M268.5 753.5q27.5 65.5 78.5 116.5q51 50 117 77.5t138 27.5q69 0 135.5 -27.5t120.5 -77.5q51 -51 78.5 -116.5t27.5 -137.5t-27.5 -137.5t-78.5 -116.5t-116.5 -78t-139.5 -27t-139 27t-116 78t-78.5 116.5t-27.5 137.5t27.5 137.5z" />
    <glyph glyph-name="ellipsis" unicode="&#x2026;" horiz-adv-x="1405" 
d="M96 215.5q13 30.5 36 53.5q48 48 119 48q46 0 85 -21.5t61 -59.5q22 -37 22 -85q0 -47 -22.5 -85t-61.5 -59t-84 -21q-32 0 -63 13t-56 35q-23 22 -36 52.5t-13 64.5t13 64.5zM551 234.5q23 38.5 62 60.5q37 22 84 22q46 0 85 -21.5t61 -59.5q22 -37 22 -85
q0 -47 -22.5 -85t-61.5 -59t-84 -21q-68 0 -119 48q-24 22 -37 52t-13 65q0 45 23 83.5zM997 234.5q23 38.5 62 60.5q37 22 84 22q46 0 85 -21.5t61 -59.5q22 -37 22 -85q0 -47 -22.5 -85t-61.5 -59t-84 -21q-68 0 -119 48q-24 22 -37 52t-13 65q0 45 23 83.5z" />
    <glyph glyph-name="perthousand" unicode="&#x2030;" horiz-adv-x="2360" 
d="M97.5 1223.5q25.5 67.5 71.5 118.5q48 52 111.5 79.5t137.5 27.5q73 0 137 -27.5t113 -79.5q46 -51 71.5 -118.5t25.5 -141.5q0 -72 -25.5 -139.5t-71.5 -119.5q-49 -52 -113 -79.5t-137 -27.5q-74 0 -137.5 27.5t-111.5 79.5q-46 52 -71.5 119.5t-25.5 139.5
q0 74 25.5 141.5zM492 90q-67 -90 -176 -90h-196l1006 1343q68 90 176 90h196zM305.5 1029q8.5 -25 24.5 -43q15 -19 38 -29.5t50 -10.5t50.5 10.5t39.5 29.5q15 18 23.5 43t8.5 53t-8.5 53t-23.5 44q-16 18 -39.5 28.5t-50.5 10.5t-50 -10.5t-38 -28.5q-16 -19 -24.5 -44
t-8.5 -53t8.5 -53zM886.5 493.5q25.5 67.5 71.5 118.5q48 52 111.5 79.5t137.5 27.5q73 0 137 -27.5t113 -79.5q46 -51 71.5 -118.5t25.5 -141.5q0 -72 -25.5 -139.5t-71.5 -119.5q-49 -52 -113 -79.5t-137 -27.5q-74 0 -137.5 27.5t-111.5 79.5q-46 52 -71.5 119.5
t-25.5 139.5q0 74 25.5 141.5zM1615.5 493.5q25.5 67.5 71.5 118.5q48 52 111.5 79.5t137.5 27.5q73 0 137 -27.5t113 -79.5q46 -51 71.5 -118.5t25.5 -141.5q0 -72 -25.5 -139.5t-71.5 -119.5q-49 -52 -113 -79.5t-137 -27.5q-74 0 -137.5 27.5t-111.5 79.5
q-46 52 -71.5 119.5t-25.5 139.5q0 74 25.5 141.5zM1094.5 299q8.5 -25 24.5 -43q15 -19 38 -29.5t50 -10.5t50.5 10.5t39.5 29.5q15 18 23.5 43t8.5 53t-8.5 53t-23.5 44q-16 18 -39.5 28.5t-50.5 10.5t-50 -10.5t-38 -28.5q-16 -19 -24.5 -44t-8.5 -53t8.5 -53z
M1823.5 299q8.5 -25 24.5 -43q15 -19 38 -29.5t50 -10.5t50.5 10.5t39.5 29.5q15 18 23.5 43t8.5 53t-8.5 53t-23.5 44q-16 18 -39.5 28.5t-50.5 10.5t-50 -10.5t-38 -28.5q-16 -19 -24.5 -44t-8.5 -53t8.5 -53z" />
    <glyph glyph-name="guilsinglleft" unicode="&#x2039;" horiz-adv-x="718" 
d="M279 845q27 63 83.5 99.5t126.5 36.5h87l-166 -397q-19 -40 -52 -56q37 -21 52 -54l166 -397h-87q-78 0 -129 33.5t-81 102.5l-118 286q-7 18 -14 23l-10 7q2 0 9 7q8 6 15 25z" />
    <glyph glyph-name="guilsinglright" unicode="&#x203a;" horiz-adv-x="711" 
d="M541 561q7 -18 16 -25q7 -6 7 -8l-2 -2l-6 -4q-7 -6 -15 -23l-129 -312q-24 -51 -70 -80.5t-101 -29.5h-114l166 397q6 17 21 32t31 22q-33 16 -52 56l-166 397h114q53 0 100.5 -30t70.5 -79z" />
    <glyph glyph-name="fraction" unicode="&#x2044;" horiz-adv-x="576" 
d="M438 1324v-1q22 52 64 81t96 29h149l-633 -1325q-24 -49 -70.5 -78.5t-100.5 -29.5h-137z" />
    <glyph glyph-name="Euro" unicode="&#x20ac;" horiz-adv-x="1489" 
d="M11 880h119q27 119 91.5 223.5t158.5 182.5q96 79 212 120.5t244 41.5q154 0 299.5 -67.5t262.5 -192.5l-61 -61q-57 -57 -134 -57q-52 0 -102 32q-131 83 -265 83q-151 0 -266 -85q-56 -39 -98.5 -96t-66.5 -124h284v-125h-313q-1 -1 -1 -19v-44l2 -24h312v-125h-279
q33 -87 97.5 -154t150.5 -104q81 -37 178 -37q141 0 265 84q44 30 102 30q41 0 73.5 -13.5t60.5 -41.5l61 -61q-117 -125 -262.5 -192.5t-299.5 -67.5q-125 0 -241 41t-211 118q-94 75 -159 178t-92 220h-122v125h103l-2 49v19q0 18 1 19h-102v125z" />
    <glyph glyph-name="trademark" unicode="&#x2122;" horiz-adv-x="1570" 
d="M43 1287v147h551v-148h-202v-482h-147v482zM1433 804h-147v346l-49 -100l-63 -126q-9 -19 -10 -21q-19 -42 -30 -61l-19 -38h-123l-169 341v-341h-147v630h104q26 0 52 -17t38 -41l184 -353l185 353q12 25 36.5 41.5t53.5 16.5h104v-630z" />
    <glyph glyph-name="uni2126" unicode="&#x2126;" horiz-adv-x="1440" 
d="M636 0h-548v249h299v82q-73 36 -130 90.5t-94 123.5q-72 129 -72 282q0 124 47.5 237.5t135.5 201.5t202 135t239 47t239 -47t202 -135t135.5 -201.5t47.5 -237.5q0 -71 -21.5 -144.5t-61.5 -140.5q-40 -68 -95.5 -122.5t-120.5 -89.5v-81h299v-249h-549v492q59 6 115 37
t99 80q40 49 63 106.5t23 111.5q0 72 -28.5 139.5t-79.5 119.5q-54 54 -121.5 82.5t-142.5 28.5q-74 0 -144 -29.5t-122 -81.5t-80.5 -119.5t-28.5 -139.5q0 -60 22.5 -117t64.5 -103q40 -46 93.5 -76t112.5 -39v-492z" />
    <glyph glyph-name="uni2153" unicode="&#x2153;" horiz-adv-x="1619" 
d="M601 846l2 -197h-470v197h141v326q-25 -13 -50 -13q-17 0 -36.5 5.5t-26.5 12.5l-57 54l211 203h159v-588h127zM993 1324v-1q22 52 64 81t96 29h149l-633 -1325q-24 -49 -70.5 -78.5t-100.5 -29.5h-137zM1056 61q-21 18 -44.5 54.5t-36.5 70.5q17 9 69 34q20 10 42 10
q43 0 77 -31q12 -12 31.5 -20t39.5 -8q32 0 54.5 22.5t22.5 54.5q0 34 -21 59.5t-51 25.5h-83v148h83q22 0 40.5 17t18.5 40q0 31 -17.5 53t-44.5 22q-11 0 -19 -3l-30 -18q-15 -12 -30.5 -17t-36.5 -5q-40 0 -71 25l-55 43q123 145 239 145q45 0 87.5 -17t75.5 -48
t51.5 -73t18.5 -89q0 -31 -18 -75q-23 -48 -41 -69q34 -31 56 -78t22 -91q0 -49 -17.5 -92.5t-49.5 -77.5q-33 -34 -76 -54t-90 -22q-123 0 -196 64z" />
    <glyph glyph-name="partialdiff" unicode="&#x2202;" horiz-adv-x="1261" 
d="M143.5 806.5q71.5 125.5 195.5 198.5q122 74 271 79q25 0 62 -7.5t71 -19.5q39 -13 71.5 -33.5t50.5 -44.5q-54 89 -146.5 153.5t-227.5 107.5q-46 17 -94 27l-76 19l38 251q304 -42 492.5 -184t266.5 -386q58 -174 58 -426v-5q0 -111 -42 -211t-120 -178
q-76 -76 -178 -118.5t-212 -42.5t-212 42.5t-178 118.5q-78 76 -120 176.5t-42 211.5q0 146 71.5 271.5zM358 423q22 -53 62 -93q40 -41 92.5 -63.5t111.5 -22.5t111.5 22.5t92.5 63.5q40 40 62 93t22 112t-22 112.5t-62 93.5t-93.5 62.5t-110.5 22.5t-110.5 -22.5
t-93.5 -62.5t-62 -93.5t-22 -112.5t22 -112z" />
    <glyph glyph-name="uni2206" unicode="&#x2206;" horiz-adv-x="1521" 
d="M1498 0h-1488l625 1433h238zM395 253h718l-342 781q-13 24 -17 65v-2l-11 -45l-6 -18z" />
    <glyph glyph-name="product" unicode="&#x220f;" horiz-adv-x="1368" 
d="M63 1181v252h1243v-252h-171v-1521h-263v1521h-379v-1521h-263v1521h-167z" />
    <glyph glyph-name="summation" unicode="&#x2211;" horiz-adv-x="1368" 
d="M893 554l-404 -551l-68 -92h862v-253h-1225v116q0 72 44 134l28 38l34 46q149 206 171 239q69 101 232 323l-465 629q-21 28 -32.5 62.5t-11.5 71.5v116h1225v-253h-852z" />
    <glyph glyph-name="minus" unicode="&#x2212;" horiz-adv-x="1191" 
d="M1086 543h-984v240h984v-240z" />
    <glyph glyph-name="radical" unicode="&#x221a;" horiz-adv-x="1269" 
d="M291 606h-80q-81 0 -125 56q-19 24 -29 55t-10 64v81h421l148 -450q6 -14 14 -68l4 -27l1 -13l2 14l3 27l14 66l332 1131q21 63 74.5 101t119.5 38h108l-484 -1636q-11 -41 -53.5 -63t-108.5 -22t-110.5 21.5t-56.5 59.5z" />
    <glyph glyph-name="infinity" unicode="&#x221e;" horiz-adv-x="1531" 
d="M1416 813.5q28 -67.5 28 -142.5q0 -72 -28.5 -139.5t-80.5 -119.5t-120 -80.5t-141 -28.5q-70 0 -137.5 30.5t-124.5 86.5l-58 69l-60 -71q-55 -55 -122.5 -85t-137.5 -30q-74 0 -142 28.5t-120 80.5q-52 51 -80.5 118t-28.5 141q0 72 28.5 140t80.5 120t120 80.5
t142 28.5q71 0 138 -30.5t124 -87.5l58 -69l57 69q57 57 124 87.5t139 30.5q73 0 141.5 -28t119.5 -80q53 -51 81 -118.5zM494 573q51 26 124 98q-76 68 -124 97q-44 23 -66 23q-24 0 -45.5 -9t-36.5 -26q-34 -37 -34 -85q0 -47 34 -84q15 -17 36.5 -26.5t45.5 -9.5
q26 0 66 22zM1137 567.5q27 16.5 43 44.5q15 29 15 59q0 49 -34 84.5t-82 35.5q-28 0 -69 -23q-55 -33 -122 -97q76 -73 125 -98q40 -22 66 -22q31 0 58 16.5z" />
    <glyph glyph-name="integral" unicode="&#x222b;" horiz-adv-x="778" 
d="M261 526q-1 25 -1 574q0 147 42.5 232.5t137.5 126.5q57 20 109 20q30 0 69 -10t79 -27q92 -40 135 -84l-38 -58q-36 -56 -80 -74q-19 -10 -61 -10q-19 0 -34 7q-25 6 -51 6q-24 0 -40 -21t-16 -51v-1149q0 -148 -43 -234t-137 -124q-49 -21 -109 -21q-30 0 -69 10
t-78 27q-92 39 -135 85l39 57q35 54 79 74q19 10 60 10q8 0 32 -6q14 -7 50 -7q26 0 43 21t17 51v575z" />
    <glyph glyph-name="approxequal" unicode="&#x2248;" horiz-adv-x="1204" 
d="M699.5 698.5q-43.5 10.5 -116.5 37.5l-22 8q-63 24 -94 31.5t-63 7.5q-52 0 -130 -23q-10 -2 -47 -17l-27 -12v249l44 15q92 34 168 34q45 0 90 -10.5t113 -36.5q74 -29 106.5 -38t66.5 -9q64 0 200 32v-230q-8 0 -27 -10q-43 -18 -89.5 -28.5t-83.5 -10.5
q-45 0 -88.5 10.5zM694 299q-47 11 -109 37q-94 34 -112 38q-32 9 -64 9q-50 0 -131 -23l-49 -17l-29 -12v249l43 14q49 19 99 29q52 5 61 5q47 0 95 -11t112 -36q73 -29 108 -38t69 -9q75 0 201 33v-230q-8 0 -27 -10q-44 -19 -89.5 -29t-84.5 -10q-46 0 -93 11z" />
    <glyph glyph-name="notequal" unicode="&#x2260;" horiz-adv-x="1192" 
d="M658 1164l119 -31l-39 -148h304v-239h-370l-41 -153h411v-240h-473l-52 -195l-121 32l43 163h-287v240h350l41 153h-391v239h457z" />
    <glyph glyph-name="lessequal" unicode="&#x2264;" 
d="M119 941q0 96 111 150l740 319v-145q0 -55 -39.5 -104.5t-102.5 -74.5q-30 -10 -52 -21l-79 -33q-45 -18 -93 -39l-170 -72l-48 -21q-4 -4 -30 -10l-23 -6l23 -7l18 -5l11 -5q23 -12 46 -20q35 -13 78 -33l266 -112l46 -20q73 -32 111 -78t38 -101v-145l-740 319
q-111 48 -111 150v114zM119 602l739 -321q112 -49 112 -154v-154l-740 319q-57 24 -84 60.5t-27 89.5v160z" />
    <glyph glyph-name="greaterequal" unicode="&#x2265;" 
d="M1034 827q0 -102 -112 -150l-739 -319v145q0 54 38 100.5t110 78.5l46 20l266 112q44 20 78 33l46 20l12 5l18 5l23 7l-24 6q-25 6 -29 10q-15 8 -48 21q-34 14 -77 33q-44 19 -93 39q-49 19 -93 39l-99 41q-34 13 -52 22t-38 24q-56 44 -74 93q-10 19 -10 53v145
l739 -319q112 -54 112 -150v-114zM1034 427q0 -100 -111 -150l-740 -319v155q0 50 31.5 97t80.5 72l739 321v-176z" />
    <glyph glyph-name="lozenge" unicode="&#x25ca;" 
d="M1100 669l-375 -868h-238l-375 868l375 865h238zM625 1125q-8 14 -13 37.5t-6 45.5q-1 -37 -19 -83l-199 -456l200 -460q15 -34 18 -83q1 45 19 83l201 460z" />
    <glyph glyph-name="uniF6C3" unicode="&#xf6c3;" horiz-adv-x="0" 
d="M-446 1863h114q44 0 67.5 -24t23.5 -66q0 -8 1 -9l-2 -10l-19 -125q-6 -38 -34.5 -62.5t-68.5 -24.5h-82v321z" />
    <glyph glyph-name="ff" unicode="&#xfb00;" horiz-adv-x="1496" 
d="M442 0h-263v803h-163v146q0 55 34.5 78.5t115.5 23.5h13v96q0 64 20.5 119t58.5 95q39 40 93 61.5t119 21.5q31 0 70.5 -9.5t74.5 -26.5q38 -15 74 -37t59 -45l-36 -59q-47 -74 -136 -74q-20 0 -44 3q-4 0 -16 3q-13 3 -23 3q-24 0 -38 -18t-14 -47v-86h486v96
q0 64 20.5 119t58.5 95q39 40 93 61.5t119 21.5q31 0 70.5 -9.5t74.5 -26.5q38 -15 74 -37t59 -45l-36 -59q-47 -74 -136 -74q-20 0 -44 3q-4 0 -16 3q-13 3 -23 3q-24 0 -38 -18t-14 -47v-86h233v-248h-232v-803h-263v803h-485v-803z" />
    <glyph glyph-name="fi" unicode="&#xfb01;" horiz-adv-x="1345" 
d="M903 1402q22 35 60 55t83 20q34 0 64 -11.5t52 -31.5q48 -43 48 -110q0 -66 -48 -110q-22 -20 -52 -31t-64 -11q-45 0 -83 19.5t-60 54.5q-22 34 -22 78q0 43 22 78zM442 0h-263v803h-163v146q0 55 34.5 78.5t115.5 23.5h13v96q0 64 20.5 119t58.5 95q39 40 93 61.5
t119 21.5q31 0 70.5 -9.5t74.5 -26.5q38 -15 74 -37t59 -45l-36 -59q-47 -74 -136 -74q-20 0 -44 3q-4 0 -16 3q-13 3 -23 3q-24 0 -38 -18t-14 -47v-87h736v-1050h-263v803h-472v-803z" />
    <glyph glyph-name="fl" unicode="&#xfb02;" horiz-adv-x="1340" 
d="M179 0v803h-163v146q0 55 34.5 78.5t115.5 23.5h13v96q0 64 20.5 119t58.5 95q39 40 93 61.5t119 21.5q31 0 70.5 -9.5t74.5 -26.5q38 -15 74 -37t59 -45l-36 -59q-47 -74 -136 -74q-20 0 -44 3q-4 0 -16 3q-13 3 -23 3q-24 0 -38 -18t-14 -47v-86h233v-248h-232v-803
h-263zM1177 1433v-1433h-263v1433h263z" />
    <glyph glyph-name="ffi" unicode="&#xfb03;" horiz-adv-x="2093" 
d="M1651 1402q22 35 60 55t83 20q34 0 64 -11.5t52 -31.5q48 -43 48 -110q0 -66 -48 -110q-22 -20 -52 -31t-64 -11q-45 0 -83 19.5t-60 54.5q-22 34 -22 78q0 43 22 78zM927 0v803h-485v-803h-263v803h-163v146q0 55 34.5 78.5t115.5 23.5h13v96q0 64 20.5 119t58.5 95
q39 40 93 61.5t119 21.5q31 0 70.5 -9.5t74.5 -26.5q38 -15 74 -37t59 -45l-36 -59q-47 -74 -136 -74q-20 0 -44 3q-4 0 -16 3q-13 3 -23 3q-24 0 -38 -18t-14 -47v-86h486v96q0 64 20.5 119t58.5 95q39 40 93 61.5t119 21.5q31 0 70.5 -9.5t74.5 -26.5q38 -15 74 -37
t59 -45l-36 -59q-47 -74 -136 -74q-20 0 -44 3q-4 0 -16 3q-13 3 -23 3q-24 0 -38 -18t-14 -47v-87h736v-1050h-263v803h-472v-803h-263z" />
    <glyph glyph-name="ffl" unicode="&#xfb04;" horiz-adv-x="2088" 
d="M442 0h-263v803h-163v146q0 55 34.5 78.5t115.5 23.5h13v96q0 64 20.5 119t58.5 95q39 40 93 61.5t119 21.5q31 0 70.5 -9.5t74.5 -26.5q38 -15 74 -37t59 -45l-36 -59q-47 -74 -136 -74q-20 0 -44 3q-4 0 -16 3q-13 3 -23 3q-24 0 -38 -18t-14 -47v-86h486v96
q0 64 20.5 119t58.5 95q39 40 93 61.5t119 21.5q31 0 70.5 -9.5t74.5 -26.5q38 -15 74 -37t59 -45l-36 -59q-47 -74 -136 -74q-20 0 -44 3q-4 0 -16 3q-13 3 -23 3q-24 0 -38 -18t-14 -47v-86h233v-248h-232v-803h-263v803h-485v-803zM1925 1433v-1433h-263v1433h263z" />
    <glyph glyph-name="s_t" unicode="&#xfb06;" horiz-adv-x="1653" 
d="M144 279q46 24 92 25q23 0 45.5 -9.5t50.5 -30.5q53 -38 99 -38q30 0 58 13t46 37q17 23 17 52q0 20 -6.5 34.5t-22.5 26.5q-27 20 -115 51q-160 52 -232 127.5t-72 193.5q0 61 28 117t79 99q48 41 109 64t124 23q109 0 218 -78q45 -34 67 -59l30 -35l-60 -60
q-30 -23 -54 -33t-50 -10q-24 0 -49 13l-14 7q-25 10 -42 14.5t-37 4.5t-42.5 -11.5t-37.5 -29.5q-16 -16 -16 -34q0 -34 26 -54t94 -39q87 -24 140 -47t91 -54q99 -79 99 -224q0 -69 -27 -133t-77 -112q-52 -50 -121.5 -77t-148.5 -27q-116 0 -214 66t-158 184zM1336 801
v-494q0 -30 14.5 -49t38.5 -19l36 5q9 4 31 4q68 0 123 -54q13 -13 39 -47l27 -39q-43 -45 -134 -85q-39 -17 -78 -27t-68 -10q-67 0 -121 21.5t-92 62.5q-38 39 -58.5 94t-20.5 119v518h-163v166q0 41 26 61.5t75 20.5h62v207q0 58 32 117q11 23 32 46h199v-369h270v-249
h-270z" />
    <glyph glyph-name="undercommaaccent" horiz-adv-x="657" 
d="M226 -78h112q42 0 66.5 -22.5t24.5 -64.5l-2 -21l-19 -124q-6 -38 -34 -62t-67 -24h-81v318z" />
    <glyph glyph-name="breve.case" horiz-adv-x="614" 
d="M620 1803q0 -130 -97 -221q-45 -41 -101.5 -63.5t-116.5 -22.5t-116 22.5t-100 63.5q-97 91 -97 221h66q37 0 69 -14.5t50 -40.5q44 -59 128 -59q43 0 73.5 14t54.5 45q40 55 121 55h66z" />
    <glyph glyph-name="ring.case" horiz-adv-x="614" 
d="M110 1746.5q16 38.5 46 68.5q62 62 150 62q89 0 151 -62q30 -30 46 -68.5t16 -80.5q0 -56 -28.5 -104.5t-77.5 -78.5q-50 -29 -107 -29q-56 0 -104.5 28.5t-78.5 77.5q-29 50 -29 106q0 42 16 80.5zM262 1622q18 -18 44 -18t44.5 18t18.5 44t-18.5 44t-44.5 18t-44 -18
t-18 -44t18 -44z" />
    <glyph glyph-name="tilde.case" horiz-adv-x="614" 
d="M363 1483q-28 9 -65 30l-28 15q-44 23 -71 23q-39 0 -39 -71h-176q0 123 51 192.5t144 69.5q26 0 49.5 -8t66.5 -30q46 -25 66 -32q16 -6 32 -6q25 0 35.5 14.5t10.5 47.5h184q-6 -71 -16 -113t-28 -71q-22 -33 -60.5 -50.5t-98.5 -19.5q-29 0 -57 9z" />
    <glyph glyph-name="hungarumlaut.case" horiz-adv-x="812" 
d="M326 1597q-23 -31 -63.5 -42t-125.5 -11h-75q70 115 115 185l28 44l13 18q27 30 69.5 40.5t134.5 10.5h109zM901 1842l-120 -125l-119 -126q-18 -20 -39 -30t-54 -13q-29 -4 -93 -4h-87l18 24l79 101l96 125q20 26 47.5 36t79.5 11q5 1 70 1h122z" />
    <glyph glyph-name="uni0326.case" horiz-adv-x="0" 
d="M-387 1462h114q44 0 67.5 -24t23.5 -66q0 -8 1 -9l-2 -10l-19 -125q-6 -38 -34.5 -62.5t-68.5 -24.5h-82v321z" />
    <glyph glyph-name="grave.case" horiz-adv-x="614" 
d="M106 1843h181q101 0 141 -55l13 -18l55 -93l5 -8l9 -16l64 -110h-132q-99 0 -141 57z" />
    <glyph glyph-name="acute.case" horiz-adv-x="707" 
d="M380 1600q-42 -56 -142 -56h-132l25 43l82 141l27 43l12 18q42 55 141 55h182z" />
    <glyph glyph-name="dotaccent.case" horiz-adv-x="656" 
d="M183 1744.5q12 28.5 33 49.5q47 44 109 44q32 0 60.5 -11.5t49.5 -32.5t33 -49.5t12 -58.5q0 -63 -45 -108q-21 -21 -49.5 -33t-60.5 -12q-42 0 -77.5 20.5t-55.5 56.5q-21 35 -21 76q0 30 12 58.5z" />
    <glyph glyph-name="dieresis.case" horiz-adv-x="614" 
d="M1 1719.5q10 24.5 28 42.5q39 39 94 39q27 0 51.5 -10.5t42.5 -28.5t28.5 -42.5t10.5 -51.5q0 -55 -39 -94q-18 -18 -42.5 -28t-51.5 -10q-56 0 -94 38t-38 94q0 27 10 51.5zM366.5 1719.5q10.5 24.5 28.5 42.5t42 28.5t51 10.5q55 0 94 -39q18 -18 28.5 -42.5
t10.5 -51.5q0 -36 -17.5 -66.5t-47.5 -47.5q-31 -18 -68 -18q-27 0 -51 10t-42 28q-39 39 -39 94q0 27 10.5 51.5z" />
    <glyph glyph-name="macron.case" horiz-adv-x="614" 
d="M30 1743h589v-220h-589v220z" />
    <glyph glyph-name="circumflex.case" horiz-adv-x="731" 
d="M379 1607q-8 8 -12 17q-5 9 -9 15l-9 -15q-5 -9 -12 -16l-15 -16l-30 -33q-57 -69 -120 -75q-17 -4 -70 -4h-85l182 250q39 56 141 56h37q98 0 139 -56l183 -250h-86q-49 0 -74.5 4t-45.5 15q-41 22 -81 71z" />
    <glyph glyph-name="caron.case" horiz-adv-x="730" 
d="M365 1640q5 11 12 18l30 31q47 60 92 79q22 9 48 13t64 4h86l-183 -249q-43 -58 -139 -57h-37q-102 0 -141 57l-90 125l-92 124h85q60 0 90 -10q35 -4 80 -46q23 -23 35 -37l30 -34q8 -8 12 -17q5 -11 9 -15q4 4 9 14z" />
    <glyph glyph-name="notdef.001" horiz-adv-x="617" 
 />
    <glyph glyph-name="zero.taboldstyle" horiz-adv-x="1188" 
d="M61 921q0 105 40.5 201.5t115.5 171.5t171.5 114.5t203.5 39.5t205 -40.5t171 -113.5q75 -75 115.5 -171.5t40.5 -201.5v-410q0 -106 -40.5 -202t-115.5 -169q-76 -73 -174 -113.5t-202 -40.5q-108 0 -204.5 40t-170.5 114q-75 73 -115.5 169t-40.5 203v409zM322 513
q0 -54 21 -103t59 -86q37 -37 86.5 -57.5t103.5 -20.5t104 20.5t87 56.5q39 37 60 86t21 103v409q0 54 -21 103.5t-59 85.5q-39 37 -89 57.5t-103 20.5q-54 0 -104 -20.5t-87 -57.5q-80 -80 -80 -189z" />
    <glyph glyph-name="one.taboldstyle" horiz-adv-x="1205" 
d="M1095 0h-814v252h289v841q-62 -92 -152 -92q-25 0 -49 9q-17 0 -41 18t-49 48l-26 28l349 332h230v-1184h263v-252z" />
    <glyph glyph-name="two.taboldstyle" horiz-adv-x="1185" 
d="M1078 0h-958v115q0 56 24 102q11 21 24 36.5t51 53.5l19 19q286 286 437 467q69 82 96.5 131.5t27.5 94.5q0 38 -19.5 70.5t-56.5 56.5q-32 21 -72 33t-77 12q-91 0 -148 -51q-42 -35 -74.5 -50t-66.5 -15q-39 0 -92 29l-78 41l18 33l33 55q49 72 104 117.5t127 71.5
q89 29 177 29q97 0 185.5 -31.5t156.5 -90.5q70 -61 108.5 -144t38.5 -175q0 -60 -15.5 -108t-55.5 -121q-83 -136 -297 -362l-65 -70q-55 -58 -71 -68q-27 -19 -48 -25l-13 -4h580v-252z" />
    <glyph glyph-name="three.taboldstyle" horiz-adv-x="1116" 
d="M984 263.5q-35 -82.5 -99 -145.5t-147 -97.5t-173 -34.5q-97 0 -182.5 30t-150.5 87q-44 41 -89 108q-22 34 -34 59l-18 33l79 39q47 27 95 27q35 0 71.5 -16t61.5 -41l8 -6q31 -28 73 -44t86 -16q39 0 74.5 14.5t62.5 41.5q58 58 58 133q0 39 -15.5 76.5t-42.5 65.5
q-28 28 -64.5 44.5t-72.5 16.5h-127v233h127q30 0 59 14t50 38q22 24 34 53.5t12 60.5q0 27 -12 53t-33 46q-46 43 -103 43l-44 -5l-2 1h-3q-30 -10 -71 -27q-45 -19 -80 -32q-10 -10 -38 -10q-32 0 -58.5 8t-58.5 28.5t-84 62.5q201 243 423 243q84 0 161 -30.5t137 -87.5
t92 -132.5t32 -159.5q0 -73 -39.5 -150t-99.5 -123q35 -25 67.5 -61.5t57.5 -79.5q55 -94 55 -189q0 -89 -35 -171.5z" />
    <glyph glyph-name="four.taboldstyle" horiz-adv-x="1184" 
d="M682 0v317h-601v137q0 51 28 103q11 23 29 46l30 49l42 70l164 275l207 344q26 42 66 66t85 24h218v-862h182v-252h-182v-317h-268zM687 1069l-19 -45l-21 -46l-193 -350q-12 -21 -27 -38t-25 -21h285v500z" />
    <glyph glyph-name="five.taboldstyle" horiz-adv-x="1194" 
d="M1032 1181h-497l-10 -65q-12 -73 -15 -102q48 16 99 16h15q13 0 14 -1q92 -10 175 -49.5t146 -103.5q66 -67 100.5 -154.5t34.5 -186.5q0 -111 -42 -211.5t-120 -176.5q-76 -76 -178 -118.5t-212 -42.5q-116 0 -227 52.5t-202 149.5l62 62q19 19 48 35t55 21q1 1 15 1
q1 -1 21 -1q19 -2 35 -7q23 -5 47 -15q72 -28 94 -32q24 -6 52 -6q56 0 109 22t96 62q40 40 62.5 93t22.5 110q0 54 -22.5 104.5t-62.5 87.5q-39 36 -91.5 55t-112.5 19q-18 0 -33 -3l-59 -17q-38 -12 -57.5 -16t-37.5 -4q-23 0 -46 11t-41 30t-28.5 46t-10.5 57v8
q0 10 1 11l13 83q10 73 36 247l28 181h724v-252z" />
    <glyph glyph-name="six.taboldstyle" horiz-adv-x="1065" 
d="M456 1323q22 46 71.5 78t100.5 32h163l-218 -497q-16 -35 -48 -64l-21 -16l-10 -7q60 18 111 18q85 0 161 -34t134 -98q55 -60 85.5 -138.5t30.5 -161.5q0 -90 -34.5 -172.5t-97.5 -145.5q-64 -63 -147 -97.5t-173 -34.5t-173 34.5t-147 97.5t-99 145.5t-35 172.5
q0 93 41 186zM738.5 511.5q-14.5 35.5 -41.5 62.5q-56 56 -133 56q-39 0 -73.5 -14.5t-60.5 -41.5q-27 -28 -41.5 -63t-14.5 -73t14.5 -73.5t41.5 -62.5q57 -57 134 -57q78 0 133 57q27 27 41.5 62t14.5 74q0 38 -14.5 73.5z" />
    <glyph glyph-name="seven.taboldstyle" horiz-adv-x="1136" 
d="M119 1433h959v-76q0 -67 -16 -105l-16 -40l-16 -35l-464 -1068q-23 -53 -68.5 -81t-103.5 -28h-163l482 1110q13 33 61 70h-655v253z" />
    <glyph glyph-name="eight.taboldstyle" horiz-adv-x="1094" 
d="M161.5 1196q31.5 75 89.5 132q57 57 132.5 88.5t158.5 31.5t159 -31.5t133 -88.5t88.5 -132.5t31.5 -157.5q0 -72 -39 -148.5t-99 -124.5q35 -25 67.5 -61.5t56.5 -79.5q55 -97 55 -189q0 -90 -35 -173t-98 -144q-64 -63 -147 -97.5t-173 -34.5t-173 34.5t-147 97.5
q-63 61 -98 144t-35 173q0 59 24 123t66 119q36 51 89 88q-58 46 -98 125t-40 148q0 83 31.5 158zM437 930q21 -21 48 -32.5t57 -11.5t57.5 11.5t48.5 32.5q44 44 44 107q0 61 -44 108q-21 21 -48.5 32.5t-57.5 11.5t-57 -11.5t-48 -32.5q-43 -43 -43 -108q0 -64 43 -107z
M367.5 362q14.5 -35 41.5 -62q26 -27 60.5 -41.5t72.5 -14.5q39 0 73.5 14.5t61.5 41.5q26 27 40.5 62t14.5 73q0 39 -14.5 74t-40.5 63q-27 27 -61.5 41.5t-73.5 14.5q-38 0 -72.5 -14.5t-60.5 -41.5q-27 -28 -41.5 -63.5t-14.5 -73.5t14.5 -73z" />
    <glyph glyph-name="nine.taboldstyle" horiz-adv-x="1138" 
d="M704 110q-22 -48 -70 -79t-102 -31h-163l109 249l90 204l19 44q17 38 48 65l21 16l10 6q-57 -18 -112 -18q-86 0 -161.5 34t-132.5 98q-55 60 -85.5 138.5t-30.5 161.5q0 89 35 172t98 146q64 63 146.5 97.5t172.5 34.5t173.5 -34.5t147.5 -97.5q63 -63 98 -146t35 -172
q0 -93 -41 -186zM421.5 921.5q14.5 -34.5 41.5 -61.5q55 -57 133 -57q39 0 74 15t61 42t40.5 62t14.5 73q0 39 -14.5 74t-40.5 62t-61.5 42t-73.5 15q-76 0 -133 -57q-27 -27 -41.5 -62t-14.5 -74t14.5 -73.5z" />
    <glyph glyph-name="f_f_j" horiz-adv-x="2087" 
d="M1651 1402q22 35 60 55t83 20q34 0 64 -11.5t52 -31.5q48 -43 48 -110q0 -66 -48 -110q-22 -20 -52 -31t-64 -11q-45 0 -83 19.5t-60 54.5q-22 34 -22 78q0 43 22 78zM927 0v803h-485v-803h-263v803h-163v146q0 55 34.5 78.5t115.5 23.5h13v96q0 64 20.5 119t58.5 95
q39 40 93 61.5t119 21.5q31 0 70.5 -9.5t74.5 -26.5q38 -15 74 -37t59 -45l-36 -59q-47 -74 -136 -74q-20 0 -44 3q-4 0 -16 3q-13 3 -23 3q-24 0 -38 -18t-14 -47v-86h486v96q0 64 20.5 119t58.5 95q39 40 93 61.5t119 21.5q31 0 70.5 -9.5t74.5 -26.5q38 -15 74 -37
t59 -45l-36 -59q-47 -74 -136 -74q-20 0 -44 3q-4 0 -16 3q-13 3 -23 3q-24 0 -38 -18t-14 -47v-87h735v-995q-2 -150 -97 -269q-94 -114 -232 -169l-13 29q-26 57 -35.5 86.5t-9.5 56.5q0 25 10 48t33 52l36 44q35 44 42 91q3 23 3 43v736h-471v-803h-263z" />
    <glyph glyph-name="f_j" horiz-adv-x="1339" 
d="M903 1402q22 35 60 55t83 20q34 0 64 -11.5t52 -31.5q48 -43 48 -110q0 -66 -48 -110q-22 -20 -52 -31t-64 -11q-45 0 -83 19.5t-60 54.5q-22 34 -22 78q0 43 22 78zM442 0h-263v803h-163v146q0 55 34.5 78.5t115.5 23.5h13v96q0 64 20.5 119t58.5 95q39 40 93 61.5
t119 21.5q31 0 70.5 -9.5t74.5 -26.5q38 -15 74 -37t59 -45l-36 -59q-47 -74 -136 -74q-20 0 -44 3q-4 0 -16 3q-13 3 -23 3q-24 0 -38 -18t-14 -47v-87h735v-995q-2 -150 -97 -269q-94 -114 -232 -169l-13 29q-26 57 -35.5 86.5t-9.5 56.5q0 25 10 48t33 52l36 44
q35 44 42 91q3 23 3 43v736h-471v-803z" />
    </font>
</defs>
</svg>
