<?xml version="1.0" standalone="no"?>
<!DOCTYPE svg PUBLIC "-//W3C//DTD SVG 1.1//EN" "http://www.w3.org/Graphics/SVG/1.1/DTD/svg11.dtd" >
<svg xmlns="http://www.w3.org/2000/svg" xmlns:xlink="http://www.w3.org/1999/xlink" version="1.1">
<metadata>
Created by FontForge 20170731 at Fri Jan 20 04:08:11 2017
 By ,,,
Copyright (c) 2013 by Francesco Canovaro. All rights reserved.
</metadata>
<defs>
<font id="WOD-SemiBold" horiz-adv-x="1178" >
  <font-face 
    font-family="WOD Semi Bold"
    font-weight="600"
    font-stretch="normal"
    units-per-em="2000"
    panose-1="2 0 5 3 2 0 0 2 0 4"
    ascent="1610"
    descent="-390"
    x-height="1050"
    cap-height="1433"
    bbox="-411 -815 2254 1928"
    underline-thickness="120"
    underline-position="-320"
    unicode-range="U+000D-FB06"
  />
<missing-glyph horiz-adv-x="1275" 
d="M638 138q-118 0 -224.5 45t-187.5 128q-79 82 -122 187t-43 218q0 116 45 223.5t127 189.5q82 79 188 123t217 44q119 0 225.5 -45.5t188.5 -130.5q78 -82 120.5 -186.5t42.5 -217.5q0 -101 -31.5 -192t-91.5 -164q-56 -71 -132.5 -122.5t-166.5 -78.5q-70 -21 -155 -21z
M638 1247q-105 0 -203.5 -42t-174.5 -118q-72 -75 -111.5 -171.5t-39.5 -199.5q0 -104 39.5 -200.5t112.5 -172.5q75 -78 171 -119t206 -41q105 0 202.5 40.5t172.5 114.5q75 75 115.5 172.5t40.5 205.5q0 89 -30 173.5t-85 157.5q-53 66 -123.5 112.5t-151.5 69.5
q-65 18 -141 18zM317 1073q136 121 321 121q89 0 171 -31.5t146 -89.5h-638zM1116 716q0 -87 -28 -165t-81 -141h-635l623 627q61 -70 88 -146q33 -79 33 -175zM280 395q-58 67 -88.5 149t-30.5 172q0 176 109 303h633zM959 358q-69 -59 -150.5 -90t-170.5 -31
q-179 0 -318 121h639z" />
    <glyph glyph-name=".notdef" horiz-adv-x="1275" 
d="M638 138q-118 0 -224.5 45t-187.5 128q-79 82 -122 187t-43 218q0 116 45 223.5t127 189.5q82 79 188 123t217 44q119 0 225.5 -45.5t188.5 -130.5q78 -82 120.5 -186.5t42.5 -217.5q0 -101 -31.5 -192t-91.5 -164q-56 -71 -132.5 -122.5t-166.5 -78.5q-70 -21 -155 -21z
M638 1247q-105 0 -203.5 -42t-174.5 -118q-72 -75 -111.5 -171.5t-39.5 -199.5q0 -104 39.5 -200.5t112.5 -172.5q75 -78 171 -119t206 -41q105 0 202.5 40.5t172.5 114.5q75 75 115.5 172.5t40.5 205.5q0 89 -30 173.5t-85 157.5q-53 66 -123.5 112.5t-151.5 69.5
q-65 18 -141 18zM317 1073q136 121 321 121q89 0 171 -31.5t146 -89.5h-638zM1116 716q0 -87 -28 -165t-81 -141h-635l623 627q61 -70 88 -146q33 -79 33 -175zM280 395q-58 67 -88.5 149t-30.5 172q0 176 109 303h633zM959 358q-69 -59 -150.5 -90t-170.5 -31
q-179 0 -318 121h639z" />
    <glyph glyph-name="uni0000" horiz-adv-x="0" 
 />
    <glyph glyph-name="uni0000" horiz-adv-x="0" 
 />
    <glyph glyph-name="uni000D" unicode="&#xd;" horiz-adv-x="0" 
 />
    <glyph glyph-name="space" unicode=" " horiz-adv-x="617" 
 />
    <glyph glyph-name="exclam" unicode="!" horiz-adv-x="700" 
d="M243 477v957h221v-957h-221zM458 28q-21 -20 -48 -31.5t-56 -11.5q-41 0 -74 19.5t-54 53.5q-20 35 -20 73q0 30 11.5 57t31.5 47q44 42 105 42t104 -42q20 -20 31.5 -47t11.5 -57q0 -60 -43 -103z" />
    <glyph glyph-name="quotedbl" unicode="&#x22;" horiz-adv-x="805" 
d="M103 1433h206v-376q0 -42 -31 -72t-73 -30q-43 0 -72.5 29t-29.5 73v376zM463 1433h205v-376q0 -42 -30.5 -72t-72.5 -30q-43 0 -72.5 29t-29.5 73v376z" />
    <glyph glyph-name="numbersign" unicode="#" horiz-adv-x="1169" 
d="M792 1328q8 45 51.5 75t98.5 30h77l-85 -431h197l-16 -79q-11 -53 -48 -87t-84 -34h-89l-40 -209h216l-15 -76q-12 -54 -49 -89t-84 -35h-108l-56 -289q-10 -47 -49.5 -75.5t-93.5 -28.5h-84l77 393h-190l-56 -288q-9 -45 -52 -75t-97 -30h-78l77 393h-184l16 80
q12 54 47.5 87.5t83.5 33.5h76l3 16l17 85l10 49l7 39q3 18 4 19h-204l16 77q12 55 48.5 89.5t84.5 34.5h95l6 30l12 59l14 74l15 73l11 59l6 30q7 45 48.5 75t95.5 30h83l-84 -430h188zM458 594h189l3 16l17 84l17 88l4 20h-189z" />
    <glyph glyph-name="dollar" unicode="$" horiz-adv-x="1072" 
d="M476 1581h104v-134q97 -8 197 -66.5t177 -150.5l-51 -39q-24 -21 -57 -33.5t-64 -12.5q-27 0 -52 9t-82 39q-38 17 -68 22v-334l102 -38q172 -63 255 -163t83 -246q0 -89 -33.5 -166t-97.5 -138q-60 -58 -140 -94.5t-169 -45.5v-167h-104v163q-175 7 -295 114
q-42 39 -69 75t-52 87l-6 12l50 29q33 17 54.5 24t44.5 7q33 0 61.5 -10.5t63.5 -36.5q39 -30 74 -46.5t74 -22.5v454q-87 33 -147.5 67.5t-104.5 75.5q-108 104 -108 263q0 74 28.5 139t80.5 114q49 46 113.5 75t137.5 38v137zM359 1016.5q7 -21.5 22 -38.5q29 -33 95 -58
v285q-58 -18 -91 -54t-33 -83q0 -30 7 -51.5zM726 562q-24 18 -55.5 33t-90.5 37v-411q94 19 152 77t58 136q0 79 -64 128z" />
    <glyph glyph-name="percent" unicode="%" horiz-adv-x="1604" 
d="M99.5 1223.5q25.5 67.5 71.5 118.5q48 52 111.5 79.5t137.5 27.5q73 0 137 -27.5t113 -79.5q46 -51 71.5 -118.5t25.5 -141.5q0 -72 -25.5 -139.5t-71.5 -119.5q-49 -52 -113 -79.5t-137 -27.5q-74 0 -137.5 27.5t-111.5 79.5q-46 52 -71.5 119.5t-25.5 139.5
q0 74 25.5 141.5zM464 90q-67 -90 -176 -90h-166l1006 1343q68 90 176 90h166zM312 966q19 -23 47 -36t61 -13t61 13t47 36q39 47 39 116q0 34 -10 64t-29 52t-47.5 35t-60.5 13t-60.5 -13t-47.5 -35t-29 -52t-10 -64q0 -69 39 -116zM858.5 493.5q25.5 67.5 71.5 118.5
q48 52 111.5 79.5t137.5 27.5q73 0 137 -27.5t113 -79.5q46 -51 71.5 -118.5t25.5 -141.5q0 -72 -25.5 -139.5t-71.5 -119.5q-49 -52 -113 -79.5t-137 -27.5q-74 0 -137.5 27.5t-111.5 79.5q-46 52 -71.5 119.5t-25.5 139.5q0 74 25.5 141.5zM1071 236q19 -23 47 -36t61 -13
t61 13t47 36q39 47 39 116q0 34 -10 64t-29 52t-47.5 35t-60.5 13t-60.5 -13t-47.5 -35t-29 -52t-10 -64q0 -69 39 -116z" />
    <glyph glyph-name="ampersand" unicode="&#x26;" horiz-adv-x="1421" 
d="M939 493l90 121q68 95 188 95h159l-278 -374l339 -335h-162q-54 0 -97.5 11t-83.5 33q-29 18 -61 50l-63 64q-87 -84 -194 -128t-225 -44q-98 0 -185.5 34t-154.5 97q-66 61 -102 143.5t-36 175.5q0 102 50 201t128 154q10 7 24 7q17 0 32 -6t46 -24q-53 53 -82 125
t-29 149q0 86 31 160.5t89 132.5q55 54 126 83.5t148 29.5q136 0 247.5 -62.5t191.5 -184.5l-64 -24q-48 -22 -102 -22q-28 0 -47 5.5t-54 25.5q-50 21 -89.5 31t-78.5 10q-31 0 -62 -11t-55 -31q-65 -51 -65 -142q0 -39 13 -70t42 -61q44 -45 158 -155l192 -188zM597 530
l-20 19l-117 115q-76 -30 -124 -93t-48 -135q0 -56 21.5 -101.5t61.5 -76.5q36 -29 83.5 -44t102.5 -15q142 0 259 111z" />
    <glyph glyph-name="quotesingle" unicode="'" horiz-adv-x="482" 
d="M120 1433h240l-22 -397q-3 -45 -30 -73.5t-69 -28.5q-41 0 -68 28.5t-29 73.5z" />
    <glyph glyph-name="parenleft" unicode="(" horiz-adv-x="623" 
d="M485 -12q15 -27 25 -69t10 -81q0 -40 -10.5 -71t-28.5 -45l-43 -32q-154 202 -237.5 445.5t-83.5 494.5t81.5 491t236.5 447l43 -33q19 -15 29 -46t10 -70q0 -35 -9.5 -76t-25.5 -75q-146 -269 -150 -637q0 -362 153 -643z" />
    <glyph glyph-name="parenright" unicode=")" horiz-adv-x="614" 
d="M123 1269q-15 28 -24.5 69.5t-9.5 80.5q0 88 38 117l43 32q155 -208 237 -448t82 -490q0 -251 -83.5 -494t-238.5 -446l-43 32q-18 15 -28 46t-10 70t9.5 80.5t24.5 69.5q154 283 154 643q-5 369 -151 638z" />
    <glyph glyph-name="asterisk" unicode="*" horiz-adv-x="800" 
d="M168 958l-88 155l118 69q20 12 42.5 17.5t59.5 8.5q-35 3 -58 9t-43 18l-120 70l90 155l119 -69q31 -17 57 -52l13 -18q-13 32 -18.5 53t-5.5 43v138h180v-138q0 -26 -5.5 -46.5t-19.5 -50.5q22 30 36.5 44.5t34.5 25.5l120 69l88 -156l-119 -69q-22 -12 -43 -17.5
t-57 -8.5q34 -3 57 -9t43 -18l119 -70l-90 -154l-119 69q-20 11 -35 26t-37 45q26 -50 26 -97v-138h-179v138q0 24 5.5 45t18.5 51q-21 -28 -36 -42.5t-35 -26.5z" />
    <glyph glyph-name="plus" unicode="+" horiz-adv-x="1164" 
d="M471 190v369h-369v214h369v371h214v-371h371v-214h-371v-369h-214z" />
    <glyph glyph-name="comma" unicode="," horiz-adv-x="424" 
d="M85 205.5q20 33.5 54 53.5q34 19 73 19t73 -19.5t54 -52.5q20 -35 20 -73q0 -109 -45 -201t-138 -170q-28 28 -34 38t-6 30t6.5 36.5t22.5 38.5t23 41.5t8 43.5q-64 16 -97.5 52.5t-33.5 90.5q0 39 20 72.5z" />
    <glyph glyph-name="hyphen" unicode="-" horiz-adv-x="718" 
d="M621 560h-528v214h528v-214z" />
    <glyph glyph-name="period" unicode="." horiz-adv-x="462" 
d="M335 28q-43 -43 -105 -43q-29 0 -56 11.5t-48 31.5q-43 40 -43 103q0 30 11.5 57t31.5 47q44 42 104 42q62 0 105 -42q20 -20 31.5 -47t11.5 -57q0 -63 -43 -103z" />
    <glyph glyph-name="slash" unicode="/" horiz-adv-x="884" 
d="M628 1371q21 46 61 73.5t90 27.5h112l-638 -1462q-20 -45 -62.5 -72.5t-93.5 -27.5h-106z" />
    <glyph glyph-name="zero" unicode="0" horiz-adv-x="1324" 
d="M144 932q0 105 39.5 199.5t112.5 166.5t167.5 111.5t198.5 39.5t199 -39.5t168 -111.5q72 -72 111.5 -167t39.5 -199v-432q0 -104 -39.5 -198t-112.5 -166t-168 -111.5t-198 -39.5q-104 0 -199 39.5t-167 111.5q-73 73 -112.5 167.5t-39.5 197.5v431zM360 517
q0 -60 23.5 -115.5t65.5 -97.5t97.5 -65t115.5 -23t115 23t98 65q42 42 65.5 97.5t23.5 115.5v401q0 60 -23.5 115.5t-65.5 97.5t-97.5 65.5t-115.5 23.5t-116 -23.5t-98 -65.5t-65.5 -97.5t-23.5 -115.5z" />
    <glyph glyph-name="one" unicode="1" horiz-adv-x="1182" 
d="M575 -1v1136l-18 -25q-33 -46 -52 -59q-43 -36 -100 -36q-47 0 -77 30l-70 69l338 322h209v-1437h-230z" />
    <glyph glyph-name="two" unicode="2" horiz-adv-x="1172" 
d="M1062 0h-942v77q0 60 12 96.5t43 67.5l47 47q325 325 482 518q64 77 89.5 125t25.5 91q0 45 -22.5 84.5t-62.5 67.5q-36 25 -81 38.5t-88 13.5q-102 0 -166 -58q-36 -32 -66.5 -46.5t-64.5 -14.5q-41 0 -84 25l-62 33l18 34q27 48 53 81t56 58q128 113 316 113
q95 0 182 -31.5t154 -88.5q70 -61 107.5 -141.5t37.5 -171.5q0 -62 -16.5 -115t-52.5 -110q-87 -143 -345 -410l-69 -70l-36 -36q-31 -34 -86 -52h621v-225z" />
    <glyph glyph-name="three" unicode="3" horiz-adv-x="1088" 
d="M961 259q-34 -81 -97 -144q-64 -61 -146 -95t-168 -34q-97 0 -180 29t-148 86q-36 32 -71 80.5t-60 100.5l23 12q52 28 79 37q26 8 48 8q33 0 65.5 -14t56.5 -38l12 -9q74 -66 175 -66q44 0 84 17t70 47q31 30 48 69.5t17 81.5q0 44 -17 85t-48 72t-71.5 48.5t-82.5 17.5
h-110v213h110q36 0 68.5 14.5t57.5 40.5q24 25 38 58.5t14 69.5q0 68 -53 121q-25 23 -57 35.5t-67 12.5h-10q-9 0 -10 -1q-2 0 -3 1h-4q-35 -4 -73 -24l-80 -39q-22 -16 -61 -16q-59 0 -118 44l-56 42q97 114 196.5 170t207.5 56q83 0 158.5 -30t132.5 -85
q58 -57 90 -131.5t32 -154.5q0 -78 -49 -163q-21 -38 -49 -69.5t-56 -49.5q36 -21 72 -58t63 -82q61 -103 61 -198q0 -87 -34 -168z" />
    <glyph glyph-name="four" unicode="4" horiz-adv-x="1172" 
d="M698 0v326h-618v121q0 48 27 97q11 23 28 43q18 34 41 68l208 347l14 23l45 75l148 248q23 39 59 61t78 22h203v-880h187v-225h-187v-326h-233zM663 1037l-246 -423q-11 -20 -27.5 -37t-32.5 -26h344v571z" />
    <glyph glyph-name="five" unicode="5" horiz-adv-x="1177" 
d="M1008 1208h-506l-16 -108l-17 -108q57 30 108 30q98 0 187.5 -36t158.5 -102q72 -69 110 -159.5t38 -194.5q0 -108 -42 -208t-118 -176q-79 -76 -180 -118t-206 -42q-116 0 -222 48.5t-190 138.5l50 50q21 21 49.5 35t55.5 16h8q16 0 36 -4t32 -10q79 -31 111 -39.5
t70 -8.5q65 0 123 24t103 69q44 43 68.5 101t24.5 123q0 63 -24 116.5t-69 92.5q-43 37 -101 57t-124 20q-37 0 -98 -21q-54 -22 -96 -22q-21 0 -40.5 9.5t-34.5 26.5q-33 41 -33 90v10l2 11l77 514h705v-225z" />
    <glyph glyph-name="six" unicode="6" horiz-adv-x="1130" 
d="M126 680q23 51 113 203l26 44q110 188 241 394q23 37 69 57.5t101 20.5l150 1l-228 -371q-17 -28 -42 -50l-36 -33q41 7 77 7q22 0 43 -3q97 -13 181 -63.5t143 -130.5q49 -67 74.5 -143.5t25.5 -156.5q0 -21 -5 -68q-13 -97 -64 -182.5t-131 -146.5
q-67 -49 -144.5 -75.5t-157.5 -26.5q-21 0 -68 5q-98 14 -181.5 62.5t-143.5 126.5q-49 66 -76 141t-27 151q0 34 5 63.5t20 85.5q11 41 35 88zM837 457q0 78 -37.5 140.5t-95.5 96.5q-45 28 -102 35q-21 3 -40 3q-78 0 -138 -37.5t-95 -97.5q-29 -47 -36 -101
q-3 -19 -3 -39q0 -77 38.5 -138.5t97.5 -97.5q46 -28 100 -35q18 -3 37 -3q45 0 87.5 14.5t77.5 42.5q91 70 106 180q3 18 3 37z" />
    <glyph glyph-name="seven" unicode="7" horiz-adv-x="1122" 
d="M119 1433h943v-78q0 -34 -6.5 -59t-25.5 -63l-493 -1133q-21 -48 -62 -74t-95 -26h-138l491 1132q8 18 22 34.5t42 40.5h-678v226z" />
    <glyph glyph-name="eight" unicode="8" horiz-adv-x="1129" 
d="M208 1234q29 69 83 123q54 53 124.5 82.5t146.5 29.5q75 0 145.5 -29.5t124.5 -82.5q54 -54 83 -123t29 -145q0 -74 -28.5 -142t-79.5 -119q96 -66 148.5 -165t52.5 -215q0 -96 -35.5 -181.5t-101.5 -149.5q-66 -65 -153.5 -100.5t-184.5 -35.5q-98 0 -185 35t-153 101
q-66 64 -102 150t-36 182q0 113 52.5 212.5t146.5 166.5q-50 51 -78 119.5t-28 141.5q0 76 29 145zM409.5 1021q12.5 -31 34.5 -55q22 -23 52.5 -36t65.5 -13q47 0 85.5 22t60.5 61q22 37 22 84q0 70 -48 119q-23 24 -54 37t-66 13t-65.5 -13t-52.5 -37q-47 -50 -47 -119
q0 -32 12.5 -63zM328.5 354.5q19.5 -46.5 54.5 -81.5q36 -36 82 -55.5t97 -19.5q50 0 96 19.5t82 55.5q35 35 54.5 81.5t19.5 97.5q0 50 -19.5 96.5t-54.5 82.5q-34 36 -80.5 56t-97.5 20q-50 0 -96.5 -20t-82.5 -56t-55 -82t-19 -97t19.5 -97.5z" />
    <glyph glyph-name="nine" unicode="9" horiz-adv-x="1130" 
d="M1006 719q-41 -77 -114 -203q-46 -80 -221 -362q-1 -1 -7 -12t-24 -45q-28 -50 -79 -74t-107 -24l-149 1l227 369q19 30 43 50l35 33q-41 -7 -77 -7q-22 0 -43 3q-98 14 -182 64.5t-142 129.5q-49 67 -74.5 143t-25.5 156q0 22 5 69q13 97 64 182.5t131 146.5
q67 49 144.5 75.5t157.5 26.5q21 0 68 -5q95 -14 180.5 -63.5t144.5 -125.5q49 -66 76 -141t27 -151q0 -33 -5.5 -67.5t-19.5 -81.5q-13 -45 -33 -87zM293 940q0 -77 37.5 -138t96.5 -97q47 -29 101 -36q20 -3 38 -3q77 0 138.5 38.5t97.5 97.5q27 46 35 100q3 21 3 42
q0 77 -37.5 138t-96.5 96q-47 27 -102 34q-20 3 -37 3q-64 0 -122 -28.5t-98 -81.5q-41 -54 -51 -127q-3 -19 -3 -38z" />
    <glyph glyph-name="colon" unicode=":" horiz-adv-x="531" 
d="M390.5 830.5q-19.5 -33.5 -53.5 -53.5q-35 -20 -75 -20q-29 0 -56 11.5t-48 31.5q-43 43 -43 103q0 61 43 104q20 20 47 31.5t57 11.5q41 0 75 -19.5t54 -53.5q19 -34 19 -74q0 -39 -19.5 -72.5zM367 28q-21 -20 -48 -31.5t-56 -11.5q-62 0 -105 43q-43 40 -43 103
q0 30 11.5 57t31.5 47q44 42 105 42t104 -42q20 -20 31.5 -47t11.5 -57q0 -63 -43 -103z" />
    <glyph glyph-name="semicolon" unicode=";" horiz-adv-x="524" 
d="M367 802q-21 -20 -48 -31.5t-56 -11.5q-41 0 -74 19.5t-54 53.5q-20 35 -20 73q0 30 11.5 57t31.5 47q44 42 105 42t104 -42q20 -20 31.5 -47t11.5 -57q0 -60 -43 -103zM126.5 189q11.5 27 31.5 47q44 42 104 42q61 0 104 -42q20 -20 31.5 -47t11.5 -57
q0 -109 -44.5 -199.5t-139.5 -170.5l-17 17q-13 12 -18 23.5t-5 26.5q0 21 6.5 37.5t22.5 38.5q18 27 24 43.5t7 40.5q-63 15 -96.5 52t-33.5 91q0 30 11.5 57z" />
    <glyph glyph-name="less" unicode="&#x3c;" horiz-adv-x="1160" 
d="M119 726q0 91 101 136l731 315v-122q0 -63 -41.5 -106.5t-134.5 -79.5q-115 -46 -219 -93l-214 -95q-10 -7 -23 -8l-20 -5q17 -4 31 -10l31 -12l351 -152l86 -39q94 -40 132 -98q21 -31 21 -76v-123l-731 315q-101 45 -101 137v116z" />
    <glyph glyph-name="equal" unicode="=" horiz-adv-x="1160" 
d="M1006 773h-854v214h854v-214zM1006 347h-854v214h854v-214z" />
    <glyph glyph-name="greater" unicode="&#x3e;" horiz-adv-x="1160" 
d="M1035 610q0 -90 -102 -137l-730 -315v123q0 51 31.5 94t88.5 67l357 156l89 38l43 19l22 7l20 6l-43 13l-44 20q-99 46 -199 87l-203 87q-9 5 -46 19q-52 22 -84 66t-32 95v122l730 -315q102 -46 102 -136v-116z" />
    <glyph glyph-name="question" unicode="?" horiz-adv-x="876" 
d="M9 1189q123 256 413 256q135 0 232.5 -44t149.5 -129q51 -85 51 -205q0 -63 -21.5 -117.5t-66.5 -105.5q-26 -33 -71 -75q-95 -89 -142 -156q-27 -37 -27 -70v-80h-215v73q0 125 85 228q45 54 78 83l20 18q98 89 126 134q17 29 17 60q0 90 -50.5 134t-157.5 44
q-44 0 -85.5 -12.5t-72.5 -34.5q-25 -22 -54.5 -34.5t-58.5 -12.5q-30 0 -83 17zM526 28q-21 -20 -48 -31.5t-56 -11.5q-62 0 -105 43q-43 40 -43 103q0 30 11.5 57t31.5 47q44 42 105 42q60 0 104 -42q20 -20 31.5 -47t11.5 -57q0 -63 -43 -103z" />
    <glyph glyph-name="at" unicode="@" horiz-adv-x="1666" 
d="M1114 615l-30 -147l-5 -31q-1 -1 -1 -16q0 -68 48 -68q68 0 126.5 30t98.5 85q35 44 54.5 101.5t19.5 112.5q0 155 -81.5 272t-228.5 175q-117 49 -241 49q-178 0 -326 -93q-66 -42 -121.5 -101.5t-94.5 -131.5q-38 -70 -58 -147t-20 -155q0 -164 84 -302t235 -222
q69 -38 145.5 -58t155.5 -20q102 0 209.5 28.5t209.5 82.5q32 17 68 17q30 0 60.5 -14.5t49.5 -36.5l33 -40l-25 -19q-82 -63 -196.5 -111.5t-236.5 -71.5q-65 -16 -172 -16q-102 0 -202.5 26.5t-191.5 77.5q-90 50 -164.5 120.5t-128.5 156.5q-56 91 -85.5 193t-29.5 209
q0 220 114 412q54 90 128 163t164 125q91 53 191.5 81t204.5 28q90 0 180 -22t172 -63q83 -43 152.5 -102.5t119.5 -132.5q109 -160 109 -357q0 -63 -15.5 -126t-44.5 -120q-64 -124 -175.5 -196.5t-242.5 -72.5q-36 0 -69.5 10.5t-58.5 28.5q-53 39 -53 90q-18 -19 -49 -31
t-63 -12q-5 0 -6 1h-7q-14 -36 -52.5 -58t-84.5 -22q-51 0 -94.5 18t-74.5 52q-32 39 -49 87t-17 102q0 122 52 220t151 165q86 62 206.5 94t261.5 33l64 -2zM813.5 385q50.5 38 80.5 110q18 40 33 99l41 169q-81 -12 -145.5 -41.5t-108.5 -73.5q-84 -85 -84 -209
q0 -44 18 -68t49 -24q66 0 116.5 38z" />
    <glyph glyph-name="A" unicode="A" horiz-adv-x="1554" 
d="M670 1433h215l625 -1433h-138q-52 0 -94 26.5t-63 73.5l-92 211h-692l-91 -211q-20 -45 -63 -72.5t-94 -27.5h-139zM533 542h489l-224 516q-19 40 -21 89q-7 -54 -21 -89z" />
    <glyph glyph-name="B" unicode="B" horiz-adv-x="1341" 
d="M598 1q-9 -1 -212 -1h-213v1433h580q83 0 159 -31.5t133 -88.5t88.5 -132.5t31.5 -158.5q0 -41 -12.5 -87.5t-34.5 -86.5q-24 -44 -52.5 -69.5t-57.5 -28.5q42 -3 83 -33t74 -81q31 -49 49 -106.5t18 -108.5q0 -83 -32.5 -161t-90.5 -136t-136.5 -90.5t-162.5 -32.5h-212
zM403 1202v-360h353q36 0 69.5 14t58.5 39q24 24 38 57t14 69t-14 69.5t-38 58.5q-25 25 -58.5 39t-69.5 14h-353zM813 231q36 0 70 14.5t61 41.5t42.5 62t15.5 73t-14.5 73t-40.5 61t-60.5 40.5t-72.5 14.5h-411v-380h410z" />
    <glyph glyph-name="C" unicode="C" horiz-adv-x="1456" 
d="M358.5 523.5q38.5 -91.5 109.5 -161.5q70 -70 162 -108.5t193 -38.5q154 0 284 90q44 27 92 27q39 0 68 -12t56 -39l49 -49q-109 -118 -252 -182.5t-297 -64.5q-146 0 -280.5 56t-237.5 159t-159 237t-56 280q0 99 25.5 193t74.5 176q48 81 115 148t148 115
q82 48 176.5 73.5t193.5 25.5q152 0 296 -65t253 -182l-49 -49q-52 -52 -124 -52q-48 0 -92 29q-134 89 -284 89q-101 0 -193 -38.5t-162 -108.5t-109 -162.5t-39 -191.5q0 -102 38.5 -193.5z" />
    <glyph glyph-name="D" unicode="D" horiz-adv-x="1534" 
d="M174 0v1433h551q98 0 190.5 -25t172.5 -73q81 -48 147 -113.5t111 -143.5q48 -82 73 -174t25 -188q0 -191 -98 -361q-46 -78 -111.5 -144t-146.5 -113q-82 -48 -174.5 -73t-188.5 -25h-551zM725 230q97 0 186.5 37t158.5 105q69 69 106 157.5t37 186.5q0 96 -37.5 185.5
t-105.5 157.5q-69 68 -159 105.5t-186 37.5h-321v-972h321z" />
    <glyph glyph-name="E" unicode="E" horiz-adv-x="1182" 
d="M1077 0h-903v1433h903v-225h-673v-373h545v-225h-545v-385h673v-225z" />
    <glyph glyph-name="F" unicode="F" horiz-adv-x="1152" 
d="M970 808v-225h-566v-583h-230v1433h903v-225h-673v-400h566z" />
    <glyph glyph-name="G" unicode="G" horiz-adv-x="1499" 
d="M1361 748v-589q-86 -89 -217 -131t-320 -42q-99 0 -193 25.5t-176 74.5q-81 47 -148 114t-115 148q-49 82 -74.5 176t-25.5 193t25.5 193t74.5 176q48 81 115 148t148 115q82 48 176 73.5t193 25.5q154 0 297 -64.5t252 -182.5l-48 -49q-27 -27 -56.5 -39.5t-67.5 -12.5
q-51 0 -92 29q-134 89 -285 89q-101 0 -192.5 -38.5t-161.5 -108.5t-109 -162.5t-39 -191.5q0 -98 40 -190.5t113 -165.5q73 -70 165.5 -108t193.5 -38q174 0 297 55v253h-59q-73 0 -123 48q-23 22 -35 51.5t-12 63.5v62h459z" />
    <glyph glyph-name="H" unicode="H" horiz-adv-x="1549" 
d="M1372 0h-230v608h-738v-608h-230v1433h230v-600h738v600h230v-1433z" />
    <glyph glyph-name="I" unicode="I" horiz-adv-x="649" 
d="M440 0h-230v1433h230v-1433z" />
    <glyph glyph-name="J" unicode="J" horiz-adv-x="1023" 
d="M649 1433h230v-954q0 -146 -58.5 -255.5t-168.5 -169.5q-112 -61 -267 -61q-99 0 -185.5 34t-155.5 101l68 68q50 50 121 50q16 0 29.5 -3t41.5 -13q51 -17 81 -17q83 0 143 33t91 94q30 60 30 139v954z" />
    <glyph glyph-name="K" unicode="K" horiz-adv-x="1394" 
d="M423 0h-230v1433h230v-1433zM987 1337q30 46 76 71t103 25h177l-489 -665q-11 -16 -24 -23l-15 -8l15 -9q12 -9 24 -23l522 -705h-177q-117 0 -180 95l-430 580q-21 29 -50 47l-18 11q-8 3 -9 4l9 3q38 17 68 59z" />
    <glyph glyph-name="L" unicode="L" horiz-adv-x="1046" 
d="M144 0v1433h230v-1208h606v-225h-836z" />
    <glyph glyph-name="M" unicode="M" horiz-adv-x="1923" 
d="M1750 0h-230v1094l-15 -52q-9 -43 -19 -61l-39 -88l-378 -893h-216l-208 491l-210 490q-8 20 -32 104v-1085h-230v1433h213q52 0 94.5 -28t61.5 -73l398 -948q8 -20 13.5 -47t6.5 -49q4 39 8 58.5t12 37.5l19 44l78 178l301 726q20 47 62.5 74t94.5 27h215v-1433z" />
    <glyph glyph-name="N" unicode="N" horiz-adv-x="1591" 
d="M1416 0h-202l-752 1037q-16 22 -34 64q-7 16 -12 30q-6 15 -10 19v-1150h-230v1433h186q101 0 141 -57l518 -721l129 -181q14 -20 23.5 -47t12.5 -55v1061h230v-1433z" />
    <glyph glyph-name="O" unicode="O" horiz-adv-x="1650" 
d="M117.5 910q25.5 94 74.5 176q48 81 115 148t148 115q82 48 176.5 73.5t193.5 25.5q199 0 370 -99q81 -48 148 -115t115 -148q49 -82 74.5 -176t25.5 -193t-25.5 -193t-74.5 -176q-48 -81 -115 -148t-148 -115q-169 -100 -370 -100q-146 0 -280.5 56t-237.5 159t-159 237
t-56 280q0 99 25.5 193zM360.5 523.5q38.5 -91.5 109.5 -161.5q70 -70 162 -108.5t193 -38.5q98 0 190.5 38.5t164.5 108.5q70 70 108.5 162t38.5 193q0 99 -38.5 191.5t-108.5 162.5q-72 70 -164.5 108.5t-190.5 38.5q-101 0 -193 -38.5t-162 -108.5t-109 -162.5
t-39 -191.5q0 -102 38.5 -193.5z" />
    <glyph glyph-name="P" unicode="P" horiz-adv-x="1263" 
d="M430 0h-230v1433h518q92 0 176.5 -35t148.5 -99t99 -147.5t35 -175.5t-35 -175.5t-99 -147.5t-148.5 -99t-176.5 -35h-288v-519zM721 749q45 0 87 17.5t73 48.5t48 73t17 88t-17 87.5t-48 72.5t-73 48.5t-87 17.5h-291v-453h291z" />
    <glyph glyph-name="Q" unicode="Q" horiz-adv-x="1650" 
d="M1019 136l73 -99q-127 -51 -267 -51q-99 0 -193.5 25.5t-176.5 74.5q-81 47 -148 114t-115 148q-49 82 -74.5 176t-25.5 193t25.5 193t74.5 176q48 81 115 148t148 115q82 48 176.5 73.5t193.5 25.5q199 0 370 -99q81 -48 148 -115t115 -148q49 -82 74.5 -176t25.5 -193
q0 -137 -50.5 -265t-144.5 -231l384 -518h-169q-126 0 -188 96q-86 118 -171 234l-69 93l-37 49l-67 91q84 44 147.5 114.5t99.5 158.5q34 84 34 178q0 99 -38.5 191.5t-108.5 162.5q-72 70 -164.5 108.5t-190.5 38.5q-101 0 -193 -38.5t-162 -108.5t-109 -162.5t-39 -191.5
q0 -101 39 -193t110 -161q70 -69 163.5 -106.5t194.5 -37.5q60 0 117 15z" />
    <glyph glyph-name="R" unicode="R" horiz-adv-x="1322" 
d="M423 0h-230v1433h520q86 0 164.5 -32.5t139.5 -92.5q60 -58 92.5 -136.5t32.5 -165.5q0 -65 -20 -127.5t-57 -114.5q-75 -106 -197 -153l453 -611h-171q-63 0 -111 24t-77 71q-6 10 -33 47l-146 197l-146 195l-35 46h-179v-580zM423 1202v-392h293q39 0 75 15.5t63 42.5
t42 63t15 75t-15 75.5t-42 63.5t-63 42t-75 15h-293z" />
    <glyph glyph-name="S" unicode="S" horiz-adv-x="1091" 
d="M454.5 1198q-47.5 -19 -74.5 -53q-28 -34 -28 -77q0 -46 17.5 -74.5t58.5 -50.5q45 -23 103 -44q130 -45 188 -69.5t105 -53.5q127 -79 173 -203q23 -72 23 -139q0 -95 -39.5 -178.5t-111.5 -144.5q-70 -60 -160.5 -92.5t-189.5 -32.5q-201 0 -341 128q-71 65 -119 166
q28 13 36 19q36 20 69 30q35 5 39 5q31 0 62.5 -11t54.5 -30l8 -6q52 -37 98 -54.5t93 -17.5q46 0 93.5 14.5t86.5 41.5q44 31 67.5 72.5t23.5 90.5q0 47 -21.5 82t-66.5 62q-39 24 -87 42l-29 10q-143 52 -207 82t-120 73q-72 52 -105 119.5t-33 163.5q0 84 35 156.5
t101 124.5q60 48 138.5 73.5t162.5 25.5q101 0 207.5 -59t188.5 -159l-51 -39q-24 -21 -57 -33.5t-64 -12.5q-23 0 -47 9q-26 9 -78 34l-20 10q-37 19 -79 19q-56 0 -103.5 -19z" />
    <glyph glyph-name="T" unicode="T" horiz-adv-x="1155" 
d="M27 1208v226h1098v-226h-433v-1208h-230v1208h-435z" />
    <glyph glyph-name="U" unicode="U" horiz-adv-x="1464" 
d="M385 564q0 -71 27 -135t76 -112q49 -49 113 -76t135 -27t135 27t113 76t76 113.5t27 133.5v869h231v-869q0 -116 -44.5 -222.5t-125.5 -187.5t-188 -125.5t-224 -44.5t-224 44.5t-186 125.5q-82 82 -126.5 188t-44.5 222v869h230v-869z" />
    <glyph glyph-name="V" unicode="V" horiz-adv-x="1432" 
d="M1161 1332q20 46 63 73.5t94 27.5h138l-625 -1433h-215l-625 1433h138q48 0 94 -28q21 -13 37.5 -32t25.5 -41l417 -956q8 -18 12 -37t8 -57q0 18 5.5 44t15.5 49z" />
    <glyph glyph-name="W" unicode="W" horiz-adv-x="1998" 
d="M-57 1433h138q51 0 94 -28t63 -73l419 -958q18 -46 19 -91q3 43 13 68q12 40 53 134q17 33 30 66l216 549l288 -662q26 -59 35.5 -89.5t12.5 -64.5q1 40 19 90l419 958q9 22 25 41t36 32q46 28 95 28h138l-625 -1433h-215l-220 505l-212 -505h-216z" />
    <glyph glyph-name="X" unicode="X" horiz-adv-x="1486" 
d="M1415 1433q-227 -308 -219 -297q-17 -23 -27 -37l-248 -335q-13 -16 -13 -37q0 -19 12 -36l511 -691h-147q-47 0 -83 10t-67 31q-25 17 -48.5 42.5t-54.5 68.5l-269 365q-8 11 -13.5 26.5t-6.5 25.5q0 -12 -9 -30q-19 -32 -31 -48l-21 -31l-226 -308q-37 -46 -61 -71.5
t-48 -42.5q-34 -19 -68 -28.5t-76 -9.5h-147l492 666q27 33 29 60q0 19 -11 36l-496 671h147q49 0 84.5 -9.5t63.5 -29.5q25 -18 46.5 -41.5t56.5 -69.5q81 -112 128 -174q65 -86 129 -174q9 -10 15 -34l3 -14l1 -6q0 10 5 25t13 29l27 37l21 29l10 14l7 9l77 103l114 155
q29 42 54 68.5t53 45.5q31 19 65.5 28t78.5 9h147z" />
    <glyph glyph-name="Y" unicode="Y" horiz-adv-x="1378" 
d="M806 0h-231v606q0 30 -11 55.5t-44 70.5l-517 701h168q127 0 188 -96l311 -420q8 -12 13.5 -27.5t6.5 -27.5q0 10 6 27t15 28l310 420q62 96 188 96h170l-518 -701q-34 -45 -44.5 -69t-10.5 -57v-606z" />
    <glyph glyph-name="Z" unicode="Z" horiz-adv-x="1260" 
d="M399 203q12 12 30 19q9 3 20 3h723v-225h-1086v80q0 68 38 136q24 39 37 55l26 36l19 25l643 876h-725v226h1053v-99q0 -74 -40 -126z" />
    <glyph glyph-name="bracketleft" unicode="[" horiz-adv-x="648" 
d="M142 1533h395l-24 -207h-165v-1409h165l24 -206h-395v1822z" />
    <glyph glyph-name="backslash" unicode="\" horiz-adv-x="855" 
d="M882 -90h-106q-51 0 -93.5 27.5t-62.5 73.5l-638 1461h112q50 0 90 -27.5t61 -73.5z" />
    <glyph glyph-name="bracketright" unicode="]" horiz-adv-x="632" 
d="M491 -289h-395l23 206h166v1409h-166l-23 207h395v-1822z" />
    <glyph glyph-name="asciicircum" unicode="^" horiz-adv-x="1069" 
d="M536 1448q51 0 94 -27.5t63 -73.5l104 -241l104 -243h-82q-59 0 -101.5 24t-61.5 67q-15 32 -30 69l-19 45l-13 32q-10 22 -30 76l-27 68l-7 19l-4 14l-10 -37l-20 -45l-23 -56q-14 -38 -51 -129l-11 -29q-10 -27 -29.5 -51.5t-43.5 -40.5q-41 -26 -102 -26h-84l17 40
l87 203q41 91 104 241q19 44 62.5 72.5t94.5 28.5h19z" />
    <glyph glyph-name="underscore" unicode="_" horiz-adv-x="788" 
d="M790 -345h-790v213h790v-213z" />
    <glyph glyph-name="grave" unicode="`" horiz-adv-x="652" 
d="M87 1467h148q90 0 128 -50q6 -6 41 -66l108 -191h-103q-90 0 -129 51z" />
    <glyph glyph-name="a" unicode="a" horiz-adv-x="1094" 
d="M170 883q28 46 103 102q124 79 283 79q158 0 253 -69t135 -210q28 -94 28 -261v-524h-188q-14 17 -22 42.5t-8 50.5q-51 -45 -137 -76t-156 -31q-80 0 -147.5 23t-115.5 66q-49 43 -76 104t-27 130q0 168 128.5 257.5t370.5 89.5q24 0 96 -5l33 -3l18 -3q-7 104 -54 156
t-132 52q-34 0 -61 -6t-63 -19q-39 -17 -55 -21.5t-38 -4.5q-55 0 -104 37zM601.5 218.5q76.5 22.5 145.5 61.5v161l-20 2q-36 0 -38 1l-104 2q-127 0 -196 -34.5t-69 -99.5q0 -56 37 -86t104 -30q64 0 140.5 22.5z" />
    <glyph glyph-name="b" unicode="b" horiz-adv-x="1219" 
d="M152 0v1433h230v-456q98 86 245 86q107 0 203 -41t169 -117q72 -75 110.5 -173t38.5 -208t-38.5 -208t-110.5 -173q-73 -76 -169 -117t-203 -41q-159 0 -256 91q-6 -15 -16 -54q-6 -22 -12 -22h-191zM744.5 234.5q54.5 23.5 94.5 68.5q39 42 60.5 99t21.5 122t-21.5 122
t-60.5 100q-40 43 -95 67t-117 24q-69 0 -133 -26.5t-112 -73.5v-426q49 -46 114.5 -73t130.5 -27q63 0 117.5 23.5z" />
    <glyph glyph-name="c" unicode="c" horiz-adv-x="1042" 
d="M496.5 813q-57.5 -24 -103.5 -67q-44 -43 -68.5 -100.5t-24.5 -120.5q0 -65 24 -122t69 -100q46 -43 103.5 -67t117.5 -24q39 0 78.5 9.5t103.5 34.5q19 13 61 13q30 0 58 -13.5t68 -46.5l39 -38q-83 -89 -188.5 -137t-219.5 -48q-107 0 -206 41t-175 117
q-76 75 -117.5 174t-41.5 207t41.5 207t117.5 174q76 76 175 117t206 41q110 0 216.5 -48.5t191.5 -136.5l-39 -39q-27 -27 -62.5 -42.5t-72.5 -15.5q-25 0 -34 2t-20 10q-62 23 -102 32.5t-78 10.5q-60 0 -117.5 -24z" />
    <glyph glyph-name="d" unicode="d" horiz-adv-x="1208" 
d="M1068 0h-192l-4 6q-9 13 -16.5 34.5t-8.5 35.5q-97 -91 -254 -91q-107 0 -203.5 41.5t-168.5 116.5t-110.5 173t-38.5 208t38.5 208t110.5 173t168.5 116.5t203.5 41.5q147 0 245 -89v459h230v-1433zM476 812q-55 -24 -95 -67q-39 -42 -60.5 -99t-21.5 -122t21.5 -122.5
t60.5 -99.5q40 -43 95 -67t117 -24q66 0 131 26.5t114 72.5v427q-49 46 -114 72.5t-131 26.5q-62 0 -117 -24z" />
    <glyph glyph-name="e" unicode="e" horiz-adv-x="1213" 
d="M1088 495q-22 -19 -49 -29.5t-52 -10.5h-677q7 -46 32.5 -91t65.5 -81q42 -38 94.5 -59t109.5 -21q84 0 154 40q41 23 88 23q66 0 117 -51l49 -49q-81 -87 -186 -134t-222 -47q-107 0 -206 41.5t-175 117.5t-117.5 175t-41.5 206q0 108 41.5 207t117.5 174q76 76 175 117
t206 41q89 0 174.5 -30t157.5 -86q69 -54 118.5 -128t72.5 -160q4 -7 4 -25q0 -23 1 -24q0 -70 -52 -116zM899 663q-15 36 -42 69t-62 58q-83 56 -180 56q-109 0 -195 -65q-38 -29 -64.5 -67t-38.5 -80q10 13 26 21t34 8h522z" />
    <glyph glyph-name="f" unicode="f" horiz-adv-x="726" 
d="M205 0v824h-169v127q0 48 35.5 70t115.5 22h18v107q0 63 19.5 116t56.5 92t89.5 60t115.5 21q27 0 64 -9t74 -24q81 -33 124 -73l-30 -48q-47 -74 -136 -74q-19 0 -31 4q-13 4 -54 4q-27 0 -45 -23t-18 -56v-46q0 -50 1 -52h251v-218h-251v-824h-230z" />
    <glyph glyph-name="g" unicode="g" horiz-adv-x="1048" 
d="M1007 921q-22 -51 -55.5 -73t-89.5 -22q32 -88 32 -156q0 -78 -30 -150.5t-85 -127.5q-57 -57 -129.5 -87.5t-152.5 -30.5q-81 0 -174 38q-31 -21 -40 -33q-12 -15 -12 -26q0 -9 4 -13l6 -6q17 -17 71 -23q41 -7 142 -7h66q69 -3 115 -9.5t85 -19.5q79 -27 122 -88.5
t43 -144.5q0 -61 -24.5 -113t-71.5 -90q-97 -82 -275 -82q-108 0 -221 27.5t-288 95.5q20 53 30 72q10 22 22 34q37 46 107 46q46 0 90 -18l39 -14q109 -41 214 -41q25 0 54 5t49 14q63 21 63 65q0 22 -14 33.5t-52 20.5q-33 9 -74 13t-123 6q-89 3 -130 7t-78 13
q-107 26 -145 101q-17 32 -17 73q0 45 37 93.5t99 83.5q-58 58 -88 129.5t-30 151.5q0 78 31 151.5t86 128.5t128 85.5t153 30.5q125 0 225 -70q28 13 65 21.5t73 8.5t76 -8t95 -25zM325.5 596q14.5 -34 39.5 -59t59 -39.5t72 -14.5q36 0 70.5 14.5t59.5 39.5t39.5 59
t14.5 72q0 36 -14.5 70.5t-39.5 59.5t-59.5 39.5t-70.5 14.5q-38 0 -72 -14.5t-59 -39.5t-39.5 -59.5t-14.5 -70.5q0 -38 14.5 -72z" />
    <glyph glyph-name="h" unicode="h" 
d="M337 1433q22 -28 33 -61q6 -18 6 -39v-384q35 53 109 84t164 31q89 0 163 -32.5t127 -94.5q54 -63 82 -150t28 -193v-594h-231v591q0 123 -43 187.5t-126 64.5q-48 0 -97.5 -12.5t-89.5 -34.5q-37 -22 -60 -51.5t-26 -59.5v-685h-230v1433h191z" />
    <glyph glyph-name="i" unicode="i" horiz-adv-x="564" 
d="M143.5 1371q11.5 27 32.5 48t48.5 32.5t57.5 11.5q59 0 106 -44q43 -43 43 -105q0 -40 -19.5 -74t-54.5 -55q-35 -20 -75 -20q-31 0 -58.5 11.5t-47.5 32.5q-21 21 -32.5 48t-11.5 57t11.5 57zM396 1037v-1037h-230v1037h230z" />
    <glyph glyph-name="j" unicode="j" horiz-adv-x="560" 
d="M143.5 1371q11.5 27 32.5 48t48.5 32.5t57.5 11.5t57.5 -11.5t48.5 -32.5t32.5 -48t11.5 -57t-11.5 -57t-32.5 -48q-20 -21 -47.5 -32.5t-58.5 -11.5t-58.5 11.5t-47.5 32.5q-21 21 -32.5 48t-11.5 57t11.5 57zM396 1037v-991q0 -17 -4 -24q-11 -135 -95 -246
q-40 -52 -93 -93t-113 -66q-32 68 -41 95t-9 58q0 51 41 101l35 43q33 39 44 95q4 11 4 46v982h231z" />
    <glyph glyph-name="k" unicode="k" horiz-adv-x="1166" 
d="M382 0h-230v1433h230v-1433zM783 954q30 46 76 71t103 25h177l-351 -477q-9 -14 -23 -23l-16 -9l16 -8q12 -8 23 -23l378 -510h-177q-118 0 -180 95l-285 384q-21 29 -50 47l-18 11q-8 3 -9 4l9 3q38 17 68 59z" />
    <glyph glyph-name="l" unicode="l" horiz-adv-x="562" 
d="M396 1433v-1433h-230v1433h230z" />
    <glyph glyph-name="m" unicode="m" horiz-adv-x="1719" 
d="M1416.5 1026.5q70.5 -37.5 116.5 -109.5q82 -124 82 -325v-592h-234v589q0 117 -38.5 185t-107.5 68q-101 0 -171 -52q-32 -23 -50 -51.5t-19 -55.5v-683h-233v591q0 118 -38.5 184.5t-107.5 66.5q-41 0 -83.5 -13t-80.5 -35q-33 -22 -53 -51t-23 -60v-683h-230v1050h194
l6 -11q21 -37 21 -93q33 54 106.5 86t161.5 32q213 0 276 -179q40 86 134.5 132.5t208.5 46.5q92 0 162.5 -37.5z" />
    <glyph glyph-name="n" unicode="n" 
d="M337 1050q0 -3 10 -16q10 -15 12 -39l8 -50q39 56 114 87.5t168 31.5q89 0 163 -32.5t127 -94.5q54 -63 82 -150t28 -193v-594h-231v591q0 121 -43.5 184.5t-129.5 63.5q-51 0 -98.5 -11t-84.5 -31t-60 -48t-26 -58v-691h-230v1050h191z" />
    <glyph glyph-name="o" unicode="o" horiz-adv-x="1226" 
d="M113.5 732q41.5 99 117.5 175t174.5 117t206.5 41t207.5 -41.5t174.5 -116.5t116.5 -174.5t41.5 -207.5t-41 -206.5t-117 -174.5t-175 -117.5t-207 -41.5q-107 0 -206 41.5t-175 117.5t-117.5 175t-41.5 206q0 108 41.5 207zM322 403.5q24 -56.5 68 -99.5
q45 -45 101.5 -68.5t119.5 -23.5q62 0 120 24.5t101 67.5q44 43 68 99.5t24 120.5q0 63 -24 120.5t-68 101.5q-46 43 -103.5 67t-117.5 24q-63 0 -119.5 -23.5t-101.5 -67.5q-44 -44 -68 -101.5t-24 -120.5q0 -64 24 -120.5z" />
    <glyph glyph-name="p" unicode="p" horiz-adv-x="1207" 
d="M337 1050l17 -32q11 -35 11 -73q17 59 112 93q35 12 74 19t70 7q107 0 204 -41t169 -117q72 -75 110.5 -173t38.5 -208t-38.5 -208t-110.5 -173q-72 -76 -169 -117t-204 -41q-154 0 -245 85v-410h-230v1389h191zM738 236q55 24 95 67q39 42 60.5 99.5t21.5 122.5
t-21.5 122t-60.5 100q-40 43 -95 67t-117 24q-69 0 -133 -26.5t-112 -73.5v-427q49 -46 114 -72.5t131 -26.5q62 0 117 24z" />
    <glyph glyph-name="q" unicode="q" horiz-adv-x="1218" 
d="M1068 1049v-1388h-230v410q-94 -85 -245 -85q-107 0 -203.5 41.5t-168.5 116.5t-110.5 173t-38.5 208t38.5 208t110.5 173t168.5 116.5t203.5 41.5q76 0 141 -23.5t115 -70.5q0 18 14 54l10 18q4 7 5 7h190zM724 238.5q65 26.5 114 72.5v427q-48 47 -112 73.5t-133 26.5
q-62 0 -117 -24t-95 -67q-39 -43 -60.5 -100t-21.5 -122t21.5 -122.5t60.5 -99.5q40 -43 95 -67t117 -24q66 0 131 26.5z" />
    <glyph glyph-name="r" unicode="r" horiz-adv-x="835" 
d="M324 1050q0 -1 5 -6q9 -12 16 -33t7 -39v-53q24 39 70 73t100 53q51 19 110 19q74 0 170 -35l-9 -48l-8 -49q-11 -47 -45 -73.5t-80 -26.5h-5q-2 0 -3 1h-22q-110 0 -193 -60q-36 -27 -56.5 -61.5t-21.5 -70.5v-641h-230v1050h195z" />
    <glyph glyph-name="s" unicode="s" horiz-adv-x="867" 
d="M99 236q31 19 76 34q15 7 41 7q23 0 44.5 -9.5t55.5 -33.5q46 -34 103 -34q25 0 51 8.5t47 23.5q47 35 47 92q0 24 -7.5 41t-26.5 32q-29 25 -129 58q-108 36 -173.5 80t-96.5 101t-31 134q0 59 27 113t77 97q47 40 106.5 62t120.5 22q108 0 208 -75q35 -25 63 -55
l13 -16l15 -18q-46 -41 -67 -57q-24 -18 -43 -25t-44 -7q-23 0 -48 13l-16 7q-51 20 -76 20q-51 0 -85 -31q-14 -12 -22 -27t-8 -27q0 -45 47 -72q17 -11 34 -18l64 -21q83 -25 134.5 -49t89.5 -56q97 -82 97 -222q0 -68 -27 -130t-76 -110q-51 -49 -119 -75.5t-145 -26.5
q-111 0 -208 62t-151 169z" />
    <glyph glyph-name="t" unicode="t" horiz-adv-x="764" 
d="M427 824v-538q0 -36 17 -58t46 -22q23 0 45 6q21 6 38 6q49 0 86 -25.5t70 -80.5l12 -18q-40 -40 -124 -75q-37 -15 -74.5 -24t-64.5 -9q-63 0 -116 21t-90 60q-37 38 -56.5 91t-19.5 116v550h-169v137q0 42 35.5 62t107.5 20h26v219q0 61 28 113q12 25 28 44h175v-376
h280v-219h-280z" />
    <glyph glyph-name="u" unicode="u" 
d="M833 0q-12 12 -21 42t-9 62q-39 -56 -113.5 -87t-168.5 -31q-89 0 -162.5 32.5t-126.5 94.5q-54 63 -82 149.5t-28 192.5v595h230v-591q0 -121 43.5 -184.5t129.5 -63.5q51 0 99 12t85 33q37 22 59.5 50.5t25.5 58.5v685h231v-1050h-192z" />
    <glyph glyph-name="v" unicode="v" horiz-adv-x="1075" 
d="M415 0q-114 264 -225 525l-225 525h138q52 0 94.5 -27.5t60.5 -72.5l244 -569q21 -49 32 -121q-1 24 11 66q12 35 45 109l221 516q20 45 62 72.5t93 27.5h137l-450 -1051h-238z" />
    <glyph glyph-name="w" unicode="w" horiz-adv-x="1721" 
d="M1087 0l-212 503l-211 -503h-239l-450 1051h138q50 0 93.5 -28.5t61.5 -71.5l223 -521q18 -41 41 -104q10 -27 13 -62q4 44 19 87l311 649l277 -570l18 -43q7 -9 17 -42q17 -51 19 -88q3 38 6.5 55.5t11.5 36.5l115 267l15 34q71 165 119 279l9 21q19 45 61.5 72.5
t93.5 27.5h137l-64 -152l-385 -898h-238z" />
    <glyph glyph-name="x" unicode="x" horiz-adv-x="1266" 
d="M853 973q29 41 73 59t114 18h139l-350 -475q-8 -14 -8 -29q0 -19 10 -32l380 -514h-139q-73 0 -118 17.5t-77 59.5q-40 47 -98 129l-109 147q-37 49 -37 76l-3 -14q-2 -12 -8 -22l-11 -19l-15 -21l-64 -86l-16 -21q-19 -26 -17 -24l-26 -35l-42 -55l-44 -55
q-32 -42 -77 -59.5t-117 -17.5h-138l378 513q12 17 12 33q0 13 -9 29q-9 12 -145 198l-14 19l-15 21l-175 237h139q70 0 116 -18t78 -60l195 -262q11 -14 14 -30l4 -20q1 1 4 20q2 16 13 30z" />
    <glyph glyph-name="y" unicode="y" horiz-adv-x="1156" 
d="M1127 1050l-582 -1334q-18 -47 -62 -76t-95 -29h-139l202 466l-423 973h139q54 0 96.5 -27.5t58.5 -73.5l206 -482q30 -70 30 -126v-12q0 -17 -3 -26l10 23q38 91 75 177l114 264l78 183q20 45 62 72t93 28h140z" />
    <glyph glyph-name="z" unicode="z" horiz-adv-x="961" 
d="M377 206q31 19 58 19h438v-225h-803v96q0 79 48 136q116 152 225 300l220 293h-461v225h783v-97q0 -73 -40 -125z" />
    <glyph glyph-name="braceleft" unicode="{" horiz-adv-x="621" 
d="M86 709q30 0 56.5 16t43.5 46q17 32 17 69q0 38 -4 67.5t-16 88.5q-11 47 -15.5 82.5t-4.5 80.5q0 107 37 189t108 133q42 31 90 50t83 19l8 -48l3 -23q3 -19 3 -32q0 -56 -35 -100q-19 -23 -28 -30l-23 -22q-39 -46 -39 -143q0 -37 4 -65.5t17 -85.5q11 -46 16 -88
t5 -96q0 -75 -30.5 -128.5t-83.5 -71.5q53 -17 84 -71t31 -128q0 -56 -5 -98t-16 -88q-13 -57 -17.5 -85.5t-4.5 -62.5q0 -98 39 -143l23 -22q63 -56 63 -131l-2 -26q-4 -15 -4 -29l-8 -47l-10 2q-33 5 -49 14q-19 4 -29 14q-113 42 -171 134t-58 227q0 40 4.5 74.5
t15.5 89.5q12 62 16 92t4 66q0 65 -47 101q-15 11 -34.5 18t-36.5 8v183z" />
    <glyph glyph-name="bar" unicode="|" horiz-adv-x="600" 
d="M210 1578h206v-1866h-206v1866z" />
    <glyph glyph-name="braceright" unicode="}" horiz-adv-x="636" 
d="M545 526q-20 -1 -41 -9.5t-38 -24.5q-39 -36 -39 -98q0 -39 4.5 -72t15.5 -82t15.5 -84t4.5 -80q0 -216 -145 -321q-55 -40 -111 -57q-40 -12 -62 -12q-10 48 -11 76l-2 26q0 57 34 100q3 5 29 31q19 18 22 22q40 43 40 143q0 37 -4.5 65t-17.5 86q-12 52 -17 92.5
t-5 90.5q0 74 31 128t84 71q-53 18 -83.5 71.5t-30.5 128.5q0 60 5 103t17 84q13 55 17 83.5t4 64.5q0 97 -40 143l-22 22q-30 26 -46.5 60.5t-16.5 69.5l2 27q3 28 11 76q25 0 68.5 -15t78.5 -36q171 -103 171 -342q0 -44 -4.5 -79t-15.5 -84q-12 -53 -16 -85t-4 -73
q0 -68 46 -102q15 -12 34.5 -18.5t37.5 -6.5v-183z" />
    <glyph glyph-name="asciitilde" unicode="~" horiz-adv-x="1183" 
d="M106 527q33 76 87.5 136t119.5 89q38 19 108 19q44 0 86 -10.5t109 -38.5q63 -30 109 -41q43 -8 57 -8q17 0 31 7.5t30 25.5l17 18q28 29 48.5 40t49.5 11l33 -3q16 -1 36 -6l69 -15l-3 -18q-8 -33 -20 -61.5t-33 -64.5q-44 -72 -110 -110.5t-145 -38.5q-52 0 -98 11
t-105 37l-24 10q-57 23 -82.5 30t-52.5 7q-23 0 -40 -9.5t-44 -36.5q-25 -26 -43 -36.5t-40 -10.5q-52 0 -162 37q2 8 12 30z" />
    <glyph glyph-name="exclamdown" unicode="&#xa1;" horiz-adv-x="706" 
d="M458 860q-21 -20 -48 -31.5t-56 -11.5q-41 0 -74 19.5t-54 53.5q-20 35 -20 73q0 39 19.5 73t53.5 54q35 20 75 20q30 0 57 -11.5t47 -31.5q43 -43 43 -104q0 -60 -43 -103zM464 618v-956h-221v956h221z" />
    <glyph glyph-name="cent" unicode="&#xa2;" horiz-adv-x="1042" 
d="M498 -1q-89 18 -167 66t-136 120q-58 73 -89.5 160.5t-31.5 179.5t31.5 179.5t89.5 160.5q58 70 135.5 118t167.5 68v349h206v-344q91 -17 171.5 -62t146.5 -115l-39 -39q-27 -27 -62.5 -42.5t-72.5 -15.5q-25 0 -34 2t-20 10q-65 23 -90 29v-599q56 17 92 32
q19 13 61 13q30 0 58 -13.5t68 -46.5l39 -38q-67 -72 -148 -117t-170 -60v-342h-206v347zM354.5 349.5q54.5 -79.5 143.5 -115.5v580q-90 -37 -142 -112q-27 -38 -41.5 -83.5t-14.5 -93.5q0 -96 54.5 -175.5z" />
    <glyph glyph-name="sterling" unicode="&#xa3;" horiz-adv-x="1179" 
d="M823 729v-114h-360v-203q0 -65 -21 -105.5t-73 -82.5h739l23 -224h-1032v119q0 37 4 51.5t18 25.5q54 51 83 104.5t29 104.5v210h-143v114h143v265q0 91 35 175t99 147q64 64 147.5 98.5t175.5 34.5q128 0 238.5 -70.5t174.5 -190.5l-57 -31q-52 -30 -103 -30
q-41 0 -80 21q-16 8 -30 18l-23 16q-23 16 -56.5 26t-62.5 10q-88 0 -159 -65q-33 -31 -51 -72.5t-18 -86.5v-265h360z" />
    <glyph glyph-name="currency" unicode="&#xa4;" horiz-adv-x="1160" 
d="M210 786q19 58 55 107l-83 83l91 91l80 -81q51 35 110 54t119 19q59 0 117.5 -19t110.5 -55l68 68l13 14l91 -91l-82 -83q36 -51 55 -108.5t19 -116.5t-19 -117t-54 -110l83 -83l-91 -92l-84 84q-52 -34 -111.5 -53t-115.5 -19q-60 0 -118.5 18.5t-107.5 52.5l-83 -83
l-92 91l82 83q-34 49 -53 108.5t-19 119.5t19 118zM408.5 595.5q14.5 -34.5 40.5 -60.5q56 -56 133 -56q51 0 94 25.5t68 68.5t25 95q0 79 -54 133q-26 26 -60.5 40.5t-72.5 14.5t-72.5 -14.5t-60.5 -40.5t-40.5 -60.5t-14.5 -72.5t14.5 -72.5z" />
    <glyph glyph-name="yen" unicode="&#xa5;" horiz-adv-x="1336" 
d="M325 589h229v17q0 30 -11 55.5t-44 70.5l-517 701h152q85 0 140 -39q23 -17 44.5 -40t55.5 -66l138 -185l137 -186q9 -11 14 -31l6 -24q0 10 6 26.5t15 28.5l274 370q31 42 56 68.5t54 44.5q29 17 64.5 25t83.5 8h136l-518 -701q-34 -45 -44.5 -69t-10.5 -57v-17h228
v-115h-228v-81h228v-115h-228v-278h-231v278h-229v115h229v81h-229v115z" />
    <glyph glyph-name="brokenbar" unicode="&#xa6;" horiz-adv-x="617" 
d="M210 1578h206v-798h-206v798zM210 510h206v-798h-206v798z" />
    <glyph glyph-name="section" unicode="&#xa7;" horiz-adv-x="1006" 
d="M882.5 586.5q-13.5 -46.5 -38.5 -86.5q-25 -41 -61 -71t-78 -45q60 -18 93 -74t33 -137q0 -66 -27.5 -123t-79.5 -100q-48 -39 -110 -59.5t-129 -20.5q-80 0 -171.5 53t-158.5 135l53 39q40 34 91 34q23 0 45 -7t56 -25q32 -17 54 -26q17 -6 33 -6q24 0 49 7.5t46 20.5
q46 31 46 74q0 29 -11.5 49t-38.5 38q-51 30 -168 71l-6 2q-147 52 -215.5 131t-68.5 198q0 92 53.5 175.5t138.5 125.5q-59 11 -92.5 66.5t-33.5 137.5q0 67 28 124t80 97q48 39 109.5 59.5t127.5 20.5q78 0 171 -54t159 -136l-57 -42q-40 -30 -89 -30q-40 0 -68 16
q-54 30 -71 38q-22 9 -45 9q-12 0 -41 -8q-45 -8 -73 -34t-28 -59q0 -29 11.5 -48.5t37.5 -36.5q23 -15 58 -29q30 -12 109 -40l8 -3q145 -51 214 -130.5t69 -198.5q0 -45 -13.5 -91.5zM441.5 804q-33.5 -10 -56.5 -30q-64 -46 -64 -116q0 -61 58 -101q24 -18 57 -27.5
t67 -9.5q76 0 129 41q64 46 64 117q0 58 -59 99q-26 18 -58.5 27.5t-65.5 9.5q-38 0 -71.5 -10z" />
    <glyph glyph-name="dieresis" unicode="&#xa8;" horiz-adv-x="673" 
d="M48 1358.5q17 29.5 46 47.5q29 17 62 17t62.5 -17t47.5 -47q17 -29 17 -63q0 -33 -17 -62t-47 -46q-29 -17 -63 -17q-53 0 -89 36t-36 89q0 33 17 62.5zM400 1358.5q17 29.5 46 47.5q29 17 62 17t62.5 -17t47.5 -47q17 -29 17 -63q0 -33 -17 -62t-47 -46q-29 -17 -63 -17
q-52 0 -88.5 36.5t-36.5 88.5q0 33 17 62.5z" />
    <glyph glyph-name="copyright" unicode="&#xa9;" horiz-adv-x="1598" 
d="M94.5 910q25.5 94 74.5 176q48 81 115 148t148 115q82 48 176 73.5t193 25.5t193.5 -25.5t176.5 -73.5q81 -48 148 -115t115 -148q49 -82 74.5 -176t25.5 -193q0 -147 -55.5 -280.5t-158.5 -236.5t-237.5 -159t-281.5 -56q-146 0 -280 56t-237 159t-159 237t-56 280
q0 99 25.5 193zM281 413q39 -67 94.5 -122.5t121.5 -94.5q140 -83 304 -83q163 0 301.5 80t220.5 220q83 146 83 304q0 105 -37 205t-105 182q-88 104 -206.5 160t-256.5 56q-165 0 -304 -82q-67 -40 -122 -95t-94 -122q-84 -141 -84 -304q0 -161 84 -304zM508 590.5
q25 -59.5 70 -102.5t103 -67t120 -24q92 0 175 56q13 8 31 13.5t35 5.5q52 0 82 -32l28 -29q-72 -78 -162 -119.5t-189 -41.5q-95 0 -180 35.5t-149 101.5q-66 64 -102 150t-36 179t36 178t102 151q64 64 150.5 100t178.5 36q99 0 189 -41.5t162 -119.5l-28 -29
q-18 -17 -37.5 -25t-44.5 -8q-34 0 -66 20q-83 56 -175 56q-62 0 -120 -24t-103 -67q-46 -45 -70.5 -103t-24.5 -124t25 -125.5z" />
    <glyph glyph-name="ordfeminine" unicode="&#xaa;" horiz-adv-x="748" 
d="M99 1474q14 20 44 50q14 14 30 24q46 30 95.5 44t109.5 14q175 0 249 -122q28 -47 40.5 -112t12.5 -158v-380h-137q-19 25 -23 57q-36 -31 -93 -49t-117 -18q-114 0 -191 65q-36 30 -55.5 73.5t-19.5 97.5q0 121 93 185.5t270 64.5l68 -2q26 -1 37 -5q-1 71 -36 109.5
t-98 38.5q-24 0 -44 -4t-45 -14q-28 -12 -39.5 -15t-28.5 -3q-42 0 -76 28zM411 994q55 16 104 44v111l-40 6q-34 3 -75 3q-91 0 -141 -25t-50 -72q0 -40 26.5 -61.5t73.5 -21.5t102 16z" />
    <glyph glyph-name="guillemotleft" unicode="&#xab;" horiz-adv-x="1015" 
d="M285 855q23 53 71 83.5t105 30.5h74l-158 -375q-23 -47 -62 -66q45 -23 62 -64l158 -375h-74q-62 0 -107 29.5t-69 84.5l-15 36l-22 54l-52 124l-38 89q-4 12 -12 17l-9 6q2 0 9 6q6 5 12 18zM621 855q23 53 70.5 83.5t105.5 30.5h74l-159 -375q-23 -47 -62 -66
q44 -23 62 -64l159 -375h-74q-62 0 -107 29.5t-69 84.5l-15 36l-49 116l-49 115l-15 36q-4 12 -12 17l-9 6q2 0 9 6q8 5 12 18z" />
    <glyph glyph-name="logicalnot" unicode="&#xac;" 
d="M811 307v220h-661v214h875v-434h-214z" />
    <glyph glyph-name="uni00AD" unicode="&#xad;" horiz-adv-x="723" 
d="M626 491h-533v214h533v-214z" />
    <glyph glyph-name="registered" unicode="&#xae;" horiz-adv-x="1596" 
d="M94.5 910q25.5 94 74.5 176q48 81 115 148t148 115q82 48 176 73.5t193 25.5t193.5 -25.5t176.5 -73.5q81 -48 148 -115t115 -148q49 -82 74.5 -176t25.5 -193t-25.5 -193t-74.5 -176q-48 -81 -115 -148t-148 -114q-82 -49 -176.5 -74.5t-193.5 -25.5t-193 25.5
t-176 74.5q-81 47 -148 114t-115 148q-49 82 -74.5 176t-25.5 193t25.5 193zM668 272h-141v888h323q54 0 102 -20t85 -57t57.5 -85.5t20.5 -101.5q0 -81 -47 -148t-124 -97l274 -370q91 87 139.5 199t48.5 237q0 105 -37 205t-105 182q-88 104 -206.5 160t-256.5 56
q-165 0 -304 -82q-67 -40 -122 -95t-94 -122q-84 -141 -84 -304q0 -161 84 -304q39 -67 94.5 -122.5t121.5 -94.5q140 -83 304 -83q162 0 305 83l-324 437h-114v-361zM661 1020v-246h183q24 0 47 9.5t40 26.5q35 35 35 86q0 25 -9.5 48.5t-25.5 39.5q-17 17 -40 26.5
t-47 9.5h-183z" />
    <glyph glyph-name="macron" unicode="&#xaf;" horiz-adv-x="634" 
d="M30 1384h571v-184h-571v184z" />
    <glyph glyph-name="degree" unicode="&#xb0;" horiz-adv-x="821" 
d="M101 1253.5q26 61.5 72 107.5t107.5 71.5t127.5 25.5t127.5 -25.5t107.5 -71.5t72 -107.5t26 -126.5q0 -67 -25.5 -127.5t-72.5 -107.5q-46 -46 -107.5 -71.5t-127.5 -25.5t-127.5 25.5t-107.5 71.5q-47 47 -72.5 107.5t-25.5 127.5q0 65 26 126.5zM260 1064
q13 -30 35 -51q21 -22 51 -35t62 -13t62 13t52 35q22 21 35 51t13 62t-13 62t-35 52t-52 35t-62 13t-62 -13t-51 -35q-22 -22 -35 -52t-13 -62t13 -62z" />
    <glyph glyph-name="plusminus" unicode="&#xb1;" horiz-adv-x="1160" 
d="M471 420v332h-369v214h369v370h214v-370h371v-214h-371v-332h-214zM102 381h953v-214h-953v214z" />
    <glyph glyph-name="uni00B2" unicode="&#xb2;" horiz-adv-x="693" 
d="M614 858h-523v68q0 48 22 73q0 2 15 17l37 39l53 55q167 175 209 244q14 23 14 36q0 41 -42 65q-14 8 -33 12.5t-35 4.5q-21 0 -37.5 -6t-44.5 -23q-24 -17 -38.5 -23.5t-30.5 -6.5t-29 7l-12 7l-5 1l-50 25q13 34 36.5 66.5t54.5 58.5q74 60 164 60q53 0 101.5 -17.5
t85.5 -49.5q80 -74 80 -174q0 -99 -151 -268q-76 -83 -101 -105h260v-166z" />
    <glyph glyph-name="uni00B3" unicode="&#xb3;" horiz-adv-x="664" 
d="M159 925q-22 22 -39 46.5t-37 68.5l50 24q16 9 25.5 12t24.5 3q17 0 35.5 -7t32.5 -19q2 -5 8 -7q31 -28 77 -28q37 0 62.5 25.5t25.5 61.5q0 39 -25 66t-61 27h-74v142h74q30 0 50.5 21t20.5 53q0 29 -21.5 50t-49.5 21q-11 0 -18 -7q-11 -2 -24 -9l-19 -11
q-35 -18 -60 -18h-4q-30 0 -62 24l-47 37q111 136 228 136q44 0 85.5 -16.5t72.5 -46.5q33 -31 50.5 -72t17.5 -86q0 -31 -19.5 -74.5t-43.5 -68.5q37 -31 60 -77.5t23 -93.5t-17 -89.5t-48 -75.5t-72.5 -52.5t-89.5 -21.5q-118 0 -192 62z" />
    <glyph glyph-name="acute" unicode="&#xb4;" horiz-adv-x="663" 
d="M334 1211q-38 -50 -128 -50h-103l108 190q29 51 41 67q36 49 128 49h148z" />
    <glyph glyph-name="uni00B5" unicode="&#xb5;" horiz-adv-x="1164" 
d="M122 1050h221v-689q3 -33 20.5 -62t47.5 -50q66 -48 162 -50q47 1 89 14t73 36q30 22 48 50.5t21 61.5v689h221v-1050h-182l-8 10q-22 34 -22 95q-36 -59 -97 -89t-142 -30q-161 0 -231 118v-444h-221v1390z" />
    <glyph glyph-name="paragraph" unicode="&#xb6;" horiz-adv-x="1345" 
d="M75.5 1148.5q35.5 85.5 99.5 149.5t149.5 99.5t178.5 35.5h806v-207h-204v-1424h-206v1424h-210v-1424h-206v707q-90 3 -172 39.5t-142 100.5q-61 64 -95 148t-34 173q0 93 35.5 178.5z" />
    <glyph glyph-name="periodcentered" unicode="&#xb7;" horiz-adv-x="581" 
d="M150.5 652.5q11.5 27.5 32.5 48.5q44 44 107 44q30 0 58.5 -11.5t49.5 -32.5t32.5 -48.5t11.5 -57.5q0 -63 -44 -107q-21 -21 -49.5 -32.5t-58.5 -11.5q-41 0 -76 20t-55 55t-20 76q0 30 11.5 57.5z" />
    <glyph glyph-name="cedilla" unicode="&#xb8;" horiz-adv-x="636" 
d="M200 10h124l-1 -77q77 -7 136 -51q54 -44 54 -103q0 -32 -17 -61t-47 -50q-65 -47 -163 -47q-47 0 -90 22l-40 23v91q36 -17 85 -27q42 -5 47 -5q32 0 54.5 14.5t22.5 34.5q0 23 -23 38t-56 15h-14q-1 -1 -19 -1q-29 0 -41 12.5t-12 45.5v126z" />
    <glyph glyph-name="uni00B9" unicode="&#xb9;" horiz-adv-x="702" 
d="M614 867h-444v168h145v365q-32 -20 -62 -20q-16 0 -31.5 4.5t-23.5 12.5l-50 48l197 189h139v-599h130v-168z" />
    <glyph glyph-name="ordmasculine" unicode="&#xba;" horiz-adv-x="889" 
d="M83 1226.5q29 69.5 81 121.5t121.5 81t144.5 29q76 0 145 -28.5t123 -81.5q52 -52 81 -121.5t29 -144.5q0 -74 -29 -143.5t-81 -121.5q-54 -53 -123 -81.5t-145 -28.5q-75 0 -144.5 29t-121.5 81t-81 121.5t-29 143.5q0 75 29 144.5zM308 960q24 -24 56 -37.5t67 -13.5
q71 0 122 51q24 24 37 55.5t13 66.5q0 70 -50 123q-53 50 -122 50q-70 0 -123 -50q-24 -24 -37.5 -56t-13.5 -67q0 -71 51 -122z" />
    <glyph glyph-name="guillemotright" unicode="&#xbb;" horiz-adv-x="1000" 
d="M504 553q7 -15 13 -19t6 -6l-2 -2l-5 -3q-8 -5 -12 -17l-133 -316q-20 -45 -63 -73t-94 -28h-87l158 375q18 41 62 64q-39 19 -62 66l-158 375h87q51 0 94 -28t63 -73zM839 553q7 -15 13 -19t6 -6q0 -1 -7 -5q-8 -5 -12 -17l-133 -316q-20 -45 -63 -73t-93 -28h-88
l159 375q17 42 62 64q-39 19 -62 66l-159 375h88q50 0 93 -28t63 -73z" />
    <glyph glyph-name="onequarter" unicode="&#xbc;" horiz-adv-x="1424" 
d="M550 835q0 -80 1 -84l2 -84h-448v168h145v365q-29 -20 -62 -20q-16 0 -31 4.5t-23 12.5l-50 48l196 189h139v-599h131zM330 0l637 1332q21 46 61 73.5t90 27.5h97q-99 -208 -600 -1257q-17 -33 -37 -76q-21 -45 -63 -72.5t-93 -27.5h-92zM1149 0v159h-315v91q0 13 9.5 39
t16.5 33q73 124 236 391q14 24 36 37t47 13h124v-449h90v-155h-90v-159h-154zM1156 314v207l-125 -207h125z" />
    <glyph glyph-name="onehalf" unicode="&#xbd;" horiz-adv-x="1424" 
d="M550 835q0 -80 1 -84l2 -84h-448v168h145v365q-29 -20 -62 -20q-16 0 -31 4.5t-23 12.5l-50 48l196 189h139v-599h131zM330 0l637 1332q21 46 61 73.5t90 27.5h97q-99 -208 -600 -1257q-17 -33 -37 -76q-21 -45 -63 -72.5t-93 -27.5h-92zM1424 0h-523v67q0 45 22 73
q0 2 15 17l37 38l53 55q76 79 132 144.5t77 100.5q14 23 14 36q0 42 -42 66q-17 8 -35.5 12.5t-31.5 4.5q-22 0 -40.5 -6.5t-44.5 -23.5q-27 -19 -39 -24.5t-27 -5.5q-12 0 -21.5 3t-24.5 12l-50 25q33 83 103 134.5t152 51.5q53 0 101.5 -17.5t85.5 -49.5q80 -74 80 -175
q0 -98 -152 -268l-54 -58l-46 -47h259v-165z" />
    <glyph glyph-name="threequarters" unicode="&#xbe;" horiz-adv-x="1426" 
d="M244 681q-47 15 -85 47q-42 39 -76 115l39 19q38 20 61 20q18 0 37 -7.5t34 -21.5l5 -4q32 -29 77 -29q37 0 62.5 26t25.5 62q0 39 -25 66t-61 27h-74v141h74q27 0 48 20.5t21 47.5q0 33 -20 55t-50 22q-9 0 -15 -2t-16 -8l-15 -10q-25 -14 -40 -19t-34 -5q-39 0 -66 24
l-47 37q111 136 228 136q44 0 85.5 -16.5t72.5 -46.5q33 -31 50.5 -72t17.5 -86q0 -29 -19 -70.5t-44 -72.5q37 -31 60 -77.5t23 -93.5t-17 -89.5t-48 -75.5t-72.5 -52.5t-89.5 -21.5q-60 0 -107 15zM330 0l637 1332q21 46 61 73.5t90 27.5h97q-99 -208 -600 -1257
q-17 -33 -37 -76q-21 -45 -63 -72.5t-93 -27.5h-92zM1149 0v159h-315v91q0 13 9.5 39t16.5 33q73 124 236 391q14 24 36 37t47 13h124v-449h90v-155h-90v-159h-154zM1156 314v207l-125 -207h125z" />
    <glyph glyph-name="questiondown" unicode="&#xbf;" horiz-adv-x="863" 
d="M316.5 1016q11.5 27 31.5 47q44 42 104 42q61 0 105 -42q20 -20 31.5 -47t11.5 -57q0 -63 -43 -103q-43 -43 -105 -43q-29 0 -56 11.5t-48 31.5q-43 40 -43 103q0 30 11.5 57zM865 -100q-123 -255 -413 -255q-135 0 -232.5 44t-148.5 129q-52 85 -52 205q0 62 21.5 116.5
t66.5 106.5l21 22q31 34 51 54q94 89 142 155q26 38 26 70v80h215v-73q0 -123 -84 -228q-37 -47 -79 -83l-20 -18q-53 -48 -81.5 -78t-44.5 -54q-17 -29 -17 -62q0 -178 208 -178q99 0 158 47l16 12q18 16 45.5 25.5t51.5 9.5q30 0 83 -17z" />
    <glyph glyph-name="Agrave" unicode="&#xc0;" horiz-adv-x="1396" 
d="M670 1433h215l625 -1433h-138q-52 0 -94 26.5t-63 73.5l-92 211h-692l-91 -211q-20 -45 -63 -72.5t-94 -27.5h-139zM533 542h489l-224 516q-19 40 -21 89q-7 -54 -21 -89zM493 1812h148q92 0 128 -49q10 -13 38 -58q32 -51 96 -162h-103q-91 0 -128 51z" />
    <glyph glyph-name="Aacute" unicode="&#xc1;" horiz-adv-x="1396" 
d="M670 1433h215l625 -1433h-138q-52 0 -94 26.5t-63 73.5l-92 211h-692l-91 -211q-20 -45 -63 -72.5t-94 -27.5h-139zM533 542h489l-224 516q-19 40 -21 89q-7 -54 -21 -89zM725 1594q-38 -50 -129 -50h-103l53 88l21 36l23 37l37 58q38 50 128 50h148z" />
    <glyph glyph-name="Acircumflex" unicode="&#xc2;" horiz-adv-x="1396" 
d="M670 1433h215l625 -1433h-138q-52 0 -94 26.5t-63 73.5l-92 211h-692l-91 -211q-20 -45 -63 -72.5t-94 -27.5h-139zM533 542h489l-224 516q-19 40 -21 89q-7 -54 -21 -89zM713 1641q-6 7 -10 17l-5 11l-6 -13l-9 -14l-31 -32q-30 -32 -48 -48.5t-36 -27.5
q-21 -13 -46 -19t-60 -6h-80l172 227q35 50 128 50h32q89 0 127 -50l173 -227h-80q-77 0 -130 41q-21 15 -46 42z" />
    <glyph glyph-name="Atilde" unicode="&#xc3;" horiz-adv-x="1396" 
d="M670 1433h215l625 -1433h-138q-52 0 -94 26.5t-63 73.5l-92 211h-692l-91 -211q-20 -45 -63 -72.5t-94 -27.5h-139zM533 542h489l-224 516q-19 40 -21 89q-7 -54 -21 -89zM757.5 1512.5q-29.5 9.5 -73.5 32.5l-8 5l-12 6q-31 17 -48.5 24t-31.5 7q-44 0 -44 -75h-153
q0 111 49 173t138 62q26 0 51.5 -8.5t71.5 -32.5q43 -25 65 -33q19 -9 39 -9q29 0 39.5 14.5t10.5 51.5h157q-4 -64 -13.5 -100.5t-29.5 -62.5q-22 -30 -58.5 -45.5t-92.5 -18.5q-27 0 -56.5 9.5z" />
    <glyph glyph-name="Adieresis" unicode="&#xc4;" horiz-adv-x="1396" 
d="M670 1433h215l625 -1433h-138q-52 0 -94 26.5t-63 73.5l-92 211h-692l-91 -211q-20 -45 -63 -72.5t-94 -27.5h-139zM533 542h489l-224 516q-19 40 -21 89q-7 -54 -21 -89zM413 1723.5q17 29.5 46 47.5q29 17 62 17t62.5 -17t47.5 -47q17 -29 17 -63q0 -33 -17 -62
t-47 -46q-29 -17 -63 -17q-53 0 -89 36t-36 89q0 33 17 62.5zM765 1723.5q17 29.5 46 47.5q29 17 62 17t62.5 -17t47.5 -47q17 -29 17 -63q0 -33 -17 -62t-47 -46q-29 -17 -63 -17q-52 0 -88.5 36.5t-36.5 88.5q0 33 17 62.5z" />
    <glyph glyph-name="Aring" unicode="&#xc5;" horiz-adv-x="1396" 
d="M670 1433h215l625 -1433h-138q-52 0 -94 26.5t-63 73.5l-92 211h-692l-91 -211q-20 -45 -63 -72.5t-94 -27.5h-139zM533 542h489l-224 516q-19 40 -21 89q-7 -54 -21 -89zM513.5 1806.5q15.5 36.5 42.5 63.5q28 28 64.5 43t77.5 15t77.5 -15.5t63.5 -42.5t42.5 -63.5
t15.5 -77.5t-15.5 -77.5t-42.5 -63.5t-63.5 -42.5t-77.5 -15.5t-77.5 15t-64.5 43q-27 27 -42.5 63.5t-15.5 77.5t15.5 77.5zM649 1680.5q20 -19.5 49 -19.5t48.5 19.5t19.5 48.5t-19.5 49t-48.5 20t-49 -20t-20 -49t20 -48.5z" />
    <glyph glyph-name="AE" unicode="&#xc6;" horiz-adv-x="1904" 
d="M1785 0h-472q-52 0 -92 27t-57 75l-72 209h-686l-111 -212q-25 -45 -69.5 -72t-95.5 -27h-145l379 716l379 717h1042v-231h-746l126 -364h492v-231h-414l130 -377h412v-230zM1014 542q-116 337 -173 515q-6 19 -10 42t-4 38q-7 -43 -26 -79l-272 -516h485z" />
    <glyph glyph-name="Ccedilla" unicode="&#xc7;" horiz-adv-x="1456" 
d="M1267 320q29 -12 56 -39l49 -49q-102 -111 -237.5 -175.5t-277.5 -70.5l-1 -53q77 -7 136 -51q54 -44 54 -103q0 -32 -17 -61t-47 -50q-65 -47 -163 -47q-47 0 -90 22q-7 2 -40 23v91q36 -17 85 -27q42 -5 47 -5q32 0 54.5 14.5t22.5 34.5q0 23 -23 38t-56 15h-14
q-1 -1 -19 -1q-29 0 -41 12.5t-12 45.5v106q-124 16 -233.5 70t-194.5 140q-103 103 -159 237t-56 280q0 99 25.5 193t74.5 176q48 81 115 148t148 115q82 48 176.5 73.5t193.5 25.5q152 0 296 -65t253 -182l-49 -49q-52 -52 -124 -52q-48 0 -92 29q-134 89 -284 89
q-101 0 -193 -38.5t-162 -108.5t-109 -162.5t-39 -191.5q0 -102 38.5 -193.5t109.5 -161.5q70 -70 162 -108.5t193 -38.5q154 0 284 90q44 27 92 27q39 0 68 -12z" />
    <glyph glyph-name="Egrave" unicode="&#xc8;" horiz-adv-x="1182" 
d="M1077 0h-903v1433h903v-225h-673v-373h545v-225h-545v-385h673v-225zM386 1812h148q92 0 128 -49q10 -13 38 -58q32 -51 96 -162h-103q-91 0 -128 51z" />
    <glyph glyph-name="Eacute" unicode="&#xc9;" horiz-adv-x="1182" 
d="M1077 0h-903v1433h903v-225h-673v-373h545v-225h-545v-385h673v-225zM618 1594q-38 -50 -129 -50h-103l53 88l21 36l23 37l37 58q38 50 128 50h148z" />
    <glyph glyph-name="Ecircumflex" unicode="&#xca;" horiz-adv-x="1182" 
d="M1077 0h-903v1433h903v-225h-673v-373h545v-225h-545v-385h673v-225zM606 1641q-6 7 -10 17l-5 11l-6 -13l-9 -14l-31 -32q-30 -32 -48 -48.5t-36 -27.5q-21 -13 -46 -19t-60 -6h-80l172 227q35 50 128 50h32q89 0 127 -50l173 -227h-80q-77 0 -130 41q-21 15 -46 42z
" />
    <glyph glyph-name="Edieresis" unicode="&#xcb;" horiz-adv-x="1182" 
d="M1077 0h-903v1433h903v-225h-673v-373h545v-225h-545v-385h673v-225zM306 1723.5q17 29.5 46 47.5q29 17 62 17t62.5 -17t47.5 -47q17 -29 17 -63q0 -33 -17 -62t-47 -46q-29 -17 -63 -17q-53 0 -89 36t-36 89q0 33 17 62.5zM658 1723.5q17 29.5 46 47.5q29 17 62 17
t62.5 -17t47.5 -47q17 -29 17 -63q0 -33 -17 -62t-47 -46q-29 -17 -63 -17q-52 0 -88.5 36.5t-36.5 88.5q0 33 17 62.5z" />
    <glyph glyph-name="Igrave" unicode="&#xcc;" horiz-adv-x="649" 
d="M440 0h-230v1433h230v-1433zM39 1812h148q92 0 128 -49q10 -13 38 -58q32 -51 96 -162h-103q-91 0 -128 51z" />
    <glyph glyph-name="Iacute" unicode="&#xcd;" horiz-adv-x="649" 
d="M440 0h-230v1433h230v-1433zM351 1594q-38 -50 -129 -50h-103l53 88l21 36l23 37l37 58q38 50 128 50h148z" />
    <glyph glyph-name="Icircumflex" unicode="&#xce;" horiz-adv-x="649" 
d="M440 0h-230v1433h230v-1433zM340 1641q-6 7 -10 17l-5 11l-6 -13l-9 -14l-31 -32q-30 -32 -48 -48.5t-36 -27.5q-21 -13 -46 -19t-60 -6h-80l172 227q35 50 128 50h32q89 0 127 -50l173 -227h-80q-77 0 -130 41q-21 15 -46 42z" />
    <glyph glyph-name="Idieresis" unicode="&#xcf;" horiz-adv-x="649" 
d="M440 0h-230v1433h230v-1433zM39 1723.5q17 29.5 46 47.5q29 17 62 17t62.5 -17t47.5 -47q17 -29 17 -63q0 -33 -17 -62t-47 -46q-29 -17 -63 -17q-53 0 -89 36t-36 89q0 33 17 62.5zM391 1723.5q17 29.5 46 47.5q29 17 62 17t62.5 -17t47.5 -47q17 -29 17 -63
q0 -33 -17 -62t-47 -46q-29 -17 -63 -17q-52 0 -88.5 36.5t-36.5 88.5q0 33 17 62.5z" />
    <glyph glyph-name="Eth" unicode="&#xd0;" horiz-adv-x="1534" 
d="M1419 904q25 -92 25 -188q0 -191 -98 -361q-46 -78 -111.5 -144t-146.5 -113q-82 -48 -174.5 -73t-188.5 -25h-551v597h-104v214h104v622h551q98 0 190.5 -25t172.5 -73q81 -48 147 -113.5t111 -143.5q48 -82 73 -174zM1176 529.5q37 88.5 37 186.5q0 96 -37.5 185.5
t-105.5 157.5q-69 68 -159 105.5t-186 37.5h-321v-391h194v-214h-194v-367h321q97 0 186.5 37t158.5 105q69 69 106 157.5z" />
    <glyph glyph-name="Ntilde" unicode="&#xd1;" horiz-adv-x="1591" 
d="M1416 0h-202l-752 1037q-16 22 -34 64q-7 16 -12 30q-6 15 -10 19v-1150h-230v1433h186q101 0 141 -57l518 -721l129 -181q14 -20 23.5 -47t12.5 -55v1061h230v-1433zM855.5 1512.5q-29.5 9.5 -73.5 32.5l-8 5l-12 6q-31 17 -48.5 24t-31.5 7q-44 0 -44 -75h-153
q0 111 49 173t138 62q26 0 51.5 -8.5t71.5 -32.5q43 -25 65 -33q19 -9 39 -9q29 0 39.5 14.5t10.5 51.5h157q-4 -64 -13.5 -100.5t-29.5 -62.5q-22 -30 -58.5 -45.5t-92.5 -18.5q-27 0 -56.5 9.5z" />
    <glyph glyph-name="Ograve" unicode="&#xd2;" horiz-adv-x="1650" 
d="M117.5 910q25.5 94 74.5 176q48 81 115 148t148 115q82 48 176.5 73.5t193.5 25.5q199 0 370 -99q81 -48 148 -115t115 -148q49 -82 74.5 -176t25.5 -193t-25.5 -193t-74.5 -176q-48 -81 -115 -148t-148 -115q-169 -100 -370 -100q-146 0 -280.5 56t-237.5 159t-159 237
t-56 280q0 99 25.5 193zM360.5 523.5q38.5 -91.5 109.5 -161.5q70 -70 162 -108.5t193 -38.5q98 0 190.5 38.5t164.5 108.5q70 70 108.5 162t38.5 193q0 99 -38.5 191.5t-108.5 162.5q-72 70 -164.5 108.5t-190.5 38.5q-101 0 -193 -38.5t-162 -108.5t-109 -162.5
t-39 -191.5q0 -102 38.5 -193.5zM620 1812h148q92 0 128 -49q10 -13 38 -58q32 -51 96 -162h-103q-91 0 -128 51z" />
    <glyph glyph-name="Oacute" unicode="&#xd3;" horiz-adv-x="1650" 
d="M117.5 910q25.5 94 74.5 176q48 81 115 148t148 115q82 48 176.5 73.5t193.5 25.5q199 0 370 -99q81 -48 148 -115t115 -148q49 -82 74.5 -176t25.5 -193t-25.5 -193t-74.5 -176q-48 -81 -115 -148t-148 -115q-169 -100 -370 -100q-146 0 -280.5 56t-237.5 159t-159 237
t-56 280q0 99 25.5 193zM360.5 523.5q38.5 -91.5 109.5 -161.5q70 -70 162 -108.5t193 -38.5q98 0 190.5 38.5t164.5 108.5q70 70 108.5 162t38.5 193q0 99 -38.5 191.5t-108.5 162.5q-72 70 -164.5 108.5t-190.5 38.5q-101 0 -193 -38.5t-162 -108.5t-109 -162.5
t-39 -191.5q0 -102 38.5 -193.5zM852 1594q-38 -50 -129 -50h-103l53 88l21 36l23 37l37 58q38 50 128 50h148z" />
    <glyph glyph-name="Ocircumflex" unicode="&#xd4;" horiz-adv-x="1650" 
d="M117.5 910q25.5 94 74.5 176q48 81 115 148t148 115q82 48 176.5 73.5t193.5 25.5q199 0 370 -99q81 -48 148 -115t115 -148q49 -82 74.5 -176t25.5 -193t-25.5 -193t-74.5 -176q-48 -81 -115 -148t-148 -115q-169 -100 -370 -100q-146 0 -280.5 56t-237.5 159t-159 237
t-56 280q0 99 25.5 193zM360.5 523.5q38.5 -91.5 109.5 -161.5q70 -70 162 -108.5t193 -38.5q98 0 190.5 38.5t164.5 108.5q70 70 108.5 162t38.5 193q0 99 -38.5 191.5t-108.5 162.5q-72 70 -164.5 108.5t-190.5 38.5q-101 0 -193 -38.5t-162 -108.5t-109 -162.5
t-39 -191.5q0 -102 38.5 -193.5zM840 1641q-6 7 -10 17l-5 11l-6 -13l-9 -14l-31 -32q-30 -32 -48 -48.5t-36 -27.5q-21 -13 -46 -19t-60 -6h-80l172 227q35 50 128 50h32q89 0 127 -50l173 -227h-80q-77 0 -130 41q-21 15 -46 42z" />
    <glyph glyph-name="Otilde" unicode="&#xd5;" horiz-adv-x="1650" 
d="M117.5 910q25.5 94 74.5 176q48 81 115 148t148 115q82 48 176.5 73.5t193.5 25.5q199 0 370 -99q81 -48 148 -115t115 -148q49 -82 74.5 -176t25.5 -193t-25.5 -193t-74.5 -176q-48 -81 -115 -148t-148 -115q-169 -100 -370 -100q-146 0 -280.5 56t-237.5 159t-159 237
t-56 280q0 99 25.5 193zM360.5 523.5q38.5 -91.5 109.5 -161.5q70 -70 162 -108.5t193 -38.5q98 0 190.5 38.5t164.5 108.5q70 70 108.5 162t38.5 193q0 99 -38.5 191.5t-108.5 162.5q-72 70 -164.5 108.5t-190.5 38.5q-101 0 -193 -38.5t-162 -108.5t-109 -162.5
t-39 -191.5q0 -102 38.5 -193.5zM884.5 1512.5q-29.5 9.5 -73.5 32.5l-8 5l-12 6q-31 17 -48.5 24t-31.5 7q-44 0 -44 -75h-153q0 111 49 173t138 62q26 0 51.5 -8.5t71.5 -32.5q43 -25 65 -33q19 -9 39 -9q29 0 39.5 14.5t10.5 51.5h157q-4 -64 -13.5 -100.5t-29.5 -62.5
q-22 -30 -58.5 -45.5t-92.5 -18.5q-27 0 -56.5 9.5z" />
    <glyph glyph-name="Odieresis" unicode="&#xd6;" horiz-adv-x="1650" 
d="M117.5 910q25.5 94 74.5 176q48 81 115 148t148 115q82 48 176.5 73.5t193.5 25.5q199 0 370 -99q81 -48 148 -115t115 -148q49 -82 74.5 -176t25.5 -193t-25.5 -193t-74.5 -176q-48 -81 -115 -148t-148 -115q-169 -100 -370 -100q-146 0 -280.5 56t-237.5 159t-159 237
t-56 280q0 99 25.5 193zM360.5 523.5q38.5 -91.5 109.5 -161.5q70 -70 162 -108.5t193 -38.5q98 0 190.5 38.5t164.5 108.5q70 70 108.5 162t38.5 193q0 99 -38.5 191.5t-108.5 162.5q-72 70 -164.5 108.5t-190.5 38.5q-101 0 -193 -38.5t-162 -108.5t-109 -162.5
t-39 -191.5q0 -102 38.5 -193.5zM540 1723.5q17 29.5 46 47.5q29 17 62 17t62.5 -17t47.5 -47q17 -29 17 -63q0 -33 -17 -62t-47 -46q-29 -17 -63 -17q-53 0 -89 36t-36 89q0 33 17 62.5zM892 1723.5q17 29.5 46 47.5q29 17 62 17t62.5 -17t47.5 -47q17 -29 17 -63
q0 -33 -17 -62t-47 -46q-29 -17 -63 -17q-52 0 -88.5 36.5t-36.5 88.5q0 33 17 62.5z" />
    <glyph glyph-name="multiply" unicode="&#xd7;" horiz-adv-x="1210" 
d="M342 251q-22 -22 -38 -32.5t-37 -17.5l-18 -6q-13 -13 -39 -13q-45 0 -79.5 19.5t-80.5 70.5l402 402l-137 138q-58 57 -99 99l-68 68l-74 76l-22 23l26 26q31 33 61 47.5t66 14.5q31 0 63.5 -13.5t55.5 -36.5l278 -277q108 104 140 139q52 54 139 138q25 22 56.5 36.5
t57.5 14.5q67 0 118 -48l43 -42l-403 -402l304 -304q27 -28 46 -46l16 -16l35 -38l-40 -39q-52 -49 -111 -49q-18 0 -26.5 2.5t-16.5 10.5q-30 6 -51.5 18t-47.5 38l-258 259z" />
    <glyph glyph-name="Oslash" unicode="&#xd8;" horiz-adv-x="1648" 
d="M105.5 910q25.5 94 74.5 176q48 81 115 148t148 115q82 48 176 73.5t193 25.5q201 0 372 -102q4 4 16 24q37 54 56.5 73t50.5 28q10 15 18.5 20t23.5 5h136l-177 -242q116 -104 177 -242t61 -295q0 -146 -56 -280t-159 -237t-237.5 -158.5t-281.5 -55.5q-198 0 -364 97
l-94 -128q-21 -30 -53.5 -45.5t-69.5 -15.5h-114l205 279q-114 102 -178 245.5t-64 298.5q0 99 25.5 193zM351 525q38 -91 110 -163l584 796q-106 60 -233 60q-99 0 -190.5 -38.5t-161.5 -108.5t-108.5 -162.5t-38.5 -191.5q0 -101 38 -192zM1004.5 253.5
q91.5 38.5 161.5 108.5t107.5 161.5t37.5 192.5q0 99 -36.5 187.5t-106.5 160.5l-583 -792q108 -57 227 -57q101 0 192.5 38.5z" />
    <glyph glyph-name="Ugrave" unicode="&#xd9;" horiz-adv-x="1464" 
d="M385 564q0 -71 27 -135t76 -112q49 -49 113 -76t135 -27t135 27t113 76t76 113.5t27 133.5v869h231v-869q0 -116 -44.5 -222.5t-125.5 -187.5t-188 -125.5t-224 -44.5t-224 44.5t-186 125.5q-82 82 -126.5 188t-44.5 222v869h230v-869zM527 1812h148q92 0 128 -49
q10 -13 38 -58q32 -51 96 -162h-103q-91 0 -128 51z" />
    <glyph glyph-name="Uacute" unicode="&#xda;" horiz-adv-x="1464" 
d="M385 564q0 -71 27 -135t76 -112q49 -49 113 -76t135 -27t135 27t113 76t76 113.5t27 133.5v869h231v-869q0 -116 -44.5 -222.5t-125.5 -187.5t-188 -125.5t-224 -44.5t-224 44.5t-186 125.5q-82 82 -126.5 188t-44.5 222v869h230v-869zM759 1594q-38 -50 -129 -50h-103
l53 88l21 36l23 37l37 58q38 50 128 50h148z" />
    <glyph glyph-name="Ucircumflex" unicode="&#xdb;" horiz-adv-x="1464" 
d="M385 564q0 -71 27 -135t76 -112q49 -49 113 -76t135 -27t135 27t113 76t76 113.5t27 133.5v869h231v-869q0 -116 -44.5 -222.5t-125.5 -187.5t-188 -125.5t-224 -44.5t-224 44.5t-186 125.5q-82 82 -126.5 188t-44.5 222v869h230v-869zM747 1641q-6 7 -10 17l-5 11
l-6 -13l-9 -14l-31 -32q-30 -32 -48 -48.5t-36 -27.5q-21 -13 -46 -19t-60 -6h-80l172 227q35 50 128 50h32q89 0 127 -50l173 -227h-80q-77 0 -130 41q-21 15 -46 42z" />
    <glyph glyph-name="Udieresis" unicode="&#xdc;" horiz-adv-x="1464" 
d="M385 564q0 -71 27 -135t76 -112q49 -49 113 -76t135 -27t135 27t113 76t76 113.5t27 133.5v869h231v-869q0 -116 -44.5 -222.5t-125.5 -187.5t-188 -125.5t-224 -44.5t-224 44.5t-186 125.5q-82 82 -126.5 188t-44.5 222v869h230v-869zM447 1723.5q17 29.5 46 47.5
q29 17 62 17t62.5 -17t47.5 -47q17 -29 17 -63q0 -33 -17 -62t-47 -46q-29 -17 -63 -17q-53 0 -89 36t-36 89q0 33 17 62.5zM799 1723.5q17 29.5 46 47.5q29 17 62 17t62.5 -17t47.5 -47q17 -29 17 -63q0 -33 -17 -62t-47 -46q-29 -17 -63 -17q-52 0 -88.5 36.5t-36.5 88.5
q0 33 17 62.5z" />
    <glyph glyph-name="Yacute" unicode="&#xdd;" horiz-adv-x="1378" 
d="M806 0h-231v606q0 30 -11 55.5t-44 70.5l-517 701h168q127 0 188 -96l311 -420q8 -12 13.5 -27.5t6.5 -27.5q0 10 6 27t15 28l310 420q62 96 188 96h170l-518 -701q-34 -45 -44.5 -69t-10.5 -57v-606zM756 1594q-38 -50 -129 -50h-103l53 88l21 36l23 37l37 58
q38 50 128 50h148z" />
    <glyph glyph-name="Thorn" unicode="&#xde;" horiz-adv-x="1225" 
d="M194 1433h230v-244h288q92 0 176.5 -35t148.5 -99t99 -147.5t35 -175.5t-35 -175.5t-99 -147.5t-148.5 -99t-176.5 -35h-288v-275h-230v1433zM716 506q45 0 87 17.5t73 48.5t48 72.5t17 87.5t-17 88t-48 73q-34 31 -76 48.5t-84 17.5h-292v-453h292z" />
    <glyph glyph-name="germandbls" unicode="&#xdf;" horiz-adv-x="1218" 
d="M391 0q-16 0 -37 3l-63 2q-13 0 -105 -5v830q0 308 122 462.5t362 154.5q75 0 142 -20t120 -59q57 -42 87.5 -106.5t30.5 -143.5q0 -104 -54 -166q-21 -24 -49.5 -40.5t-68.5 -29.5l-63 -20q-67 -19 -94 -49q-15 -18 -15 -47q0 -27 11.5 -44t35.5 -29q20 -10 45 -18
q24 -7 48 -19q81 -27 131 -52.5t85 -57.5q96 -85 96 -222q0 -67 -26.5 -128.5t-75.5 -108.5q-49 -48 -116.5 -74.5t-144.5 -26.5q-109 0 -200 60t-141 167l51 25q50 24 82 24q27 0 51.5 -10t58.5 -34h-1q40 -28 99 -28q23 0 50.5 9t50.5 25q27 18 42 44t15 56q0 27 -8 44.5
t-28 32.5q-40 28 -138 62q-72 24 -117 47t-77 53q-43 39 -63.5 88t-20.5 115q0 79 27.5 136.5t79.5 91.5q55 33 110 50l38 13q50 19 70 33q19 15 19 39q0 53 -47.5 83t-127.5 30q-141 0 -210 -101.5t-69 -310.5v-830z" />
    <glyph glyph-name="agrave" unicode="&#xe0;" horiz-adv-x="1094" 
d="M170 883q28 46 103 102q124 79 283 79q158 0 253 -69t135 -210q28 -94 28 -261v-524h-188q-14 17 -22 42.5t-8 50.5q-51 -45 -137 -76t-156 -31q-80 0 -147.5 23t-115.5 66q-49 43 -76 104t-27 130q0 168 128.5 257.5t370.5 89.5q24 0 96 -5l33 -3l18 -3q-7 104 -54 156
t-132 52q-34 0 -61 -6t-63 -19q-39 -17 -55 -21.5t-38 -4.5q-55 0 -104 37zM601.5 218.5q76.5 22.5 145.5 61.5v161l-20 2q-36 0 -38 1l-104 2q-127 0 -196 -34.5t-69 -99.5q0 -56 37 -86t104 -30q64 0 140.5 22.5zM334 1467h148q90 0 128 -50q6 -6 41 -66l108 -191h-103
q-90 0 -129 51z" />
    <glyph glyph-name="aacute" unicode="&#xe1;" horiz-adv-x="1094" 
d="M170 883q28 46 103 102q124 79 283 79q158 0 253 -69t135 -210q28 -94 28 -261v-524h-188q-14 17 -22 42.5t-8 50.5q-51 -45 -137 -76t-156 -31q-80 0 -147.5 23t-115.5 66q-49 43 -76 104t-27 130q0 168 128.5 257.5t370.5 89.5q24 0 96 -5l33 -3l18 -3q-7 104 -54 156
t-132 52q-34 0 -61 -6t-63 -19q-39 -17 -55 -21.5t-38 -4.5q-55 0 -104 37zM601.5 218.5q76.5 22.5 145.5 61.5v161l-20 2q-36 0 -38 1l-104 2q-127 0 -196 -34.5t-69 -99.5q0 -56 37 -86t104 -30q64 0 140.5 22.5zM565 1211q-38 -50 -128 -50h-103l108 190q29 51 41 67
q36 49 128 49h148z" />
    <glyph glyph-name="acircumflex" unicode="&#xe2;" horiz-adv-x="1094" 
d="M170 883q28 46 103 102q124 79 283 79q158 0 253 -69t135 -210q28 -94 28 -261v-524h-188q-14 17 -22 42.5t-8 50.5q-51 -45 -137 -76t-156 -31q-80 0 -147.5 23t-115.5 66q-49 43 -76 104t-27 130q0 168 128.5 257.5t370.5 89.5q24 0 96 -5l33 -3l18 -3q-7 104 -54 156
t-132 52q-34 0 -61 -6t-63 -19q-39 -17 -55 -21.5t-38 -4.5q-55 0 -104 37zM601.5 218.5q76.5 22.5 145.5 61.5v161l-20 2q-36 0 -38 1l-104 2q-127 0 -196 -34.5t-69 -99.5q0 -56 37 -86t104 -30q64 0 140.5 22.5zM562 1308q-7 7 -10 16l-5 11l-6 -13l-9 -14l-26 -32
l-29 -35q-27 -36 -43.5 -49.5t-42.5 -21.5q-31 -9 -80 -9h-80l35 51q97 147 134 193q34 55 131 55h32q82 0 119 -42q22 -18 67 -87l114 -170h-80q-45 0 -71 6t-44 21q-38 27 -74 79z" />
    <glyph glyph-name="atilde" unicode="&#xe3;" horiz-adv-x="1094" 
d="M170 883q28 46 103 102q124 79 283 79q158 0 253 -69t135 -210q28 -94 28 -261v-524h-188q-14 17 -22 42.5t-8 50.5q-51 -45 -137 -76t-156 -31q-80 0 -147.5 23t-115.5 66q-49 43 -76 104t-27 130q0 168 128.5 257.5t370.5 89.5q24 0 96 -5l33 -3l18 -3q-7 104 -54 156
t-132 52q-34 0 -61 -6t-63 -19q-39 -17 -55 -21.5t-38 -4.5q-55 0 -104 37zM601.5 218.5q76.5 22.5 145.5 61.5v161l-20 2q-36 0 -38 1l-104 2q-127 0 -196 -34.5t-69 -99.5q0 -56 37 -86t104 -30q64 0 140.5 22.5zM606.5 1209.5q-29.5 9.5 -73.5 32.5l-8 5l-12 6
q-29 17 -47.5 24t-33.5 7q-20 0 -31.5 -23t-11.5 -60h-153q0 112 49.5 177.5t136.5 65.5q27 0 52.5 -8.5t71.5 -32.5l26 -14q46 -28 77 -28q27 0 39 18.5t12 55.5h157q-4 -68 -13.5 -106.5t-29.5 -64.5q-22 -33 -58.5 -48.5t-92.5 -15.5q-27 0 -56.5 9.5z" />
    <glyph glyph-name="adieresis" unicode="&#xe4;" horiz-adv-x="1094" 
d="M170 883q28 46 103 102q124 79 283 79q158 0 253 -69t135 -210q28 -94 28 -261v-524h-188q-14 17 -22 42.5t-8 50.5q-51 -45 -137 -76t-156 -31q-80 0 -147.5 23t-115.5 66q-49 43 -76 104t-27 130q0 168 128.5 257.5t370.5 89.5q24 0 96 -5l33 -3l18 -3q-7 104 -54 156
t-132 52q-34 0 -61 -6t-63 -19q-39 -17 -55 -21.5t-38 -4.5q-55 0 -104 37zM601.5 218.5q76.5 22.5 145.5 61.5v161l-20 2q-36 0 -38 1l-104 2q-127 0 -196 -34.5t-69 -99.5q0 -56 37 -86t104 -30q64 0 140.5 22.5zM262 1358.5q17 29.5 46 47.5q29 17 62 17t62.5 -17
t47.5 -47q17 -29 17 -63q0 -33 -17 -62t-47 -46q-29 -17 -63 -17q-53 0 -89 36t-36 89q0 33 17 62.5zM614 1358.5q17 29.5 46 47.5q29 17 62 17t62.5 -17t47.5 -47q17 -29 17 -63q0 -33 -17 -62t-47 -46q-29 -17 -63 -17q-52 0 -88.5 36.5t-36.5 88.5q0 33 17 62.5z" />
    <glyph glyph-name="aring" unicode="&#xe5;" horiz-adv-x="1094" 
d="M170 883q28 46 103 102q124 79 283 79q158 0 253 -69t135 -210q28 -94 28 -261v-524h-188q-14 17 -22 42.5t-8 50.5q-51 -45 -137 -76t-156 -31q-80 0 -147.5 23t-115.5 66q-49 43 -76 104t-27 130q0 168 128.5 257.5t370.5 89.5q24 0 96 -5l33 -3l18 -3q-7 104 -54 156
t-132 52q-34 0 -61 -6t-63 -19q-39 -17 -55 -21.5t-38 -4.5q-55 0 -104 37zM601.5 218.5q76.5 22.5 145.5 61.5v161l-20 2q-36 0 -38 1l-104 2q-127 0 -196 -34.5t-69 -99.5q0 -56 37 -86t104 -30q64 0 140.5 22.5zM362.5 1406.5q15.5 36.5 42.5 63.5q28 28 64.5 43t77.5 15
t77.5 -15.5t63.5 -42.5t42.5 -63.5t15.5 -77.5t-15.5 -77.5t-42.5 -63.5t-63.5 -42.5t-77.5 -15.5t-77.5 15t-64.5 43q-27 27 -42.5 63.5t-15.5 77.5t15.5 77.5zM498 1280.5q20 -19.5 49 -19.5t48.5 19.5t19.5 48.5t-19.5 49t-48.5 20t-49 -20t-20 -49t20 -48.5z" />
    <glyph glyph-name="ae" unicode="&#xe6;" horiz-adv-x="1863" 
d="M1785 611q0 -72 -51 -116q-22 -19 -49 -29.5t-52 -10.5h-596q-53 0 -53 -27q0 -2 1 -2v-3q12 -43 39.5 -82.5t65.5 -69.5q86 -68 191 -68q84 0 154 40q44 23 87 23q35 0 62.5 -12t54.5 -39l49 -49q-81 -87 -185.5 -133.5t-221.5 -46.5q-123 0 -225 48q-41 19 -84.5 53
t-63.5 64q4 -7 4 -27q0 -15 -5 -18l-31 -16q-94 -48 -202.5 -76t-206.5 -28q-78 0 -147 23t-120 65q-51 43 -78.5 103t-27.5 132q0 169 133.5 257.5t391.5 88.5q66 0 135 -9q-15 114 -59.5 162.5t-131.5 48.5q-36 0 -61.5 -6t-55.5 -21q-34 -17 -52.5 -22.5t-45.5 -5.5
q-55 0 -104 37l-64 44l7 10q16 22 43 48.5t52 43.5q121 79 283 79q105 0 185.5 -32t128.5 -92q22 -16 22 -28q0 -6 -1 -7l-7 -17l42 42q139 133 347 133q84 0 165 -28.5t150 -82.5q67 -55 114 -126t67 -151q7 -21 7 -64zM1542 663q-36 88 -104 135.5t-158 47.5
q-114 0 -197 -65q-36 -29 -62 -67.5t-38 -79.5q10 13 26 21t34 8h499zM790 296q-16 34 -28 72.5t-15 65.5q-5 2 -19 3q-55 9 -131 9q-134 0 -206.5 -34.5t-72.5 -99.5q0 -54 41 -85t108 -31q80 0 166 31q85 29 157 69z" />
    <glyph glyph-name="ccedilla" unicode="&#xe7;" horiz-adv-x="1042" 
d="M983 209l39 -38q-72 -79 -163 -125.5t-192 -56.5l-1 -56q77 -7 136 -51q54 -44 54 -103q0 -32 -17 -61t-47 -50q-65 -47 -163 -47q-47 0 -90 22l-40 23v91q36 -17 85 -27q42 -5 47 -5q32 0 54.5 14.5t22.5 34.5q0 23 -23 38t-56 15h-14q-1 -1 -19 -1q-29 0 -41 12.5
t-12 45.5v107q-89 12 -168 51t-142 102q-76 75 -117.5 174t-41.5 207t41.5 207t117.5 174q76 76 175 117t206 41q110 0 216.5 -48.5t191.5 -136.5l-39 -39q-27 -27 -62.5 -42.5t-72.5 -15.5q-25 0 -34 2t-20 10q-62 23 -102 32.5t-78 10.5q-60 0 -117.5 -24t-103.5 -67
q-44 -43 -68.5 -100.5t-24.5 -120.5q0 -65 24 -122t69 -100q46 -43 103.5 -67t117.5 -24q39 0 78.5 9.5t103.5 34.5q19 13 61 13q34 0 72 -20q30 -19 54 -40z" />
    <glyph glyph-name="egrave" unicode="&#xe8;" horiz-adv-x="1213" 
d="M1088 495q-22 -19 -49 -29.5t-52 -10.5h-677q7 -46 32.5 -91t65.5 -81q42 -38 94.5 -59t109.5 -21q84 0 154 40q41 23 88 23q66 0 117 -51l49 -49q-81 -87 -186 -134t-222 -47q-107 0 -206 41.5t-175 117.5t-117.5 175t-41.5 206q0 108 41.5 207t117.5 174q76 76 175 117
t206 41q89 0 174.5 -30t157.5 -86q69 -54 118.5 -128t72.5 -160q4 -7 4 -25q0 -23 1 -24q0 -70 -52 -116zM899 663q-15 36 -42 69t-62 58q-83 56 -180 56q-109 0 -195 -65q-38 -29 -64.5 -67t-38.5 -80q10 13 26 21t34 8h522zM394 1467h148q90 0 128 -50q6 -6 41 -66
l108 -191h-103q-90 0 -129 51z" />
    <glyph glyph-name="eacute" unicode="&#xe9;" horiz-adv-x="1213" 
d="M1088 495q-22 -19 -49 -29.5t-52 -10.5h-677q7 -46 32.5 -91t65.5 -81q42 -38 94.5 -59t109.5 -21q84 0 154 40q41 23 88 23q66 0 117 -51l49 -49q-81 -87 -186 -134t-222 -47q-107 0 -206 41.5t-175 117.5t-117.5 175t-41.5 206q0 108 41.5 207t117.5 174q76 76 175 117
t206 41q89 0 174.5 -30t157.5 -86q69 -54 118.5 -128t72.5 -160q4 -7 4 -25q0 -23 1 -24q0 -70 -52 -116zM899 663q-15 36 -42 69t-62 58q-83 56 -180 56q-109 0 -195 -65q-38 -29 -64.5 -67t-38.5 -80q10 13 26 21t34 8h522zM625 1211q-38 -50 -128 -50h-103l108 190
q29 51 41 67q36 49 128 49h148z" />
    <glyph glyph-name="ecircumflex" unicode="&#xea;" horiz-adv-x="1213" 
d="M1088 495q-22 -19 -49 -29.5t-52 -10.5h-677q7 -46 32.5 -91t65.5 -81q42 -38 94.5 -59t109.5 -21q84 0 154 40q41 23 88 23q66 0 117 -51l49 -49q-81 -87 -186 -134t-222 -47q-107 0 -206 41.5t-175 117.5t-117.5 175t-41.5 206q0 108 41.5 207t117.5 174q76 76 175 117
t206 41q89 0 174.5 -30t157.5 -86q69 -54 118.5 -128t72.5 -160q4 -7 4 -25q0 -23 1 -24q0 -70 -52 -116zM899 663q-15 36 -42 69t-62 58q-83 56 -180 56q-109 0 -195 -65q-38 -29 -64.5 -67t-38.5 -80q10 13 26 21t34 8h522zM621 1308q-7 7 -10 16l-5 11l-6 -13l-9 -14
l-26 -32l-29 -35q-27 -36 -43.5 -49.5t-42.5 -21.5q-31 -9 -80 -9h-80l35 51q97 147 134 193q34 55 131 55h32q82 0 119 -42q22 -18 67 -87l114 -170h-80q-45 0 -71 6t-44 21q-38 27 -74 79z" />
    <glyph glyph-name="edieresis" unicode="&#xeb;" horiz-adv-x="1213" 
d="M1088 495q-22 -19 -49 -29.5t-52 -10.5h-677q7 -46 32.5 -91t65.5 -81q42 -38 94.5 -59t109.5 -21q84 0 154 40q41 23 88 23q66 0 117 -51l49 -49q-81 -87 -186 -134t-222 -47q-107 0 -206 41.5t-175 117.5t-117.5 175t-41.5 206q0 108 41.5 207t117.5 174q76 76 175 117
t206 41q89 0 174.5 -30t157.5 -86q69 -54 118.5 -128t72.5 -160q4 -7 4 -25q0 -23 1 -24q0 -70 -52 -116zM899 663q-15 36 -42 69t-62 58q-83 56 -180 56q-109 0 -195 -65q-38 -29 -64.5 -67t-38.5 -80q10 13 26 21t34 8h522zM321 1358.5q17 29.5 46 47.5q29 17 62 17
t62.5 -17t47.5 -47q17 -29 17 -63q0 -33 -17 -62t-47 -46q-29 -17 -63 -17q-53 0 -89 36t-36 89q0 33 17 62.5zM673 1358.5q17 29.5 46 47.5q29 17 62 17t62.5 -17t47.5 -47q17 -29 17 -63q0 -33 -17 -62t-47 -46q-29 -17 -63 -17q-52 0 -88.5 36.5t-36.5 88.5q0 33 17 62.5
z" />
    <glyph glyph-name="igrave" unicode="&#xec;" horiz-adv-x="564" 
d="M375 1014v-1014h-230v1014h230zM54 1467h148q90 0 128 -50q6 -6 41 -66l108 -191h-103q-90 0 -129 51z" />
    <glyph glyph-name="iacute" unicode="&#xed;" horiz-adv-x="564" 
d="M375 1014v-1014h-230v1014h230zM285 1211q-38 -50 -128 -50h-103l108 190q29 51 41 67q36 49 128 49h148z" />
    <glyph glyph-name="icircumflex" unicode="&#xee;" horiz-adv-x="564" 
d="M375 1014v-1014h-230v1014h230zM281 1308q-7 7 -10 16l-5 11l-6 -13l-9 -14l-26 -32l-29 -35q-27 -36 -43.5 -49.5t-42.5 -21.5q-31 -9 -80 -9h-80l35 51q97 147 134 193q34 55 131 55h32q82 0 119 -42q22 -18 67 -87l114 -170h-80q-45 0 -71 6t-44 21q-38 27 -74 79z
" />
    <glyph glyph-name="idieresis" unicode="&#xef;" horiz-adv-x="564" 
d="M375 1014v-1014h-230v1014h230zM-19 1358.5q17 29.5 46 47.5q29 17 62 17t62.5 -17t47.5 -47q17 -29 17 -63q0 -33 -17 -62t-47 -46q-29 -17 -63 -17q-53 0 -89 36t-36 89q0 33 17 62.5zM333 1358.5q17 29.5 46 47.5q29 17 62 17t62.5 -17t47.5 -47q17 -29 17 -63
q0 -33 -17 -62t-47 -46q-29 -17 -63 -17q-52 0 -88.5 36.5t-36.5 88.5q0 33 17 62.5z" />
    <glyph glyph-name="eth" unicode="&#xf0;" horiz-adv-x="1218" 
d="M564 1141l50 72q-48 24 -93.5 42.5t-116.5 43.5l51 201q151 -33 263 -103l28 41l29 40l108 -62l-57 -79q170 -110 254 -309.5t84 -492.5v-4q0 -110 -41 -208.5t-119 -176.5q-76 -76 -177 -118t-209 -42q-109 0 -208.5 41.5t-177.5 118.5q-76 76 -118 176t-42 208
q0 107 41 205.5t117 176.5q76 76 176 118.5t205 43.5q40 0 85.5 -10t80.5 -28q94 -45 122 -100q-56 135 -175 221l-54 -78zM324.5 408.5q24.5 -58.5 69.5 -103.5q94 -94 224 -94q63 0 121 24.5t103 69.5q45 46 69 103.5t24 121.5q0 65 -24 123t-69 103q-43 44 -101 68.5
t-123 24.5t-122 -24t-102 -69t-69.5 -103.5t-24.5 -122.5q0 -63 24.5 -121.5z" />
    <glyph glyph-name="ntilde" unicode="&#xf1;" 
d="M337 1050q0 -3 10 -16q10 -15 12 -39l8 -50q39 56 114 87.5t168 31.5q89 0 163 -32.5t127 -94.5q54 -63 82 -150t28 -193v-594h-231v591q0 121 -43.5 184.5t-129.5 63.5q-51 0 -98.5 -11t-84.5 -31t-60 -48t-26 -58v-691h-230v1050h191zM650.5 1209.5
q-29.5 9.5 -73.5 32.5l-8 5l-12 6q-29 17 -47.5 24t-33.5 7q-20 0 -31.5 -23t-11.5 -60h-153q0 112 49.5 177.5t136.5 65.5q27 0 52.5 -8.5t71.5 -32.5l26 -14q46 -28 77 -28q27 0 39 18.5t12 55.5h157q-4 -68 -13.5 -106.5t-29.5 -64.5q-22 -33 -58.5 -48.5t-92.5 -15.5
q-27 0 -56.5 9.5z" />
    <glyph glyph-name="ograve" unicode="&#xf2;" horiz-adv-x="1226" 
d="M113.5 732q41.5 99 117.5 175t174.5 117t206.5 41t207.5 -41.5t174.5 -116.5t116.5 -174.5t41.5 -207.5t-41 -206.5t-117 -174.5t-175 -117.5t-207 -41.5q-107 0 -206 41.5t-175 117.5t-117.5 175t-41.5 206q0 108 41.5 207zM322 403.5q24 -56.5 68 -99.5
q45 -45 101.5 -68.5t119.5 -23.5q62 0 120 24.5t101 67.5q44 43 68 99.5t24 120.5q0 63 -24 120.5t-68 101.5q-46 43 -103.5 67t-117.5 24q-63 0 -119.5 -23.5t-101.5 -67.5q-44 -44 -68 -101.5t-24 -120.5q0 -64 24 -120.5zM400 1467h148q90 0 128 -50q6 -6 41 -66
l108 -191h-103q-90 0 -129 51z" />
    <glyph glyph-name="oacute" unicode="&#xf3;" horiz-adv-x="1226" 
d="M113.5 732q41.5 99 117.5 175t174.5 117t206.5 41t207.5 -41.5t174.5 -116.5t116.5 -174.5t41.5 -207.5t-41 -206.5t-117 -174.5t-175 -117.5t-207 -41.5q-107 0 -206 41.5t-175 117.5t-117.5 175t-41.5 206q0 108 41.5 207zM322 403.5q24 -56.5 68 -99.5
q45 -45 101.5 -68.5t119.5 -23.5q62 0 120 24.5t101 67.5q44 43 68 99.5t24 120.5q0 63 -24 120.5t-68 101.5q-46 43 -103.5 67t-117.5 24q-63 0 -119.5 -23.5t-101.5 -67.5q-44 -44 -68 -101.5t-24 -120.5q0 -64 24 -120.5zM631 1211q-38 -50 -128 -50h-103l108 190
q29 51 41 67q36 49 128 49h148z" />
    <glyph glyph-name="ocircumflex" unicode="&#xf4;" horiz-adv-x="1226" 
d="M113.5 732q41.5 99 117.5 175t174.5 117t206.5 41t207.5 -41.5t174.5 -116.5t116.5 -174.5t41.5 -207.5t-41 -206.5t-117 -174.5t-175 -117.5t-207 -41.5q-107 0 -206 41.5t-175 117.5t-117.5 175t-41.5 206q0 108 41.5 207zM322 403.5q24 -56.5 68 -99.5
q45 -45 101.5 -68.5t119.5 -23.5q62 0 120 24.5t101 67.5q44 43 68 99.5t24 120.5q0 63 -24 120.5t-68 101.5q-46 43 -103.5 67t-117.5 24q-63 0 -119.5 -23.5t-101.5 -67.5q-44 -44 -68 -101.5t-24 -120.5q0 -64 24 -120.5zM628 1308q-7 7 -10 16l-5 11l-6 -13l-9 -14
l-26 -32l-29 -35q-27 -36 -43.5 -49.5t-42.5 -21.5q-31 -9 -80 -9h-80l35 51q97 147 134 193q34 55 131 55h32q82 0 119 -42q22 -18 67 -87l114 -170h-80q-45 0 -71 6t-44 21q-38 27 -74 79z" />
    <glyph glyph-name="otilde" unicode="&#xf5;" horiz-adv-x="1226" 
d="M113.5 732q41.5 99 117.5 175t174.5 117t206.5 41t207.5 -41.5t174.5 -116.5t116.5 -174.5t41.5 -207.5t-41 -206.5t-117 -174.5t-175 -117.5t-207 -41.5q-107 0 -206 41.5t-175 117.5t-117.5 175t-41.5 206q0 108 41.5 207zM322 403.5q24 -56.5 68 -99.5
q45 -45 101.5 -68.5t119.5 -23.5q62 0 120 24.5t101 67.5q44 43 68 99.5t24 120.5q0 63 -24 120.5t-68 101.5q-46 43 -103.5 67t-117.5 24q-63 0 -119.5 -23.5t-101.5 -67.5q-44 -44 -68 -101.5t-24 -120.5q0 -64 24 -120.5zM672.5 1209.5q-29.5 9.5 -73.5 32.5l-8 5l-12 6
q-29 17 -47.5 24t-33.5 7q-20 0 -31.5 -23t-11.5 -60h-153q0 112 49.5 177.5t136.5 65.5q27 0 52.5 -8.5t71.5 -32.5l26 -14q46 -28 77 -28q27 0 39 18.5t12 55.5h157q-4 -68 -13.5 -106.5t-29.5 -64.5q-22 -33 -58.5 -48.5t-92.5 -15.5q-27 0 -56.5 9.5z" />
    <glyph glyph-name="odieresis" unicode="&#xf6;" horiz-adv-x="1226" 
d="M113.5 732q41.5 99 117.5 175t174.5 117t206.5 41t207.5 -41.5t174.5 -116.5t116.5 -174.5t41.5 -207.5t-41 -206.5t-117 -174.5t-175 -117.5t-207 -41.5q-107 0 -206 41.5t-175 117.5t-117.5 175t-41.5 206q0 108 41.5 207zM322 403.5q24 -56.5 68 -99.5
q45 -45 101.5 -68.5t119.5 -23.5q62 0 120 24.5t101 67.5q44 43 68 99.5t24 120.5q0 63 -24 120.5t-68 101.5q-46 43 -103.5 67t-117.5 24q-63 0 -119.5 -23.5t-101.5 -67.5q-44 -44 -68 -101.5t-24 -120.5q0 -64 24 -120.5zM328 1358.5q17 29.5 46 47.5q29 17 62 17
t62.5 -17t47.5 -47q17 -29 17 -63q0 -33 -17 -62t-47 -46q-29 -17 -63 -17q-53 0 -89 36t-36 89q0 33 17 62.5zM680 1358.5q17 29.5 46 47.5q29 17 62 17t62.5 -17t47.5 -47q17 -29 17 -63q0 -33 -17 -62t-47 -46q-29 -17 -63 -17q-52 0 -88.5 36.5t-36.5 88.5q0 33 17 62.5
z" />
    <glyph glyph-name="divide" unicode="&#xf7;" horiz-adv-x="1160" 
d="M692 924q-21 -21 -49.5 -33t-58.5 -12q-41 0 -76.5 20.5t-55.5 56.5q-21 34 -21 76q0 30 12 58t33 49q45 45 108 45q30 0 58.5 -12t49.5 -33q22 -22 34 -49.5t12 -57.5q0 -62 -46 -108zM1072 562h-971v213h971v-213zM726 247.5q-12 -27.5 -34 -49.5q-21 -21 -49.5 -33
t-58.5 -12q-63 0 -108 45q-21 21 -33 49t-12 58t12 58.5t33 49.5q45 45 108 45q30 0 58.5 -12t49.5 -33t33.5 -49.5t12.5 -58.5t-12 -57.5z" />
    <glyph glyph-name="oslash" unicode="&#xf8;" horiz-adv-x="1226" 
d="M1110.5 732.5q41.5 -99.5 41.5 -207.5t-41 -206.5t-117 -174.5t-175 -117.5t-207 -41.5q-58 0 -114 12l-67 -153q-20 -45 -62.5 -72.5t-93.5 -27.5h-106l145 332q-45 30 -83 68q-76 76 -117.5 175t-41.5 206q0 108 41.5 207t117.5 175t174.5 117t206.5 41q66 0 126 -15
l68 155q21 46 61 73.5t90 27.5h112l-148 -338q39 -27 73 -61q75 -75 116.5 -174.5zM406 289l239 546l-34 2q-63 0 -119.5 -23.5t-101.5 -67.5q-44 -44 -68 -101.5t-24 -120.5q0 -64 24 -120.5t68 -99.5zM900 403.5q24 56.5 24 120.5q0 63 -24 120.5t-68 101.5l-5 5
l-235 -538q1 -1 19 -1q62 0 120 24.5t101 67.5q44 43 68 99.5z" />
    <glyph glyph-name="ugrave" unicode="&#xf9;" 
d="M833 0q-12 12 -21 42t-9 62q-39 -56 -113.5 -87t-168.5 -31q-89 0 -162.5 32.5t-126.5 94.5q-54 63 -82 149.5t-28 192.5v595h230v-591q0 -121 43.5 -184.5t129.5 -63.5q51 0 99 12t85 33q37 22 59.5 50.5t25.5 58.5v685h231v-1050h-192zM376 1467h148q90 0 128 -50
q6 -6 41 -66l108 -191h-103q-90 0 -129 51z" />
    <glyph glyph-name="uacute" unicode="&#xfa;" 
d="M833 0q-12 12 -21 42t-9 62q-39 -56 -113.5 -87t-168.5 -31q-89 0 -162.5 32.5t-126.5 94.5q-54 63 -82 149.5t-28 192.5v595h230v-591q0 -121 43.5 -184.5t129.5 -63.5q51 0 99 12t85 33q37 22 59.5 50.5t25.5 58.5v685h231v-1050h-192zM607 1211q-38 -50 -128 -50h-103
l108 190q29 51 41 67q36 49 128 49h148z" />
    <glyph glyph-name="ucircumflex" unicode="&#xfb;" 
d="M833 0q-12 12 -21 42t-9 62q-39 -56 -113.5 -87t-168.5 -31q-89 0 -162.5 32.5t-126.5 94.5q-54 63 -82 149.5t-28 192.5v595h230v-591q0 -121 43.5 -184.5t129.5 -63.5q51 0 99 12t85 33q37 22 59.5 50.5t25.5 58.5v685h231v-1050h-192zM604 1308q-7 7 -10 16l-5 11
l-6 -13l-9 -14l-26 -32l-29 -35q-27 -36 -43.5 -49.5t-42.5 -21.5q-31 -9 -80 -9h-80l35 51q97 147 134 193q34 55 131 55h32q82 0 119 -42q22 -18 67 -87l114 -170h-80q-45 0 -71 6t-44 21q-38 27 -74 79z" />
    <glyph glyph-name="udieresis" unicode="&#xfc;" 
d="M833 0q-12 12 -21 42t-9 62q-39 -56 -113.5 -87t-168.5 -31q-89 0 -162.5 32.5t-126.5 94.5q-54 63 -82 149.5t-28 192.5v595h230v-591q0 -121 43.5 -184.5t129.5 -63.5q51 0 99 12t85 33q37 22 59.5 50.5t25.5 58.5v685h231v-1050h-192zM304 1358.5q17 29.5 46 47.5
q29 17 62 17t62.5 -17t47.5 -47q17 -29 17 -63q0 -33 -17 -62t-47 -46q-29 -17 -63 -17q-53 0 -89 36t-36 89q0 33 17 62.5zM656 1358.5q17 29.5 46 47.5q29 17 62 17t62.5 -17t47.5 -47q17 -29 17 -63q0 -33 -17 -62t-47 -46q-29 -17 -63 -17q-52 0 -88.5 36.5t-36.5 88.5
q0 33 17 62.5z" />
    <glyph glyph-name="yacute" unicode="&#xfd;" horiz-adv-x="1156" 
d="M1127 1050l-582 -1334q-18 -47 -62 -76t-95 -29h-139l202 466l-423 973h139q54 0 96.5 -27.5t58.5 -73.5l206 -482q30 -70 30 -126v-12q0 -17 -3 -26l10 23q38 91 75 177l114 264l78 183q20 45 62 72t93 28h140zM596 1211q-38 -50 -128 -50h-103l108 190q29 51 41 67
q36 49 128 49h148z" />
    <glyph glyph-name="thorn" unicode="&#xfe;" horiz-adv-x="1210" 
d="M376 1432v-480q16 58 106 89q29 11 67 17t72 6q107 0 203 -41t169 -117q72 -75 110.5 -173t38.5 -208t-38.5 -207.5t-110.5 -173.5t-168.5 -117.5t-203.5 -41.5q-150 0 -245 86v-410h-230v1771h230zM738.5 237q55.5 24 95.5 67t61.5 99.5t21.5 121.5q0 64 -21.5 121
t-61.5 100t-95.5 67t-117.5 24q-69 0 -133 -26t-112 -73v-427q49 -46 114 -72.5t131 -26.5q62 1 117.5 25z" />
    <glyph glyph-name="ydieresis" unicode="&#xff;" horiz-adv-x="1156" 
d="M1127 1050l-582 -1334q-18 -47 -62 -76t-95 -29h-139l202 466l-423 973h139q54 0 96.5 -27.5t58.5 -73.5l206 -482q30 -70 30 -126v-12q0 -17 -3 -26l10 23q38 91 75 177l114 264l78 183q20 45 62 72t93 28h140zM293 1358.5q17 29.5 46 47.5q29 17 62 17t62.5 -17
t47.5 -47q17 -29 17 -63q0 -33 -17 -62t-47 -46q-29 -17 -63 -17q-53 0 -89 36t-36 89q0 33 17 62.5zM645 1358.5q17 29.5 46 47.5q29 17 62 17t62.5 -17t47.5 -47q17 -29 17 -63q0 -33 -17 -62t-47 -46q-29 -17 -63 -17q-52 0 -88.5 36.5t-36.5 88.5q0 33 17 62.5z" />
    <glyph glyph-name="Amacron" unicode="&#x100;" horiz-adv-x="1396" 
d="M670 1433h215l625 -1433h-138q-52 0 -94 26.5t-63 73.5l-92 211h-692l-91 -211q-20 -45 -63 -72.5t-94 -27.5h-139zM533 542h489l-224 516q-19 40 -21 89q-7 -54 -21 -89zM412 1725h571v-184h-571v184z" />
    <glyph glyph-name="amacron" unicode="&#x101;" horiz-adv-x="1094" 
d="M170 883q28 46 103 102q124 79 283 79q158 0 253 -69t135 -210q28 -94 28 -261v-524h-188q-14 17 -22 42.5t-8 50.5q-51 -45 -137 -76t-156 -31q-80 0 -147.5 23t-115.5 66q-49 43 -76 104t-27 130q0 168 128.5 257.5t370.5 89.5q24 0 96 -5l33 -3l18 -3q-7 104 -54 156
t-132 52q-34 0 -61 -6t-63 -19q-39 -17 -55 -21.5t-38 -4.5q-55 0 -104 37zM601.5 218.5q76.5 22.5 145.5 61.5v161l-20 2q-36 0 -38 1l-104 2q-127 0 -196 -34.5t-69 -99.5q0 -56 37 -86t104 -30q64 0 140.5 22.5zM261 1384h571v-184h-571v184z" />
    <glyph glyph-name="Abreve" unicode="&#x102;" horiz-adv-x="1396" 
d="M670 1433h215l625 -1433h-138q-52 0 -94 26.5t-63 73.5l-92 211h-692l-91 -211q-20 -45 -63 -72.5t-94 -27.5h-139zM533 542h489l-224 516q-19 40 -21 89q-7 -54 -21 -89zM993 1792q0 -59 -23 -111t-66 -92q-42 -38 -95 -58.5t-112 -20.5t-111.5 20.5t-94.5 58.5
q-43 40 -66 92t-23 111h59q33 0 61 -15.5t42 -42.5q41 -65 133 -65q94 0 133 65q15 28 42 43t62 15h59z" />
    <glyph glyph-name="abreve" unicode="&#x103;" horiz-adv-x="1094" 
d="M170 883q28 46 103 102q124 79 283 79q158 0 253 -69t135 -210q28 -94 28 -261v-524h-188q-14 17 -22 42.5t-8 50.5q-51 -45 -137 -76t-156 -31q-80 0 -147.5 23t-115.5 66q-49 43 -76 104t-27 130q0 168 128.5 257.5t370.5 89.5q24 0 96 -5l33 -3l18 -3q-7 104 -54 156
t-132 52q-34 0 -61 -6t-63 -19q-39 -17 -55 -21.5t-38 -4.5q-55 0 -104 37zM601.5 218.5q76.5 22.5 145.5 61.5v161l-20 2q-36 0 -38 1l-104 2q-127 0 -196 -34.5t-69 -99.5q0 -56 37 -86t104 -30q64 0 140.5 22.5zM842 1424q0 -60 -23 -113.5t-66 -93.5q-42 -39 -96 -61
t-110 -22q-59 0 -111.5 21.5t-94.5 61.5q-43 40 -66.5 93.5t-23.5 113.5h59q33 0 61.5 -16t42.5 -43q20 -32 56.5 -50.5t76.5 -18.5t76 18.5t56 50.5q16 29 43 44t61 15h59z" />
    <glyph glyph-name="Aogonek" unicode="&#x104;" horiz-adv-x="1396" 
d="M1506 -300q-43 -30 -102 -47.5t-119 -17.5q-111 0 -172 46q-31 22 -47.5 53t-16.5 69q0 105 176 210q-62 26 -89 87l-92 211h-692l-91 -211q-20 -45 -63 -72.5t-94 -27.5h-139l626 1433h215l625 -1433h-75q-127 -70 -127 -148q0 -35 25 -55t67 -20q19 0 39 4q20 3 40 3
q66 0 87 -43zM943 542l-224 516q-19 40 -21 89q-7 -54 -21 -89l-223 -516h489z" />
    <glyph glyph-name="aogonek" unicode="&#x105;" horiz-adv-x="1094" 
d="M1085 -300q-43 -30 -102 -47.5t-119 -17.5q-111 0 -172 46q-31 22 -47.5 53t-16.5 69q0 96 155 198q-13 17 -21 42.5t-8 49.5q-51 -45 -137 -76t-156 -31q-80 0 -147.5 23t-115.5 66q-49 43 -76 104t-27 130q0 168 128.5 257.5t370.5 89.5q24 0 96 -5l33 -3l18 -3
q-7 104 -54 156t-132 52q-34 0 -61 -6t-63 -19q-39 -17 -55 -21.5t-38 -4.5q-55 0 -104 37l-64 44q28 46 103 102q124 79 283 79q158 0 253 -69t135 -210q28 -94 28 -261v-524h-37q-127 -70 -127 -148q0 -35 25 -55t67 -20q19 0 39 4q19 3 40 3q66 0 87 -43zM747 441l-20 2
q-36 0 -38 1l-104 2q-127 0 -196 -34.5t-69 -99.5q0 -56 37 -86t104 -30q64 0 140.5 22.5t145.5 61.5v161z" />
    <glyph glyph-name="Cacute" unicode="&#x106;" horiz-adv-x="1456" 
d="M358.5 523.5q38.5 -91.5 109.5 -161.5q70 -70 162 -108.5t193 -38.5q154 0 284 90q44 27 92 27q39 0 68 -12t56 -39l49 -49q-109 -118 -252 -182.5t-297 -64.5q-146 0 -280.5 56t-237.5 159t-159 237t-56 280q0 99 25.5 193t74.5 176q48 81 115 148t148 115
q82 48 176.5 73.5t193.5 25.5q152 0 296 -65t253 -182l-49 -49q-52 -52 -124 -52q-48 0 -92 29q-134 89 -284 89q-101 0 -193 -38.5t-162 -108.5t-109 -162.5t-39 -191.5q0 -102 38.5 -193.5zM854 1594q-38 -50 -129 -50h-103l53 88l21 36l23 37l37 58q38 50 128 50h148z
" />
    <glyph glyph-name="cacute" unicode="&#x107;" horiz-adv-x="1042" 
d="M496.5 813q-57.5 -24 -103.5 -67q-44 -43 -68.5 -100.5t-24.5 -120.5q0 -65 24 -122t69 -100q46 -43 103.5 -67t117.5 -24q39 0 78.5 9.5t103.5 34.5q19 13 61 13q30 0 58 -13.5t68 -46.5l39 -38q-83 -89 -188.5 -137t-219.5 -48q-107 0 -206 41t-175 117
q-76 75 -117.5 174t-41.5 207t41.5 207t117.5 174q76 76 175 117t206 41q110 0 216.5 -48.5t191.5 -136.5l-39 -39q-27 -27 -62.5 -42.5t-72.5 -15.5q-25 0 -34 2t-20 10q-62 23 -102 32.5t-78 10.5q-60 0 -117.5 -24zM539 1211q-38 -50 -128 -50h-103l108 190q29 51 41 67
q36 49 128 49h148z" />
    <glyph glyph-name="Ccircumflex" unicode="&#x108;" horiz-adv-x="1456" 
d="M358.5 523.5q38.5 -91.5 109.5 -161.5q70 -70 162 -108.5t193 -38.5q154 0 284 90q44 27 92 27q39 0 68 -12t56 -39l49 -49q-109 -118 -252 -182.5t-297 -64.5q-146 0 -280.5 56t-237.5 159t-159 237t-56 280q0 99 25.5 193t74.5 176q48 81 115 148t148 115
q82 48 176.5 73.5t193.5 25.5q152 0 296 -65t253 -182l-49 -49q-52 -52 -124 -52q-48 0 -92 29q-134 89 -284 89q-101 0 -193 -38.5t-162 -108.5t-109 -162.5t-39 -191.5q0 -102 38.5 -193.5zM818 1641q-6 7 -10 17l-5 11l-6 -13l-9 -14l-31 -32q-30 -32 -48 -48.5
t-36 -27.5q-21 -13 -46 -19t-60 -6h-80l172 227q35 50 128 50h32q89 0 127 -50l173 -227h-80q-77 0 -130 41q-21 15 -46 42z" />
    <glyph glyph-name="ccircumflex" unicode="&#x109;" horiz-adv-x="1042" 
d="M496.5 813q-57.5 -24 -103.5 -67q-44 -43 -68.5 -100.5t-24.5 -120.5q0 -65 24 -122t69 -100q46 -43 103.5 -67t117.5 -24q39 0 78.5 9.5t103.5 34.5q19 13 61 13q30 0 58 -13.5t68 -46.5l39 -38q-83 -89 -188.5 -137t-219.5 -48q-107 0 -206 41t-175 117
q-76 75 -117.5 174t-41.5 207t41.5 207t117.5 174q76 76 175 117t206 41q110 0 216.5 -48.5t191.5 -136.5l-39 -39q-27 -27 -62.5 -42.5t-72.5 -15.5q-25 0 -34 2t-20 10q-62 23 -102 32.5t-78 10.5q-60 0 -117.5 -24zM536 1308q-7 7 -10 16l-5 11l-6 -13l-9 -14l-26 -32
l-29 -35q-27 -36 -43.5 -49.5t-42.5 -21.5q-31 -9 -80 -9h-80l35 51q97 147 134 193q34 55 131 55h32q82 0 119 -42q22 -18 67 -87l114 -170h-80q-45 0 -71 6t-44 21q-38 27 -74 79z" />
    <glyph glyph-name="Cdotaccent" unicode="&#x10a;" horiz-adv-x="1456" 
d="M358.5 523.5q38.5 -91.5 109.5 -161.5q70 -70 162 -108.5t193 -38.5q154 0 284 90q44 27 92 27q39 0 68 -12t56 -39l49 -49q-109 -118 -252 -182.5t-297 -64.5q-146 0 -280.5 56t-237.5 159t-159 237t-56 280q0 99 25.5 193t74.5 176q48 81 115 148t148 115
q82 48 176.5 73.5t193.5 25.5q152 0 296 -65t253 -182l-49 -49q-52 -52 -124 -52q-48 0 -92 29q-134 89 -284 89q-101 0 -193 -38.5t-162 -108.5t-109 -162.5t-39 -191.5q0 -102 38.5 -193.5zM701 1749q19 33 52 52q31 19 73 19q40 0 73 -19t52 -52q19 -31 19 -72
q0 -38 -19 -70.5t-53 -53.5q-35 -20 -72 -20q-38 0 -70.5 19t-53.5 53q-20 35 -20 72q0 39 19 72z" />
    <glyph glyph-name="cdotaccent" unicode="&#x10b;" horiz-adv-x="1042" 
d="M496.5 813q-57.5 -24 -103.5 -67q-44 -43 -68.5 -100.5t-24.5 -120.5q0 -65 24 -122t69 -100q46 -43 103.5 -67t117.5 -24q39 0 78.5 9.5t103.5 34.5q19 13 61 13q30 0 58 -13.5t68 -46.5l39 -38q-83 -89 -188.5 -137t-219.5 -48q-107 0 -206 41t-175 117
q-76 75 -117.5 174t-41.5 207t41.5 207t117.5 174q76 76 175 117t206 41q110 0 216.5 -48.5t191.5 -136.5l-39 -39q-27 -27 -62.5 -42.5t-72.5 -15.5q-25 0 -34 2t-20 10q-62 23 -102 32.5t-78 10.5q-60 0 -117.5 -24zM396 1368q19 33 52 52q31 19 73 19q40 0 73 -19t52 -52
q19 -31 19 -72q0 -39 -19.5 -72t-52.5 -52q-31 -19 -72 -19q-39 0 -71.5 19t-52.5 52q-20 35 -20 72q0 39 19 72z" />
    <glyph glyph-name="Ccaron" unicode="&#x10c;" horiz-adv-x="1456" 
d="M358.5 523.5q38.5 -91.5 109.5 -161.5q70 -70 162 -108.5t193 -38.5q154 0 284 90q44 27 92 27q39 0 68 -12t56 -39l49 -49q-109 -118 -252 -182.5t-297 -64.5q-146 0 -280.5 56t-237.5 159t-159 237t-56 280q0 99 25.5 193t74.5 176q48 81 115 148t148 115
q82 48 176.5 73.5t193.5 25.5q152 0 296 -65t253 -182l-49 -49q-52 -52 -124 -52q-48 0 -92 29q-134 89 -284 89q-101 0 -193 -38.5t-162 -108.5t-109 -162.5t-39 -191.5q0 -102 38.5 -193.5zM499 1860q42 0 54 -4q46 -6 90 -56q19 -21 36 -44q21 -31 33 -44l9 -16
q3 -8 6 -11l11 18q5 9 12 18l40 53q32 45 71.5 65.5t93.5 20.5h88l-126 -186q-40 -58 -53 -71q-22 -20 -41 -29q-40 -14 -80 -14h-31q-52 0 -84 16t-59 55q-36 48 -100 146l-29 42l-28 41h87z" />
    <glyph glyph-name="ccaron" unicode="&#x10d;" horiz-adv-x="1042" 
d="M496.5 813q-57.5 -24 -103.5 -67q-44 -43 -68.5 -100.5t-24.5 -120.5q0 -65 24 -122t69 -100q46 -43 103.5 -67t117.5 -24q39 0 78.5 9.5t103.5 34.5q19 13 61 13q30 0 58 -13.5t68 -46.5l39 -38q-83 -89 -188.5 -137t-219.5 -48q-107 0 -206 41t-175 117
q-76 75 -117.5 174t-41.5 207t41.5 207t117.5 174q76 76 175 117t206 41q110 0 216.5 -48.5t191.5 -136.5l-39 -39q-27 -27 -62.5 -42.5t-72.5 -15.5q-25 0 -34 2t-20 10q-62 23 -102 32.5t-78 10.5q-60 0 -117.5 -24zM292 1460q42 0 54 -4q46 -6 90 -56q19 -21 36 -44
q21 -31 33 -44l9 -16q3 -8 6 -11l11 18q5 9 12 18l40 53q32 45 71.5 65.5t93.5 20.5h88l-126 -186q-40 -58 -53 -71q-22 -20 -41 -29q-40 -14 -80 -14h-31q-52 0 -84 16t-59 55q-36 48 -100 146l-29 42l-28 41h87z" />
    <glyph glyph-name="Dcaron" unicode="&#x10e;" horiz-adv-x="1534" 
d="M174 0v1433h551q98 0 190.5 -25t172.5 -73q81 -48 147 -113.5t111 -143.5q48 -82 73 -174t25 -188q0 -191 -98 -361q-46 -78 -111.5 -144t-146.5 -113q-82 -48 -174.5 -73t-188.5 -25h-551zM725 230q97 0 186.5 37t158.5 105q69 69 106 157.5t37 186.5q0 96 -37.5 185.5
t-105.5 157.5q-69 68 -159 105.5t-186 37.5h-321v-972h321zM538 1860q42 0 54 -4q46 -6 90 -56q19 -21 36 -44q21 -31 33 -44l9 -16q3 -8 6 -11l11 18q5 9 12 18l40 53q32 45 71.5 65.5t93.5 20.5h88l-126 -186q-40 -58 -53 -71q-22 -20 -41 -29q-40 -14 -80 -14h-31
q-52 0 -84 16t-59 55q-36 48 -100 146l-29 42l-28 41h87z" />
    <glyph glyph-name="dcaron" unicode="&#x10f;" horiz-adv-x="1208" 
d="M1068 0h-192l-4 6q-9 13 -16.5 34.5t-8.5 35.5q-97 -91 -254 -91q-107 0 -203.5 41.5t-168.5 116.5t-110.5 173t-38.5 208t38.5 208t110.5 173t168.5 116.5t203.5 41.5q147 0 245 -89v459h230v-1433zM476 812q-55 -24 -95 -67q-39 -42 -60.5 -99t-21.5 -122t21.5 -122.5
t60.5 -99.5q40 -43 95 -67t117 -24q66 0 131 26.5t114 72.5v427q-49 46 -114 72.5t-131 26.5q-62 0 -117 -24zM1252 1443h96q38 0 59 -21t21 -57v-9q0 -9 -1 -10l-20 -127q-5 -35 -30.5 -56.5t-61.5 -21.5h-63v302z" />
    <glyph glyph-name="Dcroat" unicode="&#x110;" horiz-adv-x="1534" 
d="M1419 904q25 -92 25 -188q0 -191 -98 -361q-46 -78 -111.5 -144t-146.5 -113q-82 -48 -174.5 -73t-188.5 -25h-551v625h-149v184h149v624h551q98 0 190.5 -25t172.5 -73q81 -48 147 -113.5t111 -143.5q48 -82 73 -174zM1176 529.5q37 88.5 37 186.5q0 96 -37.5 185.5
t-105.5 157.5q-69 68 -159 105.5t-186 37.5h-321v-393h192v-184h-192v-395h321q97 0 186.5 37t158.5 105q69 69 106 157.5z" />
    <glyph glyph-name="dcroat" unicode="&#x111;" horiz-adv-x="1208" 
d="M632 1372h206v61h230v-61h100v-188h-100v-1184h-192q-23 29 -29 78q-97 -93 -254 -93q-107 0 -203.5 41.5t-168.5 116.5t-110.5 173t-38.5 208t38.5 208t110.5 173t168.5 116.5t203.5 41.5q147 0 245 -89v210h-206v188zM476 812q-55 -24 -95 -67q-39 -42 -60.5 -99
t-21.5 -122t21.5 -122.5t60.5 -99.5q40 -43 95 -67t117 -24q66 0 131 26.5t114 72.5v427q-49 46 -114 72.5t-131 26.5q-62 0 -117 -24z" />
    <glyph glyph-name="Emacron" unicode="&#x112;" horiz-adv-x="1182" 
d="M1077 0h-903v1433h903v-225h-673v-373h545v-225h-545v-385h673v-225zM305 1725h571v-184h-571v184z" />
    <glyph glyph-name="emacron" unicode="&#x113;" horiz-adv-x="1213" 
d="M1088 495q-22 -19 -49 -29.5t-52 -10.5h-677q7 -46 32.5 -91t65.5 -81q42 -38 94.5 -59t109.5 -21q84 0 154 40q41 23 88 23q66 0 117 -51l49 -49q-81 -87 -186 -134t-222 -47q-107 0 -206 41.5t-175 117.5t-117.5 175t-41.5 206q0 108 41.5 207t117.5 174q76 76 175 117
t206 41q89 0 174.5 -30t157.5 -86q69 -54 118.5 -128t72.5 -160q4 -7 4 -25q0 -23 1 -24q0 -70 -52 -116zM899 663q-15 36 -42 69t-62 58q-83 56 -180 56q-109 0 -195 -65q-38 -29 -64.5 -67t-38.5 -80q10 13 26 21t34 8h522zM321 1384h571v-184h-571v184z" />
    <glyph glyph-name="Ebreve" unicode="&#x114;" horiz-adv-x="1182" 
d="M1077 0h-903v1433h903v-225h-673v-373h545v-225h-545v-385h673v-225zM886 1792q0 -59 -23 -111t-66 -92q-42 -38 -95 -58.5t-112 -20.5t-111.5 20.5t-94.5 58.5q-43 40 -66 92t-23 111h59q33 0 61 -15.5t42 -42.5q41 -65 133 -65q94 0 133 65q15 28 42 43t62 15h59z" />
    <glyph glyph-name="ebreve" unicode="&#x115;" horiz-adv-x="1213" 
d="M1088 495q-22 -19 -49 -29.5t-52 -10.5h-677q7 -46 32.5 -91t65.5 -81q42 -38 94.5 -59t109.5 -21q84 0 154 40q41 23 88 23q66 0 117 -51l49 -49q-81 -87 -186 -134t-222 -47q-107 0 -206 41.5t-175 117.5t-117.5 175t-41.5 206q0 108 41.5 207t117.5 174q76 76 175 117
t206 41q89 0 174.5 -30t157.5 -86q69 -54 118.5 -128t72.5 -160q4 -7 4 -25q0 -23 1 -24q0 -70 -52 -116zM899 663q-15 36 -42 69t-62 58q-83 56 -180 56q-109 0 -195 -65q-38 -29 -64.5 -67t-38.5 -80q10 13 26 21t34 8h522zM902 1424q0 -60 -23 -113.5t-66 -93.5
q-42 -39 -96 -61t-110 -22q-59 0 -111.5 21.5t-94.5 61.5q-43 40 -66.5 93.5t-23.5 113.5h59q33 0 61.5 -16t42.5 -43q20 -32 56.5 -50.5t76.5 -18.5t76 18.5t56 50.5q16 29 43 44t61 15h59z" />
    <glyph glyph-name="Edotaccent" unicode="&#x116;" horiz-adv-x="1182" 
d="M1077 0h-903v1433h903v-225h-673v-373h545v-225h-545v-385h673v-225zM466 1749q19 33 52 52q31 19 73 19q40 0 73 -19t52 -52q19 -31 19 -72q0 -38 -19 -70.5t-53 -53.5q-35 -20 -72 -20q-38 0 -70.5 19t-53.5 53q-20 35 -20 72q0 39 19 72z" />
    <glyph glyph-name="edotaccent" unicode="&#x117;" horiz-adv-x="1213" 
d="M1088 495q-22 -19 -49 -29.5t-52 -10.5h-677q7 -46 32.5 -91t65.5 -81q42 -38 94.5 -59t109.5 -21q84 0 154 40q41 23 88 23q66 0 117 -51l49 -49q-81 -87 -186 -134t-222 -47q-107 0 -206 41.5t-175 117.5t-117.5 175t-41.5 206q0 108 41.5 207t117.5 174q76 76 175 117
t206 41q89 0 174.5 -30t157.5 -86q69 -54 118.5 -128t72.5 -160q4 -7 4 -25q0 -23 1 -24q0 -70 -52 -116zM899 663q-15 36 -42 69t-62 58q-83 56 -180 56q-109 0 -195 -65q-38 -29 -64.5 -67t-38.5 -80q10 13 26 21t34 8h522zM481 1368q19 33 52 52q31 19 73 19q40 0 73 -19
t52 -52q19 -31 19 -72q0 -39 -19.5 -72t-52.5 -52q-31 -19 -72 -19q-39 0 -71.5 19t-52.5 52q-20 35 -20 72q0 39 19 72z" />
    <glyph glyph-name="Eogonek" unicode="&#x118;" horiz-adv-x="1182" 
d="M404 1208v-373h545v-225h-545v-385h673v-225h-159l9 -1q-127 -70 -127 -148q0 -35 25 -55t67 -20q19 0 39 4q19 3 40 3q66 0 87 -43l19 -41q-43 -30 -102 -47.5t-119 -17.5q-111 0 -172 46q-31 22 -47.5 53t-16.5 69q0 97 156 198h-602v1433h903v-225h-673z" />
    <glyph glyph-name="eogonek" unicode="&#x119;" horiz-adv-x="1213" 
d="M1140 611q0 -70 -52 -116q-22 -19 -49 -29.5t-52 -10.5h-677q7 -46 32.5 -91t65.5 -81q42 -38 94.5 -59t109.5 -21q84 0 154 40q41 23 88 23q66 0 117 -51l49 -49q-63 -68 -141.5 -112t-165.5 -60q-119 -69 -119 -143q0 -35 25 -55t67 -20q19 0 39 4q20 3 40 3
q66 0 87 -43l19 -41q-43 -30 -102 -47.5t-119 -17.5q-111 0 -172 46q-31 22 -47.5 53t-16.5 69q0 47 36 95.5t102 90.5q-90 10 -172.5 50t-148.5 106q-76 76 -117.5 175t-41.5 206q0 108 41.5 207t117.5 174q76 76 175 117t206 41q89 0 174.5 -30t157.5 -86
q69 -54 118.5 -128t72.5 -160q4 -7 4 -25q0 -23 1 -24zM899 663q-15 36 -42 69t-62 58q-83 56 -180 56q-109 0 -195 -65q-38 -29 -64.5 -67t-38.5 -80q10 13 26 21t34 8h522z" />
    <glyph glyph-name="Ecaron" unicode="&#x11a;" horiz-adv-x="1182" 
d="M1077 0h-903v1433h903v-225h-673v-373h545v-225h-545v-385h673v-225zM362 1860q42 0 54 -4q46 -6 90 -56q19 -21 36 -44q21 -31 33 -44l9 -16q3 -8 6 -11l11 18q5 9 12 18l40 53q32 45 71.5 65.5t93.5 20.5h88l-126 -186q-40 -58 -53 -71q-22 -20 -41 -29
q-40 -14 -80 -14h-31q-52 0 -84 16t-59 55q-36 48 -100 146l-29 42l-28 41h87z" />
    <glyph glyph-name="ecaron" unicode="&#x11b;" horiz-adv-x="1213" 
d="M1088 495q-22 -19 -49 -29.5t-52 -10.5h-677q7 -46 32.5 -91t65.5 -81q42 -38 94.5 -59t109.5 -21q84 0 154 40q41 23 88 23q66 0 117 -51l49 -49q-81 -87 -186 -134t-222 -47q-107 0 -206 41.5t-175 117.5t-117.5 175t-41.5 206q0 108 41.5 207t117.5 174q76 76 175 117
t206 41q89 0 174.5 -30t157.5 -86q69 -54 118.5 -128t72.5 -160q4 -7 4 -25q0 -23 1 -24q0 -70 -52 -116zM899 663q-15 36 -42 69t-62 58q-83 56 -180 56q-109 0 -195 -65q-38 -29 -64.5 -67t-38.5 -80q10 13 26 21t34 8h522zM378 1460q42 0 54 -4q46 -6 90 -56
q19 -21 36 -44q21 -31 33 -44l9 -16q3 -8 6 -11l11 18q5 9 12 18l40 53q32 45 71.5 65.5t93.5 20.5h88l-126 -186q-40 -58 -53 -71q-22 -20 -41 -29q-40 -14 -80 -14h-31q-52 0 -84 16t-59 55q-36 48 -100 146l-29 42l-28 41h87z" />
    <glyph glyph-name="Gcircumflex" unicode="&#x11c;" horiz-adv-x="1499" 
d="M1361 748v-589q-86 -89 -217 -131t-320 -42q-99 0 -193 25.5t-176 74.5q-81 47 -148 114t-115 148q-49 82 -74.5 176t-25.5 193t25.5 193t74.5 176q48 81 115 148t148 115q82 48 176 73.5t193 25.5q154 0 297 -64.5t252 -182.5l-48 -49q-27 -27 -56.5 -39.5t-67.5 -12.5
q-51 0 -92 29q-134 89 -285 89q-101 0 -192.5 -38.5t-161.5 -108.5t-109 -162.5t-39 -191.5q0 -98 40 -190.5t113 -165.5q73 -70 165.5 -108t193.5 -38q174 0 297 55v253h-59q-73 0 -123 48q-23 22 -35 51.5t-12 63.5v62h459zM907 1641q-6 7 -10 17l-5 11l-6 -13l-9 -14
l-31 -32q-30 -32 -48 -48.5t-36 -27.5q-21 -13 -46 -19t-60 -6h-80l172 227q35 50 128 50h32q89 0 127 -50l173 -227h-80q-77 0 -130 41q-21 15 -46 42z" />
    <glyph glyph-name="gcircumflex" unicode="&#x11d;" horiz-adv-x="1048" 
d="M1007 921q-22 -51 -55.5 -73t-89.5 -22q32 -88 32 -156q0 -78 -30 -150.5t-85 -127.5q-57 -57 -129.5 -87.5t-152.5 -30.5q-81 0 -174 38q-31 -21 -40 -33q-12 -15 -12 -26q0 -9 4 -13l6 -6q17 -17 71 -23q41 -7 142 -7h66q69 -3 115 -9.5t85 -19.5q79 -27 122 -88.5
t43 -144.5q0 -61 -24.5 -113t-71.5 -90q-97 -82 -275 -82q-108 0 -221 27.5t-288 95.5q20 53 30 72q10 22 22 34q37 46 107 46q46 0 90 -18l39 -14q109 -41 214 -41q25 0 54 5t49 14q63 21 63 65q0 22 -14 33.5t-52 20.5q-33 9 -74 13t-123 6q-89 3 -130 7t-78 13
q-107 26 -145 101q-17 32 -17 73q0 45 37 93.5t99 83.5q-58 58 -88 129.5t-30 151.5q0 78 31 151.5t86 128.5t128 85.5t153 30.5q125 0 225 -70q28 13 65 21.5t73 8.5t76 -8t95 -25zM325.5 596q14.5 -34 39.5 -59t59 -39.5t72 -14.5q36 0 70.5 14.5t59.5 39.5t39.5 59
t14.5 72q0 36 -14.5 70.5t-39.5 59.5t-59.5 39.5t-70.5 14.5q-38 0 -72 -14.5t-59 -39.5t-39.5 -59.5t-14.5 -70.5q0 -38 14.5 -72zM539 1308q-7 7 -10 16l-5 11l-6 -13l-9 -14l-26 -32l-29 -35q-27 -36 -43.5 -49.5t-42.5 -21.5q-31 -9 -80 -9h-80l35 51q97 147 134 193
q34 55 131 55h32q82 0 119 -42q22 -18 67 -87l114 -170h-80q-45 0 -71 6t-44 21q-38 27 -74 79z" />
    <glyph glyph-name="Gbreve" unicode="&#x11e;" horiz-adv-x="1499" 
d="M1361 748v-589q-86 -89 -217 -131t-320 -42q-99 0 -193 25.5t-176 74.5q-81 47 -148 114t-115 148q-49 82 -74.5 176t-25.5 193t25.5 193t74.5 176q48 81 115 148t148 115q82 48 176 73.5t193 25.5q154 0 297 -64.5t252 -182.5l-48 -49q-27 -27 -56.5 -39.5t-67.5 -12.5
q-51 0 -92 29q-134 89 -285 89q-101 0 -192.5 -38.5t-161.5 -108.5t-109 -162.5t-39 -191.5q0 -98 40 -190.5t113 -165.5q73 -70 165.5 -108t193.5 -38q174 0 297 55v253h-59q-73 0 -123 48q-23 22 -35 51.5t-12 63.5v62h459zM1045 1792q0 -59 -23 -111t-66 -92
q-42 -38 -95 -58.5t-112 -20.5t-111.5 20.5t-94.5 58.5q-43 40 -66 92t-23 111h59q33 0 61 -15.5t42 -42.5q41 -65 133 -65q94 0 133 65q15 28 42 43t62 15h59z" />
    <glyph glyph-name="gbreve" unicode="&#x11f;" horiz-adv-x="1048" 
d="M1007 921q-22 -51 -55.5 -73t-89.5 -22q32 -88 32 -156q0 -78 -30 -150.5t-85 -127.5q-57 -57 -129.5 -87.5t-152.5 -30.5q-81 0 -174 38q-31 -21 -40 -33q-12 -15 -12 -26q0 -9 4 -13l6 -6q17 -17 71 -23q41 -7 142 -7h66q69 -3 115 -9.5t85 -19.5q79 -27 122 -88.5
t43 -144.5q0 -61 -24.5 -113t-71.5 -90q-97 -82 -275 -82q-108 0 -221 27.5t-288 95.5q20 53 30 72q10 22 22 34q37 46 107 46q46 0 90 -18l39 -14q109 -41 214 -41q25 0 54 5t49 14q63 21 63 65q0 22 -14 33.5t-52 20.5q-33 9 -74 13t-123 6q-89 3 -130 7t-78 13
q-107 26 -145 101q-17 32 -17 73q0 45 37 93.5t99 83.5q-58 58 -88 129.5t-30 151.5q0 78 31 151.5t86 128.5t128 85.5t153 30.5q125 0 225 -70q28 13 65 21.5t73 8.5t76 -8t95 -25zM325.5 596q14.5 -34 39.5 -59t59 -39.5t72 -14.5q36 0 70.5 14.5t59.5 39.5t39.5 59
t14.5 72q0 36 -14.5 70.5t-39.5 59.5t-59.5 39.5t-70.5 14.5q-38 0 -72 -14.5t-59 -39.5t-39.5 -59.5t-14.5 -70.5q0 -38 14.5 -72zM819 1424q0 -60 -23 -113.5t-66 -93.5q-42 -39 -96 -61t-110 -22q-59 0 -111.5 21.5t-94.5 61.5q-43 40 -66.5 93.5t-23.5 113.5h59
q33 0 61.5 -16t42.5 -43q20 -32 56.5 -50.5t76.5 -18.5t76 18.5t56 50.5q16 29 43 44t61 15h59z" />
    <glyph glyph-name="Gdotaccent" unicode="&#x120;" horiz-adv-x="1499" 
d="M1361 748v-589q-86 -89 -217 -131t-320 -42q-99 0 -193 25.5t-176 74.5q-81 47 -148 114t-115 148q-49 82 -74.5 176t-25.5 193t25.5 193t74.5 176q48 81 115 148t148 115q82 48 176 73.5t193 25.5q154 0 297 -64.5t252 -182.5l-48 -49q-27 -27 -56.5 -39.5t-67.5 -12.5
q-51 0 -92 29q-134 89 -285 89q-101 0 -192.5 -38.5t-161.5 -108.5t-109 -162.5t-39 -191.5q0 -98 40 -190.5t113 -165.5q73 -70 165.5 -108t193.5 -38q174 0 297 55v253h-59q-73 0 -123 48q-23 22 -35 51.5t-12 63.5v62h459zM624 1749q19 33 52 52q31 19 73 19q40 0 73 -19
t52 -52q19 -31 19 -72q0 -38 -19 -70.5t-53 -53.5q-35 -20 -72 -20q-38 0 -70.5 19t-53.5 53q-20 35 -20 72q0 39 19 72z" />
    <glyph glyph-name="gdotaccent" unicode="&#x121;" horiz-adv-x="1048" 
d="M1007 921q-22 -51 -55.5 -73t-89.5 -22q32 -88 32 -156q0 -78 -30 -150.5t-85 -127.5q-57 -57 -129.5 -87.5t-152.5 -30.5q-81 0 -174 38q-31 -21 -40 -33q-12 -15 -12 -26q0 -9 4 -13l6 -6q17 -17 71 -23q41 -7 142 -7h66q69 -3 115 -9.5t85 -19.5q79 -27 122 -88.5
t43 -144.5q0 -61 -24.5 -113t-71.5 -90q-97 -82 -275 -82q-108 0 -221 27.5t-288 95.5q20 53 30 72q10 22 22 34q37 46 107 46q46 0 90 -18l39 -14q109 -41 214 -41q25 0 54 5t49 14q63 21 63 65q0 22 -14 33.5t-52 20.5q-33 9 -74 13t-123 6q-89 3 -130 7t-78 13
q-107 26 -145 101q-17 32 -17 73q0 45 37 93.5t99 83.5q-58 58 -88 129.5t-30 151.5q0 78 31 151.5t86 128.5t128 85.5t153 30.5q125 0 225 -70q28 13 65 21.5t73 8.5t76 -8t95 -25zM325.5 596q14.5 -34 39.5 -59t59 -39.5t72 -14.5q36 0 70.5 14.5t59.5 39.5t39.5 59
t14.5 72q0 36 -14.5 70.5t-39.5 59.5t-59.5 39.5t-70.5 14.5q-38 0 -72 -14.5t-59 -39.5t-39.5 -59.5t-14.5 -70.5q0 -38 14.5 -72zM399 1368q19 33 52 52q31 19 73 19q40 0 73 -19t52 -52q19 -31 19 -72q0 -39 -19.5 -72t-52.5 -52q-31 -19 -72 -19q-39 0 -71.5 19
t-52.5 52q-20 35 -20 72q0 39 19 72z" />
    <glyph glyph-name="Gcommaaccent" unicode="&#x122;" horiz-adv-x="1499" 
d="M1361 748v-589q-86 -89 -217 -131t-320 -42q-99 0 -193 25.5t-176 74.5q-81 47 -148 114t-115 148q-49 82 -74.5 176t-25.5 193t25.5 193t74.5 176q48 81 115 148t148 115q82 48 176 73.5t193 25.5q154 0 297 -64.5t252 -182.5l-48 -49q-27 -27 -56.5 -39.5t-67.5 -12.5
q-51 0 -92 29q-134 89 -285 89q-101 0 -192.5 -38.5t-161.5 -108.5t-109 -162.5t-39 -191.5q0 -98 40 -190.5t113 -165.5q73 -70 165.5 -108t193.5 -38q174 0 297 55v253h-59q-73 0 -123 48q-23 22 -35 51.5t-12 63.5v62h459zM661 -167h96q38 0 59 -21t21 -57v-9
q0 -9 -1 -10l-20 -127q-5 -35 -30.5 -56.5t-61.5 -21.5h-63v302z" />
    <glyph glyph-name="gcommaaccent" unicode="&#x123;" horiz-adv-x="1048" 
d="M1007 921q-22 -51 -55.5 -73t-89.5 -22q32 -88 32 -156q0 -78 -30 -150.5t-85 -127.5q-57 -57 -129.5 -87.5t-152.5 -30.5q-81 0 -174 38q-31 -21 -40 -33q-12 -15 -12 -26q0 -9 4 -13l6 -6q17 -17 71 -23q41 -7 142 -7h66q69 -3 115 -9.5t85 -19.5q79 -27 122 -88.5
t43 -144.5q0 -61 -24.5 -113t-71.5 -90q-97 -82 -275 -82q-108 0 -221 27.5t-288 95.5q20 53 30 72q10 22 22 34q37 46 107 46q46 0 90 -18l39 -14q109 -41 214 -41q25 0 54 5t49 14q63 21 63 65q0 22 -14 33.5t-52 20.5q-33 9 -74 13t-123 6q-89 3 -130 7t-78 13
q-107 26 -145 101q-17 32 -17 73q0 45 37 93.5t99 83.5q-58 58 -88 129.5t-30 151.5q0 78 31 151.5t86 128.5t128 85.5t153 30.5q125 0 225 -70q28 13 65 21.5t73 8.5t76 -8t95 -25zM325.5 596q14.5 -34 39.5 -59t59 -39.5t72 -14.5q36 0 70.5 14.5t59.5 39.5t39.5 59
t14.5 72q0 36 -14.5 70.5t-39.5 59.5t-59.5 39.5t-70.5 14.5q-38 0 -72 -14.5t-59 -39.5t-39.5 -59.5t-14.5 -70.5q0 -38 14.5 -72zM456 1533h96q38 0 59 -21t21 -57v-9q0 -9 -1 -10l-20 -127q-5 -35 -30.5 -56.5t-61.5 -21.5h-63v302z" />
    <glyph glyph-name="Hcircumflex" unicode="&#x124;" horiz-adv-x="1591" 
d="M1372 0h-230v608h-738v-608h-230v1433h230v-600h738v600h230v-1433zM791 1641q-6 7 -10 17l-5 11l-6 -13l-9 -14l-31 -32q-30 -32 -48 -48.5t-36 -27.5q-21 -13 -46 -19t-60 -6h-80l172 227q35 50 128 50h32q89 0 127 -50l173 -227h-80q-77 0 -130 41q-21 15 -46 42z" />
    <glyph glyph-name="hcircumflex" unicode="&#x125;" 
d="M337 1433q22 -28 33 -61q6 -18 6 -39v-384q35 53 109 84t164 31q89 0 163 -32.5t127 -94.5q54 -63 82 -150t28 -193v-594h-231v591q0 123 -43 187.5t-126 64.5q-48 0 -97.5 -12.5t-89.5 -34.5q-37 -22 -60 -51.5t-26 -59.5v-685h-230v1433h191zM712 1588q-7 7 -10 16
l-5 11l-6 -13l-9 -14l-26 -32l-29 -35q-27 -36 -43.5 -49.5t-42.5 -21.5q-31 -9 -80 -9h-80l35 51q97 147 134 193q34 55 131 55h32q82 0 119 -42q22 -18 67 -87l114 -170h-80q-45 0 -71 6t-44 21q-38 27 -74 79z" />
    <glyph glyph-name="Hbar" unicode="&#x126;" horiz-adv-x="1549" 
d="M1372 0h-230v608h-738v-608h-230v1433h230v-232h738v232h230v-1433zM1142 833v176h-738v-176h738z" />
    <glyph glyph-name="hbar" unicode="&#x127;" horiz-adv-x="1164" 
d="M337 1433q22 -28 33 -61q6 -18 6 -39v-11h300v-214h-300v-159q35 53 109 84t164 31q89 0 163 -32.5t127 -94.5q54 -63 82 -150t28 -193v-594h-231v591q0 123 -43 187.5t-126 64.5q-48 0 -97.5 -12.5t-89.5 -34.5q-37 -22 -60 -51.5t-26 -59.5v-685h-230v1108h-121v214
h121v111h191z" />
    <glyph glyph-name="Itilde" unicode="&#x128;" horiz-adv-x="649" 
d="M440 0h-230v1433h230v-1433zM384.5 1512.5q-29.5 9.5 -73.5 32.5l-8 5l-12 6q-31 17 -48.5 24t-31.5 7q-44 0 -44 -75h-153q0 111 49 173t138 62q26 0 51.5 -8.5t71.5 -32.5q43 -25 65 -33q19 -9 39 -9q29 0 39.5 14.5t10.5 51.5h157q-4 -64 -13.5 -100.5t-29.5 -62.5
q-22 -30 -58.5 -45.5t-92.5 -18.5q-27 0 -56.5 9.5z" />
    <glyph glyph-name="itilde" unicode="&#x129;" horiz-adv-x="564" 
d="M375 1014v-1014h-230v1014h230zM326.5 1209.5q-29.5 9.5 -73.5 32.5l-8 5l-12 6q-29 17 -47.5 24t-33.5 7q-20 0 -31.5 -23t-11.5 -60h-153q0 112 49.5 177.5t136.5 65.5q27 0 52.5 -8.5t71.5 -32.5l26 -14q46 -28 77 -28q27 0 39 18.5t12 55.5h157q-4 -68 -13.5 -106.5
t-29.5 -64.5q-22 -33 -58.5 -48.5t-92.5 -15.5q-27 0 -56.5 9.5z" />
    <glyph glyph-name="Imacron" unicode="&#x12a;" horiz-adv-x="649" 
d="M440 0h-230v1433h230v-1433zM39 1784h571v-184h-571v184z" />
    <glyph glyph-name="imacron" unicode="&#x12b;" horiz-adv-x="564" 
d="M375 1014v-1014h-230v1014h230zM-19 1384h571v-184h-571v184z" />
    <glyph glyph-name="Ibreve" unicode="&#x12c;" horiz-adv-x="649" 
d="M440 0h-230v1433h230v-1433zM620 1792q0 -59 -23 -111t-66 -92q-42 -38 -95 -58.5t-112 -20.5t-111.5 20.5t-94.5 58.5q-43 40 -66 92t-23 111h59q33 0 61 -15.5t42 -42.5q41 -65 133 -65q94 0 133 65q15 28 42 43t62 15h59z" />
    <glyph glyph-name="ibreve" unicode="&#x12d;" horiz-adv-x="564" 
d="M375 1014v-1014h-230v1014h230zM562 1424q0 -60 -23 -113.5t-66 -93.5q-42 -39 -96 -61t-110 -22q-59 0 -111.5 21.5t-94.5 61.5q-43 40 -66.5 93.5t-23.5 113.5h59q33 0 61.5 -16t42.5 -43q20 -32 56.5 -50.5t76.5 -18.5t76 18.5t56 50.5q16 29 43 44t61 15h59z" />
    <glyph glyph-name="Iogonek" unicode="&#x12e;" horiz-adv-x="649" 
d="M511 -300q-43 -30 -102 -47.5t-119 -17.5q-111 0 -172 46q-31 22 -47.5 53t-16.5 69q0 97 156 198v1432h230v-1433h-79q-127 -70 -127 -148q0 -35 25 -55t67 -20q19 0 39 4q20 3 40 3q66 0 87 -43z" />
    <glyph glyph-name="iogonek" unicode="&#x12f;" horiz-adv-x="564" 
d="M223.5 1176.5q-27.5 11.5 -47.5 32.5q-21 21 -32.5 48t-11.5 57t11.5 57t32.5 48t48.5 32.5t57.5 11.5q59 0 106 -44q43 -43 43 -105q0 -40 -19.5 -74t-54.5 -55q-35 -20 -75 -20q-31 0 -58.5 11.5zM466 -301q-43 -30 -102 -47.5t-119 -17.5q-111 0 -172 46
q-31 22 -47.5 53t-16.5 69q0 56 54 115q34 40 103 84v1036h230v-1037h-89l9 -1q-127 -70 -127 -148q0 -35 25 -55t67 -20q19 0 39 4q19 3 40 3q66 0 87 -43z" />
    <glyph glyph-name="Idotaccent" unicode="&#x130;" horiz-adv-x="649" 
d="M440 0h-230v1433h230v-1433zM199 1749q19 33 52 52q31 19 73 19q40 0 73 -19t52 -52q19 -31 19 -72q0 -38 -19 -70.5t-53 -53.5q-35 -20 -72 -20q-38 0 -70.5 19t-53.5 53q-20 35 -20 72q0 39 19 72z" />
    <glyph glyph-name="dotlessi" unicode="&#x131;" horiz-adv-x="564" 
d="M375 1014v-1014h-230v1014h230z" />
    <glyph glyph-name="IJ" unicode="&#x132;" horiz-adv-x="1672" 
d="M440 0h-230v1433h230v-1433zM1298 1433h230v-954q0 -146 -58.5 -255.5t-168.5 -169.5q-112 -61 -267 -61q-99 0 -185.5 34t-155.5 101l68 68q50 50 121 50q16 0 29.5 -3t41.5 -13q51 -17 81 -17q83 0 143 33t91 94q30 60 30 139v954z" />
    <glyph glyph-name="ij" unicode="&#x133;" horiz-adv-x="1124" 
d="M143.5 1371q11.5 27 32.5 48t48.5 32.5t57.5 11.5q59 0 106 -44q43 -43 43 -105q0 -40 -19.5 -74t-54.5 -55q-35 -20 -75 -20q-31 0 -58.5 11.5t-47.5 32.5q-21 21 -32.5 48t-11.5 57t11.5 57zM396 1037v-1037h-230v1037h230zM707.5 1371q11.5 27 32.5 48t48.5 32.5
t57.5 11.5t57.5 -11.5t48.5 -32.5t32.5 -48t11.5 -57t-11.5 -57t-32.5 -48q-20 -21 -47.5 -32.5t-58.5 -11.5t-58.5 11.5t-47.5 32.5q-21 21 -32.5 48t-11.5 57t11.5 57zM960 1037v-991q0 -17 -4 -24q-11 -135 -95 -246q-40 -52 -93 -93t-113 -66q-32 68 -41 95t-9 58
q0 51 41 101l35 43q33 39 44 95q4 11 4 46v982h231z" />
    <glyph glyph-name="Jcircumflex" unicode="&#x134;" horiz-adv-x="887" 
d="M649 1433h230v-954q0 -146 -58.5 -255.5t-168.5 -169.5q-112 -61 -267 -61q-99 0 -185.5 34t-155.5 101l68 68q50 50 121 50q16 0 29.5 -3t41.5 -13q51 -17 81 -17q83 0 143 33t91 94q30 60 30 139v954zM588 1641q-6 7 -10 17l-5 11l-6 -13l-9 -14l-31 -32
q-30 -32 -48 -48.5t-36 -27.5q-21 -13 -46 -19t-60 -6h-80l172 227q35 50 128 50h32q89 0 127 -50l173 -227h-80q-77 0 -130 41q-21 15 -46 42z" />
    <glyph glyph-name="jcircumflex" unicode="&#x135;" horiz-adv-x="560" 
d="M372 1308q-7 7 -10 16l-5 11l-6 -13l-9 -14l-26 -32l-29 -35q-27 -36 -43.5 -49.5t-42.5 -21.5q-32 -9 -80 -9h-80l35 51q97 147 134 193q34 55 131 55h32q81 0 119 -42q22 -18 67 -87l114 -170h-80q-45 0 -71 6t-44 21q-38 27 -74 79zM473 1037v-991q0 -17 -4 -24
q-11 -135 -95 -246q-40 -52 -93 -93t-113 -66q-32 68 -41 95t-9 58q0 51 41 101l35 43q33 39 44 95q4 11 4 46v982h231z" />
    <glyph glyph-name="Kcommaaccent" unicode="&#x136;" horiz-adv-x="1394" 
d="M423 0h-230v1433h230v-1433zM987 1337q30 46 76 71t103 25h177l-489 -665q-11 -16 -24 -23l-15 -8l15 -9q12 -9 24 -23l522 -705h-177q-117 0 -180 95l-430 580q-21 29 -50 47l-18 11q-8 3 -9 4l9 3q38 17 68 59zM609 -167h96q38 0 59 -21t21 -57v-9q0 -9 -1 -10
l-20 -127q-5 -35 -30.5 -56.5t-61.5 -21.5h-63v302z" />
    <glyph glyph-name="kcommaaccent" unicode="&#x137;" horiz-adv-x="1166" 
d="M382 0h-230v1433h230v-1433zM783 954q30 46 76 71t103 25h177l-351 -477q-9 -14 -23 -23l-16 -9l16 -8q12 -8 23 -23l378 -510h-177q-118 0 -180 95l-285 384q-21 29 -50 47l-18 11q-8 3 -9 4l9 3q38 17 68 59zM495 -167h96q38 0 59 -21t21 -57v-9q0 -9 -1 -10l-20 -127
q-5 -35 -30.5 -56.5t-61.5 -21.5h-63v302z" />
    <glyph glyph-name="kgreenlandic" unicode="&#x138;" horiz-adv-x="1166" 
d="M383 0h-231v1050h231v-1050zM783 954q30 46 76.5 71t103.5 25h177l-351 -477q-11 -16 -24 -23l-15 -9l15 -8q12 -9 24 -23l377 -510h-176q-59 0 -103.5 23.5t-77.5 71.5l-285 384q-21 29 -50 47l-18 11q-8 3 -9 4l9 3q38 17 68 59z" />
    <glyph glyph-name="Lacute" unicode="&#x139;" horiz-adv-x="1051" 
d="M144 0v1433h230v-1208h606v-225h-836zM552 1594q-38 -50 -129 -50h-103l53 88l21 36l23 37l37 58q38 50 128 50h148z" />
    <glyph glyph-name="lacute" unicode="&#x13a;" horiz-adv-x="562" 
d="M396 1433v-1433h-230v1433h230zM403 1628q-38 -50 -128 -50h-103l108 190q29 51 41 67q36 49 128 49h148z" />
    <glyph glyph-name="Lcommaaccent" unicode="&#x13b;" horiz-adv-x="1051" 
d="M144 0v1433h230v-1208h606v-225h-836zM437 -167h96q38 0 59 -21t21 -57v-9q0 -9 -1 -10l-20 -127q-5 -35 -30.5 -56.5t-61.5 -21.5h-63v302z" />
    <glyph glyph-name="lcommaaccent" unicode="&#x13c;" horiz-adv-x="562" 
d="M396 1433v-1433h-230v1433h230zM193 -167h96q38 0 59 -21t21 -57v-9q0 -9 -1 -10l-20 -127q-5 -35 -30.5 -56.5t-61.5 -21.5h-63v302z" />
    <glyph glyph-name="Lcaron" unicode="&#x13d;" horiz-adv-x="1051" 
d="M144 0v1433h230v-1208h606v-225h-836zM570 1455h96q38 0 59 -21t21 -57v-9q0 -9 -1 -10l-20 -127q-5 -35 -30.5 -56.5t-61.5 -21.5h-63v302z" />
    <glyph glyph-name="lcaron" unicode="&#x13e;" horiz-adv-x="1025" 
d="M396 1433v-1433h-230v1433h230zM569 1443h96q38 0 59 -21t21 -57v-9q0 -9 -1 -10l-20 -127q-5 -35 -30.5 -56.5t-61.5 -21.5h-63v302z" />
    <glyph glyph-name="Ldot" unicode="&#x13f;" horiz-adv-x="1051" 
d="M144 0v1433h230v-1208h606v-225h-836zM485.5 652.5q11.5 27.5 32.5 48.5q44 44 107 44q30 0 58.5 -11.5t49.5 -32.5t32.5 -48.5t11.5 -57.5q0 -63 -44 -107q-21 -21 -49.5 -32.5t-58.5 -11.5q-41 0 -76 20t-55 55t-20 76q0 30 11.5 57.5z" />
    <glyph glyph-name="ldot" unicode="&#x140;" horiz-adv-x="1143" 
d="M396 1433v-1433h-230v1433h230zM549.5 652.5q11.5 27.5 32.5 48.5q44 44 107 44q30 0 58.5 -11.5t49.5 -32.5t32.5 -48.5t11.5 -57.5q0 -63 -44 -107q-21 -21 -49.5 -32.5t-58.5 -11.5q-41 0 -76 20t-55 55t-20 76q0 30 11.5 57.5z" />
    <glyph glyph-name="Lslash" unicode="&#x141;" horiz-adv-x="1051" 
d="M174 0v497l-265 -193v85q0 73 58 115l207 151v778h230v-616l323 236v-106q0 -32 -10.5 -49.5t-43.5 -41.5l-269 -196v-435h606v-225h-836z" />
    <glyph glyph-name="lslash" unicode="&#x142;" horiz-adv-x="562" 
d="M396 717v-717h-230v405l-27 -37q-24 -30 -56 -46t-68 -16h-88l239 325v802h230v-490l13 18q25 34 43.5 45t51.5 11h113z" />
    <glyph glyph-name="Nacute" unicode="&#x143;" horiz-adv-x="1591" 
d="M1416 0h-202l-752 1037q-16 22 -34 64q-7 16 -12 30q-6 15 -10 19v-1150h-230v1433h186q101 0 141 -57l518 -721l129 -181q14 -20 23.5 -47t12.5 -55v1061h230v-1433zM822 1594q-38 -50 -129 -50h-103l53 88l21 36l23 37l37 58q38 50 128 50h148z" />
    <glyph glyph-name="nacute" unicode="&#x144;" 
d="M337 1050q0 -3 10 -16q10 -15 12 -39l8 -50q39 56 114 87.5t168 31.5q89 0 163 -32.5t127 -94.5q54 -63 82 -150t28 -193v-594h-231v591q0 121 -43.5 184.5t-129.5 63.5q-51 0 -98.5 -11t-84.5 -31t-60 -48t-26 -58v-691h-230v1050h191zM609 1211q-38 -50 -128 -50h-103
l108 190q29 51 41 67q36 49 128 49h148z" />
    <glyph glyph-name="Ncommaaccent" unicode="&#x145;" horiz-adv-x="1591" 
d="M1416 0h-202l-752 1037q-16 22 -34 64q-7 16 -12 30q-6 15 -10 19v-1150h-230v1433h186q101 0 141 -57l518 -721l129 -181q14 -20 23.5 -47t12.5 -55v1061h230v-1433zM707 -167h96q38 0 59 -21t21 -57v-9q0 -9 -1 -10l-20 -127q-5 -35 -30.5 -56.5t-61.5 -21.5h-63v302z
" />
    <glyph glyph-name="ncommaaccent" unicode="&#x146;" 
d="M337 1050q0 -3 10 -16q10 -15 12 -39l8 -50q39 56 114 87.5t168 31.5q89 0 163 -32.5t127 -94.5q54 -63 82 -150t28 -193v-594h-231v591q0 121 -43.5 184.5t-129.5 63.5q-51 0 -98.5 -11t-84.5 -31t-60 -48t-26 -58v-691h-230v1050h191zM501 -167h96q38 0 59 -21t21 -57
v-9q0 -9 -1 -10l-20 -127q-5 -35 -30.5 -56.5t-61.5 -21.5h-63v302z" />
    <glyph glyph-name="Ncaron" unicode="&#x147;" horiz-adv-x="1591" 
d="M1416 0h-202l-752 1037q-16 22 -34 64q-7 16 -12 30q-6 15 -10 19v-1150h-230v1433h186q101 0 141 -57l518 -721l129 -181q14 -20 23.5 -47t12.5 -55v1061h230v-1433zM567 1860q42 0 54 -4q46 -6 90 -56q19 -21 36 -44q21 -31 33 -44l9 -16q3 -8 6 -11l11 18q5 9 12 18
l40 53q32 45 71.5 65.5t93.5 20.5h88l-126 -186q-40 -58 -53 -71q-22 -20 -41 -29q-40 -14 -80 -14h-31q-52 0 -84 16t-59 55q-36 48 -100 146l-29 42l-28 41h87z" />
    <glyph glyph-name="ncaron" unicode="&#x148;" 
d="M337 1050q0 -3 10 -16q10 -15 12 -39l8 -50q39 56 114 87.5t168 31.5q89 0 163 -32.5t127 -94.5q54 -63 82 -150t28 -193v-594h-231v591q0 121 -43.5 184.5t-129.5 63.5q-51 0 -98.5 -11t-84.5 -31t-60 -48t-26 -58v-691h-230v1050h191zM362 1460q42 0 54 -4
q46 -6 90 -56q19 -21 36 -44q21 -31 33 -44l9 -16q3 -8 6 -11l11 18q5 9 12 18l40 53q32 45 71.5 65.5t93.5 20.5h88l-126 -186q-40 -58 -53 -71q-22 -20 -41 -29q-40 -14 -80 -14h-31q-52 0 -84 16t-59 55q-36 48 -100 146l-29 42l-28 41h87z" />
    <glyph glyph-name="napostrophe" unicode="&#x149;" horiz-adv-x="1181" 
d="M337 1050q0 -3 10 -16q10 -15 12 -39l8 -50q39 56 114 87.5t168 31.5q89 0 163 -32.5t127 -94.5q54 -63 82 -150t28 -193v-594h-231v591q0 121 -43.5 184.5t-129.5 63.5q-51 0 -98.5 -11t-84.5 -31t-60 -48t-26 -58v-691h-230v1050h191zM146 -513h96q38 0 59 -21t21 -57
v-9q0 -9 -1 -10l-20 -127q-5 -35 -30.5 -56.5t-61.5 -21.5h-63v302z" />
    <glyph glyph-name="Eng" unicode="&#x14a;" horiz-adv-x="1591" 
d="M1186 1433h230v-1281q0 -146 -58.5 -255.5t-168.5 -169.5q-112 -61 -267 -61q-99 0 -185.5 34t-155.5 101l68 68q53 50 121 50q16 0 29.5 -3t41.5 -13q51 -17 81 -17q96 0 161.5 44.5t89.5 125.5l-711 981q-16 22 -34 64q-7 16 -12 30q-6 15 -10 19v-1150h-230v1433h186
q101 0 141 -57l518 -721l129 -181q14 -20 23.5 -47t12.5 -55v1061z" />
    <glyph glyph-name="eng" unicode="&#x14b;" 
d="M337 1050q0 -3 10 -16q10 -15 12 -39l8 -50q39 56 114 87.5t168 31.5q89 0 163 -32.5t127 -94.5q54 -63 82 -150t28 -193v-548q0 -140 -91 -261q-42 -55 -97 -98t-117 -70q-32 68 -41 95t-9 58q0 51 41 101l35 43q33 42 43 90q4 13 5 42v545q0 121 -43.5 184.5
t-129.5 63.5q-51 0 -98.5 -11t-84.5 -31t-60 -48t-26 -58v-691h-230v1050h191z" />
    <glyph glyph-name="Omacron" unicode="&#x14c;" horiz-adv-x="1650" 
d="M117.5 910q25.5 94 74.5 176q48 81 115 148t148 115q82 48 176.5 73.5t193.5 25.5q199 0 370 -99q81 -48 148 -115t115 -148q49 -82 74.5 -176t25.5 -193t-25.5 -193t-74.5 -176q-48 -81 -115 -148t-148 -115q-169 -100 -370 -100q-146 0 -280.5 56t-237.5 159t-159 237
t-56 280q0 99 25.5 193zM360.5 523.5q38.5 -91.5 109.5 -161.5q70 -70 162 -108.5t193 -38.5q98 0 190.5 38.5t164.5 108.5q70 70 108.5 162t38.5 193q0 99 -38.5 191.5t-108.5 162.5q-72 70 -164.5 108.5t-190.5 38.5q-101 0 -193 -38.5t-162 -108.5t-109 -162.5
t-39 -191.5q0 -102 38.5 -193.5zM539 1725h571v-184h-571v184z" />
    <glyph glyph-name="omacron" unicode="&#x14d;" horiz-adv-x="1226" 
d="M113.5 732q41.5 99 117.5 175t174.5 117t206.5 41t207.5 -41.5t174.5 -116.5t116.5 -174.5t41.5 -207.5t-41 -206.5t-117 -174.5t-175 -117.5t-207 -41.5q-107 0 -206 41.5t-175 117.5t-117.5 175t-41.5 206q0 108 41.5 207zM322 403.5q24 -56.5 68 -99.5
q45 -45 101.5 -68.5t119.5 -23.5q62 0 120 24.5t101 67.5q44 43 68 99.5t24 120.5q0 63 -24 120.5t-68 101.5q-46 43 -103.5 67t-117.5 24q-63 0 -119.5 -23.5t-101.5 -67.5q-44 -44 -68 -101.5t-24 -120.5q0 -64 24 -120.5zM327 1384h571v-184h-571v184z" />
    <glyph glyph-name="Obreve" unicode="&#x14e;" horiz-adv-x="1650" 
d="M117.5 910q25.5 94 74.5 176q48 81 115 148t148 115q82 48 176.5 73.5t193.5 25.5q199 0 370 -99q81 -48 148 -115t115 -148q49 -82 74.5 -176t25.5 -193t-25.5 -193t-74.5 -176q-48 -81 -115 -148t-148 -115q-169 -100 -370 -100q-146 0 -280.5 56t-237.5 159t-159 237
t-56 280q0 99 25.5 193zM360.5 523.5q38.5 -91.5 109.5 -161.5q70 -70 162 -108.5t193 -38.5q98 0 190.5 38.5t164.5 108.5q70 70 108.5 162t38.5 193q0 99 -38.5 191.5t-108.5 162.5q-72 70 -164.5 108.5t-190.5 38.5q-101 0 -193 -38.5t-162 -108.5t-109 -162.5
t-39 -191.5q0 -102 38.5 -193.5zM1120 1792q0 -59 -23 -111t-66 -92q-42 -38 -95 -58.5t-112 -20.5t-111.5 20.5t-94.5 58.5q-43 40 -66 92t-23 111h59q33 0 61 -15.5t42 -42.5q41 -65 133 -65q94 0 133 65q15 28 42 43t62 15h59z" />
    <glyph glyph-name="obreve" unicode="&#x14f;" horiz-adv-x="1226" 
d="M113.5 732q41.5 99 117.5 175t174.5 117t206.5 41t207.5 -41.5t174.5 -116.5t116.5 -174.5t41.5 -207.5t-41 -206.5t-117 -174.5t-175 -117.5t-207 -41.5q-107 0 -206 41.5t-175 117.5t-117.5 175t-41.5 206q0 108 41.5 207zM322 403.5q24 -56.5 68 -99.5
q45 -45 101.5 -68.5t119.5 -23.5q62 0 120 24.5t101 67.5q44 43 68 99.5t24 120.5q0 63 -24 120.5t-68 101.5q-46 43 -103.5 67t-117.5 24q-63 0 -119.5 -23.5t-101.5 -67.5q-44 -44 -68 -101.5t-24 -120.5q0 -64 24 -120.5zM908 1424q0 -60 -23 -113.5t-66 -93.5
q-42 -39 -96 -61t-110 -22q-59 0 -111.5 21.5t-94.5 61.5q-43 40 -66.5 93.5t-23.5 113.5h59q33 0 61.5 -16t42.5 -43q20 -32 56.5 -50.5t76.5 -18.5t76 18.5t56 50.5q16 29 43 44t61 15h59z" />
    <glyph glyph-name="Ohungarumlaut" unicode="&#x150;" horiz-adv-x="1650" 
d="M117.5 910q25.5 94 74.5 176q48 81 115 148t148 115q82 48 176.5 73.5t193.5 25.5q199 0 370 -99q81 -48 148 -115t115 -148q49 -82 74.5 -176t25.5 -193t-25.5 -193t-74.5 -176q-48 -81 -115 -148t-148 -115q-169 -100 -370 -100q-146 0 -280.5 56t-237.5 159t-159 237
t-56 280q0 99 25.5 193zM360.5 523.5q38.5 -91.5 109.5 -161.5q70 -70 162 -108.5t193 -38.5q98 0 190.5 38.5t164.5 108.5q70 70 108.5 162t38.5 193q0 99 -38.5 191.5t-108.5 162.5q-72 70 -164.5 108.5t-190.5 38.5q-101 0 -193 -38.5t-162 -108.5t-109 -162.5
t-39 -191.5q0 -102 38.5 -193.5zM675 1611q-21 -27 -56.5 -38.5t-95.5 -11.5h-64l108 190l12 20q14 25 31 50q10 14 23 22t37 14q31 10 97 10h101zM965 1608q-21 -26 -55 -36.5t-95 -10.5h-76l183 258q20 27 54.5 37.5t100.5 10.5h113z" />
    <glyph glyph-name="ohungarumlaut" unicode="&#x151;" horiz-adv-x="1226" 
d="M113.5 732q41.5 99 117.5 175t174.5 117t206.5 41t207.5 -41.5t174.5 -116.5t116.5 -174.5t41.5 -207.5t-41 -206.5t-117 -174.5t-175 -117.5t-207 -41.5q-107 0 -206 41.5t-175 117.5t-117.5 175t-41.5 206q0 108 41.5 207zM322 403.5q24 -56.5 68 -99.5
q45 -45 101.5 -68.5t119.5 -23.5q62 0 120 24.5t101 67.5q44 43 68 99.5t24 120.5q0 63 -24 120.5t-68 101.5q-46 43 -103.5 67t-117.5 24q-63 0 -119.5 -23.5t-101.5 -67.5q-44 -44 -68 -101.5t-24 -120.5q0 -64 24 -120.5zM463 1211q-21 -27 -56.5 -38.5t-95.5 -11.5h-64
l108 190l12 20q14 25 31 50q10 14 23 22t37 14q31 10 97 10h101zM753 1208q-21 -26 -55 -36.5t-95 -10.5h-76l183 258q20 27 54.5 37.5t100.5 10.5h113z" />
    <glyph glyph-name="OE" unicode="&#x152;" horiz-adv-x="2192" 
d="M108.5 910q25.5 94 74.5 176q48 81 115 148t149 115t176 73.5t193 25.5q71 0 150 -15h1102v-231h-708q72 -76 117.5 -169t60.5 -195h402v-231h-399q-32 -218 -182 -377h709v-230h-1106q-70 -15 -146 -15q-146 0 -280.5 56t-237.5 159t-159 237t-56 280q0 99 25.5 193z
M354.5 527q38.5 -92 108.5 -165q70 -70 162 -108.5t191 -38.5t191.5 38.5t162.5 108.5t108 162t38 193q0 100 -38 192t-108 162t-162.5 108.5t-191.5 38.5t-191 -38.5t-162 -108.5q-70 -73 -108.5 -164.5t-38.5 -189.5t38.5 -190z" />
    <glyph glyph-name="oe" unicode="&#x153;" horiz-adv-x="2098" 
d="M113.5 732q41.5 99 117.5 175t174.5 117t206.5 41q63 0 133.5 -18.5t133.5 -51.5q69 -36 114.5 -84.5t62.5 -104.5q2 12 14.5 36.5t20.5 33.5q76 90 182.5 139t226.5 49q91 0 180.5 -32.5t163.5 -91.5q76 -60 123.5 -139.5t58.5 -166.5l2 -12q-2 -6 0 -11q0 -70 -52 -116
q-22 -19 -49 -29.5t-52 -10.5h-677q7 -46 32.5 -91t65.5 -81q42 -38 94.5 -59t109.5 -21q84 0 154 40q41 23 88 23q51 0 88 -28l12 -9l10 -8l15 -15l41 -40q-81 -87 -186 -133.5t-222 -46.5q-123 0 -234.5 54t-189.5 151l-10 17q-8 15 -10 33q-2 -20 -10 -34l-11 -16
q-76 -97 -187 -151.5t-236 -54.5q-107 0 -206 41.5t-175 117.5t-117.5 175t-41.5 206q0 108 41.5 207zM1787 663q-15 36 -42 69t-62 58q-83 56 -180 56q-109 0 -195 -65q-38 -29 -64.5 -67t-38.5 -80q10 13 26 21t34 8h522zM322 403.5q24 -56.5 68 -99.5q45 -45 101.5 -68.5
t119.5 -23.5q60 0 114.5 21.5t97.5 61.5t69 92t31 111v13q-1 1 -1 13q0 13 1 14v12q-5 59 -31 111.5t-69 92.5t-98 61.5t-114 21.5q-63 0 -119.5 -23.5t-101.5 -67.5q-44 -44 -68 -101.5t-24 -120.5q0 -64 24 -120.5z" />
    <glyph glyph-name="Racute" unicode="&#x154;" horiz-adv-x="1322" 
d="M423 0h-230v1433h520q86 0 164.5 -32.5t139.5 -92.5q60 -58 92.5 -136.5t32.5 -165.5q0 -65 -20 -127.5t-57 -114.5q-75 -106 -197 -153l453 -611h-171q-63 0 -111 24t-77 71q-6 10 -33 47l-146 197l-146 195l-35 46h-179v-580zM423 1202v-392h293q39 0 75 15.5t63 42.5
t42 63t15 75t-15 75.5t-42 63.5t-63 42t-75 15h-293zM688 1594q-38 -50 -129 -50h-103l53 88l21 36l23 37l37 58q38 50 128 50h148z" />
    <glyph glyph-name="racute" unicode="&#x155;" horiz-adv-x="780" 
d="M324 1050q0 -1 5 -6q9 -12 16 -33t7 -39v-53q24 39 70 73t100 53q51 19 110 19q74 0 170 -35l-9 -48l-8 -49q-11 -47 -45 -73.5t-80 -26.5h-5q-2 0 -3 1h-22q-110 0 -193 -60q-36 -27 -56.5 -61.5t-21.5 -70.5v-641h-230v1050h195zM408 1211q-38 -50 -128 -50h-103
l108 190q29 51 41 67q36 49 128 49h148z" />
    <glyph glyph-name="Rcommaaccent" unicode="&#x156;" horiz-adv-x="1322" 
d="M423 0h-230v1433h520q86 0 164.5 -32.5t139.5 -92.5q60 -58 92.5 -136.5t32.5 -165.5q0 -65 -20 -127.5t-57 -114.5q-75 -106 -197 -153l453 -611h-171q-63 0 -111 24t-77 71q-6 10 -33 47l-146 197l-146 195l-35 46h-179v-580zM423 1202v-392h293q39 0 75 15.5t63 42.5
t42 63t15 75t-15 75.5t-42 63.5t-63 42t-75 15h-293zM573 -167h96q38 0 59 -21t21 -57v-9q0 -9 -1 -10l-20 -127q-5 -35 -30.5 -56.5t-61.5 -21.5h-63v302z" />
    <glyph glyph-name="rcommaaccent" unicode="&#x157;" horiz-adv-x="780" 
d="M324 1050q0 -1 5 -6q9 -12 16 -33t7 -39v-53q24 39 70 73t100 53q51 19 110 19q74 0 170 -35l-9 -48l-8 -49q-11 -47 -45 -73.5t-80 -26.5h-5q-2 0 -3 1h-22q-110 0 -193 -60q-36 -27 -56.5 -61.5t-21.5 -70.5v-641h-230v1050h195zM164 -167h96q38 0 59 -21t21 -57v-9
q0 -9 -1 -10l-20 -127q-5 -35 -30.5 -56.5t-61.5 -21.5h-63v302z" />
    <glyph glyph-name="Rcaron" unicode="&#x158;" horiz-adv-x="1322" 
d="M423 0h-230v1433h520q86 0 164.5 -32.5t139.5 -92.5q60 -58 92.5 -136.5t32.5 -165.5q0 -65 -20 -127.5t-57 -114.5q-75 -106 -197 -153l453 -611h-171q-63 0 -111 24t-77 71q-6 10 -33 47l-146 197l-146 195l-35 46h-179v-580zM423 1202v-392h293q39 0 75 15.5t63 42.5
t42 63t15 75t-15 75.5t-42 63.5t-63 42t-75 15h-293zM432 1860q42 0 54 -4q46 -6 90 -56q19 -21 36 -44q21 -31 33 -44l9 -16q3 -8 6 -11l11 18q5 9 12 18l40 53q32 45 71.5 65.5t93.5 20.5h88l-126 -186q-40 -58 -53 -71q-22 -20 -41 -29q-40 -14 -80 -14h-31q-52 0 -84 16
t-59 55q-36 48 -100 146l-29 42l-28 41h87z" />
    <glyph glyph-name="rcaron" unicode="&#x159;" horiz-adv-x="780" 
d="M324 1050q0 -1 5 -6q9 -12 16 -33t7 -39v-53q24 39 70 73t100 53q51 19 110 19q74 0 170 -35l-9 -48l-8 -49q-11 -47 -45 -73.5t-80 -26.5h-5q-2 0 -3 1h-22q-110 0 -193 -60q-36 -27 -56.5 -61.5t-21.5 -70.5v-641h-230v1050h195zM216 1460q42 0 54 -4q46 -6 90 -56
q19 -21 36 -44q21 -31 33 -44l9 -16q3 -8 6 -11l11 18q5 9 12 18l40 53q32 45 71.5 65.5t93.5 20.5h88l-126 -186q-40 -58 -53 -71q-22 -20 -41 -29q-40 -14 -80 -14h-31q-52 0 -84 16t-59 55q-36 48 -100 146l-29 42l-28 41h87z" />
    <glyph glyph-name="Sacute" unicode="&#x15a;" horiz-adv-x="1091" 
d="M454.5 1198q-47.5 -19 -74.5 -53q-28 -34 -28 -77q0 -46 17.5 -74.5t58.5 -50.5q45 -23 103 -44q130 -45 188 -69.5t105 -53.5q127 -79 173 -203q23 -72 23 -139q0 -95 -39.5 -178.5t-111.5 -144.5q-70 -60 -160.5 -92.5t-189.5 -32.5q-201 0 -341 128q-71 65 -119 166
q28 13 36 19q36 20 69 30q35 5 39 5q31 0 62.5 -11t54.5 -30l8 -6q52 -37 98 -54.5t93 -17.5q46 0 93.5 14.5t86.5 41.5q44 31 67.5 72.5t23.5 90.5q0 47 -21.5 82t-66.5 62q-39 24 -87 42l-29 10q-143 52 -207 82t-120 73q-72 52 -105 119.5t-33 163.5q0 84 35 156.5
t101 124.5q60 48 138.5 73.5t162.5 25.5q101 0 207.5 -59t188.5 -159l-51 -39q-24 -21 -57 -33.5t-64 -12.5q-23 0 -47 9q-26 9 -78 34l-20 10q-37 19 -79 19q-56 0 -103.5 -19zM572 1594q-38 -50 -129 -50h-103l53 88l21 36l23 37l37 58q38 50 128 50h148z" />
    <glyph glyph-name="sacute" unicode="&#x15b;" horiz-adv-x="867" 
d="M99 236q31 19 76 34q15 7 41 7q23 0 44.5 -9.5t55.5 -33.5q46 -34 103 -34q25 0 51 8.5t47 23.5q47 35 47 92q0 24 -7.5 41t-26.5 32q-29 25 -129 58q-108 36 -173.5 80t-96.5 101t-31 134q0 59 27 113t77 97q47 40 106.5 62t120.5 22q108 0 208 -75q35 -25 63 -55
l13 -16l15 -18q-46 -41 -67 -57q-24 -18 -43 -25t-44 -7q-23 0 -48 13l-16 7q-51 20 -76 20q-51 0 -85 -31q-14 -12 -22 -27t-8 -27q0 -45 47 -72q17 -11 34 -18l64 -21q83 -25 134.5 -49t89.5 -56q97 -82 97 -222q0 -68 -27 -130t-76 -110q-51 -49 -119 -75.5t-145 -26.5
q-111 0 -208 62t-151 169zM452 1211q-38 -50 -128 -50h-103l108 190q29 51 41 67q36 49 128 49h148z" />
    <glyph glyph-name="Scircumflex" unicode="&#x15c;" horiz-adv-x="1091" 
d="M454.5 1198q-47.5 -19 -74.5 -53q-28 -34 -28 -77q0 -46 17.5 -74.5t58.5 -50.5q45 -23 103 -44q130 -45 188 -69.5t105 -53.5q127 -79 173 -203q23 -72 23 -139q0 -95 -39.5 -178.5t-111.5 -144.5q-70 -60 -160.5 -92.5t-189.5 -32.5q-201 0 -341 128q-71 65 -119 166
q28 13 36 19q36 20 69 30q35 5 39 5q31 0 62.5 -11t54.5 -30l8 -6q52 -37 98 -54.5t93 -17.5q46 0 93.5 14.5t86.5 41.5q44 31 67.5 72.5t23.5 90.5q0 47 -21.5 82t-66.5 62q-39 24 -87 42l-29 10q-143 52 -207 82t-120 73q-72 52 -105 119.5t-33 163.5q0 84 35 156.5
t101 124.5q60 48 138.5 73.5t162.5 25.5q101 0 207.5 -59t188.5 -159l-51 -39q-24 -21 -57 -33.5t-64 -12.5q-23 0 -47 9q-26 9 -78 34l-20 10q-37 19 -79 19q-56 0 -103.5 -19zM560 1641q-6 7 -10 17l-5 11l-6 -13l-9 -14l-31 -32q-30 -32 -48 -48.5t-36 -27.5
q-21 -13 -46 -19t-60 -6h-80l172 227q35 50 128 50h32q89 0 127 -50l173 -227h-80q-77 0 -130 41q-21 15 -46 42z" />
    <glyph glyph-name="scircumflex" unicode="&#x15d;" horiz-adv-x="867" 
d="M99 236q31 19 76 34q15 7 41 7q23 0 44.5 -9.5t55.5 -33.5q46 -34 103 -34q25 0 51 8.5t47 23.5q47 35 47 92q0 24 -7.5 41t-26.5 32q-29 25 -129 58q-108 36 -173.5 80t-96.5 101t-31 134q0 59 27 113t77 97q47 40 106.5 62t120.5 22q108 0 208 -75q35 -25 63 -55
l13 -16l15 -18q-46 -41 -67 -57q-24 -18 -43 -25t-44 -7q-23 0 -48 13l-16 7q-51 20 -76 20q-51 0 -85 -31q-14 -12 -22 -27t-8 -27q0 -45 47 -72q17 -11 34 -18l64 -21q83 -25 134.5 -49t89.5 -56q97 -82 97 -222q0 -68 -27 -130t-76 -110q-51 -49 -119 -75.5t-145 -26.5
q-111 0 -208 62t-151 169zM448 1308q-7 7 -10 16l-5 11l-6 -13l-9 -14l-26 -32l-29 -35q-27 -36 -43.5 -49.5t-42.5 -21.5q-31 -9 -80 -9h-80l35 51q97 147 134 193q34 55 131 55h32q82 0 119 -42q22 -18 67 -87l114 -170h-80q-45 0 -71 6t-44 21q-38 27 -74 79z" />
    <glyph glyph-name="Scedilla" unicode="&#x15e;" horiz-adv-x="1091" 
d="M1020 434q0 -95 -39.5 -178.5t-111.5 -144.5q-67 -58 -153 -90t-181 -35l-1 -53q77 -7 136 -51q54 -44 54 -103q0 -32 -17 -61t-47 -50q-65 -47 -163 -47q-47 0 -90 22q-7 2 -40 23v91q36 -17 85 -27q42 -5 47 -5q32 0 54.5 14.5t22.5 34.5q0 23 -23 38t-56 15h-14
q-1 -1 -19 -1q-29 0 -41 12.5t-12 45.5v112q-117 21 -207.5 94t-144.5 190q28 13 36 19q36 20 69 30q35 5 39 5q31 0 62.5 -11t54.5 -30l8 -6q52 -37 98 -54.5t93 -17.5q46 0 93.5 14.5t86.5 41.5q44 31 67.5 72.5t23.5 90.5q0 47 -21.5 82t-66.5 62q-39 24 -87 42l-29 10
q-143 52 -207 82t-120 73q-72 52 -105 119.5t-33 163.5q0 84 35 156.5t101 124.5q60 48 138.5 73.5t162.5 25.5q101 0 207.5 -59t188.5 -159l-51 -39q-24 -21 -57 -33.5t-64 -12.5q-23 0 -47 9q-26 9 -78 34l-20 10q-37 19 -79 19q-56 0 -103.5 -19t-74.5 -53
q-28 -34 -28 -77q0 -46 17.5 -74.5t58.5 -50.5q45 -23 103 -44q130 -45 188 -69.5t105 -53.5q127 -79 173 -203q23 -72 23 -139z" />
    <glyph glyph-name="scedilla" unicode="&#x15f;" horiz-adv-x="867" 
d="M787 328q0 -68 -27 -130t-76 -110t-116.5 -74.5t-144.5 -27.5l-1 -53q77 -7 136 -51q54 -44 54 -103q0 -32 -17 -61t-47 -50q-65 -47 -163 -47q-47 0 -90 22q-7 2 -40 23v91q36 -17 85 -27q42 -5 47 -5q32 0 54.5 14.5t22.5 34.5q0 23 -23 38t-56 15h-14q-1 -1 -19 -1
q-29 0 -41 12.5t-12 45.5v122q-102 39 -172 115q-39 44 -66 96l38 19q31 19 76 34q15 7 41 7q23 0 44.5 -9.5t55.5 -33.5q46 -34 103 -34q25 0 51 8.5t47 23.5q47 35 47 92q0 24 -7.5 41t-26.5 32q-29 25 -129 58q-108 36 -173.5 80t-96.5 101t-31 134q0 59 27 113t77 97
q47 40 106.5 62t120.5 22q108 0 208 -75q35 -25 63 -55l13 -16l15 -18q-46 -41 -67 -57q-24 -18 -43 -25t-44 -7q-23 0 -48 13l-16 7q-51 20 -76 20q-51 0 -85 -31q-14 -12 -22 -27t-8 -27q0 -45 47 -72q17 -11 34 -18l64 -21q83 -25 134.5 -49t89.5 -56q97 -82 97 -222z
" />
    <glyph glyph-name="Scaron" unicode="&#x160;" horiz-adv-x="1091" 
d="M454.5 1198q-47.5 -19 -74.5 -53q-28 -34 -28 -77q0 -46 17.5 -74.5t58.5 -50.5q45 -23 103 -44q130 -45 188 -69.5t105 -53.5q127 -79 173 -203q23 -72 23 -139q0 -95 -39.5 -178.5t-111.5 -144.5q-70 -60 -160.5 -92.5t-189.5 -32.5q-201 0 -341 128q-71 65 -119 166
q28 13 36 19q36 20 69 30q35 5 39 5q31 0 62.5 -11t54.5 -30l8 -6q52 -37 98 -54.5t93 -17.5q46 0 93.5 14.5t86.5 41.5q44 31 67.5 72.5t23.5 90.5q0 47 -21.5 82t-66.5 62q-39 24 -87 42l-29 10q-143 52 -207 82t-120 73q-72 52 -105 119.5t-33 163.5q0 84 35 156.5
t101 124.5q60 48 138.5 73.5t162.5 25.5q101 0 207.5 -59t188.5 -159l-51 -39q-24 -21 -57 -33.5t-64 -12.5q-23 0 -47 9q-26 9 -78 34l-20 10q-37 19 -79 19q-56 0 -103.5 -19zM317 1860q42 0 54 -4q46 -6 90 -56q19 -21 36 -44q21 -31 33 -44l9 -16q3 -8 6 -11l11 18
q5 9 12 18l40 53q32 45 71.5 65.5t93.5 20.5h88l-126 -186q-40 -58 -53 -71q-22 -20 -41 -29q-40 -14 -80 -14h-31q-52 0 -84 16t-59 55q-36 48 -100 146l-29 42l-28 41h87z" />
    <glyph glyph-name="scaron" unicode="&#x161;" horiz-adv-x="867" 
d="M99 236q31 19 76 34q15 7 41 7q23 0 44.5 -9.5t55.5 -33.5q46 -34 103 -34q25 0 51 8.5t47 23.5q47 35 47 92q0 24 -7.5 41t-26.5 32q-29 25 -129 58q-108 36 -173.5 80t-96.5 101t-31 134q0 59 27 113t77 97q47 40 106.5 62t120.5 22q108 0 208 -75q35 -25 63 -55
l13 -16l15 -18q-46 -41 -67 -57q-24 -18 -43 -25t-44 -7q-23 0 -48 13l-16 7q-51 20 -76 20q-51 0 -85 -31q-14 -12 -22 -27t-8 -27q0 -45 47 -72q17 -11 34 -18l64 -21q83 -25 134.5 -49t89.5 -56q97 -82 97 -222q0 -68 -27 -130t-76 -110q-51 -49 -119 -75.5t-145 -26.5
q-111 0 -208 62t-151 169zM205 1460q42 0 54 -4q46 -6 90 -56q19 -21 36 -44q21 -31 33 -44l9 -16q3 -8 6 -11l11 18q5 9 12 18l40 53q32 45 71.5 65.5t93.5 20.5h88l-126 -186q-40 -58 -53 -71q-22 -20 -41 -29q-40 -14 -80 -14h-31q-52 0 -84 16t-59 55q-36 48 -100 146
l-29 42l-28 41h87z" />
    <glyph glyph-name="uni0162" unicode="&#x162;" horiz-adv-x="1155" 
d="M27 1208v226h1098v-226h-433v-1208h-230v1208h-435zM489 -167h96q38 0 59 -21t21 -57v-9q0 -9 -1 -10l-20 -127q-5 -35 -30.5 -56.5t-61.5 -21.5h-63v302z" />
    <glyph glyph-name="uni0163" unicode="&#x163;" horiz-adv-x="764" 
d="M427 824v-538q0 -36 17 -58t46 -22q23 0 45 6q21 6 38 6q49 0 86 -25.5t70 -80.5l12 -18q-40 -40 -124 -75q-37 -15 -74.5 -24t-64.5 -9q-63 0 -116 21t-90 60q-37 38 -56.5 91t-19.5 116v550h-169v137q0 42 35.5 62t107.5 20h26v219q0 61 28 113q12 25 28 44h175v-376
h280v-219h-280zM294 -167h96q38 0 59 -21t21 -57v-9q0 -9 -1 -10l-20 -127q-5 -35 -30.5 -56.5t-61.5 -21.5h-63v302z" />
    <glyph glyph-name="Tcaron" unicode="&#x164;" horiz-adv-x="1155" 
d="M27 1208v226h1098v-226h-433v-1208h-230v1208h-435zM349 1860q42 0 54 -4q46 -6 90 -56q19 -21 36 -44q21 -31 33 -44l9 -16q3 -8 6 -11l11 18q5 9 12 18l40 53q32 45 71.5 65.5t93.5 20.5h88l-126 -186q-40 -58 -53 -71q-22 -20 -41 -29q-40 -14 -80 -14h-31
q-52 0 -84 16t-59 55q-36 48 -100 146l-29 42l-28 41h87z" />
    <glyph glyph-name="tcaron" unicode="&#x165;" horiz-adv-x="764" 
d="M427 824v-538q0 -36 17 -58t46 -22q23 0 45 6q21 6 38 6q49 0 86 -25.5t70 -80.5l12 -18q-40 -40 -124 -75q-37 -15 -74.5 -24t-64.5 -9q-63 0 -116 21t-90 60q-37 38 -56.5 91t-19.5 116v550h-169v137q0 42 35.5 62t107.5 20h26v219q0 61 28 113q12 25 28 44h175v-376
h280v-219h-280zM765 1443h96q38 0 59 -21t21 -57v-9q0 -9 -1 -10l-20 -127q-5 -35 -30.5 -56.5t-61.5 -21.5h-63v302z" />
    <glyph glyph-name="Tbar" unicode="&#x166;" horiz-adv-x="1155" 
d="M27 1208v226h1098v-226h-433v-1208h-230v1208h-435zM292 1784h571v-184h-571v184z" />
    <glyph glyph-name="tbar" unicode="&#x167;" horiz-adv-x="764" 
d="M27 705h173v126h-169v82q0 43 4 64t16 36q30 38 124 38h25v211q0 61 28 113q12 25 28 44h175v-368h280v-220h-280v-126h280v-158h-280v-261q0 -34 18 -57t45 -23q4 0 36 5l33 5q48 0 91.5 -25t70.5 -67l20 -30q-42 -42 -124 -74.5t-143 -32.5q-135 0 -206.5 86.5
t-71.5 246.5v227h-173v158z" />
    <glyph glyph-name="Utilde" unicode="&#x168;" horiz-adv-x="1464" 
d="M385 564q0 -71 27 -135t76 -112q49 -49 113 -76t135 -27t135 27t113 76t76 113.5t27 133.5v869h231v-869q0 -116 -44.5 -222.5t-125.5 -187.5t-188 -125.5t-224 -44.5t-224 44.5t-186 125.5q-82 82 -126.5 188t-44.5 222v869h230v-869zM791.5 1512.5
q-29.5 9.5 -73.5 32.5l-8 5l-12 6q-31 17 -48.5 24t-31.5 7q-44 0 -44 -75h-153q0 111 49 173t138 62q26 0 51.5 -8.5t71.5 -32.5q43 -25 65 -33q19 -9 39 -9q29 0 39.5 14.5t10.5 51.5h157q-4 -64 -13.5 -100.5t-29.5 -62.5q-22 -30 -58.5 -45.5t-92.5 -18.5
q-27 0 -56.5 9.5z" />
    <glyph glyph-name="utilde" unicode="&#x169;" 
d="M833 0q-12 12 -21 42t-9 62q-39 -56 -113.5 -87t-168.5 -31q-89 0 -162.5 32.5t-126.5 94.5q-54 63 -82 149.5t-28 192.5v595h230v-591q0 -121 43.5 -184.5t129.5 -63.5q51 0 99 12t85 33q37 22 59.5 50.5t25.5 58.5v685h231v-1050h-192zM648.5 1209.5
q-29.5 9.5 -73.5 32.5l-8 5l-12 6q-29 17 -47.5 24t-33.5 7q-20 0 -31.5 -23t-11.5 -60h-153q0 112 49.5 177.5t136.5 65.5q27 0 52.5 -8.5t71.5 -32.5l26 -14q46 -28 77 -28q27 0 39 18.5t12 55.5h157q-4 -68 -13.5 -106.5t-29.5 -64.5q-22 -33 -58.5 -48.5t-92.5 -15.5
q-27 0 -56.5 9.5z" />
    <glyph glyph-name="Umacron" unicode="&#x16a;" horiz-adv-x="1464" 
d="M385 564q0 -71 27 -135t76 -112q49 -49 113 -76t135 -27t135 27t113 76t76 113.5t27 133.5v869h231v-869q0 -116 -44.5 -222.5t-125.5 -187.5t-188 -125.5t-224 -44.5t-224 44.5t-186 125.5q-82 82 -126.5 188t-44.5 222v869h230v-869zM446 1725h571v-184h-571v184z" />
    <glyph glyph-name="umacron" unicode="&#x16b;" 
d="M833 0q-12 12 -21 42t-9 62q-39 -56 -113.5 -87t-168.5 -31q-89 0 -162.5 32.5t-126.5 94.5q-54 63 -82 149.5t-28 192.5v595h230v-591q0 -121 43.5 -184.5t129.5 -63.5q51 0 99 12t85 33q37 22 59.5 50.5t25.5 58.5v685h231v-1050h-192zM303 1384h571v-184h-571v184z
" />
    <glyph glyph-name="Ubreve" unicode="&#x16c;" horiz-adv-x="1464" 
d="M385 564q0 -71 27 -135t76 -112q49 -49 113 -76t135 -27t135 27t113 76t76 113.5t27 133.5v869h231v-869q0 -116 -44.5 -222.5t-125.5 -187.5t-188 -125.5t-224 -44.5t-224 44.5t-186 125.5q-82 82 -126.5 188t-44.5 222v869h230v-869zM1027 1792q0 -59 -23 -111t-66 -92
q-42 -38 -95 -58.5t-112 -20.5t-111.5 20.5t-94.5 58.5q-43 40 -66 92t-23 111h59q33 0 61 -15.5t42 -42.5q41 -65 133 -65q94 0 133 65q15 28 42 43t62 15h59z" />
    <glyph glyph-name="ubreve" unicode="&#x16d;" 
d="M833 0q-12 12 -21 42t-9 62q-39 -56 -113.5 -87t-168.5 -31q-89 0 -162.5 32.5t-126.5 94.5q-54 63 -82 149.5t-28 192.5v595h230v-591q0 -121 43.5 -184.5t129.5 -63.5q51 0 99 12t85 33q37 22 59.5 50.5t25.5 58.5v685h231v-1050h-192zM884 1424q0 -60 -23 -113.5
t-66 -93.5q-42 -39 -96 -61t-110 -22q-59 0 -111.5 21.5t-94.5 61.5q-43 40 -66.5 93.5t-23.5 113.5h59q33 0 61.5 -16t42.5 -43q20 -32 56.5 -50.5t76.5 -18.5t76 18.5t56 50.5q16 29 43 44t61 15h59z" />
    <glyph glyph-name="Uring" unicode="&#x16e;" horiz-adv-x="1464" 
d="M385 564q0 -71 27 -135t76 -112q49 -49 113 -76t135 -27t135 27t113 76t76 113.5t27 133.5v869h231v-869q0 -116 -44.5 -222.5t-125.5 -187.5t-188 -125.5t-224 -44.5t-224 44.5t-186 125.5q-82 82 -126.5 188t-44.5 222v869h230v-869zM547.5 1806.5q15.5 36.5 42.5 63.5
q28 28 64.5 43t77.5 15t77.5 -15.5t63.5 -42.5t42.5 -63.5t15.5 -77.5t-15.5 -77.5t-42.5 -63.5t-63.5 -42.5t-77.5 -15.5t-77.5 15t-64.5 43q-27 27 -42.5 63.5t-15.5 77.5t15.5 77.5zM683 1680.5q20 -19.5 49 -19.5t48.5 19.5t19.5 48.5t-19.5 49t-48.5 20t-49 -20
t-20 -49t20 -48.5z" />
    <glyph glyph-name="uring" unicode="&#x16f;" 
d="M833 0q-12 12 -21 42t-9 62q-39 -56 -113.5 -87t-168.5 -31q-89 0 -162.5 32.5t-126.5 94.5q-54 63 -82 149.5t-28 192.5v595h230v-591q0 -121 43.5 -184.5t129.5 -63.5q51 0 99 12t85 33q37 22 59.5 50.5t25.5 58.5v685h231v-1050h-192zM404.5 1406.5
q15.5 36.5 42.5 63.5q28 28 64.5 43t77.5 15t77.5 -15.5t63.5 -42.5t42.5 -63.5t15.5 -77.5t-15.5 -77.5t-42.5 -63.5t-63.5 -42.5t-77.5 -15.5t-77.5 15t-64.5 43q-27 27 -42.5 63.5t-15.5 77.5t15.5 77.5zM540 1280.5q20 -19.5 49 -19.5t48.5 19.5t19.5 48.5t-19.5 49
t-48.5 20t-49 -20t-20 -49t20 -48.5z" />
    <glyph glyph-name="Uhungarumlaut" unicode="&#x170;" horiz-adv-x="1464" 
d="M385 564q0 -71 27 -135t76 -112q49 -49 113 -76t135 -27t135 27t113 76t76 113.5t27 133.5v869h231v-869q0 -116 -44.5 -222.5t-125.5 -187.5t-188 -125.5t-224 -44.5t-224 44.5t-186 125.5q-82 82 -126.5 188t-44.5 222v869h230v-869zM582 1611q-21 -27 -56.5 -38.5
t-95.5 -11.5h-64l108 190l12 20q14 25 31 50q10 14 23 22t37 14q31 10 97 10h101zM872 1608q-21 -26 -55 -36.5t-95 -10.5h-76l183 258q20 27 54.5 37.5t100.5 10.5h113z" />
    <glyph glyph-name="uhungarumlaut" unicode="&#x171;" 
d="M833 0q-12 12 -21 42t-9 62q-39 -56 -113.5 -87t-168.5 -31q-89 0 -162.5 32.5t-126.5 94.5q-54 63 -82 149.5t-28 192.5v595h230v-591q0 -121 43.5 -184.5t129.5 -63.5q51 0 99 12t85 33q37 22 59.5 50.5t25.5 58.5v685h231v-1050h-192zM439 1211q-21 -27 -56.5 -38.5
t-95.5 -11.5h-64l108 190l12 20q14 25 31 50q10 14 23 22t37 14q31 10 97 10h101zM729 1208q-21 -26 -55 -36.5t-95 -10.5h-76l183 258q20 27 54.5 37.5t100.5 10.5h113z" />
    <glyph glyph-name="Uogonek" unicode="&#x172;" horiz-adv-x="1464" 
d="M1318 1433v-869q0 -116 -44.5 -222.5t-125.5 -187.5q-57 -57 -130 -97t-154 -59q-125 -71 -125 -147q0 -35 25 -55t67 -20q19 0 39 4q19 3 40 3q66 0 87 -43l19 -41q-43 -30 -102 -47.5t-119 -17.5q-111 0 -172 46q-31 22 -47.5 53t-16.5 69q0 89 134 184
q-105 7 -199.5 50.5t-167.5 117.5q-82 82 -126.5 188t-44.5 222v869h230v-869q0 -71 27 -135t76 -112q49 -49 113 -76t135 -27t135 27t113 76t76 113.5t27 133.5v869h231z" />
    <glyph glyph-name="uogonek" unicode="&#x173;" 
d="M1104 -300q-43 -30 -102 -47.5t-119 -17.5q-111 0 -172 46q-31 22 -47.5 53t-16.5 69q0 104 176 211q-9 16 -14.5 40t-5.5 50q-39 -56 -113.5 -87t-168.5 -31q-89 0 -162.5 32.5t-126.5 94.5q-54 63 -82 149.5t-28 192.5v595h230v-591q0 -121 43.5 -184.5t129.5 -63.5
q51 0 99 12t85 33q37 22 59.5 50.5t25.5 58.5v685h231v-1050h-71q-127 -70 -127 -148q0 -35 25 -55t67 -20q19 0 39 4q19 3 40 3q66 0 87 -43z" />
    <glyph glyph-name="Wcircumflex" unicode="&#x174;" horiz-adv-x="1998" 
d="M-57 1433h138q51 0 94 -28t63 -73l419 -958q18 -46 19 -91q3 43 13 68q12 40 53 134q17 33 30 66l216 549l288 -662q26 -59 35.5 -89.5t12.5 -64.5q1 40 19 90l419 958q9 22 25 41t36 32q46 28 95 28h138l-625 -1433h-215l-220 505l-212 -505h-216zM1014 1641
q-6 7 -10 17l-5 11l-6 -13l-9 -14l-31 -32q-30 -32 -48 -48.5t-36 -27.5q-21 -13 -46 -19t-60 -6h-80l172 227q35 50 128 50h32q89 0 127 -50l173 -227h-80q-77 0 -130 41q-21 15 -46 42z" />
    <glyph glyph-name="wcircumflex" unicode="&#x175;" horiz-adv-x="1721" 
d="M1087 0l-212 503l-211 -503h-239l-450 1051h138q50 0 93.5 -28.5t61.5 -71.5l223 -521q18 -41 41 -104q10 -27 13 -62q4 44 19 87l311 649l277 -570l18 -43q7 -9 17 -42q17 -51 19 -88q3 38 6.5 55.5t11.5 36.5l115 267l15 34q71 165 119 279l9 21q19 45 61.5 72.5
t93.5 27.5h137l-64 -152l-385 -898h-238zM875 1308q-7 7 -10 16l-5 11l-6 -13l-9 -14l-26 -32l-29 -35q-27 -36 -43.5 -49.5t-42.5 -21.5q-31 -9 -80 -9h-80l35 51q97 147 134 193q34 55 131 55h32q82 0 119 -42q22 -18 67 -87l114 -170h-80q-45 0 -71 6t-44 21
q-38 27 -74 79z" />
    <glyph glyph-name="Ycircumflex" unicode="&#x176;" horiz-adv-x="1378" 
d="M806 0h-231v606q0 30 -11 55.5t-44 70.5l-517 701h168q127 0 188 -96l311 -420q8 -12 13.5 -27.5t6.5 -27.5q0 10 6 27t15 28l310 420q62 96 188 96h170l-518 -701q-34 -45 -44.5 -69t-10.5 -57v-606zM704 1641q-6 7 -10 17l-5 11l-6 -13l-9 -14l-31 -32
q-30 -32 -48 -48.5t-36 -27.5q-21 -13 -46 -19t-60 -6h-80l172 227q35 50 128 50h32q89 0 127 -50l173 -227h-80q-77 0 -130 41q-21 15 -46 42z" />
    <glyph glyph-name="ycircumflex" unicode="&#x177;" horiz-adv-x="1156" 
d="M1127 1050l-582 -1334q-18 -47 -62 -76t-95 -29h-139l202 466l-423 973h139q54 0 96.5 -27.5t58.5 -73.5l206 -482q30 -70 30 -126v-12q0 -17 -3 -26l10 23q38 91 75 177l114 264l78 183q20 45 62 72t93 28h140zM593 1308q-7 7 -10 16l-5 11l-6 -13l-9 -14l-26 -32
l-29 -35q-27 -36 -43.5 -49.5t-42.5 -21.5q-31 -9 -80 -9h-80l35 51q97 147 134 193q34 55 131 55h32q82 0 119 -42q22 -18 67 -87l114 -170h-80q-45 0 -71 6t-44 21q-38 27 -74 79z" />
    <glyph glyph-name="Ydieresis" unicode="&#x178;" horiz-adv-x="1378" 
d="M806 0h-231v606q0 30 -11 55.5t-44 70.5l-517 701h168q127 0 188 -96l311 -420q8 -12 13.5 -27.5t6.5 -27.5q0 10 6 27t15 28l310 420q62 96 188 96h170l-518 -701q-34 -45 -44.5 -69t-10.5 -57v-606zM404 1723.5q17 29.5 46 47.5q29 17 62 17t62.5 -17t47.5 -47
q17 -29 17 -63q0 -33 -17 -62t-47 -46q-29 -17 -63 -17q-53 0 -89 36t-36 89q0 33 17 62.5zM756 1723.5q17 29.5 46 47.5q29 17 62 17t62.5 -17t47.5 -47q17 -29 17 -63q0 -33 -17 -62t-47 -46q-29 -17 -63 -17q-52 0 -88.5 36.5t-36.5 88.5q0 33 17 62.5z" />
    <glyph glyph-name="Zacute" unicode="&#x179;" horiz-adv-x="1260" 
d="M399 203q12 12 30 19q9 3 20 3h723v-225h-1086v80q0 68 38 136q24 39 37 55l26 36l19 25l643 876h-725v226h1053v-99q0 -74 -40 -126zM657 1594q-38 -50 -129 -50h-103l53 88l21 36l23 37l37 58q38 50 128 50h148z" />
    <glyph glyph-name="zacute" unicode="&#x17a;" horiz-adv-x="961" 
d="M377 206q31 19 58 19h438v-225h-803v96q0 79 48 136q116 152 225 300l220 293h-461v225h783v-97q0 -73 -40 -125zM499 1211q-38 -50 -128 -50h-103l108 190q29 51 41 67q36 49 128 49h148z" />
    <glyph glyph-name="Zdotaccent" unicode="&#x17b;" horiz-adv-x="1260" 
d="M399 203q12 12 30 19q9 3 20 3h723v-225h-1086v80q0 68 38 136q24 39 37 55l26 36l19 25l643 876h-725v226h1053v-99q0 -74 -40 -126zM505 1749q19 33 52 52q31 19 73 19q40 0 73 -19t52 -52q19 -31 19 -72q0 -38 -19 -70.5t-53 -53.5q-35 -20 -72 -20q-38 0 -70.5 19
t-53.5 53q-20 35 -20 72q0 39 19 72z" />
    <glyph glyph-name="zdotaccent" unicode="&#x17c;" horiz-adv-x="961" 
d="M377 206q31 19 58 19h438v-225h-803v96q0 79 48 136q116 152 225 300l220 293h-461v225h783v-97q0 -73 -40 -125zM355 1368q19 33 52 52q31 19 73 19q40 0 73 -19t52 -52q19 -31 19 -72q0 -39 -19.5 -72t-52.5 -52q-31 -19 -72 -19q-39 0 -71.5 19t-52.5 52
q-20 35 -20 72q0 39 19 72z" />
    <glyph glyph-name="Zcaron" unicode="&#x17d;" horiz-adv-x="1260" 
d="M399 203q12 12 30 19q9 3 20 3h723v-225h-1086v80q0 68 38 136q24 39 37 55l26 36l19 25l643 876h-725v226h1053v-99q0 -74 -40 -126zM401 1860q42 0 54 -4q46 -6 90 -56q19 -21 36 -44q21 -31 33 -44l9 -16q3 -8 6 -11l11 18q5 9 12 18l40 53q32 45 71.5 65.5t93.5 20.5
h88l-126 -186q-40 -58 -53 -71q-22 -20 -41 -29q-40 -14 -80 -14h-31q-52 0 -84 16t-59 55q-36 48 -100 146l-29 42l-28 41h87z" />
    <glyph glyph-name="zcaron" unicode="&#x17e;" horiz-adv-x="961" 
d="M377 206q31 19 58 19h438v-225h-803v96q0 79 48 136q116 152 225 300l220 293h-461v225h783v-97q0 -73 -40 -125zM252 1460q42 0 54 -4q46 -6 90 -56q19 -21 36 -44q21 -31 33 -44l9 -16q3 -8 6 -11l11 18q5 9 12 18l40 53q32 45 71.5 65.5t93.5 20.5h88l-126 -186
q-40 -58 -53 -71q-22 -20 -41 -29q-40 -14 -80 -14h-31q-52 0 -84 16t-59 55q-36 48 -100 146l-29 42l-28 41h87z" />
    <glyph glyph-name="longs" unicode="&#x17f;" horiz-adv-x="655" 
d="M180 0v773h-169v128q0 48 35.5 70t115.5 22h18v157q0 63 19.5 116t56.5 92t89.5 60t115.5 21q27 0 64 -8.5t75 -23.5q83 -34 123 -74l-30 -48q-24 -37 -59 -57t-77 -20q-17 0 -35 6q-35 5 -50 5q-27 0 -45 -23t-18 -56v-1140h-229z" />
    <glyph glyph-name="florin" unicode="&#x192;" horiz-adv-x="703" 
d="M179 824h-168v122q0 33 17 52t53 29q25 10 98 16v107q0 63 19.5 116t56.5 92t90 60t116 21q27 0 64 -9t74 -24q86 -34 123 -74q-33 -51 -54.5 -75t-45.5 -36q-25 -13 -63 -13l-16 2l-37 6q-1 1 -30 1q-31 0 -48.5 -22.5t-17.5 -62.5v-90h261v-218h-261v-817
q0 -71 -5 -111.5t-20 -74.5q-43 -102 -144 -141q-58 -20 -112 -20q-28 0 -65 9t-73 24q-83 31 -124 73l28 44q25 38 55 56t70 18q24 0 42 -7q17 -7 51 -7q30 0 48 22t18 56v876z" />
    <glyph glyph-name="AEacute" unicode="&#x1fc;" horiz-adv-x="1904" 
d="M1785 0h-472q-52 0 -92 27t-57 75l-72 209h-686l-111 -212q-25 -45 -69.5 -72t-95.5 -27h-145l379 716l379 717h1042v-231h-746l126 -364h492v-231h-414l130 -377h412v-230zM1014 542q-116 337 -173 515q-6 19 -10 42t-4 38q-7 -43 -26 -79l-272 -516h485zM1035 1594
q-38 -50 -129 -50h-103l53 88l21 36l23 37l37 58q38 50 128 50h148z" />
    <glyph glyph-name="aeacute" unicode="&#x1fd;" horiz-adv-x="1863" 
d="M1785 611q0 -72 -51 -116q-22 -19 -49 -29.5t-52 -10.5h-596q-53 0 -53 -27q0 -2 1 -2v-3q12 -43 39.5 -82.5t65.5 -69.5q86 -68 191 -68q84 0 154 40q44 23 87 23q35 0 62.5 -12t54.5 -39l49 -49q-81 -87 -185.5 -133.5t-221.5 -46.5q-123 0 -225 48q-41 19 -84.5 53
t-63.5 64q4 -7 4 -27q0 -15 -5 -18l-31 -16q-94 -48 -202.5 -76t-206.5 -28q-78 0 -147 23t-120 65q-51 43 -78.5 103t-27.5 132q0 169 133.5 257.5t391.5 88.5q66 0 135 -9q-15 114 -59.5 162.5t-131.5 48.5q-36 0 -61.5 -6t-55.5 -21q-34 -17 -52.5 -22.5t-45.5 -5.5
q-55 0 -104 37l-64 44l7 10q16 22 43 48.5t52 43.5q121 79 283 79q105 0 185.5 -32t128.5 -92q22 -16 22 -28q0 -6 -1 -7l-7 -17l42 42q139 133 347 133q84 0 165 -28.5t150 -82.5q67 -55 114 -126t67 -151q7 -21 7 -64zM1542 663q-36 88 -104 135.5t-158 47.5
q-114 0 -197 -65q-36 -29 -62 -67.5t-38 -79.5q10 13 26 21t34 8h499zM790 296q-16 34 -28 72.5t-15 65.5q-5 2 -19 3q-55 9 -131 9q-134 0 -206.5 -34.5t-72.5 -99.5q0 -54 41 -85t108 -31q80 0 166 31q85 29 157 69zM950 1211q-38 -50 -128 -50h-103l108 190q29 51 41 67
q36 49 128 49h148z" />
    <glyph glyph-name="Oslashacute" unicode="&#x1fe;" horiz-adv-x="1648" 
d="M105.5 910q25.5 94 74.5 176q48 81 115 148t148 115q82 48 176 73.5t193 25.5q201 0 372 -102q4 4 16 24q37 54 56.5 73t50.5 28q10 15 18.5 20t23.5 5h136l-177 -242q116 -104 177 -242t61 -295q0 -146 -56 -280t-159 -237t-237.5 -158.5t-281.5 -55.5q-198 0 -364 97
l-94 -128q-21 -30 -53.5 -45.5t-69.5 -15.5h-114l205 279q-114 102 -178 245.5t-64 298.5q0 99 25.5 193zM351 525q38 -91 110 -163l584 796q-106 60 -233 60q-99 0 -190.5 -38.5t-161.5 -108.5t-108.5 -162.5t-38.5 -191.5q0 -101 38 -192zM1004.5 253.5
q91.5 38.5 161.5 108.5t107.5 161.5t37.5 192.5q0 99 -36.5 187.5t-106.5 160.5l-583 -792q108 -57 227 -57q101 0 192.5 38.5zM851 1594q-38 -50 -129 -50h-103l53 88l21 36l23 37l37 58q38 50 128 50h148z" />
    <glyph glyph-name="oslashacute" unicode="&#x1ff;" horiz-adv-x="1226" 
d="M631 1211q-38 -50 -128 -50h-103l108 190q29 51 41 67q36 49 128 49h148zM1110.5 732.5q41.5 -99.5 41.5 -207.5t-41 -206.5t-117 -174.5t-175 -117.5t-207 -41.5q-58 0 -114 12l-67 -153q-20 -45 -62.5 -72.5t-93.5 -27.5h-106l145 332q-45 30 -83 68q-76 76 -117.5 175
t-41.5 206q0 108 41.5 207t117.5 175t174.5 117t206.5 41q66 0 126 -15l68 155q21 46 61 73.5t90 27.5h112l-148 -338q39 -27 73 -61q75 -75 116.5 -174.5zM406 289l239 546l-34 2q-63 0 -119.5 -23.5t-101.5 -67.5q-44 -44 -68 -101.5t-24 -120.5q0 -64 24 -120.5t68 -99.5
zM900 403.5q24 56.5 24 120.5q0 63 -24 120.5t-68 101.5l-5 5l-235 -538q1 -1 19 -1q62 0 120 24.5t101 67.5q44 43 68 99.5z" />
    <glyph glyph-name="Scommaaccent" unicode="&#x218;" horiz-adv-x="1091" 
d="M454.5 1198q-47.5 -19 -74.5 -53q-28 -34 -28 -77q0 -46 17.5 -74.5t58.5 -50.5q45 -23 103 -44q130 -45 188 -69.5t105 -53.5q127 -79 173 -203q23 -72 23 -139q0 -95 -39.5 -178.5t-111.5 -144.5q-70 -60 -160.5 -92.5t-189.5 -32.5q-201 0 -341 128q-71 65 -119 166
q28 13 36 19q36 20 69 30q35 5 39 5q31 0 62.5 -11t54.5 -30l8 -6q52 -37 98 -54.5t93 -17.5q46 0 93.5 14.5t86.5 41.5q44 31 67.5 72.5t23.5 90.5q0 47 -21.5 82t-66.5 62q-39 24 -87 42l-29 10q-143 52 -207 82t-120 73q-72 52 -105 119.5t-33 163.5q0 84 35 156.5
t101 124.5q60 48 138.5 73.5t162.5 25.5q101 0 207.5 -59t188.5 -159l-51 -39q-24 -21 -57 -33.5t-64 -12.5q-23 0 -47 9q-26 9 -78 34l-20 10q-37 19 -79 19q-56 0 -103.5 -19zM488 -167h96q38 0 59 -21t21 -57v-9q0 -9 -1 -10l-20 -127q-5 -35 -30.5 -56.5t-61.5 -21.5
h-63v302z" />
    <glyph glyph-name="scommaaccent" unicode="&#x219;" horiz-adv-x="867" 
d="M99 236q31 19 76 34q15 7 41 7q23 0 44.5 -9.5t55.5 -33.5q46 -34 103 -34q25 0 51 8.5t47 23.5q47 35 47 92q0 24 -7.5 41t-26.5 32q-29 25 -129 58q-108 36 -173.5 80t-96.5 101t-31 134q0 59 27 113t77 97q47 40 106.5 62t120.5 22q108 0 208 -75q35 -25 63 -55
l13 -16l15 -18q-46 -41 -67 -57q-24 -18 -43 -25t-44 -7q-23 0 -48 13l-16 7q-51 20 -76 20q-51 0 -85 -31q-14 -12 -22 -27t-8 -27q0 -45 47 -72q17 -11 34 -18l64 -21q83 -25 134.5 -49t89.5 -56q97 -82 97 -222q0 -68 -27 -130t-76 -110q-51 -49 -119 -75.5t-145 -26.5
q-111 0 -208 62t-151 169zM345 -167h96q38 0 59 -21t21 -57v-9q0 -9 -1 -10l-20 -127q-5 -35 -30.5 -56.5t-61.5 -21.5h-63v302z" />
    <glyph glyph-name="uni021A" unicode="&#x21a;" horiz-adv-x="1155" 
d="M27 1208v226h1098v-226h-433v-1208h-230v1208h-435z" />
    <glyph glyph-name="uni021B" unicode="&#x21b;" horiz-adv-x="764" 
d="M427 824v-538q0 -36 17 -58t46 -22q23 0 45 6q21 6 38 6q49 0 86 -25.5t70 -80.5l12 -18q-40 -40 -124 -75q-37 -15 -74.5 -24t-64.5 -9q-63 0 -116 21t-90 60q-37 38 -56.5 91t-19.5 116v550h-169v137q0 42 35.5 62t107.5 20h26v219q0 61 28 113q12 25 28 44h175v-376
h280v-219h-280zM294 -167h96q38 0 59 -21t21 -57v-9q0 -9 -1 -10l-20 -127q-5 -35 -30.5 -56.5t-61.5 -21.5h-63v302z" />
    <glyph glyph-name="circumflex" unicode="&#x2c6;" horiz-adv-x="664" 
d="M341 1308q-7 7 -10 16l-5 11l-6 -13l-9 -14l-26 -32l-29 -35q-27 -36 -43.5 -49.5t-42.5 -21.5q-31 -9 -80 -9h-80l35 51q97 147 134 193q34 55 131 55h32q82 0 119 -42q22 -18 67 -87l114 -170h-80q-45 0 -71 6t-44 21q-38 27 -74 79z" />
    <glyph glyph-name="caron" unicode="&#x2c7;" horiz-adv-x="663" 
d="M98 1460q42 0 54 -4q46 -6 90 -56q19 -21 36 -44q21 -31 33 -44l9 -16q3 -8 6 -11l11 18q5 9 12 18l40 53q32 45 71.5 65.5t93.5 20.5h88l-126 -186q-40 -58 -53 -71q-22 -20 -41 -29q-40 -14 -80 -14h-31q-52 0 -84 16t-59 55q-36 48 -100 146l-29 42l-28 41h87z" />
    <glyph glyph-name="uni02C9" unicode="&#x2c9;" horiz-adv-x="614" 
 />
    <glyph glyph-name="breve" unicode="&#x2d8;" horiz-adv-x="650" 
d="M619 1424q0 -60 -23 -113.5t-66 -93.5q-42 -39 -96 -61t-110 -22q-59 0 -111.5 21.5t-94.5 61.5q-43 40 -66.5 93.5t-23.5 113.5h59q33 0 61.5 -16t42.5 -43q20 -32 56.5 -50.5t76.5 -18.5t76 18.5t56 50.5q16 29 43 44t61 15h59z" />
    <glyph glyph-name="dotaccent" unicode="&#x2d9;" horiz-adv-x="627" 
d="M190 1368q19 33 52 52q31 19 73 19q40 0 73 -19t52 -52q19 -31 19 -72q0 -39 -19.5 -72t-52.5 -52q-31 -19 -72 -19q-39 0 -71.5 19t-52.5 52q-20 35 -20 72q0 39 19 72z" />
    <glyph glyph-name="ring" unicode="&#x2da;" horiz-adv-x="641" 
d="M135.5 1406.5q15.5 36.5 42.5 63.5q28 28 64.5 43t77.5 15t77.5 -15.5t63.5 -42.5t42.5 -63.5t15.5 -77.5t-15.5 -77.5t-42.5 -63.5t-63.5 -42.5t-77.5 -15.5t-77.5 15t-64.5 43q-27 27 -42.5 63.5t-15.5 77.5t15.5 77.5zM271 1280.5q20 -19.5 49 -19.5t48.5 19.5
t19.5 48.5t-19.5 49t-48.5 20t-49 -20t-20 -49t20 -48.5z" />
    <glyph glyph-name="ogonek" unicode="&#x2db;" horiz-adv-x="648" 
d="M412 -1q-127 -70 -127 -148q0 -35 25 -55t67 -20q19 0 39 4q20 3 40 3q66 0 87 -43l19 -41q-43 -30 -102 -47.5t-119 -17.5q-111 0 -172 46q-31 22 -47.5 53t-16.5 69q0 105 177 211z" />
    <glyph glyph-name="tilde" unicode="&#x2dc;" horiz-adv-x="614" 
d="M366.5 1209.5q-29.5 9.5 -73.5 32.5l-8 5l-12 6q-29 17 -47.5 24t-33.5 7q-20 0 -31.5 -23t-11.5 -60h-153q0 112 49.5 177.5t136.5 65.5q27 0 52.5 -8.5t71.5 -32.5l26 -14q46 -28 77 -28q27 0 39 18.5t12 55.5h157q-4 -68 -13.5 -106.5t-29.5 -64.5
q-22 -33 -58.5 -48.5t-92.5 -15.5q-27 0 -56.5 9.5z" />
    <glyph glyph-name="hungarumlaut" unicode="&#x2dd;" horiz-adv-x="716" 
d="M310 1211q-21 -27 -56.5 -38.5t-95.5 -11.5h-64l108 190l12 20q14 25 31 50q10 14 23 22t37 14q31 10 97 10h101zM600 1208q-21 -26 -55 -36.5t-95 -10.5h-76l183 258q20 27 54.5 37.5t100.5 10.5h113z" />
    <glyph glyph-name="pi" unicode="&#x3c0;" horiz-adv-x="1310" 
d="M57 826v225h1087v-225h-182q-30 -220 -41 -334.5t-11 -199.5q0 -49 12 -71t39 -22q23 0 42 6q20 6 36 6q39 0 69.5 -19t57.5 -58l-8 -49q-45 -45 -102 -72t-108 -27q-122 0 -190 78t-68 216q0 173 48 546h-298v-826h-225v826h-158z" />
    <glyph glyph-name="Wgrave" unicode="&#x1e80;" horiz-adv-x="1998" 
d="M-57 1433h138q51 0 94 -28t63 -73l419 -958q18 -46 19 -91q3 43 13 68q12 40 53 134q17 33 30 66l216 549l288 -662q26 -59 35.5 -89.5t12.5 -64.5q1 40 19 90l419 958q9 22 25 41t36 32q46 28 95 28h138l-625 -1433h-215l-220 505l-212 -505h-216zM794 1812h148
q92 0 128 -49q10 -13 38 -58q32 -51 96 -162h-103q-91 0 -128 51z" />
    <glyph glyph-name="wgrave" unicode="&#x1e81;" horiz-adv-x="1721" 
d="M1087 0l-212 503l-211 -503h-239l-450 1051h138q50 0 93.5 -28.5t61.5 -71.5l223 -521q18 -41 41 -104q10 -27 13 -62q4 44 19 87l311 649l277 -570l18 -43q7 -9 17 -42q17 -51 19 -88q3 38 6.5 55.5t11.5 36.5l115 267l15 34q71 165 119 279l9 21q19 45 61.5 72.5
t93.5 27.5h137l-64 -152l-385 -898h-238zM648 1467h148q90 0 128 -50q6 -6 41 -66l108 -191h-103q-90 0 -129 51z" />
    <glyph glyph-name="Wacute" unicode="&#x1e82;" horiz-adv-x="1998" 
d="M-57 1433h138q51 0 94 -28t63 -73l419 -958q18 -46 19 -91q3 43 13 68q12 40 53 134q17 33 30 66l216 549l288 -662q26 -59 35.5 -89.5t12.5 -64.5q1 40 19 90l419 958q9 22 25 41t36 32q46 28 95 28h138l-625 -1433h-215l-220 505l-212 -505h-216zM1026 1594
q-38 -50 -129 -50h-103l53 88l21 36l23 37l37 58q38 50 128 50h148z" />
    <glyph glyph-name="wacute" unicode="&#x1e83;" horiz-adv-x="1721" 
d="M1087 0l-212 503l-211 -503h-239l-450 1051h138q50 0 93.5 -28.5t61.5 -71.5l223 -521q18 -41 41 -104q10 -27 13 -62q4 44 19 87l311 649l277 -570l18 -43q7 -9 17 -42q17 -51 19 -88q3 38 6.5 55.5t11.5 36.5l115 267l15 34q71 165 119 279l9 21q19 45 61.5 72.5
t93.5 27.5h137l-64 -152l-385 -898h-238zM879 1211q-38 -50 -128 -50h-103l108 190q29 51 41 67q36 49 128 49h148z" />
    <glyph glyph-name="Wdieresis" unicode="&#x1e84;" horiz-adv-x="1998" 
d="M-57 1433h138q51 0 94 -28t63 -73l419 -958q18 -46 19 -91q3 43 13 68q12 40 53 134q17 33 30 66l216 549l288 -662q26 -59 35.5 -89.5t12.5 -64.5q1 40 19 90l419 958q9 22 25 41t36 32q46 28 95 28h138l-625 -1433h-215l-220 505l-212 -505h-216zM714 1723.5
q17 29.5 46 47.5q29 17 62 17t62.5 -17t47.5 -47q17 -29 17 -63q0 -33 -17 -62t-47 -46q-29 -17 -63 -17q-53 0 -89 36t-36 89q0 33 17 62.5zM1066 1723.5q17 29.5 46 47.5q29 17 62 17t62.5 -17t47.5 -47q17 -29 17 -63q0 -33 -17 -62t-47 -46q-29 -17 -63 -17
q-52 0 -88.5 36.5t-36.5 88.5q0 33 17 62.5z" />
    <glyph glyph-name="wdieresis" unicode="&#x1e85;" horiz-adv-x="1721" 
d="M1087 0l-212 503l-211 -503h-239l-450 1051h138q50 0 93.5 -28.5t61.5 -71.5l223 -521q18 -41 41 -104q10 -27 13 -62q4 44 19 87l311 649l277 -570l18 -43q7 -9 17 -42q17 -51 19 -88q3 38 6.5 55.5t11.5 36.5l115 267l15 34q71 165 119 279l9 21q19 45 61.5 72.5
t93.5 27.5h137l-64 -152l-385 -898h-238zM575 1358.5q17 29.5 46 47.5q29 17 62 17t62.5 -17t47.5 -47q17 -29 17 -63q0 -33 -17 -62t-47 -46q-29 -17 -63 -17q-53 0 -89 36t-36 89q0 33 17 62.5zM927 1358.5q17 29.5 46 47.5q29 17 62 17t62.5 -17t47.5 -47q17 -29 17 -63
q0 -33 -17 -62t-47 -46q-29 -17 -63 -17q-52 0 -88.5 36.5t-36.5 88.5q0 33 17 62.5z" />
    <glyph glyph-name="Ygrave" unicode="&#x1ef2;" horiz-adv-x="1378" 
d="M806 0h-231v606q0 30 -11 55.5t-44 70.5l-517 701h168q127 0 188 -96l311 -420q8 -12 13.5 -27.5t6.5 -27.5q0 10 6 27t15 28l310 420q62 96 188 96h170l-518 -701q-34 -45 -44.5 -69t-10.5 -57v-606zM444 1812h148q92 0 128 -49q10 -13 38 -58q32 -51 96 -162h-103
q-91 0 -128 51z" />
    <glyph glyph-name="ygrave" unicode="&#x1ef3;" horiz-adv-x="1156" 
d="M1127 1050l-582 -1334q-18 -47 -62 -76t-95 -29h-139l202 466l-423 973h139q54 0 96.5 -27.5t58.5 -73.5l206 -482q30 -70 30 -126v-12q0 -17 -3 -26l10 23q38 91 75 177l114 264l78 183q20 45 62 72t93 28h140zM365 1467h148q90 0 128 -50q6 -6 41 -66l108 -191h-103
q-90 0 -129 51z" />
    <glyph glyph-name="endash" unicode="&#x2013;" horiz-adv-x="1133" 
d="M976 559h-821v214h821v-214z" />
    <glyph glyph-name="emdash" unicode="&#x2014;" horiz-adv-x="1662" 
d="M1508 559h-1353v214h1353v-214z" />
    <glyph glyph-name="quoteleft" unicode="&#x2018;" horiz-adv-x="466" 
d="M146 990l-14 26q-24 44 -38.5 109.5t-14.5 127.5q0 77 41 148.5t141 171.5l29 -29q45 -48 45 -101q-1 -22 -6 -40.5t-22 -56.5q-14 -33 -20 -55.5t-6 -45.5q0 -56 29 -106q10 -20 21 -31l9 -12z" />
    <glyph glyph-name="quoteright" unicode="&#x2019;" horiz-adv-x="463" 
d="M292 1547l14 -25q24 -47 38.5 -111.5t14.5 -125.5q0 -88 -57 -175q-21 -32 -49.5 -65.5t-75.5 -80.5l-29 30q-45 48 -45 100q1 22 6.5 41.5t21.5 56.5q14 30 20 52.5t6 47.5q0 55 -28 107q-14 24 -21 31l-10 11z" />
    <glyph glyph-name="quotesinglbase" unicode="&#x201a;" horiz-adv-x="460" 
d="M290 291l14 -25q24 -47 38.5 -111.5t14.5 -125.5q0 -88 -57 -175q-21 -32 -48.5 -64t-77.5 -82l-28 30q-45 46 -45 96q0 22 5 41.5t22 60.5q14 30 20 52.5t6 47.5q0 54 -28 106l-30 43z" />
    <glyph glyph-name="quotedblleft" unicode="&#x201c;" horiz-adv-x="807" 
d="M129 993l-14 26q-27 45 -44 134q-10 34 -10 102q0 77 41.5 149t141.5 172l28 -30q45 -46 45 -97q0 -22 -5 -40.5t-22 -60.5q-14 -30 -20 -52.5t-6 -47.5q0 -57 29 -107q10 -20 21 -31l9 -12zM461 993l-14 26q-24 44 -38.5 109t-14.5 127q0 88 58 176q21 32 49 64.5
t76 80.5l28 -30q45 -46 45 -97q0 -24 -17 -77l-10 -24q-17 -45 -21.5 -60.5t-4.5 -34.5q-4 -47 28 -112l30 -43z" />
    <glyph glyph-name="quotedblright" unicode="&#x201d;" horiz-adv-x="808" 
d="M292 1554l14 -25q24 -45 38.5 -111t14.5 -127q0 -87 -57 -174q-21 -32 -48.5 -64t-77.5 -82l-28 29q-24 27 -34.5 50t-10.5 47q0 22 5 41.5t22 60.5q14 30 20 52.5t6 47.5q0 54 -28 106q-11 22 -21 32l-10 11zM624 1554l14 -25q24 -45 38.5 -111t14.5 -127
q0 -87 -57 -174q-21 -32 -49.5 -65.5t-75.5 -80.5l-29 29q-24 27 -34.5 51t-10.5 50q1 22 6.5 41.5t21.5 56.5q14 30 20 52.5t6 47.5q0 54 -28 106l-21 32l-10 11z" />
    <glyph glyph-name="quotedblbase" unicode="&#x201e;" horiz-adv-x="820" 
d="M292 288l14 -25q24 -47 38.5 -111.5t14.5 -125.5q0 -88 -57 -175q-21 -32 -49.5 -65.5t-75.5 -80.5l-29 30q-45 48 -45 100q1 22 6.5 41.5t21.5 56.5q14 30 20 52.5t6 47.5q0 55 -28 107q-14 24 -21 31l-10 11zM627 288l14 -25q24 -47 38.5 -111.5t14.5 -125.5
q0 -88 -57 -175q-21 -32 -49.5 -65.5t-75.5 -80.5l-29 30q-45 48 -45 100q1 22 6.5 41.5t21.5 56.5q14 30 20 52.5t6 47.5q0 55 -28 107q-14 24 -21 31l-10 11z" />
    <glyph glyph-name="dagger" unicode="&#x2020;" horiz-adv-x="1160" 
d="M486 540l22 302h-370v163h370v428h162v-428h371v-163h-371l22 -302v-883h-206v883z" />
    <glyph glyph-name="daggerdbl" unicode="&#x2021;" horiz-adv-x="1179" 
d="M486 571l22 271h-370v163h370v428h162v-428h371v-163h-371l22 -271v-48l-22 -275h371v-163h-371v-428h-162v428h-370v163h370l-22 275v48z" />
    <glyph glyph-name="bullet" unicode="&#x2022;" horiz-adv-x="1190" 
d="M268 739.5q27 64.5 76 113.5t112.5 75.5t134.5 26.5q70 0 134.5 -26.5t113.5 -75.5t75.5 -113t26.5 -134q0 -71 -26.5 -134.5t-75.5 -112.5t-113.5 -75.5t-134.5 -26.5q-71 0 -134.5 26.5t-112.5 75.5q-49 48 -76 112t-27 135q0 69 27 133.5z" />
    <glyph glyph-name="ellipsis" unicode="&#x2026;" horiz-adv-x="1300" 
d="M94.5 193q11.5 28 32.5 49q44 44 107 44q30 0 58.5 -11.5t49.5 -32.5t32.5 -49t11.5 -58t-11.5 -57.5t-32.5 -48.5t-49.5 -32.5t-58.5 -11.5q-63 0 -107 44q-21 21 -32.5 48.5t-11.5 57.5t11.5 58zM507 193.5q12 28.5 33 48.5q44 44 107 44q30 0 58.5 -11.5t49.5 -32.5
t32.5 -49t11.5 -58t-11.5 -57.5t-32.5 -48.5t-49.5 -32.5t-58.5 -11.5q-63 0 -107 44q-21 21 -33 48.5t-12 57.5t12 58.5zM920 193.5q12 28.5 33 48.5q44 44 107 44q30 0 58.5 -11.5t49.5 -32.5t32.5 -49t11.5 -58t-11.5 -57.5t-32.5 -48.5t-49.5 -32.5t-58.5 -11.5
q-63 0 -107 44q-21 21 -33 48.5t-12 57.5t12 58.5z" />
    <glyph glyph-name="perthousand" unicode="&#x2030;" horiz-adv-x="2333" 
d="M98.5 1223.5q25.5 67.5 71.5 118.5q48 52 111.5 79.5t137.5 27.5q73 0 137 -27.5t113 -79.5q46 -51 71.5 -118.5t25.5 -141.5q0 -72 -25.5 -139.5t-71.5 -119.5q-49 -52 -113 -79.5t-137 -27.5q-74 0 -137.5 27.5t-111.5 79.5q-46 52 -71.5 119.5t-25.5 139.5
q0 74 25.5 141.5zM463 90q-68 -90 -176 -90h-166l1006 1343q68 90 176 90h166zM311 966q19 -23 47 -36t61 -13t61 13t47 36q39 47 39 116q0 34 -10 64t-29 52t-47.5 35t-60.5 13t-60.5 -13t-47.5 -35t-29 -52t-10 -64q0 -69 39 -116zM857.5 493.5q25.5 67.5 71.5 118.5
q48 52 111.5 79.5t137.5 27.5q73 0 137 -27.5t113 -79.5q46 -51 71.5 -118.5t25.5 -141.5q0 -72 -25.5 -139.5t-71.5 -119.5q-49 -52 -113 -79.5t-137 -27.5q-74 0 -137.5 27.5t-111.5 79.5q-46 52 -71.5 119.5t-25.5 139.5q0 74 25.5 141.5zM1586.5 493.5
q25.5 67.5 71.5 118.5q48 52 111.5 79.5t137.5 27.5q73 0 137 -27.5t113 -79.5q46 -51 71.5 -118.5t25.5 -141.5q0 -72 -25.5 -139.5t-71.5 -119.5q-49 -52 -113 -79.5t-137 -27.5q-74 0 -137.5 27.5t-111.5 79.5q-46 52 -71.5 119.5t-25.5 139.5q0 74 25.5 141.5zM1070 236
q19 -23 47 -36t61 -13t61 13t47 36q39 47 39 116q0 34 -10 64t-29 52t-47.5 35t-60.5 13t-60.5 -13t-47.5 -35t-29 -52t-10 -64q0 -69 39 -116zM1799 236q19 -23 47 -36t61 -13q66 0 107 46t41 119q0 34 -10 64.5t-29 51.5q-22 23 -50 35.5t-59 12.5q-32 0 -60.5 -13
t-47.5 -35t-29 -52t-10 -64q0 -69 39 -116z" />
    <glyph glyph-name="guilsinglleft" unicode="&#x2039;" horiz-adv-x="675" 
d="M285 855q23 53 71 83.5t105 30.5h74l-158 -375q-23 -47 -62 -66q45 -23 62 -64l158 -375h-74q-62 0 -107 29.5t-69 84.5l-15 36l-22 54l-52 124l-38 89q-4 12 -12 17l-9 6q2 0 9 6q6 5 12 18z" />
    <glyph glyph-name="guilsinglright" unicode="&#x203a;" horiz-adv-x="671" 
d="M504 553q7 -15 13 -19t6 -6l-2 -2l-5 -3q-8 -5 -12 -17l-133 -316q-20 -45 -63 -73t-94 -28h-87l158 375q18 41 62 64q-39 19 -62 66l-158 375h87q51 0 94 -28t63 -73z" />
    <glyph glyph-name="fraction" unicode="&#x2044;" horiz-adv-x="576" 
d="M466 1332q21 46 61 73.5t90 27.5h120l-637 -1333q-21 -45 -63.5 -72.5t-92.5 -27.5h-114z" />
    <glyph glyph-name="Euro" unicode="&#x20ac;" horiz-adv-x="1465" 
d="M10 874h117q26 122 89.5 227t156.5 183q94 79 211 121.5t245 42.5q152 0 296 -65t253 -182l-49 -49q-52 -52 -123 -52q-49 0 -93 29q-137 89 -284 89q-82 0 -156 -25t-135 -72q-60 -46 -104 -109t-68 -138h317v-114h-340l-2 -21v-22q0 -28 3 -54h339v-115h-313
q24 -72 68.5 -133t104.5 -106q61 -45 134.5 -69.5t151.5 -24.5q149 0 284 90q41 27 93 27q39 0 67.5 -12t55.5 -39l49 -49q-108 -117 -251 -181.5t-298 -64.5q-126 0 -242 41t-210 119q-93 75 -156.5 178.5t-90.5 223.5h-120v115h103l-2 54v22q0 20 1 21h-102v114z" />
    <glyph glyph-name="trademark" unicode="&#x2122;" horiz-adv-x="1543" 
d="M50 1305v129h539v-130h-205v-500h-129v500zM1419 804h-130v384l-17 -35l-35 -70l-43 -87l-43 -88l-34 -70l-17 -34h-112l-188 379v-379h-129v630h95q23 0 47 -16t36 -38l195 -386l196 386q11 24 34 39t49 15h96v-630z" />
    <glyph glyph-name="uni2126" unicode="&#x2126;" horiz-adv-x="1433" 
d="M611 0h-523v220h303v114q-70 36 -126 89t-95 119q-79 130 -79 288q0 107 38 209.5t108 187.5q87 106 208.5 163.5t265.5 57.5q167 0 307.5 -80.5t228.5 -225.5q84 -142 84 -312q0 -152 -85 -291q-40 -65 -95.5 -118t-122.5 -89v-112h303v-220h-524v481q63 7 119 37.5
t98 81.5q41 49 63.5 108.5t22.5 121.5q0 78 -30 150.5t-85 127.5t-129 86t-152 31q-81 0 -153 -30t-129 -87q-55 -55 -85.5 -127.5t-30.5 -150.5q0 -64 22 -123t63 -106q42 -48 96 -79t114 -41v-481z" />
    <glyph glyph-name="partialdiff" unicode="&#x2202;" horiz-adv-x="1261" 
d="M113 735.5q41 98.5 117 176.5q76 76 176 118.5t205 43.5q40 0 85.5 -10t80.5 -28q94 -45 122 -100q-71 162 -251 262q-66 36 -141 63t-178 52l32 215q289 -48 471.5 -184.5t264.5 -364.5q67 -183 67 -443v-5q0 -108 -42 -209t-118 -177t-177 -118t-209 -42t-209 42
t-177 118q-78 78 -119 176.5t-41 208.5q0 107 41 205.5zM324.5 408.5q24.5 -58.5 69.5 -103.5q94 -94 224 -94q63 0 121 24.5t103 69.5q45 46 69 103.5t24 121.5q0 65 -24 123t-69 103q-43 44 -101 68.5t-123 24.5t-122 -24t-102 -69t-69.5 -103.5t-24.5 -122.5
q0 -63 24.5 -121.5z" />
    <glyph glyph-name="uni2206" unicode="&#x2206;" horiz-adv-x="1503" 
d="M635 1433h215l625 -1433h-1465zM760 1075q-18 44 -18 78q0 -18 -17 -78l-372 -850h779z" />
    <glyph glyph-name="product" unicode="&#x220f;" horiz-adv-x="1368" 
d="M63 1208v225h1243v-225h-180v-1548h-230v1548h-427v-1548h-230v1548h-176z" />
    <glyph glyph-name="summation" unicode="&#x2211;" horiz-adv-x="1368" 
d="M885 549l-18 -24l-40 -55l-73 -99l-13 -18l-100 -136q-38 -55 -99 -136l-37 -50l-110 -147h888v-226h-1211v99q0 71 40 126l127 173l17 24l175 238l25 35l69 95l18 24q45 62 56 77l-487 659q-40 52 -40 126v99h1211v-226h-883z" />
    <glyph glyph-name="minus" unicode="&#x2212;" horiz-adv-x="1175" 
d="M1071 558h-969v214h969v-214z" />
    <glyph glyph-name="radical" unicode="&#x221a;" horiz-adv-x="1207" 
d="M292 623h-98q-68 0 -107.5 43.5t-39.5 116.5v63h403l146 -447q8 -29 16 -79l5 -34l2 -17l2 18q1 13 11 73l9 37l361 1155q18 64 80 100q47 29 105 29h85l-515 -1647q-12 -36 -47 -55t-86 -19q-54 0 -90.5 17.5t-47.5 50.5z" />
    <glyph glyph-name="infinity" unicode="&#x221e;" horiz-adv-x="1531" 
d="M1414.5 807.5q27.5 -65.5 27.5 -137.5q0 -68 -28 -134.5t-77 -118.5q-51 -51 -116.5 -78.5t-137.5 -27.5q-145 0 -255 110l-37 44l-37 45l-76 -90q-52 -52 -117 -80.5t-136 -28.5q-74 0 -139.5 27.5t-114.5 78.5q-51 51 -78.5 116.5t-27.5 136.5t27.5 136.5t78.5 116.5
t116.5 78.5t137.5 27.5q69 0 135.5 -29t118.5 -81l75 -89l74 89q52 52 118 81t137 29q72 0 137 -27t116 -78t78.5 -116.5zM492 555q57 36 136 115q-80 80 -137 114q-40 24 -69 24q-57 0 -96 -41q-19 -19 -29.5 -44t-10.5 -53q0 -27 10.5 -52.5t29.5 -44.5q41 -42 96 -42
q33 0 70 24zM1137 542.5q26 11.5 45 30.5q18 19 28.5 44.5t10.5 52.5t-10.5 52.5t-28.5 44.5q-19 19 -44.5 30t-52.5 11q-36 0 -73 -25q-56 -36 -133 -113q79 -79 136 -115q37 -24 70 -24q26 0 52 11.5z" />
    <glyph glyph-name="integral" unicode="&#x222b;" horiz-adv-x="749" 
d="M260 1127q0 38 1 40q0 63 19 119.5t55 99.5q36 45 89 69t116 24q59 0 141 -33.5t123 -74.5q-24 -37 -38 -55.5t-30 -34.5q-38 -35 -95 -35q-22 0 -54 9l-14 3l-24 2q-26 0 -45 -28t-19 -64v-1187q-1 -2 -1 -40q-6 -133 -74 -219q-37 -45 -89.5 -69t-115.5 -24
q-59 0 -141 33.5t-123 74.5l37 55q46 70 125 70q23 0 54 -9l14 -3l23 -2q27 0 46.5 28t19.5 64v1187z" />
    <glyph glyph-name="approxequal" unicode="&#x2248;" horiz-adv-x="1182" 
d="M967 822v-385l-31 -10q-96 -35 -156 -35q-47 0 -93 10.5t-122 38.5l-25 9q-61 24 -91.5 32t-60.5 8q-64 0 -121 -19q-26 -7 -43 -15l-24 -9v394q10 3 16 5q4 2 22 8q93 32 150 32q45 0 86 -10t120 -39q81 -31 116 -40q33 -9 69 -9q80 0 188 34z" />
    <glyph glyph-name="notequal" unicode="&#x2260;" horiz-adv-x="1176" 
d="M653 1159l109 -29l-42 -157h304v-214h-362l-49 -182h411v-214h-467l-54 -203l-110 29l46 174h-287v214h343l49 182h-392v214h450z" />
    <glyph glyph-name="lessequal" unicode="&#x2264;" horiz-adv-x="1160" 
d="M119 934q0 88 101 136l731 315v-123q0 -51 -32 -95t-85 -66l-22 -8l-25 -11l-406 -174l-44 -20l-43 -13l19 -6l23 -7l247 -106q51 -24 204 -88l43 -19q56 -24 88.5 -67.5t32.5 -92.5v-123l-731 315q-52 24 -76.5 56.5t-24.5 79.5v117zM119 602l730 -317q48 -20 75 -59.5
t27 -88.5v-128l-731 315q-52 24 -76.5 56.5t-24.5 79.5v142z" />
    <glyph glyph-name="greaterequal" unicode="&#x2265;" horiz-adv-x="1160" 
d="M1033 817q0 -92 -102 -136l-730 -315v123q0 51 31.5 93.5t88.5 66.5l44 19q108 45 162 70l41 18l204 87l43 19l43 13l-43 13l-44 20l-407 174l-47 19q-52 22 -84 66t-32 95v123l730 -315q102 -48 102 -136v-117zM1033 453q0 -89 -102 -136l-730 -315v128q0 47 29.5 92
t72.5 63l730 317v-149z" />
    <glyph glyph-name="lozenge" unicode="&#x25ca;" horiz-adv-x="1160" 
d="M1080 668l-377 -867h-215l-377 867l377 866h215zM614 1171q-8 17 -13 42.5t-6 50.5q-7 -64 -18 -93l-220 -503l220 -505q16 -40 18 -94q4 46 8 61q3 15 11 33l221 505z" />
    <glyph glyph-name="uniF6C3" unicode="&#xf6c3;" horiz-adv-x="0" 
d="M-411 -167h96q38 0 59 -21t21 -57v-9q0 -9 -1 -10l-20 -127q-5 -35 -30.5 -56.5t-61.5 -21.5h-63v302z" />
    <glyph glyph-name="uniF731" unicode="&#xf731;" horiz-adv-x="0" 
 />
    <glyph glyph-name="ff" unicode="&#xfb00;" horiz-adv-x="1452" 
d="M931 0v824h-496v-824h-230v824h-169v127q0 48 35.5 70t115.5 22h18v107q0 63 19.5 116t56.5 92t89.5 60t115.5 21q27 0 64 -9t74 -24q81 -33 124 -73l-30 -48q-47 -74 -136 -74q-19 0 -31 4q-13 4 -54 4q-27 0 -45 -23t-18 -56v-46q0 -49 1 -51h496v107q0 63 19.5 116
t56.5 92t89.5 60t115.5 21q27 0 64 -9t74 -24q81 -33 124 -73l-30 -48q-47 -74 -136 -74q-19 0 -31 4q-13 4 -54 4q-27 0 -45 -23t-18 -56v-46q0 -50 1 -52h251v-218h-251v-824h-230z" />
    <glyph glyph-name="fi" unicode="&#xfb01;" horiz-adv-x="1290" 
d="M869.5 1371q11.5 27 32.5 48t48.5 32.5t57.5 11.5q59 0 106 -44q43 -43 43 -105q0 -40 -19.5 -74t-54.5 -55q-35 -20 -75 -20q-31 0 -58.5 11.5t-47.5 32.5q-21 21 -32.5 48t-11.5 57t11.5 57zM205 0v824h-169v127q0 48 35.5 70t115.5 22h18v107q0 63 19.5 116t56.5 92
t89.5 60t115.5 21q27 0 64 -9t74 -24q81 -33 124 -73l-30 -48q-47 -74 -136 -74q-19 0 -31 4q-13 4 -54 4q-27 0 -45 -23t-18 -56v-46q0 -50 1 -52h687v-1042h-230v824h-457v-824h-230z" />
    <glyph glyph-name="fl" unicode="&#xfb02;" horiz-adv-x="1288" 
d="M205 0v824h-169v127q0 48 35.5 70t115.5 22h18v107q0 63 19.5 116t56.5 92t89.5 60t115.5 21q27 0 64 -9t74 -24q81 -33 124 -73l-30 -48q-47 -74 -136 -74q-19 0 -31 4q-13 4 -54 4q-27 0 -45 -23t-18 -56v-46q0 -50 1 -52h251v-218h-251v-824h-230zM1122 1433v-1433
h-230v1433h230z" />
    <glyph glyph-name="ffi" unicode="&#xfb03;" horiz-adv-x="2016" 
d="M1595.5 1371q11.5 27 32.5 48t48.5 32.5t57.5 11.5q59 0 106 -44q43 -43 43 -105q0 -40 -19.5 -74t-54.5 -55q-35 -20 -75 -20q-31 0 -58.5 11.5t-47.5 32.5q-21 21 -32.5 48t-11.5 57t11.5 57zM931 0v824h-496v-824h-230v824h-169v127q0 48 35.5 70t115.5 22h18v107
q0 63 19.5 116t56.5 92t89.5 60t115.5 21q27 0 64 -9t74 -24q81 -33 124 -73l-30 -48q-47 -74 -136 -74q-19 0 -31 4q-13 4 -54 4q-27 0 -45 -23t-18 -56v-46q0 -49 1 -51h496v107q0 63 19.5 116t56.5 92t89.5 60t115.5 21q27 0 64 -9t74 -24q81 -33 124 -73l-30 -48
q-47 -74 -136 -74q-19 0 -31 4q-13 4 -54 4q-27 0 -45 -23t-18 -56v-47q0 -53 1 -56h687v-1037h-230v824h-457v-824h-230z" />
    <glyph glyph-name="ffl" unicode="&#xfb04;" horiz-adv-x="2014" 
d="M931 0v824h-496v-824h-230v824h-169v127q0 48 35.5 70t115.5 22h18v107q0 63 19.5 116t56.5 92t89.5 60t115.5 21q27 0 64 -9t74 -24q81 -33 124 -73l-30 -48q-47 -74 -136 -74q-19 0 -31 4q-13 4 -54 4q-27 0 -45 -23t-18 -56v-46q0 -50 1 -52h447q14 0 15 1h34v107
q0 63 19.5 116t56.5 92t89.5 60t115.5 21q27 0 64 -9t74 -24q81 -33 124 -73l-30 -48q-47 -74 -136 -74q-19 0 -31 4q-13 4 -54 4q-27 0 -45 -23t-18 -56v-46q0 -50 1 -52h251v-218h-251v-824h-230zM1848 1433v-1433h-230v1433h230z" />
    <glyph glyph-name="s_t" unicode="&#xfb06;" horiz-adv-x="1631" 
d="M99 236q31 19 76 34q15 7 41 7q23 0 44.5 -9.5t55.5 -33.5q46 -34 103 -34q25 0 51 8.5t47 23.5q47 35 47 92q0 24 -7.5 41t-26.5 32q-29 25 -129 58q-108 36 -173.5 80t-96.5 101t-31 134q0 59 27 113t77 97q47 40 106.5 62t120.5 22q108 0 208 -75q35 -25 63 -55
l13 -16l15 -18q-46 -41 -67 -57q-24 -18 -43 -25t-44 -7q-23 0 -48 13l-16 7q-51 20 -76 20q-51 0 -85 -31q-14 -12 -22 -27t-8 -27q0 -45 47 -72q17 -11 34 -18l64 -21q83 -25 134.5 -49t89.5 -56q97 -82 97 -222q0 -68 -27 -130t-76 -110q-51 -49 -119 -75.5t-145 -26.5
q-111 0 -208 62t-151 169zM1294 824v-538q0 -36 17 -58t46 -22q23 0 45 6q21 6 38 6q49 0 86 -25.5t70 -80.5l12 -18q-40 -40 -124 -75q-37 -15 -74.5 -24t-64.5 -9q-63 0 -116 21t-90 60q-37 38 -56.5 91t-19.5 116v550h-169v137q0 42 35.5 62t107.5 20h26v219q0 61 28 113
q12 25 28 44h175v-376h280v-219h-280z" />
    <glyph glyph-name="undercommaaccent" horiz-adv-x="635" 
d="M226 -78h95q38 0 59.5 -20.5t21.5 -56.5l-2 -20l-20 -127q-5 -34 -30.5 -55.5t-60.5 -21.5h-63v301z" />
    <glyph glyph-name="breve.case" horiz-adv-x="614" 
d="M601 1792q0 -59 -23 -111t-66 -92q-42 -38 -95 -58.5t-112 -20.5t-111.5 20.5t-94.5 58.5q-43 40 -66 92t-23 111h59q33 0 61 -15.5t42 -42.5q41 -65 133 -65q94 0 133 65q15 28 42 43t62 15h59z" />
    <glyph glyph-name="ring.case" horiz-adv-x="614" 
d="M122.5 1743.5q15.5 36.5 42.5 63.5t63.5 42.5t77.5 15.5t78 -15t64 -43q27 -27 42.5 -63.5t15.5 -77.5t-15.5 -77.5t-42.5 -63.5t-64 -42.5t-78 -15.5t-77.5 15.5t-63.5 42.5t-42.5 63.5t-15.5 77.5t15.5 77.5zM257.5 1617.5q19.5 -19.5 48.5 -19.5t49 19.5t20 48.5
t-20 49t-49 20t-48.5 -20t-19.5 -49t19.5 -48.5z" />
    <glyph glyph-name="tilde.case" horiz-adv-x="614" 
d="M365.5 1512.5q-29.5 9.5 -73.5 32.5l-8 5l-12 6q-31 17 -48.5 24t-31.5 7q-44 0 -44 -75h-153q0 111 49 173t138 62q26 0 51.5 -8.5t71.5 -32.5q43 -25 65 -33q19 -9 39 -9q29 0 39.5 14.5t10.5 51.5h157q-4 -64 -13.5 -100.5t-29.5 -62.5q-22 -30 -58.5 -45.5
t-92.5 -18.5q-27 0 -56.5 9.5z" />
    <glyph glyph-name="hungarumlaut.case" horiz-adv-x="713" 
d="M279 1588q-23 -25 -58.5 -35t-94.5 -9h-64l108 164l26 38q18 29 32.5 39t45.5 16q58 8 97 8h101zM569 1585q-21 -23 -54 -32t-96 -9h-76l183 223q20 24 54.5 33t101.5 9h113z" />
    <glyph glyph-name="uni0326.case" horiz-adv-x="0" 
d="M-387 1443h96q38 0 59 -21t21 -57v-9q0 -9 -1 -10l-20 -127q-5 -35 -30.5 -56.5t-61.5 -21.5h-63v302z" />
    <glyph glyph-name="grave.case" horiz-adv-x="614" 
d="M106 1812h148q92 0 128 -49q10 -13 38 -58q32 -51 96 -162h-103q-91 0 -128 51z" />
    <glyph glyph-name="acute.case" horiz-adv-x="660" 
d="M338 1594q-38 -50 -129 -50h-103l53 88l21 36l23 37l37 58q38 50 128 50h148z" />
    <glyph glyph-name="dotaccent.case" horiz-adv-x="635" 
d="M190 1749q19 33 52 52q31 19 73 19q40 0 73 -19t52 -52q19 -31 19 -72q0 -38 -19 -70.5t-53 -53.5q-35 -20 -72 -20q-38 0 -70.5 19t-53.5 53q-20 35 -20 72q0 39 19 72z" />
    <glyph glyph-name="dieresis.case" horiz-adv-x="614" 
d="M21 1723.5q17 29.5 46 47.5q29 17 62 17t62.5 -17t47.5 -47q17 -29 17 -63q0 -33 -17 -62t-47 -46q-29 -17 -63 -17q-53 0 -89 36t-36 89q0 33 17 62.5zM373 1723.5q17 29.5 46 47.5q29 17 62 17t62.5 -17t47.5 -47q17 -29 17 -63q0 -33 -17 -62t-47 -46q-29 -17 -63 -17
q-52 0 -88.5 36.5t-36.5 88.5q0 33 17 62.5z" />
    <glyph glyph-name="macron.case" horiz-adv-x="614" 
d="M30 1725h571v-184h-571v184z" />
    <glyph glyph-name="circumflex.case" horiz-adv-x="672" 
d="M347 1641q-6 7 -10 17l-5 11l-6 -13l-9 -14l-31 -32q-30 -32 -48 -48.5t-36 -27.5q-21 -13 -46 -19t-60 -6h-80l172 227q35 50 128 50h32q89 0 127 -50l173 -227h-80q-77 0 -130 41q-21 15 -46 42z" />
    <glyph glyph-name="caron.case" horiz-adv-x="672" 
d="M337 1636q3 9 9 17q27 24 60 59q25 26 46.5 41.5t46.5 23.5q37 8 68 8h80l-173 -227q-39 -51 -127 -50h-32q-90 0 -128 50l-172 227h80q73 0 128 -40q19 -12 46 -42q21 -24 47 -50q7 -7 10 -17t5 -12z" />
    <glyph glyph-name="Kcommaaccent.alt" horiz-adv-x="1394" 
 />
    <glyph glyph-name="f_f_j" horiz-adv-x="2012" 
d="M1595.5 1371q11.5 27 32.5 48t48.5 32.5t57.5 11.5t57.5 -11.5t48.5 -32.5t32.5 -48t11.5 -57t-11.5 -57t-32.5 -48q-20 -21 -47.5 -32.5t-58.5 -11.5t-58.5 11.5t-47.5 32.5q-21 21 -32.5 48t-11.5 57t11.5 57zM931 0v824h-496v-824h-230v824h-169v127q0 48 35.5 70
t115.5 22h18v107q0 63 19.5 116t56.5 92t89.5 60t115.5 21q27 0 64 -9t74 -24q81 -33 124 -73l-30 -48q-47 -74 -136 -74q-19 0 -31 4q-13 4 -54 4q-27 0 -45 -23t-18 -56v-46q0 -49 1 -51h496v107q0 63 19.5 116t56.5 92t89.5 60t115.5 21q27 0 64 -9t74 -24
q81 -33 124 -73l-30 -48q-47 -74 -136 -74q-19 0 -31 4q-13 4 -54 4q-27 0 -45 -23t-18 -56v-47q0 -53 1 -56h687v-991q0 -17 -4 -24q-11 -135 -95 -246q-40 -52 -93 -93t-113 -66q-32 68 -41 95t-9 58q0 51 41 101l35 43q33 39 44 95q4 11 4 46v769h-456v-824h-230z" />
    <glyph glyph-name="f_j" horiz-adv-x="1286" 
d="M869.5 1371q11.5 27 32.5 48t48.5 32.5t57.5 11.5t57.5 -11.5t48.5 -32.5t32.5 -48t11.5 -57t-11.5 -57t-32.5 -48q-20 -21 -47.5 -32.5t-58.5 -11.5t-58.5 11.5t-47.5 32.5q-21 21 -32.5 48t-11.5 57t11.5 57zM205 0v824h-169v127q0 48 35.5 70t115.5 22h18v107
q0 63 19.5 116t56.5 92t89.5 60t115.5 21q27 0 64 -9t74 -24q81 -33 124 -73l-30 -48q-47 -74 -136 -74q-19 0 -31 4q-13 4 -54 4q-27 0 -45 -23t-18 -56v-47q0 -53 1 -56h687v-991q0 -17 -4 -24q-11 -135 -95 -246q-40 -52 -93 -93t-113 -66q-32 68 -41 95t-9 58
q0 51 41 101l35 43q33 39 44 95q4 11 4 46v769h-456v-824h-230z" />
    </font>
</defs>
</svg>
